  0
SECTION
  2
HEADER
  9
$ANGBASE
  50
0.0
  9
$ANGDIR
  70
1
  9
$MEASUREMENT
  70
0
  0
ENDSEC
  0
SECTION
  2
TABLES
  0
TABLE
  2
LTYPE
  70
4
  0
LTYPE
  5
40F
  2
CONTINUOUS
  70
0
  3
Solid line
  72
65
  73
0
  40
0.0
  0
LTYPE
  5
410
  2
DASHDOT
 70
0
  3
Dash Dot ____ _ ____ _
 72
65
 73
4
 40
2.0
 49
1.25
 49
-0.25
 49
0.25
 49
-0.25
  0
LTYPE
  5
411
  2
DASHED
 70
0
  3
Dashed __ __ __ __ __
 72
65
 73
2
 40
0.75
 49
0.5
 49
-0.25
  0
LTYPE
  5
43B
  2
DOTTED
 70
0
  3
Dotted .  .  .  .
 72
65
 73
2
 40
0.2
 49
0.0
 49
-0.2
  0
ENDTAB
  0
TABLE
  2
STYLE
  70
4
  0
STYLE
  2
KICAD
  70
0
  40
0
  41
1
  42
1
  50
0
  71
0
  3
isocp.shx
  0
STYLE
  2
KICADB
  70
0
  40
0
  41
1
  42
1
  50
0
  71
0
  3
isocp.shx
  0
STYLE
  2
KICADI
  70
0
  40
0
  41
1
  42
1
  50
15
  71
0
  3
isocp.shx
  0
STYLE
  2
KICADBI
  70
0
  40
0
  41
1
  42
1
  50
15
  71
0
  3
isocp.shx
  0
ENDTAB
  0
TABLE
  2
LAYER
  70
1
  0
LAYER
  2
BLACK
  70
0
  62
7
  6
CONTINUOUS
  0
ENDTAB
  0
ENDSEC
  0
SECTION
  2
ENTITIES
0
LINE
8
BLACK
6
CONTINUOUS
10
-0.7279527559055118
20
2.445472440944882
11
-0.7262824409448819
21
2.4447805511811023
0
LINE
8
BLACK
6
CONTINUOUS
10
-0.7262824409448819
20
2.4447805511811023
11
-0.7255905511811024
21
2.4431102362204724
0
LINE
8
BLACK
6
CONTINUOUS
10
-0.7255905511811024
20
2.4431102362204724
11
-0.7255905511811024
21
0.9383858267716535
0
LINE
8
BLACK
6
CONTINUOUS
10
-0.7255905511811024
20
0.9383858267716535
11
-0.7262824409448819
21
0.9367155118110236
0
LINE
8
BLACK
6
CONTINUOUS
10
-0.7262824409448819
20
0.9367155118110236
11
-0.7279527559055118
21
0.9360236220472441
0
LINE
8
BLACK
6
CONTINUOUS
10
-0.7279527559055118
20
0.9360236220472441
11
-0.9326771653543307
21
0.9360236220472441
0
LINE
8
BLACK
6
CONTINUOUS
10
-0.9326771653543307
20
0.9360236220472441
11
-0.9343474803149606
21
0.9367155118110236
0
LINE
8
BLACK
6
CONTINUOUS
10
-0.9343474803149606
20
0.9367155118110236
11
-0.9350393700787402
21
0.9383858267716535
0
LINE
8
BLACK
6
CONTINUOUS
10
-0.9350393700787402
20
0.9383858267716535
11
-0.9350393700787402
21
2.3407480314960631
0
LINE
8
BLACK
6
CONTINUOUS
10
-0.9350393700787402
20
2.3407480314960631
11
-0.9343474803149606
21
2.342418346456693
0
LINE
8
BLACK
6
CONTINUOUS
10
-0.9343474803149606
20
2.342418346456693
11
-0.9326771653543307
21
2.3431102362204723
0
LINE
8
BLACK
6
CONTINUOUS
10
-0.9326771653543307
20
2.3431102362204723
11
-0.8326771653543307
21
2.3431102362204723
0
LINE
8
BLACK
6
CONTINUOUS
10
-0.8326771653543307
20
2.3431102362204723
11
-0.8326771653543307
21
2.4431102362204724
0
LINE
8
BLACK
6
CONTINUOUS
10
-0.8326771653543307
20
2.4431102362204724
11
-0.8319852755905511
21
2.4447805511811023
0
LINE
8
BLACK
6
CONTINUOUS
10
-0.8319852755905511
20
2.4447805511811023
11
-0.8303149606299213
21
2.445472440944882
0
LINE
8
BLACK
6
CONTINUOUS
10
-0.8303149606299213
20
2.445472440944882
11
-0.7279527559055118
21
2.445472440944882
0
LINE
8
BLACK
6
CONTINUOUS
10
-0.8279527559055118
20
2.4407480314960628
11
-0.8279527559055118
21
2.3407480314960631
0
LINE
8
BLACK
6
CONTINUOUS
10
-0.8279527559055118
20
2.3407480314960631
11
-0.8286446456692913
21
2.3390777165354328
0
LINE
8
BLACK
6
CONTINUOUS
10
-0.8286446456692913
20
2.3390777165354328
11
-0.8303149606299213
21
2.3383858267716535
0
LINE
8
BLACK
6
CONTINUOUS
10
-0.8303149606299213
20
2.3383858267716535
11
-0.9303149606299213
21
2.3383858267716535
0
LINE
8
BLACK
6
CONTINUOUS
10
-0.9303149606299213
20
2.3383858267716535
11
-0.9303149606299213
21
0.940748031496063
0
LINE
8
BLACK
6
CONTINUOUS
10
-0.9303149606299213
20
0.940748031496063
11
-0.7303149606299213
21
0.940748031496063
0
LINE
8
BLACK
6
CONTINUOUS
10
-0.7303149606299213
20
0.940748031496063
11
-0.7303149606299213
21
2.4407480314960628
0
LINE
8
BLACK
6
CONTINUOUS
10
-0.7303149606299213
20
2.4407480314960628
11
-0.8279527559055118
21
2.4407480314960628
0
LINE
8
BLACK
6
CONTINUOUS
10
-0.8786446456692913
20
2.4447805511811023
11
-0.8779527559055118
21
2.4431102362204724
0
LINE
8
BLACK
6
CONTINUOUS
10
-0.8779527559055118
20
2.4431102362204724
11
-0.8786446456692913
21
2.4414399212598425
0
LINE
8
BLACK
6
CONTINUOUS
10
-0.8786446456692913
20
2.4414399212598425
11
-0.8803149606299212
21
2.4407480314960628
0
LINE
8
BLACK
6
CONTINUOUS
10
-0.8803149606299212
20
2.4407480314960628
11
-0.9303149606299213
21
2.4407480314960628
0
LINE
8
BLACK
6
CONTINUOUS
10
-0.9303149606299213
20
2.4407480314960628
11
-0.9303149606299213
21
2.390748031496063
0
LINE
8
BLACK
6
CONTINUOUS
10
-0.9303149606299213
20
2.390748031496063
11
-0.9310068503937008
21
2.3890777165354331
0
LINE
8
BLACK
6
CONTINUOUS
10
-0.9310068503937008
20
2.3890777165354331
11
-0.9326771653543307
21
2.3883858267716533
0
LINE
8
BLACK
6
CONTINUOUS
10
-0.9326771653543307
20
2.3883858267716533
11
-0.9343474803149606
21
2.3890777165354331
0
LINE
8
BLACK
6
CONTINUOUS
10
-0.9343474803149606
20
2.3890777165354331
11
-0.9350393700787402
21
2.390748031496063
0
LINE
8
BLACK
6
CONTINUOUS
10
-0.9350393700787402
20
2.390748031496063
11
-0.9350393700787402
21
2.4431102362204724
0
LINE
8
BLACK
6
CONTINUOUS
10
-0.9350393700787402
20
2.4431102362204724
11
-0.9343474803149606
21
2.4447805511811023
0
LINE
8
BLACK
6
CONTINUOUS
10
-0.9343474803149606
20
2.4447805511811023
11
-0.9326771653543307
21
2.445472440944882
0
LINE
8
BLACK
6
CONTINUOUS
10
-0.9326771653543307
20
2.445472440944882
11
-0.8803149606299212
21
2.445472440944882
0
LINE
8
BLACK
6
CONTINUOUS
10
-0.8803149606299212
20
2.445472440944882
11
-0.8786446456692913
21
2.4447805511811023
0
LINE
8
BLACK
6
CONTINUOUS
10
-0.8386788976377952
20
2.524041653543307
11
-0.8385436614173228
21
2.5239281889763778
0
LINE
8
BLACK
6
CONTINUOUS
10
-0.8385436614173228
20
2.5239281889763778
11
-0.8383683070866141
21
2.5239079921259844
0
LINE
8
BLACK
6
CONTINUOUS
10
-0.8383683070866141
20
2.5239079921259844
11
-0.834618779527559
21
2.5220332283464568
0
LINE
8
BLACK
6
CONTINUOUS
10
-0.834618779527559
20
2.5220332283464568
11
-0.8339097244094488
21
2.5215073228346454
0
LINE
8
BLACK
6
CONTINUOUS
10
-0.8339097244094488
20
2.5215073228346454
11
-0.8338513779527559
21
2.5214801181102362
0
LINE
8
BLACK
6
CONTINUOUS
10
-0.8338513779527559
20
2.5214801181102362
11
-0.8319766141732283
21
2.5196053543307086
0
LINE
8
BLACK
6
CONTINUOUS
10
-0.8319766141732283
20
2.5196053543307086
11
-0.8313884251968504
21
2.5187653149606297
0
LINE
8
BLACK
6
CONTINUOUS
10
-0.8313884251968504
20
2.5187653149606297
11
-0.8312124015748031
21
2.5167532283464564
0
LINE
8
BLACK
6
CONTINUOUS
10
-0.8312124015748031
20
2.5167532283464564
11
-0.832370905511811
21
2.5150986614173227
0
LINE
8
BLACK
6
CONTINUOUS
10
-0.832370905511811
20
2.5150986614173227
11
-0.8343218897637795
21
2.5145759448818898
0
LINE
8
BLACK
6
CONTINUOUS
10
-0.8343218897637795
20
2.5145759448818898
11
-0.8361524409448818
21
2.5154295275590552
0
LINE
8
BLACK
6
CONTINUOUS
10
-0.8361524409448818
20
2.5154295275590552
11
-0.8376883858267716
21
2.5169654724409449
0
LINE
8
BLACK
6
CONTINUOUS
10
-0.8376883858267716
20
2.5169654724409449
11
-0.8403858661417323
21
2.5183142125984253
0
LINE
8
BLACK
6
CONTINUOUS
10
-0.8403858661417323
20
2.5183142125984253
11
-0.8483655905511811
21
2.5183142125984253
0
LINE
8
BLACK
6
CONTINUOUS
10
-0.8483655905511811
20
2.5183142125984253
11
-0.8510630708661417
21
2.5169654724409449
0
LINE
8
BLACK
6
CONTINUOUS
10
-0.8510630708661417
20
2.5169654724409449
11
-0.8522601968503937
21
2.5157683464566927
0
LINE
8
BLACK
6
CONTINUOUS
10
-0.8522601968503937
20
2.5157683464566927
11
-0.853608937007874
21
2.513070866141732
0
LINE
8
BLACK
6
CONTINUOUS
10
-0.853608937007874
20
2.513070866141732
11
-0.853608937007874
21
2.5104975590551182
0
LINE
8
BLACK
6
CONTINUOUS
10
-0.853608937007874
20
2.5104975590551182
11
-0.8521061417322835
21
2.5059891338582676
0
LINE
8
BLACK
6
CONTINUOUS
10
-0.8521061417322835
20
2.5059891338582676
11
-0.8301018503937008
21
2.4839848031496063
0
LINE
8
BLACK
6
CONTINUOUS
10
-0.8301018503937008
20
2.4839848031496063
11
-0.8297320866141732
21
2.4834567716535432
0
LINE
8
BLACK
6
CONTINUOUS
10
-0.8297320866141732
20
2.4834567716535432
11
-0.8296325984251969
21
2.4833732677165354
0
LINE
8
BLACK
6
CONTINUOUS
10
-0.8296325984251969
20
2.4833732677165354
11
-0.8296188188976378
21
2.4832949606299213
0
LINE
8
BLACK
6
CONTINUOUS
10
-0.8296188188976378
20
2.4832949606299213
11
-0.8295136220472441
21
2.4831447637795274
0
LINE
8
BLACK
6
CONTINUOUS
10
-0.8295136220472441
20
2.4831447637795274
11
-0.8294361811023622
21
2.4822592125984251
0
LINE
8
BLACK
6
CONTINUOUS
10
-0.8294361811023622
20
2.4822592125984251
11
-0.8292818503937007
21
2.4813841338582678
0
LINE
8
BLACK
6
CONTINUOUS
10
-0.8292818503937007
20
2.4813841338582678
11
-0.8293493700787401
21
2.4812672047244093
0
LINE
8
BLACK
6
CONTINUOUS
10
-0.8293493700787401
20
2.4812672047244093
11
-0.8293375984251968
21
2.4811326377952754
0
LINE
8
BLACK
6
CONTINUOUS
10
-0.8293375984251968
20
2.4811326377952754
11
-0.8298474803149606
21
2.4804044881889764
0
LINE
8
BLACK
6
CONTINUOUS
10
-0.8298474803149606
20
2.4804044881889764
11
-0.8302917716535433
21
2.4796349606299213
0
LINE
8
BLACK
6
CONTINUOUS
10
-0.8302917716535433
20
2.4796349606299213
11
-0.8304186614173228
21
2.4795888188976378
0
LINE
8
BLACK
6
CONTINUOUS
10
-0.8304186614173228
20
2.4795888188976378
11
-0.8304961417322835
21
2.4794781102362204
0
LINE
8
BLACK
6
CONTINUOUS
10
-0.8304961417322835
20
2.4794781102362204
11
-0.83135468503937
21
2.4792481102362203
0
LINE
8
BLACK
6
CONTINUOUS
10
-0.83135468503937
20
2.4792481102362203
11
-0.8321897637795276
21
2.4789441338582678
0
LINE
8
BLACK
6
CONTINUOUS
10
-0.8321897637795276
20
2.4789441338582678
11
-0.8565616929133858
21
2.4789441338582678
0
LINE
8
BLACK
6
CONTINUOUS
10
-0.8565616929133858
20
2.4789441338582678
11
-0.8575716141732284
21
2.4791222047244093
0
LINE
8
BLACK
6
CONTINUOUS
10
-0.8575716141732284
20
2.4791222047244093
11
-0.8591188582677165
21
2.4804205118110234
0
LINE
8
BLACK
6
CONTINUOUS
10
-0.8591188582677165
20
2.4804205118110234
11
-0.8594696062992125
21
2.4824096456692915
0
LINE
8
BLACK
6
CONTINUOUS
10
-0.8594696062992125
20
2.4824096456692915
11
-0.8584596850393701
21
2.4841588188976376
0
LINE
8
BLACK
6
CONTINUOUS
10
-0.8584596850393701
20
2.4841588188976376
11
-0.8565616929133858
21
2.4848496456692915
0
LINE
8
BLACK
6
CONTINUOUS
10
-0.8565616929133858
20
2.4848496456692915
11
-0.8393183464566929
21
2.4848496456692915
0
LINE
8
BLACK
6
CONTINUOUS
10
-0.8393183464566929
20
2.4848496456692915
11
-0.8567748425196851
21
2.5023061811023624
0
LINE
8
BLACK
6
CONTINUOUS
10
-0.8567748425196851
20
2.5023061811023624
11
-0.857363031496063
21
2.5031462204724408
0
LINE
8
BLACK
6
CONTINUOUS
10
-0.857363031496063
20
2.5031462204724408
11
-0.8573784251968504
21
2.503322086614173
0
LINE
8
BLACK
6
CONTINUOUS
10
-0.8573784251968504
20
2.503322086614173
11
-0.8574881496062992
21
2.5034603543307088
0
LINE
8
BLACK
6
CONTINUOUS
10
-0.8574881496062992
20
2.5034603543307088
11
-0.8593629133858267
21
2.5090846456692915
0
LINE
8
BLACK
6
CONTINUOUS
10
-0.8593629133858267
20
2.5090846456692915
11
-0.8594924015748031
21
2.509957834645669
0
LINE
8
BLACK
6
CONTINUOUS
10
-0.8594924015748031
20
2.509957834645669
11
-0.8595144488188976
21
2.5100183858267715
0
LINE
8
BLACK
6
CONTINUOUS
10
-0.8595144488188976
20
2.5100183858267715
11
-0.8595144488188976
21
2.5137679133858266
0
LINE
8
BLACK
6
CONTINUOUS
10
-0.8595144488188976
20
2.5137679133858266
11
-0.8593363779527559
21
2.5147778346456691
0
LINE
8
BLACK
6
CONTINUOUS
10
-0.8593363779527559
20
2.5147778346456691
11
-0.8592229133858268
21
2.5149131102362206
0
LINE
8
BLACK
6
CONTINUOUS
10
-0.8592229133858268
20
2.5149131102362206
11
-0.859202716535433
21
2.5150884251968502
0
LINE
8
BLACK
6
CONTINUOUS
10
-0.859202716535433
20
2.5150884251968502
11
-0.8573279527559055
21
2.5188379527559053
0
LINE
8
BLACK
6
CONTINUOUS
10
-0.8573279527559055
20
2.5188379527559053
11
-0.8568020472440945
21
2.5195470472440946
0
LINE
8
BLACK
6
CONTINUOUS
10
-0.8568020472440945
20
2.5195470472440946
11
-0.8567748425196851
21
2.5196053543307086
0
LINE
8
BLACK
6
CONTINUOUS
10
-0.8567748425196851
20
2.5196053543307086
11
-0.8549000787401575
21
2.5214801181102362
0
LINE
8
BLACK
6
CONTINUOUS
10
-0.8549000787401575
20
2.5214801181102362
11
-0.8541770078740157
21
2.5219864173228346
0
LINE
8
BLACK
6
CONTINUOUS
10
-0.8541770078740157
20
2.5219864173228346
11
-0.8541326771653543
21
2.5220332283464568
0
LINE
8
BLACK
6
CONTINUOUS
10
-0.8541326771653543
20
2.5220332283464568
11
-0.8503831496062992
21
2.5239079921259844
0
LINE
8
BLACK
6
CONTINUOUS
10
-0.8503831496062992
20
2.5239079921259844
11
-0.8494002362204724
21
2.5242003543307088
0
LINE
8
BLACK
6
CONTINUOUS
10
-0.8494002362204724
20
2.5242003543307088
11
-0.8492285433070866
21
2.5241593700787401
0
LINE
8
BLACK
6
CONTINUOUS
10
-0.8492285433070866
20
2.5241593700787401
11
-0.8490626377952756
21
2.5242197244094489
0
LINE
8
BLACK
6
CONTINUOUS
10
-0.8490626377952756
20
2.5242197244094489
11
-0.8396888188976378
21
2.5242197244094489
0
LINE
8
BLACK
6
CONTINUOUS
10
-0.8396888188976378
20
2.5242197244094489
11
-0.8386788976377952
21
2.524041653543307
0
LINE
8
BLACK
6
CONTINUOUS
10
-0.81492968503937
20
2.5231649606299213
11
-0.8142388582677165
21
2.5212669685039368
0
LINE
8
BLACK
6
CONTINUOUS
10
-0.8142388582677165
20
2.5212669685039368
11
-0.8142388582677165
21
2.4936246850393702
0
LINE
8
BLACK
6
CONTINUOUS
10
-0.8142388582677165
20
2.4936246850393702
11
-0.812736062992126
21
2.4891162598425196
0
LINE
8
BLACK
6
CONTINUOUS
10
-0.812736062992126
20
2.4891162598425196
11
-0.809972283464567
21
2.4863524409448816
0
LINE
8
BLACK
6
CONTINUOUS
10
-0.809972283464567
20
2.4863524409448816
11
-0.8054638976377952
21
2.4848496456692915
0
LINE
8
BLACK
6
CONTINUOUS
10
-0.8054638976377952
20
2.4848496456692915
11
-0.8021935039370078
21
2.4848496456692915
0
LINE
8
BLACK
6
CONTINUOUS
10
-0.8021935039370078
20
2.4848496456692915
11
-0.8011835826771654
21
2.4846715748031496
0
LINE
8
BLACK
6
CONTINUOUS
10
-0.8011835826771654
20
2.4846715748031496
11
-0.7996363385826771
21
2.4833732677165354
0
LINE
8
BLACK
6
CONTINUOUS
10
-0.7996363385826771
20
2.4833732677165354
11
-0.7992855905511811
21
2.4813841338582678
0
LINE
8
BLACK
6
CONTINUOUS
10
-0.7992855905511811
20
2.4813841338582678
11
-0.8002955118110237
21
2.4796349606299213
0
LINE
8
BLACK
6
CONTINUOUS
10
-0.8002955118110237
20
2.4796349606299213
11
-0.8021935039370078
21
2.4789441338582678
0
LINE
8
BLACK
6
CONTINUOUS
10
-0.8021935039370078
20
2.4789441338582678
11
-0.8059430314960629
21
2.4789441338582678
0
LINE
8
BLACK
6
CONTINUOUS
10
-0.8059430314960629
20
2.4789441338582678
11
-0.8068124409448819
21
2.4790974409448818
0
LINE
8
BLACK
6
CONTINUOUS
10
-0.8068124409448819
20
2.4790974409448818
11
-0.8068768110236221
21
2.4790956692913384
0
LINE
8
BLACK
6
CONTINUOUS
10
-0.8068768110236221
20
2.4790956692913384
11
-0.812501062992126
21
2.480970433070866
0
LINE
8
BLACK
6
CONTINUOUS
10
-0.812501062992126
20
2.480970433070866
11
-0.8134028346456693
21
2.4814587401574801
0
LINE
8
BLACK
6
CONTINUOUS
10
-0.8134028346456693
20
2.4814587401574801
11
-0.8134952362204724
21
2.4816091338582678
0
LINE
8
BLACK
6
CONTINUOUS
10
-0.8134952362204724
20
2.4816091338582678
11
-0.8136552362204724
21
2.4816837401574801
0
LINE
8
BLACK
6
CONTINUOUS
10
-0.8136552362204724
20
2.4816837401574801
11
-0.8174047637795275
21
2.4854333070866139
0
LINE
8
BLACK
6
CONTINUOUS
10
-0.8174047637795275
20
2.4854333070866139
11
-0.8179929921259842
21
2.4862733464566928
0
LINE
8
BLACK
6
CONTINUOUS
10
-0.8179929921259842
20
2.4862733464566928
11
-0.8180083858267716
21
2.4864492913385825
0
LINE
8
BLACK
6
CONTINUOUS
10
-0.8180083858267716
20
2.4864492913385825
11
-0.8181180708661417
21
2.4865874803149604
0
LINE
8
BLACK
6
CONTINUOUS
10
-0.8181180708661417
20
2.4865874803149604
11
-0.8199928346456693
21
2.4922117716535435
0
LINE
8
BLACK
6
CONTINUOUS
10
-0.8199928346456693
20
2.4922117716535435
11
-0.8201223228346457
21
2.493084960629921
0
LINE
8
BLACK
6
CONTINUOUS
10
-0.8201223228346457
20
2.493084960629921
11
-0.8201443700787402
21
2.4931455118110235
0
LINE
8
BLACK
6
CONTINUOUS
10
-0.8201443700787402
20
2.4931455118110235
11
-0.8201443700787402
21
2.5212669685039368
0
LINE
8
BLACK
6
CONTINUOUS
10
-0.8201443700787402
20
2.5212669685039368
11
-0.8199662992125984
21
2.5222768897637793
0
LINE
8
BLACK
6
CONTINUOUS
10
-0.8199662992125984
20
2.5222768897637793
11
-0.8186679921259842
21
2.5238241338582679
0
LINE
8
BLACK
6
CONTINUOUS
10
-0.8186679921259842
20
2.5238241338582679
11
-0.8166788582677165
21
2.5241748818897638
0
LINE
8
BLACK
6
CONTINUOUS
10
-0.8166788582677165
20
2.5241748818897638
11
-0.81492968503937
21
2.5231649606299213
0
CIRCLE
8
BLACK
10
-0.3803149606299213
20
3.2884842519685038
40
0.0068897637795276
0
CIRCLE
8
BLACK
10
-0.3661417322834646
20
0.7419291338582678
40
0.0068897637795276
0
CIRCLE
8
BLACK
10
-0.3661417322834646
20
2.6399606299212599
40
0.0068897637795276
0
CIRCLE
8
BLACK
10
-0.1692913385826772
20
1.5151574803149606
40
0.0068897637795276
0
CIRCLE
8
BLACK
10
-0.1692913385826772
20
1.5938976377952756
40
0.0068897637795276
0
CIRCLE
8
BLACK
10
-0.1692913385826772
20
1.6726377952755904
40
0.0068897637795276
0
CIRCLE
8
BLACK
10
-0.1692913385826772
20
1.7513779527559055
40
0.0068897637795276
0
CIRCLE
8
BLACK
10
-0.1692913385826772
20
1.8301181102362205
40
0.0068897637795276
0
CIRCLE
8
BLACK
10
-0.1692913385826772
20
1.9088582677165353
40
0.0068897637795276
0
CIRCLE
8
BLACK
10
-0.2480314960629921
20
1.5151574803149606
40
0.0068897637795276
0
CIRCLE
8
BLACK
10
-0.2480314960629921
20
1.5938976377952756
40
0.0068897637795276
0
CIRCLE
8
BLACK
10
-0.2480314960629921
20
1.6726377952755904
40
0.0068897637795276
0
CIRCLE
8
BLACK
10
-0.2480314960629921
20
1.7513779527559055
40
0.0068897637795276
0
CIRCLE
8
BLACK
10
-0.2480314960629921
20
1.8301181102362205
40
0.0068897637795276
0
CIRCLE
8
BLACK
10
-0.2480314960629921
20
1.9088582677165353
40
0.0068897637795276
0
CIRCLE
8
BLACK
10
-0.3267716535433071
20
1.5151574803149606
40
0.0068897637795276
0
CIRCLE
8
BLACK
10
-0.3267716535433071
20
1.5938976377952756
40
0.0068897637795276
0
CIRCLE
8
BLACK
10
-0.3267716535433071
20
1.6726377952755904
40
0.0068897637795276
0
CIRCLE
8
BLACK
10
-0.3267716535433071
20
1.7513779527559055
40
0.0068897637795276
0
CIRCLE
8
BLACK
10
-0.3267716535433071
20
1.8301181102362205
40
0.0068897637795276
0
CIRCLE
8
BLACK
10
-0.3267716535433071
20
1.9088582677165353
40
0.0068897637795276
0
CIRCLE
8
BLACK
10
-0.405511811023622
20
1.5151574803149606
40
0.0068897637795276
0
CIRCLE
8
BLACK
10
-0.405511811023622
20
1.5938976377952756
40
0.0068897637795276
0
CIRCLE
8
BLACK
10
-0.405511811023622
20
1.6726377952755904
40
0.0068897637795276
0
CIRCLE
8
BLACK
10
-0.405511811023622
20
1.7513779527559055
40
0.0068897637795276
0
CIRCLE
8
BLACK
10
-0.405511811023622
20
1.8301181102362205
40
0.0068897637795276
0
CIRCLE
8
BLACK
10
-0.405511811023622
20
1.9088582677165353
40
0.0068897637795276
0
CIRCLE
8
BLACK
10
-0.484251968503937
20
1.5151574803149606
40
0.0068897637795276
0
CIRCLE
8
BLACK
10
-0.484251968503937
20
1.5938976377952756
40
0.0068897637795276
0
CIRCLE
8
BLACK
10
-0.484251968503937
20
1.6726377952755904
40
0.0068897637795276
0
CIRCLE
8
BLACK
10
-0.484251968503937
20
1.7513779527559055
40
0.0068897637795276
0
CIRCLE
8
BLACK
10
-0.484251968503937
20
1.8301181102362205
40
0.0068897637795276
0
CIRCLE
8
BLACK
10
-0.484251968503937
20
1.9088582677165353
40
0.0068897637795276
0
CIRCLE
8
BLACK
10
-0.562992125984252
20
0.9584645669291338
40
0.0068897637795276
0
CIRCLE
8
BLACK
10
-0.4645669291338583
20
0.9584645669291338
40
0.0068897637795276
0
CIRCLE
8
BLACK
10
-0.3661417322834646
20
0.9584645669291338
40
0.0068897637795276
0
CIRCLE
8
BLACK
10
-0.2677165354330708
20
0.9584645669291338
40
0.0068897637795276
0
CIRCLE
8
BLACK
10
-0.1692913385826772
20
0.9584645669291338
40
0.0068897637795276
0
CIRCLE
8
BLACK
10
-0.562992125984252
20
1.0765748031496063
40
0.0068897637795276
0
CIRCLE
8
BLACK
10
-0.4645669291338583
20
1.0765748031496063
40
0.0068897637795276
0
CIRCLE
8
BLACK
10
-0.3661417322834646
20
1.0765748031496063
40
0.0068897637795276
0
CIRCLE
8
BLACK
10
-0.2677165354330708
20
1.0765748031496063
40
0.0068897637795276
0
CIRCLE
8
BLACK
10
-0.1692913385826772
20
1.0765748031496063
40
0.0068897637795276
0
CIRCLE
8
BLACK
10
-0.562992125984252
20
1.175
40
0.0068897637795276
0
CIRCLE
8
BLACK
10
-0.4645669291338583
20
1.175
40
0.0068897637795276
0
CIRCLE
8
BLACK
10
-0.3661417322834646
20
1.175
40
0.0068897637795276
0
CIRCLE
8
BLACK
10
-0.2677165354330708
20
1.175
40
0.0068897637795276
0
CIRCLE
8
BLACK
10
-0.1692913385826772
20
1.175
40
0.0068897637795276
0
CIRCLE
8
BLACK
10
-0.562992125984252
20
1.2931102362204725
40
0.0068897637795276
0
CIRCLE
8
BLACK
10
-0.4645669291338583
20
1.2931102362204725
40
0.0068897637795276
0
CIRCLE
8
BLACK
10
-0.3661417322834646
20
1.2931102362204725
40
0.0068897637795276
0
CIRCLE
8
BLACK
10
-0.2677165354330708
20
1.2931102362204725
40
0.0068897637795276
0
CIRCLE
8
BLACK
10
-0.1692913385826772
20
1.2931102362204725
40
0.0068897637795276
0
CIRCLE
8
BLACK
10
-0.562992125984252
20
2.0887795275590553
40
0.0068897637795276
0
CIRCLE
8
BLACK
10
-0.4645669291338583
20
2.0887795275590553
40
0.0068897637795276
0
CIRCLE
8
BLACK
10
-0.3661417322834646
20
2.0887795275590553
40
0.0068897637795276
0
CIRCLE
8
BLACK
10
-0.2677165354330708
20
2.0887795275590553
40
0.0068897637795276
0
CIRCLE
8
BLACK
10
-0.1692913385826772
20
2.0887795275590553
40
0.0068897637795276
0
CIRCLE
8
BLACK
10
-0.562992125984252
20
2.2068897637795275
40
0.0068897637795276
0
CIRCLE
8
BLACK
10
-0.4645669291338583
20
2.2068897637795275
40
0.0068897637795276
0
CIRCLE
8
BLACK
10
-0.3661417322834646
20
2.2068897637795275
40
0.0068897637795276
0
CIRCLE
8
BLACK
10
-0.2677165354330708
20
2.2068897637795275
40
0.0068897637795276
0
CIRCLE
8
BLACK
10
-0.1692913385826772
20
2.2068897637795275
40
0.0068897637795276
0
CIRCLE
8
BLACK
10
-0.562992125984252
20
2.305314960629921
40
0.0068897637795276
0
CIRCLE
8
BLACK
10
-0.4645669291338583
20
2.305314960629921
40
0.0068897637795276
0
CIRCLE
8
BLACK
10
-0.3661417322834646
20
2.305314960629921
40
0.0068897637795276
0
CIRCLE
8
BLACK
10
-0.2677165354330708
20
2.305314960629921
40
0.0068897637795276
0
CIRCLE
8
BLACK
10
-0.1692913385826772
20
2.305314960629921
40
0.0068897637795276
0
CIRCLE
8
BLACK
10
-0.562992125984252
20
2.4234251968503937
40
0.0068897637795276
0
CIRCLE
8
BLACK
10
-0.4645669291338583
20
2.4234251968503937
40
0.0068897637795276
0
CIRCLE
8
BLACK
10
-0.3661417322834646
20
2.4234251968503937
40
0.0068897637795276
0
CIRCLE
8
BLACK
10
-0.2677165354330708
20
2.4234251968503937
40
0.0068897637795276
0
CIRCLE
8
BLACK
10
-0.1692913385826772
20
2.4234251968503937
40
0.0068897637795276
0
CIRCLE
8
BLACK
10
-0.7803149606299212
20
2.8884842519685039
40
0.0068897637795276
0
CIRCLE
8
BLACK
10
-0.3803149606299213
20
0.0884842519685039
40
0.0068897637795276
0
CIRCLE
8
BLACK
10
-0.7803149606299212
20
0.4884842519685039
40
0.0068897637795276
0
CIRCLE
8
BLACK
10
-0.8803149606299212
20
2.390748031496063
40
0.0068897637795276
0
CIRCLE
8
BLACK
10
-0.7803149606299212
20
2.390748031496063
40
0.0068897637795276
0
CIRCLE
8
BLACK
10
-0.8803149606299212
20
2.2907480314960629
40
0.0068897637795276
0
CIRCLE
8
BLACK
10
-0.7803149606299212
20
2.2907480314960629
40
0.0068897637795276
0
CIRCLE
8
BLACK
10
-0.8803149606299212
20
2.1907480314960628
40
0.0068897637795276
0
CIRCLE
8
BLACK
10
-0.7803149606299212
20
2.1907480314960628
40
0.0068897637795276
0
CIRCLE
8
BLACK
10
-0.8803149606299212
20
2.0907480314960631
40
0.0068897637795276
0
CIRCLE
8
BLACK
10
-0.7803149606299212
20
2.0907480314960631
40
0.0068897637795276
0
CIRCLE
8
BLACK
10
-0.8803149606299212
20
1.9907480314960631
40
0.0068897637795276
0
CIRCLE
8
BLACK
10
-0.7803149606299212
20
1.9907480314960631
40
0.0068897637795276
0
CIRCLE
8
BLACK
10
-0.8803149606299212
20
1.890748031496063
40
0.0068897637795276
0
CIRCLE
8
BLACK
10
-0.7803149606299212
20
1.890748031496063
40
0.0068897637795276
0
CIRCLE
8
BLACK
10
-0.8803149606299212
20
1.7907480314960629
40
0.0068897637795276
0
CIRCLE
8
BLACK
10
-0.7803149606299212
20
1.7907480314960629
40
0.0068897637795276
0
CIRCLE
8
BLACK
10
-0.8803149606299212
20
1.690748031496063
40
0.0068897637795276
0
CIRCLE
8
BLACK
10
-0.7803149606299212
20
1.690748031496063
40
0.0068897637795276
0
CIRCLE
8
BLACK
10
-0.8803149606299212
20
1.5907480314960629
40
0.0068897637795276
0
CIRCLE
8
BLACK
10
-0.7803149606299212
20
1.5907480314960629
40
0.0068897637795276
0
CIRCLE
8
BLACK
10
-0.8803149606299212
20
1.4907480314960631
40
0.0068897637795276
0
CIRCLE
8
BLACK
10
-0.7803149606299212
20
1.4907480314960631
40
0.0068897637795276
0
CIRCLE
8
BLACK
10
-0.8803149606299212
20
1.390748031496063
40
0.0068897637795276
0
CIRCLE
8
BLACK
10
-0.7803149606299212
20
1.390748031496063
40
0.0068897637795276
0
CIRCLE
8
BLACK
10
-0.8803149606299212
20
1.2907480314960629
40
0.0068897637795276
0
CIRCLE
8
BLACK
10
-0.7803149606299212
20
1.2907480314960629
40
0.0068897637795276
0
CIRCLE
8
BLACK
10
-0.8803149606299212
20
1.190748031496063
40
0.0068897637795276
0
CIRCLE
8
BLACK
10
-0.7803149606299212
20
1.190748031496063
40
0.0068897637795276
0
CIRCLE
8
BLACK
10
-0.8803149606299212
20
1.0907480314960629
40
0.0068897637795276
0
CIRCLE
8
BLACK
10
-0.7803149606299212
20
1.0907480314960629
40
0.0068897637795276
0
CIRCLE
8
BLACK
10
-0.8803149606299212
20
0.9907480314960629
40
0.0068897637795276
0
CIRCLE
8
BLACK
10
-0.7803149606299212
20
0.9907480314960629
40
0.0068897637795276
  0
ENDSEC
  0
EOF
