  0
SECTION
  2
HEADER
  9
$ANGBASE
  50
0.0
  9
$ANGDIR
  70
1
  9
$MEASUREMENT
  70
0
  0
ENDSEC
  0
SECTION
  2
TABLES
  0
TABLE
  2
LTYPE
  70
4
  0
LTYPE
  5
40F
  2
CONTINUOUS
  70
0
  3
Solid line
  72
65
  73
0
  40
0.0
  0
LTYPE
  5
410
  2
DASHDOT
 70
0
  3
Dash Dot ____ _ ____ _
 72
65
 73
4
 40
2.0
 49
1.25
 49
-0.25
 49
0.25
 49
-0.25
  0
LTYPE
  5
411
  2
DASHED
 70
0
  3
Dashed __ __ __ __ __
 72
65
 73
2
 40
0.75
 49
0.5
 49
-0.25
  0
LTYPE
  5
43B
  2
DOTTED
 70
0
  3
Dotted .  .  .  .
 72
65
 73
2
 40
0.2
 49
0.0
 49
-0.2
  0
ENDTAB
  0
TABLE
  2
STYLE
  70
4
  0
STYLE
  2
KICAD
  70
0
  40
0
  41
1
  42
1
  50
0
  71
0
  3
isocp.shx
  0
STYLE
  2
KICADB
  70
0
  40
0
  41
1
  42
1
  50
0
  71
0
  3
isocp.shx
  0
STYLE
  2
KICADI
  70
0
  40
0
  41
1
  42
1
  50
15
  71
0
  3
isocp.shx
  0
STYLE
  2
KICADBI
  70
0
  40
0
  41
1
  42
1
  50
15
  71
0
  3
isocp.shx
  0
ENDTAB
  0
TABLE
  2
LAYER
  70
1
  0
LAYER
  2
BLACK
  70
0
  62
7
  6
CONTINUOUS
  0
ENDTAB
  0
ENDSEC
  0
SECTION
  2
ENTITIES
0
LINE
8
BLACK
6
CONTINUOUS
10
0.0775770866141732
20
3.414228622047244
11
0.0776750787401575
21
3.4141880314960629
0
LINE
8
BLACK
6
CONTINUOUS
10
0.0776750787401575
20
3.4141880314960629
11
0.077780905511811
21
3.4141805118110233
0
LINE
8
BLACK
6
CONTINUOUS
10
0.077780905511811
20
3.4141805118110233
11
0.0783215354330709
21
3.4139736220472439
0
LINE
8
BLACK
6
CONTINUOUS
10
0.0783215354330709
20
3.4139736220472439
11
0.082071062992126
21
3.4120988582677163
0
LINE
8
BLACK
6
CONTINUOUS
10
0.082071062992126
20
3.4120988582677163
11
0.0823190551181102
21
3.4119427952755905
0
LINE
8
BLACK
6
CONTINUOUS
10
0.0823190551181102
20
3.4119427952755905
11
0.0823910236220472
21
3.4119129527559053
0
LINE
8
BLACK
6
CONTINUOUS
10
0.0823910236220472
20
3.4119129527559053
11
0.082471968503937
21
3.4118464960629922
0
LINE
8
BLACK
6
CONTINUOUS
10
0.082471968503937
20
3.4118464960629922
11
0.0825609448818898
21
3.4117905118110237
0
LINE
8
BLACK
6
CONTINUOUS
10
0.0825609448818898
20
3.4117905118110237
11
0.0826120866141732
21
3.4117315354330708
0
LINE
8
BLACK
6
CONTINUOUS
10
0.0826120866141732
20
3.4117315354330708
11
0.0828384645669291
21
3.4115457480314961
0
LINE
8
BLACK
6
CONTINUOUS
10
0.0828384645669291
20
3.4115457480314961
11
0.0847132283464567
21
3.4096709842519686
0
LINE
8
BLACK
6
CONTINUOUS
10
0.0847132283464567
20
3.4096709842519686
11
0.0848989763779528
21
3.4094446456692911
0
LINE
8
BLACK
6
CONTINUOUS
10
0.0848989763779528
20
3.4094446456692911
11
0.0849579921259842
21
3.409393464566929
0
LINE
8
BLACK
6
CONTINUOUS
10
0.0849579921259842
20
3.409393464566929
11
0.085013937007874
21
3.4093045275590552
0
LINE
8
BLACK
6
CONTINUOUS
10
0.085013937007874
20
3.4093045275590552
11
0.0850804330708661
21
3.4092235433070863
0
LINE
8
BLACK
6
CONTINUOUS
10
0.0850804330708661
20
3.4092235433070863
11
0.0851102362204724
21
3.4091516141732283
0
LINE
8
BLACK
6
CONTINUOUS
10
0.0851102362204724
20
3.4091516141732283
11
0.0852663385826772
21
3.4089035826771652
0
LINE
8
BLACK
6
CONTINUOUS
10
0.0852663385826772
20
3.4089035826771652
11
0.0871411023622047
21
3.4051540551181101
0
LINE
8
BLACK
6
CONTINUOUS
10
0.0871411023622047
20
3.4051540551181101
11
0.0873479921259843
21
3.4046134645669293
0
LINE
8
BLACK
6
CONTINUOUS
10
0.0873479921259843
20
3.4046134645669293
11
0.0873555118110236
21
3.4045075984251967
0
LINE
8
BLACK
6
CONTINUOUS
10
0.0873555118110236
20
3.4045075984251967
11
0.0873961023622047
21
3.4044096062992124
0
LINE
8
BLACK
6
CONTINUOUS
10
0.0873961023622047
20
3.4044096062992124
11
0.0874528346456693
21
3.4038335433070865
0
LINE
8
BLACK
6
CONTINUOUS
10
0.0874528346456693
20
3.4038335433070865
11
0.0874528346456693
21
3.3925849606299212
0
LINE
8
BLACK
6
CONTINUOUS
10
0.0874528346456693
20
3.3925849606299212
11
0.0873961023622047
21
3.3920088976377953
0
LINE
8
BLACK
6
CONTINUOUS
10
0.0873961023622047
20
3.3920088976377953
11
0.0873555118110236
21
3.3919109448818898
0
LINE
8
BLACK
6
CONTINUOUS
10
0.0873555118110236
20
3.3919109448818898
11
0.0873479921259843
21
3.3918050393700785
0
LINE
8
BLACK
6
CONTINUOUS
10
0.0873479921259843
20
3.3918050393700785
11
0.0871411023622047
21
3.3912644488188977
0
LINE
8
BLACK
6
CONTINUOUS
10
0.0871411023622047
20
3.3912644488188977
11
0.0852663385826772
21
3.3875149212598425
0
LINE
8
BLACK
6
CONTINUOUS
10
0.0852663385826772
20
3.3875149212598425
11
0.0851102755905512
21
3.3872670472440944
0
LINE
8
BLACK
6
CONTINUOUS
10
0.0851102755905512
20
3.3872670472440944
11
0.0850804724409449
21
3.3871949999999997
0
LINE
8
BLACK
6
CONTINUOUS
10
0.0850804724409449
20
3.3871949999999997
11
0.085013937007874
21
3.3871139763779525
0
LINE
8
BLACK
6
CONTINUOUS
10
0.085013937007874
20
3.3871139763779525
11
0.0849579921259842
21
3.3870250393700787
0
LINE
8
BLACK
6
CONTINUOUS
10
0.0849579921259842
20
3.3870250393700787
11
0.0848989763779528
21
3.386973897637795
0
LINE
8
BLACK
6
CONTINUOUS
10
0.0848989763779528
20
3.386973897637795
11
0.0847132283464567
21
3.3867475196850392
0
LINE
8
BLACK
6
CONTINUOUS
10
0.0847132283464567
20
3.3867475196850392
11
0.0828385039370079
21
3.3848727559055116
0
LINE
8
BLACK
6
CONTINUOUS
10
0.0828385039370079
20
3.3848727559055116
11
0.082612125984252
21
3.3846870078740157
0
LINE
8
BLACK
6
CONTINUOUS
10
0.082612125984252
20
3.3846870078740157
11
0.0825609448818898
21
3.3846279527559053
0
LINE
8
BLACK
6
CONTINUOUS
10
0.0825609448818898
20
3.3846279527559053
11
0.082471968503937
21
3.3845719685039368
0
LINE
8
BLACK
6
CONTINUOUS
10
0.082471968503937
20
3.3845719685039368
11
0.0823910236220472
21
3.3845055118110237
0
LINE
8
BLACK
6
CONTINUOUS
10
0.0823910236220472
20
3.3845055118110237
11
0.0823190551181102
21
3.3844757086614172
0
LINE
8
BLACK
6
CONTINUOUS
10
0.0823190551181102
20
3.3844757086614172
11
0.082071062992126
21
3.3843196062992127
0
LINE
8
BLACK
6
CONTINUOUS
10
0.082071062992126
20
3.3843196062992127
11
0.0783215354330709
21
3.3824448425196851
0
LINE
8
BLACK
6
CONTINUOUS
10
0.0783215354330709
20
3.3824448425196851
11
0.077780905511811
21
3.3822379527559052
0
LINE
8
BLACK
6
CONTINUOUS
10
0.077780905511811
20
3.3822379527559052
11
0.0776750787401575
21
3.3822304724409449
0
LINE
8
BLACK
6
CONTINUOUS
10
0.0776750787401575
20
3.3822304724409449
11
0.0775770866141732
21
3.382189842519685
0
LINE
8
BLACK
6
CONTINUOUS
10
0.0775770866141732
20
3.382189842519685
11
0.0770010236220472
21
3.3821331102362202
0
LINE
8
BLACK
6
CONTINUOUS
10
0.0770010236220472
20
3.3821331102362202
11
0.0713767322834646
21
3.3821331102362202
0
LINE
8
BLACK
6
CONTINUOUS
10
0.0713767322834646
20
3.3821331102362202
11
0.0708006692913386
21
3.382189842519685
0
LINE
8
BLACK
6
CONTINUOUS
10
0.0708006692913386
20
3.382189842519685
11
0.0707026771653543
21
3.3822304330708661
0
LINE
8
BLACK
6
CONTINUOUS
10
0.0707026771653543
20
3.3822304330708661
11
0.070596811023622
21
3.3822379527559052
0
LINE
8
BLACK
6
CONTINUOUS
10
0.070596811023622
20
3.3822379527559052
11
0.0700562204724409
21
3.3824448425196851
0
LINE
8
BLACK
6
CONTINUOUS
10
0.0700562204724409
20
3.3824448425196851
11
0.0663066929133858
21
3.3843196062992127
0
LINE
8
BLACK
6
CONTINUOUS
10
0.0663066929133858
20
3.3843196062992127
11
0.0660586614173228
21
3.3844757086614172
0
LINE
8
BLACK
6
CONTINUOUS
10
0.0660586614173228
20
3.3844757086614172
11
0.0659867322834646
21
3.3845055118110237
0
LINE
8
BLACK
6
CONTINUOUS
10
0.0659867322834646
20
3.3845055118110237
11
0.0659057480314961
21
3.3845719685039368
0
LINE
8
BLACK
6
CONTINUOUS
10
0.0659057480314961
20
3.3845719685039368
11
0.0658168110236221
21
3.3846279527559053
0
LINE
8
BLACK
6
CONTINUOUS
10
0.0658168110236221
20
3.3846279527559053
11
0.0657655905511811
21
3.3846870078740157
0
LINE
8
BLACK
6
CONTINUOUS
10
0.0657655905511811
20
3.3846870078740157
11
0.0655392519685039
21
3.3848727559055116
0
LINE
8
BLACK
6
CONTINUOUS
10
0.0655392519685039
20
3.3848727559055116
11
0.0636644881889764
21
3.3867475590551179
0
LINE
8
BLACK
6
CONTINUOUS
10
0.0636644881889764
20
3.3867475590551179
11
0.0634787401574803
21
3.386973897637795
0
LINE
8
BLACK
6
CONTINUOUS
10
0.0634787401574803
20
3.386973897637795
11
0.0634197637795276
21
3.3870250393700787
0
LINE
8
BLACK
6
CONTINUOUS
10
0.0634197637795276
20
3.3870250393700787
11
0.063363779527559
21
3.3871139763779525
0
LINE
8
BLACK
6
CONTINUOUS
10
0.063363779527559
20
3.3871139763779525
11
0.0632972834645669
21
3.3871949999999997
0
LINE
8
BLACK
6
CONTINUOUS
10
0.0632972834645669
20
3.3871949999999997
11
0.0632674409448819
21
3.3872670472440944
0
LINE
8
BLACK
6
CONTINUOUS
10
0.0632674409448819
20
3.3872670472440944
11
0.0631114173228347
21
3.3875149212598425
0
LINE
8
BLACK
6
CONTINUOUS
10
0.0631114173228347
20
3.3875149212598425
11
0.0612366535433071
21
3.3912644488188977
0
LINE
8
BLACK
6
CONTINUOUS
10
0.0612366535433071
20
3.3912644488188977
11
0.0610297637795276
21
3.3918050787401572
0
LINE
8
BLACK
6
CONTINUOUS
10
0.0610297637795276
20
3.3918050787401572
11
0.0610222440944882
21
3.3919109055118111
0
LINE
8
BLACK
6
CONTINUOUS
10
0.0610222440944882
20
3.3919109055118111
11
0.0609816535433071
21
3.3920088976377953
0
LINE
8
BLACK
6
CONTINUOUS
10
0.0609816535433071
20
3.3920088976377953
11
0.0609249212598425
21
3.3925849606299212
0
LINE
8
BLACK
6
CONTINUOUS
10
0.0609249212598425
20
3.3925849606299212
11
0.0609249212598425
21
3.4038335433070865
0
LINE
8
BLACK
6
CONTINUOUS
10
0.0609249212598425
20
3.4038335433070865
11
0.0609816535433071
21
3.4044096062992124
0
LINE
8
BLACK
6
CONTINUOUS
10
0.0609816535433071
20
3.4044096062992124
11
0.0610222440944882
21
3.4045076377952754
0
LINE
8
BLACK
6
CONTINUOUS
10
0.0610222440944882
20
3.4045076377952754
11
0.0610297637795276
21
3.4046134251968505
0
LINE
8
BLACK
6
CONTINUOUS
10
0.0610297637795276
20
3.4046134251968505
11
0.0612366535433071
21
3.4051540551181101
0
LINE
8
BLACK
6
CONTINUOUS
10
0.0612366535433071
20
3.4051540551181101
11
0.0631114173228347
21
3.4089035826771652
0
LINE
8
BLACK
6
CONTINUOUS
10
0.0631114173228347
20
3.4089035826771652
11
0.0632674803149606
21
3.4091516141732283
0
LINE
8
BLACK
6
CONTINUOUS
10
0.0632674803149606
20
3.4091516141732283
11
0.0632973228346457
21
3.4092235433070863
0
LINE
8
BLACK
6
CONTINUOUS
10
0.0632973228346457
20
3.4092235433070863
11
0.063363779527559
21
3.4093045275590552
0
LINE
8
BLACK
6
CONTINUOUS
10
0.063363779527559
20
3.4093045275590552
11
0.0634197637795276
21
3.409393464566929
0
LINE
8
BLACK
6
CONTINUOUS
10
0.0634197637795276
20
3.409393464566929
11
0.0634787401574803
21
3.4094446456692911
0
LINE
8
BLACK
6
CONTINUOUS
10
0.0634787401574803
20
3.4094446456692911
11
0.0636645275590551
21
3.4096709842519686
0
LINE
8
BLACK
6
CONTINUOUS
10
0.0636645275590551
20
3.4096709842519686
11
0.0655392913385827
21
3.4115457480314961
0
LINE
8
BLACK
6
CONTINUOUS
10
0.0655392913385827
20
3.4115457480314961
11
0.0657656299212598
21
3.4117315354330708
0
LINE
8
BLACK
6
CONTINUOUS
10
0.0657656299212598
20
3.4117315354330708
11
0.0658168110236221
21
3.4117905118110237
0
LINE
8
BLACK
6
CONTINUOUS
10
0.0658168110236221
20
3.4117905118110237
11
0.0659057480314961
21
3.4118464960629922
0
LINE
8
BLACK
6
CONTINUOUS
10
0.0659057480314961
20
3.4118464960629922
11
0.0659867322834646
21
3.4119129527559053
0
LINE
8
BLACK
6
CONTINUOUS
10
0.0659867322834646
20
3.4119129527559053
11
0.0660586614173228
21
3.4119427952755905
0
LINE
8
BLACK
6
CONTINUOUS
10
0.0660586614173228
20
3.4119427952755905
11
0.0663066929133858
21
3.4120988582677163
0
LINE
8
BLACK
6
CONTINUOUS
10
0.0663066929133858
20
3.4120988582677163
11
0.0700562204724409
21
3.4139736220472439
0
LINE
8
BLACK
6
CONTINUOUS
10
0.0700562204724409
20
3.4139736220472439
11
0.070596811023622
21
3.4141805118110233
0
LINE
8
BLACK
6
CONTINUOUS
10
0.070596811023622
20
3.4141805118110233
11
0.0707026771653543
21
3.4141880708661416
0
LINE
8
BLACK
6
CONTINUOUS
10
0.0707026771653543
20
3.4141880708661416
11
0.0708006692913386
21
3.414228622047244
0
LINE
8
BLACK
6
CONTINUOUS
10
0.0708006692913386
20
3.414228622047244
11
0.0713767322834646
21
3.4142853543307088
0
LINE
8
BLACK
6
CONTINUOUS
10
0.0713767322834646
20
3.4142853543307088
11
0.0770010236220472
21
3.4142853543307088
0
LINE
8
BLACK
6
CONTINUOUS
10
0.0770010236220472
20
3.4142853543307088
11
0.0775770866141732
21
3.414228622047244
0
LINE
8
BLACK
6
CONTINUOUS
10
0.0693762992125984
20
3.4070311023622049
11
0.0681791732283464
21
3.4058339763779526
0
LINE
8
BLACK
6
CONTINUOUS
10
0.0681791732283464
20
3.4058339763779526
11
0.0668304330708661
21
3.403136496062992
0
LINE
8
BLACK
6
CONTINUOUS
10
0.0668304330708661
20
3.403136496062992
11
0.0668304330708661
21
3.3932820078740158
0
LINE
8
BLACK
6
CONTINUOUS
10
0.0668304330708661
20
3.3932820078740158
11
0.0681791732283464
21
3.3905845275590552
0
LINE
8
BLACK
6
CONTINUOUS
10
0.0681791732283464
20
3.3905845275590552
11
0.0693762992125984
21
3.3893873622047241
0
LINE
8
BLACK
6
CONTINUOUS
10
0.0693762992125984
20
3.3893873622047241
11
0.0720737795275591
21
3.3880386220472438
0
LINE
8
BLACK
6
CONTINUOUS
10
0.0720737795275591
20
3.3880386220472438
11
0.0763039763779527
21
3.3880386220472438
0
LINE
8
BLACK
6
CONTINUOUS
10
0.0763039763779527
20
3.3880386220472438
11
0.0790014173228346
21
3.3893873622047241
0
LINE
8
BLACK
6
CONTINUOUS
10
0.0790014173228346
20
3.3893873622047241
11
0.0801985433070866
21
3.3905845275590552
0
LINE
8
BLACK
6
CONTINUOUS
10
0.0801985433070866
20
3.3905845275590552
11
0.0815473228346457
21
3.3932820078740158
0
LINE
8
BLACK
6
CONTINUOUS
10
0.0815473228346457
20
3.3932820078740158
11
0.0815473228346457
21
3.403136496062992
0
LINE
8
BLACK
6
CONTINUOUS
10
0.0815473228346457
20
3.403136496062992
11
0.0801985826771654
21
3.4058339763779526
0
LINE
8
BLACK
6
CONTINUOUS
10
0.0801985826771654
20
3.4058339763779526
11
0.0790014566929134
21
3.4070311023622049
0
LINE
8
BLACK
6
CONTINUOUS
10
0.0790014566929134
20
3.4070311023622049
11
0.0763039763779527
21
3.4083798425196852
0
LINE
8
BLACK
6
CONTINUOUS
10
0.0763039763779527
20
3.4083798425196852
11
0.0720737795275591
21
3.4083798425196852
0
LINE
8
BLACK
6
CONTINUOUS
10
0.0720737795275591
20
3.4083798425196852
11
0.0693762992125984
21
3.4070311023622049
0
LINE
8
BLACK
6
CONTINUOUS
10
0.1198863385826772
20
3.4269110629921258
11
0.1207009842519685
21
3.4260964173228348
0
LINE
8
BLACK
6
CONTINUOUS
10
0.1207009842519685
20
3.4260964173228348
11
0.1211418897637795
21
3.4250320078740155
0
LINE
8
BLACK
6
CONTINUOUS
10
0.1211418897637795
20
3.4250320078740155
11
0.1211986220472441
21
3.4244559448818896
0
LINE
8
BLACK
6
CONTINUOUS
10
0.1211986220472441
20
3.4244559448818896
11
0.1211986220472441
21
3.3850858661417322
0
LINE
8
BLACK
6
CONTINUOUS
10
0.1211986220472441
20
3.3850858661417322
11
0.1211418897637795
21
3.3845098031496064
0
LINE
8
BLACK
6
CONTINUOUS
10
0.1211418897637795
20
3.3845098031496064
11
0.1207009842519685
21
3.3834453937007871
0
LINE
8
BLACK
6
CONTINUOUS
10
0.1207009842519685
20
3.3834453937007871
11
0.1198863385826772
21
3.3826307480314961
0
LINE
8
BLACK
6
CONTINUOUS
10
0.1198863385826772
20
3.3826307480314961
11
0.1188219291338583
21
3.382189842519685
0
LINE
8
BLACK
6
CONTINUOUS
10
0.1188219291338583
20
3.382189842519685
11
0.1176698031496063
21
3.382189842519685
0
LINE
8
BLACK
6
CONTINUOUS
10
0.1176698031496063
20
3.382189842519685
11
0.1166053937007874
21
3.3826307480314961
0
LINE
8
BLACK
6
CONTINUOUS
10
0.1166053937007874
20
3.3826307480314961
11
0.1164664566929134
21
3.3827696850393698
0
LINE
8
BLACK
6
CONTINUOUS
10
0.1164664566929134
20
3.3827696850393698
11
0.1158168503937008
21
3.3824448425196851
0
LINE
8
BLACK
6
CONTINUOUS
10
0.1158168503937008
20
3.3824448425196851
11
0.1152762204724409
21
3.3822379527559052
0
LINE
8
BLACK
6
CONTINUOUS
10
0.1152762204724409
20
3.3822379527559052
11
0.1151703937007874
21
3.3822304724409449
0
LINE
8
BLACK
6
CONTINUOUS
10
0.1151703937007874
20
3.3822304724409449
11
0.1150724015748031
21
3.382189842519685
0
LINE
8
BLACK
6
CONTINUOUS
10
0.1150724015748031
20
3.382189842519685
11
0.1144963385826772
21
3.3821331102362202
0
LINE
8
BLACK
6
CONTINUOUS
10
0.1144963385826772
20
3.3821331102362202
11
0.1069972834645669
21
3.3821331102362202
0
LINE
8
BLACK
6
CONTINUOUS
10
0.1069972834645669
20
3.3821331102362202
11
0.1064212204724409
21
3.382189842519685
0
LINE
8
BLACK
6
CONTINUOUS
10
0.1064212204724409
20
3.382189842519685
11
0.1063232283464567
21
3.3822304330708661
0
LINE
8
BLACK
6
CONTINUOUS
10
0.1063232283464567
20
3.3822304330708661
11
0.1062173622047244
21
3.3822379527559052
0
LINE
8
BLACK
6
CONTINUOUS
10
0.1062173622047244
20
3.3822379527559052
11
0.1056767716535433
21
3.3824448425196851
0
LINE
8
BLACK
6
CONTINUOUS
10
0.1056767716535433
20
3.3824448425196851
11
0.1019272440944882
21
3.3843196062992127
0
LINE
8
BLACK
6
CONTINUOUS
10
0.1019272440944882
20
3.3843196062992127
11
0.1016792125984252
21
3.3844757086614172
0
LINE
8
BLACK
6
CONTINUOUS
10
0.1016792125984252
20
3.3844757086614172
11
0.1016072834645669
21
3.3845055118110237
0
LINE
8
BLACK
6
CONTINUOUS
10
0.1016072834645669
20
3.3845055118110237
11
0.1015262992125984
21
3.3845719685039368
0
LINE
8
BLACK
6
CONTINUOUS
10
0.1015262992125984
20
3.3845719685039368
11
0.1014373622047244
21
3.3846279527559053
0
LINE
8
BLACK
6
CONTINUOUS
10
0.1014373622047244
20
3.3846279527559053
11
0.1013861417322835
21
3.3846870078740157
0
LINE
8
BLACK
6
CONTINUOUS
10
0.1013861417322835
20
3.3846870078740157
11
0.1011598031496063
21
3.3848727559055116
0
LINE
8
BLACK
6
CONTINUOUS
10
0.1011598031496063
20
3.3848727559055116
11
0.0992850393700787
21
3.3867475590551179
0
LINE
8
BLACK
6
CONTINUOUS
10
0.0992850393700787
20
3.3867475590551179
11
0.0990992913385827
21
3.386973897637795
0
LINE
8
BLACK
6
CONTINUOUS
10
0.0990992913385827
20
3.386973897637795
11
0.0990403149606299
21
3.3870250393700787
0
LINE
8
BLACK
6
CONTINUOUS
10
0.0990403149606299
20
3.3870250393700787
11
0.0989843307086614
21
3.3871139763779525
0
LINE
8
BLACK
6
CONTINUOUS
10
0.0989843307086614
20
3.3871139763779525
11
0.0989178346456693
21
3.3871949999999997
0
LINE
8
BLACK
6
CONTINUOUS
10
0.0989178346456693
20
3.3871949999999997
11
0.0988879921259842
21
3.3872670472440944
0
LINE
8
BLACK
6
CONTINUOUS
10
0.0988879921259842
20
3.3872670472440944
11
0.098731968503937
21
3.3875149212598425
0
LINE
8
BLACK
6
CONTINUOUS
10
0.098731968503937
20
3.3875149212598425
11
0.0968572047244095
21
3.3912644488188977
0
LINE
8
BLACK
6
CONTINUOUS
10
0.0968572047244095
20
3.3912644488188977
11
0.0966503149606299
21
3.3918050787401572
0
LINE
8
BLACK
6
CONTINUOUS
10
0.0966503149606299
20
3.3918050787401572
11
0.0966427952755906
21
3.3919109055118111
0
LINE
8
BLACK
6
CONTINUOUS
10
0.0966427952755906
20
3.3919109055118111
11
0.0966022047244094
21
3.3920088976377953
0
LINE
8
BLACK
6
CONTINUOUS
10
0.0966022047244094
20
3.3920088976377953
11
0.0965454724409449
21
3.3925849606299212
0
LINE
8
BLACK
6
CONTINUOUS
10
0.0965454724409449
20
3.3925849606299212
11
0.0965454724409449
21
3.4038335433070865
0
LINE
8
BLACK
6
CONTINUOUS
10
0.0965454724409449
20
3.4038335433070865
11
0.0966022047244094
21
3.4044096062992124
0
LINE
8
BLACK
6
CONTINUOUS
10
0.0966022047244094
20
3.4044096062992124
11
0.0966427952755906
21
3.4045076377952754
0
LINE
8
BLACK
6
CONTINUOUS
10
0.0966427952755906
20
3.4045076377952754
11
0.0966503149606299
21
3.4046134251968505
0
LINE
8
BLACK
6
CONTINUOUS
10
0.0966503149606299
20
3.4046134251968505
11
0.0968572047244095
21
3.4051540551181101
0
LINE
8
BLACK
6
CONTINUOUS
10
0.0968572047244095
20
3.4051540551181101
11
0.098731968503937
21
3.4089035826771652
0
LINE
8
BLACK
6
CONTINUOUS
10
0.098731968503937
20
3.4089035826771652
11
0.098888031496063
21
3.4091516141732283
0
LINE
8
BLACK
6
CONTINUOUS
10
0.098888031496063
20
3.4091516141732283
11
0.098917874015748
21
3.4092235433070863
0
LINE
8
BLACK
6
CONTINUOUS
10
0.098917874015748
20
3.4092235433070863
11
0.0989843307086614
21
3.4093045275590552
0
LINE
8
BLACK
6
CONTINUOUS
10
0.0989843307086614
20
3.4093045275590552
11
0.0990403149606299
21
3.409393464566929
0
LINE
8
BLACK
6
CONTINUOUS
10
0.0990403149606299
20
3.409393464566929
11
0.0990992913385827
21
3.4094446456692911
0
LINE
8
BLACK
6
CONTINUOUS
10
0.0990992913385827
20
3.4094446456692911
11
0.0992850787401575
21
3.4096709842519686
0
LINE
8
BLACK
6
CONTINUOUS
10
0.0992850787401575
20
3.4096709842519686
11
0.101159842519685
21
3.4115457480314961
0
LINE
8
BLACK
6
CONTINUOUS
10
0.101159842519685
20
3.4115457480314961
11
0.1013861811023622
21
3.4117315354330708
0
LINE
8
BLACK
6
CONTINUOUS
10
0.1013861811023622
20
3.4117315354330708
11
0.1014373622047244
21
3.4117905118110237
0
LINE
8
BLACK
6
CONTINUOUS
10
0.1014373622047244
20
3.4117905118110237
11
0.1015262992125984
21
3.4118464960629922
0
LINE
8
BLACK
6
CONTINUOUS
10
0.1015262992125984
20
3.4118464960629922
11
0.1016072834645669
21
3.4119129527559053
0
LINE
8
BLACK
6
CONTINUOUS
10
0.1016072834645669
20
3.4119129527559053
11
0.1016792125984252
21
3.4119427952755905
0
LINE
8
BLACK
6
CONTINUOUS
10
0.1016792125984252
20
3.4119427952755905
11
0.1019272440944882
21
3.4120988582677163
0
LINE
8
BLACK
6
CONTINUOUS
10
0.1019272440944882
20
3.4120988582677163
11
0.1056767716535433
21
3.4139736220472439
0
LINE
8
BLACK
6
CONTINUOUS
10
0.1056767716535433
20
3.4139736220472439
11
0.1062173622047244
21
3.4141805118110233
0
LINE
8
BLACK
6
CONTINUOUS
10
0.1062173622047244
20
3.4141805118110233
11
0.1063232283464567
21
3.4141880708661416
0
LINE
8
BLACK
6
CONTINUOUS
10
0.1063232283464567
20
3.4141880708661416
11
0.1064212204724409
21
3.414228622047244
0
LINE
8
BLACK
6
CONTINUOUS
10
0.1064212204724409
20
3.414228622047244
11
0.1069972834645669
21
3.4142853543307088
0
LINE
8
BLACK
6
CONTINUOUS
10
0.1069972834645669
20
3.4142853543307088
11
0.1144963385826772
21
3.4142853543307088
0
LINE
8
BLACK
6
CONTINUOUS
10
0.1144963385826772
20
3.4142853543307088
11
0.1150724015748031
21
3.414228622047244
0
LINE
8
BLACK
6
CONTINUOUS
10
0.1150724015748031
20
3.414228622047244
11
0.1151703937007874
21
3.4141880314960629
0
LINE
8
BLACK
6
CONTINUOUS
10
0.1151703937007874
20
3.4141880314960629
11
0.1152762204724409
21
3.4141805118110233
0
LINE
8
BLACK
6
CONTINUOUS
10
0.1152762204724409
20
3.4141805118110233
11
0.1152931102362205
21
3.4141740551181101
0
LINE
8
BLACK
6
CONTINUOUS
10
0.1152931102362205
20
3.4141740551181101
11
0.1152931102362205
21
3.4244559448818896
0
LINE
8
BLACK
6
CONTINUOUS
10
0.1152931102362205
20
3.4244559448818896
11
0.115349842519685
21
3.4250320078740155
0
LINE
8
BLACK
6
CONTINUOUS
10
0.115349842519685
20
3.4250320078740155
11
0.1157907480314961
21
3.4260964173228348
0
LINE
8
BLACK
6
CONTINUOUS
10
0.1157907480314961
20
3.4260964173228348
11
0.1166053937007874
21
3.4269110629921258
0
LINE
8
BLACK
6
CONTINUOUS
10
0.1166053937007874
20
3.4269110629921258
11
0.1176698031496063
21
3.4273519685039369
0
LINE
8
BLACK
6
CONTINUOUS
10
0.1176698031496063
20
3.4273519685039369
11
0.1188219291338583
21
3.4273519685039369
0
LINE
8
BLACK
6
CONTINUOUS
10
0.1188219291338583
20
3.4273519685039369
11
0.1198863385826772
21
3.4269110629921258
0
LINE
8
BLACK
6
CONTINUOUS
10
0.1049968503937008
20
3.4070311023622049
11
0.1037997244094488
21
3.4058339763779526
0
LINE
8
BLACK
6
CONTINUOUS
10
0.1037997244094488
20
3.4058339763779526
11
0.1024509842519685
21
3.403136496062992
0
LINE
8
BLACK
6
CONTINUOUS
10
0.1024509842519685
20
3.403136496062992
11
0.1024509842519685
21
3.3932820078740158
0
LINE
8
BLACK
6
CONTINUOUS
10
0.1024509842519685
20
3.3932820078740158
11
0.1037997244094488
21
3.3905845275590552
0
LINE
8
BLACK
6
CONTINUOUS
10
0.1037997244094488
20
3.3905845275590552
11
0.1049968503937008
21
3.3893873622047241
0
LINE
8
BLACK
6
CONTINUOUS
10
0.1049968503937008
20
3.3893873622047241
11
0.1076943307086614
21
3.3880386220472438
0
LINE
8
BLACK
6
CONTINUOUS
10
0.1076943307086614
20
3.3880386220472438
11
0.1137992913385827
21
3.3880386220472438
0
LINE
8
BLACK
6
CONTINUOUS
10
0.1137992913385827
20
3.3880386220472438
11
0.1152931102362205
21
3.3887855511811025
0
LINE
8
BLACK
6
CONTINUOUS
10
0.1152931102362205
20
3.3887855511811025
11
0.1152931102362205
21
3.4076329527559053
0
LINE
8
BLACK
6
CONTINUOUS
10
0.1152931102362205
20
3.4076329527559053
11
0.1137992913385827
21
3.4083798425196852
0
LINE
8
BLACK
6
CONTINUOUS
10
0.1137992913385827
20
3.4083798425196852
11
0.1076943307086614
21
3.4083798425196852
0
LINE
8
BLACK
6
CONTINUOUS
10
0.1076943307086614
20
3.4083798425196852
11
0.1049968503937008
21
3.4070311023622049
0
LINE
8
BLACK
6
CONTINUOUS
10
0.1386340157480315
20
3.4137877165354329
11
0.1394486614173228
21
3.4129730708661414
0
LINE
8
BLACK
6
CONTINUOUS
10
0.1394486614173228
20
3.4129730708661414
11
0.1398895669291338
21
3.4119086614173226
0
LINE
8
BLACK
6
CONTINUOUS
10
0.1398895669291338
20
3.4119086614173226
11
0.1399462992125984
21
3.4113325984251968
0
LINE
8
BLACK
6
CONTINUOUS
10
0.1399462992125984
20
3.4113325984251968
11
0.1399462992125984
21
3.3914072440944882
0
LINE
8
BLACK
6
CONTINUOUS
10
0.1399462992125984
20
3.3914072440944882
11
0.1410691338582677
21
3.3891614960629921
0
LINE
8
BLACK
6
CONTINUOUS
10
0.1410691338582677
20
3.3891614960629921
11
0.1433148818897638
21
3.3880386220472438
0
LINE
8
BLACK
6
CONTINUOUS
10
0.1433148818897638
20
3.3880386220472438
11
0.1475450787401575
21
3.3880386220472438
0
LINE
8
BLACK
6
CONTINUOUS
10
0.1475450787401575
20
3.3880386220472438
11
0.1502425196850394
21
3.3893873622047241
0
LINE
8
BLACK
6
CONTINUOUS
10
0.1502425196850394
20
3.3893873622047241
11
0.1509136614173228
21
3.3900585039370079
0
LINE
8
BLACK
6
CONTINUOUS
10
0.1509136614173228
20
3.3900585039370079
11
0.1509136614173228
21
3.4113325984251968
0
LINE
8
BLACK
6
CONTINUOUS
10
0.1509136614173228
20
3.4113325984251968
11
0.1509703937007874
21
3.4119086614173226
0
LINE
8
BLACK
6
CONTINUOUS
10
0.1509703937007874
20
3.4119086614173226
11
0.1514112992125984
21
3.4129730708661414
0
LINE
8
BLACK
6
CONTINUOUS
10
0.1514112992125984
20
3.4129730708661414
11
0.1522259448818898
21
3.4137877165354329
0
LINE
8
BLACK
6
CONTINUOUS
10
0.1522259448818898
20
3.4137877165354329
11
0.1532903543307086
21
3.414228622047244
0
LINE
8
BLACK
6
CONTINUOUS
10
0.1532903543307086
20
3.414228622047244
11
0.1544424803149606
21
3.414228622047244
0
LINE
8
BLACK
6
CONTINUOUS
10
0.1544424803149606
20
3.414228622047244
11
0.1555068897637795
21
3.4137877165354329
0
LINE
8
BLACK
6
CONTINUOUS
10
0.1555068897637795
20
3.4137877165354329
11
0.1563215354330709
21
3.4129730708661414
0
LINE
8
BLACK
6
CONTINUOUS
10
0.1563215354330709
20
3.4129730708661414
11
0.1567624409448819
21
3.4119086614173226
0
LINE
8
BLACK
6
CONTINUOUS
10
0.1567624409448819
20
3.4119086614173226
11
0.1568191732283465
21
3.4113325984251968
0
LINE
8
BLACK
6
CONTINUOUS
10
0.1568191732283465
20
3.4113325984251968
11
0.1568191732283465
21
3.3850858661417322
0
LINE
8
BLACK
6
CONTINUOUS
10
0.1568191732283465
20
3.3850858661417322
11
0.1567624409448819
21
3.3845098031496064
0
LINE
8
BLACK
6
CONTINUOUS
10
0.1567624409448819
20
3.3845098031496064
11
0.1563215354330709
21
3.3834453937007871
0
LINE
8
BLACK
6
CONTINUOUS
10
0.1563215354330709
20
3.3834453937007871
11
0.1555068897637795
21
3.3826307480314961
0
LINE
8
BLACK
6
CONTINUOUS
10
0.1555068897637795
20
3.3826307480314961
11
0.1544424803149606
21
3.382189842519685
0
LINE
8
BLACK
6
CONTINUOUS
10
0.1544424803149606
20
3.382189842519685
11
0.1532903543307086
21
3.382189842519685
0
LINE
8
BLACK
6
CONTINUOUS
10
0.1532903543307086
20
3.382189842519685
11
0.1522259448818898
21
3.3826307480314961
0
LINE
8
BLACK
6
CONTINUOUS
10
0.1522259448818898
20
3.3826307480314961
11
0.1514620866141732
21
3.3833946062992126
0
LINE
8
BLACK
6
CONTINUOUS
10
0.1514620866141732
20
3.3833946062992126
11
0.1495626377952756
21
3.3824448425196851
0
LINE
8
BLACK
6
CONTINUOUS
10
0.1495626377952756
20
3.3824448425196851
11
0.1490220078740157
21
3.3822379527559052
0
LINE
8
BLACK
6
CONTINUOUS
10
0.1490220078740157
20
3.3822379527559052
11
0.1489161811023622
21
3.3822304724409449
0
LINE
8
BLACK
6
CONTINUOUS
10
0.1489161811023622
20
3.3822304724409449
11
0.1488181889763779
21
3.382189842519685
0
LINE
8
BLACK
6
CONTINUOUS
10
0.1488181889763779
20
3.382189842519685
11
0.148242125984252
21
3.3821331102362202
0
LINE
8
BLACK
6
CONTINUOUS
10
0.148242125984252
20
3.3821331102362202
11
0.1426178346456693
21
3.3821331102362202
0
LINE
8
BLACK
6
CONTINUOUS
10
0.1426178346456693
20
3.3821331102362202
11
0.1420417716535433
21
3.382189842519685
0
LINE
8
BLACK
6
CONTINUOUS
10
0.1420417716535433
20
3.382189842519685
11
0.141943779527559
21
3.3822304330708661
0
LINE
8
BLACK
6
CONTINUOUS
10
0.141943779527559
20
3.3822304330708661
11
0.1418379133858268
21
3.3822379527559052
0
LINE
8
BLACK
6
CONTINUOUS
10
0.1418379133858268
20
3.3822379527559052
11
0.1412973228346457
21
3.3824448425196851
0
LINE
8
BLACK
6
CONTINUOUS
10
0.1412973228346457
20
3.3824448425196851
11
0.1375477952755906
21
3.3843196062992127
0
LINE
8
BLACK
6
CONTINUOUS
10
0.1375477952755906
20
3.3843196062992127
11
0.1374514173228346
21
3.384380275590551
0
LINE
8
BLACK
6
CONTINUOUS
10
0.1374514173228346
20
3.384380275590551
11
0.1374060236220472
21
3.3843953937007871
0
LINE
8
BLACK
6
CONTINUOUS
10
0.1374060236220472
20
3.3843953937007871
11
0.1373494488188976
21
3.3844444488188974
0
LINE
8
BLACK
6
CONTINUOUS
10
0.1373494488188976
20
3.3844444488188974
11
0.1370579133858268
21
3.3846279527559053
0
LINE
8
BLACK
6
CONTINUOUS
10
0.1370579133858268
20
3.3846279527559053
11
0.1368152362204724
21
3.3849077952755904
0
LINE
8
BLACK
6
CONTINUOUS
10
0.1368152362204724
20
3.3849077952755904
11
0.1365356299212598
21
3.3851502755905511
0
LINE
8
BLACK
6
CONTINUOUS
10
0.1365356299212598
20
3.3851502755905511
11
0.136352125984252
21
3.3854417716535434
0
LINE
8
BLACK
6
CONTINUOUS
10
0.136352125984252
20
3.3854417716535434
11
0.1363030708661417
21
3.3854983464566928
0
LINE
8
BLACK
6
CONTINUOUS
10
0.1363030708661417
20
3.3854983464566928
11
0.1362879133858268
21
3.3855438188976379
0
LINE
8
BLACK
6
CONTINUOUS
10
0.1362879133858268
20
3.3855438188976379
11
0.1362272834645669
21
3.3856401181102362
0
LINE
8
BLACK
6
CONTINUOUS
10
0.1362272834645669
20
3.3856401181102362
11
0.1343525196850394
21
3.3893896850393701
0
LINE
8
BLACK
6
CONTINUOUS
10
0.1343525196850394
20
3.3893896850393701
11
0.1341456299212598
21
3.3899303149606297
0
LINE
8
BLACK
6
CONTINUOUS
10
0.1341456299212598
20
3.3899303149606297
11
0.1341381102362205
21
3.3900361417322835
0
LINE
8
BLACK
6
CONTINUOUS
10
0.1341381102362205
20
3.3900361417322835
11
0.1340975196850394
21
3.3901341338582678
0
LINE
8
BLACK
6
CONTINUOUS
10
0.1340975196850394
20
3.3901341338582678
11
0.1340407874015748
21
3.3907101968503937
0
LINE
8
BLACK
6
CONTINUOUS
10
0.1340407874015748
20
3.3907101968503937
11
0.1340407874015748
21
3.4113325984251968
0
LINE
8
BLACK
6
CONTINUOUS
10
0.1340407874015748
20
3.4113325984251968
11
0.1340975196850394
21
3.4119086614173226
0
LINE
8
BLACK
6
CONTINUOUS
10
0.1340975196850394
20
3.4119086614173226
11
0.1345384251968504
21
3.4129730708661414
0
LINE
8
BLACK
6
CONTINUOUS
10
0.1345384251968504
20
3.4129730708661414
11
0.1353530708661417
21
3.4137877165354329
0
LINE
8
BLACK
6
CONTINUOUS
10
0.1353530708661417
20
3.4137877165354329
11
0.1364174803149606
21
3.414228622047244
0
LINE
8
BLACK
6
CONTINUOUS
10
0.1364174803149606
20
3.414228622047244
11
0.1375696062992126
21
3.414228622047244
0
LINE
8
BLACK
6
CONTINUOUS
10
0.1375696062992126
20
3.414228622047244
11
0.1386340157480315
21
3.4137877165354329
0
LINE
8
BLACK
6
CONTINUOUS
10
0.2050611811023622
20
3.414228622047244
11
0.2051591732283465
21
3.4141880314960629
0
LINE
8
BLACK
6
CONTINUOUS
10
0.2051591732283465
20
3.4141880314960629
11
0.205265
21
3.4141805118110233
0
LINE
8
BLACK
6
CONTINUOUS
10
0.205265
20
3.4141805118110233
11
0.2058056299212598
21
3.4139736220472439
0
LINE
8
BLACK
6
CONTINUOUS
10
0.2058056299212598
20
3.4139736220472439
11
0.2095551574803149
21
3.4120988582677163
0
LINE
8
BLACK
6
CONTINUOUS
10
0.2095551574803149
20
3.4120988582677163
11
0.2096514960629921
21
3.4120382283464568
0
LINE
8
BLACK
6
CONTINUOUS
10
0.2096514960629921
20
3.4120382283464568
11
0.2096969291338583
21
3.4120230708661419
0
LINE
8
BLACK
6
CONTINUOUS
10
0.2096969291338583
20
3.4120230708661419
11
0.2097534645669291
21
3.4119740551181104
0
LINE
8
BLACK
6
CONTINUOUS
10
0.2097534645669291
20
3.4119740551181104
11
0.2100450393700787
21
3.4117905118110237
0
LINE
8
BLACK
6
CONTINUOUS
10
0.2100450393700787
20
3.4117905118110237
11
0.2102875984251968
21
3.4115108267716536
0
LINE
8
BLACK
6
CONTINUOUS
10
0.2102875984251968
20
3.4115108267716536
11
0.2105673228346457
21
3.4112682283464566
0
LINE
8
BLACK
6
CONTINUOUS
10
0.2105673228346457
20
3.4112682283464566
11
0.2107508267716535
21
3.4109766929133856
0
LINE
8
BLACK
6
CONTINUOUS
10
0.2107508267716535
20
3.4109766929133856
11
0.2107998818897638
21
3.4109201181102362
0
LINE
8
BLACK
6
CONTINUOUS
10
0.2107998818897638
20
3.4109201181102362
11
0.210815
21
3.4108747244094486
0
LINE
8
BLACK
6
CONTINUOUS
10
0.210815
20
3.4108747244094486
11
0.2108756692913386
21
3.4107783464566928
0
LINE
8
BLACK
6
CONTINUOUS
10
0.2108756692913386
20
3.4107783464566928
11
0.2127504330708661
21
3.4070288188976376
0
LINE
8
BLACK
6
CONTINUOUS
10
0.2127504330708661
20
3.4070288188976376
11
0.2129573228346457
21
3.4064882283464568
0
LINE
8
BLACK
6
CONTINUOUS
10
0.2129573228346457
20
3.4064882283464568
11
0.212964842519685
21
3.4063823622047242
0
LINE
8
BLACK
6
CONTINUOUS
10
0.212964842519685
20
3.4063823622047242
11
0.2130054330708661
21
3.40628437007874
0
LINE
8
BLACK
6
CONTINUOUS
10
0.2130054330708661
20
3.40628437007874
11
0.2130621653543307
21
3.4057083070866141
0
LINE
8
BLACK
6
CONTINUOUS
10
0.2130621653543307
20
3.4057083070866141
11
0.2130621653543307
21
3.401958779527559
0
LINE
8
BLACK
6
CONTINUOUS
10
0.2130621653543307
20
3.401958779527559
11
0.2130054330708661
21
3.4013827165354331
0
LINE
8
BLACK
6
CONTINUOUS
10
0.2130054330708661
20
3.4013827165354331
11
0.2128946456692913
21
3.4011153543307087
0
LINE
8
BLACK
6
CONTINUOUS
10
0.2128946456692913
20
3.4011153543307087
11
0.2128385433070866
21
3.4008316535433072
0
LINE
8
BLACK
6
CONTINUOUS
10
0.2128385433070866
20
3.4008316535433072
11
0.2126764566929134
21
3.4005885433070864
0
LINE
8
BLACK
6
CONTINUOUS
10
0.2126764566929134
20
3.4005885433070864
11
0.2125645275590551
21
3.4003183070866143
0
LINE
8
BLACK
6
CONTINUOUS
10
0.2125645275590551
20
3.4003183070866143
11
0.2123598818897638
21
3.4001136614173229
0
LINE
8
BLACK
6
CONTINUOUS
10
0.2123598818897638
20
3.4001136614173229
11
0.2121994881889764
21
3.3998730708661418
0
LINE
8
BLACK
6
CONTINUOUS
10
0.2121994881889764
20
3.3998730708661418
11
0.2119566535433071
21
3.3997104724409448
0
LINE
8
BLACK
6
CONTINUOUS
10
0.2119566535433071
20
3.3997104724409448
11
0.2117498818897638
21
3.3995036614173229
0
LINE
8
BLACK
6
CONTINUOUS
10
0.2117498818897638
20
3.3995036614173229
11
0.2114825984251968
21
3.3993929527559055
0
LINE
8
BLACK
6
CONTINUOUS
10
0.2114825984251968
20
3.3993929527559055
11
0.2112422440944882
21
3.3992319685039369
0
LINE
8
BLACK
6
CONTINUOUS
10
0.2112422440944882
20
3.3992319685039369
11
0.2106884645669291
21
3.3990633464566931
0
LINE
8
BLACK
6
CONTINUOUS
10
0.2106884645669291
20
3.3990633464566931
11
0.1943145275590551
21
3.3957885826771652
0
LINE
8
BLACK
6
CONTINUOUS
10
0.1943145275590551
20
3.3957885826771652
11
0.1943145275590551
21
3.3914072440944882
0
LINE
8
BLACK
6
CONTINUOUS
10
0.1943145275590551
20
3.3914072440944882
11
0.1954373622047244
21
3.3891614960629921
0
LINE
8
BLACK
6
CONTINUOUS
10
0.1954373622047244
20
3.3891614960629921
11
0.1976831102362205
21
3.3880386220472438
0
LINE
8
BLACK
6
CONTINUOUS
10
0.1976831102362205
20
3.3880386220472438
11
0.2037880708661417
21
3.3880386220472438
0
LINE
8
BLACK
6
CONTINUOUS
10
0.2037880708661417
20
3.3880386220472438
11
0.2069141338582677
21
3.3896016535433069
0
LINE
8
BLACK
6
CONTINUOUS
10
0.2069141338582677
20
3.3896016535433069
11
0.2074547244094488
21
3.3898085433070864
0
LINE
8
BLACK
6
CONTINUOUS
10
0.2074547244094488
20
3.3898085433070864
11
0.208603937007874
21
3.3898901968503936
0
LINE
8
BLACK
6
CONTINUOUS
10
0.208603937007874
20
3.3898901968503936
11
0.2096969291338583
21
3.389525866141732
0
LINE
8
BLACK
6
CONTINUOUS
10
0.2096969291338583
20
3.389525866141732
11
0.2105672834645669
21
3.3887710236220472
0
LINE
8
BLACK
6
CONTINUOUS
10
0.2105672834645669
20
3.3887710236220472
11
0.2110825590551181
21
3.3877405118110238
0
LINE
8
BLACK
6
CONTINUOUS
10
0.2110825590551181
20
3.3877405118110238
11
0.2111642125984252
21
3.3865912992125984
0
LINE
8
BLACK
6
CONTINUOUS
10
0.2111642125984252
20
3.3865912992125984
11
0.2107998818897638
21
3.3854983464566928
0
LINE
8
BLACK
6
CONTINUOUS
10
0.2107998818897638
20
3.3854983464566928
11
0.2100450393700787
21
3.3846279527559053
0
LINE
8
BLACK
6
CONTINUOUS
10
0.2100450393700787
20
3.3846279527559053
11
0.2095551574803149
21
3.3843196062992127
0
LINE
8
BLACK
6
CONTINUOUS
10
0.2095551574803149
20
3.3843196062992127
11
0.2058056299212598
21
3.3824448425196851
0
LINE
8
BLACK
6
CONTINUOUS
10
0.2058056299212598
20
3.3824448425196851
11
0.205265
21
3.3822379527559052
0
LINE
8
BLACK
6
CONTINUOUS
10
0.205265
20
3.3822379527559052
11
0.2051591732283465
21
3.3822304724409449
0
LINE
8
BLACK
6
CONTINUOUS
10
0.2051591732283465
20
3.3822304724409449
11
0.2050611811023622
21
3.382189842519685
0
LINE
8
BLACK
6
CONTINUOUS
10
0.2050611811023622
20
3.382189842519685
11
0.2044851181102362
21
3.3821331102362202
0
LINE
8
BLACK
6
CONTINUOUS
10
0.2044851181102362
20
3.3821331102362202
11
0.196986062992126
21
3.3821331102362202
0
LINE
8
BLACK
6
CONTINUOUS
10
0.196986062992126
20
3.3821331102362202
11
0.19641
21
3.382189842519685
0
LINE
8
BLACK
6
CONTINUOUS
10
0.19641
20
3.382189842519685
11
0.1963120078740157
21
3.3822304330708661
0
LINE
8
BLACK
6
CONTINUOUS
10
0.1963120078740157
20
3.3822304330708661
11
0.1962061417322835
21
3.3822379527559052
0
LINE
8
BLACK
6
CONTINUOUS
10
0.1962061417322835
20
3.3822379527559052
11
0.1956655511811023
21
3.3824448425196851
0
LINE
8
BLACK
6
CONTINUOUS
10
0.1956655511811023
20
3.3824448425196851
11
0.1919160236220472
21
3.3843196062992127
0
LINE
8
BLACK
6
CONTINUOUS
10
0.1919160236220472
20
3.3843196062992127
11
0.1918196456692913
21
3.384380275590551
0
LINE
8
BLACK
6
CONTINUOUS
10
0.1918196456692913
20
3.384380275590551
11
0.1917742519685039
21
3.3843953937007871
0
LINE
8
BLACK
6
CONTINUOUS
10
0.1917742519685039
20
3.3843953937007871
11
0.1917176771653543
21
3.3844444488188974
0
LINE
8
BLACK
6
CONTINUOUS
10
0.1917176771653543
20
3.3844444488188974
11
0.1914261417322835
21
3.3846279527559053
0
LINE
8
BLACK
6
CONTINUOUS
10
0.1914261417322835
20
3.3846279527559053
11
0.1911834645669291
21
3.3849077952755904
0
LINE
8
BLACK
6
CONTINUOUS
10
0.1911834645669291
20
3.3849077952755904
11
0.1909038582677165
21
3.3851502755905511
0
LINE
8
BLACK
6
CONTINUOUS
10
0.1909038582677165
20
3.3851502755905511
11
0.1907203543307087
21
3.3854417716535434
0
LINE
8
BLACK
6
CONTINUOUS
10
0.1907203543307087
20
3.3854417716535434
11
0.1906712992125984
21
3.3854983464566928
0
LINE
8
BLACK
6
CONTINUOUS
10
0.1906712992125984
20
3.3854983464566928
11
0.1906561417322835
21
3.3855438188976379
0
LINE
8
BLACK
6
CONTINUOUS
10
0.1906561417322835
20
3.3855438188976379
11
0.1905955118110236
21
3.3856401181102362
0
LINE
8
BLACK
6
CONTINUOUS
10
0.1905955118110236
20
3.3856401181102362
11
0.188720748031496
21
3.3893896850393701
0
LINE
8
BLACK
6
CONTINUOUS
10
0.188720748031496
20
3.3893896850393701
11
0.1885138582677165
21
3.3899303149606297
0
LINE
8
BLACK
6
CONTINUOUS
10
0.1885138582677165
20
3.3899303149606297
11
0.1885063385826772
21
3.3900361417322835
0
LINE
8
BLACK
6
CONTINUOUS
10
0.1885063385826772
20
3.3900361417322835
11
0.1884657480314961
21
3.3901341338582678
0
LINE
8
BLACK
6
CONTINUOUS
10
0.1884657480314961
20
3.3901341338582678
11
0.1884090157480315
21
3.3907101968503937
0
LINE
8
BLACK
6
CONTINUOUS
10
0.1884090157480315
20
3.3907101968503937
11
0.1884090157480315
21
3.4057083070866141
0
LINE
8
BLACK
6
CONTINUOUS
10
0.1884090157480315
20
3.4057083070866141
11
0.1884657480314961
21
3.40628437007874
0
LINE
8
BLACK
6
CONTINUOUS
10
0.1884657480314961
20
3.40628437007874
11
0.1885063385826772
21
3.406382401574803
0
LINE
8
BLACK
6
CONTINUOUS
10
0.1885063385826772
20
3.406382401574803
11
0.1885138582677165
21
3.4064881889763781
0
LINE
8
BLACK
6
CONTINUOUS
10
0.1885138582677165
20
3.4064881889763781
11
0.188720748031496
21
3.4070288188976376
0
LINE
8
BLACK
6
CONTINUOUS
10
0.188720748031496
20
3.4070288188976376
11
0.1905955118110236
21
3.4107783464566928
0
LINE
8
BLACK
6
CONTINUOUS
10
0.1905955118110236
20
3.4107783464566928
11
0.1906561417322835
21
3.4108747244094486
0
LINE
8
BLACK
6
CONTINUOUS
10
0.1906561417322835
20
3.4108747244094486
11
0.1906712992125984
21
3.4109201181102362
0
LINE
8
BLACK
6
CONTINUOUS
10
0.1906712992125984
20
3.4109201181102362
11
0.1907203149606299
21
3.4109766929133856
0
LINE
8
BLACK
6
CONTINUOUS
10
0.1907203149606299
20
3.4109766929133856
11
0.1909038582677165
21
3.4112682283464566
0
LINE
8
BLACK
6
CONTINUOUS
10
0.1909038582677165
20
3.4112682283464566
11
0.1911835433070866
21
3.4115108267716536
0
LINE
8
BLACK
6
CONTINUOUS
10
0.1911835433070866
20
3.4115108267716536
11
0.1914261417322835
21
3.4117905118110237
0
LINE
8
BLACK
6
CONTINUOUS
10
0.1914261417322835
20
3.4117905118110237
11
0.1917176771653543
21
3.4119740551181104
0
LINE
8
BLACK
6
CONTINUOUS
10
0.1917176771653543
20
3.4119740551181104
11
0.1917742519685039
21
3.4120230708661419
0
LINE
8
BLACK
6
CONTINUOUS
10
0.1917742519685039
20
3.4120230708661419
11
0.1918196456692913
21
3.4120382283464568
0
LINE
8
BLACK
6
CONTINUOUS
10
0.1918196456692913
20
3.4120382283464568
11
0.1919160236220472
21
3.4120988582677163
0
LINE
8
BLACK
6
CONTINUOUS
10
0.1919160236220472
20
3.4120988582677163
11
0.1956655511811023
21
3.4139736220472439
0
LINE
8
BLACK
6
CONTINUOUS
10
0.1956655511811023
20
3.4139736220472439
11
0.1962061417322835
21
3.4141805118110233
0
LINE
8
BLACK
6
CONTINUOUS
10
0.1962061417322835
20
3.4141805118110233
11
0.1963120078740157
21
3.4141880708661416
0
LINE
8
BLACK
6
CONTINUOUS
10
0.1963120078740157
20
3.4141880708661416
11
0.19641
21
3.414228622047244
0
LINE
8
BLACK
6
CONTINUOUS
10
0.19641
20
3.414228622047244
11
0.196986062992126
21
3.4142853543307088
0
LINE
8
BLACK
6
CONTINUOUS
10
0.196986062992126
20
3.4142853543307088
11
0.2044851181102362
21
3.4142853543307088
0
LINE
8
BLACK
6
CONTINUOUS
10
0.2044851181102362
20
3.4142853543307088
11
0.2050611811023622
21
3.414228622047244
0
LINE
8
BLACK
6
CONTINUOUS
10
0.1954373622047244
20
3.4072570078740156
11
0.1943145275590551
21
3.4050112598425195
0
LINE
8
BLACK
6
CONTINUOUS
10
0.1943145275590551
20
3.4050112598425195
11
0.1943145275590551
21
3.4018110629921261
0
LINE
8
BLACK
6
CONTINUOUS
10
0.1943145275590551
20
3.4018110629921261
11
0.2071566535433071
21
3.4043794488188976
0
LINE
8
BLACK
6
CONTINUOUS
10
0.2071566535433071
20
3.4043794488188976
11
0.2071566535433071
21
3.4050112598425195
0
LINE
8
BLACK
6
CONTINUOUS
10
0.2071566535433071
20
3.4050112598425195
11
0.2060337795275591
21
3.4072570078740156
0
LINE
8
BLACK
6
CONTINUOUS
10
0.2060337795275591
20
3.4072570078740156
11
0.2037880708661417
21
3.4083798425196852
0
LINE
8
BLACK
6
CONTINUOUS
10
0.2037880708661417
20
3.4083798425196852
11
0.1976831102362205
21
3.4083798425196852
0
LINE
8
BLACK
6
CONTINUOUS
10
0.1976831102362205
20
3.4083798425196852
11
0.1954373622047244
21
3.4072570078740156
0
LINE
8
BLACK
6
CONTINUOUS
10
0.2754919291338583
20
3.4269110629921258
11
0.2763065748031496
21
3.4260964173228348
0
LINE
8
BLACK
6
CONTINUOUS
10
0.2763065748031496
20
3.4260964173228348
11
0.2767474803149606
21
3.4250320078740155
0
LINE
8
BLACK
6
CONTINUOUS
10
0.2767474803149606
20
3.4250320078740155
11
0.2768042125984252
21
3.4244559448818896
0
LINE
8
BLACK
6
CONTINUOUS
10
0.2768042125984252
20
3.4244559448818896
11
0.2768042125984252
21
3.3850858661417322
0
LINE
8
BLACK
6
CONTINUOUS
10
0.2768042125984252
20
3.3850858661417322
11
0.2767474803149606
21
3.3845098031496064
0
LINE
8
BLACK
6
CONTINUOUS
10
0.2767474803149606
20
3.3845098031496064
11
0.2763065748031496
21
3.3834453937007871
0
LINE
8
BLACK
6
CONTINUOUS
10
0.2763065748031496
20
3.3834453937007871
11
0.2754919291338583
21
3.3826307480314961
0
LINE
8
BLACK
6
CONTINUOUS
10
0.2754919291338583
20
3.3826307480314961
11
0.2744275196850394
21
3.382189842519685
0
LINE
8
BLACK
6
CONTINUOUS
10
0.2744275196850394
20
3.382189842519685
11
0.2732753937007874
21
3.382189842519685
0
LINE
8
BLACK
6
CONTINUOUS
10
0.2732753937007874
20
3.382189842519685
11
0.2722109842519685
21
3.3826307480314961
0
LINE
8
BLACK
6
CONTINUOUS
10
0.2722109842519685
20
3.3826307480314961
11
0.2720720472440945
21
3.3827696850393698
0
LINE
8
BLACK
6
CONTINUOUS
10
0.2720720472440945
20
3.3827696850393698
11
0.2714224409448819
21
3.3824448425196851
0
LINE
8
BLACK
6
CONTINUOUS
10
0.2714224409448819
20
3.3824448425196851
11
0.270881811023622
21
3.3822379527559052
0
LINE
8
BLACK
6
CONTINUOUS
10
0.270881811023622
20
3.3822379527559052
11
0.2707759842519685
21
3.3822304724409449
0
LINE
8
BLACK
6
CONTINUOUS
10
0.2707759842519685
20
3.3822304724409449
11
0.2706779921259843
21
3.382189842519685
0
LINE
8
BLACK
6
CONTINUOUS
10
0.2706779921259843
20
3.382189842519685
11
0.2701019291338583
21
3.3821331102362202
0
LINE
8
BLACK
6
CONTINUOUS
10
0.2701019291338583
20
3.3821331102362202
11
0.262602874015748
21
3.3821331102362202
0
LINE
8
BLACK
6
CONTINUOUS
10
0.262602874015748
20
3.3821331102362202
11
0.262026811023622
21
3.382189842519685
0
LINE
8
BLACK
6
CONTINUOUS
10
0.262026811023622
20
3.382189842519685
11
0.2619288188976378
21
3.3822304330708661
0
LINE
8
BLACK
6
CONTINUOUS
10
0.2619288188976378
20
3.3822304330708661
11
0.2618229527559055
21
3.3822379527559052
0
LINE
8
BLACK
6
CONTINUOUS
10
0.2618229527559055
20
3.3822379527559052
11
0.2612823622047244
21
3.3824448425196851
0
LINE
8
BLACK
6
CONTINUOUS
10
0.2612823622047244
20
3.3824448425196851
11
0.2575328346456693
21
3.3843196062992127
0
LINE
8
BLACK
6
CONTINUOUS
10
0.2575328346456693
20
3.3843196062992127
11
0.2572848031496063
21
3.3844757086614172
0
LINE
8
BLACK
6
CONTINUOUS
10
0.2572848031496063
20
3.3844757086614172
11
0.257212874015748
21
3.3845055118110237
0
LINE
8
BLACK
6
CONTINUOUS
10
0.257212874015748
20
3.3845055118110237
11
0.2571318897637795
21
3.3845719685039368
0
LINE
8
BLACK
6
CONTINUOUS
10
0.2571318897637795
20
3.3845719685039368
11
0.2570429527559055
21
3.3846279527559053
0
LINE
8
BLACK
6
CONTINUOUS
10
0.2570429527559055
20
3.3846279527559053
11
0.2569917322834646
21
3.3846870078740157
0
LINE
8
BLACK
6
CONTINUOUS
10
0.2569917322834646
20
3.3846870078740157
11
0.2567653937007874
21
3.3848727559055116
0
LINE
8
BLACK
6
CONTINUOUS
10
0.2567653937007874
20
3.3848727559055116
11
0.2548906299212598
21
3.3867475590551179
0
LINE
8
BLACK
6
CONTINUOUS
10
0.2548906299212598
20
3.3867475590551179
11
0.2547048818897638
21
3.386973897637795
0
LINE
8
BLACK
6
CONTINUOUS
10
0.2547048818897638
20
3.386973897637795
11
0.254645905511811
21
3.3870250393700787
0
LINE
8
BLACK
6
CONTINUOUS
10
0.254645905511811
20
3.3870250393700787
11
0.2545899212598425
21
3.3871139763779525
0
LINE
8
BLACK
6
CONTINUOUS
10
0.2545899212598425
20
3.3871139763779525
11
0.2545234251968504
21
3.3871949999999997
0
LINE
8
BLACK
6
CONTINUOUS
10
0.2545234251968504
20
3.3871949999999997
11
0.2544935826771654
21
3.3872670472440944
0
LINE
8
BLACK
6
CONTINUOUS
10
0.2544935826771654
20
3.3872670472440944
11
0.2543375590551181
21
3.3875149212598425
0
LINE
8
BLACK
6
CONTINUOUS
10
0.2543375590551181
20
3.3875149212598425
11
0.2524627952755906
21
3.3912644488188977
0
LINE
8
BLACK
6
CONTINUOUS
10
0.2524627952755906
20
3.3912644488188977
11
0.252255905511811
21
3.3918050787401572
0
LINE
8
BLACK
6
CONTINUOUS
10
0.252255905511811
20
3.3918050787401572
11
0.2522483858267717
21
3.3919109055118111
0
LINE
8
BLACK
6
CONTINUOUS
10
0.2522483858267717
20
3.3919109055118111
11
0.2522077952755906
21
3.3920088976377953
0
LINE
8
BLACK
6
CONTINUOUS
10
0.2522077952755906
20
3.3920088976377953
11
0.252151062992126
21
3.3925849606299212
0
LINE
8
BLACK
6
CONTINUOUS
10
0.252151062992126
20
3.3925849606299212
11
0.252151062992126
21
3.4038335433070865
0
LINE
8
BLACK
6
CONTINUOUS
10
0.252151062992126
20
3.4038335433070865
11
0.2522077952755906
21
3.4044096062992124
0
LINE
8
BLACK
6
CONTINUOUS
10
0.2522077952755906
20
3.4044096062992124
11
0.2522483858267717
21
3.4045076377952754
0
LINE
8
BLACK
6
CONTINUOUS
10
0.2522483858267717
20
3.4045076377952754
11
0.252255905511811
21
3.4046134251968505
0
LINE
8
BLACK
6
CONTINUOUS
10
0.252255905511811
20
3.4046134251968505
11
0.2524627952755906
21
3.4051540551181101
0
LINE
8
BLACK
6
CONTINUOUS
10
0.2524627952755906
20
3.4051540551181101
11
0.2543375590551181
21
3.4089035826771652
0
LINE
8
BLACK
6
CONTINUOUS
10
0.2543375590551181
20
3.4089035826771652
11
0.2544936220472441
21
3.4091516141732283
0
LINE
8
BLACK
6
CONTINUOUS
10
0.2544936220472441
20
3.4091516141732283
11
0.2545234645669291
21
3.4092235433070863
0
LINE
8
BLACK
6
CONTINUOUS
10
0.2545234645669291
20
3.4092235433070863
11
0.2545899212598425
21
3.4093045275590552
0
LINE
8
BLACK
6
CONTINUOUS
10
0.2545899212598425
20
3.4093045275590552
11
0.254645905511811
21
3.409393464566929
0
LINE
8
BLACK
6
CONTINUOUS
10
0.254645905511811
20
3.409393464566929
11
0.2547048818897638
21
3.4094446456692911
0
LINE
8
BLACK
6
CONTINUOUS
10
0.2547048818897638
20
3.4094446456692911
11
0.2548906692913386
21
3.4096709842519686
0
LINE
8
BLACK
6
CONTINUOUS
10
0.2548906692913386
20
3.4096709842519686
11
0.2567654330708661
21
3.4115457480314961
0
LINE
8
BLACK
6
CONTINUOUS
10
0.2567654330708661
20
3.4115457480314961
11
0.2569917716535433
21
3.4117315354330708
0
LINE
8
BLACK
6
CONTINUOUS
10
0.2569917716535433
20
3.4117315354330708
11
0.2570429527559055
21
3.4117905118110237
0
LINE
8
BLACK
6
CONTINUOUS
10
0.2570429527559055
20
3.4117905118110237
11
0.2571318897637795
21
3.4118464960629922
0
LINE
8
BLACK
6
CONTINUOUS
10
0.2571318897637795
20
3.4118464960629922
11
0.257212874015748
21
3.4119129527559053
0
LINE
8
BLACK
6
CONTINUOUS
10
0.257212874015748
20
3.4119129527559053
11
0.2572848031496063
21
3.4119427952755905
0
LINE
8
BLACK
6
CONTINUOUS
10
0.2572848031496063
20
3.4119427952755905
11
0.2575328346456693
21
3.4120988582677163
0
LINE
8
BLACK
6
CONTINUOUS
10
0.2575328346456693
20
3.4120988582677163
11
0.2612823622047244
21
3.4139736220472439
0
LINE
8
BLACK
6
CONTINUOUS
10
0.2612823622047244
20
3.4139736220472439
11
0.2618229527559055
21
3.4141805118110233
0
LINE
8
BLACK
6
CONTINUOUS
10
0.2618229527559055
20
3.4141805118110233
11
0.2619288188976378
21
3.4141880708661416
0
LINE
8
BLACK
6
CONTINUOUS
10
0.2619288188976378
20
3.4141880708661416
11
0.262026811023622
21
3.414228622047244
0
LINE
8
BLACK
6
CONTINUOUS
10
0.262026811023622
20
3.414228622047244
11
0.262602874015748
21
3.4142853543307088
0
LINE
8
BLACK
6
CONTINUOUS
10
0.262602874015748
20
3.4142853543307088
11
0.2701019291338583
21
3.4142853543307088
0
LINE
8
BLACK
6
CONTINUOUS
10
0.2701019291338583
20
3.4142853543307088
11
0.2706779921259843
21
3.414228622047244
0
LINE
8
BLACK
6
CONTINUOUS
10
0.2706779921259843
20
3.414228622047244
11
0.2707759842519685
21
3.4141880314960629
0
LINE
8
BLACK
6
CONTINUOUS
10
0.2707759842519685
20
3.4141880314960629
11
0.270881811023622
21
3.4141805118110233
0
LINE
8
BLACK
6
CONTINUOUS
10
0.270881811023622
20
3.4141805118110233
11
0.2708987007874016
21
3.4141740551181101
0
LINE
8
BLACK
6
CONTINUOUS
10
0.2708987007874016
20
3.4141740551181101
11
0.2708987007874016
21
3.4244559448818896
0
LINE
8
BLACK
6
CONTINUOUS
10
0.2708987007874016
20
3.4244559448818896
11
0.2709554330708661
21
3.4250320078740155
0
LINE
8
BLACK
6
CONTINUOUS
10
0.2709554330708661
20
3.4250320078740155
11
0.2713963385826771
21
3.4260964173228348
0
LINE
8
BLACK
6
CONTINUOUS
10
0.2713963385826771
20
3.4260964173228348
11
0.2722109842519685
21
3.4269110629921258
0
LINE
8
BLACK
6
CONTINUOUS
10
0.2722109842519685
20
3.4269110629921258
11
0.2732753937007874
21
3.4273519685039369
0
LINE
8
BLACK
6
CONTINUOUS
10
0.2732753937007874
20
3.4273519685039369
11
0.2744275196850394
21
3.4273519685039369
0
LINE
8
BLACK
6
CONTINUOUS
10
0.2744275196850394
20
3.4273519685039369
11
0.2754919291338583
21
3.4269110629921258
0
LINE
8
BLACK
6
CONTINUOUS
10
0.2606024409448819
20
3.4070311023622049
11
0.2594053149606299
21
3.4058339763779526
0
LINE
8
BLACK
6
CONTINUOUS
10
0.2594053149606299
20
3.4058339763779526
11
0.2580565748031496
21
3.403136496062992
0
LINE
8
BLACK
6
CONTINUOUS
10
0.2580565748031496
20
3.403136496062992
11
0.2580565748031496
21
3.3932820078740158
0
LINE
8
BLACK
6
CONTINUOUS
10
0.2580565748031496
20
3.3932820078740158
11
0.2594053149606299
21
3.3905845275590552
0
LINE
8
BLACK
6
CONTINUOUS
10
0.2594053149606299
20
3.3905845275590552
11
0.2606024409448819
21
3.3893873622047241
0
LINE
8
BLACK
6
CONTINUOUS
10
0.2606024409448819
20
3.3893873622047241
11
0.2632999212598425
21
3.3880386220472438
0
LINE
8
BLACK
6
CONTINUOUS
10
0.2632999212598425
20
3.3880386220472438
11
0.2694048818897637
21
3.3880386220472438
0
LINE
8
BLACK
6
CONTINUOUS
10
0.2694048818897637
20
3.3880386220472438
11
0.2708987007874016
21
3.3887855511811025
0
LINE
8
BLACK
6
CONTINUOUS
10
0.2708987007874016
20
3.3887855511811025
11
0.2708987007874016
21
3.4076329527559053
0
LINE
8
BLACK
6
CONTINUOUS
10
0.2708987007874016
20
3.4076329527559053
11
0.2694048818897637
21
3.4083798425196852
0
LINE
8
BLACK
6
CONTINUOUS
10
0.2694048818897637
20
3.4083798425196852
11
0.2632999212598425
21
3.4083798425196852
0
LINE
8
BLACK
6
CONTINUOUS
10
0.2632999212598425
20
3.4083798425196852
11
0.2606024409448819
21
3.4070311023622049
0
LINE
8
BLACK
6
CONTINUOUS
10
0.375664842519685
20
3.414228622047244
11
0.3757628346456693
21
3.4141880314960629
0
LINE
8
BLACK
6
CONTINUOUS
10
0.3757628346456693
20
3.4141880314960629
11
0.3758686614173228
21
3.4141805118110233
0
LINE
8
BLACK
6
CONTINUOUS
10
0.3758686614173228
20
3.4141805118110233
11
0.3764092913385826
21
3.4139736220472439
0
LINE
8
BLACK
6
CONTINUOUS
10
0.3764092913385826
20
3.4139736220472439
11
0.3801588188976378
21
3.4120988582677163
0
LINE
8
BLACK
6
CONTINUOUS
10
0.3801588188976378
20
3.4120988582677163
11
0.380255157480315
21
3.4120382283464568
0
LINE
8
BLACK
6
CONTINUOUS
10
0.380255157480315
20
3.4120382283464568
11
0.3803005905511811
21
3.4120230708661419
0
LINE
8
BLACK
6
CONTINUOUS
10
0.3803005905511811
20
3.4120230708661419
11
0.380357125984252
21
3.4119740551181104
0
LINE
8
BLACK
6
CONTINUOUS
10
0.380357125984252
20
3.4119740551181104
11
0.3806487007874015
21
3.4117905118110237
0
LINE
8
BLACK
6
CONTINUOUS
10
0.3806487007874015
20
3.4117905118110237
11
0.3808912598425197
21
3.4115108267716536
0
LINE
8
BLACK
6
CONTINUOUS
10
0.3808912598425197
20
3.4115108267716536
11
0.3811709842519685
21
3.4112682283464566
0
LINE
8
BLACK
6
CONTINUOUS
10
0.3811709842519685
20
3.4112682283464566
11
0.3813544881889764
21
3.4109766929133856
0
LINE
8
BLACK
6
CONTINUOUS
10
0.3813544881889764
20
3.4109766929133856
11
0.3814035433070866
21
3.4109201181102362
0
LINE
8
BLACK
6
CONTINUOUS
10
0.3814035433070866
20
3.4109201181102362
11
0.3814186614173228
21
3.4108747244094486
0
LINE
8
BLACK
6
CONTINUOUS
10
0.3814186614173228
20
3.4108747244094486
11
0.3814793307086614
21
3.4107783464566928
0
LINE
8
BLACK
6
CONTINUOUS
10
0.3814793307086614
20
3.4107783464566928
11
0.383354094488189
21
3.4070288188976376
0
LINE
8
BLACK
6
CONTINUOUS
10
0.383354094488189
20
3.4070288188976376
11
0.3835609842519685
21
3.4064882283464568
0
LINE
8
BLACK
6
CONTINUOUS
10
0.3835609842519685
20
3.4064882283464568
11
0.3835685039370079
21
3.4063823622047242
0
LINE
8
BLACK
6
CONTINUOUS
10
0.3835685039370079
20
3.4063823622047242
11
0.383609094488189
21
3.40628437007874
0
LINE
8
BLACK
6
CONTINUOUS
10
0.383609094488189
20
3.40628437007874
11
0.3836658267716536
21
3.4057083070866141
0
LINE
8
BLACK
6
CONTINUOUS
10
0.3836658267716536
20
3.4057083070866141
11
0.3836658267716536
21
3.401958779527559
0
LINE
8
BLACK
6
CONTINUOUS
10
0.3836658267716536
20
3.401958779527559
11
0.383609094488189
21
3.4013827165354331
0
LINE
8
BLACK
6
CONTINUOUS
10
0.383609094488189
20
3.4013827165354331
11
0.3834983070866141
21
3.4011153543307087
0
LINE
8
BLACK
6
CONTINUOUS
10
0.3834983070866141
20
3.4011153543307087
11
0.3834422047244094
21
3.4008316535433072
0
LINE
8
BLACK
6
CONTINUOUS
10
0.3834422047244094
20
3.4008316535433072
11
0.3832801181102362
21
3.4005885433070864
0
LINE
8
BLACK
6
CONTINUOUS
10
0.3832801181102362
20
3.4005885433070864
11
0.3831681889763779
21
3.4003183070866143
0
LINE
8
BLACK
6
CONTINUOUS
10
0.3831681889763779
20
3.4003183070866143
11
0.3829635433070866
21
3.4001136614173229
0
LINE
8
BLACK
6
CONTINUOUS
10
0.3829635433070866
20
3.4001136614173229
11
0.3828031496062992
21
3.3998730708661418
0
LINE
8
BLACK
6
CONTINUOUS
10
0.3828031496062992
20
3.3998730708661418
11
0.3825603149606299
21
3.3997104724409448
0
LINE
8
BLACK
6
CONTINUOUS
10
0.3825603149606299
20
3.3997104724409448
11
0.3823535433070866
21
3.3995036614173229
0
LINE
8
BLACK
6
CONTINUOUS
10
0.3823535433070866
20
3.3995036614173229
11
0.3820862598425196
21
3.3993929527559055
0
LINE
8
BLACK
6
CONTINUOUS
10
0.3820862598425196
20
3.3993929527559055
11
0.381845905511811
21
3.3992319685039369
0
LINE
8
BLACK
6
CONTINUOUS
10
0.381845905511811
20
3.3992319685039369
11
0.3812921259842519
21
3.3990633464566931
0
LINE
8
BLACK
6
CONTINUOUS
10
0.3812921259842519
20
3.3990633464566931
11
0.364918188976378
21
3.3957885826771652
0
LINE
8
BLACK
6
CONTINUOUS
10
0.364918188976378
20
3.3957885826771652
11
0.364918188976378
21
3.3914072440944882
0
LINE
8
BLACK
6
CONTINUOUS
10
0.364918188976378
20
3.3914072440944882
11
0.3660410236220472
21
3.3891614960629921
0
LINE
8
BLACK
6
CONTINUOUS
10
0.3660410236220472
20
3.3891614960629921
11
0.3682867716535433
21
3.3880386220472438
0
LINE
8
BLACK
6
CONTINUOUS
10
0.3682867716535433
20
3.3880386220472438
11
0.3743917322834646
21
3.3880386220472438
0
LINE
8
BLACK
6
CONTINUOUS
10
0.3743917322834646
20
3.3880386220472438
11
0.3775177952755905
21
3.3896016535433069
0
LINE
8
BLACK
6
CONTINUOUS
10
0.3775177952755905
20
3.3896016535433069
11
0.3780583858267716
21
3.3898085433070864
0
LINE
8
BLACK
6
CONTINUOUS
10
0.3780583858267716
20
3.3898085433070864
11
0.3792075984251969
21
3.3898901968503936
0
LINE
8
BLACK
6
CONTINUOUS
10
0.3792075984251969
20
3.3898901968503936
11
0.3803005905511811
21
3.389525866141732
0
LINE
8
BLACK
6
CONTINUOUS
10
0.3803005905511811
20
3.389525866141732
11
0.3811709448818897
21
3.3887710236220472
0
LINE
8
BLACK
6
CONTINUOUS
10
0.3811709448818897
20
3.3887710236220472
11
0.3816862204724409
21
3.3877405118110238
0
LINE
8
BLACK
6
CONTINUOUS
10
0.3816862204724409
20
3.3877405118110238
11
0.381767874015748
21
3.3865912992125984
0
LINE
8
BLACK
6
CONTINUOUS
10
0.381767874015748
20
3.3865912992125984
11
0.3814035433070866
21
3.3854983464566928
0
LINE
8
BLACK
6
CONTINUOUS
10
0.3814035433070866
20
3.3854983464566928
11
0.3806487007874015
21
3.3846279527559053
0
LINE
8
BLACK
6
CONTINUOUS
10
0.3806487007874015
20
3.3846279527559053
11
0.3801588188976378
21
3.3843196062992127
0
LINE
8
BLACK
6
CONTINUOUS
10
0.3801588188976378
20
3.3843196062992127
11
0.3764092913385826
21
3.3824448425196851
0
LINE
8
BLACK
6
CONTINUOUS
10
0.3764092913385826
20
3.3824448425196851
11
0.3758686614173228
21
3.3822379527559052
0
LINE
8
BLACK
6
CONTINUOUS
10
0.3758686614173228
20
3.3822379527559052
11
0.3757628346456693
21
3.3822304724409449
0
LINE
8
BLACK
6
CONTINUOUS
10
0.3757628346456693
20
3.3822304724409449
11
0.375664842519685
21
3.382189842519685
0
LINE
8
BLACK
6
CONTINUOUS
10
0.375664842519685
20
3.382189842519685
11
0.375088779527559
21
3.3821331102362202
0
LINE
8
BLACK
6
CONTINUOUS
10
0.375088779527559
20
3.3821331102362202
11
0.3675897244094488
21
3.3821331102362202
0
LINE
8
BLACK
6
CONTINUOUS
10
0.3675897244094488
20
3.3821331102362202
11
0.3670136614173228
21
3.382189842519685
0
LINE
8
BLACK
6
CONTINUOUS
10
0.3670136614173228
20
3.382189842519685
11
0.3669156692913386
21
3.3822304330708661
0
LINE
8
BLACK
6
CONTINUOUS
10
0.3669156692913386
20
3.3822304330708661
11
0.3668098031496063
21
3.3822379527559052
0
LINE
8
BLACK
6
CONTINUOUS
10
0.3668098031496063
20
3.3822379527559052
11
0.3662692125984252
21
3.3824448425196851
0
LINE
8
BLACK
6
CONTINUOUS
10
0.3662692125984252
20
3.3824448425196851
11
0.36251968503937
21
3.3843196062992127
0
LINE
8
BLACK
6
CONTINUOUS
10
0.36251968503937
20
3.3843196062992127
11
0.3624233070866142
21
3.384380275590551
0
LINE
8
BLACK
6
CONTINUOUS
10
0.3624233070866142
20
3.384380275590551
11
0.3623779133858268
21
3.3843953937007871
0
LINE
8
BLACK
6
CONTINUOUS
10
0.3623779133858268
20
3.3843953937007871
11
0.3623213385826772
21
3.3844444488188974
0
LINE
8
BLACK
6
CONTINUOUS
10
0.3623213385826772
20
3.3844444488188974
11
0.3620298031496063
21
3.3846279527559053
0
LINE
8
BLACK
6
CONTINUOUS
10
0.3620298031496063
20
3.3846279527559053
11
0.3617871259842519
21
3.3849077952755904
0
LINE
8
BLACK
6
CONTINUOUS
10
0.3617871259842519
20
3.3849077952755904
11
0.3615075196850394
21
3.3851502755905511
0
LINE
8
BLACK
6
CONTINUOUS
10
0.3615075196850394
20
3.3851502755905511
11
0.3613240157480315
21
3.3854417716535434
0
LINE
8
BLACK
6
CONTINUOUS
10
0.3613240157480315
20
3.3854417716535434
11
0.3612749606299213
21
3.3854983464566928
0
LINE
8
BLACK
6
CONTINUOUS
10
0.3612749606299213
20
3.3854983464566928
11
0.3612598031496063
21
3.3855438188976379
0
LINE
8
BLACK
6
CONTINUOUS
10
0.3612598031496063
20
3.3855438188976379
11
0.3611991732283464
21
3.3856401181102362
0
LINE
8
BLACK
6
CONTINUOUS
10
0.3611991732283464
20
3.3856401181102362
11
0.3593244094488189
21
3.3893896850393701
0
LINE
8
BLACK
6
CONTINUOUS
10
0.3593244094488189
20
3.3893896850393701
11
0.3591175196850394
21
3.3899303149606297
0
LINE
8
BLACK
6
CONTINUOUS
10
0.3591175196850394
20
3.3899303149606297
11
0.35911
21
3.3900361417322835
0
LINE
8
BLACK
6
CONTINUOUS
10
0.35911
20
3.3900361417322835
11
0.3590694094488189
21
3.3901341338582678
0
LINE
8
BLACK
6
CONTINUOUS
10
0.3590694094488189
20
3.3901341338582678
11
0.3590126771653543
21
3.3907101968503937
0
LINE
8
BLACK
6
CONTINUOUS
10
0.3590126771653543
20
3.3907101968503937
11
0.3590126771653543
21
3.4057083070866141
0
LINE
8
BLACK
6
CONTINUOUS
10
0.3590126771653543
20
3.4057083070866141
11
0.3590694094488189
21
3.40628437007874
0
LINE
8
BLACK
6
CONTINUOUS
10
0.3590694094488189
20
3.40628437007874
11
0.35911
21
3.406382401574803
0
LINE
8
BLACK
6
CONTINUOUS
10
0.35911
20
3.406382401574803
11
0.3591175196850394
21
3.4064881889763781
0
LINE
8
BLACK
6
CONTINUOUS
10
0.3591175196850394
20
3.4064881889763781
11
0.3593244094488189
21
3.4070288188976376
0
LINE
8
BLACK
6
CONTINUOUS
10
0.3593244094488189
20
3.4070288188976376
11
0.3611991732283464
21
3.4107783464566928
0
LINE
8
BLACK
6
CONTINUOUS
10
0.3611991732283464
20
3.4107783464566928
11
0.3612598031496063
21
3.4108747244094486
0
LINE
8
BLACK
6
CONTINUOUS
10
0.3612598031496063
20
3.4108747244094486
11
0.3612749606299213
21
3.4109201181102362
0
LINE
8
BLACK
6
CONTINUOUS
10
0.3612749606299213
20
3.4109201181102362
11
0.3613239763779528
21
3.4109766929133856
0
LINE
8
BLACK
6
CONTINUOUS
10
0.3613239763779528
20
3.4109766929133856
11
0.3615075196850394
21
3.4112682283464566
0
LINE
8
BLACK
6
CONTINUOUS
10
0.3615075196850394
20
3.4112682283464566
11
0.3617872047244095
21
3.4115108267716536
0
LINE
8
BLACK
6
CONTINUOUS
10
0.3617872047244095
20
3.4115108267716536
11
0.3620298031496063
21
3.4117905118110237
0
LINE
8
BLACK
6
CONTINUOUS
10
0.3620298031496063
20
3.4117905118110237
11
0.3623213385826772
21
3.4119740551181104
0
LINE
8
BLACK
6
CONTINUOUS
10
0.3623213385826772
20
3.4119740551181104
11
0.3623779133858268
21
3.4120230708661419
0
LINE
8
BLACK
6
CONTINUOUS
10
0.3623779133858268
20
3.4120230708661419
11
0.3624233070866142
21
3.4120382283464568
0
LINE
8
BLACK
6
CONTINUOUS
10
0.3624233070866142
20
3.4120382283464568
11
0.36251968503937
21
3.4120988582677163
0
LINE
8
BLACK
6
CONTINUOUS
10
0.36251968503937
20
3.4120988582677163
11
0.3662692125984252
21
3.4139736220472439
0
LINE
8
BLACK
6
CONTINUOUS
10
0.3662692125984252
20
3.4139736220472439
11
0.3668098031496063
21
3.4141805118110233
0
LINE
8
BLACK
6
CONTINUOUS
10
0.3668098031496063
20
3.4141805118110233
11
0.3669156692913386
21
3.4141880708661416
0
LINE
8
BLACK
6
CONTINUOUS
10
0.3669156692913386
20
3.4141880708661416
11
0.3670136614173228
21
3.414228622047244
0
LINE
8
BLACK
6
CONTINUOUS
10
0.3670136614173228
20
3.414228622047244
11
0.3675897244094488
21
3.4142853543307088
0
LINE
8
BLACK
6
CONTINUOUS
10
0.3675897244094488
20
3.4142853543307088
11
0.375088779527559
21
3.4142853543307088
0
LINE
8
BLACK
6
CONTINUOUS
10
0.375088779527559
20
3.4142853543307088
11
0.375664842519685
21
3.414228622047244
0
LINE
8
BLACK
6
CONTINUOUS
10
0.3660410236220472
20
3.4072570078740156
11
0.364918188976378
21
3.4050112598425195
0
LINE
8
BLACK
6
CONTINUOUS
10
0.364918188976378
20
3.4050112598425195
11
0.364918188976378
21
3.4018110629921261
0
LINE
8
BLACK
6
CONTINUOUS
10
0.364918188976378
20
3.4018110629921261
11
0.3777603149606299
21
3.4043794488188976
0
LINE
8
BLACK
6
CONTINUOUS
10
0.3777603149606299
20
3.4043794488188976
11
0.3777603149606299
21
3.4050112598425195
0
LINE
8
BLACK
6
CONTINUOUS
10
0.3777603149606299
20
3.4050112598425195
11
0.3766374409448819
21
3.4072570078740156
0
LINE
8
BLACK
6
CONTINUOUS
10
0.3766374409448819
20
3.4072570078740156
11
0.3743917322834646
21
3.4083798425196852
0
LINE
8
BLACK
6
CONTINUOUS
10
0.3743917322834646
20
3.4083798425196852
11
0.3682867716535433
21
3.4083798425196852
0
LINE
8
BLACK
6
CONTINUOUS
10
0.3682867716535433
20
3.4083798425196852
11
0.3660410236220472
21
3.4072570078740156
0
LINE
8
BLACK
6
CONTINUOUS
10
0.4431564173228346
20
3.414228622047244
11
0.4432544094488189
21
3.4141880314960629
0
LINE
8
BLACK
6
CONTINUOUS
10
0.4432544094488189
20
3.4141880314960629
11
0.4433602362204724
21
3.4141805118110233
0
LINE
8
BLACK
6
CONTINUOUS
10
0.4433602362204724
20
3.4141805118110233
11
0.4439008661417323
21
3.4139736220472439
0
LINE
8
BLACK
6
CONTINUOUS
10
0.4439008661417323
20
3.4139736220472439
11
0.4476503937007874
21
3.4120988582677163
0
LINE
8
BLACK
6
CONTINUOUS
10
0.4476503937007874
20
3.4120988582677163
11
0.4481402755905512
21
3.4117905118110237
0
LINE
8
BLACK
6
CONTINUOUS
10
0.4481402755905512
20
3.4117905118110237
11
0.4488951181102362
21
3.4109201181102362
0
LINE
8
BLACK
6
CONTINUOUS
10
0.4488951181102362
20
3.4109201181102362
11
0.4492594488188976
21
3.4098271653543306
0
LINE
8
BLACK
6
CONTINUOUS
10
0.4492594488188976
20
3.4098271653543306
11
0.4491777952755905
21
3.4086779527559052
0
LINE
8
BLACK
6
CONTINUOUS
10
0.4491777952755905
20
3.4086779527559052
11
0.4486625196850393
21
3.4076474409448818
0
LINE
8
BLACK
6
CONTINUOUS
10
0.4486625196850393
20
3.4076474409448818
11
0.4477921653543307
21
3.406892598425197
0
LINE
8
BLACK
6
CONTINUOUS
10
0.4477921653543307
20
3.406892598425197
11
0.4466991732283465
21
3.4065282677165354
0
LINE
8
BLACK
6
CONTINUOUS
10
0.4466991732283465
20
3.4065282677165354
11
0.4455499606299212
21
3.4066099212598426
0
LINE
8
BLACK
6
CONTINUOUS
10
0.4455499606299212
20
3.4066099212598426
11
0.4450093700787401
21
3.4068168110236221
0
LINE
8
BLACK
6
CONTINUOUS
10
0.4450093700787401
20
3.4068168110236221
11
0.4418833070866142
21
3.4083798425196852
0
LINE
8
BLACK
6
CONTINUOUS
10
0.4418833070866142
20
3.4083798425196852
11
0.4376531102362204
21
3.4083798425196852
0
LINE
8
BLACK
6
CONTINUOUS
10
0.4376531102362204
20
3.4083798425196852
11
0.4354073622047244
21
3.4072570078740156
0
LINE
8
BLACK
6
CONTINUOUS
10
0.4354073622047244
20
3.4072570078740156
11
0.4342845275590551
21
3.4050112598425195
0
LINE
8
BLACK
6
CONTINUOUS
10
0.4342845275590551
20
3.4050112598425195
11
0.4342845275590551
21
3.4045305905511811
0
LINE
8
BLACK
6
CONTINUOUS
10
0.4342845275590551
20
3.4045305905511811
11
0.4354073622047244
21
3.4022848818897637
0
LINE
8
BLACK
6
CONTINUOUS
10
0.4354073622047244
20
3.4022848818897637
11
0.4376531102362204
21
3.4011620078740155
0
LINE
8
BLACK
6
CONTINUOUS
10
0.4376531102362204
20
3.4011620078740155
11
0.4425803543307086
21
3.4011620078740155
0
LINE
8
BLACK
6
CONTINUOUS
10
0.4425803543307086
20
3.4011620078740155
11
0.4431564173228346
21
3.4011052755905511
0
LINE
8
BLACK
6
CONTINUOUS
10
0.4431564173228346
20
3.4011052755905511
11
0.4432544094488189
21
3.40106468503937
0
LINE
8
BLACK
6
CONTINUOUS
10
0.4432544094488189
20
3.40106468503937
11
0.4433602362204724
21
3.4010571653543304
0
LINE
8
BLACK
6
CONTINUOUS
10
0.4433602362204724
20
3.4010571653543304
11
0.4439008661417323
21
3.400850275590551
0
LINE
8
BLACK
6
CONTINUOUS
10
0.4439008661417323
20
3.400850275590551
11
0.4476503937007874
21
3.3989755118110234
0
LINE
8
BLACK
6
CONTINUOUS
10
0.4476503937007874
20
3.3989755118110234
11
0.4477467322834646
21
3.3989148818897639
0
LINE
8
BLACK
6
CONTINUOUS
10
0.4477467322834646
20
3.3989148818897639
11
0.4477921653543307
21
3.3988997244094485
0
LINE
8
BLACK
6
CONTINUOUS
10
0.4477921653543307
20
3.3988997244094485
11
0.4478487007874016
21
3.398850708661417
0
LINE
8
BLACK
6
CONTINUOUS
10
0.4478487007874016
20
3.398850708661417
11
0.4481402755905512
21
3.3986671653543308
0
LINE
8
BLACK
6
CONTINUOUS
10
0.4481402755905512
20
3.3986671653543308
11
0.4483828346456693
21
3.3983874803149607
0
LINE
8
BLACK
6
CONTINUOUS
10
0.4483828346456693
20
3.3983874803149607
11
0.4486625590551181
21
3.3981448818897637
0
LINE
8
BLACK
6
CONTINUOUS
10
0.4486625590551181
20
3.3981448818897637
11
0.448846062992126
21
3.3978533464566927
0
LINE
8
BLACK
6
CONTINUOUS
10
0.448846062992126
20
3.3978533464566927
11
0.4488951181102362
21
3.3977967716535433
0
LINE
8
BLACK
6
CONTINUOUS
10
0.4488951181102362
20
3.3977967716535433
11
0.4489102362204724
21
3.3977513779527557
0
LINE
8
BLACK
6
CONTINUOUS
10
0.4489102362204724
20
3.3977513779527557
11
0.448970905511811
21
3.3976549999999999
0
LINE
8
BLACK
6
CONTINUOUS
10
0.448970905511811
20
3.3976549999999999
11
0.4508456692913386
21
3.3939054724409448
0
LINE
8
BLACK
6
CONTINUOUS
10
0.4508456692913386
20
3.3939054724409448
11
0.4510525590551181
21
3.3933648818897635
0
LINE
8
BLACK
6
CONTINUOUS
10
0.4510525590551181
20
3.3933648818897635
11
0.4510600787401575
21
3.3932590157480313
0
LINE
8
BLACK
6
CONTINUOUS
10
0.4510600787401575
20
3.3932590157480313
11
0.4511006692913386
21
3.3931610236220471
0
LINE
8
BLACK
6
CONTINUOUS
10
0.4511006692913386
20
3.3931610236220471
11
0.4511574015748032
21
3.3925849606299212
0
LINE
8
BLACK
6
CONTINUOUS
10
0.4511574015748032
20
3.3925849606299212
11
0.4511574015748032
21
3.3907101968503937
0
LINE
8
BLACK
6
CONTINUOUS
10
0.4511574015748032
20
3.3907101968503937
11
0.4511006692913386
21
3.3901341338582678
0
LINE
8
BLACK
6
CONTINUOUS
10
0.4511006692913386
20
3.3901341338582678
11
0.4510600393700787
21
3.3900361417322835
0
LINE
8
BLACK
6
CONTINUOUS
10
0.4510600393700787
20
3.3900361417322835
11
0.4510525590551181
21
3.3899303149606297
0
LINE
8
BLACK
6
CONTINUOUS
10
0.4510525590551181
20
3.3899303149606297
11
0.4508456692913386
21
3.3893896850393701
0
LINE
8
BLACK
6
CONTINUOUS
10
0.4508456692913386
20
3.3893896850393701
11
0.448970905511811
21
3.3856401181102362
0
LINE
8
BLACK
6
CONTINUOUS
10
0.448970905511811
20
3.3856401181102362
11
0.4489102362204724
21
3.3855437795275591
0
LINE
8
BLACK
6
CONTINUOUS
10
0.4489102362204724
20
3.3855437795275591
11
0.4488951181102362
21
3.3854983464566928
0
LINE
8
BLACK
6
CONTINUOUS
10
0.4488951181102362
20
3.3854983464566928
11
0.448846062992126
21
3.3854418110236222
0
LINE
8
BLACK
6
CONTINUOUS
10
0.448846062992126
20
3.3854418110236222
11
0.4486625590551181
21
3.3851502362204724
0
LINE
8
BLACK
6
CONTINUOUS
10
0.4486625590551181
20
3.3851502362204724
11
0.4483828346456693
21
3.3849076771653541
0
LINE
8
BLACK
6
CONTINUOUS
10
0.4483828346456693
20
3.3849076771653541
11
0.4481402755905512
21
3.3846279527559053
0
LINE
8
BLACK
6
CONTINUOUS
10
0.4481402755905512
20
3.3846279527559053
11
0.4478487007874016
21
3.3844444488188974
0
LINE
8
BLACK
6
CONTINUOUS
10
0.4478487007874016
20
3.3844444488188974
11
0.4477921653543307
21
3.3843953937007871
0
LINE
8
BLACK
6
CONTINUOUS
10
0.4477921653543307
20
3.3843953937007871
11
0.4477467322834646
21
3.384380275590551
0
LINE
8
BLACK
6
CONTINUOUS
10
0.4477467322834646
20
3.384380275590551
11
0.4476503937007874
21
3.3843196062992127
0
LINE
8
BLACK
6
CONTINUOUS
10
0.4476503937007874
20
3.3843196062992127
11
0.4439008661417323
21
3.3824448425196851
0
LINE
8
BLACK
6
CONTINUOUS
10
0.4439008661417323
20
3.3824448425196851
11
0.4433602362204724
21
3.3822379527559052
0
LINE
8
BLACK
6
CONTINUOUS
10
0.4433602362204724
20
3.3822379527559052
11
0.4432544094488189
21
3.3822304724409449
0
LINE
8
BLACK
6
CONTINUOUS
10
0.4432544094488189
20
3.3822304724409449
11
0.4431564173228346
21
3.382189842519685
0
LINE
8
BLACK
6
CONTINUOUS
10
0.4431564173228346
20
3.382189842519685
11
0.4425803543307086
21
3.3821331102362202
0
LINE
8
BLACK
6
CONTINUOUS
10
0.4425803543307086
20
3.3821331102362202
11
0.4350812992125984
21
3.3821331102362202
0
LINE
8
BLACK
6
CONTINUOUS
10
0.4350812992125984
20
3.3821331102362202
11
0.4345052362204724
21
3.382189842519685
0
LINE
8
BLACK
6
CONTINUOUS
10
0.4345052362204724
20
3.382189842519685
11
0.4344072440944882
21
3.3822304330708661
0
LINE
8
BLACK
6
CONTINUOUS
10
0.4344072440944882
20
3.3822304330708661
11
0.4343013779527559
21
3.3822379527559052
0
LINE
8
BLACK
6
CONTINUOUS
10
0.4343013779527559
20
3.3822379527559052
11
0.4337607874015748
21
3.3824448425196851
0
LINE
8
BLACK
6
CONTINUOUS
10
0.4337607874015748
20
3.3824448425196851
11
0.4300112598425197
21
3.3843196062992127
0
LINE
8
BLACK
6
CONTINUOUS
10
0.4300112598425197
20
3.3843196062992127
11
0.4295213779527559
21
3.3846279527559053
0
LINE
8
BLACK
6
CONTINUOUS
10
0.4295213779527559
20
3.3846279527559053
11
0.4287665354330709
21
3.3854983464566928
0
LINE
8
BLACK
6
CONTINUOUS
10
0.4287665354330709
20
3.3854983464566928
11
0.4284022047244094
21
3.3865912992125984
0
LINE
8
BLACK
6
CONTINUOUS
10
0.4284022047244094
20
3.3865912992125984
11
0.4284838582677165
21
3.3877405118110238
0
LINE
8
BLACK
6
CONTINUOUS
10
0.4284838582677165
20
3.3877405118110238
11
0.428999094488189
21
3.3887710236220472
0
LINE
8
BLACK
6
CONTINUOUS
10
0.428999094488189
20
3.3887710236220472
11
0.4298694881889764
21
3.389525866141732
0
LINE
8
BLACK
6
CONTINUOUS
10
0.4298694881889764
20
3.389525866141732
11
0.4309624409448819
21
3.3898901968503936
0
LINE
8
BLACK
6
CONTINUOUS
10
0.4309624409448819
20
3.3898901968503936
11
0.4321116535433071
21
3.3898085433070864
0
LINE
8
BLACK
6
CONTINUOUS
10
0.4321116535433071
20
3.3898085433070864
11
0.4326522834645669
21
3.3896016535433069
0
LINE
8
BLACK
6
CONTINUOUS
10
0.4326522834645669
20
3.3896016535433069
11
0.4357783464566929
21
3.3880386220472438
0
LINE
8
BLACK
6
CONTINUOUS
10
0.4357783464566929
20
3.3880386220472438
11
0.4418833070866142
21
3.3880386220472438
0
LINE
8
BLACK
6
CONTINUOUS
10
0.4418833070866142
20
3.3880386220472438
11
0.4441290157480315
21
3.3891614960629921
0
LINE
8
BLACK
6
CONTINUOUS
10
0.4441290157480315
20
3.3891614960629921
11
0.4452518897637795
21
3.3914072440944882
0
LINE
8
BLACK
6
CONTINUOUS
10
0.4452518897637795
20
3.3914072440944882
11
0.4452518897637795
21
3.3918879133858266
0
LINE
8
BLACK
6
CONTINUOUS
10
0.4452518897637795
20
3.3918879133858266
11
0.4441290157480315
21
3.3941336614173228
0
LINE
8
BLACK
6
CONTINUOUS
10
0.4441290157480315
20
3.3941336614173228
11
0.4418833070866142
21
3.3952564960629918
0
LINE
8
BLACK
6
CONTINUOUS
10
0.4418833070866142
20
3.3952564960629918
11
0.436956062992126
21
3.3952564960629918
0
LINE
8
BLACK
6
CONTINUOUS
10
0.436956062992126
20
3.3952564960629918
11
0.43638
21
3.3953132283464567
0
LINE
8
BLACK
6
CONTINUOUS
10
0.43638
20
3.3953132283464567
11
0.4362820078740157
21
3.3953538188976378
0
LINE
8
BLACK
6
CONTINUOUS
10
0.4362820078740157
20
3.3953538188976378
11
0.4361761417322835
21
3.3953613385826773
0
LINE
8
BLACK
6
CONTINUOUS
10
0.4361761417322835
20
3.3953613385826773
11
0.4356355511811024
21
3.3955682283464568
0
LINE
8
BLACK
6
CONTINUOUS
10
0.4356355511811024
20
3.3955682283464568
11
0.4318860236220473
21
3.3974429921259843
0
LINE
8
BLACK
6
CONTINUOUS
10
0.4318860236220473
20
3.3974429921259843
11
0.4317896456692913
21
3.3975036614173226
0
LINE
8
BLACK
6
CONTINUOUS
10
0.4317896456692913
20
3.3975036614173226
11
0.4317442519685039
21
3.3975187795275588
0
LINE
8
BLACK
6
CONTINUOUS
10
0.4317442519685039
20
3.3975187795275588
11
0.4316876771653543
21
3.397567834645669
0
LINE
8
BLACK
6
CONTINUOUS
10
0.4316876771653543
20
3.397567834645669
11
0.4313961417322835
21
3.397751338582677
0
LINE
8
BLACK
6
CONTINUOUS
10
0.4313961417322835
20
3.397751338582677
11
0.4311535433070866
21
3.3980310629921258
0
LINE
8
BLACK
6
CONTINUOUS
10
0.4311535433070866
20
3.3980310629921258
11
0.4308738582677165
21
3.398273622047244
0
LINE
8
BLACK
6
CONTINUOUS
10
0.4308738582677165
20
3.398273622047244
11
0.4306903149606299
21
3.3985651968503938
0
LINE
8
BLACK
6
CONTINUOUS
10
0.4306903149606299
20
3.3985651968503938
11
0.4306412992125984
21
3.3986217322834644
0
LINE
8
BLACK
6
CONTINUOUS
10
0.4306412992125984
20
3.3986217322834644
11
0.4306261417322835
21
3.3986671653543308
0
LINE
8
BLACK
6
CONTINUOUS
10
0.4306261417322835
20
3.3986671653543308
11
0.4305655118110236
21
3.3987635039370079
0
LINE
8
BLACK
6
CONTINUOUS
10
0.4305655118110236
20
3.3987635039370079
11
0.428690748031496
21
3.402513031496063
0
LINE
8
BLACK
6
CONTINUOUS
10
0.428690748031496
20
3.402513031496063
11
0.4284838582677165
21
3.4030536614173226
0
LINE
8
BLACK
6
CONTINUOUS
10
0.4284838582677165
20
3.4030536614173226
11
0.4284763385826771
21
3.4031594881889764
0
LINE
8
BLACK
6
CONTINUOUS
10
0.4284763385826771
20
3.4031594881889764
11
0.428435748031496
21
3.4032574803149607
0
LINE
8
BLACK
6
CONTINUOUS
10
0.428435748031496
20
3.4032574803149607
11
0.4283790157480315
21
3.4038335433070865
0
LINE
8
BLACK
6
CONTINUOUS
10
0.4283790157480315
20
3.4038335433070865
11
0.4283790157480315
21
3.4057083070866141
0
LINE
8
BLACK
6
CONTINUOUS
10
0.4283790157480315
20
3.4057083070866141
11
0.428435748031496
21
3.40628437007874
0
LINE
8
BLACK
6
CONTINUOUS
10
0.428435748031496
20
3.40628437007874
11
0.4284763385826771
21
3.406382401574803
0
LINE
8
BLACK
6
CONTINUOUS
10
0.4284763385826771
20
3.406382401574803
11
0.4284838582677165
21
3.4064881889763781
0
LINE
8
BLACK
6
CONTINUOUS
10
0.4284838582677165
20
3.4064881889763781
11
0.428690748031496
21
3.4070288188976376
0
LINE
8
BLACK
6
CONTINUOUS
10
0.428690748031496
20
3.4070288188976376
11
0.4305655118110236
21
3.4107783464566928
0
LINE
8
BLACK
6
CONTINUOUS
10
0.4305655118110236
20
3.4107783464566928
11
0.4306261417322835
21
3.4108747244094486
0
LINE
8
BLACK
6
CONTINUOUS
10
0.4306261417322835
20
3.4108747244094486
11
0.4306412992125984
21
3.4109201181102362
0
LINE
8
BLACK
6
CONTINUOUS
10
0.4306412992125984
20
3.4109201181102362
11
0.4306903149606299
21
3.4109766929133856
0
LINE
8
BLACK
6
CONTINUOUS
10
0.4306903149606299
20
3.4109766929133856
11
0.4308738582677165
21
3.4112682283464566
0
LINE
8
BLACK
6
CONTINUOUS
10
0.4308738582677165
20
3.4112682283464566
11
0.4311535433070866
21
3.4115108267716536
0
LINE
8
BLACK
6
CONTINUOUS
10
0.4311535433070866
20
3.4115108267716536
11
0.4313961417322835
21
3.4117905118110237
0
LINE
8
BLACK
6
CONTINUOUS
10
0.4313961417322835
20
3.4117905118110237
11
0.4316876771653543
21
3.4119740551181104
0
LINE
8
BLACK
6
CONTINUOUS
10
0.4316876771653543
20
3.4119740551181104
11
0.4317442519685039
21
3.4120230708661419
0
LINE
8
BLACK
6
CONTINUOUS
10
0.4317442519685039
20
3.4120230708661419
11
0.4317896456692913
21
3.4120382283464568
0
LINE
8
BLACK
6
CONTINUOUS
10
0.4317896456692913
20
3.4120382283464568
11
0.4318860236220473
21
3.4120988582677163
0
LINE
8
BLACK
6
CONTINUOUS
10
0.4318860236220473
20
3.4120988582677163
11
0.4356355511811024
21
3.4139736220472439
0
LINE
8
BLACK
6
CONTINUOUS
10
0.4356355511811024
20
3.4139736220472439
11
0.4361761417322835
21
3.4141805118110233
0
LINE
8
BLACK
6
CONTINUOUS
10
0.4361761417322835
20
3.4141805118110233
11
0.4362820078740157
21
3.4141880708661416
0
LINE
8
BLACK
6
CONTINUOUS
10
0.4362820078740157
20
3.4141880708661416
11
0.43638
21
3.414228622047244
0
LINE
8
BLACK
6
CONTINUOUS
10
0.43638
20
3.414228622047244
11
0.436956062992126
21
3.4142853543307088
0
LINE
8
BLACK
6
CONTINUOUS
10
0.436956062992126
20
3.4142853543307088
11
0.4425803543307086
21
3.4142853543307088
0
LINE
8
BLACK
6
CONTINUOUS
10
0.4425803543307086
20
3.4142853543307088
11
0.4431564173228346
21
3.414228622047244
0
LINE
8
BLACK
6
CONTINUOUS
10
0.495649842519685
20
3.414228622047244
11
0.4957478346456693
21
3.4141880314960629
0
LINE
8
BLACK
6
CONTINUOUS
10
0.4957478346456693
20
3.4141880314960629
11
0.4958536614173228
21
3.4141805118110233
0
LINE
8
BLACK
6
CONTINUOUS
10
0.4958536614173228
20
3.4141805118110233
11
0.4963942913385826
21
3.4139736220472439
0
LINE
8
BLACK
6
CONTINUOUS
10
0.4963942913385826
20
3.4139736220472439
11
0.5001438188976378
21
3.4120988582677163
0
LINE
8
BLACK
6
CONTINUOUS
10
0.5001438188976378
20
3.4120988582677163
11
0.5003918110236221
21
3.4119427952755905
0
LINE
8
BLACK
6
CONTINUOUS
10
0.5003918110236221
20
3.4119427952755905
11
0.500463779527559
21
3.4119129527559053
0
LINE
8
BLACK
6
CONTINUOUS
10
0.500463779527559
20
3.4119129527559053
11
0.5005447244094489
21
3.4118464960629922
0
LINE
8
BLACK
6
CONTINUOUS
10
0.5005447244094489
20
3.4118464960629922
11
0.5006337007874015
21
3.4117905118110237
0
LINE
8
BLACK
6
CONTINUOUS
10
0.5006337007874015
20
3.4117905118110237
11
0.500684842519685
21
3.4117315354330708
0
LINE
8
BLACK
6
CONTINUOUS
10
0.500684842519685
20
3.4117315354330708
11
0.500911220472441
21
3.4115457480314961
0
LINE
8
BLACK
6
CONTINUOUS
10
0.500911220472441
20
3.4115457480314961
11
0.5027859842519685
21
3.4096709842519686
0
LINE
8
BLACK
6
CONTINUOUS
10
0.5027859842519685
20
3.4096709842519686
11
0.5029717322834646
21
3.4094446456692911
0
LINE
8
BLACK
6
CONTINUOUS
10
0.5029717322834646
20
3.4094446456692911
11
0.5030307480314961
21
3.409393464566929
0
LINE
8
BLACK
6
CONTINUOUS
10
0.5030307480314961
20
3.409393464566929
11
0.5030866929133858
21
3.4093045275590552
0
LINE
8
BLACK
6
CONTINUOUS
10
0.5030866929133858
20
3.4093045275590552
11
0.503153188976378
21
3.4092235433070863
0
LINE
8
BLACK
6
CONTINUOUS
10
0.503153188976378
20
3.4092235433070863
11
0.5031829921259843
21
3.4091516141732283
0
LINE
8
BLACK
6
CONTINUOUS
10
0.5031829921259843
20
3.4091516141732283
11
0.5033390944881889
21
3.4089035826771652
0
LINE
8
BLACK
6
CONTINUOUS
10
0.5033390944881889
20
3.4089035826771652
11
0.5052138582677165
21
3.4051540551181101
0
LINE
8
BLACK
6
CONTINUOUS
10
0.5052138582677165
20
3.4051540551181101
11
0.5054207480314961
21
3.4046134645669293
0
LINE
8
BLACK
6
CONTINUOUS
10
0.5054207480314961
20
3.4046134645669293
11
0.5054282677165354
21
3.4045075984251967
0
LINE
8
BLACK
6
CONTINUOUS
10
0.5054282677165354
20
3.4045075984251967
11
0.5054688582677165
21
3.4044096062992124
0
LINE
8
BLACK
6
CONTINUOUS
10
0.5054688582677165
20
3.4044096062992124
11
0.5055255905511811
21
3.4038335433070865
0
LINE
8
BLACK
6
CONTINUOUS
10
0.5055255905511811
20
3.4038335433070865
11
0.5055255905511811
21
3.3925849606299212
0
LINE
8
BLACK
6
CONTINUOUS
10
0.5055255905511811
20
3.3925849606299212
11
0.5054688582677165
21
3.3920088976377953
0
LINE
8
BLACK
6
CONTINUOUS
10
0.5054688582677165
20
3.3920088976377953
11
0.5054282677165354
21
3.3919109448818898
0
LINE
8
BLACK
6
CONTINUOUS
10
0.5054282677165354
20
3.3919109448818898
11
0.5054207480314961
21
3.3918050393700785
0
LINE
8
BLACK
6
CONTINUOUS
10
0.5054207480314961
20
3.3918050393700785
11
0.5052138582677165
21
3.3912644488188977
0
LINE
8
BLACK
6
CONTINUOUS
10
0.5052138582677165
20
3.3912644488188977
11
0.5033390944881889
21
3.3875149212598425
0
LINE
8
BLACK
6
CONTINUOUS
10
0.5033390944881889
20
3.3875149212598425
11
0.503183031496063
21
3.3872670472440944
0
LINE
8
BLACK
6
CONTINUOUS
10
0.503183031496063
20
3.3872670472440944
11
0.5031532283464567
21
3.3871949999999997
0
LINE
8
BLACK
6
CONTINUOUS
10
0.5031532283464567
20
3.3871949999999997
11
0.5030866929133858
21
3.3871139763779525
0
LINE
8
BLACK
6
CONTINUOUS
10
0.5030866929133858
20
3.3871139763779525
11
0.5030307480314961
21
3.3870250393700787
0
LINE
8
BLACK
6
CONTINUOUS
10
0.5030307480314961
20
3.3870250393700787
11
0.5029717322834646
21
3.386973897637795
0
LINE
8
BLACK
6
CONTINUOUS
10
0.5029717322834646
20
3.386973897637795
11
0.5027859842519685
21
3.3867475196850392
0
LINE
8
BLACK
6
CONTINUOUS
10
0.5027859842519685
20
3.3867475196850392
11
0.5009112598425197
21
3.3848727559055116
0
LINE
8
BLACK
6
CONTINUOUS
10
0.5009112598425197
20
3.3848727559055116
11
0.5006848818897638
21
3.3846870078740157
0
LINE
8
BLACK
6
CONTINUOUS
10
0.5006848818897638
20
3.3846870078740157
11
0.5006337007874015
21
3.3846279527559053
0
LINE
8
BLACK
6
CONTINUOUS
10
0.5006337007874015
20
3.3846279527559053
11
0.5005447244094489
21
3.3845719685039368
0
LINE
8
BLACK
6
CONTINUOUS
10
0.5005447244094489
20
3.3845719685039368
11
0.500463779527559
21
3.3845055118110237
0
LINE
8
BLACK
6
CONTINUOUS
10
0.500463779527559
20
3.3845055118110237
11
0.5003918110236221
21
3.3844757086614172
0
LINE
8
BLACK
6
CONTINUOUS
10
0.5003918110236221
20
3.3844757086614172
11
0.5001438188976378
21
3.3843196062992127
0
LINE
8
BLACK
6
CONTINUOUS
10
0.5001438188976378
20
3.3843196062992127
11
0.4963942913385826
21
3.3824448425196851
0
LINE
8
BLACK
6
CONTINUOUS
10
0.4963942913385826
20
3.3824448425196851
11
0.4958536614173228
21
3.3822379527559052
0
LINE
8
BLACK
6
CONTINUOUS
10
0.4958536614173228
20
3.3822379527559052
11
0.4957478346456693
21
3.3822304724409449
0
LINE
8
BLACK
6
CONTINUOUS
10
0.4957478346456693
20
3.3822304724409449
11
0.495649842519685
21
3.382189842519685
0
LINE
8
BLACK
6
CONTINUOUS
10
0.495649842519685
20
3.382189842519685
11
0.495073779527559
21
3.3821331102362202
0
LINE
8
BLACK
6
CONTINUOUS
10
0.495073779527559
20
3.3821331102362202
11
0.4894494881889764
21
3.3821331102362202
0
LINE
8
BLACK
6
CONTINUOUS
10
0.4894494881889764
20
3.3821331102362202
11
0.4888734251968504
21
3.382189842519685
0
LINE
8
BLACK
6
CONTINUOUS
10
0.4888734251968504
20
3.382189842519685
11
0.4887754330708661
21
3.3822304330708661
0
LINE
8
BLACK
6
CONTINUOUS
10
0.4887754330708661
20
3.3822304330708661
11
0.4886695669291338
21
3.3822379527559052
0
LINE
8
BLACK
6
CONTINUOUS
10
0.4886695669291338
20
3.3822379527559052
11
0.4881289763779528
21
3.3824448425196851
0
LINE
8
BLACK
6
CONTINUOUS
10
0.4881289763779528
20
3.3824448425196851
11
0.4843794488188976
21
3.3843196062992127
0
LINE
8
BLACK
6
CONTINUOUS
10
0.4843794488188976
20
3.3843196062992127
11
0.4841314173228347
21
3.3844757086614172
0
LINE
8
BLACK
6
CONTINUOUS
10
0.4841314173228347
20
3.3844757086614172
11
0.4840594881889764
21
3.3845055118110237
0
LINE
8
BLACK
6
CONTINUOUS
10
0.4840594881889764
20
3.3845055118110237
11
0.4839785039370079
21
3.3845719685039368
0
LINE
8
BLACK
6
CONTINUOUS
10
0.4839785039370079
20
3.3845719685039368
11
0.4838895669291339
21
3.3846279527559053
0
LINE
8
BLACK
6
CONTINUOUS
10
0.4838895669291339
20
3.3846279527559053
11
0.4838383464566929
21
3.3846870078740157
0
LINE
8
BLACK
6
CONTINUOUS
10
0.4838383464566929
20
3.3846870078740157
11
0.4836120078740158
21
3.3848727559055116
0
LINE
8
BLACK
6
CONTINUOUS
10
0.4836120078740158
20
3.3848727559055116
11
0.4817372440944882
21
3.3867475590551179
0
LINE
8
BLACK
6
CONTINUOUS
10
0.4817372440944882
20
3.3867475590551179
11
0.4815514960629921
21
3.386973897637795
0
LINE
8
BLACK
6
CONTINUOUS
10
0.4815514960629921
20
3.386973897637795
11
0.4814925196850394
21
3.3870250393700787
0
LINE
8
BLACK
6
CONTINUOUS
10
0.4814925196850394
20
3.3870250393700787
11
0.4814365354330709
21
3.3871139763779525
0
LINE
8
BLACK
6
CONTINUOUS
10
0.4814365354330709
20
3.3871139763779525
11
0.4813700393700787
21
3.3871949999999997
0
LINE
8
BLACK
6
CONTINUOUS
10
0.4813700393700787
20
3.3871949999999997
11
0.4813401968503937
21
3.3872670472440944
0
LINE
8
BLACK
6
CONTINUOUS
10
0.4813401968503937
20
3.3872670472440944
11
0.4811841732283464
21
3.3875149212598425
0
LINE
8
BLACK
6
CONTINUOUS
10
0.4811841732283464
20
3.3875149212598425
11
0.4793094094488189
21
3.3912644488188977
0
LINE
8
BLACK
6
CONTINUOUS
10
0.4793094094488189
20
3.3912644488188977
11
0.4791025196850394
21
3.3918050787401572
0
LINE
8
BLACK
6
CONTINUOUS
10
0.4791025196850394
20
3.3918050787401572
11
0.479095
21
3.3919109055118111
0
LINE
8
BLACK
6
CONTINUOUS
10
0.479095
20
3.3919109055118111
11
0.4790544094488189
21
3.3920088976377953
0
LINE
8
BLACK
6
CONTINUOUS
10
0.4790544094488189
20
3.3920088976377953
11
0.4789976771653543
21
3.3925849606299212
0
LINE
8
BLACK
6
CONTINUOUS
10
0.4789976771653543
20
3.3925849606299212
11
0.4789976771653543
21
3.4038335433070865
0
LINE
8
BLACK
6
CONTINUOUS
10
0.4789976771653543
20
3.4038335433070865
11
0.4790544094488189
21
3.4044096062992124
0
LINE
8
BLACK
6
CONTINUOUS
10
0.4790544094488189
20
3.4044096062992124
11
0.479095
21
3.4045076377952754
0
LINE
8
BLACK
6
CONTINUOUS
10
0.479095
20
3.4045076377952754
11
0.4791025196850394
21
3.4046134251968505
0
LINE
8
BLACK
6
CONTINUOUS
10
0.4791025196850394
20
3.4046134251968505
11
0.4793094094488189
21
3.4051540551181101
0
LINE
8
BLACK
6
CONTINUOUS
10
0.4793094094488189
20
3.4051540551181101
11
0.4811841732283464
21
3.4089035826771652
0
LINE
8
BLACK
6
CONTINUOUS
10
0.4811841732283464
20
3.4089035826771652
11
0.4813402362204725
21
3.4091516141732283
0
LINE
8
BLACK
6
CONTINUOUS
10
0.4813402362204725
20
3.4091516141732283
11
0.4813700787401575
21
3.4092235433070863
0
LINE
8
BLACK
6
CONTINUOUS
10
0.4813700787401575
20
3.4092235433070863
11
0.4814365354330709
21
3.4093045275590552
0
LINE
8
BLACK
6
CONTINUOUS
10
0.4814365354330709
20
3.4093045275590552
11
0.4814925196850394
21
3.409393464566929
0
LINE
8
BLACK
6
CONTINUOUS
10
0.4814925196850394
20
3.409393464566929
11
0.4815514960629921
21
3.4094446456692911
0
LINE
8
BLACK
6
CONTINUOUS
10
0.4815514960629921
20
3.4094446456692911
11
0.4817372834645669
21
3.4096709842519686
0
LINE
8
BLACK
6
CONTINUOUS
10
0.4817372834645669
20
3.4096709842519686
11
0.4836120472440945
21
3.4115457480314961
0
LINE
8
BLACK
6
CONTINUOUS
10
0.4836120472440945
20
3.4115457480314961
11
0.4838383858267716
21
3.4117315354330708
0
LINE
8
BLACK
6
CONTINUOUS
10
0.4838383858267716
20
3.4117315354330708
11
0.4838895669291339
21
3.4117905118110237
0
LINE
8
BLACK
6
CONTINUOUS
10
0.4838895669291339
20
3.4117905118110237
11
0.4839785039370079
21
3.4118464960629922
0
LINE
8
BLACK
6
CONTINUOUS
10
0.4839785039370079
20
3.4118464960629922
11
0.4840594881889764
21
3.4119129527559053
0
LINE
8
BLACK
6
CONTINUOUS
10
0.4840594881889764
20
3.4119129527559053
11
0.4841314173228347
21
3.4119427952755905
0
LINE
8
BLACK
6
CONTINUOUS
10
0.4841314173228347
20
3.4119427952755905
11
0.4843794488188976
21
3.4120988582677163
0
LINE
8
BLACK
6
CONTINUOUS
10
0.4843794488188976
20
3.4120988582677163
11
0.4881289763779528
21
3.4139736220472439
0
LINE
8
BLACK
6
CONTINUOUS
10
0.4881289763779528
20
3.4139736220472439
11
0.4886695669291338
21
3.4141805118110233
0
LINE
8
BLACK
6
CONTINUOUS
10
0.4886695669291338
20
3.4141805118110233
11
0.4887754330708661
21
3.4141880708661416
0
LINE
8
BLACK
6
CONTINUOUS
10
0.4887754330708661
20
3.4141880708661416
11
0.4888734251968504
21
3.414228622047244
0
LINE
8
BLACK
6
CONTINUOUS
10
0.4888734251968504
20
3.414228622047244
11
0.4894494881889764
21
3.4142853543307088
0
LINE
8
BLACK
6
CONTINUOUS
10
0.4894494881889764
20
3.4142853543307088
11
0.495073779527559
21
3.4142853543307088
0
LINE
8
BLACK
6
CONTINUOUS
10
0.495073779527559
20
3.4142853543307088
11
0.495649842519685
21
3.414228622047244
0
LINE
8
BLACK
6
CONTINUOUS
10
0.4874490551181102
20
3.4070311023622049
11
0.4862519291338582
21
3.4058339763779526
0
LINE
8
BLACK
6
CONTINUOUS
10
0.4862519291338582
20
3.4058339763779526
11
0.484903188976378
21
3.403136496062992
0
LINE
8
BLACK
6
CONTINUOUS
10
0.484903188976378
20
3.403136496062992
11
0.484903188976378
21
3.3932820078740158
0
LINE
8
BLACK
6
CONTINUOUS
10
0.484903188976378
20
3.3932820078740158
11
0.4862519291338582
21
3.3905845275590552
0
LINE
8
BLACK
6
CONTINUOUS
10
0.4862519291338582
20
3.3905845275590552
11
0.4874490551181102
21
3.3893873622047241
0
LINE
8
BLACK
6
CONTINUOUS
10
0.4874490551181102
20
3.3893873622047241
11
0.4901465354330709
21
3.3880386220472438
0
LINE
8
BLACK
6
CONTINUOUS
10
0.4901465354330709
20
3.3880386220472438
11
0.4943767322834646
21
3.3880386220472438
0
LINE
8
BLACK
6
CONTINUOUS
10
0.4943767322834646
20
3.3880386220472438
11
0.4970741732283465
21
3.3893873622047241
0
LINE
8
BLACK
6
CONTINUOUS
10
0.4970741732283465
20
3.3893873622047241
11
0.4982712992125984
21
3.3905845275590552
0
LINE
8
BLACK
6
CONTINUOUS
10
0.4982712992125984
20
3.3905845275590552
11
0.4996200787401575
21
3.3932820078740158
0
LINE
8
BLACK
6
CONTINUOUS
10
0.4996200787401575
20
3.3932820078740158
11
0.4996200787401575
21
3.403136496062992
0
LINE
8
BLACK
6
CONTINUOUS
10
0.4996200787401575
20
3.403136496062992
11
0.4982713385826771
21
3.4058339763779526
0
LINE
8
BLACK
6
CONTINUOUS
10
0.4982713385826771
20
3.4058339763779526
11
0.4970742125984252
21
3.4070311023622049
0
LINE
8
BLACK
6
CONTINUOUS
10
0.4970742125984252
20
3.4070311023622049
11
0.4943767322834646
21
3.4083798425196852
0
LINE
8
BLACK
6
CONTINUOUS
10
0.4943767322834646
20
3.4083798425196852
11
0.4901465354330709
21
3.4083798425196852
0
LINE
8
BLACK
6
CONTINUOUS
10
0.4901465354330709
20
3.4083798425196852
11
0.4874490551181102
21
3.4070311023622049
0
LINE
8
BLACK
6
CONTINUOUS
10
0.5650161811023622
20
3.414228622047244
11
0.5651141732283465
21
3.4141880314960629
0
LINE
8
BLACK
6
CONTINUOUS
10
0.5651141732283465
20
3.4141880314960629
11
0.5652199999999999
21
3.4141805118110233
0
LINE
8
BLACK
6
CONTINUOUS
10
0.5652199999999999
20
3.4141805118110233
11
0.5657606299212599
21
3.4139736220472439
0
LINE
8
BLACK
6
CONTINUOUS
10
0.5657606299212599
20
3.4139736220472439
11
0.569510157480315
21
3.4120988582677163
0
LINE
8
BLACK
6
CONTINUOUS
10
0.569510157480315
20
3.4120988582677163
11
0.5700000393700787
21
3.4117905118110237
0
LINE
8
BLACK
6
CONTINUOUS
10
0.5700000393700787
20
3.4117905118110237
11
0.5707548818897638
21
3.4109201181102362
0
LINE
8
BLACK
6
CONTINUOUS
10
0.5707548818897638
20
3.4109201181102362
11
0.5711192125984251
21
3.4098271653543306
0
LINE
8
BLACK
6
CONTINUOUS
10
0.5711192125984251
20
3.4098271653543306
11
0.5710375590551181
21
3.4086779527559052
0
LINE
8
BLACK
6
CONTINUOUS
10
0.5710375590551181
20
3.4086779527559052
11
0.5705222834645669
21
3.4076474409448818
0
LINE
8
BLACK
6
CONTINUOUS
10
0.5705222834645669
20
3.4076474409448818
11
0.5696519291338582
21
3.406892598425197
0
LINE
8
BLACK
6
CONTINUOUS
10
0.5696519291338582
20
3.406892598425197
11
0.568558937007874
21
3.4065282677165354
0
LINE
8
BLACK
6
CONTINUOUS
10
0.568558937007874
20
3.4065282677165354
11
0.5674097244094488
21
3.4066099212598426
0
LINE
8
BLACK
6
CONTINUOUS
10
0.5674097244094488
20
3.4066099212598426
11
0.5668691338582676
21
3.4068168110236221
0
LINE
8
BLACK
6
CONTINUOUS
10
0.5668691338582676
20
3.4068168110236221
11
0.5637430708661417
21
3.4083798425196852
0
LINE
8
BLACK
6
CONTINUOUS
10
0.5637430708661417
20
3.4083798425196852
11
0.559512874015748
21
3.4083798425196852
0
LINE
8
BLACK
6
CONTINUOUS
10
0.559512874015748
20
3.4083798425196852
11
0.557267125984252
21
3.4072570078740156
0
LINE
8
BLACK
6
CONTINUOUS
10
0.557267125984252
20
3.4072570078740156
11
0.5561442913385827
21
3.4050112598425195
0
LINE
8
BLACK
6
CONTINUOUS
10
0.5561442913385827
20
3.4050112598425195
11
0.5561442913385827
21
3.4045305905511811
0
LINE
8
BLACK
6
CONTINUOUS
10
0.5561442913385827
20
3.4045305905511811
11
0.557267125984252
21
3.4022848818897637
0
LINE
8
BLACK
6
CONTINUOUS
10
0.557267125984252
20
3.4022848818897637
11
0.559512874015748
21
3.4011620078740155
0
LINE
8
BLACK
6
CONTINUOUS
10
0.559512874015748
20
3.4011620078740155
11
0.5644401181102362
21
3.4011620078740155
0
LINE
8
BLACK
6
CONTINUOUS
10
0.5644401181102362
20
3.4011620078740155
11
0.5650161811023622
21
3.4011052755905511
0
LINE
8
BLACK
6
CONTINUOUS
10
0.5650161811023622
20
3.4011052755905511
11
0.5651141732283465
21
3.40106468503937
0
LINE
8
BLACK
6
CONTINUOUS
10
0.5651141732283465
20
3.40106468503937
11
0.5652199999999999
21
3.4010571653543304
0
LINE
8
BLACK
6
CONTINUOUS
10
0.5652199999999999
20
3.4010571653543304
11
0.5657606299212599
21
3.400850275590551
0
LINE
8
BLACK
6
CONTINUOUS
10
0.5657606299212599
20
3.400850275590551
11
0.569510157480315
21
3.3989755118110234
0
LINE
8
BLACK
6
CONTINUOUS
10
0.569510157480315
20
3.3989755118110234
11
0.5696064960629921
21
3.3989148818897639
0
LINE
8
BLACK
6
CONTINUOUS
10
0.5696064960629921
20
3.3989148818897639
11
0.5696519291338582
21
3.3988997244094485
0
LINE
8
BLACK
6
CONTINUOUS
10
0.5696519291338582
20
3.3988997244094485
11
0.5697084645669291
21
3.398850708661417
0
LINE
8
BLACK
6
CONTINUOUS
10
0.5697084645669291
20
3.398850708661417
11
0.5700000393700787
21
3.3986671653543308
0
LINE
8
BLACK
6
CONTINUOUS
10
0.5700000393700787
20
3.3986671653543308
11
0.5702425984251969
21
3.3983874803149607
0
LINE
8
BLACK
6
CONTINUOUS
10
0.5702425984251969
20
3.3983874803149607
11
0.5705223228346457
21
3.3981448818897637
0
LINE
8
BLACK
6
CONTINUOUS
10
0.5705223228346457
20
3.3981448818897637
11
0.5707058267716535
21
3.3978533464566927
0
LINE
8
BLACK
6
CONTINUOUS
10
0.5707058267716535
20
3.3978533464566927
11
0.5707548818897638
21
3.3977967716535433
0
LINE
8
BLACK
6
CONTINUOUS
10
0.5707548818897638
20
3.3977967716535433
11
0.57077
21
3.3977513779527557
0
LINE
8
BLACK
6
CONTINUOUS
10
0.57077
20
3.3977513779527557
11
0.5708306692913385
21
3.3976549999999999
0
LINE
8
BLACK
6
CONTINUOUS
10
0.5708306692913385
20
3.3976549999999999
11
0.5727054330708661
21
3.3939054724409448
0
LINE
8
BLACK
6
CONTINUOUS
10
0.5727054330708661
20
3.3939054724409448
11
0.5729123228346457
21
3.3933648818897635
0
LINE
8
BLACK
6
CONTINUOUS
10
0.5729123228346457
20
3.3933648818897635
11
0.572919842519685
21
3.3932590157480313
0
LINE
8
BLACK
6
CONTINUOUS
10
0.572919842519685
20
3.3932590157480313
11
0.5729604330708661
21
3.3931610236220471
0
LINE
8
BLACK
6
CONTINUOUS
10
0.5729604330708661
20
3.3931610236220471
11
0.5730171653543307
21
3.3925849606299212
0
LINE
8
BLACK
6
CONTINUOUS
10
0.5730171653543307
20
3.3925849606299212
11
0.5730171653543307
21
3.3907101968503937
0
LINE
8
BLACK
6
CONTINUOUS
10
0.5730171653543307
20
3.3907101968503937
11
0.5729604330708661
21
3.3901341338582678
0
LINE
8
BLACK
6
CONTINUOUS
10
0.5729604330708661
20
3.3901341338582678
11
0.5729198031496063
21
3.3900361417322835
0
LINE
8
BLACK
6
CONTINUOUS
10
0.5729198031496063
20
3.3900361417322835
11
0.5729123228346457
21
3.3899303149606297
0
LINE
8
BLACK
6
CONTINUOUS
10
0.5729123228346457
20
3.3899303149606297
11
0.5727054330708661
21
3.3893896850393701
0
LINE
8
BLACK
6
CONTINUOUS
10
0.5727054330708661
20
3.3893896850393701
11
0.5708306692913385
21
3.3856401181102362
0
LINE
8
BLACK
6
CONTINUOUS
10
0.5708306692913385
20
3.3856401181102362
11
0.57077
21
3.3855437795275591
0
LINE
8
BLACK
6
CONTINUOUS
10
0.57077
20
3.3855437795275591
11
0.5707548818897638
21
3.3854983464566928
0
LINE
8
BLACK
6
CONTINUOUS
10
0.5707548818897638
20
3.3854983464566928
11
0.5707058267716535
21
3.3854418110236222
0
LINE
8
BLACK
6
CONTINUOUS
10
0.5707058267716535
20
3.3854418110236222
11
0.5705223228346457
21
3.3851502362204724
0
LINE
8
BLACK
6
CONTINUOUS
10
0.5705223228346457
20
3.3851502362204724
11
0.5702425984251969
21
3.3849076771653541
0
LINE
8
BLACK
6
CONTINUOUS
10
0.5702425984251969
20
3.3849076771653541
11
0.5700000393700787
21
3.3846279527559053
0
LINE
8
BLACK
6
CONTINUOUS
10
0.5700000393700787
20
3.3846279527559053
11
0.5697084645669291
21
3.3844444488188974
0
LINE
8
BLACK
6
CONTINUOUS
10
0.5697084645669291
20
3.3844444488188974
11
0.5696519291338582
21
3.3843953937007871
0
LINE
8
BLACK
6
CONTINUOUS
10
0.5696519291338582
20
3.3843953937007871
11
0.5696064960629921
21
3.384380275590551
0
LINE
8
BLACK
6
CONTINUOUS
10
0.5696064960629921
20
3.384380275590551
11
0.569510157480315
21
3.3843196062992127
0
LINE
8
BLACK
6
CONTINUOUS
10
0.569510157480315
20
3.3843196062992127
11
0.5657606299212599
21
3.3824448425196851
0
LINE
8
BLACK
6
CONTINUOUS
10
0.5657606299212599
20
3.3824448425196851
11
0.5652199999999999
21
3.3822379527559052
0
LINE
8
BLACK
6
CONTINUOUS
10
0.5652199999999999
20
3.3822379527559052
11
0.5651141732283465
21
3.3822304724409449
0
LINE
8
BLACK
6
CONTINUOUS
10
0.5651141732283465
20
3.3822304724409449
11
0.5650161811023622
21
3.382189842519685
0
LINE
8
BLACK
6
CONTINUOUS
10
0.5650161811023622
20
3.382189842519685
11
0.5644401181102362
21
3.3821331102362202
0
LINE
8
BLACK
6
CONTINUOUS
10
0.5644401181102362
20
3.3821331102362202
11
0.556941062992126
21
3.3821331102362202
0
LINE
8
BLACK
6
CONTINUOUS
10
0.556941062992126
20
3.3821331102362202
11
0.556365
21
3.382189842519685
0
LINE
8
BLACK
6
CONTINUOUS
10
0.556365
20
3.382189842519685
11
0.5562670078740157
21
3.3822304330708661
0
LINE
8
BLACK
6
CONTINUOUS
10
0.5562670078740157
20
3.3822304330708661
11
0.5561611417322835
21
3.3822379527559052
0
LINE
8
BLACK
6
CONTINUOUS
10
0.5561611417322835
20
3.3822379527559052
11
0.5556205511811023
21
3.3824448425196851
0
LINE
8
BLACK
6
CONTINUOUS
10
0.5556205511811023
20
3.3824448425196851
11
0.5518710236220472
21
3.3843196062992127
0
LINE
8
BLACK
6
CONTINUOUS
10
0.5518710236220472
20
3.3843196062992127
11
0.5513811417322835
21
3.3846279527559053
0
LINE
8
BLACK
6
CONTINUOUS
10
0.5513811417322835
20
3.3846279527559053
11
0.5506262992125984
21
3.3854983464566928
0
LINE
8
BLACK
6
CONTINUOUS
10
0.5506262992125984
20
3.3854983464566928
11
0.550261968503937
21
3.3865912992125984
0
LINE
8
BLACK
6
CONTINUOUS
10
0.550261968503937
20
3.3865912992125984
11
0.5503436220472441
21
3.3877405118110238
0
LINE
8
BLACK
6
CONTINUOUS
10
0.5503436220472441
20
3.3877405118110238
11
0.5508588582677165
21
3.3887710236220472
0
LINE
8
BLACK
6
CONTINUOUS
10
0.5508588582677165
20
3.3887710236220472
11
0.551729251968504
21
3.389525866141732
0
LINE
8
BLACK
6
CONTINUOUS
10
0.551729251968504
20
3.389525866141732
11
0.5528222047244095
21
3.3898901968503936
0
LINE
8
BLACK
6
CONTINUOUS
10
0.5528222047244095
20
3.3898901968503936
11
0.5539714173228346
21
3.3898085433070864
0
LINE
8
BLACK
6
CONTINUOUS
10
0.5539714173228346
20
3.3898085433070864
11
0.5545120472440945
21
3.3896016535433069
0
LINE
8
BLACK
6
CONTINUOUS
10
0.5545120472440945
20
3.3896016535433069
11
0.5576381102362205
21
3.3880386220472438
0
LINE
8
BLACK
6
CONTINUOUS
10
0.5576381102362205
20
3.3880386220472438
11
0.5637430708661417
21
3.3880386220472438
0
LINE
8
BLACK
6
CONTINUOUS
10
0.5637430708661417
20
3.3880386220472438
11
0.565988779527559
21
3.3891614960629921
0
LINE
8
BLACK
6
CONTINUOUS
10
0.565988779527559
20
3.3891614960629921
11
0.5671116535433071
21
3.3914072440944882
0
LINE
8
BLACK
6
CONTINUOUS
10
0.5671116535433071
20
3.3914072440944882
11
0.5671116535433071
21
3.3918879133858266
0
LINE
8
BLACK
6
CONTINUOUS
10
0.5671116535433071
20
3.3918879133858266
11
0.565988779527559
21
3.3941336614173228
0
LINE
8
BLACK
6
CONTINUOUS
10
0.565988779527559
20
3.3941336614173228
11
0.5637430708661417
21
3.3952564960629918
0
LINE
8
BLACK
6
CONTINUOUS
10
0.5637430708661417
20
3.3952564960629918
11
0.5588158267716535
21
3.3952564960629918
0
LINE
8
BLACK
6
CONTINUOUS
10
0.5588158267716535
20
3.3952564960629918
11
0.5582397637795276
21
3.3953132283464567
0
LINE
8
BLACK
6
CONTINUOUS
10
0.5582397637795276
20
3.3953132283464567
11
0.5581417716535433
21
3.3953538188976378
0
LINE
8
BLACK
6
CONTINUOUS
10
0.5581417716535433
20
3.3953538188976378
11
0.558035905511811
21
3.3953613385826773
0
LINE
8
BLACK
6
CONTINUOUS
10
0.558035905511811
20
3.3953613385826773
11
0.5574953149606299
21
3.3955682283464568
0
LINE
8
BLACK
6
CONTINUOUS
10
0.5574953149606299
20
3.3955682283464568
11
0.5537457874015748
21
3.3974429921259843
0
LINE
8
BLACK
6
CONTINUOUS
10
0.5537457874015748
20
3.3974429921259843
11
0.5536494094488189
21
3.3975036614173226
0
LINE
8
BLACK
6
CONTINUOUS
10
0.5536494094488189
20
3.3975036614173226
11
0.5536040157480315
21
3.3975187795275588
0
LINE
8
BLACK
6
CONTINUOUS
10
0.5536040157480315
20
3.3975187795275588
11
0.5535474409448818
21
3.397567834645669
0
LINE
8
BLACK
6
CONTINUOUS
10
0.5535474409448818
20
3.397567834645669
11
0.553255905511811
21
3.397751338582677
0
LINE
8
BLACK
6
CONTINUOUS
10
0.553255905511811
20
3.397751338582677
11
0.5530133070866141
21
3.3980310629921258
0
LINE
8
BLACK
6
CONTINUOUS
10
0.5530133070866141
20
3.3980310629921258
11
0.5527336220472441
21
3.398273622047244
0
LINE
8
BLACK
6
CONTINUOUS
10
0.5527336220472441
20
3.398273622047244
11
0.5525500787401575
21
3.3985651968503938
0
LINE
8
BLACK
6
CONTINUOUS
10
0.5525500787401575
20
3.3985651968503938
11
0.552501062992126
21
3.3986217322834644
0
LINE
8
BLACK
6
CONTINUOUS
10
0.552501062992126
20
3.3986217322834644
11
0.552485905511811
21
3.3986671653543308
0
LINE
8
BLACK
6
CONTINUOUS
10
0.552485905511811
20
3.3986671653543308
11
0.5524252755905512
21
3.3987635039370079
0
LINE
8
BLACK
6
CONTINUOUS
10
0.5524252755905512
20
3.3987635039370079
11
0.5505505118110237
21
3.402513031496063
0
LINE
8
BLACK
6
CONTINUOUS
10
0.5505505118110237
20
3.402513031496063
11
0.5503436220472441
21
3.4030536614173226
0
LINE
8
BLACK
6
CONTINUOUS
10
0.5503436220472441
20
3.4030536614173226
11
0.5503361023622048
21
3.4031594881889764
0
LINE
8
BLACK
6
CONTINUOUS
10
0.5503361023622048
20
3.4031594881889764
11
0.5502955118110237
21
3.4032574803149607
0
LINE
8
BLACK
6
CONTINUOUS
10
0.5502955118110237
20
3.4032574803149607
11
0.5502387795275591
21
3.4038335433070865
0
LINE
8
BLACK
6
CONTINUOUS
10
0.5502387795275591
20
3.4038335433070865
11
0.5502387795275591
21
3.4057083070866141
0
LINE
8
BLACK
6
CONTINUOUS
10
0.5502387795275591
20
3.4057083070866141
11
0.5502955118110237
21
3.40628437007874
0
LINE
8
BLACK
6
CONTINUOUS
10
0.5502955118110237
20
3.40628437007874
11
0.5503361023622048
21
3.406382401574803
0
LINE
8
BLACK
6
CONTINUOUS
10
0.5503361023622048
20
3.406382401574803
11
0.5503436220472441
21
3.4064881889763781
0
LINE
8
BLACK
6
CONTINUOUS
10
0.5503436220472441
20
3.4064881889763781
11
0.5505505118110237
21
3.4070288188976376
0
LINE
8
BLACK
6
CONTINUOUS
10
0.5505505118110237
20
3.4070288188976376
11
0.5524252755905512
21
3.4107783464566928
0
LINE
8
BLACK
6
CONTINUOUS
10
0.5524252755905512
20
3.4107783464566928
11
0.552485905511811
21
3.4108747244094486
0
LINE
8
BLACK
6
CONTINUOUS
10
0.552485905511811
20
3.4108747244094486
11
0.552501062992126
21
3.4109201181102362
0
LINE
8
BLACK
6
CONTINUOUS
10
0.552501062992126
20
3.4109201181102362
11
0.5525500787401575
21
3.4109766929133856
0
LINE
8
BLACK
6
CONTINUOUS
10
0.5525500787401575
20
3.4109766929133856
11
0.5527336220472441
21
3.4112682283464566
0
LINE
8
BLACK
6
CONTINUOUS
10
0.5527336220472441
20
3.4112682283464566
11
0.5530133070866141
21
3.4115108267716536
0
LINE
8
BLACK
6
CONTINUOUS
10
0.5530133070866141
20
3.4115108267716536
11
0.553255905511811
21
3.4117905118110237
0
LINE
8
BLACK
6
CONTINUOUS
10
0.553255905511811
20
3.4117905118110237
11
0.5535474409448818
21
3.4119740551181104
0
LINE
8
BLACK
6
CONTINUOUS
10
0.5535474409448818
20
3.4119740551181104
11
0.5536040157480315
21
3.4120230708661419
0
LINE
8
BLACK
6
CONTINUOUS
10
0.5536040157480315
20
3.4120230708661419
11
0.5536494094488189
21
3.4120382283464568
0
LINE
8
BLACK
6
CONTINUOUS
10
0.5536494094488189
20
3.4120382283464568
11
0.5537457874015748
21
3.4120988582677163
0
LINE
8
BLACK
6
CONTINUOUS
10
0.5537457874015748
20
3.4120988582677163
11
0.5574953149606299
21
3.4139736220472439
0
LINE
8
BLACK
6
CONTINUOUS
10
0.5574953149606299
20
3.4139736220472439
11
0.558035905511811
21
3.4141805118110233
0
LINE
8
BLACK
6
CONTINUOUS
10
0.558035905511811
20
3.4141805118110233
11
0.5581417716535433
21
3.4141880708661416
0
LINE
8
BLACK
6
CONTINUOUS
10
0.5581417716535433
20
3.4141880708661416
11
0.5582397637795276
21
3.414228622047244
0
LINE
8
BLACK
6
CONTINUOUS
10
0.5582397637795276
20
3.414228622047244
11
0.5588158267716535
21
3.4142853543307088
0
LINE
8
BLACK
6
CONTINUOUS
10
0.5588158267716535
20
3.4142853543307088
11
0.5644401181102362
21
3.4142853543307088
0
LINE
8
BLACK
6
CONTINUOUS
10
0.5644401181102362
20
3.4142853543307088
11
0.5650161811023622
21
3.414228622047244
0
LINE
8
BLACK
6
CONTINUOUS
10
0.1742545669291339
20
3.4269110629921258
11
0.1750692125984252
21
3.4260964173228348
0
LINE
8
BLACK
6
CONTINUOUS
10
0.1750692125984252
20
3.4260964173228348
11
0.1755101181102362
21
3.4250320078740155
0
LINE
8
BLACK
6
CONTINUOUS
10
0.1755101181102362
20
3.4250320078740155
11
0.1755668503937008
21
3.4244559448818896
0
LINE
8
BLACK
6
CONTINUOUS
10
0.1755668503937008
20
3.4244559448818896
11
0.1755668503937008
21
3.3914072440944882
0
LINE
8
BLACK
6
CONTINUOUS
10
0.1755668503937008
20
3.3914072440944882
11
0.1766896850393701
21
3.3891614960629921
0
LINE
8
BLACK
6
CONTINUOUS
10
0.1766896850393701
20
3.3891614960629921
11
0.1795588976377953
21
3.3877268897637793
0
LINE
8
BLACK
6
CONTINUOUS
10
0.1795588976377953
20
3.3877268897637793
11
0.180048779527559
21
3.3874185433070867
0
LINE
8
BLACK
6
CONTINUOUS
10
0.180048779527559
20
3.3874185433070867
11
0.1808036220472441
21
3.3865481496062992
0
LINE
8
BLACK
6
CONTINUOUS
10
0.1808036220472441
20
3.3865481496062992
11
0.1811679527559055
21
3.3854551968503936
0
LINE
8
BLACK
6
CONTINUOUS
10
0.1811679527559055
20
3.3854551968503936
11
0.1810862992125984
21
3.3843059842519683
0
LINE
8
BLACK
6
CONTINUOUS
10
0.1810862992125984
20
3.3843059842519683
11
0.1805710236220472
21
3.3832754724409448
0
LINE
8
BLACK
6
CONTINUOUS
10
0.1805710236220472
20
3.3832754724409448
11
0.1797006692913386
21
3.3825206299212596
0
LINE
8
BLACK
6
CONTINUOUS
10
0.1797006692913386
20
3.3825206299212596
11
0.1786076771653543
21
3.3821562992125984
0
LINE
8
BLACK
6
CONTINUOUS
10
0.1786076771653543
20
3.3821562992125984
11
0.1774584645669291
21
3.3822379527559052
0
LINE
8
BLACK
6
CONTINUOUS
10
0.1774584645669291
20
3.3822379527559052
11
0.176917874015748
21
3.3824448425196851
0
LINE
8
BLACK
6
CONTINUOUS
10
0.176917874015748
20
3.3824448425196851
11
0.1731683464566929
21
3.3843196062992127
0
LINE
8
BLACK
6
CONTINUOUS
10
0.1731683464566929
20
3.3843196062992127
11
0.173071968503937
21
3.384380275590551
0
LINE
8
BLACK
6
CONTINUOUS
10
0.173071968503937
20
3.384380275590551
11
0.1730265748031496
21
3.3843953937007871
0
LINE
8
BLACK
6
CONTINUOUS
10
0.1730265748031496
20
3.3843953937007871
11
0.17297
21
3.3844444488188974
0
LINE
8
BLACK
6
CONTINUOUS
10
0.17297
20
3.3844444488188974
11
0.1726784645669291
21
3.3846279527559053
0
LINE
8
BLACK
6
CONTINUOUS
10
0.1726784645669291
20
3.3846279527559053
11
0.1724357874015748
21
3.3849077952755904
0
LINE
8
BLACK
6
CONTINUOUS
10
0.1724357874015748
20
3.3849077952755904
11
0.1721561811023622
21
3.3851502755905511
0
LINE
8
BLACK
6
CONTINUOUS
10
0.1721561811023622
20
3.3851502755905511
11
0.1719726771653543
21
3.3854417716535434
0
LINE
8
BLACK
6
CONTINUOUS
10
0.1719726771653543
20
3.3854417716535434
11
0.1719236220472441
21
3.3854983464566928
0
LINE
8
BLACK
6
CONTINUOUS
10
0.1719236220472441
20
3.3854983464566928
11
0.1719084645669291
21
3.3855438188976379
0
LINE
8
BLACK
6
CONTINUOUS
10
0.1719084645669291
20
3.3855438188976379
11
0.1718478346456693
21
3.3856401181102362
0
LINE
8
BLACK
6
CONTINUOUS
10
0.1718478346456693
20
3.3856401181102362
11
0.1699730708661417
21
3.3893896850393701
0
LINE
8
BLACK
6
CONTINUOUS
10
0.1699730708661417
20
3.3893896850393701
11
0.1697661811023622
21
3.3899303149606297
0
LINE
8
BLACK
6
CONTINUOUS
10
0.1697661811023622
20
3.3899303149606297
11
0.1697586614173228
21
3.3900361417322835
0
LINE
8
BLACK
6
CONTINUOUS
10
0.1697586614173228
20
3.3900361417322835
11
0.1697180708661417
21
3.3901341338582678
0
LINE
8
BLACK
6
CONTINUOUS
10
0.1697180708661417
20
3.3901341338582678
11
0.1696613385826772
21
3.3907101968503937
0
LINE
8
BLACK
6
CONTINUOUS
10
0.1696613385826772
20
3.3907101968503937
11
0.1696613385826772
21
3.4244559448818896
0
LINE
8
BLACK
6
CONTINUOUS
10
0.1696613385826772
20
3.4244559448818896
11
0.1697180708661417
21
3.4250320078740155
0
LINE
8
BLACK
6
CONTINUOUS
10
0.1697180708661417
20
3.4250320078740155
11
0.1701589763779527
21
3.4260964173228348
0
LINE
8
BLACK
6
CONTINUOUS
10
0.1701589763779527
20
3.4260964173228348
11
0.1709736220472441
21
3.4269110629921258
0
LINE
8
BLACK
6
CONTINUOUS
10
0.1709736220472441
20
3.4269110629921258
11
0.172038031496063
21
3.4273519685039369
0
LINE
8
BLACK
6
CONTINUOUS
10
0.172038031496063
20
3.4273519685039369
11
0.173190157480315
21
3.4273519685039369
0
LINE
8
BLACK
6
CONTINUOUS
10
0.173190157480315
20
3.4273519685039369
11
0.1742545669291339
21
3.4269110629921258
0
LINE
8
BLACK
6
CONTINUOUS
10
0.0250836614173228
20
3.414228622047244
11
0.0251816535433071
21
3.4141880314960629
0
LINE
8
BLACK
6
CONTINUOUS
10
0.0251816535433071
20
3.4141880314960629
11
0.0252874803149606
21
3.4141805118110233
0
LINE
8
BLACK
6
CONTINUOUS
10
0.0252874803149606
20
3.4141805118110233
11
0.0258281102362205
21
3.4139736220472439
0
LINE
8
BLACK
6
CONTINUOUS
10
0.0258281102362205
20
3.4139736220472439
11
0.0295776377952756
21
3.4120988582677163
0
LINE
8
BLACK
6
CONTINUOUS
10
0.0295776377952756
20
3.4120988582677163
11
0.0296739763779528
21
3.4120382283464568
0
LINE
8
BLACK
6
CONTINUOUS
10
0.0296739763779528
20
3.4120382283464568
11
0.0297194094488189
21
3.4120230708661419
0
LINE
8
BLACK
6
CONTINUOUS
10
0.0297194094488189
20
3.4120230708661419
11
0.0297759448818898
21
3.4119740551181104
0
LINE
8
BLACK
6
CONTINUOUS
10
0.0297759448818898
20
3.4119740551181104
11
0.0300675196850394
21
3.4117905118110237
0
LINE
8
BLACK
6
CONTINUOUS
10
0.0300675196850394
20
3.4117905118110237
11
0.0301318897637795
21
3.4117162992125984
0
LINE
8
BLACK
6
CONTINUOUS
10
0.0301318897637795
20
3.4117162992125984
11
0.0301962598425197
21
3.4117905118110237
0
LINE
8
BLACK
6
CONTINUOUS
10
0.0301962598425197
20
3.4117905118110237
11
0.0304877952755906
21
3.4119740551181104
0
LINE
8
BLACK
6
CONTINUOUS
10
0.0304877952755906
20
3.4119740551181104
11
0.0305443700787402
21
3.4120230708661419
0
LINE
8
BLACK
6
CONTINUOUS
10
0.0305443700787402
20
3.4120230708661419
11
0.0305897637795276
21
3.4120382283464568
0
LINE
8
BLACK
6
CONTINUOUS
10
0.0305897637795276
20
3.4120382283464568
11
0.0306861417322835
21
3.4120988582677163
0
LINE
8
BLACK
6
CONTINUOUS
10
0.0306861417322835
20
3.4120988582677163
11
0.0344356692913386
21
3.4139736220472439
0
LINE
8
BLACK
6
CONTINUOUS
10
0.0344356692913386
20
3.4139736220472439
11
0.0349762598425197
21
3.4141805118110233
0
LINE
8
BLACK
6
CONTINUOUS
10
0.0349762598425197
20
3.4141805118110233
11
0.035082125984252
21
3.4141880708661416
0
LINE
8
BLACK
6
CONTINUOUS
10
0.035082125984252
20
3.4141880708661416
11
0.0351801181102362
21
3.414228622047244
0
LINE
8
BLACK
6
CONTINUOUS
10
0.0351801181102362
20
3.414228622047244
11
0.0357561811023622
21
3.4142853543307088
0
LINE
8
BLACK
6
CONTINUOUS
10
0.0357561811023622
20
3.4142853543307088
11
0.0413804724409449
21
3.4142853543307088
0
LINE
8
BLACK
6
CONTINUOUS
10
0.0413804724409449
20
3.4142853543307088
11
0.0419565354330709
21
3.414228622047244
0
LINE
8
BLACK
6
CONTINUOUS
10
0.0419565354330709
20
3.414228622047244
11
0.0420545275590551
21
3.4141880314960629
0
LINE
8
BLACK
6
CONTINUOUS
10
0.0420545275590551
20
3.4141880314960629
11
0.0421603543307087
21
3.4141805118110233
0
LINE
8
BLACK
6
CONTINUOUS
10
0.0421603543307087
20
3.4141805118110233
11
0.0427009842519685
21
3.4139736220472439
0
LINE
8
BLACK
6
CONTINUOUS
10
0.0427009842519685
20
3.4139736220472439
11
0.0464505511811024
21
3.4120988582677163
0
LINE
8
BLACK
6
CONTINUOUS
10
0.0464505511811024
20
3.4120988582677163
11
0.0465468503937008
21
3.4120382283464568
0
LINE
8
BLACK
6
CONTINUOUS
10
0.0465468503937008
20
3.4120382283464568
11
0.0465923228346457
21
3.4120230708661419
0
LINE
8
BLACK
6
CONTINUOUS
10
0.0465923228346457
20
3.4120230708661419
11
0.0466488976377953
21
3.4119740157480316
0
LINE
8
BLACK
6
CONTINUOUS
10
0.0466488976377953
20
3.4119740157480316
11
0.0469403937007874
21
3.4117905118110237
0
LINE
8
BLACK
6
CONTINUOUS
10
0.0469403937007874
20
3.4117905118110237
11
0.047182874015748
21
3.4115109055118111
0
LINE
8
BLACK
6
CONTINUOUS
10
0.047182874015748
20
3.4115109055118111
11
0.0474627165354331
21
3.4112682283464566
0
LINE
8
BLACK
6
CONTINUOUS
10
0.0474627165354331
20
3.4112682283464566
11
0.0476462204724409
21
3.4109766929133856
0
LINE
8
BLACK
6
CONTINUOUS
10
0.0476462204724409
20
3.4109766929133856
11
0.0476952755905512
21
3.4109201181102362
0
LINE
8
BLACK
6
CONTINUOUS
10
0.0476952755905512
20
3.4109201181102362
11
0.0477103937007874
21
3.4108747244094486
0
LINE
8
BLACK
6
CONTINUOUS
10
0.0477103937007874
20
3.4108747244094486
11
0.047771062992126
21
3.4107783464566928
0
LINE
8
BLACK
6
CONTINUOUS
10
0.047771062992126
20
3.4107783464566928
11
0.0496458267716535
21
3.4070288188976376
0
LINE
8
BLACK
6
CONTINUOUS
10
0.0496458267716535
20
3.4070288188976376
11
0.0498527165354331
21
3.4064882283464568
0
LINE
8
BLACK
6
CONTINUOUS
10
0.0498527165354331
20
3.4064882283464568
11
0.0498602362204724
21
3.4063823622047242
0
LINE
8
BLACK
6
CONTINUOUS
10
0.0498602362204724
20
3.4063823622047242
11
0.0499008267716535
21
3.40628437007874
0
LINE
8
BLACK
6
CONTINUOUS
10
0.0499008267716535
20
3.40628437007874
11
0.0499575590551181
21
3.4057083070866141
0
LINE
8
BLACK
6
CONTINUOUS
10
0.0499575590551181
20
3.4057083070866141
11
0.0499575590551181
21
3.3850858661417322
0
LINE
8
BLACK
6
CONTINUOUS
10
0.0499575590551181
20
3.3850858661417322
11
0.0499008267716535
21
3.3845098031496064
0
LINE
8
BLACK
6
CONTINUOUS
10
0.0499008267716535
20
3.3845098031496064
11
0.0494599212598425
21
3.3834453937007871
0
LINE
8
BLACK
6
CONTINUOUS
10
0.0494599212598425
20
3.3834453937007871
11
0.0486452755905512
21
3.3826307480314961
0
LINE
8
BLACK
6
CONTINUOUS
10
0.0486452755905512
20
3.3826307480314961
11
0.0475808661417323
21
3.382189842519685
0
LINE
8
BLACK
6
CONTINUOUS
10
0.0475808661417323
20
3.382189842519685
11
0.0464287401574803
21
3.382189842519685
0
LINE
8
BLACK
6
CONTINUOUS
10
0.0464287401574803
20
3.382189842519685
11
0.0453643307086614
21
3.3826307480314961
0
LINE
8
BLACK
6
CONTINUOUS
10
0.0453643307086614
20
3.3826307480314961
11
0.0445496850393701
21
3.3834453937007871
0
LINE
8
BLACK
6
CONTINUOUS
10
0.0445496850393701
20
3.3834453937007871
11
0.0441087795275591
21
3.3845098031496064
0
LINE
8
BLACK
6
CONTINUOUS
10
0.0441087795275591
20
3.3845098031496064
11
0.0440520472440945
21
3.3850858661417322
0
LINE
8
BLACK
6
CONTINUOUS
10
0.0440520472440945
20
3.3850858661417322
11
0.0440520472440945
21
3.4050112598425195
0
LINE
8
BLACK
6
CONTINUOUS
10
0.0440520472440945
20
3.4050112598425195
11
0.0429291732283465
21
3.4072570078740156
0
LINE
8
BLACK
6
CONTINUOUS
10
0.0429291732283465
20
3.4072570078740156
11
0.0406834251968504
21
3.4083798425196852
0
LINE
8
BLACK
6
CONTINUOUS
10
0.0406834251968504
20
3.4083798425196852
11
0.0364532283464567
21
3.4083798425196852
0
LINE
8
BLACK
6
CONTINUOUS
10
0.0364532283464567
20
3.4083798425196852
11
0.0342074803149606
21
3.4072570078740156
0
LINE
8
BLACK
6
CONTINUOUS
10
0.0342074803149606
20
3.4072570078740156
11
0.0330846456692913
21
3.4050112598425195
0
LINE
8
BLACK
6
CONTINUOUS
10
0.0330846456692913
20
3.4050112598425195
11
0.0330846456692913
21
3.3850858661417322
0
LINE
8
BLACK
6
CONTINUOUS
10
0.0330846456692913
20
3.3850858661417322
11
0.0330279133858268
21
3.3845098031496064
0
LINE
8
BLACK
6
CONTINUOUS
10
0.0330279133858268
20
3.3845098031496064
11
0.0325870078740157
21
3.3834453937007871
0
LINE
8
BLACK
6
CONTINUOUS
10
0.0325870078740157
20
3.3834453937007871
11
0.0317723622047244
21
3.3826307480314961
0
LINE
8
BLACK
6
CONTINUOUS
10
0.0317723622047244
20
3.3826307480314961
11
0.0307079527559055
21
3.382189842519685
0
LINE
8
BLACK
6
CONTINUOUS
10
0.0307079527559055
20
3.382189842519685
11
0.0295558267716535
21
3.382189842519685
0
LINE
8
BLACK
6
CONTINUOUS
10
0.0295558267716535
20
3.382189842519685
11
0.0284914173228346
21
3.3826307480314961
0
LINE
8
BLACK
6
CONTINUOUS
10
0.0284914173228346
20
3.3826307480314961
11
0.0276767716535433
21
3.3834453937007871
0
LINE
8
BLACK
6
CONTINUOUS
10
0.0276767716535433
20
3.3834453937007871
11
0.0272358661417323
21
3.3845098031496064
0
LINE
8
BLACK
6
CONTINUOUS
10
0.0272358661417323
20
3.3845098031496064
11
0.0271791338582677
21
3.3850858661417322
0
LINE
8
BLACK
6
CONTINUOUS
10
0.0271791338582677
20
3.3850858661417322
11
0.0271791338582677
21
3.4050112598425195
0
LINE
8
BLACK
6
CONTINUOUS
10
0.0271791338582677
20
3.4050112598425195
11
0.0260562598425197
21
3.4072570078740156
0
LINE
8
BLACK
6
CONTINUOUS
10
0.0260562598425197
20
3.4072570078740156
11
0.0238105511811024
21
3.4083798425196852
0
LINE
8
BLACK
6
CONTINUOUS
10
0.0238105511811024
20
3.4083798425196852
11
0.0195803543307087
21
3.4083798425196852
0
LINE
8
BLACK
6
CONTINUOUS
10
0.0195803543307087
20
3.4083798425196852
11
0.016882874015748
21
3.4070311023622049
0
LINE
8
BLACK
6
CONTINUOUS
10
0.016882874015748
20
3.4070311023622049
11
0.0162117716535433
21
3.4063599999999998
0
LINE
8
BLACK
6
CONTINUOUS
10
0.0162117716535433
20
3.4063599999999998
11
0.0162117716535433
21
3.3850858661417322
0
LINE
8
BLACK
6
CONTINUOUS
10
0.0162117716535433
20
3.3850858661417322
11
0.0161550393700787
21
3.3845098031496064
0
LINE
8
BLACK
6
CONTINUOUS
10
0.0161550393700787
20
3.3845098031496064
11
0.0157141338582677
21
3.3834453937007871
0
LINE
8
BLACK
6
CONTINUOUS
10
0.0157141338582677
20
3.3834453937007871
11
0.0148994881889764
21
3.3826307480314961
0
LINE
8
BLACK
6
CONTINUOUS
10
0.0148994881889764
20
3.3826307480314961
11
0.0138350787401575
21
3.382189842519685
0
LINE
8
BLACK
6
CONTINUOUS
10
0.0138350787401575
20
3.382189842519685
11
0.0126829527559055
21
3.382189842519685
0
LINE
8
BLACK
6
CONTINUOUS
10
0.0126829527559055
20
3.382189842519685
11
0.0116185433070866
21
3.3826307480314961
0
LINE
8
BLACK
6
CONTINUOUS
10
0.0116185433070866
20
3.3826307480314961
11
0.0108038976377953
21
3.3834453937007871
0
LINE
8
BLACK
6
CONTINUOUS
10
0.0108038976377953
20
3.3834453937007871
11
0.0103629921259843
21
3.3845098031496064
0
LINE
8
BLACK
6
CONTINUOUS
10
0.0103629921259843
20
3.3845098031496064
11
0.0103062598425197
21
3.3850858661417322
0
LINE
8
BLACK
6
CONTINUOUS
10
0.0103062598425197
20
3.3850858661417322
11
0.0103062598425197
21
3.4113325984251968
0
LINE
8
BLACK
6
CONTINUOUS
10
0.0103062598425197
20
3.4113325984251968
11
0.0103629921259843
21
3.4119086614173226
0
LINE
8
BLACK
6
CONTINUOUS
10
0.0103629921259843
20
3.4119086614173226
11
0.0108038976377953
21
3.4129730708661414
0
LINE
8
BLACK
6
CONTINUOUS
10
0.0108038976377953
20
3.4129730708661414
11
0.0116185433070866
21
3.4137877165354329
0
LINE
8
BLACK
6
CONTINUOUS
10
0.0116185433070866
20
3.4137877165354329
11
0.0126829527559055
21
3.414228622047244
0
LINE
8
BLACK
6
CONTINUOUS
10
0.0126829527559055
20
3.414228622047244
11
0.0138350787401575
21
3.414228622047244
0
LINE
8
BLACK
6
CONTINUOUS
10
0.0138350787401575
20
3.414228622047244
11
0.0148994881889764
21
3.4137877165354329
0
LINE
8
BLACK
6
CONTINUOUS
10
0.0148994881889764
20
3.4137877165354329
11
0.0156633070866142
21
3.4130238976377951
0
LINE
8
BLACK
6
CONTINUOUS
10
0.0156633070866142
20
3.4130238976377951
11
0.0175627952755905
21
3.4139736220472439
0
LINE
8
BLACK
6
CONTINUOUS
10
0.0175627952755905
20
3.4139736220472439
11
0.0181033858267717
21
3.4141805118110233
0
LINE
8
BLACK
6
CONTINUOUS
10
0.0181033858267717
20
3.4141805118110233
11
0.0182092519685039
21
3.4141880708661416
0
LINE
8
BLACK
6
CONTINUOUS
10
0.0182092519685039
20
3.4141880708661416
11
0.0183072440944882
21
3.414228622047244
0
LINE
8
BLACK
6
CONTINUOUS
10
0.0183072440944882
20
3.414228622047244
11
0.0188833070866142
21
3.4142853543307088
0
LINE
8
BLACK
6
CONTINUOUS
10
0.0188833070866142
20
3.4142853543307088
11
0.0245075984251968
21
3.4142853543307088
0
LINE
8
BLACK
6
CONTINUOUS
10
0.0245075984251968
20
3.4142853543307088
11
0.0250836614173228
21
3.414228622047244
0
LINE
8
BLACK
6
CONTINUOUS
10
0.2942396062992126
20
3.4137877165354329
11
0.2950542519685039
21
3.4129730708661414
0
LINE
8
BLACK
6
CONTINUOUS
10
0.2950542519685039
20
3.4129730708661414
11
0.295495157480315
21
3.4119086614173226
0
LINE
8
BLACK
6
CONTINUOUS
10
0.295495157480315
20
3.4119086614173226
11
0.2955518897637795
21
3.4113325984251968
0
LINE
8
BLACK
6
CONTINUOUS
10
0.2955518897637795
20
3.4113325984251968
11
0.2955518897637795
21
3.3850858661417322
0
LINE
8
BLACK
6
CONTINUOUS
10
0.2955518897637795
20
3.3850858661417322
11
0.295495157480315
21
3.3845098031496064
0
LINE
8
BLACK
6
CONTINUOUS
10
0.295495157480315
20
3.3845098031496064
11
0.2950542519685039
21
3.3834453937007871
0
LINE
8
BLACK
6
CONTINUOUS
10
0.2950542519685039
20
3.3834453937007871
11
0.2942396062992126
21
3.3826307480314961
0
LINE
8
BLACK
6
CONTINUOUS
10
0.2942396062992126
20
3.3826307480314961
11
0.2931751968503937
21
3.382189842519685
0
LINE
8
BLACK
6
CONTINUOUS
10
0.2931751968503937
20
3.382189842519685
11
0.2920230708661417
21
3.382189842519685
0
LINE
8
BLACK
6
CONTINUOUS
10
0.2920230708661417
20
3.382189842519685
11
0.2909586614173229
21
3.3826307480314961
0
LINE
8
BLACK
6
CONTINUOUS
10
0.2909586614173229
20
3.3826307480314961
11
0.2901440157480315
21
3.3834453937007871
0
LINE
8
BLACK
6
CONTINUOUS
10
0.2901440157480315
20
3.3834453937007871
11
0.2897031102362205
21
3.3845098031496064
0
LINE
8
BLACK
6
CONTINUOUS
10
0.2897031102362205
20
3.3845098031496064
11
0.2896463779527559
21
3.3850858661417322
0
LINE
8
BLACK
6
CONTINUOUS
10
0.2896463779527559
20
3.3850858661417322
11
0.2896463779527559
21
3.4113325984251968
0
LINE
8
BLACK
6
CONTINUOUS
10
0.2896463779527559
20
3.4113325984251968
11
0.2897031102362205
21
3.4119086614173226
0
LINE
8
BLACK
6
CONTINUOUS
10
0.2897031102362205
20
3.4119086614173226
11
0.2901440157480315
21
3.4129730708661414
0
LINE
8
BLACK
6
CONTINUOUS
10
0.2901440157480315
20
3.4129730708661414
11
0.2909586614173229
21
3.4137877165354329
0
LINE
8
BLACK
6
CONTINUOUS
10
0.2909586614173229
20
3.4137877165354329
11
0.2920230708661417
21
3.414228622047244
0
LINE
8
BLACK
6
CONTINUOUS
10
0.2920230708661417
20
3.414228622047244
11
0.2931751968503937
21
3.414228622047244
0
LINE
8
BLACK
6
CONTINUOUS
10
0.2931751968503937
20
3.414228622047244
11
0.2942396062992126
21
3.4137877165354329
0
LINE
8
BLACK
6
CONTINUOUS
10
0.3231714173228347
20
3.414228622047244
11
0.3232694094488189
21
3.4141880314960629
0
LINE
8
BLACK
6
CONTINUOUS
10
0.3232694094488189
20
3.4141880314960629
11
0.3233752362204724
21
3.4141805118110233
0
LINE
8
BLACK
6
CONTINUOUS
10
0.3233752362204724
20
3.4141805118110233
11
0.3239158661417323
21
3.4139736220472439
0
LINE
8
BLACK
6
CONTINUOUS
10
0.3239158661417323
20
3.4139736220472439
11
0.3276653937007874
21
3.4120988582677163
0
LINE
8
BLACK
6
CONTINUOUS
10
0.3276653937007874
20
3.4120988582677163
11
0.3277617322834646
21
3.4120382283464568
0
LINE
8
BLACK
6
CONTINUOUS
10
0.3277617322834646
20
3.4120382283464568
11
0.3278071653543307
21
3.4120230708661419
0
LINE
8
BLACK
6
CONTINUOUS
10
0.3278071653543307
20
3.4120230708661419
11
0.3278637007874016
21
3.4119740551181104
0
LINE
8
BLACK
6
CONTINUOUS
10
0.3278637007874016
20
3.4119740551181104
11
0.3281552755905512
21
3.4117905118110237
0
LINE
8
BLACK
6
CONTINUOUS
10
0.3281552755905512
20
3.4117905118110237
11
0.3282196456692913
21
3.4117162992125984
0
LINE
8
BLACK
6
CONTINUOUS
10
0.3282196456692913
20
3.4117162992125984
11
0.3282840157480315
21
3.4117905118110237
0
LINE
8
BLACK
6
CONTINUOUS
10
0.3282840157480315
20
3.4117905118110237
11
0.3285755511811024
21
3.4119740551181104
0
LINE
8
BLACK
6
CONTINUOUS
10
0.3285755511811024
20
3.4119740551181104
11
0.328632125984252
21
3.4120230708661419
0
LINE
8
BLACK
6
CONTINUOUS
10
0.328632125984252
20
3.4120230708661419
11
0.3286775196850394
21
3.4120382283464568
0
LINE
8
BLACK
6
CONTINUOUS
10
0.3286775196850394
20
3.4120382283464568
11
0.3287738976377952
21
3.4120988582677163
0
LINE
8
BLACK
6
CONTINUOUS
10
0.3287738976377952
20
3.4120988582677163
11
0.3325234251968504
21
3.4139736220472439
0
LINE
8
BLACK
6
CONTINUOUS
10
0.3325234251968504
20
3.4139736220472439
11
0.3330640157480315
21
3.4141805118110233
0
LINE
8
BLACK
6
CONTINUOUS
10
0.3330640157480315
20
3.4141805118110233
11
0.3331698818897638
21
3.4141880708661416
0
LINE
8
BLACK
6
CONTINUOUS
10
0.3331698818897638
20
3.4141880708661416
11
0.333267874015748
21
3.414228622047244
0
LINE
8
BLACK
6
CONTINUOUS
10
0.333267874015748
20
3.414228622047244
11
0.333843937007874
21
3.4142853543307088
0
LINE
8
BLACK
6
CONTINUOUS
10
0.333843937007874
20
3.4142853543307088
11
0.3394682283464567
21
3.4142853543307088
0
LINE
8
BLACK
6
CONTINUOUS
10
0.3394682283464567
20
3.4142853543307088
11
0.3400442913385827
21
3.414228622047244
0
LINE
8
BLACK
6
CONTINUOUS
10
0.3400442913385827
20
3.414228622047244
11
0.3401422834645669
21
3.4141880314960629
0
LINE
8
BLACK
6
CONTINUOUS
10
0.3401422834645669
20
3.4141880314960629
11
0.3402481102362205
21
3.4141805118110233
0
LINE
8
BLACK
6
CONTINUOUS
10
0.3402481102362205
20
3.4141805118110233
11
0.3407887401574803
21
3.4139736220472439
0
LINE
8
BLACK
6
CONTINUOUS
10
0.3407887401574803
20
3.4139736220472439
11
0.3445383070866141
21
3.4120988582677163
0
LINE
8
BLACK
6
CONTINUOUS
10
0.3445383070866141
20
3.4120988582677163
11
0.3446346062992126
21
3.4120382283464568
0
LINE
8
BLACK
6
CONTINUOUS
10
0.3446346062992126
20
3.4120382283464568
11
0.3446800787401575
21
3.4120230708661419
0
LINE
8
BLACK
6
CONTINUOUS
10
0.3446800787401575
20
3.4120230708661419
11
0.3447366535433071
21
3.4119740157480316
0
LINE
8
BLACK
6
CONTINUOUS
10
0.3447366535433071
20
3.4119740157480316
11
0.3450281496062992
21
3.4117905118110237
0
LINE
8
BLACK
6
CONTINUOUS
10
0.3450281496062992
20
3.4117905118110237
11
0.3452706299212598
21
3.4115109055118111
0
LINE
8
BLACK
6
CONTINUOUS
10
0.3452706299212598
20
3.4115109055118111
11
0.3455504724409449
21
3.4112682283464566
0
LINE
8
BLACK
6
CONTINUOUS
10
0.3455504724409449
20
3.4112682283464566
11
0.3457339763779527
21
3.4109766929133856
0
LINE
8
BLACK
6
CONTINUOUS
10
0.3457339763779527
20
3.4109766929133856
11
0.345783031496063
21
3.4109201181102362
0
LINE
8
BLACK
6
CONTINUOUS
10
0.345783031496063
20
3.4109201181102362
11
0.3457981496062992
21
3.4108747244094486
0
LINE
8
BLACK
6
CONTINUOUS
10
0.3457981496062992
20
3.4108747244094486
11
0.3458588188976378
21
3.4107783464566928
0
LINE
8
BLACK
6
CONTINUOUS
10
0.3458588188976378
20
3.4107783464566928
11
0.3477335826771654
21
3.4070288188976376
0
LINE
8
BLACK
6
CONTINUOUS
10
0.3477335826771654
20
3.4070288188976376
11
0.3479404724409449
21
3.4064882283464568
0
LINE
8
BLACK
6
CONTINUOUS
10
0.3479404724409449
20
3.4064882283464568
11
0.3479479921259843
21
3.4063823622047242
0
LINE
8
BLACK
6
CONTINUOUS
10
0.3479479921259843
20
3.4063823622047242
11
0.3479885826771654
21
3.40628437007874
0
LINE
8
BLACK
6
CONTINUOUS
10
0.3479885826771654
20
3.40628437007874
11
0.3480453149606299
21
3.4057083070866141
0
LINE
8
BLACK
6
CONTINUOUS
10
0.3480453149606299
20
3.4057083070866141
11
0.3480453149606299
21
3.3850858661417322
0
LINE
8
BLACK
6
CONTINUOUS
10
0.3480453149606299
20
3.3850858661417322
11
0.3479885826771654
21
3.3845098031496064
0
LINE
8
BLACK
6
CONTINUOUS
10
0.3479885826771654
20
3.3845098031496064
11
0.3475476771653543
21
3.3834453937007871
0
LINE
8
BLACK
6
CONTINUOUS
10
0.3475476771653543
20
3.3834453937007871
11
0.346733031496063
21
3.3826307480314961
0
LINE
8
BLACK
6
CONTINUOUS
10
0.346733031496063
20
3.3826307480314961
11
0.3456686220472441
21
3.382189842519685
0
LINE
8
BLACK
6
CONTINUOUS
10
0.3456686220472441
20
3.382189842519685
11
0.3445164960629921
21
3.382189842519685
0
LINE
8
BLACK
6
CONTINUOUS
10
0.3445164960629921
20
3.382189842519685
11
0.3434520866141732
21
3.3826307480314961
0
LINE
8
BLACK
6
CONTINUOUS
10
0.3434520866141732
20
3.3826307480314961
11
0.3426374409448819
21
3.3834453937007871
0
LINE
8
BLACK
6
CONTINUOUS
10
0.3426374409448819
20
3.3834453937007871
11
0.3421965354330709
21
3.3845098031496064
0
LINE
8
BLACK
6
CONTINUOUS
10
0.3421965354330709
20
3.3845098031496064
11
0.3421398031496063
21
3.3850858661417322
0
LINE
8
BLACK
6
CONTINUOUS
10
0.3421398031496063
20
3.3850858661417322
11
0.3421398031496063
21
3.4050112598425195
0
LINE
8
BLACK
6
CONTINUOUS
10
0.3421398031496063
20
3.4050112598425195
11
0.3410169291338583
21
3.4072570078740156
0
LINE
8
BLACK
6
CONTINUOUS
10
0.3410169291338583
20
3.4072570078740156
11
0.3387711811023622
21
3.4083798425196852
0
LINE
8
BLACK
6
CONTINUOUS
10
0.3387711811023622
20
3.4083798425196852
11
0.3345409842519685
21
3.4083798425196852
0
LINE
8
BLACK
6
CONTINUOUS
10
0.3345409842519685
20
3.4083798425196852
11
0.3322952362204724
21
3.4072570078740156
0
LINE
8
BLACK
6
CONTINUOUS
10
0.3322952362204724
20
3.4072570078740156
11
0.3311724015748032
21
3.4050112598425195
0
LINE
8
BLACK
6
CONTINUOUS
10
0.3311724015748032
20
3.4050112598425195
11
0.3311724015748032
21
3.3850858661417322
0
LINE
8
BLACK
6
CONTINUOUS
10
0.3311724015748032
20
3.3850858661417322
11
0.3311156692913386
21
3.3845098031496064
0
LINE
8
BLACK
6
CONTINUOUS
10
0.3311156692913386
20
3.3845098031496064
11
0.3306747637795275
21
3.3834453937007871
0
LINE
8
BLACK
6
CONTINUOUS
10
0.3306747637795275
20
3.3834453937007871
11
0.3298601181102362
21
3.3826307480314961
0
LINE
8
BLACK
6
CONTINUOUS
10
0.3298601181102362
20
3.3826307480314961
11
0.3287957086614173
21
3.382189842519685
0
LINE
8
BLACK
6
CONTINUOUS
10
0.3287957086614173
20
3.382189842519685
11
0.3276435826771654
21
3.382189842519685
0
LINE
8
BLACK
6
CONTINUOUS
10
0.3276435826771654
20
3.382189842519685
11
0.3265791732283465
21
3.3826307480314961
0
LINE
8
BLACK
6
CONTINUOUS
10
0.3265791732283465
20
3.3826307480314961
11
0.3257645275590551
21
3.3834453937007871
0
LINE
8
BLACK
6
CONTINUOUS
10
0.3257645275590551
20
3.3834453937007871
11
0.3253236220472441
21
3.3845098031496064
0
LINE
8
BLACK
6
CONTINUOUS
10
0.3253236220472441
20
3.3845098031496064
11
0.3252668897637795
21
3.3850858661417322
0
LINE
8
BLACK
6
CONTINUOUS
10
0.3252668897637795
20
3.3850858661417322
11
0.3252668897637795
21
3.4050112598425195
0
LINE
8
BLACK
6
CONTINUOUS
10
0.3252668897637795
20
3.4050112598425195
11
0.3241440157480315
21
3.4072570078740156
0
LINE
8
BLACK
6
CONTINUOUS
10
0.3241440157480315
20
3.4072570078740156
11
0.3218983070866142
21
3.4083798425196852
0
LINE
8
BLACK
6
CONTINUOUS
10
0.3218983070866142
20
3.4083798425196852
11
0.3176681102362205
21
3.4083798425196852
0
LINE
8
BLACK
6
CONTINUOUS
10
0.3176681102362205
20
3.4083798425196852
11
0.3149706299212598
21
3.4070311023622049
0
LINE
8
BLACK
6
CONTINUOUS
10
0.3149706299212598
20
3.4070311023622049
11
0.3142995275590551
21
3.4063599999999998
0
LINE
8
BLACK
6
CONTINUOUS
10
0.3142995275590551
20
3.4063599999999998
11
0.3142995275590551
21
3.3850858661417322
0
LINE
8
BLACK
6
CONTINUOUS
10
0.3142995275590551
20
3.3850858661417322
11
0.3142427952755906
21
3.3845098031496064
0
LINE
8
BLACK
6
CONTINUOUS
10
0.3142427952755906
20
3.3845098031496064
11
0.3138018897637795
21
3.3834453937007871
0
LINE
8
BLACK
6
CONTINUOUS
10
0.3138018897637795
20
3.3834453937007871
11
0.3129872440944882
21
3.3826307480314961
0
LINE
8
BLACK
6
CONTINUOUS
10
0.3129872440944882
20
3.3826307480314961
11
0.3119228346456693
21
3.382189842519685
0
LINE
8
BLACK
6
CONTINUOUS
10
0.3119228346456693
20
3.382189842519685
11
0.3107707086614173
21
3.382189842519685
0
LINE
8
BLACK
6
CONTINUOUS
10
0.3107707086614173
20
3.382189842519685
11
0.3097062992125984
21
3.3826307480314961
0
LINE
8
BLACK
6
CONTINUOUS
10
0.3097062992125984
20
3.3826307480314961
11
0.3088916535433071
21
3.3834453937007871
0
LINE
8
BLACK
6
CONTINUOUS
10
0.3088916535433071
20
3.3834453937007871
11
0.3084507480314961
21
3.3845098031496064
0
LINE
8
BLACK
6
CONTINUOUS
10
0.3084507480314961
20
3.3845098031496064
11
0.3083940157480315
21
3.3850858661417322
0
LINE
8
BLACK
6
CONTINUOUS
10
0.3083940157480315
20
3.3850858661417322
11
0.3083940157480315
21
3.4113325984251968
0
LINE
8
BLACK
6
CONTINUOUS
10
0.3083940157480315
20
3.4113325984251968
11
0.3084507480314961
21
3.4119086614173226
0
LINE
8
BLACK
6
CONTINUOUS
10
0.3084507480314961
20
3.4119086614173226
11
0.3088916535433071
21
3.4129730708661414
0
LINE
8
BLACK
6
CONTINUOUS
10
0.3088916535433071
20
3.4129730708661414
11
0.3097062992125984
21
3.4137877165354329
0
LINE
8
BLACK
6
CONTINUOUS
10
0.3097062992125984
20
3.4137877165354329
11
0.3107707086614173
21
3.414228622047244
0
LINE
8
BLACK
6
CONTINUOUS
10
0.3107707086614173
20
3.414228622047244
11
0.3119228346456693
21
3.414228622047244
0
LINE
8
BLACK
6
CONTINUOUS
10
0.3119228346456693
20
3.414228622047244
11
0.3129872440944882
21
3.4137877165354329
0
LINE
8
BLACK
6
CONTINUOUS
10
0.3129872440944882
20
3.4137877165354329
11
0.313751062992126
21
3.4130238976377951
0
LINE
8
BLACK
6
CONTINUOUS
10
0.313751062992126
20
3.4130238976377951
11
0.3156505511811024
21
3.4139736220472439
0
LINE
8
BLACK
6
CONTINUOUS
10
0.3156505511811024
20
3.4139736220472439
11
0.3161911417322835
21
3.4141805118110233
0
LINE
8
BLACK
6
CONTINUOUS
10
0.3161911417322835
20
3.4141805118110233
11
0.3162970078740158
21
3.4141880708661416
0
LINE
8
BLACK
6
CONTINUOUS
10
0.3162970078740158
20
3.4141880708661416
11
0.316395
21
3.414228622047244
0
LINE
8
BLACK
6
CONTINUOUS
10
0.316395
20
3.414228622047244
11
0.316971062992126
21
3.4142853543307088
0
LINE
8
BLACK
6
CONTINUOUS
10
0.316971062992126
20
3.4142853543307088
11
0.3225953543307086
21
3.4142853543307088
0
LINE
8
BLACK
6
CONTINUOUS
10
0.3225953543307086
20
3.4142853543307088
11
0.3231714173228347
21
3.414228622047244
0
LINE
8
BLACK
6
CONTINUOUS
10
0.4094106299212598
20
3.414228622047244
11
0.4095086220472441
21
3.4141880314960629
0
LINE
8
BLACK
6
CONTINUOUS
10
0.4095086220472441
20
3.4141880314960629
11
0.4096144488188976
21
3.4141805118110233
0
LINE
8
BLACK
6
CONTINUOUS
10
0.4096144488188976
20
3.4141805118110233
11
0.4101550787401575
21
3.4139736220472439
0
LINE
8
BLACK
6
CONTINUOUS
10
0.4101550787401575
20
3.4139736220472439
11
0.4139046062992126
21
3.4120988582677163
0
LINE
8
BLACK
6
CONTINUOUS
10
0.4139046062992126
20
3.4120988582677163
11
0.4140009448818898
21
3.4120382283464568
0
LINE
8
BLACK
6
CONTINUOUS
10
0.4140009448818898
20
3.4120382283464568
11
0.4140463779527559
21
3.4120230708661419
0
LINE
8
BLACK
6
CONTINUOUS
10
0.4140463779527559
20
3.4120230708661419
11
0.4141029133858268
21
3.4119740551181104
0
LINE
8
BLACK
6
CONTINUOUS
10
0.4141029133858268
20
3.4119740551181104
11
0.4143944881889764
21
3.4117905118110237
0
LINE
8
BLACK
6
CONTINUOUS
10
0.4143944881889764
20
3.4117905118110237
11
0.4146370472440945
21
3.4115108267716536
0
LINE
8
BLACK
6
CONTINUOUS
10
0.4146370472440945
20
3.4115108267716536
11
0.4149167716535433
21
3.4112682283464566
0
LINE
8
BLACK
6
CONTINUOUS
10
0.4149167716535433
20
3.4112682283464566
11
0.4151002755905512
21
3.4109766929133856
0
LINE
8
BLACK
6
CONTINUOUS
10
0.4151002755905512
20
3.4109766929133856
11
0.4151493307086614
21
3.4109201181102362
0
LINE
8
BLACK
6
CONTINUOUS
10
0.4151493307086614
20
3.4109201181102362
11
0.4151644488188976
21
3.4108747244094486
0
LINE
8
BLACK
6
CONTINUOUS
10
0.4151644488188976
20
3.4108747244094486
11
0.4152251181102362
21
3.4107783464566928
0
LINE
8
BLACK
6
CONTINUOUS
10
0.4152251181102362
20
3.4107783464566928
11
0.4170998818897638
21
3.4070288188976376
0
LINE
8
BLACK
6
CONTINUOUS
10
0.4170998818897638
20
3.4070288188976376
11
0.4173067716535433
21
3.4064882283464568
0
LINE
8
BLACK
6
CONTINUOUS
10
0.4173067716535433
20
3.4064882283464568
11
0.4173142913385827
21
3.4063823622047242
0
LINE
8
BLACK
6
CONTINUOUS
10
0.4173142913385827
20
3.4063823622047242
11
0.4173548818897638
21
3.40628437007874
0
LINE
8
BLACK
6
CONTINUOUS
10
0.4173548818897638
20
3.40628437007874
11
0.4174116141732284
21
3.4057083070866141
0
LINE
8
BLACK
6
CONTINUOUS
10
0.4174116141732284
20
3.4057083070866141
11
0.4174116141732284
21
3.3850858661417322
0
LINE
8
BLACK
6
CONTINUOUS
10
0.4174116141732284
20
3.3850858661417322
11
0.4173548818897638
21
3.3845098031496064
0
LINE
8
BLACK
6
CONTINUOUS
10
0.4173548818897638
20
3.3845098031496064
11
0.4169139763779527
21
3.3834453937007871
0
LINE
8
BLACK
6
CONTINUOUS
10
0.4169139763779527
20
3.3834453937007871
11
0.4160993307086614
21
3.3826307480314961
0
LINE
8
BLACK
6
CONTINUOUS
10
0.4160993307086614
20
3.3826307480314961
11
0.4150349212598425
21
3.382189842519685
0
LINE
8
BLACK
6
CONTINUOUS
10
0.4150349212598425
20
3.382189842519685
11
0.4138827952755905
21
3.382189842519685
0
LINE
8
BLACK
6
CONTINUOUS
10
0.4138827952755905
20
3.382189842519685
11
0.4128183858267717
21
3.3826307480314961
0
LINE
8
BLACK
6
CONTINUOUS
10
0.4128183858267717
20
3.3826307480314961
11
0.4120037401574803
21
3.3834453937007871
0
LINE
8
BLACK
6
CONTINUOUS
10
0.4120037401574803
20
3.3834453937007871
11
0.4115628346456693
21
3.3845098031496064
0
LINE
8
BLACK
6
CONTINUOUS
10
0.4115628346456693
20
3.3845098031496064
11
0.4115061023622047
21
3.3850858661417322
0
LINE
8
BLACK
6
CONTINUOUS
10
0.4115061023622047
20
3.3850858661417322
11
0.4115061023622047
21
3.4050112598425195
0
LINE
8
BLACK
6
CONTINUOUS
10
0.4115061023622047
20
3.4050112598425195
11
0.4103832283464567
21
3.4072570078740156
0
LINE
8
BLACK
6
CONTINUOUS
10
0.4103832283464567
20
3.4072570078740156
11
0.4081375196850394
21
3.4083798425196852
0
LINE
8
BLACK
6
CONTINUOUS
10
0.4081375196850394
20
3.4083798425196852
11
0.4039073228346456
21
3.4083798425196852
0
LINE
8
BLACK
6
CONTINUOUS
10
0.4039073228346456
20
3.4083798425196852
11
0.4012098425196851
21
3.4070311023622049
0
LINE
8
BLACK
6
CONTINUOUS
10
0.4012098425196851
20
3.4070311023622049
11
0.4005387401574803
21
3.4063599999999998
0
LINE
8
BLACK
6
CONTINUOUS
10
0.4005387401574803
20
3.4063599999999998
11
0.4005387401574803
21
3.3850858661417322
0
LINE
8
BLACK
6
CONTINUOUS
10
0.4005387401574803
20
3.3850858661417322
11
0.4004820078740157
21
3.3845098031496064
0
LINE
8
BLACK
6
CONTINUOUS
10
0.4004820078740157
20
3.3845098031496064
11
0.4000411023622047
21
3.3834453937007871
0
LINE
8
BLACK
6
CONTINUOUS
10
0.4000411023622047
20
3.3834453937007871
11
0.3992264566929134
21
3.3826307480314961
0
LINE
8
BLACK
6
CONTINUOUS
10
0.3992264566929134
20
3.3826307480314961
11
0.3981620472440945
21
3.382189842519685
0
LINE
8
BLACK
6
CONTINUOUS
10
0.3981620472440945
20
3.382189842519685
11
0.3970099212598425
21
3.382189842519685
0
LINE
8
BLACK
6
CONTINUOUS
10
0.3970099212598425
20
3.382189842519685
11
0.3959455118110236
21
3.3826307480314961
0
LINE
8
BLACK
6
CONTINUOUS
10
0.3959455118110236
20
3.3826307480314961
11
0.3951308661417323
21
3.3834453937007871
0
LINE
8
BLACK
6
CONTINUOUS
10
0.3951308661417323
20
3.3834453937007871
11
0.3946899606299212
21
3.3845098031496064
0
LINE
8
BLACK
6
CONTINUOUS
10
0.3946899606299212
20
3.3845098031496064
11
0.3946332283464567
21
3.3850858661417322
0
LINE
8
BLACK
6
CONTINUOUS
10
0.3946332283464567
20
3.3850858661417322
11
0.3946332283464567
21
3.4113325984251968
0
LINE
8
BLACK
6
CONTINUOUS
10
0.3946332283464567
20
3.4113325984251968
11
0.3946899606299212
21
3.4119086614173226
0
LINE
8
BLACK
6
CONTINUOUS
10
0.3946899606299212
20
3.4119086614173226
11
0.3951308661417323
21
3.4129730708661414
0
LINE
8
BLACK
6
CONTINUOUS
10
0.3951308661417323
20
3.4129730708661414
11
0.3959455118110236
21
3.4137877165354329
0
LINE
8
BLACK
6
CONTINUOUS
10
0.3959455118110236
20
3.4137877165354329
11
0.3970099212598425
21
3.414228622047244
0
LINE
8
BLACK
6
CONTINUOUS
10
0.3970099212598425
20
3.414228622047244
11
0.3981620472440945
21
3.414228622047244
0
LINE
8
BLACK
6
CONTINUOUS
10
0.3981620472440945
20
3.414228622047244
11
0.3992264566929134
21
3.4137877165354329
0
LINE
8
BLACK
6
CONTINUOUS
10
0.3992264566929134
20
3.4137877165354329
11
0.3999902755905512
21
3.4130238976377951
0
LINE
8
BLACK
6
CONTINUOUS
10
0.3999902755905512
20
3.4130238976377951
11
0.4018897637795276
21
3.4139736220472439
0
LINE
8
BLACK
6
CONTINUOUS
10
0.4018897637795276
20
3.4139736220472439
11
0.4024303543307087
21
3.4141805118110233
0
LINE
8
BLACK
6
CONTINUOUS
10
0.4024303543307087
20
3.4141805118110233
11
0.4025362204724409
21
3.4141880708661416
0
LINE
8
BLACK
6
CONTINUOUS
10
0.4025362204724409
20
3.4141880708661416
11
0.4026342125984252
21
3.414228622047244
0
LINE
8
BLACK
6
CONTINUOUS
10
0.4026342125984252
20
3.414228622047244
11
0.4032102755905512
21
3.4142853543307088
0
LINE
8
BLACK
6
CONTINUOUS
10
0.4032102755905512
20
3.4142853543307088
11
0.4088345669291338
21
3.4142853543307088
0
LINE
8
BLACK
6
CONTINUOUS
10
0.4088345669291338
20
3.4142853543307088
11
0.4094106299212598
21
3.414228622047244
0
LINE
8
BLACK
6
CONTINUOUS
10
0.466718031496063
20
3.4137877165354329
11
0.4675326771653543
21
3.4129730708661414
0
LINE
8
BLACK
6
CONTINUOUS
10
0.4675326771653543
20
3.4129730708661414
11
0.4679735826771653
21
3.4119086614173226
0
LINE
8
BLACK
6
CONTINUOUS
10
0.4679735826771653
20
3.4119086614173226
11
0.4680303149606299
21
3.4113325984251968
0
LINE
8
BLACK
6
CONTINUOUS
10
0.4680303149606299
20
3.4113325984251968
11
0.4680303149606299
21
3.3850858661417322
0
LINE
8
BLACK
6
CONTINUOUS
10
0.4680303149606299
20
3.3850858661417322
11
0.4679735826771653
21
3.3845098031496064
0
LINE
8
BLACK
6
CONTINUOUS
10
0.4679735826771653
20
3.3845098031496064
11
0.4675326771653543
21
3.3834453937007871
0
LINE
8
BLACK
6
CONTINUOUS
10
0.4675326771653543
20
3.3834453937007871
11
0.466718031496063
21
3.3826307480314961
0
LINE
8
BLACK
6
CONTINUOUS
10
0.466718031496063
20
3.3826307480314961
11
0.4656536220472441
21
3.382189842519685
0
LINE
8
BLACK
6
CONTINUOUS
10
0.4656536220472441
20
3.382189842519685
11
0.4645014960629921
21
3.382189842519685
0
LINE
8
BLACK
6
CONTINUOUS
10
0.4645014960629921
20
3.382189842519685
11
0.4634370866141732
21
3.3826307480314961
0
LINE
8
BLACK
6
CONTINUOUS
10
0.4634370866141732
20
3.3826307480314961
11
0.4626224409448819
21
3.3834453937007871
0
LINE
8
BLACK
6
CONTINUOUS
10
0.4626224409448819
20
3.3834453937007871
11
0.4621815354330708
21
3.3845098031496064
0
LINE
8
BLACK
6
CONTINUOUS
10
0.4621815354330708
20
3.3845098031496064
11
0.4621248031496063
21
3.3850858661417322
0
LINE
8
BLACK
6
CONTINUOUS
10
0.4621248031496063
20
3.3850858661417322
11
0.4621248031496063
21
3.4113325984251968
0
LINE
8
BLACK
6
CONTINUOUS
10
0.4621248031496063
20
3.4113325984251968
11
0.4621815354330708
21
3.4119086614173226
0
LINE
8
BLACK
6
CONTINUOUS
10
0.4621815354330708
20
3.4119086614173226
11
0.4626224409448819
21
3.4129730708661414
0
LINE
8
BLACK
6
CONTINUOUS
10
0.4626224409448819
20
3.4129730708661414
11
0.4634370866141732
21
3.4137877165354329
0
LINE
8
BLACK
6
CONTINUOUS
10
0.4634370866141732
20
3.4137877165354329
11
0.4645014960629921
21
3.414228622047244
0
LINE
8
BLACK
6
CONTINUOUS
10
0.4645014960629921
20
3.414228622047244
11
0.4656536220472441
21
3.414228622047244
0
LINE
8
BLACK
6
CONTINUOUS
10
0.4656536220472441
20
3.414228622047244
11
0.466718031496063
21
3.4137877165354329
0
LINE
8
BLACK
6
CONTINUOUS
10
0.5312703937007874
20
3.414228622047244
11
0.5313683858267716
21
3.4141880314960629
0
LINE
8
BLACK
6
CONTINUOUS
10
0.5313683858267716
20
3.4141880314960629
11
0.5314742125984252
21
3.4141805118110233
0
LINE
8
BLACK
6
CONTINUOUS
10
0.5314742125984252
20
3.4141805118110233
11
0.532014842519685
21
3.4139736220472439
0
LINE
8
BLACK
6
CONTINUOUS
10
0.532014842519685
20
3.4139736220472439
11
0.5357643700787401
21
3.4120988582677163
0
LINE
8
BLACK
6
CONTINUOUS
10
0.5357643700787401
20
3.4120988582677163
11
0.5358607086614173
21
3.4120382283464568
0
LINE
8
BLACK
6
CONTINUOUS
10
0.5358607086614173
20
3.4120382283464568
11
0.5359061417322835
21
3.4120230708661419
0
LINE
8
BLACK
6
CONTINUOUS
10
0.5359061417322835
20
3.4120230708661419
11
0.5359626771653543
21
3.4119740551181104
0
LINE
8
BLACK
6
CONTINUOUS
10
0.5359626771653543
20
3.4119740551181104
11
0.536254251968504
21
3.4117905118110237
0
LINE
8
BLACK
6
CONTINUOUS
10
0.536254251968504
20
3.4117905118110237
11
0.536496811023622
21
3.4115108267716536
0
LINE
8
BLACK
6
CONTINUOUS
10
0.536496811023622
20
3.4115108267716536
11
0.5367765354330708
21
3.4112682283464566
0
LINE
8
BLACK
6
CONTINUOUS
10
0.5367765354330708
20
3.4112682283464566
11
0.5369600393700787
21
3.4109766929133856
0
LINE
8
BLACK
6
CONTINUOUS
10
0.5369600393700787
20
3.4109766929133856
11
0.537009094488189
21
3.4109201181102362
0
LINE
8
BLACK
6
CONTINUOUS
10
0.537009094488189
20
3.4109201181102362
11
0.5370242125984251
21
3.4108747244094486
0
LINE
8
BLACK
6
CONTINUOUS
10
0.5370242125984251
20
3.4108747244094486
11
0.5370848818897638
21
3.4107783464566928
0
LINE
8
BLACK
6
CONTINUOUS
10
0.5370848818897638
20
3.4107783464566928
11
0.5389596456692913
21
3.4070288188976376
0
LINE
8
BLACK
6
CONTINUOUS
10
0.5389596456692913
20
3.4070288188976376
11
0.5391665354330708
21
3.4064882283464568
0
LINE
8
BLACK
6
CONTINUOUS
10
0.5391665354330708
20
3.4064882283464568
11
0.5391740551181102
21
3.4063823622047242
0
LINE
8
BLACK
6
CONTINUOUS
10
0.5391740551181102
20
3.4063823622047242
11
0.5392146456692913
21
3.40628437007874
0
LINE
8
BLACK
6
CONTINUOUS
10
0.5392146456692913
20
3.40628437007874
11
0.5392713779527559
21
3.4057083070866141
0
LINE
8
BLACK
6
CONTINUOUS
10
0.5392713779527559
20
3.4057083070866141
11
0.5392713779527559
21
3.3850858661417322
0
LINE
8
BLACK
6
CONTINUOUS
10
0.5392713779527559
20
3.3850858661417322
11
0.5392146456692913
21
3.3845098031496064
0
LINE
8
BLACK
6
CONTINUOUS
10
0.5392146456692913
20
3.3845098031496064
11
0.5387737401574803
21
3.3834453937007871
0
LINE
8
BLACK
6
CONTINUOUS
10
0.5387737401574803
20
3.3834453937007871
11
0.537959094488189
21
3.3826307480314961
0
LINE
8
BLACK
6
CONTINUOUS
10
0.537959094488189
20
3.3826307480314961
11
0.5368946850393701
21
3.382189842519685
0
LINE
8
BLACK
6
CONTINUOUS
10
0.5368946850393701
20
3.382189842519685
11
0.5357425590551181
21
3.382189842519685
0
LINE
8
BLACK
6
CONTINUOUS
10
0.5357425590551181
20
3.382189842519685
11
0.5346781496062992
21
3.3826307480314961
0
LINE
8
BLACK
6
CONTINUOUS
10
0.5346781496062992
20
3.3826307480314961
11
0.5338635039370079
21
3.3834453937007871
0
LINE
8
BLACK
6
CONTINUOUS
10
0.5338635039370079
20
3.3834453937007871
11
0.5334225984251968
21
3.3845098031496064
0
LINE
8
BLACK
6
CONTINUOUS
10
0.5334225984251968
20
3.3845098031496064
11
0.5333658661417323
21
3.3850858661417322
0
LINE
8
BLACK
6
CONTINUOUS
10
0.5333658661417323
20
3.3850858661417322
11
0.5333658661417323
21
3.4050112598425195
0
LINE
8
BLACK
6
CONTINUOUS
10
0.5333658661417323
20
3.4050112598425195
11
0.5322429921259842
21
3.4072570078740156
0
LINE
8
BLACK
6
CONTINUOUS
10
0.5322429921259842
20
3.4072570078740156
11
0.5299972834645669
21
3.4083798425196852
0
LINE
8
BLACK
6
CONTINUOUS
10
0.5299972834645669
20
3.4083798425196852
11
0.5257670866141733
21
3.4083798425196852
0
LINE
8
BLACK
6
CONTINUOUS
10
0.5257670866141733
20
3.4083798425196852
11
0.5230696062992126
21
3.4070311023622049
0
LINE
8
BLACK
6
CONTINUOUS
10
0.5230696062992126
20
3.4070311023622049
11
0.5223985039370078
21
3.4063599999999998
0
LINE
8
BLACK
6
CONTINUOUS
10
0.5223985039370078
20
3.4063599999999998
11
0.5223985039370078
21
3.3850858661417322
0
LINE
8
BLACK
6
CONTINUOUS
10
0.5223985039370078
20
3.3850858661417322
11
0.5223417716535433
21
3.3845098031496064
0
LINE
8
BLACK
6
CONTINUOUS
10
0.5223417716535433
20
3.3845098031496064
11
0.5219008661417323
21
3.3834453937007871
0
LINE
8
BLACK
6
CONTINUOUS
10
0.5219008661417323
20
3.3834453937007871
11
0.5210862204724409
21
3.3826307480314961
0
LINE
8
BLACK
6
CONTINUOUS
10
0.5210862204724409
20
3.3826307480314961
11
0.520021811023622
21
3.382189842519685
0
LINE
8
BLACK
6
CONTINUOUS
10
0.520021811023622
20
3.382189842519685
11
0.51886968503937
21
3.382189842519685
0
LINE
8
BLACK
6
CONTINUOUS
10
0.51886968503937
20
3.382189842519685
11
0.5178052755905511
21
3.3826307480314961
0
LINE
8
BLACK
6
CONTINUOUS
10
0.5178052755905511
20
3.3826307480314961
11
0.5169906299212599
21
3.3834453937007871
0
LINE
8
BLACK
6
CONTINUOUS
10
0.5169906299212599
20
3.3834453937007871
11
0.5165497244094488
21
3.3845098031496064
0
LINE
8
BLACK
6
CONTINUOUS
10
0.5165497244094488
20
3.3845098031496064
11
0.5164929921259842
21
3.3850858661417322
0
LINE
8
BLACK
6
CONTINUOUS
10
0.5164929921259842
20
3.3850858661417322
11
0.5164929921259842
21
3.4113325984251968
0
LINE
8
BLACK
6
CONTINUOUS
10
0.5164929921259842
20
3.4113325984251968
11
0.5165497244094488
21
3.4119086614173226
0
LINE
8
BLACK
6
CONTINUOUS
10
0.5165497244094488
20
3.4119086614173226
11
0.5169906299212599
21
3.4129730708661414
0
LINE
8
BLACK
6
CONTINUOUS
10
0.5169906299212599
20
3.4129730708661414
11
0.5178052755905511
21
3.4137877165354329
0
LINE
8
BLACK
6
CONTINUOUS
10
0.5178052755905511
20
3.4137877165354329
11
0.51886968503937
21
3.414228622047244
0
LINE
8
BLACK
6
CONTINUOUS
10
0.51886968503937
20
3.414228622047244
11
0.520021811023622
21
3.414228622047244
0
LINE
8
BLACK
6
CONTINUOUS
10
0.520021811023622
20
3.414228622047244
11
0.5210862204724409
21
3.4137877165354329
0
LINE
8
BLACK
6
CONTINUOUS
10
0.5210862204724409
20
3.4137877165354329
11
0.5218500393700787
21
3.4130238976377951
0
LINE
8
BLACK
6
CONTINUOUS
10
0.5218500393700787
20
3.4130238976377951
11
0.5237495275590551
21
3.4139736220472439
0
LINE
8
BLACK
6
CONTINUOUS
10
0.5237495275590551
20
3.4139736220472439
11
0.5242901181102362
21
3.4141805118110233
0
LINE
8
BLACK
6
CONTINUOUS
10
0.5242901181102362
20
3.4141805118110233
11
0.5243959842519685
21
3.4141880708661416
0
LINE
8
BLACK
6
CONTINUOUS
10
0.5243959842519685
20
3.4141880708661416
11
0.5244939763779527
21
3.414228622047244
0
LINE
8
BLACK
6
CONTINUOUS
10
0.5244939763779527
20
3.414228622047244
11
0.5250700393700787
21
3.4142853543307088
0
LINE
8
BLACK
6
CONTINUOUS
10
0.5250700393700787
20
3.4142853543307088
11
0.5306943307086615
21
3.4142853543307088
0
LINE
8
BLACK
6
CONTINUOUS
10
0.5306943307086615
20
3.4142853543307088
11
0.5312703937007874
21
3.414228622047244
0
LINE
8
BLACK
6
CONTINUOUS
10
0.2942396062992126
20
3.4269110629921258
11
0.2946870472440945
21
3.4265438582677166
0
LINE
8
BLACK
6
CONTINUOUS
10
0.2946870472440945
20
3.4265438582677166
11
0.2965618110236221
21
3.424669094488189
0
LINE
8
BLACK
6
CONTINUOUS
10
0.2965618110236221
20
3.424669094488189
11
0.2969290157480315
21
3.4242216535433072
0
LINE
8
BLACK
6
CONTINUOUS
10
0.2969290157480315
20
3.4242216535433072
11
0.2970705905511811
21
3.4238798818897638
0
LINE
8
BLACK
6
CONTINUOUS
10
0.2970705905511811
20
3.4238798818897638
11
0.2973699212598425
21
3.4231572047244092
0
LINE
8
BLACK
6
CONTINUOUS
10
0.2973699212598425
20
3.4231572047244092
11
0.2973699212598425
21
3.4220051181102362
0
LINE
8
BLACK
6
CONTINUOUS
10
0.2973699212598425
20
3.4220051181102362
11
0.2969290157480315
21
3.4209407086614174
0
LINE
8
BLACK
6
CONTINUOUS
10
0.2969290157480315
20
3.4209407086614174
11
0.2965618110236221
21
3.4204932677165352
0
LINE
8
BLACK
6
CONTINUOUS
10
0.2965618110236221
20
3.4204932677165352
11
0.2946870472440945
21
3.4186185039370076
0
LINE
8
BLACK
6
CONTINUOUS
10
0.2946870472440945
20
3.4186185039370076
11
0.2942396062992126
21
3.4182512992125984
0
LINE
8
BLACK
6
CONTINUOUS
10
0.2942396062992126
20
3.4182512992125984
11
0.2931751968503937
21
3.4178103937007873
0
LINE
8
BLACK
6
CONTINUOUS
10
0.2931751968503937
20
3.4178103937007873
11
0.293175157480315
21
3.4178103937007873
0
LINE
8
BLACK
6
CONTINUOUS
10
0.293175157480315
20
3.4178103937007873
11
0.2920231102362205
21
3.4178103937007873
0
LINE
8
BLACK
6
CONTINUOUS
10
0.2920231102362205
20
3.4178103937007873
11
0.2920230708661417
21
3.4178103937007873
0
LINE
8
BLACK
6
CONTINUOUS
10
0.2920230708661417
20
3.4178103937007873
11
0.2909586614173229
21
3.4182512992125984
0
LINE
8
BLACK
6
CONTINUOUS
10
0.2909586614173229
20
3.4182512992125984
11
0.2905112204724409
21
3.4186185039370076
0
LINE
8
BLACK
6
CONTINUOUS
10
0.2905112204724409
20
3.4186185039370076
11
0.2886364566929134
21
3.4204932677165352
0
LINE
8
BLACK
6
CONTINUOUS
10
0.2886364566929134
20
3.4204932677165352
11
0.2882692519685039
21
3.4209407086614174
0
LINE
8
BLACK
6
CONTINUOUS
10
0.2882692519685039
20
3.4209407086614174
11
0.2878283464566929
21
3.422005157480315
0
LINE
8
BLACK
6
CONTINUOUS
10
0.2878283464566929
20
3.422005157480315
11
0.2878283464566929
21
3.4231572047244092
0
LINE
8
BLACK
6
CONTINUOUS
10
0.2878283464566929
20
3.4231572047244092
11
0.2882692519685039
21
3.4242216535433072
0
LINE
8
BLACK
6
CONTINUOUS
10
0.2882692519685039
20
3.4242216535433072
11
0.2886364566929134
21
3.424669094488189
0
LINE
8
BLACK
6
CONTINUOUS
10
0.2886364566929134
20
3.424669094488189
11
0.2905112204724409
21
3.4265438582677166
0
LINE
8
BLACK
6
CONTINUOUS
10
0.2905112204724409
20
3.4265438582677166
11
0.2909586614173229
21
3.4269110629921258
0
LINE
8
BLACK
6
CONTINUOUS
10
0.2909586614173229
20
3.4269110629921258
11
0.2920230708661417
21
3.4273519685039369
0
LINE
8
BLACK
6
CONTINUOUS
10
0.2920230708661417
20
3.4273519685039369
11
0.293175157480315
21
3.4273519685039369
0
LINE
8
BLACK
6
CONTINUOUS
10
0.293175157480315
20
3.4273519685039369
11
0.2931751968503937
21
3.4273519685039369
0
LINE
8
BLACK
6
CONTINUOUS
10
0.2931751968503937
20
3.4273519685039369
11
0.2942396062992126
21
3.4269110629921258
0
LINE
8
BLACK
6
CONTINUOUS
10
0.466718031496063
20
3.4269110629921258
11
0.4671654724409449
21
3.4265438582677166
0
LINE
8
BLACK
6
CONTINUOUS
10
0.4671654724409449
20
3.4265438582677166
11
0.4690402362204724
21
3.424669094488189
0
LINE
8
BLACK
6
CONTINUOUS
10
0.4690402362204724
20
3.424669094488189
11
0.4694074409448819
21
3.4242216535433072
0
LINE
8
BLACK
6
CONTINUOUS
10
0.4694074409448819
20
3.4242216535433072
11
0.4695490157480315
21
3.4238798818897638
0
LINE
8
BLACK
6
CONTINUOUS
10
0.4695490157480315
20
3.4238798818897638
11
0.4698483464566929
21
3.4231572047244092
0
LINE
8
BLACK
6
CONTINUOUS
10
0.4698483464566929
20
3.4231572047244092
11
0.4698483464566929
21
3.4220051181102362
0
LINE
8
BLACK
6
CONTINUOUS
10
0.4698483464566929
20
3.4220051181102362
11
0.4694074409448819
21
3.4209407086614174
0
LINE
8
BLACK
6
CONTINUOUS
10
0.4694074409448819
20
3.4209407086614174
11
0.4690402362204724
21
3.4204932677165352
0
LINE
8
BLACK
6
CONTINUOUS
10
0.4690402362204724
20
3.4204932677165352
11
0.4671654724409449
21
3.4186185039370076
0
LINE
8
BLACK
6
CONTINUOUS
10
0.4671654724409449
20
3.4186185039370076
11
0.466718031496063
21
3.4182512992125984
0
LINE
8
BLACK
6
CONTINUOUS
10
0.466718031496063
20
3.4182512992125984
11
0.4656536220472441
21
3.4178103937007873
0
LINE
8
BLACK
6
CONTINUOUS
10
0.4656536220472441
20
3.4178103937007873
11
0.4656535826771653
21
3.4178103937007873
0
LINE
8
BLACK
6
CONTINUOUS
10
0.4656535826771653
20
3.4178103937007873
11
0.4645015354330709
21
3.4178103937007873
0
LINE
8
BLACK
6
CONTINUOUS
10
0.4645015354330709
20
3.4178103937007873
11
0.4645014960629921
21
3.4178103937007873
0
LINE
8
BLACK
6
CONTINUOUS
10
0.4645014960629921
20
3.4178103937007873
11
0.4634370866141732
21
3.4182512992125984
0
LINE
8
BLACK
6
CONTINUOUS
10
0.4634370866141732
20
3.4182512992125984
11
0.4629896456692913
21
3.4186185039370076
0
LINE
8
BLACK
6
CONTINUOUS
10
0.4629896456692913
20
3.4186185039370076
11
0.4611148818897638
21
3.4204932677165352
0
LINE
8
BLACK
6
CONTINUOUS
10
0.4611148818897638
20
3.4204932677165352
11
0.4607476771653543
21
3.4209407086614174
0
LINE
8
BLACK
6
CONTINUOUS
10
0.4607476771653543
20
3.4209407086614174
11
0.4603067716535433
21
3.422005157480315
0
LINE
8
BLACK
6
CONTINUOUS
10
0.4603067716535433
20
3.422005157480315
11
0.4603067716535433
21
3.4231572047244092
0
LINE
8
BLACK
6
CONTINUOUS
10
0.4603067716535433
20
3.4231572047244092
11
0.4607476771653543
21
3.4242216535433072
0
LINE
8
BLACK
6
CONTINUOUS
10
0.4607476771653543
20
3.4242216535433072
11
0.4611148818897638
21
3.424669094488189
0
LINE
8
BLACK
6
CONTINUOUS
10
0.4611148818897638
20
3.424669094488189
11
0.4629896456692913
21
3.4265438582677166
0
LINE
8
BLACK
6
CONTINUOUS
10
0.4629896456692913
20
3.4265438582677166
11
0.4634370866141732
21
3.4269110629921258
0
LINE
8
BLACK
6
CONTINUOUS
10
0.4634370866141732
20
3.4269110629921258
11
0.4645014960629921
21
3.4273519685039369
0
LINE
8
BLACK
6
CONTINUOUS
10
0.4645014960629921
20
3.4273519685039369
11
0.4656535826771653
21
3.4273519685039369
0
LINE
8
BLACK
6
CONTINUOUS
10
0.4656535826771653
20
3.4273519685039369
11
0.4656536220472441
21
3.4273519685039369
0
LINE
8
BLACK
6
CONTINUOUS
10
0.4656536220472441
20
3.4273519685039369
11
0.466718031496063
21
3.4269110629921258
0
CIRCLE
8
BLACK
10
-0.3803149606299213
20
3.2884842519685038
40
0.0068897637795276
0
CIRCLE
8
BLACK
10
-0.3661417322834646
20
0.7419291338582678
40
0.0068897637795276
0
CIRCLE
8
BLACK
10
-0.3661417322834646
20
2.6399606299212599
40
0.0068897637795276
0
CIRCLE
8
BLACK
10
-0.1692913385826772
20
1.5151574803149606
40
0.0068897637795276
0
CIRCLE
8
BLACK
10
-0.1692913385826772
20
1.5938976377952756
40
0.0068897637795276
0
CIRCLE
8
BLACK
10
-0.1692913385826772
20
1.6726377952755904
40
0.0068897637795276
0
CIRCLE
8
BLACK
10
-0.1692913385826772
20
1.7513779527559055
40
0.0068897637795276
0
CIRCLE
8
BLACK
10
-0.1692913385826772
20
1.8301181102362205
40
0.0068897637795276
0
CIRCLE
8
BLACK
10
-0.1692913385826772
20
1.9088582677165353
40
0.0068897637795276
0
CIRCLE
8
BLACK
10
-0.2480314960629921
20
1.5151574803149606
40
0.0068897637795276
0
CIRCLE
8
BLACK
10
-0.2480314960629921
20
1.5938976377952756
40
0.0068897637795276
0
CIRCLE
8
BLACK
10
-0.2480314960629921
20
1.6726377952755904
40
0.0068897637795276
0
CIRCLE
8
BLACK
10
-0.2480314960629921
20
1.7513779527559055
40
0.0068897637795276
0
CIRCLE
8
BLACK
10
-0.2480314960629921
20
1.8301181102362205
40
0.0068897637795276
0
CIRCLE
8
BLACK
10
-0.2480314960629921
20
1.9088582677165353
40
0.0068897637795276
0
CIRCLE
8
BLACK
10
-0.3267716535433071
20
1.5151574803149606
40
0.0068897637795276
0
CIRCLE
8
BLACK
10
-0.3267716535433071
20
1.5938976377952756
40
0.0068897637795276
0
CIRCLE
8
BLACK
10
-0.3267716535433071
20
1.6726377952755904
40
0.0068897637795276
0
CIRCLE
8
BLACK
10
-0.3267716535433071
20
1.7513779527559055
40
0.0068897637795276
0
CIRCLE
8
BLACK
10
-0.3267716535433071
20
1.8301181102362205
40
0.0068897637795276
0
CIRCLE
8
BLACK
10
-0.3267716535433071
20
1.9088582677165353
40
0.0068897637795276
0
CIRCLE
8
BLACK
10
-0.405511811023622
20
1.5151574803149606
40
0.0068897637795276
0
CIRCLE
8
BLACK
10
-0.405511811023622
20
1.5938976377952756
40
0.0068897637795276
0
CIRCLE
8
BLACK
10
-0.405511811023622
20
1.6726377952755904
40
0.0068897637795276
0
CIRCLE
8
BLACK
10
-0.405511811023622
20
1.7513779527559055
40
0.0068897637795276
0
CIRCLE
8
BLACK
10
-0.405511811023622
20
1.8301181102362205
40
0.0068897637795276
0
CIRCLE
8
BLACK
10
-0.405511811023622
20
1.9088582677165353
40
0.0068897637795276
0
CIRCLE
8
BLACK
10
-0.484251968503937
20
1.5151574803149606
40
0.0068897637795276
0
CIRCLE
8
BLACK
10
-0.484251968503937
20
1.5938976377952756
40
0.0068897637795276
0
CIRCLE
8
BLACK
10
-0.484251968503937
20
1.6726377952755904
40
0.0068897637795276
0
CIRCLE
8
BLACK
10
-0.484251968503937
20
1.7513779527559055
40
0.0068897637795276
0
CIRCLE
8
BLACK
10
-0.484251968503937
20
1.8301181102362205
40
0.0068897637795276
0
CIRCLE
8
BLACK
10
-0.484251968503937
20
1.9088582677165353
40
0.0068897637795276
0
CIRCLE
8
BLACK
10
-0.562992125984252
20
0.9584645669291338
40
0.0068897637795276
0
CIRCLE
8
BLACK
10
-0.4645669291338583
20
0.9584645669291338
40
0.0068897637795276
0
CIRCLE
8
BLACK
10
-0.3661417322834646
20
0.9584645669291338
40
0.0068897637795276
0
CIRCLE
8
BLACK
10
-0.2677165354330708
20
0.9584645669291338
40
0.0068897637795276
0
CIRCLE
8
BLACK
10
-0.1692913385826772
20
0.9584645669291338
40
0.0068897637795276
0
CIRCLE
8
BLACK
10
-0.562992125984252
20
1.0765748031496063
40
0.0068897637795276
0
CIRCLE
8
BLACK
10
-0.4645669291338583
20
1.0765748031496063
40
0.0068897637795276
0
CIRCLE
8
BLACK
10
-0.3661417322834646
20
1.0765748031496063
40
0.0068897637795276
0
CIRCLE
8
BLACK
10
-0.2677165354330708
20
1.0765748031496063
40
0.0068897637795276
0
CIRCLE
8
BLACK
10
-0.1692913385826772
20
1.0765748031496063
40
0.0068897637795276
0
CIRCLE
8
BLACK
10
-0.562992125984252
20
1.175
40
0.0068897637795276
0
CIRCLE
8
BLACK
10
-0.4645669291338583
20
1.175
40
0.0068897637795276
0
CIRCLE
8
BLACK
10
-0.3661417322834646
20
1.175
40
0.0068897637795276
0
CIRCLE
8
BLACK
10
-0.2677165354330708
20
1.175
40
0.0068897637795276
0
CIRCLE
8
BLACK
10
-0.1692913385826772
20
1.175
40
0.0068897637795276
0
CIRCLE
8
BLACK
10
-0.562992125984252
20
1.2931102362204725
40
0.0068897637795276
0
CIRCLE
8
BLACK
10
-0.4645669291338583
20
1.2931102362204725
40
0.0068897637795276
0
CIRCLE
8
BLACK
10
-0.3661417322834646
20
1.2931102362204725
40
0.0068897637795276
0
CIRCLE
8
BLACK
10
-0.2677165354330708
20
1.2931102362204725
40
0.0068897637795276
0
CIRCLE
8
BLACK
10
-0.1692913385826772
20
1.2931102362204725
40
0.0068897637795276
0
CIRCLE
8
BLACK
10
-0.562992125984252
20
2.0887795275590553
40
0.0068897637795276
0
CIRCLE
8
BLACK
10
-0.4645669291338583
20
2.0887795275590553
40
0.0068897637795276
0
CIRCLE
8
BLACK
10
-0.3661417322834646
20
2.0887795275590553
40
0.0068897637795276
0
CIRCLE
8
BLACK
10
-0.2677165354330708
20
2.0887795275590553
40
0.0068897637795276
0
CIRCLE
8
BLACK
10
-0.1692913385826772
20
2.0887795275590553
40
0.0068897637795276
0
CIRCLE
8
BLACK
10
-0.562992125984252
20
2.2068897637795275
40
0.0068897637795276
0
CIRCLE
8
BLACK
10
-0.4645669291338583
20
2.2068897637795275
40
0.0068897637795276
0
CIRCLE
8
BLACK
10
-0.3661417322834646
20
2.2068897637795275
40
0.0068897637795276
0
CIRCLE
8
BLACK
10
-0.2677165354330708
20
2.2068897637795275
40
0.0068897637795276
0
CIRCLE
8
BLACK
10
-0.1692913385826772
20
2.2068897637795275
40
0.0068897637795276
0
CIRCLE
8
BLACK
10
-0.562992125984252
20
2.305314960629921
40
0.0068897637795276
0
CIRCLE
8
BLACK
10
-0.4645669291338583
20
2.305314960629921
40
0.0068897637795276
0
CIRCLE
8
BLACK
10
-0.3661417322834646
20
2.305314960629921
40
0.0068897637795276
0
CIRCLE
8
BLACK
10
-0.2677165354330708
20
2.305314960629921
40
0.0068897637795276
0
CIRCLE
8
BLACK
10
-0.1692913385826772
20
2.305314960629921
40
0.0068897637795276
0
CIRCLE
8
BLACK
10
-0.562992125984252
20
2.4234251968503937
40
0.0068897637795276
0
CIRCLE
8
BLACK
10
-0.4645669291338583
20
2.4234251968503937
40
0.0068897637795276
0
CIRCLE
8
BLACK
10
-0.3661417322834646
20
2.4234251968503937
40
0.0068897637795276
0
CIRCLE
8
BLACK
10
-0.2677165354330708
20
2.4234251968503937
40
0.0068897637795276
0
CIRCLE
8
BLACK
10
-0.1692913385826772
20
2.4234251968503937
40
0.0068897637795276
0
CIRCLE
8
BLACK
10
-0.7803149606299212
20
2.8884842519685039
40
0.0068897637795276
0
CIRCLE
8
BLACK
10
-0.3803149606299213
20
0.0884842519685039
40
0.0068897637795276
0
CIRCLE
8
BLACK
10
-0.7803149606299212
20
0.4884842519685039
40
0.0068897637795276
0
CIRCLE
8
BLACK
10
-0.713511811023622
20
0.7243464566929134
40
0.0068897637795276
0
CIRCLE
8
BLACK
10
-0.713511811023622
20
0.8243464566929134
40
0.0068897637795276
0
CIRCLE
8
BLACK
10
-0.813511811023622
20
0.7243464173228347
40
0.0068897637795276
0
CIRCLE
8
BLACK
10
-0.813511811023622
20
0.8243464960629922
40
0.0068897637795276
0
CIRCLE
8
BLACK
10
-0.913511811023622
20
0.7243464566929134
40
0.0068897637795276
0
CIRCLE
8
BLACK
10
-0.913511811023622
20
0.8243464566929134
40
0.0068897637795276
0
CIRCLE
8
BLACK
10
-0.8803149606299212
20
2.390748031496063
40
0.0068897637795276
0
CIRCLE
8
BLACK
10
-0.7803149606299212
20
2.390748031496063
40
0.0068897637795276
0
CIRCLE
8
BLACK
10
-0.8803149606299212
20
2.2907480314960629
40
0.0068897637795276
0
CIRCLE
8
BLACK
10
-0.7803149606299212
20
2.2907480314960629
40
0.0068897637795276
0
CIRCLE
8
BLACK
10
-0.8803149606299212
20
2.1907480314960628
40
0.0068897637795276
0
CIRCLE
8
BLACK
10
-0.7803149606299212
20
2.1907480314960628
40
0.0068897637795276
0
CIRCLE
8
BLACK
10
-0.8803149606299212
20
2.0907480314960631
40
0.0068897637795276
0
CIRCLE
8
BLACK
10
-0.7803149606299212
20
2.0907480314960631
40
0.0068897637795276
0
CIRCLE
8
BLACK
10
-0.8803149606299212
20
1.9907480314960631
40
0.0068897637795276
0
CIRCLE
8
BLACK
10
-0.7803149606299212
20
1.9907480314960631
40
0.0068897637795276
0
CIRCLE
8
BLACK
10
-0.8803149606299212
20
1.890748031496063
40
0.0068897637795276
0
CIRCLE
8
BLACK
10
-0.7803149606299212
20
1.890748031496063
40
0.0068897637795276
0
CIRCLE
8
BLACK
10
-0.8803149606299212
20
1.7907480314960629
40
0.0068897637795276
0
CIRCLE
8
BLACK
10
-0.7803149606299212
20
1.7907480314960629
40
0.0068897637795276
0
CIRCLE
8
BLACK
10
-0.8803149606299212
20
1.690748031496063
40
0.0068897637795276
0
CIRCLE
8
BLACK
10
-0.7803149606299212
20
1.690748031496063
40
0.0068897637795276
0
CIRCLE
8
BLACK
10
-0.8803149606299212
20
1.5907480314960629
40
0.0068897637795276
0
CIRCLE
8
BLACK
10
-0.7803149606299212
20
1.5907480314960629
40
0.0068897637795276
0
CIRCLE
8
BLACK
10
-0.8803149606299212
20
1.4907480314960631
40
0.0068897637795276
0
CIRCLE
8
BLACK
10
-0.7803149606299212
20
1.4907480314960631
40
0.0068897637795276
0
CIRCLE
8
BLACK
10
-0.8803149606299212
20
1.390748031496063
40
0.0068897637795276
0
CIRCLE
8
BLACK
10
-0.7803149606299212
20
1.390748031496063
40
0.0068897637795276
0
CIRCLE
8
BLACK
10
-0.8803149606299212
20
1.2907480314960629
40
0.0068897637795276
0
CIRCLE
8
BLACK
10
-0.7803149606299212
20
1.2907480314960629
40
0.0068897637795276
0
CIRCLE
8
BLACK
10
-0.8803149606299212
20
1.190748031496063
40
0.0068897637795276
0
CIRCLE
8
BLACK
10
-0.7803149606299212
20
1.190748031496063
40
0.0068897637795276
0
CIRCLE
8
BLACK
10
-0.8803149606299212
20
1.0907480314960629
40
0.0068897637795276
0
CIRCLE
8
BLACK
10
-0.7803149606299212
20
1.0907480314960629
40
0.0068897637795276
0
CIRCLE
8
BLACK
10
-0.8803149606299212
20
0.9907480314960629
40
0.0068897637795276
0
CIRCLE
8
BLACK
10
-0.7803149606299212
20
0.9907480314960629
40
0.0068897637795276
  0
ENDSEC
  0
EOF
