  0
SECTION
  2
HEADER
  9
$ANGBASE
  50
0.0
  9
$ANGDIR
  70
1
  9
$MEASUREMENT
  70
0
  0
ENDSEC
  0
SECTION
  2
TABLES
  0
TABLE
  2
LTYPE
  70
4
  0
LTYPE
  5
40F
  2
CONTINUOUS
  70
0
  3
Solid line
  72
65
  73
0
  40
0.0
  0
LTYPE
  5
410
  2
DASHDOT
 70
0
  3
Dash Dot ____ _ ____ _
 72
65
 73
4
 40
2.0
 49
1.25
 49
-0.25
 49
0.25
 49
-0.25
  0
LTYPE
  5
411
  2
DASHED
 70
0
  3
Dashed __ __ __ __ __
 72
65
 73
2
 40
0.75
 49
0.5
 49
-0.25
  0
LTYPE
  5
43B
  2
DOTTED
 70
0
  3
Dotted .  .  .  .
 72
65
 73
2
 40
0.2
 49
0.0
 49
-0.2
  0
ENDTAB
  0
TABLE
  2
STYLE
  70
4
  0
STYLE
  2
KICAD
  70
0
  40
0
  41
1
  42
1
  50
0
  71
0
  3
isocp.shx
  0
STYLE
  2
KICADB
  70
0
  40
0
  41
1
  42
1
  50
0
  71
0
  3
isocp.shx
  0
STYLE
  2
KICADI
  70
0
  40
0
  41
1
  42
1
  50
15
  71
0
  3
isocp.shx
  0
STYLE
  2
KICADBI
  70
0
  40
0
  41
1
  42
1
  50
15
  71
0
  3
isocp.shx
  0
ENDTAB
  0
TABLE
  2
LAYER
  70
1
  0
LAYER
  2
BLACK
  70
0
  62
7
  6
CONTINUOUS
  0
ENDTAB
  0
ENDSEC
  0
SECTION
  2
ENTITIES
0
LINE
8
BLACK
6
CONTINUOUS
10
-0.4139555511811023
20
0.3701356692913386
11
-0.4108422440944882
21
0.3680553937007874
0
LINE
8
BLACK
6
CONTINUOUS
10
-0.4108422440944882
20
0.3680553937007874
11
-0.408761968503937
21
0.3649420866141732
0
LINE
8
BLACK
6
CONTINUOUS
10
-0.408761968503937
20
0.3649420866141732
11
-0.4080314960629921
21
0.3612696850393701
0
LINE
8
BLACK
6
CONTINUOUS
10
-0.4080314960629921
20
0.3612696850393701
11
-0.4080314960629921
21
0.3253444881889764
0
LINE
8
BLACK
6
CONTINUOUS
10
-0.4080314960629921
20
0.3253444881889764
11
-0.408761968503937
21
0.3216720866141732
0
LINE
8
BLACK
6
CONTINUOUS
10
-0.408761968503937
20
0.3216720866141732
11
-0.4108422440944882
21
0.3185587795275591
0
LINE
8
BLACK
6
CONTINUOUS
10
-0.4108422440944882
20
0.3185587795275591
11
-0.4139555511811023
21
0.3164785039370079
0
LINE
8
BLACK
6
CONTINUOUS
10
-0.4139555511811023
20
0.3164785039370079
11
-0.4176279527559055
21
0.315748031496063
0
LINE
8
BLACK
6
CONTINUOUS
10
-0.4176279527559055
20
0.315748031496063
11
-0.4368208661417323
21
0.315748031496063
0
LINE
8
BLACK
6
CONTINUOUS
10
-0.4368208661417323
20
0.315748031496063
11
-0.4404932677165354
21
0.3164785039370079
0
LINE
8
BLACK
6
CONTINUOUS
10
-0.4404932677165354
20
0.3164785039370079
11
-0.4436065748031496
21
0.3185587795275591
0
LINE
8
BLACK
6
CONTINUOUS
10
-0.4436065748031496
20
0.3185587795275591
11
-0.4456868503937008
21
0.3216720866141732
0
LINE
8
BLACK
6
CONTINUOUS
10
-0.4456868503937008
20
0.3216720866141732
11
-0.4464173228346456
21
0.3253444881889764
0
LINE
8
BLACK
6
CONTINUOUS
10
-0.4464173228346456
20
0.3253444881889764
11
-0.4464173228346456
21
0.3612696850393701
0
LINE
8
BLACK
6
CONTINUOUS
10
-0.4464173228346456
20
0.3612696850393701
11
-0.4456868503937008
21
0.3649420866141732
0
LINE
8
BLACK
6
CONTINUOUS
10
-0.4456868503937008
20
0.3649420866141732
11
-0.4436065748031496
21
0.3680553937007874
0
LINE
8
BLACK
6
CONTINUOUS
10
-0.4436065748031496
20
0.3680553937007874
11
-0.4404932677165354
21
0.3701356692913386
0
LINE
8
BLACK
6
CONTINUOUS
10
-0.4404932677165354
20
0.3701356692913386
11
-0.4368208661417323
21
0.3708661417322834
0
LINE
8
BLACK
6
CONTINUOUS
10
-0.4368208661417323
20
0.3708661417322834
11
-0.4176279527559055
21
0.3708661417322834
0
LINE
8
BLACK
6
CONTINUOUS
10
-0.4176279527559055
20
0.3708661417322834
11
-0.4139555511811023
21
0.3701356692913386
0
LINE
8
BLACK
6
CONTINUOUS
10
-0.3401366535433071
20
0.3701356692913386
11
-0.3370233464566929
21
0.3680553937007874
0
LINE
8
BLACK
6
CONTINUOUS
10
-0.3370233464566929
20
0.3680553937007874
11
-0.3349430708661417
21
0.3649420866141732
0
LINE
8
BLACK
6
CONTINUOUS
10
-0.3349430708661417
20
0.3649420866141732
11
-0.3342125984251968
21
0.3612696850393701
0
LINE
8
BLACK
6
CONTINUOUS
10
-0.3342125984251968
20
0.3612696850393701
11
-0.3342125984251968
21
0.3253444881889764
0
LINE
8
BLACK
6
CONTINUOUS
10
-0.3342125984251968
20
0.3253444881889764
11
-0.3349430708661417
21
0.3216720866141732
0
LINE
8
BLACK
6
CONTINUOUS
10
-0.3349430708661417
20
0.3216720866141732
11
-0.3370233464566929
21
0.3185587795275591
0
LINE
8
BLACK
6
CONTINUOUS
10
-0.3370233464566929
20
0.3185587795275591
11
-0.3401366535433071
21
0.3164785039370079
0
LINE
8
BLACK
6
CONTINUOUS
10
-0.3401366535433071
20
0.3164785039370079
11
-0.3438090551181102
21
0.315748031496063
0
LINE
8
BLACK
6
CONTINUOUS
10
-0.3438090551181102
20
0.315748031496063
11
-0.363001968503937
21
0.315748031496063
0
LINE
8
BLACK
6
CONTINUOUS
10
-0.363001968503937
20
0.315748031496063
11
-0.3666743700787402
21
0.3164785039370079
0
LINE
8
BLACK
6
CONTINUOUS
10
-0.3666743700787402
20
0.3164785039370079
11
-0.3697876771653543
21
0.3185587795275591
0
LINE
8
BLACK
6
CONTINUOUS
10
-0.3697876771653543
20
0.3185587795275591
11
-0.3718679527559055
21
0.3216720866141732
0
LINE
8
BLACK
6
CONTINUOUS
10
-0.3718679527559055
20
0.3216720866141732
11
-0.3725984251968504
21
0.3253444881889764
0
LINE
8
BLACK
6
CONTINUOUS
10
-0.3725984251968504
20
0.3253444881889764
11
-0.3725984251968504
21
0.3612696850393701
0
LINE
8
BLACK
6
CONTINUOUS
10
-0.3725984251968504
20
0.3612696850393701
11
-0.3718679527559055
21
0.3649420866141732
0
LINE
8
BLACK
6
CONTINUOUS
10
-0.3718679527559055
20
0.3649420866141732
11
-0.3697876771653543
21
0.3680553937007874
0
LINE
8
BLACK
6
CONTINUOUS
10
-0.3697876771653543
20
0.3680553937007874
11
-0.3666743700787402
21
0.3701356692913386
0
LINE
8
BLACK
6
CONTINUOUS
10
-0.3666743700787402
20
0.3701356692913386
11
-0.363001968503937
21
0.3708661417322834
0
LINE
8
BLACK
6
CONTINUOUS
10
-0.363001968503937
20
0.3708661417322834
11
-0.3438090551181102
21
0.3708661417322834
0
LINE
8
BLACK
6
CONTINUOUS
10
-0.3438090551181102
20
0.3708661417322834
11
-0.3401366535433071
21
0.3701356692913386
0
LINE
8
BLACK
6
CONTINUOUS
10
-0.2748357874015748
20
0.3714948818897638
11
-0.2716426377952756
21
0.3693612992125984
0
LINE
8
BLACK
6
CONTINUOUS
10
-0.2716426377952756
20
0.3693612992125984
11
-0.2695090551181102
21
0.3661681496062992
0
LINE
8
BLACK
6
CONTINUOUS
10
-0.2695090551181102
20
0.3661681496062992
11
-0.268759842519685
21
0.3624015748031496
0
LINE
8
BLACK
6
CONTINUOUS
10
-0.268759842519685
20
0.3624015748031496
11
-0.268759842519685
21
0.3269685039370079
0
LINE
8
BLACK
6
CONTINUOUS
10
-0.268759842519685
20
0.3269685039370079
11
-0.2695090551181102
21
0.3232019291338583
0
LINE
8
BLACK
6
CONTINUOUS
10
-0.2695090551181102
20
0.3232019291338583
11
-0.2716426377952756
21
0.3200087795275591
0
LINE
8
BLACK
6
CONTINUOUS
10
-0.2716426377952756
20
0.3200087795275591
11
-0.2748357874015748
21
0.3178751968503937
0
LINE
8
BLACK
6
CONTINUOUS
10
-0.2748357874015748
20
0.3178751968503937
11
-0.2786023622047244
21
0.3171259842519685
0
LINE
8
BLACK
6
CONTINUOUS
10
-0.2786023622047244
20
0.3171259842519685
11
-0.2992716535433071
21
0.3171259842519685
0
LINE
8
BLACK
6
CONTINUOUS
10
-0.2992716535433071
20
0.3171259842519685
11
-0.3030382283464567
21
0.3178751968503937
0
LINE
8
BLACK
6
CONTINUOUS
10
-0.3030382283464567
20
0.3178751968503937
11
-0.3062313779527559
21
0.3200087795275591
0
LINE
8
BLACK
6
CONTINUOUS
10
-0.3062313779527559
20
0.3200087795275591
11
-0.3083649606299212
21
0.3232019291338583
0
LINE
8
BLACK
6
CONTINUOUS
10
-0.3083649606299212
20
0.3232019291338583
11
-0.3091141732283464
21
0.3269685039370079
0
LINE
8
BLACK
6
CONTINUOUS
10
-0.3091141732283464
20
0.3269685039370079
11
-0.3091141732283464
21
0.3624015748031496
0
LINE
8
BLACK
6
CONTINUOUS
10
-0.3091141732283464
20
0.3624015748031496
11
-0.3083649606299212
21
0.3661681496062992
0
LINE
8
BLACK
6
CONTINUOUS
10
-0.3083649606299212
20
0.3661681496062992
11
-0.3062313779527559
21
0.3693612992125984
0
LINE
8
BLACK
6
CONTINUOUS
10
-0.3062313779527559
20
0.3693612992125984
11
-0.3030382283464567
21
0.3714948818897638
0
LINE
8
BLACK
6
CONTINUOUS
10
-0.3030382283464567
20
0.3714948818897638
11
-0.2992716535433071
21
0.372244094488189
0
LINE
8
BLACK
6
CONTINUOUS
10
-0.2992716535433071
20
0.372244094488189
11
-0.2786023622047244
21
0.372244094488189
0
LINE
8
BLACK
6
CONTINUOUS
10
-0.2786023622047244
20
0.372244094488189
11
-0.2748357874015748
21
0.3714948818897638
0
LINE
8
BLACK
6
CONTINUOUS
10
-0.2029853937007874
20
0.3714948818897638
11
-0.1997922440944882
21
0.3693612992125984
0
LINE
8
BLACK
6
CONTINUOUS
10
-0.1997922440944882
20
0.3693612992125984
11
-0.1976586614173228
21
0.3661681496062992
0
LINE
8
BLACK
6
CONTINUOUS
10
-0.1976586614173228
20
0.3661681496062992
11
-0.1969094488188976
21
0.3624015748031496
0
LINE
8
BLACK
6
CONTINUOUS
10
-0.1969094488188976
20
0.3624015748031496
11
-0.1969094488188976
21
0.3269685039370079
0
LINE
8
BLACK
6
CONTINUOUS
10
-0.1969094488188976
20
0.3269685039370079
11
-0.1976586614173228
21
0.3232019291338583
0
LINE
8
BLACK
6
CONTINUOUS
10
-0.1976586614173228
20
0.3232019291338583
11
-0.1997922440944882
21
0.3200087795275591
0
LINE
8
BLACK
6
CONTINUOUS
10
-0.1997922440944882
20
0.3200087795275591
11
-0.2029853937007874
21
0.3178751968503937
0
LINE
8
BLACK
6
CONTINUOUS
10
-0.2029853937007874
20
0.3178751968503937
11
-0.206751968503937
21
0.3171259842519685
0
LINE
8
BLACK
6
CONTINUOUS
10
-0.206751968503937
20
0.3171259842519685
11
-0.2274212598425197
21
0.3171259842519685
0
LINE
8
BLACK
6
CONTINUOUS
10
-0.2274212598425197
20
0.3171259842519685
11
-0.2311878346456693
21
0.3178751968503937
0
LINE
8
BLACK
6
CONTINUOUS
10
-0.2311878346456693
20
0.3178751968503937
11
-0.2343809842519685
21
0.3200087795275591
0
LINE
8
BLACK
6
CONTINUOUS
10
-0.2343809842519685
20
0.3200087795275591
11
-0.2365145669291339
21
0.3232019291338583
0
LINE
8
BLACK
6
CONTINUOUS
10
-0.2365145669291339
20
0.3232019291338583
11
-0.2372637795275591
21
0.3269685039370079
0
LINE
8
BLACK
6
CONTINUOUS
10
-0.2372637795275591
20
0.3269685039370079
11
-0.2372637795275591
21
0.3624015748031496
0
LINE
8
BLACK
6
CONTINUOUS
10
-0.2372637795275591
20
0.3624015748031496
11
-0.2365145669291339
21
0.3661681496062992
0
LINE
8
BLACK
6
CONTINUOUS
10
-0.2365145669291339
20
0.3661681496062992
11
-0.2343809842519685
21
0.3693612992125984
0
LINE
8
BLACK
6
CONTINUOUS
10
-0.2343809842519685
20
0.3693612992125984
11
-0.2311878346456693
21
0.3714948818897638
0
LINE
8
BLACK
6
CONTINUOUS
10
-0.2311878346456693
20
0.3714948818897638
11
-0.2274212598425197
21
0.372244094488189
0
LINE
8
BLACK
6
CONTINUOUS
10
-0.2274212598425197
20
0.372244094488189
11
-0.206751968503937
21
0.372244094488189
0
LINE
8
BLACK
6
CONTINUOUS
10
-0.206751968503937
20
0.372244094488189
11
-0.2029853937007874
21
0.3714948818897638
0
LINE
8
BLACK
6
CONTINUOUS
10
-0.4139555511811023
20
0.4898207086614173
11
-0.4108422440944882
21
0.4877404330708661
0
LINE
8
BLACK
6
CONTINUOUS
10
-0.4108422440944882
20
0.4877404330708661
11
-0.408761968503937
21
0.4846271259842519
0
LINE
8
BLACK
6
CONTINUOUS
10
-0.408761968503937
20
0.4846271259842519
11
-0.4080314960629921
21
0.4809547244094488
0
LINE
8
BLACK
6
CONTINUOUS
10
-0.4080314960629921
20
0.4809547244094488
11
-0.4080314960629921
21
0.4450295275590551
0
LINE
8
BLACK
6
CONTINUOUS
10
-0.4080314960629921
20
0.4450295275590551
11
-0.408761968503937
21
0.441357125984252
0
LINE
8
BLACK
6
CONTINUOUS
10
-0.408761968503937
20
0.441357125984252
11
-0.4108422440944882
21
0.4382438188976378
0
LINE
8
BLACK
6
CONTINUOUS
10
-0.4108422440944882
20
0.4382438188976378
11
-0.4139555511811023
21
0.4361635433070866
0
LINE
8
BLACK
6
CONTINUOUS
10
-0.4139555511811023
20
0.4361635433070866
11
-0.4176279527559055
21
0.4354330708661417
0
LINE
8
BLACK
6
CONTINUOUS
10
-0.4176279527559055
20
0.4354330708661417
11
-0.4368208661417323
21
0.4354330708661417
0
LINE
8
BLACK
6
CONTINUOUS
10
-0.4368208661417323
20
0.4354330708661417
11
-0.4404932677165354
21
0.4361635433070866
0
LINE
8
BLACK
6
CONTINUOUS
10
-0.4404932677165354
20
0.4361635433070866
11
-0.4436065748031496
21
0.4382438188976378
0
LINE
8
BLACK
6
CONTINUOUS
10
-0.4436065748031496
20
0.4382438188976378
11
-0.4456868503937008
21
0.441357125984252
0
LINE
8
BLACK
6
CONTINUOUS
10
-0.4456868503937008
20
0.441357125984252
11
-0.4464173228346456
21
0.4450295275590551
0
LINE
8
BLACK
6
CONTINUOUS
10
-0.4464173228346456
20
0.4450295275590551
11
-0.4464173228346456
21
0.4809547244094488
0
LINE
8
BLACK
6
CONTINUOUS
10
-0.4464173228346456
20
0.4809547244094488
11
-0.4456868503937008
21
0.4846271259842519
0
LINE
8
BLACK
6
CONTINUOUS
10
-0.4456868503937008
20
0.4846271259842519
11
-0.4436065748031496
21
0.4877404330708661
0
LINE
8
BLACK
6
CONTINUOUS
10
-0.4436065748031496
20
0.4877404330708661
11
-0.4404932677165354
21
0.4898207086614173
0
LINE
8
BLACK
6
CONTINUOUS
10
-0.4404932677165354
20
0.4898207086614173
11
-0.4368208661417323
21
0.4905511811023622
0
LINE
8
BLACK
6
CONTINUOUS
10
-0.4368208661417323
20
0.4905511811023622
11
-0.4176279527559055
21
0.4905511811023622
0
LINE
8
BLACK
6
CONTINUOUS
10
-0.4176279527559055
20
0.4905511811023622
11
-0.4139555511811023
21
0.4898207086614173
0
LINE
8
BLACK
6
CONTINUOUS
10
-0.3401366535433071
20
0.4898207086614173
11
-0.3370233464566929
21
0.4877404330708661
0
LINE
8
BLACK
6
CONTINUOUS
10
-0.3370233464566929
20
0.4877404330708661
11
-0.3349430708661417
21
0.4846271259842519
0
LINE
8
BLACK
6
CONTINUOUS
10
-0.3349430708661417
20
0.4846271259842519
11
-0.3342125984251968
21
0.4809547244094488
0
LINE
8
BLACK
6
CONTINUOUS
10
-0.3342125984251968
20
0.4809547244094488
11
-0.3342125984251968
21
0.4450295275590551
0
LINE
8
BLACK
6
CONTINUOUS
10
-0.3342125984251968
20
0.4450295275590551
11
-0.3349430708661417
21
0.441357125984252
0
LINE
8
BLACK
6
CONTINUOUS
10
-0.3349430708661417
20
0.441357125984252
11
-0.3370233464566929
21
0.4382438188976378
0
LINE
8
BLACK
6
CONTINUOUS
10
-0.3370233464566929
20
0.4382438188976378
11
-0.3401366535433071
21
0.4361635433070866
0
LINE
8
BLACK
6
CONTINUOUS
10
-0.3401366535433071
20
0.4361635433070866
11
-0.3438090551181102
21
0.4354330708661417
0
LINE
8
BLACK
6
CONTINUOUS
10
-0.3438090551181102
20
0.4354330708661417
11
-0.363001968503937
21
0.4354330708661417
0
LINE
8
BLACK
6
CONTINUOUS
10
-0.363001968503937
20
0.4354330708661417
11
-0.3666743700787402
21
0.4361635433070866
0
LINE
8
BLACK
6
CONTINUOUS
10
-0.3666743700787402
20
0.4361635433070866
11
-0.3697876771653543
21
0.4382438188976378
0
LINE
8
BLACK
6
CONTINUOUS
10
-0.3697876771653543
20
0.4382438188976378
11
-0.3718679527559055
21
0.441357125984252
0
LINE
8
BLACK
6
CONTINUOUS
10
-0.3718679527559055
20
0.441357125984252
11
-0.3725984251968504
21
0.4450295275590551
0
LINE
8
BLACK
6
CONTINUOUS
10
-0.3725984251968504
20
0.4450295275590551
11
-0.3725984251968504
21
0.4809547244094488
0
LINE
8
BLACK
6
CONTINUOUS
10
-0.3725984251968504
20
0.4809547244094488
11
-0.3718679527559055
21
0.4846271259842519
0
LINE
8
BLACK
6
CONTINUOUS
10
-0.3718679527559055
20
0.4846271259842519
11
-0.3697876771653543
21
0.4877404330708661
0
LINE
8
BLACK
6
CONTINUOUS
10
-0.3697876771653543
20
0.4877404330708661
11
-0.3666743700787402
21
0.4898207086614173
0
LINE
8
BLACK
6
CONTINUOUS
10
-0.3666743700787402
20
0.4898207086614173
11
-0.363001968503937
21
0.4905511811023622
0
LINE
8
BLACK
6
CONTINUOUS
10
-0.363001968503937
20
0.4905511811023622
11
-0.3438090551181102
21
0.4905511811023622
0
LINE
8
BLACK
6
CONTINUOUS
10
-0.3438090551181102
20
0.4905511811023622
11
-0.3401366535433071
21
0.4898207086614173
0
LINE
8
BLACK
6
CONTINUOUS
10
-0.2748357874015748
20
0.4915736220472441
11
-0.2716426377952756
21
0.4894400393700787
0
LINE
8
BLACK
6
CONTINUOUS
10
-0.2716426377952756
20
0.4894400393700787
11
-0.2695090551181102
21
0.4862468897637795
0
LINE
8
BLACK
6
CONTINUOUS
10
-0.2695090551181102
20
0.4862468897637795
11
-0.268759842519685
21
0.4824803149606299
0
LINE
8
BLACK
6
CONTINUOUS
10
-0.268759842519685
20
0.4824803149606299
11
-0.268759842519685
21
0.4470472440944882
0
LINE
8
BLACK
6
CONTINUOUS
10
-0.268759842519685
20
0.4470472440944882
11
-0.2695090551181102
21
0.4432806692913386
0
LINE
8
BLACK
6
CONTINUOUS
10
-0.2695090551181102
20
0.4432806692913386
11
-0.2716426377952756
21
0.4400875196850393
0
LINE
8
BLACK
6
CONTINUOUS
10
-0.2716426377952756
20
0.4400875196850393
11
-0.2748357874015748
21
0.437953937007874
0
LINE
8
BLACK
6
CONTINUOUS
10
-0.2748357874015748
20
0.437953937007874
11
-0.2786023622047244
21
0.4372047244094488
0
LINE
8
BLACK
6
CONTINUOUS
10
-0.2786023622047244
20
0.4372047244094488
11
-0.2992716535433071
21
0.4372047244094488
0
LINE
8
BLACK
6
CONTINUOUS
10
-0.2992716535433071
20
0.4372047244094488
11
-0.3030382283464567
21
0.437953937007874
0
LINE
8
BLACK
6
CONTINUOUS
10
-0.3030382283464567
20
0.437953937007874
11
-0.3062313779527559
21
0.4400875196850393
0
LINE
8
BLACK
6
CONTINUOUS
10
-0.3062313779527559
20
0.4400875196850393
11
-0.3083649606299212
21
0.4432806692913386
0
LINE
8
BLACK
6
CONTINUOUS
10
-0.3083649606299212
20
0.4432806692913386
11
-0.3091141732283464
21
0.4470472440944882
0
LINE
8
BLACK
6
CONTINUOUS
10
-0.3091141732283464
20
0.4470472440944882
11
-0.3091141732283464
21
0.4824803149606299
0
LINE
8
BLACK
6
CONTINUOUS
10
-0.3091141732283464
20
0.4824803149606299
11
-0.3083649606299212
21
0.4862468897637795
0
LINE
8
BLACK
6
CONTINUOUS
10
-0.3083649606299212
20
0.4862468897637795
11
-0.3062313779527559
21
0.4894400393700787
0
LINE
8
BLACK
6
CONTINUOUS
10
-0.3062313779527559
20
0.4894400393700787
11
-0.3030382283464567
21
0.4915736220472441
0
LINE
8
BLACK
6
CONTINUOUS
10
-0.3030382283464567
20
0.4915736220472441
11
-0.2992716535433071
21
0.4923228346456693
0
LINE
8
BLACK
6
CONTINUOUS
10
-0.2992716535433071
20
0.4923228346456693
11
-0.2786023622047244
21
0.4923228346456693
0
LINE
8
BLACK
6
CONTINUOUS
10
-0.2786023622047244
20
0.4923228346456693
11
-0.2748357874015748
21
0.4915736220472441
0
LINE
8
BLACK
6
CONTINUOUS
10
-0.2029853937007874
20
0.4915736220472441
11
-0.1997922440944882
21
0.4894400393700787
0
LINE
8
BLACK
6
CONTINUOUS
10
-0.1997922440944882
20
0.4894400393700787
11
-0.1976586614173228
21
0.4862468897637795
0
LINE
8
BLACK
6
CONTINUOUS
10
-0.1976586614173228
20
0.4862468897637795
11
-0.1969094488188976
21
0.4824803149606299
0
LINE
8
BLACK
6
CONTINUOUS
10
-0.1969094488188976
20
0.4824803149606299
11
-0.1969094488188976
21
0.4470472440944882
0
LINE
8
BLACK
6
CONTINUOUS
10
-0.1969094488188976
20
0.4470472440944882
11
-0.1976586614173228
21
0.4432806692913386
0
LINE
8
BLACK
6
CONTINUOUS
10
-0.1976586614173228
20
0.4432806692913386
11
-0.1997922440944882
21
0.4400875196850393
0
LINE
8
BLACK
6
CONTINUOUS
10
-0.1997922440944882
20
0.4400875196850393
11
-0.2029853937007874
21
0.437953937007874
0
LINE
8
BLACK
6
CONTINUOUS
10
-0.2029853937007874
20
0.437953937007874
11
-0.206751968503937
21
0.4372047244094488
0
LINE
8
BLACK
6
CONTINUOUS
10
-0.206751968503937
20
0.4372047244094488
11
-0.2274212598425197
21
0.4372047244094488
0
LINE
8
BLACK
6
CONTINUOUS
10
-0.2274212598425197
20
0.4372047244094488
11
-0.2311878346456693
21
0.437953937007874
0
LINE
8
BLACK
6
CONTINUOUS
10
-0.2311878346456693
20
0.437953937007874
11
-0.2343809842519685
21
0.4400875196850393
0
LINE
8
BLACK
6
CONTINUOUS
10
-0.2343809842519685
20
0.4400875196850393
11
-0.2365145669291339
21
0.4432806692913386
0
LINE
8
BLACK
6
CONTINUOUS
10
-0.2365145669291339
20
0.4432806692913386
11
-0.2372637795275591
21
0.4470472440944882
0
LINE
8
BLACK
6
CONTINUOUS
10
-0.2372637795275591
20
0.4470472440944882
11
-0.2372637795275591
21
0.4824803149606299
0
LINE
8
BLACK
6
CONTINUOUS
10
-0.2372637795275591
20
0.4824803149606299
11
-0.2365145669291339
21
0.4862468897637795
0
LINE
8
BLACK
6
CONTINUOUS
10
-0.2365145669291339
20
0.4862468897637795
11
-0.2343809842519685
21
0.4894400393700787
0
LINE
8
BLACK
6
CONTINUOUS
10
-0.2343809842519685
20
0.4894400393700787
11
-0.2311878346456693
21
0.4915736220472441
0
LINE
8
BLACK
6
CONTINUOUS
10
-0.2311878346456693
20
0.4915736220472441
11
-0.2274212598425197
21
0.4923228346456693
0
LINE
8
BLACK
6
CONTINUOUS
10
-0.2274212598425197
20
0.4923228346456693
11
-0.206751968503937
21
0.4923228346456693
0
LINE
8
BLACK
6
CONTINUOUS
10
-0.206751968503937
20
0.4923228346456693
11
-0.2029853937007874
21
0.4915736220472441
  0
ENDSEC
  0
EOF
