  0
SECTION
  2
HEADER
  9
$ANGBASE
  50
0.0
  9
$ANGDIR
  70
1
  9
$MEASUREMENT
  70
0
  0
ENDSEC
  0
SECTION
  2
TABLES
  0
TABLE
  2
LTYPE
  70
4
  0
LTYPE
  5
40F
  2
CONTINUOUS
  70
0
  3
Solid line
  72
65
  73
0
  40
0.0
  0
LTYPE
  5
410
  2
DASHDOT
 70
0
  3
Dash Dot ____ _ ____ _
 72
65
 73
4
 40
2.0
 49
1.25
 49
-0.25
 49
0.25
 49
-0.25
  0
LTYPE
  5
411
  2
DASHED
 70
0
  3
Dashed __ __ __ __ __
 72
65
 73
2
 40
0.75
 49
0.5
 49
-0.25
  0
LTYPE
  5
43B
  2
DOTTED
 70
0
  3
Dotted .  .  .  .
 72
65
 73
2
 40
0.2
 49
0.0
 49
-0.2
  0
ENDTAB
  0
TABLE
  2
STYLE
  70
4
  0
STYLE
  2
KICAD
  70
0
  40
0
  41
1
  42
1
  50
0
  71
0
  3
isocp.shx
  0
STYLE
  2
KICADB
  70
0
  40
0
  41
1
  42
1
  50
0
  71
0
  3
isocp.shx
  0
STYLE
  2
KICADI
  70
0
  40
0
  41
1
  42
1
  50
15
  71
0
  3
isocp.shx
  0
STYLE
  2
KICADBI
  70
0
  40
0
  41
1
  42
1
  50
15
  71
0
  3
isocp.shx
  0
ENDTAB
  0
TABLE
  2
LAYER
  70
1
  0
LAYER
  2
BLACK
  70
0
  62
7
  6
CONTINUOUS
  0
ENDTAB
  0
ENDSEC
  0
SECTION
  2
ENTITIES
0
LINE
8
BLACK
6
CONTINUOUS
10
0.0780109
20
3.41411
11
0.0781462
21
3.41399
0
LINE
8
BLACK
6
CONTINUOUS
10
0.0781462
20
3.41399
11
0.0783215
21
3.41397
0
LINE
8
BLACK
6
CONTINUOUS
10
0.0783215
20
3.41397
11
0.0820711
21
3.4121
0
LINE
8
BLACK
6
CONTINUOUS
10
0.0820711
20
3.4121
11
0.0827801
21
3.41157
0
LINE
8
BLACK
6
CONTINUOUS
10
0.0827801
20
3.41157
11
0.0828385
21
3.41155
0
LINE
8
BLACK
6
CONTINUOUS
10
0.0828385
20
3.41155
11
0.0847132
21
3.40967
0
LINE
8
BLACK
6
CONTINUOUS
10
0.0847132
20
3.40967
11
0.0852195
21
3.40895
0
LINE
8
BLACK
6
CONTINUOUS
10
0.0852195
20
3.40895
11
0.0852663
21
3.4089
0
LINE
8
BLACK
6
CONTINUOUS
10
0.0852663
20
3.4089
11
0.0871411
21
3.40515
0
LINE
8
BLACK
6
CONTINUOUS
10
0.0871411
20
3.40515
11
0.0874335
21
3.40417
0
LINE
8
BLACK
6
CONTINUOUS
10
0.0874335
20
3.40417
11
0.0873924
21
3.404
0
LINE
8
BLACK
6
CONTINUOUS
10
0.0873924
20
3.404
11
0.0874528
21
3.40383
0
LINE
8
BLACK
6
CONTINUOUS
10
0.0874528
20
3.40383
11
0.0874528
21
3.39258
0
LINE
8
BLACK
6
CONTINUOUS
10
0.0874528
20
3.39258
11
0.0872748
21
3.39158
0
LINE
8
BLACK
6
CONTINUOUS
10
0.0872748
20
3.39158
11
0.0871613
21
3.39144
0
LINE
8
BLACK
6
CONTINUOUS
10
0.0871613
20
3.39144
11
0.0871411
21
3.39126
0
LINE
8
BLACK
6
CONTINUOUS
10
0.0871411
20
3.39126
11
0.0852663
21
3.38751
0
LINE
8
BLACK
6
CONTINUOUS
10
0.0852663
20
3.38751
11
0.0847404
21
3.38681
0
LINE
8
BLACK
6
CONTINUOUS
10
0.0847404
20
3.38681
11
0.0847132
21
3.38675
0
LINE
8
BLACK
6
CONTINUOUS
10
0.0847132
20
3.38675
11
0.0828385
21
3.38487
0
LINE
8
BLACK
6
CONTINUOUS
10
0.0828385
20
3.38487
11
0.0821153
21
3.38437
0
LINE
8
BLACK
6
CONTINUOUS
10
0.0821153
20
3.38437
11
0.0820711
21
3.38432
0
LINE
8
BLACK
6
CONTINUOUS
10
0.0820711
20
3.38432
11
0.0783215
21
3.38244
0
LINE
8
BLACK
6
CONTINUOUS
10
0.0783215
20
3.38244
11
0.0773386
21
3.38215
0
LINE
8
BLACK
6
CONTINUOUS
10
0.0773386
20
3.38215
11
0.0771669
21
3.38219
0
LINE
8
BLACK
6
CONTINUOUS
10
0.0771669
20
3.38219
11
0.077001
21
3.38213
0
LINE
8
BLACK
6
CONTINUOUS
10
0.077001
20
3.38213
11
0.0713767
21
3.38213
0
LINE
8
BLACK
6
CONTINUOUS
10
0.0713767
20
3.38213
11
0.0703668
21
3.38231
0
LINE
8
BLACK
6
CONTINUOUS
10
0.0703668
20
3.38231
11
0.0702315
21
3.38242
0
LINE
8
BLACK
6
CONTINUOUS
10
0.0702315
20
3.38242
11
0.0700562
21
3.38244
0
LINE
8
BLACK
6
CONTINUOUS
10
0.0700562
20
3.38244
11
0.0663067
21
3.38432
0
LINE
8
BLACK
6
CONTINUOUS
10
0.0663067
20
3.38432
11
0.0655976
21
3.38485
0
LINE
8
BLACK
6
CONTINUOUS
10
0.0655976
20
3.38485
11
0.0655393
21
3.38487
0
LINE
8
BLACK
6
CONTINUOUS
10
0.0655393
20
3.38487
11
0.0636645
21
3.38675
0
LINE
8
BLACK
6
CONTINUOUS
10
0.0636645
20
3.38675
11
0.0631582
21
3.38747
0
LINE
8
BLACK
6
CONTINUOUS
10
0.0631582
20
3.38747
11
0.0631114
21
3.38751
0
LINE
8
BLACK
6
CONTINUOUS
10
0.0631114
20
3.38751
11
0.0612367
21
3.39126
0
LINE
8
BLACK
6
CONTINUOUS
10
0.0612367
20
3.39126
11
0.0609443
21
3.39225
0
LINE
8
BLACK
6
CONTINUOUS
10
0.0609443
20
3.39225
11
0.0609853
21
3.39242
0
LINE
8
BLACK
6
CONTINUOUS
10
0.0609853
20
3.39242
11
0.0609249
21
3.39258
0
LINE
8
BLACK
6
CONTINUOUS
10
0.0609249
20
3.39258
11
0.0609249
21
3.40383
0
LINE
8
BLACK
6
CONTINUOUS
10
0.0609249
20
3.40383
11
0.061103
21
3.40484
0
LINE
8
BLACK
6
CONTINUOUS
10
0.061103
20
3.40484
11
0.0612165
21
3.40498
0
LINE
8
BLACK
6
CONTINUOUS
10
0.0612165
20
3.40498
11
0.0612367
21
3.40515
0
LINE
8
BLACK
6
CONTINUOUS
10
0.0612367
20
3.40515
11
0.0631114
21
3.4089
0
LINE
8
BLACK
6
CONTINUOUS
10
0.0631114
20
3.4089
11
0.0636373
21
3.40961
0
LINE
8
BLACK
6
CONTINUOUS
10
0.0636373
20
3.40961
11
0.0636645
21
3.40967
0
LINE
8
BLACK
6
CONTINUOUS
10
0.0636645
20
3.40967
11
0.0655393
21
3.41155
0
LINE
8
BLACK
6
CONTINUOUS
10
0.0655393
20
3.41155
11
0.0662624
21
3.41205
0
LINE
8
BLACK
6
CONTINUOUS
10
0.0662624
20
3.41205
11
0.0663067
21
3.4121
0
LINE
8
BLACK
6
CONTINUOUS
10
0.0663067
20
3.4121
11
0.0700562
21
3.41397
0
LINE
8
BLACK
6
CONTINUOUS
10
0.0700562
20
3.41397
11
0.0710391
21
3.41427
0
LINE
8
BLACK
6
CONTINUOUS
10
0.0710391
20
3.41427
11
0.0712108
21
3.41423
0
LINE
8
BLACK
6
CONTINUOUS
10
0.0712108
20
3.41423
11
0.0713767
21
3.41429
0
LINE
8
BLACK
6
CONTINUOUS
10
0.0713767
20
3.41429
11
0.077001
21
3.41429
0
LINE
8
BLACK
6
CONTINUOUS
10
0.077001
20
3.41429
11
0.0780109
21
3.41411
0
LINE
8
BLACK
6
CONTINUOUS
10
0.0693763
20
3.40703
11
0.0681792
21
3.40583
0
LINE
8
BLACK
6
CONTINUOUS
10
0.0681792
20
3.40583
11
0.0668304
21
3.40314
0
LINE
8
BLACK
6
CONTINUOUS
10
0.0668304
20
3.40314
11
0.0668304
21
3.39328
0
LINE
8
BLACK
6
CONTINUOUS
10
0.0668304
20
3.39328
11
0.0681792
21
3.39058
0
LINE
8
BLACK
6
CONTINUOUS
10
0.0681792
20
3.39058
11
0.0693763
21
3.38939
0
LINE
8
BLACK
6
CONTINUOUS
10
0.0693763
20
3.38939
11
0.0720738
21
3.38804
0
LINE
8
BLACK
6
CONTINUOUS
10
0.0720738
20
3.38804
11
0.076304
21
3.38804
0
LINE
8
BLACK
6
CONTINUOUS
10
0.076304
20
3.38804
11
0.0790014
21
3.38939
0
LINE
8
BLACK
6
CONTINUOUS
10
0.0790014
20
3.38939
11
0.0801985
21
3.39058
0
LINE
8
BLACK
6
CONTINUOUS
10
0.0801985
20
3.39058
11
0.0815473
21
3.39328
0
LINE
8
BLACK
6
CONTINUOUS
10
0.0815473
20
3.39328
11
0.0815473
21
3.40314
0
LINE
8
BLACK
6
CONTINUOUS
10
0.0815473
20
3.40314
11
0.0801986
21
3.40583
0
LINE
8
BLACK
6
CONTINUOUS
10
0.0801986
20
3.40583
11
0.0790015
21
3.40703
0
LINE
8
BLACK
6
CONTINUOUS
10
0.0790015
20
3.40703
11
0.076304
21
3.40838
0
LINE
8
BLACK
6
CONTINUOUS
10
0.076304
20
3.40838
11
0.0720738
21
3.40838
0
LINE
8
BLACK
6
CONTINUOUS
10
0.0720738
20
3.40838
11
0.0693763
21
3.40703
0
LINE
8
BLACK
6
CONTINUOUS
10
0.120508
20
3.42635
11
0.121199
21
3.42446
0
LINE
8
BLACK
6
CONTINUOUS
10
0.121199
20
3.42446
11
0.121199
21
3.38509
0
LINE
8
BLACK
6
CONTINUOUS
10
0.121199
20
3.38509
11
0.121021
21
3.38408
0
LINE
8
BLACK
6
CONTINUOUS
10
0.121021
20
3.38408
11
0.119722
21
3.38253
0
LINE
8
BLACK
6
CONTINUOUS
10
0.119722
20
3.38253
11
0.117733
21
3.38218
0
LINE
8
BLACK
6
CONTINUOUS
10
0.117733
20
3.38218
11
0.116596
21
3.38283
0
LINE
8
BLACK
6
CONTINUOUS
10
0.116596
20
3.38283
11
0.115817
21
3.38244
0
LINE
8
BLACK
6
CONTINUOUS
10
0.115817
20
3.38244
11
0.114834
21
3.38215
0
LINE
8
BLACK
6
CONTINUOUS
10
0.114834
20
3.38215
11
0.114662
21
3.38219
0
LINE
8
BLACK
6
CONTINUOUS
10
0.114662
20
3.38219
11
0.114496
21
3.38213
0
LINE
8
BLACK
6
CONTINUOUS
10
0.114496
20
3.38213
11
0.106997
21
3.38213
0
LINE
8
BLACK
6
CONTINUOUS
10
0.106997
20
3.38213
11
0.105987
21
3.38231
0
LINE
8
BLACK
6
CONTINUOUS
10
0.105987
20
3.38231
11
0.105852
21
3.38242
0
LINE
8
BLACK
6
CONTINUOUS
10
0.105852
20
3.38242
11
0.105677
21
3.38244
0
LINE
8
BLACK
6
CONTINUOUS
10
0.105677
20
3.38244
11
0.101927
21
3.38432
0
LINE
8
BLACK
6
CONTINUOUS
10
0.101927
20
3.38432
11
0.101218
21
3.38485
0
LINE
8
BLACK
6
CONTINUOUS
10
0.101218
20
3.38485
11
0.10116
21
3.38487
0
LINE
8
BLACK
6
CONTINUOUS
10
0.10116
20
3.38487
11
0.099285
21
3.38675
0
LINE
8
BLACK
6
CONTINUOUS
10
0.099285
20
3.38675
11
0.0987787
21
3.38747
0
LINE
8
BLACK
6
CONTINUOUS
10
0.0987787
20
3.38747
11
0.098732
21
3.38751
0
LINE
8
BLACK
6
CONTINUOUS
10
0.098732
20
3.38751
11
0.0968572
21
3.39126
0
LINE
8
BLACK
6
CONTINUOUS
10
0.0968572
20
3.39126
11
0.0965648
21
3.39225
0
LINE
8
BLACK
6
CONTINUOUS
10
0.0965648
20
3.39225
11
0.0966058
21
3.39242
0
LINE
8
BLACK
6
CONTINUOUS
10
0.0966058
20
3.39242
11
0.0965455
21
3.39258
0
LINE
8
BLACK
6
CONTINUOUS
10
0.0965455
20
3.39258
11
0.0965455
21
3.40383
0
LINE
8
BLACK
6
CONTINUOUS
10
0.0965455
20
3.40383
11
0.0967235
21
3.40484
0
LINE
8
BLACK
6
CONTINUOUS
10
0.0967235
20
3.40484
11
0.096837
21
3.40498
0
LINE
8
BLACK
6
CONTINUOUS
10
0.096837
20
3.40498
11
0.0968572
21
3.40515
0
LINE
8
BLACK
6
CONTINUOUS
10
0.0968572
20
3.40515
11
0.098732
21
3.4089
0
LINE
8
BLACK
6
CONTINUOUS
10
0.098732
20
3.4089
11
0.0992579
21
3.40961
0
LINE
8
BLACK
6
CONTINUOUS
10
0.0992579
20
3.40961
11
0.0992851
21
3.40967
0
LINE
8
BLACK
6
CONTINUOUS
10
0.0992851
20
3.40967
11
0.10116
21
3.41155
0
LINE
8
BLACK
6
CONTINUOUS
10
0.10116
20
3.41155
11
0.101883
21
3.41205
0
LINE
8
BLACK
6
CONTINUOUS
10
0.101883
20
3.41205
11
0.101927
21
3.4121
0
LINE
8
BLACK
6
CONTINUOUS
10
0.101927
20
3.4121
11
0.105677
21
3.41397
0
LINE
8
BLACK
6
CONTINUOUS
10
0.105677
20
3.41397
11
0.10666
21
3.41427
0
LINE
8
BLACK
6
CONTINUOUS
10
0.10666
20
3.41427
11
0.106831
21
3.41423
0
LINE
8
BLACK
6
CONTINUOUS
10
0.106831
20
3.41423
11
0.106997
21
3.41429
0
LINE
8
BLACK
6
CONTINUOUS
10
0.106997
20
3.41429
11
0.114496
21
3.41429
0
LINE
8
BLACK
6
CONTINUOUS
10
0.114496
20
3.41429
11
0.115293
21
3.41414
0
LINE
8
BLACK
6
CONTINUOUS
10
0.115293
20
3.41414
11
0.115293
21
3.42446
0
LINE
8
BLACK
6
CONTINUOUS
10
0.115293
20
3.42446
11
0.115471
21
3.42547
0
LINE
8
BLACK
6
CONTINUOUS
10
0.115471
20
3.42547
11
0.116769
21
3.42701
0
LINE
8
BLACK
6
CONTINUOUS
10
0.116769
20
3.42701
11
0.118759
21
3.42736
0
LINE
8
BLACK
6
CONTINUOUS
10
0.118759
20
3.42736
11
0.120508
21
3.42635
0
LINE
8
BLACK
6
CONTINUOUS
10
0.104997
20
3.40703
11
0.1038
21
3.40583
0
LINE
8
BLACK
6
CONTINUOUS
10
0.1038
20
3.40583
11
0.102451
21
3.40314
0
LINE
8
BLACK
6
CONTINUOUS
10
0.102451
20
3.40314
11
0.102451
21
3.39328
0
LINE
8
BLACK
6
CONTINUOUS
10
0.102451
20
3.39328
11
0.1038
21
3.39058
0
LINE
8
BLACK
6
CONTINUOUS
10
0.1038
20
3.39058
11
0.104997
21
3.38939
0
LINE
8
BLACK
6
CONTINUOUS
10
0.104997
20
3.38939
11
0.107694
21
3.38804
0
LINE
8
BLACK
6
CONTINUOUS
10
0.107694
20
3.38804
11
0.113799
21
3.38804
0
LINE
8
BLACK
6
CONTINUOUS
10
0.113799
20
3.38804
11
0.115293
21
3.38879
0
LINE
8
BLACK
6
CONTINUOUS
10
0.115293
20
3.38879
11
0.115293
21
3.40763
0
LINE
8
BLACK
6
CONTINUOUS
10
0.115293
20
3.40763
11
0.113799
21
3.40838
0
LINE
8
BLACK
6
CONTINUOUS
10
0.113799
20
3.40838
11
0.107694
21
3.40838
0
LINE
8
BLACK
6
CONTINUOUS
10
0.107694
20
3.40838
11
0.104997
21
3.40703
0
LINE
8
BLACK
6
CONTINUOUS
10
0.156128
20
3.41323
11
0.156819
21
3.41133
0
LINE
8
BLACK
6
CONTINUOUS
10
0.156819
20
3.41133
11
0.156819
21
3.38509
0
LINE
8
BLACK
6
CONTINUOUS
10
0.156819
20
3.38509
11
0.156641
21
3.38408
0
LINE
8
BLACK
6
CONTINUOUS
10
0.156641
20
3.38408
11
0.155343
21
3.38253
0
LINE
8
BLACK
6
CONTINUOUS
10
0.155343
20
3.38253
11
0.153354
21
3.38218
0
LINE
8
BLACK
6
CONTINUOUS
10
0.153354
20
3.38218
11
0.151604
21
3.38319
0
LINE
8
BLACK
6
CONTINUOUS
10
0.151604
20
3.38319
11
0.151519
21
3.38342
0
LINE
8
BLACK
6
CONTINUOUS
10
0.151519
20
3.38342
11
0.149563
21
3.38244
0
LINE
8
BLACK
6
CONTINUOUS
10
0.149563
20
3.38244
11
0.14858
21
3.38215
0
LINE
8
BLACK
6
CONTINUOUS
10
0.14858
20
3.38215
11
0.148408
21
3.38219
0
LINE
8
BLACK
6
CONTINUOUS
10
0.148408
20
3.38219
11
0.148242
21
3.38213
0
LINE
8
BLACK
6
CONTINUOUS
10
0.148242
20
3.38213
11
0.142618
21
3.38213
0
LINE
8
BLACK
6
CONTINUOUS
10
0.142618
20
3.38213
11
0.141608
21
3.38231
0
LINE
8
BLACK
6
CONTINUOUS
10
0.141608
20
3.38231
11
0.141473
21
3.38242
0
LINE
8
BLACK
6
CONTINUOUS
10
0.141473
20
3.38242
11
0.141297
21
3.38244
0
LINE
8
BLACK
6
CONTINUOUS
10
0.141297
20
3.38244
11
0.137548
21
3.38432
0
LINE
8
BLACK
6
CONTINUOUS
10
0.137548
20
3.38432
11
0.136724
21
3.38493
0
LINE
8
BLACK
6
CONTINUOUS
10
0.136724
20
3.38493
11
0.136548
21
3.38534
0
LINE
8
BLACK
6
CONTINUOUS
10
0.136548
20
3.38534
11
0.136227
21
3.38564
0
LINE
8
BLACK
6
CONTINUOUS
10
0.136227
20
3.38564
11
0.134353
21
3.38939
0
LINE
8
BLACK
6
CONTINUOUS
10
0.134353
20
3.38939
11
0.13406
21
3.39037
0
LINE
8
BLACK
6
CONTINUOUS
10
0.13406
20
3.39037
11
0.134101
21
3.39054
0
LINE
8
BLACK
6
CONTINUOUS
10
0.134101
20
3.39054
11
0.134041
21
3.39071
0
LINE
8
BLACK
6
CONTINUOUS
10
0.134041
20
3.39071
11
0.134041
21
3.41133
0
LINE
8
BLACK
6
CONTINUOUS
10
0.134041
20
3.41133
11
0.134219
21
3.41234
0
LINE
8
BLACK
6
CONTINUOUS
10
0.134219
20
3.41234
11
0.135517
21
3.41389
0
LINE
8
BLACK
6
CONTINUOUS
10
0.135517
20
3.41389
11
0.137506
21
3.41424
0
LINE
8
BLACK
6
CONTINUOUS
10
0.137506
20
3.41424
11
0.139255
21
3.41323
0
LINE
8
BLACK
6
CONTINUOUS
10
0.139255
20
3.41323
11
0.139946
21
3.41133
0
LINE
8
BLACK
6
CONTINUOUS
10
0.139946
20
3.41133
11
0.139946
21
3.39141
0
LINE
8
BLACK
6
CONTINUOUS
10
0.139946
20
3.39141
11
0.141069
21
3.38916
0
LINE
8
BLACK
6
CONTINUOUS
10
0.141069
20
3.38916
11
0.143315
21
3.38804
0
LINE
8
BLACK
6
CONTINUOUS
10
0.143315
20
3.38804
11
0.147545
21
3.38804
0
LINE
8
BLACK
6
CONTINUOUS
10
0.147545
20
3.38804
11
0.150243
21
3.38939
0
LINE
8
BLACK
6
CONTINUOUS
10
0.150243
20
3.38939
11
0.150914
21
3.39006
0
LINE
8
BLACK
6
CONTINUOUS
10
0.150914
20
3.39006
11
0.150914
21
3.41133
0
LINE
8
BLACK
6
CONTINUOUS
10
0.150914
20
3.41133
11
0.151092
21
3.41234
0
LINE
8
BLACK
6
CONTINUOUS
10
0.151092
20
3.41234
11
0.15239
21
3.41389
0
LINE
8
BLACK
6
CONTINUOUS
10
0.15239
20
3.41389
11
0.154379
21
3.41424
0
LINE
8
BLACK
6
CONTINUOUS
10
0.154379
20
3.41424
11
0.156128
21
3.41323
0
LINE
8
BLACK
6
CONTINUOUS
10
0.205495
20
3.41411
11
0.20563
21
3.41399
0
LINE
8
BLACK
6
CONTINUOUS
10
0.20563
20
3.41399
11
0.205806
21
3.41397
0
LINE
8
BLACK
6
CONTINUOUS
10
0.205806
20
3.41397
11
0.209555
21
3.4121
0
LINE
8
BLACK
6
CONTINUOUS
10
0.209555
20
3.4121
11
0.210379
21
3.41149
0
LINE
8
BLACK
6
CONTINUOUS
10
0.210379
20
3.41149
11
0.210555
21
3.41108
0
LINE
8
BLACK
6
CONTINUOUS
10
0.210555
20
3.41108
11
0.210876
21
3.41078
0
LINE
8
BLACK
6
CONTINUOUS
10
0.210876
20
3.41078
11
0.21275
21
3.40703
0
LINE
8
BLACK
6
CONTINUOUS
10
0.21275
20
3.40703
11
0.213043
21
3.40605
0
LINE
8
BLACK
6
CONTINUOUS
10
0.213043
20
3.40605
11
0.213002
21
3.40587
0
LINE
8
BLACK
6
CONTINUOUS
10
0.213002
20
3.40587
11
0.213062
21
3.40571
0
LINE
8
BLACK
6
CONTINUOUS
10
0.213062
20
3.40571
11
0.213062
21
3.40196
0
LINE
8
BLACK
6
CONTINUOUS
10
0.213062
20
3.40196
11
0.212884
21
3.40095
0
LINE
8
BLACK
6
CONTINUOUS
10
0.212884
20
3.40095
11
0.21257
21
3.40058
0
LINE
8
BLACK
6
CONTINUOUS
10
0.21257
20
3.40058
11
0.212414
21
3.40011
0
LINE
8
BLACK
6
CONTINUOUS
10
0.212414
20
3.40011
11
0.211941
21
3.39983
0
LINE
8
BLACK
6
CONTINUOUS
10
0.211941
20
3.39983
11
0.211586
21
3.3994
0
LINE
8
BLACK
6
CONTINUOUS
10
0.211586
20
3.3994
11
0.211105
21
3.39932
0
LINE
8
BLACK
6
CONTINUOUS
10
0.211105
20
3.39932
11
0.210688
21
3.39906
0
LINE
8
BLACK
6
CONTINUOUS
10
0.210688
20
3.39906
11
0.194315
21
3.39579
0
LINE
8
BLACK
6
CONTINUOUS
10
0.194315
20
3.39579
11
0.194315
21
3.39141
0
LINE
8
BLACK
6
CONTINUOUS
10
0.194315
20
3.39141
11
0.195437
21
3.38916
0
LINE
8
BLACK
6
CONTINUOUS
10
0.195437
20
3.38916
11
0.197683
21
3.38804
0
LINE
8
BLACK
6
CONTINUOUS
10
0.197683
20
3.38804
11
0.203788
21
3.38804
0
LINE
8
BLACK
6
CONTINUOUS
10
0.203788
20
3.38804
11
0.206914
21
3.3896
0
LINE
8
BLACK
6
CONTINUOUS
10
0.206914
20
3.3896
11
0.207897
21
3.38989
0
LINE
8
BLACK
6
CONTINUOUS
10
0.207897
20
3.38989
11
0.209862
21
3.38942
0
LINE
8
BLACK
6
CONTINUOUS
10
0.209862
20
3.38942
11
0.211065
21
3.3878
0
LINE
8
BLACK
6
CONTINUOUS
10
0.211065
20
3.3878
11
0.210944
21
3.38579
0
LINE
8
BLACK
6
CONTINUOUS
10
0.210944
20
3.38579
11
0.209555
21
3.38432
0
LINE
8
BLACK
6
CONTINUOUS
10
0.209555
20
3.38432
11
0.205806
21
3.38244
0
LINE
8
BLACK
6
CONTINUOUS
10
0.205806
20
3.38244
11
0.204823
21
3.38215
0
LINE
8
BLACK
6
CONTINUOUS
10
0.204823
20
3.38215
11
0.204651
21
3.38219
0
LINE
8
BLACK
6
CONTINUOUS
10
0.204651
20
3.38219
11
0.204485
21
3.38213
0
LINE
8
BLACK
6
CONTINUOUS
10
0.204485
20
3.38213
11
0.196986
21
3.38213
0
LINE
8
BLACK
6
CONTINUOUS
10
0.196986
20
3.38213
11
0.195976
21
3.38231
0
LINE
8
BLACK
6
CONTINUOUS
10
0.195976
20
3.38231
11
0.195841
21
3.38242
0
LINE
8
BLACK
6
CONTINUOUS
10
0.195841
20
3.38242
11
0.195666
21
3.38244
0
LINE
8
BLACK
6
CONTINUOUS
10
0.195666
20
3.38244
11
0.191916
21
3.38432
0
LINE
8
BLACK
6
CONTINUOUS
10
0.191916
20
3.38432
11
0.191092
21
3.38493
0
LINE
8
BLACK
6
CONTINUOUS
10
0.191092
20
3.38493
11
0.190916
21
3.38534
0
LINE
8
BLACK
6
CONTINUOUS
10
0.190916
20
3.38534
11
0.190596
21
3.38564
0
LINE
8
BLACK
6
CONTINUOUS
10
0.190596
20
3.38564
11
0.188721
21
3.38939
0
LINE
8
BLACK
6
CONTINUOUS
10
0.188721
20
3.38939
11
0.188428
21
3.39037
0
LINE
8
BLACK
6
CONTINUOUS
10
0.188428
20
3.39037
11
0.188469
21
3.39054
0
LINE
8
BLACK
6
CONTINUOUS
10
0.188469
20
3.39054
11
0.188409
21
3.39071
0
LINE
8
BLACK
6
CONTINUOUS
10
0.188409
20
3.39071
11
0.188409
21
3.40571
0
LINE
8
BLACK
6
CONTINUOUS
10
0.188409
20
3.40571
11
0.188587
21
3.40672
0
LINE
8
BLACK
6
CONTINUOUS
10
0.188587
20
3.40672
11
0.188701
21
3.40685
0
LINE
8
BLACK
6
CONTINUOUS
10
0.188701
20
3.40685
11
0.188721
21
3.40703
0
LINE
8
BLACK
6
CONTINUOUS
10
0.188721
20
3.40703
11
0.190596
21
3.41078
0
LINE
8
BLACK
6
CONTINUOUS
10
0.190596
20
3.41078
11
0.191206
21
3.4116
0
LINE
8
BLACK
6
CONTINUOUS
10
0.191206
20
3.4116
11
0.191612
21
3.41178
0
LINE
8
BLACK
6
CONTINUOUS
10
0.191612
20
3.41178
11
0.191916
21
3.4121
0
LINE
8
BLACK
6
CONTINUOUS
10
0.191916
20
3.4121
11
0.195666
21
3.41397
0
LINE
8
BLACK
6
CONTINUOUS
10
0.195666
20
3.41397
11
0.196648
21
3.41427
0
LINE
8
BLACK
6
CONTINUOUS
10
0.196648
20
3.41427
11
0.19682
21
3.41423
0
LINE
8
BLACK
6
CONTINUOUS
10
0.19682
20
3.41423
11
0.196986
21
3.41429
0
LINE
8
BLACK
6
CONTINUOUS
10
0.196986
20
3.41429
11
0.204485
21
3.41429
0
LINE
8
BLACK
6
CONTINUOUS
10
0.204485
20
3.41429
11
0.205495
21
3.41411
0
LINE
8
BLACK
6
CONTINUOUS
10
0.195437
20
3.40726
11
0.194315
21
3.40501
0
LINE
8
BLACK
6
CONTINUOUS
10
0.194315
20
3.40501
11
0.194315
21
3.40181
0
LINE
8
BLACK
6
CONTINUOUS
10
0.194315
20
3.40181
11
0.207157
21
3.40438
0
LINE
8
BLACK
6
CONTINUOUS
10
0.207157
20
3.40438
11
0.207157
21
3.40501
0
LINE
8
BLACK
6
CONTINUOUS
10
0.207157
20
3.40501
11
0.206034
21
3.40726
0
LINE
8
BLACK
6
CONTINUOUS
10
0.206034
20
3.40726
11
0.203788
21
3.40838
0
LINE
8
BLACK
6
CONTINUOUS
10
0.203788
20
3.40838
11
0.197683
21
3.40838
0
LINE
8
BLACK
6
CONTINUOUS
10
0.197683
20
3.40838
11
0.195437
21
3.40726
0
LINE
8
BLACK
6
CONTINUOUS
10
0.276113
20
3.42635
11
0.276804
21
3.42446
0
LINE
8
BLACK
6
CONTINUOUS
10
0.276804
20
3.42446
11
0.276804
21
3.38509
0
LINE
8
BLACK
6
CONTINUOUS
10
0.276804
20
3.38509
11
0.276626
21
3.38408
0
LINE
8
BLACK
6
CONTINUOUS
10
0.276626
20
3.38408
11
0.275328
21
3.38253
0
LINE
8
BLACK
6
CONTINUOUS
10
0.275328
20
3.38253
11
0.273339
21
3.38218
0
LINE
8
BLACK
6
CONTINUOUS
10
0.273339
20
3.38218
11
0.272202
21
3.38283
0
LINE
8
BLACK
6
CONTINUOUS
10
0.272202
20
3.38283
11
0.271422
21
3.38244
0
LINE
8
BLACK
6
CONTINUOUS
10
0.271422
20
3.38244
11
0.270439
21
3.38215
0
LINE
8
BLACK
6
CONTINUOUS
10
0.270439
20
3.38215
11
0.270268
21
3.38219
0
LINE
8
BLACK
6
CONTINUOUS
10
0.270268
20
3.38219
11
0.270102
21
3.38213
0
LINE
8
BLACK
6
CONTINUOUS
10
0.270102
20
3.38213
11
0.262603
21
3.38213
0
LINE
8
BLACK
6
CONTINUOUS
10
0.262603
20
3.38213
11
0.261593
21
3.38231
0
LINE
8
BLACK
6
CONTINUOUS
10
0.261593
20
3.38231
11
0.261458
21
3.38242
0
LINE
8
BLACK
6
CONTINUOUS
10
0.261458
20
3.38242
11
0.261282
21
3.38244
0
LINE
8
BLACK
6
CONTINUOUS
10
0.261282
20
3.38244
11
0.257533
21
3.38432
0
LINE
8
BLACK
6
CONTINUOUS
10
0.257533
20
3.38432
11
0.256824
21
3.38485
0
LINE
8
BLACK
6
CONTINUOUS
10
0.256824
20
3.38485
11
0.256765
21
3.38487
0
LINE
8
BLACK
6
CONTINUOUS
10
0.256765
20
3.38487
11
0.254891
21
3.38675
0
LINE
8
BLACK
6
CONTINUOUS
10
0.254891
20
3.38675
11
0.254384
21
3.38747
0
LINE
8
BLACK
6
CONTINUOUS
10
0.254384
20
3.38747
11
0.254338
21
3.38751
0
LINE
8
BLACK
6
CONTINUOUS
10
0.254338
20
3.38751
11
0.252463
21
3.39126
0
LINE
8
BLACK
6
CONTINUOUS
10
0.252463
20
3.39126
11
0.25217
21
3.39225
0
LINE
8
BLACK
6
CONTINUOUS
10
0.25217
20
3.39225
11
0.252211
21
3.39242
0
LINE
8
BLACK
6
CONTINUOUS
10
0.252211
20
3.39242
11
0.252151
21
3.39258
0
LINE
8
BLACK
6
CONTINUOUS
10
0.252151
20
3.39258
11
0.252151
21
3.40383
0
LINE
8
BLACK
6
CONTINUOUS
10
0.252151
20
3.40383
11
0.252329
21
3.40484
0
LINE
8
BLACK
6
CONTINUOUS
10
0.252329
20
3.40484
11
0.252443
21
3.40498
0
LINE
8
BLACK
6
CONTINUOUS
10
0.252443
20
3.40498
11
0.252463
21
3.40515
0
LINE
8
BLACK
6
CONTINUOUS
10
0.252463
20
3.40515
11
0.254338
21
3.4089
0
LINE
8
BLACK
6
CONTINUOUS
10
0.254338
20
3.4089
11
0.254863
21
3.40961
0
LINE
8
BLACK
6
CONTINUOUS
10
0.254863
20
3.40961
11
0.254891
21
3.40967
0
LINE
8
BLACK
6
CONTINUOUS
10
0.254891
20
3.40967
11
0.256765
21
3.41155
0
LINE
8
BLACK
6
CONTINUOUS
10
0.256765
20
3.41155
11
0.257489
21
3.41205
0
LINE
8
BLACK
6
CONTINUOUS
10
0.257489
20
3.41205
11
0.257533
21
3.4121
0
LINE
8
BLACK
6
CONTINUOUS
10
0.257533
20
3.4121
11
0.261282
21
3.41397
0
LINE
8
BLACK
6
CONTINUOUS
10
0.261282
20
3.41397
11
0.262265
21
3.41427
0
LINE
8
BLACK
6
CONTINUOUS
10
0.262265
20
3.41427
11
0.262437
21
3.41423
0
LINE
8
BLACK
6
CONTINUOUS
10
0.262437
20
3.41423
11
0.262603
21
3.41429
0
LINE
8
BLACK
6
CONTINUOUS
10
0.262603
20
3.41429
11
0.270102
21
3.41429
0
LINE
8
BLACK
6
CONTINUOUS
10
0.270102
20
3.41429
11
0.270899
21
3.41414
0
LINE
8
BLACK
6
CONTINUOUS
10
0.270899
20
3.41414
11
0.270899
21
3.42446
0
LINE
8
BLACK
6
CONTINUOUS
10
0.270899
20
3.42446
11
0.271077
21
3.42547
0
LINE
8
BLACK
6
CONTINUOUS
10
0.271077
20
3.42547
11
0.272375
21
3.42701
0
LINE
8
BLACK
6
CONTINUOUS
10
0.272375
20
3.42701
11
0.274364
21
3.42736
0
LINE
8
BLACK
6
CONTINUOUS
10
0.274364
20
3.42736
11
0.276113
21
3.42635
0
LINE
8
BLACK
6
CONTINUOUS
10
0.260602
20
3.40703
11
0.259405
21
3.40583
0
LINE
8
BLACK
6
CONTINUOUS
10
0.259405
20
3.40583
11
0.258057
21
3.40314
0
LINE
8
BLACK
6
CONTINUOUS
10
0.258057
20
3.40314
11
0.258057
21
3.39328
0
LINE
8
BLACK
6
CONTINUOUS
10
0.258057
20
3.39328
11
0.259405
21
3.39058
0
LINE
8
BLACK
6
CONTINUOUS
10
0.259405
20
3.39058
11
0.260602
21
3.38939
0
LINE
8
BLACK
6
CONTINUOUS
10
0.260602
20
3.38939
11
0.2633
21
3.38804
0
LINE
8
BLACK
6
CONTINUOUS
10
0.2633
20
3.38804
11
0.269405
21
3.38804
0
LINE
8
BLACK
6
CONTINUOUS
10
0.269405
20
3.38804
11
0.270899
21
3.38879
0
LINE
8
BLACK
6
CONTINUOUS
10
0.270899
20
3.38879
11
0.270899
21
3.40763
0
LINE
8
BLACK
6
CONTINUOUS
10
0.270899
20
3.40763
11
0.269405
21
3.40838
0
LINE
8
BLACK
6
CONTINUOUS
10
0.269405
20
3.40838
11
0.2633
21
3.40838
0
LINE
8
BLACK
6
CONTINUOUS
10
0.2633
20
3.40838
11
0.260602
21
3.40703
0
LINE
8
BLACK
6
CONTINUOUS
10
0.376099
20
3.41411
11
0.376234
21
3.41399
0
LINE
8
BLACK
6
CONTINUOUS
10
0.376234
20
3.41399
11
0.376409
21
3.41397
0
LINE
8
BLACK
6
CONTINUOUS
10
0.376409
20
3.41397
11
0.380159
21
3.4121
0
LINE
8
BLACK
6
CONTINUOUS
10
0.380159
20
3.4121
11
0.380982
21
3.41149
0
LINE
8
BLACK
6
CONTINUOUS
10
0.380982
20
3.41149
11
0.381158
21
3.41108
0
LINE
8
BLACK
6
CONTINUOUS
10
0.381158
20
3.41108
11
0.381479
21
3.41078
0
LINE
8
BLACK
6
CONTINUOUS
10
0.381479
20
3.41078
11
0.383354
21
3.40703
0
LINE
8
BLACK
6
CONTINUOUS
10
0.383354
20
3.40703
11
0.383646
21
3.40605
0
LINE
8
BLACK
6
CONTINUOUS
10
0.383646
20
3.40605
11
0.383605
21
3.40587
0
LINE
8
BLACK
6
CONTINUOUS
10
0.383605
20
3.40587
11
0.383666
21
3.40571
0
LINE
8
BLACK
6
CONTINUOUS
10
0.383666
20
3.40571
11
0.383666
21
3.40196
0
LINE
8
BLACK
6
CONTINUOUS
10
0.383666
20
3.40196
11
0.383488
21
3.40095
0
LINE
8
BLACK
6
CONTINUOUS
10
0.383488
20
3.40095
11
0.383174
21
3.40058
0
LINE
8
BLACK
6
CONTINUOUS
10
0.383174
20
3.40058
11
0.383018
21
3.40011
0
LINE
8
BLACK
6
CONTINUOUS
10
0.383018
20
3.40011
11
0.382545
21
3.39983
0
LINE
8
BLACK
6
CONTINUOUS
10
0.382545
20
3.39983
11
0.382189
21
3.3994
0
LINE
8
BLACK
6
CONTINUOUS
10
0.382189
20
3.3994
11
0.381709
21
3.39932
0
LINE
8
BLACK
6
CONTINUOUS
10
0.381709
20
3.39932
11
0.381292
21
3.39906
0
LINE
8
BLACK
6
CONTINUOUS
10
0.381292
20
3.39906
11
0.364918
21
3.39579
0
LINE
8
BLACK
6
CONTINUOUS
10
0.364918
20
3.39579
11
0.364918
21
3.39141
0
LINE
8
BLACK
6
CONTINUOUS
10
0.364918
20
3.39141
11
0.366041
21
3.38916
0
LINE
8
BLACK
6
CONTINUOUS
10
0.366041
20
3.38916
11
0.368287
21
3.38804
0
LINE
8
BLACK
6
CONTINUOUS
10
0.368287
20
3.38804
11
0.374392
21
3.38804
0
LINE
8
BLACK
6
CONTINUOUS
10
0.374392
20
3.38804
11
0.377518
21
3.3896
0
LINE
8
BLACK
6
CONTINUOUS
10
0.377518
20
3.3896
11
0.378501
21
3.38989
0
LINE
8
BLACK
6
CONTINUOUS
10
0.378501
20
3.38989
11
0.380465
21
3.38942
0
LINE
8
BLACK
6
CONTINUOUS
10
0.380465
20
3.38942
11
0.381669
21
3.3878
0
LINE
8
BLACK
6
CONTINUOUS
10
0.381669
20
3.3878
11
0.381547
21
3.38579
0
LINE
8
BLACK
6
CONTINUOUS
10
0.381547
20
3.38579
11
0.380159
21
3.38432
0
LINE
8
BLACK
6
CONTINUOUS
10
0.380159
20
3.38432
11
0.376409
21
3.38244
0
LINE
8
BLACK
6
CONTINUOUS
10
0.376409
20
3.38244
11
0.375426
21
3.38215
0
LINE
8
BLACK
6
CONTINUOUS
10
0.375426
20
3.38215
11
0.375255
21
3.38219
0
LINE
8
BLACK
6
CONTINUOUS
10
0.375255
20
3.38219
11
0.375089
21
3.38213
0
LINE
8
BLACK
6
CONTINUOUS
10
0.375089
20
3.38213
11
0.36759
21
3.38213
0
LINE
8
BLACK
6
CONTINUOUS
10
0.36759
20
3.38213
11
0.36658
21
3.38231
0
LINE
8
BLACK
6
CONTINUOUS
10
0.36658
20
3.38231
11
0.366445
21
3.38242
0
LINE
8
BLACK
6
CONTINUOUS
10
0.366445
20
3.38242
11
0.366269
21
3.38244
0
LINE
8
BLACK
6
CONTINUOUS
10
0.366269
20
3.38244
11
0.36252
21
3.38432
0
LINE
8
BLACK
6
CONTINUOUS
10
0.36252
20
3.38432
11
0.361696
21
3.38493
0
LINE
8
BLACK
6
CONTINUOUS
10
0.361696
20
3.38493
11
0.36152
21
3.38534
0
LINE
8
BLACK
6
CONTINUOUS
10
0.36152
20
3.38534
11
0.361199
21
3.38564
0
LINE
8
BLACK
6
CONTINUOUS
10
0.361199
20
3.38564
11
0.359324
21
3.38939
0
LINE
8
BLACK
6
CONTINUOUS
10
0.359324
20
3.38939
11
0.359032
21
3.39037
0
LINE
8
BLACK
6
CONTINUOUS
10
0.359032
20
3.39037
11
0.359073
21
3.39054
0
LINE
8
BLACK
6
CONTINUOUS
10
0.359073
20
3.39054
11
0.359013
21
3.39071
0
LINE
8
BLACK
6
CONTINUOUS
10
0.359013
20
3.39071
11
0.359013
21
3.40571
0
LINE
8
BLACK
6
CONTINUOUS
10
0.359013
20
3.40571
11
0.359191
21
3.40672
0
LINE
8
BLACK
6
CONTINUOUS
10
0.359191
20
3.40672
11
0.359304
21
3.40685
0
LINE
8
BLACK
6
CONTINUOUS
10
0.359304
20
3.40685
11
0.359324
21
3.40703
0
LINE
8
BLACK
6
CONTINUOUS
10
0.359324
20
3.40703
11
0.361199
21
3.41078
0
LINE
8
BLACK
6
CONTINUOUS
10
0.361199
20
3.41078
11
0.36181
21
3.4116
0
LINE
8
BLACK
6
CONTINUOUS
10
0.36181
20
3.4116
11
0.362216
21
3.41178
0
LINE
8
BLACK
6
CONTINUOUS
10
0.362216
20
3.41178
11
0.36252
21
3.4121
0
LINE
8
BLACK
6
CONTINUOUS
10
0.36252
20
3.4121
11
0.366269
21
3.41397
0
LINE
8
BLACK
6
CONTINUOUS
10
0.366269
20
3.41397
11
0.367252
21
3.41427
0
LINE
8
BLACK
6
CONTINUOUS
10
0.367252
20
3.41427
11
0.367424
21
3.41423
0
LINE
8
BLACK
6
CONTINUOUS
10
0.367424
20
3.41423
11
0.36759
21
3.41429
0
LINE
8
BLACK
6
CONTINUOUS
10
0.36759
20
3.41429
11
0.375089
21
3.41429
0
LINE
8
BLACK
6
CONTINUOUS
10
0.375089
20
3.41429
11
0.376099
21
3.41411
0
LINE
8
BLACK
6
CONTINUOUS
10
0.366041
20
3.40726
11
0.364918
21
3.40501
0
LINE
8
BLACK
6
CONTINUOUS
10
0.364918
20
3.40501
11
0.364918
21
3.40181
0
LINE
8
BLACK
6
CONTINUOUS
10
0.364918
20
3.40181
11
0.37776
21
3.40438
0
LINE
8
BLACK
6
CONTINUOUS
10
0.37776
20
3.40438
11
0.37776
21
3.40501
0
LINE
8
BLACK
6
CONTINUOUS
10
0.37776
20
3.40501
11
0.376637
21
3.40726
0
LINE
8
BLACK
6
CONTINUOUS
10
0.376637
20
3.40726
11
0.374392
21
3.40838
0
LINE
8
BLACK
6
CONTINUOUS
10
0.374392
20
3.40838
11
0.368287
21
3.40838
0
LINE
8
BLACK
6
CONTINUOUS
10
0.368287
20
3.40838
11
0.366041
21
3.40726
0
LINE
8
BLACK
6
CONTINUOUS
10
0.44359
20
3.41411
11
0.443726
21
3.41399
0
LINE
8
BLACK
6
CONTINUOUS
10
0.443726
20
3.41399
11
0.443901
21
3.41397
0
LINE
8
BLACK
6
CONTINUOUS
10
0.443901
20
3.41397
11
0.44765
21
3.4121
0
LINE
8
BLACK
6
CONTINUOUS
10
0.44765
20
3.4121
11
0.448474
21
3.41149
0
LINE
8
BLACK
6
CONTINUOUS
10
0.448474
20
3.41149
11
0.449277
21
3.40963
0
LINE
8
BLACK
6
CONTINUOUS
10
0.449277
20
3.40963
11
0.448701
21
3.4077
0
LINE
8
BLACK
6
CONTINUOUS
10
0.448701
20
3.4077
11
0.447016
21
3.40659
0
LINE
8
BLACK
6
CONTINUOUS
10
0.447016
20
3.40659
11
0.445009
21
3.40682
0
LINE
8
BLACK
6
CONTINUOUS
10
0.445009
20
3.40682
11
0.441883
21
3.40838
0
LINE
8
BLACK
6
CONTINUOUS
10
0.441883
20
3.40838
11
0.437653
21
3.40838
0
LINE
8
BLACK
6
CONTINUOUS
10
0.437653
20
3.40838
11
0.435407
21
3.40726
0
LINE
8
BLACK
6
CONTINUOUS
10
0.435407
20
3.40726
11
0.434285
21
3.40501
0
LINE
8
BLACK
6
CONTINUOUS
10
0.434285
20
3.40501
11
0.434285
21
3.40453
0
LINE
8
BLACK
6
CONTINUOUS
10
0.434285
20
3.40453
11
0.435407
21
3.40228
0
LINE
8
BLACK
6
CONTINUOUS
10
0.435407
20
3.40228
11
0.437653
21
3.40116
0
LINE
8
BLACK
6
CONTINUOUS
10
0.437653
20
3.40116
11
0.44258
21
3.40116
0
LINE
8
BLACK
6
CONTINUOUS
10
0.44258
20
3.40116
11
0.44359
21
3.40098
0
LINE
8
BLACK
6
CONTINUOUS
10
0.44359
20
3.40098
11
0.443726
21
3.40087
0
LINE
8
BLACK
6
CONTINUOUS
10
0.443726
20
3.40087
11
0.443901
21
3.40085
0
LINE
8
BLACK
6
CONTINUOUS
10
0.443901
20
3.40085
11
0.44765
21
3.39898
0
LINE
8
BLACK
6
CONTINUOUS
10
0.44765
20
3.39898
11
0.448474
21
3.39836
0
LINE
8
BLACK
6
CONTINUOUS
10
0.448474
20
3.39836
11
0.44865
21
3.39796
0
LINE
8
BLACK
6
CONTINUOUS
10
0.44865
20
3.39796
11
0.448971
21
3.39765
0
LINE
8
BLACK
6
CONTINUOUS
10
0.448971
20
3.39765
11
0.450846
21
3.39391
0
LINE
8
BLACK
6
CONTINUOUS
10
0.450846
20
3.39391
11
0.451138
21
3.39292
0
LINE
8
BLACK
6
CONTINUOUS
10
0.451138
20
3.39292
11
0.451097
21
3.39275
0
LINE
8
BLACK
6
CONTINUOUS
10
0.451097
20
3.39275
11
0.451157
21
3.39258
0
LINE
8
BLACK
6
CONTINUOUS
10
0.451157
20
3.39258
11
0.451157
21
3.39071
0
LINE
8
BLACK
6
CONTINUOUS
10
0.451157
20
3.39071
11
0.450979
21
3.3897
0
LINE
8
BLACK
6
CONTINUOUS
10
0.450979
20
3.3897
11
0.450866
21
3.38957
0
LINE
8
BLACK
6
CONTINUOUS
10
0.450866
20
3.38957
11
0.450846
21
3.38939
0
LINE
8
BLACK
6
CONTINUOUS
10
0.450846
20
3.38939
11
0.448971
21
3.38564
0
LINE
8
BLACK
6
CONTINUOUS
10
0.448971
20
3.38564
11
0.44836
21
3.38482
0
LINE
8
BLACK
6
CONTINUOUS
10
0.44836
20
3.38482
11
0.447954
21
3.38464
0
LINE
8
BLACK
6
CONTINUOUS
10
0.447954
20
3.38464
11
0.44765
21
3.38432
0
LINE
8
BLACK
6
CONTINUOUS
10
0.44765
20
3.38432
11
0.443901
21
3.38244
0
LINE
8
BLACK
6
CONTINUOUS
10
0.443901
20
3.38244
11
0.442918
21
3.38215
0
LINE
8
BLACK
6
CONTINUOUS
10
0.442918
20
3.38215
11
0.442746
21
3.38219
0
LINE
8
BLACK
6
CONTINUOUS
10
0.442746
20
3.38219
11
0.44258
21
3.38213
0
LINE
8
BLACK
6
CONTINUOUS
10
0.44258
20
3.38213
11
0.435081
21
3.38213
0
LINE
8
BLACK
6
CONTINUOUS
10
0.435081
20
3.38213
11
0.434071
21
3.38231
0
LINE
8
BLACK
6
CONTINUOUS
10
0.434071
20
3.38231
11
0.433936
21
3.38242
0
LINE
8
BLACK
6
CONTINUOUS
10
0.433936
20
3.38242
11
0.433761
21
3.38244
0
LINE
8
BLACK
6
CONTINUOUS
10
0.433761
20
3.38244
11
0.430011
21
3.38432
0
LINE
8
BLACK
6
CONTINUOUS
10
0.430011
20
3.38432
11
0.429188
21
3.38493
0
LINE
8
BLACK
6
CONTINUOUS
10
0.429188
20
3.38493
11
0.428384
21
3.38678
0
LINE
8
BLACK
6
CONTINUOUS
10
0.428384
20
3.38678
11
0.42896
21
3.38872
0
LINE
8
BLACK
6
CONTINUOUS
10
0.42896
20
3.38872
11
0.430646
21
3.38983
0
LINE
8
BLACK
6
CONTINUOUS
10
0.430646
20
3.38983
11
0.432652
21
3.3896
0
LINE
8
BLACK
6
CONTINUOUS
10
0.432652
20
3.3896
11
0.435778
21
3.38804
0
LINE
8
BLACK
6
CONTINUOUS
10
0.435778
20
3.38804
11
0.441883
21
3.38804
0
LINE
8
BLACK
6
CONTINUOUS
10
0.441883
20
3.38804
11
0.444129
21
3.38916
0
LINE
8
BLACK
6
CONTINUOUS
10
0.444129
20
3.38916
11
0.445252
21
3.39141
0
LINE
8
BLACK
6
CONTINUOUS
10
0.445252
20
3.39141
11
0.445252
21
3.39189
0
LINE
8
BLACK
6
CONTINUOUS
10
0.445252
20
3.39189
11
0.444129
21
3.39413
0
LINE
8
BLACK
6
CONTINUOUS
10
0.444129
20
3.39413
11
0.441883
21
3.39526
0
LINE
8
BLACK
6
CONTINUOUS
10
0.441883
20
3.39526
11
0.436956
21
3.39526
0
LINE
8
BLACK
6
CONTINUOUS
10
0.436956
20
3.39526
11
0.435946
21
3.39543
0
LINE
8
BLACK
6
CONTINUOUS
10
0.435946
20
3.39543
11
0.435811
21
3.39555
0
LINE
8
BLACK
6
CONTINUOUS
10
0.435811
20
3.39555
11
0.435636
21
3.39557
0
LINE
8
BLACK
6
CONTINUOUS
10
0.435636
20
3.39557
11
0.431886
21
3.39744
0
LINE
8
BLACK
6
CONTINUOUS
10
0.431886
20
3.39744
11
0.431062
21
3.39805
0
LINE
8
BLACK
6
CONTINUOUS
10
0.431062
20
3.39805
11
0.430886
21
3.39846
0
LINE
8
BLACK
6
CONTINUOUS
10
0.430886
20
3.39846
11
0.430566
21
3.39876
0
LINE
8
BLACK
6
CONTINUOUS
10
0.430566
20
3.39876
11
0.428691
21
3.40251
0
LINE
8
BLACK
6
CONTINUOUS
10
0.428691
20
3.40251
11
0.428398
21
3.4035
0
LINE
8
BLACK
6
CONTINUOUS
10
0.428398
20
3.4035
11
0.428439
21
3.40367
0
LINE
8
BLACK
6
CONTINUOUS
10
0.428439
20
3.40367
11
0.428379
21
3.40383
0
LINE
8
BLACK
6
CONTINUOUS
10
0.428379
20
3.40383
11
0.428379
21
3.40571
0
LINE
8
BLACK
6
CONTINUOUS
10
0.428379
20
3.40571
11
0.428557
21
3.40672
0
LINE
8
BLACK
6
CONTINUOUS
10
0.428557
20
3.40672
11
0.428671
21
3.40685
0
LINE
8
BLACK
6
CONTINUOUS
10
0.428671
20
3.40685
11
0.428691
21
3.40703
0
LINE
8
BLACK
6
CONTINUOUS
10
0.428691
20
3.40703
11
0.430566
21
3.41078
0
LINE
8
BLACK
6
CONTINUOUS
10
0.430566
20
3.41078
11
0.431176
21
3.4116
0
LINE
8
BLACK
6
CONTINUOUS
10
0.431176
20
3.4116
11
0.431582
21
3.41178
0
LINE
8
BLACK
6
CONTINUOUS
10
0.431582
20
3.41178
11
0.431886
21
3.4121
0
LINE
8
BLACK
6
CONTINUOUS
10
0.431886
20
3.4121
11
0.435636
21
3.41397
0
LINE
8
BLACK
6
CONTINUOUS
10
0.435636
20
3.41397
11
0.436618
21
3.41427
0
LINE
8
BLACK
6
CONTINUOUS
10
0.436618
20
3.41427
11
0.43679
21
3.41423
0
LINE
8
BLACK
6
CONTINUOUS
10
0.43679
20
3.41423
11
0.436956
21
3.41429
0
LINE
8
BLACK
6
CONTINUOUS
10
0.436956
20
3.41429
11
0.44258
21
3.41429
0
LINE
8
BLACK
6
CONTINUOUS
10
0.44258
20
3.41429
11
0.44359
21
3.41411
0
LINE
8
BLACK
6
CONTINUOUS
10
0.496084
20
3.41411
11
0.496219
21
3.41399
0
LINE
8
BLACK
6
CONTINUOUS
10
0.496219
20
3.41399
11
0.496394
21
3.41397
0
LINE
8
BLACK
6
CONTINUOUS
10
0.496394
20
3.41397
11
0.500144
21
3.4121
0
LINE
8
BLACK
6
CONTINUOUS
10
0.500144
20
3.4121
11
0.500853
21
3.41157
0
LINE
8
BLACK
6
CONTINUOUS
10
0.500853
20
3.41157
11
0.500911
21
3.41155
0
LINE
8
BLACK
6
CONTINUOUS
10
0.500911
20
3.41155
11
0.502786
21
3.40967
0
LINE
8
BLACK
6
CONTINUOUS
10
0.502786
20
3.40967
11
0.503292
21
3.40895
0
LINE
8
BLACK
6
CONTINUOUS
10
0.503292
20
3.40895
11
0.503339
21
3.4089
0
LINE
8
BLACK
6
CONTINUOUS
10
0.503339
20
3.4089
11
0.505214
21
3.40515
0
LINE
8
BLACK
6
CONTINUOUS
10
0.505214
20
3.40515
11
0.505506
21
3.40417
0
LINE
8
BLACK
6
CONTINUOUS
10
0.505506
20
3.40417
11
0.505465
21
3.404
0
LINE
8
BLACK
6
CONTINUOUS
10
0.505465
20
3.404
11
0.505526
21
3.40383
0
LINE
8
BLACK
6
CONTINUOUS
10
0.505526
20
3.40383
11
0.505526
21
3.39258
0
LINE
8
BLACK
6
CONTINUOUS
10
0.505526
20
3.39258
11
0.505348
21
3.39158
0
LINE
8
BLACK
6
CONTINUOUS
10
0.505348
20
3.39158
11
0.505234
21
3.39144
0
LINE
8
BLACK
6
CONTINUOUS
10
0.505234
20
3.39144
11
0.505214
21
3.39126
0
LINE
8
BLACK
6
CONTINUOUS
10
0.505214
20
3.39126
11
0.503339
21
3.38751
0
LINE
8
BLACK
6
CONTINUOUS
10
0.503339
20
3.38751
11
0.502813
21
3.38681
0
LINE
8
BLACK
6
CONTINUOUS
10
0.502813
20
3.38681
11
0.502786
21
3.38675
0
LINE
8
BLACK
6
CONTINUOUS
10
0.502786
20
3.38675
11
0.500911
21
3.38487
0
LINE
8
BLACK
6
CONTINUOUS
10
0.500911
20
3.38487
11
0.500188
21
3.38437
0
LINE
8
BLACK
6
CONTINUOUS
10
0.500188
20
3.38437
11
0.500144
21
3.38432
0
LINE
8
BLACK
6
CONTINUOUS
10
0.500144
20
3.38432
11
0.496394
21
3.38244
0
LINE
8
BLACK
6
CONTINUOUS
10
0.496394
20
3.38244
11
0.495411
21
3.38215
0
LINE
8
BLACK
6
CONTINUOUS
10
0.495411
20
3.38215
11
0.49524
21
3.38219
0
LINE
8
BLACK
6
CONTINUOUS
10
0.49524
20
3.38219
11
0.495074
21
3.38213
0
LINE
8
BLACK
6
CONTINUOUS
10
0.495074
20
3.38213
11
0.489449
21
3.38213
0
LINE
8
BLACK
6
CONTINUOUS
10
0.489449
20
3.38213
11
0.48844
21
3.38231
0
LINE
8
BLACK
6
CONTINUOUS
10
0.48844
20
3.38231
11
0.488304
21
3.38242
0
LINE
8
BLACK
6
CONTINUOUS
10
0.488304
20
3.38242
11
0.488129
21
3.38244
0
LINE
8
BLACK
6
CONTINUOUS
10
0.488129
20
3.38244
11
0.484379
21
3.38432
0
LINE
8
BLACK
6
CONTINUOUS
10
0.484379
20
3.38432
11
0.48367
21
3.38485
0
LINE
8
BLACK
6
CONTINUOUS
10
0.48367
20
3.38485
11
0.483612
21
3.38487
0
LINE
8
BLACK
6
CONTINUOUS
10
0.483612
20
3.38487
11
0.481737
21
3.38675
0
LINE
8
BLACK
6
CONTINUOUS
10
0.481737
20
3.38675
11
0.481231
21
3.38747
0
LINE
8
BLACK
6
CONTINUOUS
10
0.481231
20
3.38747
11
0.481184
21
3.38751
0
LINE
8
BLACK
6
CONTINUOUS
10
0.481184
20
3.38751
11
0.479309
21
3.39126
0
LINE
8
BLACK
6
CONTINUOUS
10
0.479309
20
3.39126
11
0.479017
21
3.39225
0
LINE
8
BLACK
6
CONTINUOUS
10
0.479017
20
3.39225
11
0.479058
21
3.39242
0
LINE
8
BLACK
6
CONTINUOUS
10
0.479058
20
3.39242
11
0.478998
21
3.39258
0
LINE
8
BLACK
6
CONTINUOUS
10
0.478998
20
3.39258
11
0.478998
21
3.40383
0
LINE
8
BLACK
6
CONTINUOUS
10
0.478998
20
3.40383
11
0.479176
21
3.40484
0
LINE
8
BLACK
6
CONTINUOUS
10
0.479176
20
3.40484
11
0.479289
21
3.40498
0
LINE
8
BLACK
6
CONTINUOUS
10
0.479289
20
3.40498
11
0.479309
21
3.40515
0
LINE
8
BLACK
6
CONTINUOUS
10
0.479309
20
3.40515
11
0.481184
21
3.4089
0
LINE
8
BLACK
6
CONTINUOUS
10
0.481184
20
3.4089
11
0.48171
21
3.40961
0
LINE
8
BLACK
6
CONTINUOUS
10
0.48171
20
3.40961
11
0.481737
21
3.40967
0
LINE
8
BLACK
6
CONTINUOUS
10
0.481737
20
3.40967
11
0.483612
21
3.41155
0
LINE
8
BLACK
6
CONTINUOUS
10
0.483612
20
3.41155
11
0.484335
21
3.41205
0
LINE
8
BLACK
6
CONTINUOUS
10
0.484335
20
3.41205
11
0.484379
21
3.4121
0
LINE
8
BLACK
6
CONTINUOUS
10
0.484379
20
3.4121
11
0.488129
21
3.41397
0
LINE
8
BLACK
6
CONTINUOUS
10
0.488129
20
3.41397
11
0.489112
21
3.41427
0
LINE
8
BLACK
6
CONTINUOUS
10
0.489112
20
3.41427
11
0.489284
21
3.41423
0
LINE
8
BLACK
6
CONTINUOUS
10
0.489284
20
3.41423
11
0.489449
21
3.41429
0
LINE
8
BLACK
6
CONTINUOUS
10
0.489449
20
3.41429
11
0.495074
21
3.41429
0
LINE
8
BLACK
6
CONTINUOUS
10
0.495074
20
3.41429
11
0.496084
21
3.41411
0
LINE
8
BLACK
6
CONTINUOUS
10
0.487449
20
3.40703
11
0.486252
21
3.40583
0
LINE
8
BLACK
6
CONTINUOUS
10
0.486252
20
3.40583
11
0.484903
21
3.40314
0
LINE
8
BLACK
6
CONTINUOUS
10
0.484903
20
3.40314
11
0.484903
21
3.39328
0
LINE
8
BLACK
6
CONTINUOUS
10
0.484903
20
3.39328
11
0.486252
21
3.39058
0
LINE
8
BLACK
6
CONTINUOUS
10
0.486252
20
3.39058
11
0.487449
21
3.38939
0
LINE
8
BLACK
6
CONTINUOUS
10
0.487449
20
3.38939
11
0.490147
21
3.38804
0
LINE
8
BLACK
6
CONTINUOUS
10
0.490147
20
3.38804
11
0.494377
21
3.38804
0
LINE
8
BLACK
6
CONTINUOUS
10
0.494377
20
3.38804
11
0.497074
21
3.38939
0
LINE
8
BLACK
6
CONTINUOUS
10
0.497074
20
3.38939
11
0.498271
21
3.39058
0
LINE
8
BLACK
6
CONTINUOUS
10
0.498271
20
3.39058
11
0.49962
21
3.39328
0
LINE
8
BLACK
6
CONTINUOUS
10
0.49962
20
3.39328
11
0.49962
21
3.40314
0
LINE
8
BLACK
6
CONTINUOUS
10
0.49962
20
3.40314
11
0.498271
21
3.40583
0
LINE
8
BLACK
6
CONTINUOUS
10
0.498271
20
3.40583
11
0.497074
21
3.40703
0
LINE
8
BLACK
6
CONTINUOUS
10
0.497074
20
3.40703
11
0.494377
21
3.40838
0
LINE
8
BLACK
6
CONTINUOUS
10
0.494377
20
3.40838
11
0.490147
21
3.40838
0
LINE
8
BLACK
6
CONTINUOUS
10
0.490147
20
3.40838
11
0.487449
21
3.40703
0
LINE
8
BLACK
6
CONTINUOUS
10
0.56545
20
3.41411
11
0.565585
21
3.41399
0
LINE
8
BLACK
6
CONTINUOUS
10
0.565585
20
3.41399
11
0.565761
21
3.41397
0
LINE
8
BLACK
6
CONTINUOUS
10
0.565761
20
3.41397
11
0.56951
21
3.4121
0
LINE
8
BLACK
6
CONTINUOUS
10
0.56951
20
3.4121
11
0.570334
21
3.41149
0
LINE
8
BLACK
6
CONTINUOUS
10
0.570334
20
3.41149
11
0.571137
21
3.40963
0
LINE
8
BLACK
6
CONTINUOUS
10
0.571137
20
3.40963
11
0.570561
21
3.4077
0
LINE
8
BLACK
6
CONTINUOUS
10
0.570561
20
3.4077
11
0.568876
21
3.40659
0
LINE
8
BLACK
6
CONTINUOUS
10
0.568876
20
3.40659
11
0.566869
21
3.40682
0
LINE
8
BLACK
6
CONTINUOUS
10
0.566869
20
3.40682
11
0.563743
21
3.40838
0
LINE
8
BLACK
6
CONTINUOUS
10
0.563743
20
3.40838
11
0.559513
21
3.40838
0
LINE
8
BLACK
6
CONTINUOUS
10
0.559513
20
3.40838
11
0.557267
21
3.40726
0
LINE
8
BLACK
6
CONTINUOUS
10
0.557267
20
3.40726
11
0.556144
21
3.40501
0
LINE
8
BLACK
6
CONTINUOUS
10
0.556144
20
3.40501
11
0.556144
21
3.40453
0
LINE
8
BLACK
6
CONTINUOUS
10
0.556144
20
3.40453
11
0.557267
21
3.40228
0
LINE
8
BLACK
6
CONTINUOUS
10
0.557267
20
3.40228
11
0.559513
21
3.40116
0
LINE
8
BLACK
6
CONTINUOUS
10
0.559513
20
3.40116
11
0.56444
21
3.40116
0
LINE
8
BLACK
6
CONTINUOUS
10
0.56444
20
3.40116
11
0.56545
21
3.40098
0
LINE
8
BLACK
6
CONTINUOUS
10
0.56545
20
3.40098
11
0.565585
21
3.40087
0
LINE
8
BLACK
6
CONTINUOUS
10
0.565585
20
3.40087
11
0.565761
21
3.40085
0
LINE
8
BLACK
6
CONTINUOUS
10
0.565761
20
3.40085
11
0.56951
21
3.39898
0
LINE
8
BLACK
6
CONTINUOUS
10
0.56951
20
3.39898
11
0.570334
21
3.39836
0
LINE
8
BLACK
6
CONTINUOUS
10
0.570334
20
3.39836
11
0.57051
21
3.39796
0
LINE
8
BLACK
6
CONTINUOUS
10
0.57051
20
3.39796
11
0.570831
21
3.39765
0
LINE
8
BLACK
6
CONTINUOUS
10
0.570831
20
3.39765
11
0.572705
21
3.39391
0
LINE
8
BLACK
6
CONTINUOUS
10
0.572705
20
3.39391
11
0.572998
21
3.39292
0
LINE
8
BLACK
6
CONTINUOUS
10
0.572998
20
3.39292
11
0.572957
21
3.39275
0
LINE
8
BLACK
6
CONTINUOUS
10
0.572957
20
3.39275
11
0.573017
21
3.39258
0
LINE
8
BLACK
6
CONTINUOUS
10
0.573017
20
3.39258
11
0.573017
21
3.39071
0
LINE
8
BLACK
6
CONTINUOUS
10
0.573017
20
3.39071
11
0.572839
21
3.3897
0
LINE
8
BLACK
6
CONTINUOUS
10
0.572839
20
3.3897
11
0.572726
21
3.38957
0
LINE
8
BLACK
6
CONTINUOUS
10
0.572726
20
3.38957
11
0.572705
21
3.38939
0
LINE
8
BLACK
6
CONTINUOUS
10
0.572705
20
3.38939
11
0.570831
21
3.38564
0
LINE
8
BLACK
6
CONTINUOUS
10
0.570831
20
3.38564
11
0.57022
21
3.38482
0
LINE
8
BLACK
6
CONTINUOUS
10
0.57022
20
3.38482
11
0.569814
21
3.38464
0
LINE
8
BLACK
6
CONTINUOUS
10
0.569814
20
3.38464
11
0.56951
21
3.38432
0
LINE
8
BLACK
6
CONTINUOUS
10
0.56951
20
3.38432
11
0.565761
21
3.38244
0
LINE
8
BLACK
6
CONTINUOUS
10
0.565761
20
3.38244
11
0.564778
21
3.38215
0
LINE
8
BLACK
6
CONTINUOUS
10
0.564778
20
3.38215
11
0.564606
21
3.38219
0
LINE
8
BLACK
6
CONTINUOUS
10
0.564606
20
3.38219
11
0.56444
21
3.38213
0
LINE
8
BLACK
6
CONTINUOUS
10
0.56444
20
3.38213
11
0.556941
21
3.38213
0
LINE
8
BLACK
6
CONTINUOUS
10
0.556941
20
3.38213
11
0.555931
21
3.38231
0
LINE
8
BLACK
6
CONTINUOUS
10
0.555931
20
3.38231
11
0.555796
21
3.38242
0
LINE
8
BLACK
6
CONTINUOUS
10
0.555796
20
3.38242
11
0.555621
21
3.38244
0
LINE
8
BLACK
6
CONTINUOUS
10
0.555621
20
3.38244
11
0.551871
21
3.38432
0
LINE
8
BLACK
6
CONTINUOUS
10
0.551871
20
3.38432
11
0.551047
21
3.38493
0
LINE
8
BLACK
6
CONTINUOUS
10
0.551047
20
3.38493
11
0.550244
21
3.38678
0
LINE
8
BLACK
6
CONTINUOUS
10
0.550244
20
3.38678
11
0.55082
21
3.38872
0
LINE
8
BLACK
6
CONTINUOUS
10
0.55082
20
3.38872
11
0.552505
21
3.38983
0
LINE
8
BLACK
6
CONTINUOUS
10
0.552505
20
3.38983
11
0.554512
21
3.3896
0
LINE
8
BLACK
6
CONTINUOUS
10
0.554512
20
3.3896
11
0.557638
21
3.38804
0
LINE
8
BLACK
6
CONTINUOUS
10
0.557638
20
3.38804
11
0.563743
21
3.38804
0
LINE
8
BLACK
6
CONTINUOUS
10
0.563743
20
3.38804
11
0.565989
21
3.38916
0
LINE
8
BLACK
6
CONTINUOUS
10
0.565989
20
3.38916
11
0.567112
21
3.39141
0
LINE
8
BLACK
6
CONTINUOUS
10
0.567112
20
3.39141
11
0.567112
21
3.39189
0
LINE
8
BLACK
6
CONTINUOUS
10
0.567112
20
3.39189
11
0.565989
21
3.39413
0
LINE
8
BLACK
6
CONTINUOUS
10
0.565989
20
3.39413
11
0.563743
21
3.39526
0
LINE
8
BLACK
6
CONTINUOUS
10
0.563743
20
3.39526
11
0.558816
21
3.39526
0
LINE
8
BLACK
6
CONTINUOUS
10
0.558816
20
3.39526
11
0.557806
21
3.39543
0
LINE
8
BLACK
6
CONTINUOUS
10
0.557806
20
3.39543
11
0.557671
21
3.39555
0
LINE
8
BLACK
6
CONTINUOUS
10
0.557671
20
3.39555
11
0.557495
21
3.39557
0
LINE
8
BLACK
6
CONTINUOUS
10
0.557495
20
3.39557
11
0.553746
21
3.39744
0
LINE
8
BLACK
6
CONTINUOUS
10
0.553746
20
3.39744
11
0.552922
21
3.39805
0
LINE
8
BLACK
6
CONTINUOUS
10
0.552922
20
3.39805
11
0.552746
21
3.39846
0
LINE
8
BLACK
6
CONTINUOUS
10
0.552746
20
3.39846
11
0.552425
21
3.39876
0
LINE
8
BLACK
6
CONTINUOUS
10
0.552425
20
3.39876
11
0.550551
21
3.40251
0
LINE
8
BLACK
6
CONTINUOUS
10
0.550551
20
3.40251
11
0.550258
21
3.4035
0
LINE
8
BLACK
6
CONTINUOUS
10
0.550258
20
3.4035
11
0.550299
21
3.40367
0
LINE
8
BLACK
6
CONTINUOUS
10
0.550299
20
3.40367
11
0.550239
21
3.40383
0
LINE
8
BLACK
6
CONTINUOUS
10
0.550239
20
3.40383
11
0.550239
21
3.40571
0
LINE
8
BLACK
6
CONTINUOUS
10
0.550239
20
3.40571
11
0.550417
21
3.40672
0
LINE
8
BLACK
6
CONTINUOUS
10
0.550417
20
3.40672
11
0.55053
21
3.40685
0
LINE
8
BLACK
6
CONTINUOUS
10
0.55053
20
3.40685
11
0.550551
21
3.40703
0
LINE
8
BLACK
6
CONTINUOUS
10
0.550551
20
3.40703
11
0.552425
21
3.41078
0
LINE
8
BLACK
6
CONTINUOUS
10
0.552425
20
3.41078
11
0.553036
21
3.4116
0
LINE
8
BLACK
6
CONTINUOUS
10
0.553036
20
3.4116
11
0.553442
21
3.41178
0
LINE
8
BLACK
6
CONTINUOUS
10
0.553442
20
3.41178
11
0.553746
21
3.4121
0
LINE
8
BLACK
6
CONTINUOUS
10
0.553746
20
3.4121
11
0.557495
21
3.41397
0
LINE
8
BLACK
6
CONTINUOUS
10
0.557495
20
3.41397
11
0.558478
21
3.41427
0
LINE
8
BLACK
6
CONTINUOUS
10
0.558478
20
3.41427
11
0.55865
21
3.41423
0
LINE
8
BLACK
6
CONTINUOUS
10
0.55865
20
3.41423
11
0.558816
21
3.41429
0
LINE
8
BLACK
6
CONTINUOUS
10
0.558816
20
3.41429
11
0.56444
21
3.41429
0
LINE
8
BLACK
6
CONTINUOUS
10
0.56444
20
3.41429
11
0.56545
21
3.41411
0
LINE
8
BLACK
6
CONTINUOUS
10
0.0255175
20
3.41411
11
0.0256528
21
3.41399
0
LINE
8
BLACK
6
CONTINUOUS
10
0.0256528
20
3.41399
11
0.0258281
21
3.41397
0
LINE
8
BLACK
6
CONTINUOUS
10
0.0258281
20
3.41397
11
0.0295776
21
3.4121
0
LINE
8
BLACK
6
CONTINUOUS
10
0.0295776
20
3.4121
11
0.0301476
21
3.41168
0
LINE
8
BLACK
6
CONTINUOUS
10
0.0301476
20
3.41168
11
0.0303822
21
3.41178
0
LINE
8
BLACK
6
CONTINUOUS
10
0.0303822
20
3.41178
11
0.0306861
21
3.4121
0
LINE
8
BLACK
6
CONTINUOUS
10
0.0306861
20
3.4121
11
0.0344357
21
3.41397
0
LINE
8
BLACK
6
CONTINUOUS
10
0.0344357
20
3.41397
11
0.0354186
21
3.41427
0
LINE
8
BLACK
6
CONTINUOUS
10
0.0354186
20
3.41427
11
0.0355903
21
3.41423
0
LINE
8
BLACK
6
CONTINUOUS
10
0.0355903
20
3.41423
11
0.0357562
21
3.41429
0
LINE
8
BLACK
6
CONTINUOUS
10
0.0357562
20
3.41429
11
0.0413805
21
3.41429
0
LINE
8
BLACK
6
CONTINUOUS
10
0.0413805
20
3.41429
11
0.0423904
21
3.41411
0
LINE
8
BLACK
6
CONTINUOUS
10
0.0423904
20
3.41411
11
0.0425256
21
3.41399
0
LINE
8
BLACK
6
CONTINUOUS
10
0.0425256
20
3.41399
11
0.042701
21
3.41397
0
LINE
8
BLACK
6
CONTINUOUS
10
0.042701
20
3.41397
11
0.0464506
21
3.4121
0
LINE
8
BLACK
6
CONTINUOUS
10
0.0464506
20
3.4121
11
0.0472742
21
3.41149
0
LINE
8
BLACK
6
CONTINUOUS
10
0.0472742
20
3.41149
11
0.04745
21
3.41108
0
LINE
8
BLACK
6
CONTINUOUS
10
0.04745
20
3.41108
11
0.0477711
21
3.41078
0
LINE
8
BLACK
6
CONTINUOUS
10
0.0477711
20
3.41078
11
0.0496458
21
3.40703
0
LINE
8
BLACK
6
CONTINUOUS
10
0.0496458
20
3.40703
11
0.0499382
21
3.40605
0
LINE
8
BLACK
6
CONTINUOUS
10
0.0499382
20
3.40605
11
0.0498972
21
3.40587
0
LINE
8
BLACK
6
CONTINUOUS
10
0.0498972
20
3.40587
11
0.0499576
21
3.40571
0
LINE
8
BLACK
6
CONTINUOUS
10
0.0499576
20
3.40571
11
0.0499576
21
3.38509
0
LINE
8
BLACK
6
CONTINUOUS
10
0.0499576
20
3.38509
11
0.0497795
21
3.38408
0
LINE
8
BLACK
6
CONTINUOUS
10
0.0497795
20
3.38408
11
0.0484812
21
3.38253
0
LINE
8
BLACK
6
CONTINUOUS
10
0.0484812
20
3.38253
11
0.046492
21
3.38218
0
LINE
8
BLACK
6
CONTINUOUS
10
0.046492
20
3.38218
11
0.0447429
21
3.38319
0
LINE
8
BLACK
6
CONTINUOUS
10
0.0447429
20
3.38319
11
0.044052
21
3.38509
0
LINE
8
BLACK
6
CONTINUOUS
10
0.044052
20
3.38509
11
0.044052
21
3.40501
0
LINE
8
BLACK
6
CONTINUOUS
10
0.044052
20
3.40501
11
0.0429292
21
3.40726
0
LINE
8
BLACK
6
CONTINUOUS
10
0.0429292
20
3.40726
11
0.0406834
21
3.40838
0
LINE
8
BLACK
6
CONTINUOUS
10
0.0406834
20
3.40838
11
0.0364532
21
3.40838
0
LINE
8
BLACK
6
CONTINUOUS
10
0.0364532
20
3.40838
11
0.0342075
21
3.40726
0
LINE
8
BLACK
6
CONTINUOUS
10
0.0342075
20
3.40726
11
0.0330846
21
3.40501
0
LINE
8
BLACK
6
CONTINUOUS
10
0.0330846
20
3.40501
11
0.0330846
21
3.38509
0
LINE
8
BLACK
6
CONTINUOUS
10
0.0330846
20
3.38509
11
0.0329066
21
3.38408
0
LINE
8
BLACK
6
CONTINUOUS
10
0.0329066
20
3.38408
11
0.0316083
21
3.38253
0
LINE
8
BLACK
6
CONTINUOUS
10
0.0316083
20
3.38253
11
0.0296191
21
3.38218
0
LINE
8
BLACK
6
CONTINUOUS
10
0.0296191
20
3.38218
11
0.02787
21
3.38319
0
LINE
8
BLACK
6
CONTINUOUS
10
0.02787
20
3.38319
11
0.0271791
21
3.38509
0
LINE
8
BLACK
6
CONTINUOUS
10
0.0271791
20
3.38509
11
0.0271791
21
3.40501
0
LINE
8
BLACK
6
CONTINUOUS
10
0.0271791
20
3.40501
11
0.0260563
21
3.40726
0
LINE
8
BLACK
6
CONTINUOUS
10
0.0260563
20
3.40726
11
0.0238106
21
3.40838
0
LINE
8
BLACK
6
CONTINUOUS
10
0.0238106
20
3.40838
11
0.0195804
21
3.40838
0
LINE
8
BLACK
6
CONTINUOUS
10
0.0195804
20
3.40838
11
0.0168829
21
3.40703
0
LINE
8
BLACK
6
CONTINUOUS
10
0.0168829
20
3.40703
11
0.0162118
21
3.40636
0
LINE
8
BLACK
6
CONTINUOUS
10
0.0162118
20
3.40636
11
0.0162118
21
3.38509
0
LINE
8
BLACK
6
CONTINUOUS
10
0.0162118
20
3.38509
11
0.0160337
21
3.38408
0
LINE
8
BLACK
6
CONTINUOUS
10
0.0160337
20
3.38408
11
0.0147354
21
3.38253
0
LINE
8
BLACK
6
CONTINUOUS
10
0.0147354
20
3.38253
11
0.0127463
21
3.38218
0
LINE
8
BLACK
6
CONTINUOUS
10
0.0127463
20
3.38218
11
0.0109971
21
3.38319
0
LINE
8
BLACK
6
CONTINUOUS
10
0.0109971
20
3.38319
11
0.0103063
21
3.38509
0
LINE
8
BLACK
6
CONTINUOUS
10
0.0103063
20
3.38509
11
0.0103063
21
3.41133
0
LINE
8
BLACK
6
CONTINUOUS
10
0.0103063
20
3.41133
11
0.0104843
21
3.41234
0
LINE
8
BLACK
6
CONTINUOUS
10
0.0104843
20
3.41234
11
0.0117826
21
3.41389
0
LINE
8
BLACK
6
CONTINUOUS
10
0.0117826
20
3.41389
11
0.0137718
21
3.41424
0
LINE
8
BLACK
6
CONTINUOUS
10
0.0137718
20
3.41424
11
0.0155209
21
3.41323
0
LINE
8
BLACK
6
CONTINUOUS
10
0.0155209
20
3.41323
11
0.0156065
21
3.413
0
LINE
8
BLACK
6
CONTINUOUS
10
0.0156065
20
3.413
11
0.0175628
21
3.41397
0
LINE
8
BLACK
6
CONTINUOUS
10
0.0175628
20
3.41397
11
0.0185457
21
3.41427
0
LINE
8
BLACK
6
CONTINUOUS
10
0.0185457
20
3.41427
11
0.0187174
21
3.41423
0
LINE
8
BLACK
6
CONTINUOUS
10
0.0187174
20
3.41423
11
0.0188833
21
3.41429
0
LINE
8
BLACK
6
CONTINUOUS
10
0.0188833
20
3.41429
11
0.0245076
21
3.41429
0
LINE
8
BLACK
6
CONTINUOUS
10
0.0245076
20
3.41429
11
0.0255175
21
3.41411
0
LINE
8
BLACK
6
CONTINUOUS
10
0.294861
20
3.41323
11
0.295552
21
3.41133
0
LINE
8
BLACK
6
CONTINUOUS
10
0.295552
20
3.41133
11
0.295552
21
3.38509
0
LINE
8
BLACK
6
CONTINUOUS
10
0.295552
20
3.38509
11
0.295374
21
3.38408
0
LINE
8
BLACK
6
CONTINUOUS
10
0.295374
20
3.38408
11
0.294076
21
3.38253
0
LINE
8
BLACK
6
CONTINUOUS
10
0.294076
20
3.38253
11
0.292086
21
3.38218
0
LINE
8
BLACK
6
CONTINUOUS
10
0.292086
20
3.38218
11
0.290337
21
3.38319
0
LINE
8
BLACK
6
CONTINUOUS
10
0.290337
20
3.38319
11
0.289646
21
3.38509
0
LINE
8
BLACK
6
CONTINUOUS
10
0.289646
20
3.38509
11
0.289646
21
3.41133
0
LINE
8
BLACK
6
CONTINUOUS
10
0.289646
20
3.41133
11
0.289824
21
3.41234
0
LINE
8
BLACK
6
CONTINUOUS
10
0.289824
20
3.41234
11
0.291123
21
3.41389
0
LINE
8
BLACK
6
CONTINUOUS
10
0.291123
20
3.41389
11
0.293112
21
3.41424
0
LINE
8
BLACK
6
CONTINUOUS
10
0.293112
20
3.41424
11
0.294861
21
3.41323
0
LINE
8
BLACK
6
CONTINUOUS
10
0.323605
20
3.41411
11
0.323741
21
3.41399
0
LINE
8
BLACK
6
CONTINUOUS
10
0.323741
20
3.41399
11
0.323916
21
3.41397
0
LINE
8
BLACK
6
CONTINUOUS
10
0.323916
20
3.41397
11
0.327665
21
3.4121
0
LINE
8
BLACK
6
CONTINUOUS
10
0.327665
20
3.4121
11
0.328235
21
3.41168
0
LINE
8
BLACK
6
CONTINUOUS
10
0.328235
20
3.41168
11
0.32847
21
3.41178
0
LINE
8
BLACK
6
CONTINUOUS
10
0.32847
20
3.41178
11
0.328774
21
3.4121
0
LINE
8
BLACK
6
CONTINUOUS
10
0.328774
20
3.4121
11
0.332523
21
3.41397
0
LINE
8
BLACK
6
CONTINUOUS
10
0.332523
20
3.41397
11
0.333506
21
3.41427
0
LINE
8
BLACK
6
CONTINUOUS
10
0.333506
20
3.41427
11
0.333678
21
3.41423
0
LINE
8
BLACK
6
CONTINUOUS
10
0.333678
20
3.41423
11
0.333844
21
3.41429
0
LINE
8
BLACK
6
CONTINUOUS
10
0.333844
20
3.41429
11
0.339468
21
3.41429
0
LINE
8
BLACK
6
CONTINUOUS
10
0.339468
20
3.41429
11
0.340478
21
3.41411
0
LINE
8
BLACK
6
CONTINUOUS
10
0.340478
20
3.41411
11
0.340613
21
3.41399
0
LINE
8
BLACK
6
CONTINUOUS
10
0.340613
20
3.41399
11
0.340789
21
3.41397
0
LINE
8
BLACK
6
CONTINUOUS
10
0.340789
20
3.41397
11
0.344538
21
3.4121
0
LINE
8
BLACK
6
CONTINUOUS
10
0.344538
20
3.4121
11
0.345362
21
3.41149
0
LINE
8
BLACK
6
CONTINUOUS
10
0.345362
20
3.41149
11
0.345538
21
3.41108
0
LINE
8
BLACK
6
CONTINUOUS
10
0.345538
20
3.41108
11
0.345859
21
3.41078
0
LINE
8
BLACK
6
CONTINUOUS
10
0.345859
20
3.41078
11
0.347734
21
3.40703
0
LINE
8
BLACK
6
CONTINUOUS
10
0.347734
20
3.40703
11
0.348026
21
3.40605
0
LINE
8
BLACK
6
CONTINUOUS
10
0.348026
20
3.40605
11
0.347985
21
3.40587
0
LINE
8
BLACK
6
CONTINUOUS
10
0.347985
20
3.40587
11
0.348045
21
3.40571
0
LINE
8
BLACK
6
CONTINUOUS
10
0.348045
20
3.40571
11
0.348045
21
3.38509
0
LINE
8
BLACK
6
CONTINUOUS
10
0.348045
20
3.38509
11
0.347867
21
3.38408
0
LINE
8
BLACK
6
CONTINUOUS
10
0.347867
20
3.38408
11
0.346569
21
3.38253
0
LINE
8
BLACK
6
CONTINUOUS
10
0.346569
20
3.38253
11
0.34458
21
3.38218
0
LINE
8
BLACK
6
CONTINUOUS
10
0.34458
20
3.38218
11
0.342831
21
3.38319
0
LINE
8
BLACK
6
CONTINUOUS
10
0.342831
20
3.38319
11
0.34214
21
3.38509
0
LINE
8
BLACK
6
CONTINUOUS
10
0.34214
20
3.38509
11
0.34214
21
3.40501
0
LINE
8
BLACK
6
CONTINUOUS
10
0.34214
20
3.40501
11
0.341017
21
3.40726
0
LINE
8
BLACK
6
CONTINUOUS
10
0.341017
20
3.40726
11
0.338771
21
3.40838
0
LINE
8
BLACK
6
CONTINUOUS
10
0.338771
20
3.40838
11
0.334541
21
3.40838
0
LINE
8
BLACK
6
CONTINUOUS
10
0.334541
20
3.40838
11
0.332295
21
3.40726
0
LINE
8
BLACK
6
CONTINUOUS
10
0.332295
20
3.40726
11
0.331172
21
3.40501
0
LINE
8
BLACK
6
CONTINUOUS
10
0.331172
20
3.40501
11
0.331172
21
3.38509
0
LINE
8
BLACK
6
CONTINUOUS
10
0.331172
20
3.38509
11
0.330994
21
3.38408
0
LINE
8
BLACK
6
CONTINUOUS
10
0.330994
20
3.38408
11
0.329696
21
3.38253
0
LINE
8
BLACK
6
CONTINUOUS
10
0.329696
20
3.38253
11
0.327707
21
3.38218
0
LINE
8
BLACK
6
CONTINUOUS
10
0.327707
20
3.38218
11
0.325958
21
3.38319
0
LINE
8
BLACK
6
CONTINUOUS
10
0.325958
20
3.38319
11
0.325267
21
3.38509
0
LINE
8
BLACK
6
CONTINUOUS
10
0.325267
20
3.38509
11
0.325267
21
3.40501
0
LINE
8
BLACK
6
CONTINUOUS
10
0.325267
20
3.40501
11
0.324144
21
3.40726
0
LINE
8
BLACK
6
CONTINUOUS
10
0.324144
20
3.40726
11
0.321898
21
3.40838
0
LINE
8
BLACK
6
CONTINUOUS
10
0.321898
20
3.40838
11
0.317668
21
3.40838
0
LINE
8
BLACK
6
CONTINUOUS
10
0.317668
20
3.40838
11
0.314971
21
3.40703
0
LINE
8
BLACK
6
CONTINUOUS
10
0.314971
20
3.40703
11
0.3143
21
3.40636
0
LINE
8
BLACK
6
CONTINUOUS
10
0.3143
20
3.40636
11
0.3143
21
3.38509
0
LINE
8
BLACK
6
CONTINUOUS
10
0.3143
20
3.38509
11
0.314121
21
3.38408
0
LINE
8
BLACK
6
CONTINUOUS
10
0.314121
20
3.38408
11
0.312823
21
3.38253
0
LINE
8
BLACK
6
CONTINUOUS
10
0.312823
20
3.38253
11
0.310834
21
3.38218
0
LINE
8
BLACK
6
CONTINUOUS
10
0.310834
20
3.38218
11
0.309085
21
3.38319
0
LINE
8
BLACK
6
CONTINUOUS
10
0.309085
20
3.38319
11
0.308394
21
3.38509
0
LINE
8
BLACK
6
CONTINUOUS
10
0.308394
20
3.38509
11
0.308394
21
3.41133
0
LINE
8
BLACK
6
CONTINUOUS
10
0.308394
20
3.41133
11
0.308572
21
3.41234
0
LINE
8
BLACK
6
CONTINUOUS
10
0.308572
20
3.41234
11
0.30987
21
3.41389
0
LINE
8
BLACK
6
CONTINUOUS
10
0.30987
20
3.41389
11
0.31186
21
3.41424
0
LINE
8
BLACK
6
CONTINUOUS
10
0.31186
20
3.41424
11
0.313609
21
3.41323
0
LINE
8
BLACK
6
CONTINUOUS
10
0.313609
20
3.41323
11
0.313694
21
3.413
0
LINE
8
BLACK
6
CONTINUOUS
10
0.313694
20
3.413
11
0.315651
21
3.41397
0
LINE
8
BLACK
6
CONTINUOUS
10
0.315651
20
3.41397
11
0.316633
21
3.41427
0
LINE
8
BLACK
6
CONTINUOUS
10
0.316633
20
3.41427
11
0.316805
21
3.41423
0
LINE
8
BLACK
6
CONTINUOUS
10
0.316805
20
3.41423
11
0.316971
21
3.41429
0
LINE
8
BLACK
6
CONTINUOUS
10
0.316971
20
3.41429
11
0.322595
21
3.41429
0
LINE
8
BLACK
6
CONTINUOUS
10
0.322595
20
3.41429
11
0.323605
21
3.41411
0
LINE
8
BLACK
6
CONTINUOUS
10
0.409844
20
3.41411
11
0.40998
21
3.41399
0
LINE
8
BLACK
6
CONTINUOUS
10
0.40998
20
3.41399
11
0.410155
21
3.41397
0
LINE
8
BLACK
6
CONTINUOUS
10
0.410155
20
3.41397
11
0.413905
21
3.4121
0
LINE
8
BLACK
6
CONTINUOUS
10
0.413905
20
3.4121
11
0.414728
21
3.41149
0
LINE
8
BLACK
6
CONTINUOUS
10
0.414728
20
3.41149
11
0.414904
21
3.41108
0
LINE
8
BLACK
6
CONTINUOUS
10
0.414904
20
3.41108
11
0.415225
21
3.41078
0
LINE
8
BLACK
6
CONTINUOUS
10
0.415225
20
3.41078
11
0.4171
21
3.40703
0
LINE
8
BLACK
6
CONTINUOUS
10
0.4171
20
3.40703
11
0.417392
21
3.40605
0
LINE
8
BLACK
6
CONTINUOUS
10
0.417392
20
3.40605
11
0.417351
21
3.40587
0
LINE
8
BLACK
6
CONTINUOUS
10
0.417351
20
3.40587
11
0.417412
21
3.40571
0
LINE
8
BLACK
6
CONTINUOUS
10
0.417412
20
3.40571
11
0.417412
21
3.38509
0
LINE
8
BLACK
6
CONTINUOUS
10
0.417412
20
3.38509
11
0.417234
21
3.38408
0
LINE
8
BLACK
6
CONTINUOUS
10
0.417234
20
3.38408
11
0.415935
21
3.38253
0
LINE
8
BLACK
6
CONTINUOUS
10
0.415935
20
3.38253
11
0.413946
21
3.38218
0
LINE
8
BLACK
6
CONTINUOUS
10
0.413946
20
3.38218
11
0.412197
21
3.38319
0
LINE
8
BLACK
6
CONTINUOUS
10
0.412197
20
3.38319
11
0.411506
21
3.38509
0
LINE
8
BLACK
6
CONTINUOUS
10
0.411506
20
3.38509
11
0.411506
21
3.40501
0
LINE
8
BLACK
6
CONTINUOUS
10
0.411506
20
3.40501
11
0.410383
21
3.40726
0
LINE
8
BLACK
6
CONTINUOUS
10
0.410383
20
3.40726
11
0.408138
21
3.40838
0
LINE
8
BLACK
6
CONTINUOUS
10
0.408138
20
3.40838
11
0.403907
21
3.40838
0
LINE
8
BLACK
6
CONTINUOUS
10
0.403907
20
3.40838
11
0.40121
21
3.40703
0
LINE
8
BLACK
6
CONTINUOUS
10
0.40121
20
3.40703
11
0.400539
21
3.40636
0
LINE
8
BLACK
6
CONTINUOUS
10
0.400539
20
3.40636
11
0.400539
21
3.38509
0
LINE
8
BLACK
6
CONTINUOUS
10
0.400539
20
3.38509
11
0.400361
21
3.38408
0
LINE
8
BLACK
6
CONTINUOUS
10
0.400361
20
3.38408
11
0.399062
21
3.38253
0
LINE
8
BLACK
6
CONTINUOUS
10
0.399062
20
3.38253
11
0.397073
21
3.38218
0
LINE
8
BLACK
6
CONTINUOUS
10
0.397073
20
3.38218
11
0.395324
21
3.38319
0
LINE
8
BLACK
6
CONTINUOUS
10
0.395324
20
3.38319
11
0.394633
21
3.38509
0
LINE
8
BLACK
6
CONTINUOUS
10
0.394633
20
3.38509
11
0.394633
21
3.41133
0
LINE
8
BLACK
6
CONTINUOUS
10
0.394633
20
3.41133
11
0.394811
21
3.41234
0
LINE
8
BLACK
6
CONTINUOUS
10
0.394811
20
3.41234
11
0.39611
21
3.41389
0
LINE
8
BLACK
6
CONTINUOUS
10
0.39611
20
3.41389
11
0.398099
21
3.41424
0
LINE
8
BLACK
6
CONTINUOUS
10
0.398099
20
3.41424
11
0.399848
21
3.41323
0
LINE
8
BLACK
6
CONTINUOUS
10
0.399848
20
3.41323
11
0.399933
21
3.413
0
LINE
8
BLACK
6
CONTINUOUS
10
0.399933
20
3.413
11
0.40189
21
3.41397
0
LINE
8
BLACK
6
CONTINUOUS
10
0.40189
20
3.41397
11
0.402873
21
3.41427
0
LINE
8
BLACK
6
CONTINUOUS
10
0.402873
20
3.41427
11
0.403044
21
3.41423
0
LINE
8
BLACK
6
CONTINUOUS
10
0.403044
20
3.41423
11
0.40321
21
3.41429
0
LINE
8
BLACK
6
CONTINUOUS
10
0.40321
20
3.41429
11
0.408835
21
3.41429
0
LINE
8
BLACK
6
CONTINUOUS
10
0.408835
20
3.41429
11
0.409844
21
3.41411
0
LINE
8
BLACK
6
CONTINUOUS
10
0.467339
20
3.41323
11
0.46803
21
3.41133
0
LINE
8
BLACK
6
CONTINUOUS
10
0.46803
20
3.41133
11
0.46803
21
3.38509
0
LINE
8
BLACK
6
CONTINUOUS
10
0.46803
20
3.38509
11
0.467852
21
3.38408
0
LINE
8
BLACK
6
CONTINUOUS
10
0.467852
20
3.38408
11
0.466554
21
3.38253
0
LINE
8
BLACK
6
CONTINUOUS
10
0.466554
20
3.38253
11
0.464565
21
3.38218
0
LINE
8
BLACK
6
CONTINUOUS
10
0.464565
20
3.38218
11
0.462816
21
3.38319
0
LINE
8
BLACK
6
CONTINUOUS
10
0.462816
20
3.38319
11
0.462125
21
3.38509
0
LINE
8
BLACK
6
CONTINUOUS
10
0.462125
20
3.38509
11
0.462125
21
3.41133
0
LINE
8
BLACK
6
CONTINUOUS
10
0.462125
20
3.41133
11
0.462303
21
3.41234
0
LINE
8
BLACK
6
CONTINUOUS
10
0.462303
20
3.41234
11
0.463601
21
3.41389
0
LINE
8
BLACK
6
CONTINUOUS
10
0.463601
20
3.41389
11
0.46559
21
3.41424
0
LINE
8
BLACK
6
CONTINUOUS
10
0.46559
20
3.41424
11
0.467339
21
3.41323
0
LINE
8
BLACK
6
CONTINUOUS
10
0.531704
20
3.41411
11
0.531839
21
3.41399
0
LINE
8
BLACK
6
CONTINUOUS
10
0.531839
20
3.41399
11
0.532015
21
3.41397
0
LINE
8
BLACK
6
CONTINUOUS
10
0.532015
20
3.41397
11
0.535764
21
3.4121
0
LINE
8
BLACK
6
CONTINUOUS
10
0.535764
20
3.4121
11
0.536588
21
3.41149
0
LINE
8
BLACK
6
CONTINUOUS
10
0.536588
20
3.41149
11
0.536764
21
3.41108
0
LINE
8
BLACK
6
CONTINUOUS
10
0.536764
20
3.41108
11
0.537085
21
3.41078
0
LINE
8
BLACK
6
CONTINUOUS
10
0.537085
20
3.41078
11
0.53896
21
3.40703
0
LINE
8
BLACK
6
CONTINUOUS
10
0.53896
20
3.40703
11
0.539252
21
3.40605
0
LINE
8
BLACK
6
CONTINUOUS
10
0.539252
20
3.40605
11
0.539211
21
3.40587
0
LINE
8
BLACK
6
CONTINUOUS
10
0.539211
20
3.40587
11
0.539271
21
3.40571
0
LINE
8
BLACK
6
CONTINUOUS
10
0.539271
20
3.40571
11
0.539271
21
3.38509
0
LINE
8
BLACK
6
CONTINUOUS
10
0.539271
20
3.38509
11
0.539093
21
3.38408
0
LINE
8
BLACK
6
CONTINUOUS
10
0.539093
20
3.38408
11
0.537795
21
3.38253
0
LINE
8
BLACK
6
CONTINUOUS
10
0.537795
20
3.38253
11
0.535806
21
3.38218
0
LINE
8
BLACK
6
CONTINUOUS
10
0.535806
20
3.38218
11
0.534057
21
3.38319
0
LINE
8
BLACK
6
CONTINUOUS
10
0.534057
20
3.38319
11
0.533366
21
3.38509
0
LINE
8
BLACK
6
CONTINUOUS
10
0.533366
20
3.38509
11
0.533366
21
3.40501
0
LINE
8
BLACK
6
CONTINUOUS
10
0.533366
20
3.40501
11
0.532243
21
3.40726
0
LINE
8
BLACK
6
CONTINUOUS
10
0.532243
20
3.40726
11
0.529997
21
3.40838
0
LINE
8
BLACK
6
CONTINUOUS
10
0.529997
20
3.40838
11
0.525767
21
3.40838
0
LINE
8
BLACK
6
CONTINUOUS
10
0.525767
20
3.40838
11
0.52307
21
3.40703
0
LINE
8
BLACK
6
CONTINUOUS
10
0.52307
20
3.40703
11
0.522399
21
3.40636
0
LINE
8
BLACK
6
CONTINUOUS
10
0.522399
20
3.40636
11
0.522399
21
3.38509
0
LINE
8
BLACK
6
CONTINUOUS
10
0.522399
20
3.38509
11
0.52222
21
3.38408
0
LINE
8
BLACK
6
CONTINUOUS
10
0.52222
20
3.38408
11
0.520922
21
3.38253
0
LINE
8
BLACK
6
CONTINUOUS
10
0.520922
20
3.38253
11
0.518933
21
3.38218
0
LINE
8
BLACK
6
CONTINUOUS
10
0.518933
20
3.38218
11
0.517184
21
3.38319
0
LINE
8
BLACK
6
CONTINUOUS
10
0.517184
20
3.38319
11
0.516493
21
3.38509
0
LINE
8
BLACK
6
CONTINUOUS
10
0.516493
20
3.38509
11
0.516493
21
3.41133
0
LINE
8
BLACK
6
CONTINUOUS
10
0.516493
20
3.41133
11
0.516671
21
3.41234
0
LINE
8
BLACK
6
CONTINUOUS
10
0.516671
20
3.41234
11
0.517969
21
3.41389
0
LINE
8
BLACK
6
CONTINUOUS
10
0.517969
20
3.41389
11
0.519959
21
3.41424
0
LINE
8
BLACK
6
CONTINUOUS
10
0.519959
20
3.41424
11
0.521708
21
3.41323
0
LINE
8
BLACK
6
CONTINUOUS
10
0.521708
20
3.41323
11
0.521793
21
3.413
0
LINE
8
BLACK
6
CONTINUOUS
10
0.521793
20
3.413
11
0.52375
21
3.41397
0
LINE
8
BLACK
6
CONTINUOUS
10
0.52375
20
3.41397
11
0.524732
21
3.41427
0
LINE
8
BLACK
6
CONTINUOUS
10
0.524732
20
3.41427
11
0.524904
21
3.41423
0
LINE
8
BLACK
6
CONTINUOUS
10
0.524904
20
3.41423
11
0.52507
21
3.41429
0
LINE
8
BLACK
6
CONTINUOUS
10
0.52507
20
3.41429
11
0.530694
21
3.41429
0
LINE
8
BLACK
6
CONTINUOUS
10
0.530694
20
3.41429
11
0.531704
21
3.41411
0
LINE
8
BLACK
6
CONTINUOUS
10
0.174876
20
3.42635
11
0.175567
21
3.42446
0
LINE
8
BLACK
6
CONTINUOUS
10
0.175567
20
3.42446
11
0.175567
21
3.39141
0
LINE
8
BLACK
6
CONTINUOUS
10
0.175567
20
3.39141
11
0.17669
21
3.38916
0
LINE
8
BLACK
6
CONTINUOUS
10
0.17669
20
3.38916
11
0.179559
21
3.38773
0
LINE
8
BLACK
6
CONTINUOUS
10
0.179559
20
3.38773
11
0.180383
21
3.38712
0
LINE
8
BLACK
6
CONTINUOUS
10
0.180383
20
3.38712
11
0.181186
21
3.38526
0
LINE
8
BLACK
6
CONTINUOUS
10
0.181186
20
3.38526
11
0.18061
21
3.38333
0
LINE
8
BLACK
6
CONTINUOUS
10
0.18061
20
3.38333
11
0.178924
21
3.38221
0
LINE
8
BLACK
6
CONTINUOUS
10
0.178924
20
3.38221
11
0.176918
21
3.38244
0
LINE
8
BLACK
6
CONTINUOUS
10
0.176918
20
3.38244
11
0.173168
21
3.38432
0
LINE
8
BLACK
6
CONTINUOUS
10
0.173168
20
3.38432
11
0.172345
21
3.38493
0
LINE
8
BLACK
6
CONTINUOUS
10
0.172345
20
3.38493
11
0.172169
21
3.38534
0
LINE
8
BLACK
6
CONTINUOUS
10
0.172169
20
3.38534
11
0.171848
21
3.38564
0
LINE
8
BLACK
6
CONTINUOUS
10
0.171848
20
3.38564
11
0.169973
21
3.38939
0
LINE
8
BLACK
6
CONTINUOUS
10
0.169973
20
3.38939
11
0.169681
21
3.39037
0
LINE
8
BLACK
6
CONTINUOUS
10
0.169681
20
3.39037
11
0.169722
21
3.39054
0
LINE
8
BLACK
6
CONTINUOUS
10
0.169722
20
3.39054
11
0.169661
21
3.39071
0
LINE
8
BLACK
6
CONTINUOUS
10
0.169661
20
3.39071
11
0.169661
21
3.42446
0
LINE
8
BLACK
6
CONTINUOUS
10
0.169661
20
3.42446
11
0.169839
21
3.42547
0
LINE
8
BLACK
6
CONTINUOUS
10
0.169839
20
3.42547
11
0.171138
21
3.42701
0
LINE
8
BLACK
6
CONTINUOUS
10
0.171138
20
3.42701
11
0.173127
21
3.42736
0
LINE
8
BLACK
6
CONTINUOUS
10
0.173127
20
3.42736
11
0.174876
21
3.42635
0
LINE
8
BLACK
6
CONTINUOUS
10
0.292979
20
3.42734
11
0.293112
21
3.42736
0
LINE
8
BLACK
6
CONTINUOUS
10
0.293112
20
3.42736
11
0.293229
21
3.4273
0
LINE
8
BLACK
6
CONTINUOUS
10
0.293229
20
3.4273
11
0.293363
21
3.42731
0
LINE
8
BLACK
6
CONTINUOUS
10
0.293363
20
3.42731
11
0.293992
21
3.42687
0
LINE
8
BLACK
6
CONTINUOUS
10
0.293992
20
3.42687
11
0.294687
21
3.42654
0
LINE
8
BLACK
6
CONTINUOUS
10
0.294687
20
3.42654
11
0.296562
21
3.42467
0
LINE
8
BLACK
6
CONTINUOUS
10
0.296562
20
3.42467
11
0.296785
21
3.42435
0
LINE
8
BLACK
6
CONTINUOUS
10
0.296785
20
3.42435
11
0.296893
21
3.42427
0
LINE
8
BLACK
6
CONTINUOUS
10
0.296893
20
3.42427
11
0.296927
21
3.42415
0
LINE
8
BLACK
6
CONTINUOUS
10
0.296927
20
3.42415
11
0.29715
21
3.42383
0
LINE
8
BLACK
6
CONTINUOUS
10
0.29715
20
3.42383
11
0.297217
21
3.42306
0
LINE
8
BLACK
6
CONTINUOUS
10
0.297217
20
3.42306
11
0.297415
21
3.42232
0
LINE
8
BLACK
6
CONTINUOUS
10
0.297415
20
3.42232
11
0.297303
21
3.42208
0
LINE
8
BLACK
6
CONTINUOUS
10
0.297303
20
3.42208
11
0.297326
21
3.42182
0
LINE
8
BLACK
6
CONTINUOUS
10
0.297326
20
3.42182
11
0.296886
21
3.42119
0
LINE
8
BLACK
6
CONTINUOUS
10
0.296886
20
3.42119
11
0.296562
21
3.42049
0
LINE
8
BLACK
6
CONTINUOUS
10
0.296562
20
3.42049
11
0.294687
21
3.41862
0
LINE
8
BLACK
6
CONTINUOUS
10
0.294687
20
3.41862
11
0.294368
21
3.4184
0
LINE
8
BLACK
6
CONTINUOUS
10
0.294368
20
3.4184
11
0.294293
21
3.41829
0
LINE
8
BLACK
6
CONTINUOUS
10
0.294293
20
3.41829
11
0.294166
21
3.41825
0
LINE
8
BLACK
6
CONTINUOUS
10
0.294166
20
3.41825
11
0.294159
21
3.41825
0
LINE
8
BLACK
6
CONTINUOUS
10
0.294159
20
3.41825
11
0.294076
21
3.41815
0
LINE
8
BLACK
6
CONTINUOUS
10
0.294076
20
3.41815
11
0.293997
21
3.41814
0
LINE
8
BLACK
6
CONTINUOUS
10
0.293997
20
3.41814
11
0.293847
21
3.41803
0
LINE
8
BLACK
6
CONTINUOUS
10
0.293847
20
3.41803
11
0.293083
21
3.41796
0
LINE
8
BLACK
6
CONTINUOUS
10
0.293083
20
3.41796
11
0.292342
21
3.41776
0
LINE
8
BLACK
6
CONTINUOUS
10
0.292342
20
3.41776
11
0.292219
21
3.41782
0
LINE
8
BLACK
6
CONTINUOUS
10
0.292219
20
3.41782
11
0.292086
21
3.4178
0
LINE
8
BLACK
6
CONTINUOUS
10
0.292086
20
3.4178
11
0.291969
21
3.41787
0
LINE
8
BLACK
6
CONTINUOUS
10
0.291969
20
3.41787
11
0.291835
21
3.41785
0
LINE
8
BLACK
6
CONTINUOUS
10
0.291835
20
3.41785
11
0.291206
21
3.41829
0
LINE
8
BLACK
6
CONTINUOUS
10
0.291206
20
3.41829
11
0.290511
21
3.41862
0
LINE
8
BLACK
6
CONTINUOUS
10
0.290511
20
3.41862
11
0.288636
21
3.42049
0
LINE
8
BLACK
6
CONTINUOUS
10
0.288636
20
3.42049
11
0.288413
21
3.42081
0
LINE
8
BLACK
6
CONTINUOUS
10
0.288413
20
3.42081
11
0.288306
21
3.42089
0
LINE
8
BLACK
6
CONTINUOUS
10
0.288306
20
3.42089
11
0.288272
21
3.42101
0
LINE
8
BLACK
6
CONTINUOUS
10
0.288272
20
3.42101
11
0.288048
21
3.42133
0
LINE
8
BLACK
6
CONTINUOUS
10
0.288048
20
3.42133
11
0.287981
21
3.4221
0
LINE
8
BLACK
6
CONTINUOUS
10
0.287981
20
3.4221
11
0.287783
21
3.42284
0
LINE
8
BLACK
6
CONTINUOUS
10
0.287783
20
3.42284
11
0.287895
21
3.42308
0
LINE
8
BLACK
6
CONTINUOUS
10
0.287895
20
3.42308
11
0.287872
21
3.42335
0
LINE
8
BLACK
6
CONTINUOUS
10
0.287872
20
3.42335
11
0.288312
21
3.42397
0
LINE
8
BLACK
6
CONTINUOUS
10
0.288312
20
3.42397
11
0.288636
21
3.42467
0
LINE
8
BLACK
6
CONTINUOUS
10
0.288636
20
3.42467
11
0.290511
21
3.42654
0
LINE
8
BLACK
6
CONTINUOUS
10
0.290511
20
3.42654
11
0.29083
21
3.42677
0
LINE
8
BLACK
6
CONTINUOUS
10
0.29083
20
3.42677
11
0.290906
21
3.42687
0
LINE
8
BLACK
6
CONTINUOUS
10
0.290906
20
3.42687
11
0.291032
21
3.42691
0
LINE
8
BLACK
6
CONTINUOUS
10
0.291032
20
3.42691
11
0.291039
21
3.42691
0
LINE
8
BLACK
6
CONTINUOUS
10
0.291039
20
3.42691
11
0.291123
21
3.42701
0
LINE
8
BLACK
6
CONTINUOUS
10
0.291123
20
3.42701
11
0.291201
21
3.42703
0
LINE
8
BLACK
6
CONTINUOUS
10
0.291201
20
3.42703
11
0.291351
21
3.42713
0
LINE
8
BLACK
6
CONTINUOUS
10
0.291351
20
3.42713
11
0.292115
21
3.4272
0
LINE
8
BLACK
6
CONTINUOUS
10
0.292115
20
3.4272
11
0.292856
21
3.4274
0
LINE
8
BLACK
6
CONTINUOUS
10
0.292856
20
3.4274
11
0.292979
21
3.42734
0
LINE
8
BLACK
6
CONTINUOUS
10
0.465457
20
3.42734
11
0.46559
21
3.42736
0
LINE
8
BLACK
6
CONTINUOUS
10
0.46559
20
3.42736
11
0.465707
21
3.4273
0
LINE
8
BLACK
6
CONTINUOUS
10
0.465707
20
3.4273
11
0.465842
21
3.42731
0
LINE
8
BLACK
6
CONTINUOUS
10
0.465842
20
3.42731
11
0.46647
21
3.42687
0
LINE
8
BLACK
6
CONTINUOUS
10
0.46647
20
3.42687
11
0.467165
21
3.42654
0
LINE
8
BLACK
6
CONTINUOUS
10
0.467165
20
3.42654
11
0.46904
21
3.42467
0
LINE
8
BLACK
6
CONTINUOUS
10
0.46904
20
3.42467
11
0.469264
21
3.42435
0
LINE
8
BLACK
6
CONTINUOUS
10
0.469264
20
3.42435
11
0.469371
21
3.42427
0
LINE
8
BLACK
6
CONTINUOUS
10
0.469371
20
3.42427
11
0.469405
21
3.42415
0
LINE
8
BLACK
6
CONTINUOUS
10
0.469405
20
3.42415
11
0.469628
21
3.42383
0
LINE
8
BLACK
6
CONTINUOUS
10
0.469628
20
3.42383
11
0.469695
21
3.42306
0
LINE
8
BLACK
6
CONTINUOUS
10
0.469695
20
3.42306
11
0.469894
21
3.42232
0
LINE
8
BLACK
6
CONTINUOUS
10
0.469894
20
3.42232
11
0.469781
21
3.42208
0
LINE
8
BLACK
6
CONTINUOUS
10
0.469781
20
3.42208
11
0.469804
21
3.42182
0
LINE
8
BLACK
6
CONTINUOUS
10
0.469804
20
3.42182
11
0.469364
21
3.42119
0
LINE
8
BLACK
6
CONTINUOUS
10
0.469364
20
3.42119
11
0.46904
21
3.42049
0
LINE
8
BLACK
6
CONTINUOUS
10
0.46904
20
3.42049
11
0.467165
21
3.41862
0
LINE
8
BLACK
6
CONTINUOUS
10
0.467165
20
3.41862
11
0.466846
21
3.4184
0
LINE
8
BLACK
6
CONTINUOUS
10
0.466846
20
3.4184
11
0.466771
21
3.41829
0
LINE
8
BLACK
6
CONTINUOUS
10
0.466771
20
3.41829
11
0.466644
21
3.41825
0
LINE
8
BLACK
6
CONTINUOUS
10
0.466644
20
3.41825
11
0.466637
21
3.41825
0
LINE
8
BLACK
6
CONTINUOUS
10
0.466637
20
3.41825
11
0.466554
21
3.41815
0
LINE
8
BLACK
6
CONTINUOUS
10
0.466554
20
3.41815
11
0.466476
21
3.41814
0
LINE
8
BLACK
6
CONTINUOUS
10
0.466476
20
3.41814
11
0.466325
21
3.41803
0
LINE
8
BLACK
6
CONTINUOUS
10
0.466325
20
3.41803
11
0.465561
21
3.41796
0
LINE
8
BLACK
6
CONTINUOUS
10
0.465561
20
3.41796
11
0.46482
21
3.41776
0
LINE
8
BLACK
6
CONTINUOUS
10
0.46482
20
3.41776
11
0.464698
21
3.41782
0
LINE
8
BLACK
6
CONTINUOUS
10
0.464698
20
3.41782
11
0.464565
21
3.4178
0
LINE
8
BLACK
6
CONTINUOUS
10
0.464565
20
3.4178
11
0.464448
21
3.41787
0
LINE
8
BLACK
6
CONTINUOUS
10
0.464448
20
3.41787
11
0.464313
21
3.41785
0
LINE
8
BLACK
6
CONTINUOUS
10
0.464313
20
3.41785
11
0.463685
21
3.41829
0
LINE
8
BLACK
6
CONTINUOUS
10
0.463685
20
3.41829
11
0.46299
21
3.41862
0
LINE
8
BLACK
6
CONTINUOUS
10
0.46299
20
3.41862
11
0.461115
21
3.42049
0
LINE
8
BLACK
6
CONTINUOUS
10
0.461115
20
3.42049
11
0.460891
21
3.42081
0
LINE
8
BLACK
6
CONTINUOUS
10
0.460891
20
3.42081
11
0.460784
21
3.42089
0
LINE
8
BLACK
6
CONTINUOUS
10
0.460784
20
3.42089
11
0.46075
21
3.42101
0
LINE
8
BLACK
6
CONTINUOUS
10
0.46075
20
3.42101
11
0.460527
21
3.42133
0
LINE
8
BLACK
6
CONTINUOUS
10
0.460527
20
3.42133
11
0.46046
21
3.4221
0
LINE
8
BLACK
6
CONTINUOUS
10
0.46046
20
3.4221
11
0.460261
21
3.42284
0
LINE
8
BLACK
6
CONTINUOUS
10
0.460261
20
3.42284
11
0.460374
21
3.42308
0
LINE
8
BLACK
6
CONTINUOUS
10
0.460374
20
3.42308
11
0.460351
21
3.42335
0
LINE
8
BLACK
6
CONTINUOUS
10
0.460351
20
3.42335
11
0.460791
21
3.42397
0
LINE
8
BLACK
6
CONTINUOUS
10
0.460791
20
3.42397
11
0.461115
21
3.42467
0
LINE
8
BLACK
6
CONTINUOUS
10
0.461115
20
3.42467
11
0.46299
21
3.42654
0
LINE
8
BLACK
6
CONTINUOUS
10
0.46299
20
3.42654
11
0.463309
21
3.42677
0
LINE
8
BLACK
6
CONTINUOUS
10
0.463309
20
3.42677
11
0.463384
21
3.42687
0
LINE
8
BLACK
6
CONTINUOUS
10
0.463384
20
3.42687
11
0.463511
21
3.42691
0
LINE
8
BLACK
6
CONTINUOUS
10
0.463511
20
3.42691
11
0.463518
21
3.42691
0
LINE
8
BLACK
6
CONTINUOUS
10
0.463518
20
3.42691
11
0.463601
21
3.42701
0
LINE
8
BLACK
6
CONTINUOUS
10
0.463601
20
3.42701
11
0.46368
21
3.42703
0
LINE
8
BLACK
6
CONTINUOUS
10
0.46368
20
3.42703
11
0.46383
21
3.42713
0
LINE
8
BLACK
6
CONTINUOUS
10
0.46383
20
3.42713
11
0.464594
21
3.4272
0
LINE
8
BLACK
6
CONTINUOUS
10
0.464594
20
3.4272
11
0.465335
21
3.4274
0
LINE
8
BLACK
6
CONTINUOUS
10
0.465335
20
3.4274
11
0.465457
21
3.42734
  0
ENDSEC
  0
EOF
