  0
SECTION
  2
HEADER
  9
$ANGBASE
  50
0.0
  9
$ANGDIR
  70
1
  9
$MEASUREMENT
  70
0
  0
ENDSEC
  0
SECTION
  2
TABLES
  0
TABLE
  2
LTYPE
  70
4
  0
LTYPE
  5
40F
  2
CONTINUOUS
  70
0
  3
Solid line
  72
65
  73
0
  40
0.0
  0
LTYPE
  5
410
  2
DASHDOT
 70
0
  3
Dash Dot ____ _ ____ _
 72
65
 73
4
 40
2.0
 49
1.25
 49
-0.25
 49
0.25
 49
-0.25
  0
LTYPE
  5
411
  2
DASHED
 70
0
  3
Dashed __ __ __ __ __
 72
65
 73
2
 40
0.75
 49
0.5
 49
-0.25
  0
LTYPE
  5
43B
  2
DOTTED
 70
0
  3
Dotted .  .  .  .
 72
65
 73
2
 40
0.2
 49
0.0
 49
-0.2
  0
ENDTAB
  0
TABLE
  2
STYLE
  70
4
  0
STYLE
  2
KICAD
  70
0
  40
0
  41
1
  42
1
  50
0
  71
0
  3
isocp.shx
  0
STYLE
  2
KICADB
  70
0
  40
0
  41
1
  42
1
  50
0
  71
0
  3
isocp.shx
  0
STYLE
  2
KICADI
  70
0
  40
0
  41
1
  42
1
  50
15
  71
0
  3
isocp.shx
  0
STYLE
  2
KICADBI
  70
0
  40
0
  41
1
  42
1
  50
15
  71
0
  3
isocp.shx
  0
ENDTAB
  0
TABLE
  2
LAYER
  70
1
  0
LAYER
  2
BLACK
  70
0
  62
7
  6
CONTINUOUS
  0
ENDTAB
  0
ENDSEC
  0
SECTION
  2
ENTITIES
0
LINE
8
BLACK
6
CONTINUOUS
10
-0.8550482283464567
20
0.8629331496062992
11
-0.8539838188976377
21
0.8624922440944882
0
LINE
8
BLACK
6
CONTINUOUS
10
-0.8539838188976377
20
0.8624922440944882
11
-0.8531691732283464
21
0.8616775984251969
0
LINE
8
BLACK
6
CONTINUOUS
10
-0.8531691732283464
20
0.8616775984251969
11
-0.8527282677165354
21
0.860613188976378
0
LINE
8
BLACK
6
CONTINUOUS
10
-0.8527282677165354
20
0.860613188976378
11
-0.8527282677165354
21
0.859461062992126
0
LINE
8
BLACK
6
CONTINUOUS
10
-0.8527282677165354
20
0.859461062992126
11
-0.8531691732283464
21
0.8583966535433071
0
LINE
8
BLACK
6
CONTINUOUS
10
-0.8531691732283464
20
0.8583966535433071
11
-0.8539838188976377
21
0.8575820078740157
0
LINE
8
BLACK
6
CONTINUOUS
10
-0.8539838188976377
20
0.8575820078740157
11
-0.8550482283464567
21
0.8571411023622048
0
LINE
8
BLACK
6
CONTINUOUS
10
-0.8550482283464567
20
0.8571411023622048
11
-0.8556242913385826
21
0.8570843700787402
0
LINE
8
BLACK
6
CONTINUOUS
10
-0.8556242913385826
20
0.8570843700787402
11
-0.8856205511811024
21
0.8570843700787402
0
LINE
8
BLACK
6
CONTINUOUS
10
-0.8856205511811024
20
0.8570843700787402
11
-0.8861966141732284
21
0.8571411023622048
0
LINE
8
BLACK
6
CONTINUOUS
10
-0.8861966141732284
20
0.8571411023622048
11
-0.8872610236220472
21
0.8575820078740157
0
LINE
8
BLACK
6
CONTINUOUS
10
-0.8872610236220472
20
0.8575820078740157
11
-0.8880756692913385
21
0.8583966535433071
0
LINE
8
BLACK
6
CONTINUOUS
10
-0.8880756692913385
20
0.8583966535433071
11
-0.8885165748031496
21
0.859461062992126
0
LINE
8
BLACK
6
CONTINUOUS
10
-0.8885165748031496
20
0.859461062992126
11
-0.8885165748031496
21
0.860613188976378
0
LINE
8
BLACK
6
CONTINUOUS
10
-0.8885165748031496
20
0.860613188976378
11
-0.8880756692913385
21
0.8616775984251969
0
LINE
8
BLACK
6
CONTINUOUS
10
-0.8880756692913385
20
0.8616775984251969
11
-0.8872610236220472
21
0.8624922440944882
0
LINE
8
BLACK
6
CONTINUOUS
10
-0.8872610236220472
20
0.8624922440944882
11
-0.8861966141732284
21
0.8629331496062992
0
LINE
8
BLACK
6
CONTINUOUS
10
-0.8861966141732284
20
0.8629331496062992
11
-0.8856205511811024
21
0.8629898818897638
0
LINE
8
BLACK
6
CONTINUOUS
10
-0.8856205511811024
20
0.8629898818897638
11
-0.8556242913385826
21
0.8629898818897638
0
LINE
8
BLACK
6
CONTINUOUS
10
-0.8556242913385826
20
0.8629898818897638
11
-0.8550482283464567
21
0.8629331496062992
0
LINE
8
BLACK
6
CONTINUOUS
10
-1.0016430314960629
20
0.9060885433070865
11
-1.0015710236220472
21
0.9060957086614173
0
LINE
8
BLACK
6
CONTINUOUS
10
-1.0015710236220472
20
0.9060957086614173
11
-1.0015007086614174
21
0.906074527559055
0
LINE
8
BLACK
6
CONTINUOUS
10
-1.0015007086614174
20
0.906074527559055
11
-1.0012799999999999
21
0.9060527559055118
0
LINE
8
BLACK
6
CONTINUOUS
10
-1.0012799999999999
20
0.9060527559055118
11
-1.0008813385826771
21
0.9058876377952756
0
LINE
8
BLACK
6
CONTINUOUS
10
-1.0008813385826771
20
0.9058876377952756
11
-1.000468031496063
21
0.9057629133858267
0
LINE
8
BLACK
6
CONTINUOUS
10
-1.000468031496063
20
0.9057629133858267
11
-1.0003529527559054
21
0.9056687795275591
0
LINE
8
BLACK
6
CONTINUOUS
10
-1.0003529527559054
20
0.9056687795275591
11
-1.0002155905511811
21
0.9056118503937007
0
LINE
8
BLACK
6
CONTINUOUS
10
-1.0002155905511811
20
0.9056118503937007
11
-0.9999103543307086
21
0.9053066141732283
0
LINE
8
BLACK
6
CONTINUOUS
10
-0.9999103543307086
20
0.9053066141732283
11
-0.9995763779527559
21
0.9050333464566929
0
LINE
8
BLACK
6
CONTINUOUS
10
-0.9995763779527559
20
0.9050333464566929
11
-0.9995061417322835
21
0.9049024015748032
0
LINE
8
BLACK
6
CONTINUOUS
10
-0.9995061417322835
20
0.9049024015748032
11
-0.9994009448818897
21
0.9047972047244094
0
LINE
8
BLACK
6
CONTINUOUS
10
-0.9994009448818897
20
0.9047972047244094
11
-0.9992357874015748
21
0.9043984251968503
0
LINE
8
BLACK
6
CONTINUOUS
10
-0.9992357874015748
20
0.9043984251968503
11
-0.9990317322834645
21
0.9040181102362205
0
LINE
8
BLACK
6
CONTINUOUS
10
-0.9990317322834645
20
0.9040181102362205
11
-0.9989881496062992
21
0.9038006299212599
0
LINE
8
BLACK
6
CONTINUOUS
10
-0.9989881496062992
20
0.9038006299212599
11
-0.9989600393700787
21
0.9037327952755906
0
LINE
8
BLACK
6
CONTINUOUS
10
-0.9989600393700787
20
0.9037327952755906
11
-0.9989600393700787
21
0.9036605118110236
0
LINE
8
BLACK
6
CONTINUOUS
10
-0.9989600393700787
20
0.9036605118110236
11
-0.9989179527559054
21
0.9034505511811023
0
LINE
8
BLACK
6
CONTINUOUS
10
-0.9989179527559054
20
0.9034505511811023
11
-0.9970431889763779
21
0.8847029133858267
0
LINE
8
BLACK
6
CONTINUOUS
10
-0.9970431889763779
20
0.8847029133858267
11
-0.9970423228346457
21
0.8841240551181102
0
LINE
8
BLACK
6
CONTINUOUS
10
-0.9970423228346457
20
0.8841240551181102
11
-0.9970852755905512
21
0.8839817322834645
0
LINE
8
BLACK
6
CONTINUOUS
10
-0.9970852755905512
20
0.8839817322834645
11
-0.9970852755905512
21
0.8838330708661417
0
LINE
8
BLACK
6
CONTINUOUS
10
-0.9970852755905512
20
0.8838330708661417
11
-0.9972503937007874
21
0.8834344881889764
0
LINE
8
BLACK
6
CONTINUOUS
10
-0.9972503937007874
20
0.8834344881889764
11
-0.9973751181102362
21
0.883021062992126
0
LINE
8
BLACK
6
CONTINUOUS
10
-0.9973751181102362
20
0.883021062992126
11
-0.9974693307086614
21
0.8829059448818898
0
LINE
8
BLACK
6
CONTINUOUS
10
-0.9974693307086614
20
0.8829059448818898
11
-0.9975261811023621
21
0.8827686614173228
0
LINE
8
BLACK
6
CONTINUOUS
10
-0.9975261811023621
20
0.8827686614173228
11
-0.9978312598425196
21
0.882463622047244
0
LINE
8
BLACK
6
CONTINUOUS
10
-0.9978312598425196
20
0.882463622047244
11
-0.9981046850393701
21
0.8821294094488189
0
LINE
8
BLACK
6
CONTINUOUS
10
-0.9981046850393701
20
0.8821294094488189
11
-0.9982357480314961
21
0.8820591338582677
0
LINE
8
BLACK
6
CONTINUOUS
10
-0.9982357480314961
20
0.8820591338582677
11
-0.9983408661417322
21
0.8819539763779527
0
LINE
8
BLACK
6
CONTINUOUS
10
-0.9983408661417322
20
0.8819539763779527
11
-0.9987394881889764
21
0.8817888976377952
0
LINE
8
BLACK
6
CONTINUOUS
10
-0.9987394881889764
20
0.8817888976377952
11
-0.9991199212598425
21
0.8815847637795275
0
LINE
8
BLACK
6
CONTINUOUS
10
-0.9991199212598425
20
0.8815847637795275
11
-0.9992679527559055
21
0.88157
0
LINE
8
BLACK
6
CONTINUOUS
10
-0.9992679527559055
20
0.88157
11
-0.9994052755905511
21
0.8815130708661417
0
LINE
8
BLACK
6
CONTINUOUS
10
-0.9994052755905511
20
0.8815130708661417
11
-0.999836811023622
21
0.8815130708661417
0
LINE
8
BLACK
6
CONTINUOUS
10
-0.999836811023622
20
0.8815130708661417
11
-1.0002663385826771
21
0.8814701181102362
0
LINE
8
BLACK
6
CONTINUOUS
10
-1.0002663385826771
20
0.8814701181102362
11
-1.0004087007874016
21
0.8815130708661417
0
LINE
8
BLACK
6
CONTINUOUS
10
-1.0004087007874016
20
0.8815130708661417
11
-1.0005573622047244
21
0.8815130708661417
0
LINE
8
BLACK
6
CONTINUOUS
10
-1.0005573622047244
20
0.8815130708661417
11
-1.0009560629921259
21
0.8816782283464567
0
LINE
8
BLACK
6
CONTINUOUS
10
-1.0009560629921259
20
0.8816782283464567
11
-1.0013693307086613
21
0.8818029133858267
0
LINE
8
BLACK
6
CONTINUOUS
10
-1.0013693307086613
20
0.8818029133858267
11
-1.0014844488188976
21
0.8818970866141732
0
LINE
8
BLACK
6
CONTINUOUS
10
-1.0014844488188976
20
0.8818970866141732
11
-1.0016217716535434
21
0.8819539763779527
0
LINE
8
BLACK
6
CONTINUOUS
10
-1.0016217716535434
20
0.8819539763779527
11
-1.0020692125984252
21
0.8823211811023622
0
LINE
8
BLACK
6
CONTINUOUS
10
-1.0020692125984252
20
0.8823211811023622
11
-1.0036051574803149
21
0.8838571259842519
0
LINE
8
BLACK
6
CONTINUOUS
10
-1.0036051574803149
20
0.8838571259842519
11
-1.0063026377952755
21
0.8852058661417322
0
LINE
8
BLACK
6
CONTINUOUS
10
-1.0063026377952755
20
0.8852058661417322
11
-1.0142823622047243
21
0.8852058661417322
0
LINE
8
BLACK
6
CONTINUOUS
10
-1.0142823622047243
20
0.8852058661417322
11
-1.016979842519685
21
0.8838571259842519
0
LINE
8
BLACK
6
CONTINUOUS
10
-1.016979842519685
20
0.8838571259842519
11
-1.018176968503937
21
0.88266
0
LINE
8
BLACK
6
CONTINUOUS
10
-1.018176968503937
20
0.88266
11
-1.0195257086614173
21
0.8799625196850394
0
LINE
8
BLACK
6
CONTINUOUS
10
-1.0195257086614173
20
0.8799625196850394
11
-1.0195257086614173
21
0.8719827952755905
0
LINE
8
BLACK
6
CONTINUOUS
10
-1.0195257086614173
20
0.8719827952755905
11
-1.018176968503937
21
0.8692853149606299
0
LINE
8
BLACK
6
CONTINUOUS
10
-1.018176968503937
20
0.8692853149606299
11
-1.016979842519685
21
0.8680881496062992
0
LINE
8
BLACK
6
CONTINUOUS
10
-1.016979842519685
20
0.8680881496062992
11
-1.0142823622047243
21
0.8667394094488189
0
LINE
8
BLACK
6
CONTINUOUS
10
-1.0142823622047243
20
0.8667394094488189
11
-1.0063026377952755
21
0.8667394094488189
0
LINE
8
BLACK
6
CONTINUOUS
10
-1.0063026377952755
20
0.8667394094488189
11
-1.0036051968503936
21
0.8680881496062992
0
LINE
8
BLACK
6
CONTINUOUS
10
-1.0036051968503936
20
0.8680881496062992
11
-1.0020692519685039
21
0.869624094488189
0
LINE
8
BLACK
6
CONTINUOUS
10
-1.0020692519685039
20
0.869624094488189
11
-1.0016217716535434
21
0.8699913385826772
0
LINE
8
BLACK
6
CONTINUOUS
10
-1.0016217716535434
20
0.8699913385826772
11
-1.0005573622047244
21
0.8704322440944882
0
LINE
8
BLACK
6
CONTINUOUS
10
-1.0005573622047244
20
0.8704322440944882
11
-0.9994052755905511
21
0.8704322440944882
0
LINE
8
BLACK
6
CONTINUOUS
10
-0.9994052755905511
20
0.8704322440944882
11
-0.9983408661417322
21
0.8699913779527559
0
LINE
8
BLACK
6
CONTINUOUS
10
-0.9983408661417322
20
0.8699913779527559
11
-0.9975261811023621
21
0.8691766929133858
0
LINE
8
BLACK
6
CONTINUOUS
10
-0.9975261811023621
20
0.8691766929133858
11
-0.9970852755905512
21
0.8681122834645669
0
LINE
8
BLACK
6
CONTINUOUS
10
-0.9970852755905512
20
0.8681122834645669
11
-0.9970852755905512
21
0.8669601968503937
0
LINE
8
BLACK
6
CONTINUOUS
10
-0.9970852755905512
20
0.8669601968503937
11
-0.9975261417322835
21
0.8658957874015748
0
LINE
8
BLACK
6
CONTINUOUS
10
-0.9975261417322835
20
0.8658957874015748
11
-0.9978933858267717
21
0.8654483070866141
0
LINE
8
BLACK
6
CONTINUOUS
10
-0.9978933858267717
20
0.8654483070866141
11
-0.9997681102362205
21
0.8635735433070866
0
LINE
8
BLACK
6
CONTINUOUS
10
-0.9997681102362205
20
0.8635735433070866
11
-0.9999944881889764
21
0.8633877952755905
0
LINE
8
BLACK
6
CONTINUOUS
10
-0.9999944881889764
20
0.8633877952755905
11
-1.0000456692913386
21
0.8633287401574803
0
LINE
8
BLACK
6
CONTINUOUS
10
-1.0000456692913386
20
0.8633287401574803
11
-1.0001346456692912
21
0.8632727559055118
0
LINE
8
BLACK
6
CONTINUOUS
10
-1.0001346456692912
20
0.8632727559055118
11
-1.0002155905511811
21
0.8632062992125984
0
LINE
8
BLACK
6
CONTINUOUS
10
-1.0002155905511811
20
0.8632062992125984
11
-1.0002875590551181
21
0.8631764960629921
0
LINE
8
BLACK
6
CONTINUOUS
10
-1.0002875590551181
20
0.8631764960629921
11
-1.0005355511811023
21
0.8630203937007874
0
LINE
8
BLACK
6
CONTINUOUS
10
-1.0005355511811023
20
0.8630203937007874
11
-1.0042850787401574
21
0.8611456299212599
0
LINE
8
BLACK
6
CONTINUOUS
10
-1.0042850787401574
20
0.8611456299212599
11
-1.0048257086614174
21
0.8609387401574803
0
LINE
8
BLACK
6
CONTINUOUS
10
-1.0048257086614174
20
0.8609387401574803
11
-1.0049315354330708
21
0.8609312598425196
0
LINE
8
BLACK
6
CONTINUOUS
10
-1.0049315354330708
20
0.8609312598425196
11
-1.0050295275590551
21
0.8608906299212599
0
LINE
8
BLACK
6
CONTINUOUS
10
-1.0050295275590551
20
0.8608906299212599
11
-1.0056055905511811
21
0.8608338976377953
0
LINE
8
BLACK
6
CONTINUOUS
10
-1.0056055905511811
20
0.8608338976377953
11
-1.0149794094488189
21
0.8608338976377953
0
LINE
8
BLACK
6
CONTINUOUS
10
-1.0149794094488189
20
0.8608338976377953
11
-1.0155554724409448
21
0.8608906299212599
0
LINE
8
BLACK
6
CONTINUOUS
10
-1.0155554724409448
20
0.8608906299212599
11
-1.0156534645669291
21
0.860931220472441
0
LINE
8
BLACK
6
CONTINUOUS
10
-1.0156534645669291
20
0.860931220472441
11
-1.0157593307086614
21
0.8609387401574803
0
LINE
8
BLACK
6
CONTINUOUS
10
-1.0157593307086614
20
0.8609387401574803
11
-1.0162999212598425
21
0.8611456299212599
0
LINE
8
BLACK
6
CONTINUOUS
10
-1.0162999212598425
20
0.8611456299212599
11
-1.0200494488188976
21
0.8630203937007874
0
LINE
8
BLACK
6
CONTINUOUS
10
-1.0200494488188976
20
0.8630203937007874
11
-1.0202974803149607
21
0.8631764960629921
0
LINE
8
BLACK
6
CONTINUOUS
10
-1.0202974803149607
20
0.8631764960629921
11
-1.0203694094488189
21
0.8632062992125984
0
LINE
8
BLACK
6
CONTINUOUS
10
-1.0203694094488189
20
0.8632062992125984
11
-1.0204503937007874
21
0.8632727559055118
0
LINE
8
BLACK
6
CONTINUOUS
10
-1.0204503937007874
20
0.8632727559055118
11
-1.0205393307086614
21
0.8633287401574803
0
LINE
8
BLACK
6
CONTINUOUS
10
-1.0205393307086614
20
0.8633287401574803
11
-1.0205905511811024
21
0.8633877952755905
0
LINE
8
BLACK
6
CONTINUOUS
10
-1.0205905511811024
20
0.8633877952755905
11
-1.0208168897637795
21
0.8635735433070866
0
LINE
8
BLACK
6
CONTINUOUS
10
-1.0208168897637795
20
0.8635735433070866
11
-1.022691653543307
21
0.8654483464566929
0
LINE
8
BLACK
6
CONTINUOUS
10
-1.022691653543307
20
0.8654483464566929
11
-1.0228774015748032
21
0.8656746850393701
0
LINE
8
BLACK
6
CONTINUOUS
10
-1.0228774015748032
20
0.8656746850393701
11
-1.0229363779527558
21
0.8657258267716536
0
LINE
8
BLACK
6
CONTINUOUS
10
-1.0229363779527558
20
0.8657258267716536
11
-1.0229923622047243
21
0.8658147637795275
0
LINE
8
BLACK
6
CONTINUOUS
10
-1.0229923622047243
20
0.8658147637795275
11
-1.0230588582677165
21
0.8658957874015748
0
LINE
8
BLACK
6
CONTINUOUS
10
-1.0230588582677165
20
0.8658957874015748
11
-1.0230887007874017
21
0.8659678346456693
0
LINE
8
BLACK
6
CONTINUOUS
10
-1.0230887007874017
20
0.8659678346456693
11
-1.0232447244094487
21
0.8662157086614173
0
LINE
8
BLACK
6
CONTINUOUS
10
-1.0232447244094487
20
0.8662157086614173
11
-1.0251194881889762
21
0.8699652362204724
0
LINE
8
BLACK
6
CONTINUOUS
10
-1.0251194881889762
20
0.8699652362204724
11
-1.0253263779527559
21
0.8705058661417323
0
LINE
8
BLACK
6
CONTINUOUS
10
-1.0253263779527559
20
0.8705058661417323
11
-1.0253338976377953
21
0.8706116929133858
0
LINE
8
BLACK
6
CONTINUOUS
10
-1.0253338976377953
20
0.8706116929133858
11
-1.0253744881889764
21
0.8707096850393701
0
LINE
8
BLACK
6
CONTINUOUS
10
-1.0253744881889764
20
0.8707096850393701
11
-1.025431220472441
21
0.8712857480314961
0
LINE
8
BLACK
6
CONTINUOUS
10
-1.025431220472441
20
0.8712857480314961
11
-1.025431220472441
21
0.8806595669291338
0
LINE
8
BLACK
6
CONTINUOUS
10
-1.025431220472441
20
0.8806595669291338
11
-1.0253744881889764
21
0.8812356299212598
0
LINE
8
BLACK
6
CONTINUOUS
10
-1.0253744881889764
20
0.8812356299212598
11
-1.0253338976377953
21
0.8813336614173228
0
LINE
8
BLACK
6
CONTINUOUS
10
-1.0253338976377953
20
0.8813336614173228
11
-1.0253263779527559
21
0.8814394488188976
0
LINE
8
BLACK
6
CONTINUOUS
10
-1.0253263779527559
20
0.8814394488188976
11
-1.0251194881889762
21
0.8819800787401575
0
LINE
8
BLACK
6
CONTINUOUS
10
-1.0251194881889762
20
0.8819800787401575
11
-1.0232447244094487
21
0.8857296062992126
0
LINE
8
BLACK
6
CONTINUOUS
10
-1.0232447244094487
20
0.8857296062992126
11
-1.0230886614173229
21
0.8859776377952756
0
LINE
8
BLACK
6
CONTINUOUS
10
-1.0230886614173229
20
0.8859776377952756
11
-1.0230588188976377
21
0.8860495669291338
0
LINE
8
BLACK
6
CONTINUOUS
10
-1.0230588188976377
20
0.8860495669291338
11
-1.0229923622047243
21
0.8861305511811023
0
LINE
8
BLACK
6
CONTINUOUS
10
-1.0229923622047243
20
0.8861305511811023
11
-1.0229363779527558
21
0.8862194881889763
0
LINE
8
BLACK
6
CONTINUOUS
10
-1.0229363779527558
20
0.8862194881889763
11
-1.0228774015748032
21
0.8862706692913386
0
LINE
8
BLACK
6
CONTINUOUS
10
-1.0228774015748032
20
0.8862706692913386
11
-1.0226916141732283
21
0.8864970078740158
0
LINE
8
BLACK
6
CONTINUOUS
10
-1.0226916141732283
20
0.8864970078740158
11
-1.0208168503937007
21
0.8883717716535433
0
LINE
8
BLACK
6
CONTINUOUS
10
-1.0208168503937007
20
0.8883717716535433
11
-1.0205905118110237
21
0.8885575590551181
0
LINE
8
BLACK
6
CONTINUOUS
10
-1.0205905118110237
20
0.8885575590551181
11
-1.0205393307086614
21
0.8886165354330708
0
LINE
8
BLACK
6
CONTINUOUS
10
-1.0205393307086614
20
0.8886165354330708
11
-1.0204503937007874
21
0.8886725196850394
0
LINE
8
BLACK
6
CONTINUOUS
10
-1.0204503937007874
20
0.8886725196850394
11
-1.0203694094488189
21
0.8887389763779527
0
LINE
8
BLACK
6
CONTINUOUS
10
-1.0203694094488189
20
0.8887389763779527
11
-1.0202974803149607
21
0.8887688188976378
0
LINE
8
BLACK
6
CONTINUOUS
10
-1.0202974803149607
20
0.8887688188976378
11
-1.0200494488188976
21
0.8889248818897637
0
LINE
8
BLACK
6
CONTINUOUS
10
-1.0200494488188976
20
0.8889248818897637
11
-1.0162999212598425
21
0.8907996456692914
0
LINE
8
BLACK
6
CONTINUOUS
10
-1.0162999212598425
20
0.8907996456692914
11
-1.0157593307086614
21
0.8910065354330708
0
LINE
8
BLACK
6
CONTINUOUS
10
-1.0157593307086614
20
0.8910065354330708
11
-1.0156534645669291
21
0.8910140944881889
0
LINE
8
BLACK
6
CONTINUOUS
10
-1.0156534645669291
20
0.8910140944881889
11
-1.0155554724409448
21
0.8910546456692913
0
LINE
8
BLACK
6
CONTINUOUS
10
-1.0155554724409448
20
0.8910546456692913
11
-1.0149794094488189
21
0.8911113779527559
0
LINE
8
BLACK
6
CONTINUOUS
10
-1.0149794094488189
20
0.8911113779527559
11
-1.0056055905511811
21
0.8911113779527559
0
LINE
8
BLACK
6
CONTINUOUS
10
-1.0056055905511811
20
0.8911113779527559
11
-1.0050295275590551
21
0.8910546456692913
0
LINE
8
BLACK
6
CONTINUOUS
10
-1.0050295275590551
20
0.8910546456692913
11
-1.0049315354330708
21
0.8910140551181103
0
LINE
8
BLACK
6
CONTINUOUS
10
-1.0049315354330708
20
0.8910140551181103
11
-1.0048257086614174
21
0.8910065354330708
0
LINE
8
BLACK
6
CONTINUOUS
10
-1.0048257086614174
20
0.8910065354330708
11
-1.0042850787401574
21
0.8907996456692914
0
LINE
8
BLACK
6
CONTINUOUS
10
-1.0042850787401574
20
0.8907996456692914
11
-1.0035511811023621
21
0.8904327165354331
0
LINE
8
BLACK
6
CONTINUOUS
10
-1.0035511811023621
20
0.8904327165354331
11
-1.0045282677165355
21
0.9002039763779527
0
LINE
8
BLACK
6
CONTINUOUS
10
-1.0045282677165355
20
0.9002039763779527
11
-1.0206037007874016
21
0.9002039763779527
0
LINE
8
BLACK
6
CONTINUOUS
10
-1.0206037007874016
20
0.9002039763779527
11
-1.0211797637795275
21
0.9002607086614173
0
LINE
8
BLACK
6
CONTINUOUS
10
-1.0211797637795275
20
0.9002607086614173
11
-1.0222441732283465
21
0.9007016141732284
0
LINE
8
BLACK
6
CONTINUOUS
10
-1.0222441732283465
20
0.9007016141732284
11
-1.0230588188976377
21
0.9015162598425197
0
LINE
8
BLACK
6
CONTINUOUS
10
-1.0230588188976377
20
0.9015162598425197
11
-1.0234997244094488
21
0.9025806692913385
0
LINE
8
BLACK
6
CONTINUOUS
10
-1.0234997244094488
20
0.9025806692913385
11
-1.0234997244094488
21
0.9037327952755906
0
LINE
8
BLACK
6
CONTINUOUS
10
-1.0234997244094488
20
0.9037327952755906
11
-1.0230588188976377
21
0.9047972047244094
0
LINE
8
BLACK
6
CONTINUOUS
10
-1.0230588188976377
20
0.9047972047244094
11
-1.0222441732283465
21
0.9056118503937007
0
LINE
8
BLACK
6
CONTINUOUS
10
-1.0222441732283465
20
0.9056118503937007
11
-1.0211797637795275
21
0.9060527559055118
0
LINE
8
BLACK
6
CONTINUOUS
10
-1.0211797637795275
20
0.9060527559055118
11
-1.0206037007874016
21
0.9061094881889764
0
LINE
8
BLACK
6
CONTINUOUS
10
-1.0206037007874016
20
0.9061094881889764
11
-1.001856062992126
21
0.9061094881889764
0
LINE
8
BLACK
6
CONTINUOUS
10
-1.001856062992126
20
0.9061094881889764
11
-1.0016430314960629
21
0.9060885433070865
0
LINE
8
BLACK
6
CONTINUOUS
10
-0.9734477952755906
20
0.9060527559055118
11
-0.9731585039370079
21
0.9060527559055118
0
LINE
8
BLACK
6
CONTINUOUS
10
-0.9731585039370079
20
0.9060527559055118
11
-0.9728884251968504
21
0.9059409055118111
0
LINE
8
BLACK
6
CONTINUOUS
10
-0.9728884251968504
20
0.9059409055118111
11
-0.9726017716535433
21
0.9058835433070866
0
LINE
8
BLACK
6
CONTINUOUS
10
-0.9726017716535433
20
0.9058835433070866
11
-0.9723614173228347
21
0.9057225984251969
0
LINE
8
BLACK
6
CONTINUOUS
10
-0.9723614173228347
20
0.9057225984251969
11
-0.972094094488189
21
0.9056118503937007
0
LINE
8
BLACK
6
CONTINUOUS
10
-0.972094094488189
20
0.9056118503937007
11
-0.9718874015748031
21
0.9054051574803149
0
LINE
8
BLACK
6
CONTINUOUS
10
-0.9718874015748031
20
0.9054051574803149
11
-0.9716444881889763
21
0.9052424803149606
0
LINE
8
BLACK
6
CONTINUOUS
10
-0.9716444881889763
20
0.9052424803149606
11
-0.9712814960629921
21
0.904799251968504
0
LINE
8
BLACK
6
CONTINUOUS
10
-0.9712814960629921
20
0.904799251968504
11
-0.9712794488188976
21
0.9047972047244094
0
LINE
8
BLACK
6
CONTINUOUS
10
-0.9712794488188976
20
0.9047972047244094
11
-0.9712790944881889
21
0.9047963385826772
0
LINE
8
BLACK
6
CONTINUOUS
10
-0.9712790944881889
20
0.9047963385826772
11
-0.971277716535433
21
0.9047946456692914
0
LINE
8
BLACK
6
CONTINUOUS
10
-0.971277716535433
20
0.9047946456692914
11
-0.9676903937007874
21
0.8994136220472441
0
LINE
8
BLACK
6
CONTINUOUS
10
-0.9676903937007874
20
0.8994136220472441
11
-0.9644864173228346
21
0.8962096456692913
0
LINE
8
BLACK
6
CONTINUOUS
10
-0.9644864173228346
20
0.8962096456692913
11
-0.9611654724409449
21
0.8945491732283465
0
LINE
8
BLACK
6
CONTINUOUS
10
-0.9611654724409449
20
0.8945491732283465
11
-0.9606755905511811
21
0.8942408267716535
0
LINE
8
BLACK
6
CONTINUOUS
10
-0.9606755905511811
20
0.8942408267716535
11
-0.9599207480314961
21
0.8933704330708662
0
LINE
8
BLACK
6
CONTINUOUS
10
-0.9599207480314961
20
0.8933704330708662
11
-0.9595564173228346
21
0.8922774803149606
0
LINE
8
BLACK
6
CONTINUOUS
10
-0.9595564173228346
20
0.8922774803149606
11
-0.9596380708661417
21
0.8911282677165354
0
LINE
8
BLACK
6
CONTINUOUS
10
-0.9596380708661417
20
0.8911282677165354
11
-0.9601533464566929
21
0.8900977559055118
0
LINE
8
BLACK
6
CONTINUOUS
10
-0.9601533464566929
20
0.8900977559055118
11
-0.9610237007874015
21
0.8893429133858267
0
LINE
8
BLACK
6
CONTINUOUS
10
-0.9610237007874015
20
0.8893429133858267
11
-0.9621166929133858
21
0.8889785826771653
0
LINE
8
BLACK
6
CONTINUOUS
10
-0.9621166929133858
20
0.8889785826771653
11
-0.963265905511811
21
0.8890602362204724
0
LINE
8
BLACK
6
CONTINUOUS
10
-0.963265905511811
20
0.8890602362204724
11
-0.9638064960629921
21
0.8892671259842519
0
LINE
8
BLACK
6
CONTINUOUS
10
-0.9638064960629921
20
0.8892671259842519
11
-0.9675560236220472
21
0.8911418897637795
0
LINE
8
BLACK
6
CONTINUOUS
10
-0.9675560236220472
20
0.8911418897637795
11
-0.9678038582677165
21
0.8912979133858268
0
LINE
8
BLACK
6
CONTINUOUS
10
-0.9678038582677165
20
0.8912979133858268
11
-0.9678759842519685
21
0.8913277559055118
0
LINE
8
BLACK
6
CONTINUOUS
10
-0.9678759842519685
20
0.8913277559055118
11
-0.9679571653543307
21
0.8913943700787401
0
LINE
8
BLACK
6
CONTINUOUS
10
-0.9679571653543307
20
0.8913943700787401
11
-0.968045905511811
21
0.8914502362204724
0
LINE
8
BLACK
6
CONTINUOUS
10
-0.968045905511811
20
0.8914502362204724
11
-0.9680970472440945
21
0.8915091732283464
0
LINE
8
BLACK
6
CONTINUOUS
10
-0.9680970472440945
20
0.8915091732283464
11
-0.9683234251968503
21
0.891695
0
LINE
8
BLACK
6
CONTINUOUS
10
-0.9683234251968503
20
0.891695
11
-0.970781811023622
21
0.8941533858267716
0
LINE
8
BLACK
6
CONTINUOUS
10
-0.970781811023622
20
0.8941533858267716
11
-0.970781811023622
21
0.8667394094488189
0
LINE
8
BLACK
6
CONTINUOUS
10
-0.970781811023622
20
0.8667394094488189
11
-0.9624859842519685
21
0.8667394094488189
0
LINE
8
BLACK
6
CONTINUOUS
10
-0.9624859842519685
20
0.8667394094488189
11
-0.9619099212598425
21
0.8666826771653543
0
LINE
8
BLACK
6
CONTINUOUS
10
-0.9619099212598425
20
0.8666826771653543
11
-0.9608455118110236
21
0.8662417716535433
0
LINE
8
BLACK
6
CONTINUOUS
10
-0.9608455118110236
20
0.8662417716535433
11
-0.9600308661417323
21
0.865427125984252
0
LINE
8
BLACK
6
CONTINUOUS
10
-0.9600308661417323
20
0.865427125984252
11
-0.9595899606299212
21
0.8643627165354331
0
LINE
8
BLACK
6
CONTINUOUS
10
-0.9595899606299212
20
0.8643627165354331
11
-0.9595899606299212
21
0.8632105905511811
0
LINE
8
BLACK
6
CONTINUOUS
10
-0.9595899606299212
20
0.8632105905511811
11
-0.9600308661417323
21
0.8621461811023622
0
LINE
8
BLACK
6
CONTINUOUS
10
-0.9600308661417323
20
0.8621461811023622
11
-0.9608455118110236
21
0.8613315354330708
0
LINE
8
BLACK
6
CONTINUOUS
10
-0.9608455118110236
20
0.8613315354330708
11
-0.9619099212598425
21
0.8608906299212599
0
LINE
8
BLACK
6
CONTINUOUS
10
-0.9619099212598425
20
0.8608906299212599
11
-0.9624859842519685
21
0.8608338976377953
0
LINE
8
BLACK
6
CONTINUOUS
10
-0.9624859842519685
20
0.8608338976377953
11
-0.9849831496062992
21
0.8608338976377953
0
LINE
8
BLACK
6
CONTINUOUS
10
-0.9849831496062992
20
0.8608338976377953
11
-0.9855592125984252
21
0.8608906299212599
0
LINE
8
BLACK
6
CONTINUOUS
10
-0.9855592125984252
20
0.8608906299212599
11
-0.9866236220472441
21
0.8613315354330708
0
LINE
8
BLACK
6
CONTINUOUS
10
-0.9866236220472441
20
0.8613315354330708
11
-0.9874382677165354
21
0.8621461811023622
0
LINE
8
BLACK
6
CONTINUOUS
10
-0.9874382677165354
20
0.8621461811023622
11
-0.9878791732283464
21
0.8632105905511811
0
LINE
8
BLACK
6
CONTINUOUS
10
-0.9878791732283464
20
0.8632105905511811
11
-0.9878791732283464
21
0.8643627165354331
0
LINE
8
BLACK
6
CONTINUOUS
10
-0.9878791732283464
20
0.8643627165354331
11
-0.9874382677165354
21
0.865427125984252
0
LINE
8
BLACK
6
CONTINUOUS
10
-0.9874382677165354
20
0.865427125984252
11
-0.9866236220472441
21
0.8662417716535433
0
LINE
8
BLACK
6
CONTINUOUS
10
-0.9866236220472441
20
0.8662417716535433
11
-0.9855592125984252
21
0.8666826771653543
0
LINE
8
BLACK
6
CONTINUOUS
10
-0.9855592125984252
20
0.8666826771653543
11
-0.9849831496062992
21
0.8667394094488189
0
LINE
8
BLACK
6
CONTINUOUS
10
-0.9849831496062992
20
0.8667394094488189
11
-0.9766873228346457
21
0.8667394094488189
0
LINE
8
BLACK
6
CONTINUOUS
10
-0.9766873228346457
20
0.8667394094488189
11
-0.9766873228346457
21
0.9031567322834645
0
LINE
8
BLACK
6
CONTINUOUS
10
-0.9766873228346457
20
0.9031567322834645
11
-0.9766871259842519
21
0.9031588188976378
0
LINE
8
BLACK
6
CONTINUOUS
10
-0.9766871259842519
20
0.9031588188976378
11
-0.9766873228346457
21
0.9031598425196851
0
LINE
8
BLACK
6
CONTINUOUS
10
-0.9766873228346457
20
0.9031598425196851
11
-0.9766867322834646
21
0.903162874015748
0
LINE
8
BLACK
6
CONTINUOUS
10
-0.9766867322834646
20
0.903162874015748
11
-0.9766305905511811
21
0.9037327952755906
0
LINE
8
BLACK
6
CONTINUOUS
10
-0.9766305905511811
20
0.9037327952755906
11
-0.9765187401574803
21
0.9040029133858267
0
LINE
8
BLACK
6
CONTINUOUS
10
-0.9765187401574803
20
0.9040029133858267
11
-0.9764613779527559
21
0.9042895275590551
0
LINE
8
BLACK
6
CONTINUOUS
10
-0.9764613779527559
20
0.9042895275590551
11
-0.9763004330708661
21
0.9045299212598426
0
LINE
8
BLACK
6
CONTINUOUS
10
-0.9763004330708661
20
0.9045299212598426
11
-0.9761896850393701
21
0.9047972047244094
0
LINE
8
BLACK
6
CONTINUOUS
10
-0.9761896850393701
20
0.9047972047244094
11
-0.9759829921259843
21
0.905003937007874
0
LINE
8
BLACK
6
CONTINUOUS
10
-0.9759829921259843
20
0.905003937007874
11
-0.9758203149606299
21
0.905246811023622
0
LINE
8
BLACK
6
CONTINUOUS
10
-0.9758203149606299
20
0.905246811023622
11
-0.9755796062992126
21
0.9054073228346456
0
LINE
8
BLACK
6
CONTINUOUS
10
-0.9755796062992126
20
0.9054073228346456
11
-0.9753750393700787
21
0.9056118503937007
0
LINE
8
BLACK
6
CONTINUOUS
10
-0.9753750393700787
20
0.9056118503937007
11
-0.9751049606299212
21
0.9057237401574803
0
LINE
8
BLACK
6
CONTINUOUS
10
-0.9751049606299212
20
0.9057237401574803
11
-0.9748616929133858
21
0.905885905511811
0
LINE
8
BLACK
6
CONTINUOUS
10
-0.9748616929133858
20
0.905885905511811
11
-0.9745779133858268
21
0.9059420472440944
0
LINE
8
BLACK
6
CONTINUOUS
10
-0.9745779133858268
20
0.9059420472440944
11
-0.9743106299212598
21
0.9060527559055118
0
LINE
8
BLACK
6
CONTINUOUS
10
-0.9743106299212598
20
0.9060527559055118
11
-0.9740182283464567
21
0.9060527559055118
0
LINE
8
BLACK
6
CONTINUOUS
10
-0.9740182283464567
20
0.9060527559055118
11
-0.9737314566929134
21
0.9061094881889764
0
LINE
8
BLACK
6
CONTINUOUS
10
-0.9737314566929134
20
0.9061094881889764
11
-0.9734477952755906
21
0.9060527559055118
0
LINE
8
BLACK
6
CONTINUOUS
10
-0.898167874015748
20
0.9060527559055118
11
-0.8980698818897638
21
0.9060121653543307
0
LINE
8
BLACK
6
CONTINUOUS
10
-0.8980698818897638
20
0.9060121653543307
11
-0.8979640551181102
21
0.9060046456692913
0
LINE
8
BLACK
6
CONTINUOUS
10
-0.8979640551181102
20
0.9060046456692913
11
-0.8974234251968504
21
0.9057977559055118
0
LINE
8
BLACK
6
CONTINUOUS
10
-0.8974234251968504
20
0.9057977559055118
11
-0.8936738976377953
21
0.9039229921259843
0
LINE
8
BLACK
6
CONTINUOUS
10
-0.8936738976377953
20
0.9039229921259843
11
-0.893425905511811
21
0.9037669291338583
0
LINE
8
BLACK
6
CONTINUOUS
10
-0.893425905511811
20
0.9037669291338583
11
-0.893353937007874
21
0.9037370866141732
0
LINE
8
BLACK
6
CONTINUOUS
10
-0.893353937007874
20
0.9037370866141732
11
-0.8932729921259842
21
0.9036706299212598
0
LINE
8
BLACK
6
CONTINUOUS
10
-0.8932729921259842
20
0.9036706299212598
11
-0.8931840157480315
21
0.9036146456692913
0
LINE
8
BLACK
6
CONTINUOUS
10
-0.8931840157480315
20
0.9036146456692913
11
-0.893132874015748
21
0.9035556692913386
0
LINE
8
BLACK
6
CONTINUOUS
10
-0.893132874015748
20
0.9035556692913386
11
-0.8929064960629921
21
0.9033698818897637
0
LINE
8
BLACK
6
CONTINUOUS
10
-0.8929064960629921
20
0.9033698818897637
11
-0.8910317322834646
21
0.9014951181102362
0
LINE
8
BLACK
6
CONTINUOUS
10
-0.8910317322834646
20
0.9014951181102362
11
-0.8906645275590551
21
0.9010476771653543
0
LINE
8
BLACK
6
CONTINUOUS
10
-0.8906645275590551
20
0.9010476771653543
11
-0.890223622047244
21
0.8999832677165354
0
LINE
8
BLACK
6
CONTINUOUS
10
-0.890223622047244
20
0.8999832677165354
11
-0.890223622047244
21
0.8988311811023622
0
LINE
8
BLACK
6
CONTINUOUS
10
-0.890223622047244
20
0.8988311811023622
11
-0.8906645275590551
21
0.8977667716535432
0
LINE
8
BLACK
6
CONTINUOUS
10
-0.8906645275590551
20
0.8977667716535432
11
-0.8914792125984252
21
0.8969520866141732
0
LINE
8
BLACK
6
CONTINUOUS
10
-0.8914792125984252
20
0.8969520866141732
11
-0.892543622047244
21
0.8965111811023622
0
LINE
8
BLACK
6
CONTINUOUS
10
-0.892543622047244
20
0.8965111811023622
11
-0.8936957086614173
21
0.8965111811023622
0
LINE
8
BLACK
6
CONTINUOUS
10
-0.8936957086614173
20
0.8965111811023622
11
-0.8947601181102361
21
0.8969520866141732
0
LINE
8
BLACK
6
CONTINUOUS
10
-0.8947601181102361
20
0.8969520866141732
11
-0.8952075590551181
21
0.8973192913385827
0
LINE
8
BLACK
6
CONTINUOUS
10
-0.8952075590551181
20
0.8973192913385827
11
-0.8967435039370079
21
0.8988552362204725
0
LINE
8
BLACK
6
CONTINUOUS
10
-0.8967435039370079
20
0.8988552362204725
11
-0.8994409842519685
21
0.9002039763779527
0
LINE
8
BLACK
6
CONTINUOUS
10
-0.8994409842519685
20
0.9002039763779527
11
-0.9074207086614173
21
0.9002039763779527
0
LINE
8
BLACK
6
CONTINUOUS
10
-0.9074207086614173
20
0.9002039763779527
11
-0.910118188976378
21
0.8988552362204725
0
LINE
8
BLACK
6
CONTINUOUS
10
-0.910118188976378
20
0.8988552362204725
11
-0.9113153149606299
21
0.8976581102362204
0
LINE
8
BLACK
6
CONTINUOUS
10
-0.9113153149606299
20
0.8976581102362204
11
-0.9126640551181102
21
0.8949606299212598
0
LINE
8
BLACK
6
CONTINUOUS
10
-0.9126640551181102
20
0.8949606299212598
11
-0.9126640551181102
21
0.8923873228346456
0
LINE
8
BLACK
6
CONTINUOUS
10
-0.9126640551181102
20
0.8923873228346456
11
-0.9111612598425196
21
0.8878788976377953
0
LINE
8
BLACK
6
CONTINUOUS
10
-0.9111612598425196
20
0.8878788976377953
11
-0.889156968503937
21
0.8658745669291339
0
LINE
8
BLACK
6
CONTINUOUS
10
-0.889156968503937
20
0.8658745669291339
11
-0.8887897244094488
21
0.865427125984252
0
LINE
8
BLACK
6
CONTINUOUS
10
-0.8887897244094488
20
0.865427125984252
11
-0.8883488582677165
21
0.8643626771653543
0
LINE
8
BLACK
6
CONTINUOUS
10
-0.8883488582677165
20
0.8643626771653543
11
-0.8883488582677165
21
0.8632105905511811
0
LINE
8
BLACK
6
CONTINUOUS
10
-0.8883488582677165
20
0.8632105905511811
11
-0.8887897637795276
21
0.8621461811023622
0
LINE
8
BLACK
6
CONTINUOUS
10
-0.8887897637795276
20
0.8621461811023622
11
-0.8896044094488189
21
0.8613314960629921
0
LINE
8
BLACK
6
CONTINUOUS
10
-0.8896044094488189
20
0.8613314960629921
11
-0.8902025196850394
21
0.861083779527559
0
LINE
8
BLACK
6
CONTINUOUS
10
-0.8902025196850394
20
0.861083779527559
11
-0.8906688188976378
21
0.8608906299212599
0
LINE
8
BLACK
6
CONTINUOUS
10
-0.8906688188976378
20
0.8608906299212599
11
-0.8912448818897638
21
0.8608338976377953
0
LINE
8
BLACK
6
CONTINUOUS
10
-0.8912448818897638
20
0.8608338976377953
11
-0.915616811023622
21
0.8608338976377953
0
LINE
8
BLACK
6
CONTINUOUS
10
-0.915616811023622
20
0.8608338976377953
11
-0.916192874015748
21
0.8608906299212599
0
LINE
8
BLACK
6
CONTINUOUS
10
-0.916192874015748
20
0.8608906299212599
11
-0.9172572834645669
21
0.8613315354330708
0
LINE
8
BLACK
6
CONTINUOUS
10
-0.9172572834645669
20
0.8613315354330708
11
-0.9180719291338583
21
0.8621461811023622
0
LINE
8
BLACK
6
CONTINUOUS
10
-0.9180719291338583
20
0.8621461811023622
11
-0.9185128346456692
21
0.8632105905511811
0
LINE
8
BLACK
6
CONTINUOUS
10
-0.9185128346456692
20
0.8632105905511811
11
-0.9185128346456692
21
0.8643627165354331
0
LINE
8
BLACK
6
CONTINUOUS
10
-0.9185128346456692
20
0.8643627165354331
11
-0.9180719291338583
21
0.865427125984252
0
LINE
8
BLACK
6
CONTINUOUS
10
-0.9180719291338583
20
0.865427125984252
11
-0.9172572834645669
21
0.8662417716535433
0
LINE
8
BLACK
6
CONTINUOUS
10
-0.9172572834645669
20
0.8662417716535433
11
-0.916192874015748
21
0.8666826771653543
0
LINE
8
BLACK
6
CONTINUOUS
10
-0.916192874015748
20
0.8666826771653543
11
-0.915616811023622
21
0.8667394094488189
0
LINE
8
BLACK
6
CONTINUOUS
10
-0.915616811023622
20
0.8667394094488189
11
-0.8983734645669291
21
0.8667394094488189
0
LINE
8
BLACK
6
CONTINUOUS
10
-0.8983734645669291
20
0.8667394094488189
11
-0.9158299606299213
21
0.8841959448818898
0
LINE
8
BLACK
6
CONTINUOUS
10
-0.9158299606299213
20
0.8841959448818898
11
-0.9161971653543307
21
0.8846433858267716
0
LINE
8
BLACK
6
CONTINUOUS
10
-0.9161971653543307
20
0.8846433858267716
11
-0.9162377952755906
21
0.8847414566929134
0
LINE
8
BLACK
6
CONTINUOUS
10
-0.9162377952755906
20
0.8847414566929134
11
-0.9163072834645669
21
0.8848215748031496
0
LINE
8
BLACK
6
CONTINUOUS
10
-0.9163072834645669
20
0.8848215748031496
11
-0.9165432677165354
21
0.8853501181102362
0
LINE
8
BLACK
6
CONTINUOUS
10
-0.9165432677165354
20
0.8853501181102362
11
-0.9184180314960629
21
0.8909744094488189
0
LINE
8
BLACK
6
CONTINUOUS
10
-0.9184180314960629
20
0.8909744094488189
11
-0.9184829921259843
21
0.8912599999999999
0
LINE
8
BLACK
6
CONTINUOUS
10
-0.9184829921259843
20
0.8912599999999999
11
-0.9185128346456692
21
0.8913320866141732
0
LINE
8
BLACK
6
CONTINUOUS
10
-0.9185128346456692
20
0.8913320866141732
11
-0.9185231496062992
21
0.8914366141732283
0
LINE
8
BLACK
6
CONTINUOUS
10
-0.9185231496062992
20
0.8914366141732283
11
-0.9185463779527558
21
0.8915388582677165
0
LINE
8
BLACK
6
CONTINUOUS
10
-0.9185463779527558
20
0.8915388582677165
11
-0.9185408661417322
21
0.8916166141732284
0
LINE
8
BLACK
6
CONTINUOUS
10
-0.9185408661417322
20
0.8916166141732284
11
-0.9185695669291338
21
0.8919081496062992
0
LINE
8
BLACK
6
CONTINUOUS
10
-0.9185695669291338
20
0.8919081496062992
11
-0.9185695669291338
21
0.8956576771653543
0
LINE
8
BLACK
6
CONTINUOUS
10
-0.9185695669291338
20
0.8956576771653543
11
-0.9185128346456692
21
0.8962337401574803
0
LINE
8
BLACK
6
CONTINUOUS
10
-0.9185128346456692
20
0.8962337401574803
11
-0.9184722440944881
21
0.8963317716535433
0
LINE
8
BLACK
6
CONTINUOUS
10
-0.9184722440944881
20
0.8963317716535433
11
-0.9184647244094488
21
0.8964375590551181
0
LINE
8
BLACK
6
CONTINUOUS
10
-0.9184647244094488
20
0.8964375590551181
11
-0.9182578346456692
21
0.8969781889763779
0
LINE
8
BLACK
6
CONTINUOUS
10
-0.9182578346456692
20
0.8969781889763779
11
-0.9163830708661417
21
0.900727716535433
0
LINE
8
BLACK
6
CONTINUOUS
10
-0.9163830708661417
20
0.900727716535433
11
-0.9162270078740157
21
0.900975748031496
0
LINE
8
BLACK
6
CONTINUOUS
10
-0.9162270078740157
20
0.900975748031496
11
-0.9161971653543307
21
0.9010476771653543
0
LINE
8
BLACK
6
CONTINUOUS
10
-0.9161971653543307
20
0.9010476771653543
11
-0.9161307086614173
21
0.9011286614173228
0
LINE
8
BLACK
6
CONTINUOUS
10
-0.9161307086614173
20
0.9011286614173228
11
-0.9160747244094488
21
0.9012175984251968
0
LINE
8
BLACK
6
CONTINUOUS
10
-0.9160747244094488
20
0.9012175984251968
11
-0.916015748031496
21
0.901268779527559
0
LINE
8
BLACK
6
CONTINUOUS
10
-0.916015748031496
20
0.901268779527559
11
-0.9158299606299213
21
0.9014951181102362
0
LINE
8
BLACK
6
CONTINUOUS
10
-0.9158299606299213
20
0.9014951181102362
11
-0.9139551968503937
21
0.9033698818897637
0
LINE
8
BLACK
6
CONTINUOUS
10
-0.9139551968503937
20
0.9033698818897637
11
-0.9137288582677165
21
0.9035556692913386
0
LINE
8
BLACK
6
CONTINUOUS
10
-0.9137288582677165
20
0.9035556692913386
11
-0.9136776771653543
21
0.9036146456692913
0
LINE
8
BLACK
6
CONTINUOUS
10
-0.9136776771653543
20
0.9036146456692913
11
-0.9135887401574803
21
0.9036706299212598
0
LINE
8
BLACK
6
CONTINUOUS
10
-0.9135887401574803
20
0.9036706299212598
11
-0.9135077559055118
21
0.9037370866141732
0
LINE
8
BLACK
6
CONTINUOUS
10
-0.9135077559055118
20
0.9037370866141732
11
-0.9134358267716535
21
0.9037669291338583
0
LINE
8
BLACK
6
CONTINUOUS
10
-0.9134358267716535
20
0.9037669291338583
11
-0.9131877952755906
21
0.9039229921259843
0
LINE
8
BLACK
6
CONTINUOUS
10
-0.9131877952755906
20
0.9039229921259843
11
-0.9094382677165355
21
0.9057977559055118
0
LINE
8
BLACK
6
CONTINUOUS
10
-0.9094382677165355
20
0.9057977559055118
11
-0.9088976771653543
21
0.9060046456692913
0
LINE
8
BLACK
6
CONTINUOUS
10
-0.9088976771653543
20
0.9060046456692913
11
-0.9087918110236221
21
0.9060122047244095
0
LINE
8
BLACK
6
CONTINUOUS
10
-0.9087918110236221
20
0.9060122047244095
11
-0.9086938188976378
21
0.9060527559055118
0
LINE
8
BLACK
6
CONTINUOUS
10
-0.9086938188976378
20
0.9060527559055118
11
-0.9081177559055118
21
0.9061094881889764
0
LINE
8
BLACK
6
CONTINUOUS
10
-0.9081177559055118
20
0.9061094881889764
11
-0.898743937007874
21
0.9061094881889764
0
LINE
8
BLACK
6
CONTINUOUS
10
-0.898743937007874
20
0.9061094881889764
11
-0.898167874015748
21
0.9060527559055118
0
LINE
8
BLACK
6
CONTINUOUS
10
-0.7894314566929134
20
0.9060527559055118
11
-0.7883670472440945
21
0.9056118503937007
0
LINE
8
BLACK
6
CONTINUOUS
10
-0.7883670472440945
20
0.9056118503937007
11
-0.7875524015748031
21
0.9047972047244094
0
LINE
8
BLACK
6
CONTINUOUS
10
-0.7875524015748031
20
0.9047972047244094
11
-0.7871114960629921
21
0.9037327952755906
0
LINE
8
BLACK
6
CONTINUOUS
10
-0.7871114960629921
20
0.9037327952755906
11
-0.7870547637795275
21
0.9031567322834645
0
LINE
8
BLACK
6
CONTINUOUS
10
-0.7870547637795275
20
0.9031567322834645
11
-0.7870547637795275
21
0.8637866535433071
0
LINE
8
BLACK
6
CONTINUOUS
10
-0.7870547637795275
20
0.8637866535433071
11
-0.7871114960629921
21
0.8632105905511811
0
LINE
8
BLACK
6
CONTINUOUS
10
-0.7871114960629921
20
0.8632105905511811
11
-0.7875524015748031
21
0.8621461811023622
0
LINE
8
BLACK
6
CONTINUOUS
10
-0.7875524015748031
20
0.8621461811023622
11
-0.7883670472440945
21
0.8613315354330708
0
LINE
8
BLACK
6
CONTINUOUS
10
-0.7883670472440945
20
0.8613315354330708
11
-0.7894314566929134
21
0.8608906299212599
0
LINE
8
BLACK
6
CONTINUOUS
10
-0.7894314566929134
20
0.8608906299212599
11
-0.7900075196850393
21
0.8608338976377953
0
LINE
8
BLACK
6
CONTINUOUS
10
-0.7900075196850393
20
0.8608338976377953
11
-0.8087551574803149
21
0.8608338976377953
0
LINE
8
BLACK
6
CONTINUOUS
10
-0.8087551574803149
20
0.8608338976377953
11
-0.8093312204724409
21
0.8608906299212599
0
LINE
8
BLACK
6
CONTINUOUS
10
-0.8093312204724409
20
0.8608906299212599
11
-0.8103956299212598
21
0.8613315354330708
0
LINE
8
BLACK
6
CONTINUOUS
10
-0.8103956299212598
20
0.8613315354330708
11
-0.8112102755905511
21
0.8621461811023622
0
LINE
8
BLACK
6
CONTINUOUS
10
-0.8112102755905511
20
0.8621461811023622
11
-0.8116511811023622
21
0.8632105905511811
0
LINE
8
BLACK
6
CONTINUOUS
10
-0.8116511811023622
20
0.8632105905511811
11
-0.8116511811023622
21
0.8643627165354331
0
LINE
8
BLACK
6
CONTINUOUS
10
-0.8116511811023622
20
0.8643627165354331
11
-0.8112102755905511
21
0.865427125984252
0
LINE
8
BLACK
6
CONTINUOUS
10
-0.8112102755905511
20
0.865427125984252
11
-0.8103956299212598
21
0.8662417716535433
0
LINE
8
BLACK
6
CONTINUOUS
10
-0.8103956299212598
20
0.8662417716535433
11
-0.8093312204724409
21
0.8666826771653543
0
LINE
8
BLACK
6
CONTINUOUS
10
-0.8093312204724409
20
0.8666826771653543
11
-0.8087551574803149
21
0.8667394094488189
0
LINE
8
BLACK
6
CONTINUOUS
10
-0.8087551574803149
20
0.8667394094488189
11
-0.7929602755905512
21
0.8667394094488189
0
LINE
8
BLACK
6
CONTINUOUS
10
-0.7929602755905512
20
0.8667394094488189
11
-0.7929602755905512
21
0.8814563385826771
0
LINE
8
BLACK
6
CONTINUOUS
10
-0.7929602755905512
20
0.8814563385826771
11
-0.8031308661417322
21
0.8814563385826771
0
LINE
8
BLACK
6
CONTINUOUS
10
-0.8031308661417322
20
0.8814563385826771
11
-0.8037069291338582
21
0.8815130708661417
0
LINE
8
BLACK
6
CONTINUOUS
10
-0.8037069291338582
20
0.8815130708661417
11
-0.8047713385826771
21
0.8819539763779527
0
LINE
8
BLACK
6
CONTINUOUS
10
-0.8047713385826771
20
0.8819539763779527
11
-0.8055859842519685
21
0.882768622047244
0
LINE
8
BLACK
6
CONTINUOUS
10
-0.8055859842519685
20
0.882768622047244
11
-0.8060268897637796
21
0.883833031496063
0
LINE
8
BLACK
6
CONTINUOUS
10
-0.8060268897637796
20
0.883833031496063
11
-0.8060268897637796
21
0.8849851574803149
0
LINE
8
BLACK
6
CONTINUOUS
10
-0.8060268897637796
20
0.8849851574803149
11
-0.8055859842519685
21
0.8860495669291338
0
LINE
8
BLACK
6
CONTINUOUS
10
-0.8055859842519685
20
0.8860495669291338
11
-0.8047713385826771
21
0.8868642125984252
0
LINE
8
BLACK
6
CONTINUOUS
10
-0.8047713385826771
20
0.8868642125984252
11
-0.8037069291338582
21
0.8873051181102362
0
LINE
8
BLACK
6
CONTINUOUS
10
-0.8037069291338582
20
0.8873051181102362
11
-0.8031308661417322
21
0.8873618503937007
0
LINE
8
BLACK
6
CONTINUOUS
10
-0.8031308661417322
20
0.8873618503937007
11
-0.7929602755905512
21
0.8873618503937007
0
LINE
8
BLACK
6
CONTINUOUS
10
-0.7929602755905512
20
0.8873618503937007
11
-0.7929602755905512
21
0.9002039763779527
0
LINE
8
BLACK
6
CONTINUOUS
10
-0.7929602755905512
20
0.9002039763779527
11
-0.8087551574803149
21
0.9002039763779527
0
LINE
8
BLACK
6
CONTINUOUS
10
-0.8087551574803149
20
0.9002039763779527
11
-0.8093312204724409
21
0.9002607086614173
0
LINE
8
BLACK
6
CONTINUOUS
10
-0.8093312204724409
20
0.9002607086614173
11
-0.8103956299212598
21
0.9007016141732284
0
LINE
8
BLACK
6
CONTINUOUS
10
-0.8103956299212598
20
0.9007016141732284
11
-0.8112102755905511
21
0.9015162598425197
0
LINE
8
BLACK
6
CONTINUOUS
10
-0.8112102755905511
20
0.9015162598425197
11
-0.8116511811023622
21
0.9025806692913385
0
LINE
8
BLACK
6
CONTINUOUS
10
-0.8116511811023622
20
0.9025806692913385
11
-0.8116511811023622
21
0.9037327952755906
0
LINE
8
BLACK
6
CONTINUOUS
10
-0.8116511811023622
20
0.9037327952755906
11
-0.8112102755905511
21
0.9047972047244094
0
LINE
8
BLACK
6
CONTINUOUS
10
-0.8112102755905511
20
0.9047972047244094
11
-0.8103956299212598
21
0.9056118503937007
0
LINE
8
BLACK
6
CONTINUOUS
10
-0.8103956299212598
20
0.9056118503937007
11
-0.8093312204724409
21
0.9060527559055118
0
LINE
8
BLACK
6
CONTINUOUS
10
-0.8093312204724409
20
0.9060527559055118
11
-0.8087551574803149
21
0.9061094881889764
0
LINE
8
BLACK
6
CONTINUOUS
10
-0.8087551574803149
20
0.9061094881889764
11
-0.7900075196850393
21
0.9061094881889764
0
LINE
8
BLACK
6
CONTINUOUS
10
-0.7900075196850393
20
0.9061094881889764
11
-0.7894314566929134
21
0.9060527559055118
0
LINE
8
BLACK
6
CONTINUOUS
10
-0.7500613779527558
20
0.9060527559055118
11
-0.748996968503937
21
0.9056118503937007
0
LINE
8
BLACK
6
CONTINUOUS
10
-0.748996968503937
20
0.9056118503937007
11
-0.7481823228346457
21
0.9047972047244094
0
LINE
8
BLACK
6
CONTINUOUS
10
-0.7481823228346457
20
0.9047972047244094
11
-0.7477414173228346
21
0.9037327952755906
0
LINE
8
BLACK
6
CONTINUOUS
10
-0.7477414173228346
20
0.9037327952755906
11
-0.74768468503937
21
0.9031567322834645
0
LINE
8
BLACK
6
CONTINUOUS
10
-0.74768468503937
20
0.9031567322834645
11
-0.74768468503937
21
0.8637866535433071
0
LINE
8
BLACK
6
CONTINUOUS
10
-0.74768468503937
20
0.8637866535433071
11
-0.7477414173228346
21
0.8632105905511811
0
LINE
8
BLACK
6
CONTINUOUS
10
-0.7477414173228346
20
0.8632105905511811
11
-0.7481823228346457
21
0.8621461811023622
0
LINE
8
BLACK
6
CONTINUOUS
10
-0.7481823228346457
20
0.8621461811023622
11
-0.748996968503937
21
0.8613315354330708
0
LINE
8
BLACK
6
CONTINUOUS
10
-0.748996968503937
20
0.8613315354330708
11
-0.7500613779527558
21
0.8608906299212599
0
LINE
8
BLACK
6
CONTINUOUS
10
-0.7500613779527558
20
0.8608906299212599
11
-0.7506374409448818
21
0.8608338976377953
0
LINE
8
BLACK
6
CONTINUOUS
10
-0.7506374409448818
20
0.8608338976377953
11
-0.7600112598425197
21
0.8608338976377953
0
LINE
8
BLACK
6
CONTINUOUS
10
-0.7600112598425197
20
0.8608338976377953
11
-0.760302874015748
21
0.8608626377952756
0
LINE
8
BLACK
6
CONTINUOUS
10
-0.760302874015748
20
0.8608626377952756
11
-0.7603805905511811
21
0.8608570866141733
0
LINE
8
BLACK
6
CONTINUOUS
10
-0.7603805905511811
20
0.8608570866141733
11
-0.760482874015748
21
0.8608803543307086
0
LINE
8
BLACK
6
CONTINUOUS
10
-0.760482874015748
20
0.8608803543307086
11
-0.7605873228346457
21
0.8608906299212599
0
LINE
8
BLACK
6
CONTINUOUS
10
-0.7605873228346457
20
0.8608906299212599
11
-0.7606594094488189
21
0.8609205118110236
0
LINE
8
BLACK
6
CONTINUOUS
10
-0.7606594094488189
20
0.8609205118110236
11
-0.7609450393700787
21
0.8609854330708662
0
LINE
8
BLACK
6
CONTINUOUS
10
-0.7609450393700787
20
0.8609854330708662
11
-0.7665692913385826
21
0.8628601968503937
0
LINE
8
BLACK
6
CONTINUOUS
10
-0.7665692913385826
20
0.8628601968503937
11
-0.767097874015748
21
0.8630961811023622
0
LINE
8
BLACK
6
CONTINUOUS
10
-0.767097874015748
20
0.8630961811023622
11
-0.7671779921259843
21
0.8631656692913385
0
LINE
8
BLACK
6
CONTINUOUS
10
-0.7671779921259843
20
0.8631656692913385
11
-0.7672760236220473
21
0.8632062598425196
0
LINE
8
BLACK
6
CONTINUOUS
10
-0.7672760236220473
20
0.8632062598425196
11
-0.7677234645669291
21
0.8635735039370078
0
LINE
8
BLACK
6
CONTINUOUS
10
-0.7677234645669291
20
0.8635735039370078
11
-0.7714729921259842
21
0.8673230708661417
0
LINE
8
BLACK
6
CONTINUOUS
10
-0.7714729921259842
20
0.8673230708661417
11
-0.771658779527559
21
0.8675494488188976
0
LINE
8
BLACK
6
CONTINUOUS
10
-0.771658779527559
20
0.8675494488188976
11
-0.7717177559055118
21
0.8676005905511811
0
LINE
8
BLACK
6
CONTINUOUS
10
-0.7717177559055118
20
0.8676005905511811
11
-0.7717737401574803
21
0.8676895275590552
0
LINE
8
BLACK
6
CONTINUOUS
10
-0.7717737401574803
20
0.8676895275590552
11
-0.7718402362204724
21
0.8677705511811024
0
LINE
8
BLACK
6
CONTINUOUS
10
-0.7718402362204724
20
0.8677705511811024
11
-0.7718700787401575
21
0.8678425984251968
0
LINE
8
BLACK
6
CONTINUOUS
10
-0.7718700787401575
20
0.8678425984251968
11
-0.7720261023622047
21
0.8680904724409448
0
LINE
8
BLACK
6
CONTINUOUS
10
-0.7720261023622047
20
0.8680904724409448
11
-0.7739008661417323
21
0.8718399999999999
0
LINE
8
BLACK
6
CONTINUOUS
10
-0.7739008661417323
20
0.8718399999999999
11
-0.7739170078740157
21
0.871882125984252
0
LINE
8
BLACK
6
CONTINUOUS
10
-0.7739170078740157
20
0.871882125984252
11
-0.7739296850393701
21
0.8718992519685039
0
LINE
8
BLACK
6
CONTINUOUS
10
-0.7739296850393701
20
0.8718992519685039
11
-0.7740161417322835
21
0.8721412204724409
0
LINE
8
BLACK
6
CONTINUOUS
10
-0.7740161417322835
20
0.8721412204724409
11
-0.7741077559055118
21
0.8723806299212599
0
LINE
8
BLACK
6
CONTINUOUS
10
-0.7741077559055118
20
0.8723806299212599
11
-0.7741092913385826
21
0.8724018897637795
0
LINE
8
BLACK
6
CONTINUOUS
10
-0.7741092913385826
20
0.8724018897637795
11
-0.7741244488188976
21
0.8724443700787401
0
LINE
8
BLACK
6
CONTINUOUS
10
-0.7741244488188976
20
0.8724443700787401
11
-0.7759992125984252
21
0.8799434251968504
0
LINE
8
BLACK
6
CONTINUOUS
10
-0.7759992125984252
20
0.8799434251968504
11
-0.7760140157480315
21
0.8800433070866142
0
LINE
8
BLACK
6
CONTINUOUS
10
-0.7760140157480315
20
0.8800433070866142
11
-0.7760306299212598
21
0.8800835039370078
0
LINE
8
BLACK
6
CONTINUOUS
10
-0.7760306299212598
20
0.8800835039370078
11
-0.7760520078740157
21
0.8803005511811024
0
LINE
8
BLACK
6
CONTINUOUS
10
-0.7760520078740157
20
0.8803005511811024
11
-0.7760838582677165
21
0.8805160236220472
0
LINE
8
BLACK
6
CONTINUOUS
10
-0.7760838582677165
20
0.8805160236220472
11
-0.7760774803149606
21
0.8805590551181102
0
LINE
8
BLACK
6
CONTINUOUS
10
-0.7760774803149606
20
0.8805590551181102
11
-0.7760873622047244
21
0.8806595669291338
0
LINE
8
BLACK
6
CONTINUOUS
10
-0.7760873622047244
20
0.8806595669291338
11
-0.7760873622047244
21
0.8862838582677165
0
LINE
8
BLACK
6
CONTINUOUS
10
-0.7760873622047244
20
0.8862838582677165
11
-0.7760774803149606
21
0.8863844094488189
0
LINE
8
BLACK
6
CONTINUOUS
10
-0.7760774803149606
20
0.8863844094488189
11
-0.7760838582677165
21
0.8864274015748032
0
LINE
8
BLACK
6
CONTINUOUS
10
-0.7760838582677165
20
0.8864274015748032
11
-0.7760520078740157
21
0.8866429133858268
0
LINE
8
BLACK
6
CONTINUOUS
10
-0.7760520078740157
20
0.8866429133858268
11
-0.7760306299212598
21
0.8868599212598425
0
LINE
8
BLACK
6
CONTINUOUS
10
-0.7760306299212598
20
0.8868599212598425
11
-0.7760140157480315
21
0.8869001574803149
0
LINE
8
BLACK
6
CONTINUOUS
10
-0.7760140157480315
20
0.8869001574803149
11
-0.7759992125984252
21
0.887
0
LINE
8
BLACK
6
CONTINUOUS
10
-0.7759992125984252
20
0.887
11
-0.7741244488188976
21
0.8944990551181102
0
LINE
8
BLACK
6
CONTINUOUS
10
-0.7741244488188976
20
0.8944990551181102
11
-0.7741092913385826
21
0.8945415748031496
0
LINE
8
BLACK
6
CONTINUOUS
10
-0.7741092913385826
20
0.8945415748031496
11
-0.7741077559055118
21
0.8945627952755906
0
LINE
8
BLACK
6
CONTINUOUS
10
-0.7741077559055118
20
0.8945627952755906
11
-0.7740157480314961
21
0.8948032677165354
0
LINE
8
BLACK
6
CONTINUOUS
10
-0.7740157480314961
20
0.8948032677165354
11
-0.7739296850393701
21
0.8950441732283464
0
LINE
8
BLACK
6
CONTINUOUS
10
-0.7739296850393701
20
0.8950441732283464
11
-0.7739170078740157
21
0.8950613385826771
0
LINE
8
BLACK
6
CONTINUOUS
10
-0.7739170078740157
20
0.8950613385826771
11
-0.7739008661417323
21
0.8951034251968504
0
LINE
8
BLACK
6
CONTINUOUS
10
-0.7739008661417323
20
0.8951034251968504
11
-0.7720261023622047
21
0.8988529527559055
0
LINE
8
BLACK
6
CONTINUOUS
10
-0.7720261023622047
20
0.8988529527559055
11
-0.7718700393700787
21
0.8991009842519685
0
LINE
8
BLACK
6
CONTINUOUS
10
-0.7718700393700787
20
0.8991009842519685
11
-0.7718401968503937
21
0.8991729133858267
0
LINE
8
BLACK
6
CONTINUOUS
10
-0.7718401968503937
20
0.8991729133858267
11
-0.7717737401574803
21
0.8992538976377953
0
LINE
8
BLACK
6
CONTINUOUS
10
-0.7717737401574803
20
0.8992538976377953
11
-0.7717177559055118
21
0.8993428346456692
0
LINE
8
BLACK
6
CONTINUOUS
10
-0.7717177559055118
20
0.8993428346456692
11
-0.771658779527559
21
0.8993940157480315
0
LINE
8
BLACK
6
CONTINUOUS
10
-0.771658779527559
20
0.8993940157480315
11
-0.7714729921259842
21
0.8996203543307086
0
LINE
8
BLACK
6
CONTINUOUS
10
-0.7714729921259842
20
0.8996203543307086
11
-0.7677234645669291
21
0.9033698818897637
0
LINE
8
BLACK
6
CONTINUOUS
10
-0.7677234645669291
20
0.9033698818897637
11
-0.7672760236220473
21
0.9037371259842519
0
LINE
8
BLACK
6
CONTINUOUS
10
-0.7672760236220473
20
0.9037371259842519
11
-0.7671779921259843
21
0.9037777559055118
0
LINE
8
BLACK
6
CONTINUOUS
10
-0.7671779921259843
20
0.9037777559055118
11
-0.767097874015748
21
0.9038472047244094
0
LINE
8
BLACK
6
CONTINUOUS
10
-0.767097874015748
20
0.9038472047244094
11
-0.7665692913385826
21
0.904083188976378
0
LINE
8
BLACK
6
CONTINUOUS
10
-0.7665692913385826
20
0.904083188976378
11
-0.7609450393700787
21
0.9059579527559055
0
LINE
8
BLACK
6
CONTINUOUS
10
-0.7609450393700787
20
0.9059579527559055
11
-0.7606594094488189
21
0.9060229133858267
0
LINE
8
BLACK
6
CONTINUOUS
10
-0.7606594094488189
20
0.9060229133858267
11
-0.7605873228346457
21
0.9060527559055118
0
LINE
8
BLACK
6
CONTINUOUS
10
-0.7605873228346457
20
0.9060527559055118
11
-0.760482874015748
21
0.9060630708661417
0
LINE
8
BLACK
6
CONTINUOUS
10
-0.760482874015748
20
0.9060630708661417
11
-0.7603805905511811
21
0.9060862992125984
0
LINE
8
BLACK
6
CONTINUOUS
10
-0.7603805905511811
20
0.9060862992125984
11
-0.760302874015748
21
0.9060807874015748
0
LINE
8
BLACK
6
CONTINUOUS
10
-0.760302874015748
20
0.9060807874015748
11
-0.7600112598425197
21
0.9061094881889764
0
LINE
8
BLACK
6
CONTINUOUS
10
-0.7600112598425197
20
0.9061094881889764
11
-0.7506374409448818
21
0.9061094881889764
0
LINE
8
BLACK
6
CONTINUOUS
10
-0.7506374409448818
20
0.9061094881889764
11
-0.7500613779527558
21
0.9060527559055118
0
LINE
8
BLACK
6
CONTINUOUS
10
-0.7640405118110236
20
0.8987011811023622
11
-0.7669583464566929
21
0.8957833464566929
0
LINE
8
BLACK
6
CONTINUOUS
10
-0.7669583464566929
20
0.8957833464566929
11
-0.7684738582677165
21
0.8927523622047244
0
LINE
8
BLACK
6
CONTINUOUS
10
-0.7684738582677165
20
0.8927523622047244
11
-0.7701818503937008
21
0.88592031496063
0
LINE
8
BLACK
6
CONTINUOUS
10
-0.7701818503937008
20
0.88592031496063
11
-0.7701818503937008
21
0.8810231102362205
0
LINE
8
BLACK
6
CONTINUOUS
10
-0.7701818503937008
20
0.8810231102362205
11
-0.7684738582677165
21
0.874191062992126
0
LINE
8
BLACK
6
CONTINUOUS
10
-0.7684738582677165
20
0.874191062992126
11
-0.7669583464566929
21
0.8711600787401574
0
LINE
8
BLACK
6
CONTINUOUS
10
-0.7669583464566929
20
0.8711600787401574
11
-0.7640405118110236
21
0.8682422047244094
0
LINE
8
BLACK
6
CONTINUOUS
10
-0.7640405118110236
20
0.8682422047244094
11
-0.7595321259842519
21
0.8667394094488189
0
LINE
8
BLACK
6
CONTINUOUS
10
-0.7595321259842519
20
0.8667394094488189
11
-0.7535901968503936
21
0.8667394094488189
0
LINE
8
BLACK
6
CONTINUOUS
10
-0.7535901968503936
20
0.8667394094488189
11
-0.7535901968503936
21
0.9002039763779527
0
LINE
8
BLACK
6
CONTINUOUS
10
-0.7535901968503936
20
0.9002039763779527
11
-0.7595321259842519
21
0.9002039763779527
0
LINE
8
BLACK
6
CONTINUOUS
10
-0.7595321259842519
20
0.9002039763779527
11
-0.7640405118110236
21
0.8987011811023622
0
LINE
8
BLACK
6
CONTINUOUS
10
-0.6806950393700787
20
0.9060527559055118
11
-0.6796306299212598
21
0.9056118503937007
0
LINE
8
BLACK
6
CONTINUOUS
10
-0.6796306299212598
20
0.9056118503937007
11
-0.6788159842519685
21
0.9047972047244094
0
LINE
8
BLACK
6
CONTINUOUS
10
-0.6788159842519685
20
0.9047972047244094
11
-0.6783750787401575
21
0.9037327952755906
0
LINE
8
BLACK
6
CONTINUOUS
10
-0.6783750787401575
20
0.9037327952755906
11
-0.6783183464566929
21
0.9031567322834645
0
LINE
8
BLACK
6
CONTINUOUS
10
-0.6783183464566929
20
0.9031567322834645
11
-0.6783183464566929
21
0.8637866535433071
0
LINE
8
BLACK
6
CONTINUOUS
10
-0.6783183464566929
20
0.8637866535433071
11
-0.6783750787401575
21
0.8632105905511811
0
LINE
8
BLACK
6
CONTINUOUS
10
-0.6783750787401575
20
0.8632105905511811
11
-0.6788159842519685
21
0.8621461811023622
0
LINE
8
BLACK
6
CONTINUOUS
10
-0.6788159842519685
20
0.8621461811023622
11
-0.6796306299212598
21
0.8613315354330708
0
LINE
8
BLACK
6
CONTINUOUS
10
-0.6796306299212598
20
0.8613315354330708
11
-0.6806950393700787
21
0.8608906299212599
0
LINE
8
BLACK
6
CONTINUOUS
10
-0.6806950393700787
20
0.8608906299212599
11
-0.6812711023622047
21
0.8608338976377953
0
LINE
8
BLACK
6
CONTINUOUS
10
-0.6812711023622047
20
0.8608338976377953
11
-0.7000187401574803
21
0.8608338976377953
0
LINE
8
BLACK
6
CONTINUOUS
10
-0.7000187401574803
20
0.8608338976377953
11
-0.7005948031496063
21
0.8608906299212599
0
LINE
8
BLACK
6
CONTINUOUS
10
-0.7005948031496063
20
0.8608906299212599
11
-0.7016592125984252
21
0.8613315354330708
0
LINE
8
BLACK
6
CONTINUOUS
10
-0.7016592125984252
20
0.8613315354330708
11
-0.7024738582677165
21
0.8621461811023622
0
LINE
8
BLACK
6
CONTINUOUS
10
-0.7024738582677165
20
0.8621461811023622
11
-0.7029147637795276
21
0.8632105905511811
0
LINE
8
BLACK
6
CONTINUOUS
10
-0.7029147637795276
20
0.8632105905511811
11
-0.7029147637795276
21
0.8643627165354331
0
LINE
8
BLACK
6
CONTINUOUS
10
-0.7029147637795276
20
0.8643627165354331
11
-0.7024738582677165
21
0.865427125984252
0
LINE
8
BLACK
6
CONTINUOUS
10
-0.7024738582677165
20
0.865427125984252
11
-0.7016592125984252
21
0.8662417716535433
0
LINE
8
BLACK
6
CONTINUOUS
10
-0.7016592125984252
20
0.8662417716535433
11
-0.7005948031496063
21
0.8666826771653543
0
LINE
8
BLACK
6
CONTINUOUS
10
-0.7005948031496063
20
0.8666826771653543
11
-0.7000187401574803
21
0.8667394094488189
0
LINE
8
BLACK
6
CONTINUOUS
10
-0.7000187401574803
20
0.8667394094488189
11
-0.6842238582677165
21
0.8667394094488189
0
LINE
8
BLACK
6
CONTINUOUS
10
-0.6842238582677165
20
0.8667394094488189
11
-0.6842238582677165
21
0.8814563385826771
0
LINE
8
BLACK
6
CONTINUOUS
10
-0.6842238582677165
20
0.8814563385826771
11
-0.6943944488188977
21
0.8814563385826771
0
LINE
8
BLACK
6
CONTINUOUS
10
-0.6943944488188977
20
0.8814563385826771
11
-0.6949705118110237
21
0.8815130708661417
0
LINE
8
BLACK
6
CONTINUOUS
10
-0.6949705118110237
20
0.8815130708661417
11
-0.6960349212598425
21
0.8819539763779527
0
LINE
8
BLACK
6
CONTINUOUS
10
-0.6960349212598425
20
0.8819539763779527
11
-0.6968495669291338
21
0.882768622047244
0
LINE
8
BLACK
6
CONTINUOUS
10
-0.6968495669291338
20
0.882768622047244
11
-0.6972904724409449
21
0.883833031496063
0
LINE
8
BLACK
6
CONTINUOUS
10
-0.6972904724409449
20
0.883833031496063
11
-0.6972904724409449
21
0.8849851574803149
0
LINE
8
BLACK
6
CONTINUOUS
10
-0.6972904724409449
20
0.8849851574803149
11
-0.6968495669291338
21
0.8860495669291338
0
LINE
8
BLACK
6
CONTINUOUS
10
-0.6968495669291338
20
0.8860495669291338
11
-0.6960349212598425
21
0.8868642125984252
0
LINE
8
BLACK
6
CONTINUOUS
10
-0.6960349212598425
20
0.8868642125984252
11
-0.6949705118110237
21
0.8873051181102362
0
LINE
8
BLACK
6
CONTINUOUS
10
-0.6949705118110237
20
0.8873051181102362
11
-0.6943944488188977
21
0.8873618503937007
0
LINE
8
BLACK
6
CONTINUOUS
10
-0.6943944488188977
20
0.8873618503937007
11
-0.6842238582677165
21
0.8873618503937007
0
LINE
8
BLACK
6
CONTINUOUS
10
-0.6842238582677165
20
0.8873618503937007
11
-0.6842238582677165
21
0.9002039763779527
0
LINE
8
BLACK
6
CONTINUOUS
10
-0.6842238582677165
20
0.9002039763779527
11
-0.7000187401574803
21
0.9002039763779527
0
LINE
8
BLACK
6
CONTINUOUS
10
-0.7000187401574803
20
0.9002039763779527
11
-0.7005948031496063
21
0.9002607086614173
0
LINE
8
BLACK
6
CONTINUOUS
10
-0.7005948031496063
20
0.9002607086614173
11
-0.7016592125984252
21
0.9007016141732284
0
LINE
8
BLACK
6
CONTINUOUS
10
-0.7016592125984252
20
0.9007016141732284
11
-0.7024738582677165
21
0.9015162598425197
0
LINE
8
BLACK
6
CONTINUOUS
10
-0.7024738582677165
20
0.9015162598425197
11
-0.7029147637795276
21
0.9025806692913385
0
LINE
8
BLACK
6
CONTINUOUS
10
-0.7029147637795276
20
0.9025806692913385
11
-0.7029147637795276
21
0.9037327952755906
0
LINE
8
BLACK
6
CONTINUOUS
10
-0.7029147637795276
20
0.9037327952755906
11
-0.7024738582677165
21
0.9047972047244094
0
LINE
8
BLACK
6
CONTINUOUS
10
-0.7024738582677165
20
0.9047972047244094
11
-0.7016592125984252
21
0.9056118503937007
0
LINE
8
BLACK
6
CONTINUOUS
10
-0.7016592125984252
20
0.9056118503937007
11
-0.7005948031496063
21
0.9060527559055118
0
LINE
8
BLACK
6
CONTINUOUS
10
-0.7005948031496063
20
0.9060527559055118
11
-0.7000187401574803
21
0.9061094881889764
0
LINE
8
BLACK
6
CONTINUOUS
10
-0.7000187401574803
20
0.9061094881889764
11
-0.6812711023622047
21
0.9061094881889764
0
LINE
8
BLACK
6
CONTINUOUS
10
-0.6812711023622047
20
0.9061094881889764
11
-0.6806950393700787
21
0.9060527559055118
0
LINE
8
BLACK
6
CONTINUOUS
10
-0.8250520078740158
20
0.9060527559055118
11
-0.8239875984251969
21
0.9056118503937007
0
LINE
8
BLACK
6
CONTINUOUS
10
-0.8239875984251969
20
0.9056118503937007
11
-0.8231729527559055
21
0.9047972047244094
0
LINE
8
BLACK
6
CONTINUOUS
10
-0.8231729527559055
20
0.9047972047244094
11
-0.8227320472440944
21
0.9037327952755906
0
LINE
8
BLACK
6
CONTINUOUS
10
-0.8227320472440944
20
0.9037327952755906
11
-0.82267531496063
21
0.9031567322834645
0
LINE
8
BLACK
6
CONTINUOUS
10
-0.82267531496063
20
0.9031567322834645
11
-0.82267531496063
21
0.8637866535433071
0
LINE
8
BLACK
6
CONTINUOUS
10
-0.82267531496063
20
0.8637866535433071
11
-0.8227320472440944
21
0.8632105905511811
0
LINE
8
BLACK
6
CONTINUOUS
10
-0.8227320472440944
20
0.8632105905511811
11
-0.8231729527559055
21
0.8621461811023622
0
LINE
8
BLACK
6
CONTINUOUS
10
-0.8231729527559055
20
0.8621461811023622
11
-0.8239875984251969
21
0.8613315354330708
0
LINE
8
BLACK
6
CONTINUOUS
10
-0.8239875984251969
20
0.8613315354330708
11
-0.8250520078740158
21
0.8608906299212599
0
LINE
8
BLACK
6
CONTINUOUS
10
-0.8250520078740158
20
0.8608906299212599
11
-0.8262041338582677
21
0.8608906299212599
0
LINE
8
BLACK
6
CONTINUOUS
10
-0.8262041338582677
20
0.8608906299212599
11
-0.8272685433070865
21
0.8613315354330708
0
LINE
8
BLACK
6
CONTINUOUS
10
-0.8272685433070865
20
0.8613315354330708
11
-0.8280831889763779
21
0.8621461811023622
0
LINE
8
BLACK
6
CONTINUOUS
10
-0.8280831889763779
20
0.8621461811023622
11
-0.828524094488189
21
0.8632105905511811
0
LINE
8
BLACK
6
CONTINUOUS
10
-0.828524094488189
20
0.8632105905511811
11
-0.8285808267716536
21
0.8637866535433071
0
LINE
8
BLACK
6
CONTINUOUS
10
-0.8285808267716536
20
0.8637866535433071
11
-0.8285808267716536
21
0.8795815748031496
0
LINE
8
BLACK
6
CONTINUOUS
10
-0.8285808267716536
20
0.8795815748031496
11
-0.8334645275590551
21
0.8795815748031496
0
LINE
8
BLACK
6
CONTINUOUS
10
-0.8334645275590551
20
0.8795815748031496
11
-0.8457062598425197
21
0.8620933464566929
0
LINE
8
BLACK
6
CONTINUOUS
10
-0.8457062598425197
20
0.8620933464566929
11
-0.8460830708661418
21
0.8616539763779527
0
LINE
8
BLACK
6
CONTINUOUS
10
-0.8460830708661418
20
0.8616539763779527
11
-0.8470546850393701
21
0.8610348031496062
0
LINE
8
BLACK
6
CONTINUOUS
10
-0.8470546850393701
20
0.8610348031496062
11
-0.8481892125984252
21
0.8608346062992126
0
LINE
8
BLACK
6
CONTINUOUS
10
-0.8481892125984252
20
0.8608346062992126
11
-0.8493140551181102
21
0.861083779527559
0
LINE
8
BLACK
6
CONTINUOUS
10
-0.8493140551181102
20
0.861083779527559
11
-0.8502579133858268
21
0.8617444881889763
0
LINE
8
BLACK
6
CONTINUOUS
10
-0.8502579133858268
20
0.8617444881889763
11
-0.8508770866141732
21
0.8627161023622048
0
LINE
8
BLACK
6
CONTINUOUS
10
-0.8508770866141732
20
0.8627161023622048
11
-0.8510772834645669
21
0.8638506299212598
0
LINE
8
BLACK
6
CONTINUOUS
10
-0.8510772834645669
20
0.8638506299212598
11
-0.8508281102362204
21
0.8649754724409449
0
LINE
8
BLACK
6
CONTINUOUS
10
-0.8508281102362204
20
0.8649754724409449
11
-0.8505442125984252
21
0.8654799606299213
0
LINE
8
BLACK
6
CONTINUOUS
10
-0.8505442125984252
20
0.8654799606299213
11
-0.8406700787401574
21
0.879585905511811
0
LINE
8
BLACK
6
CONTINUOUS
10
-0.8406700787401574
20
0.879585905511811
11
-0.8412022440944882
21
0.8796383070866142
0
LINE
8
BLACK
6
CONTINUOUS
10
-0.8412022440944882
20
0.8796383070866142
11
-0.8413002362204725
21
0.8796788976377953
0
LINE
8
BLACK
6
CONTINUOUS
10
-0.8413002362204725
20
0.8796788976377953
11
-0.8414061023622047
21
0.8796864173228346
0
LINE
8
BLACK
6
CONTINUOUS
10
-0.8414061023622047
20
0.8796864173228346
11
-0.8419466929133858
21
0.8798933070866142
0
LINE
8
BLACK
6
CONTINUOUS
10
-0.8419466929133858
20
0.8798933070866142
11
-0.845696220472441
21
0.8817680708661417
0
LINE
8
BLACK
6
CONTINUOUS
10
-0.845696220472441
20
0.8817680708661417
11
-0.8459442519685039
21
0.8819241732283465
0
LINE
8
BLACK
6
CONTINUOUS
10
-0.8459442519685039
20
0.8819241732283465
11
-0.8460161811023622
21
0.8819539763779527
0
LINE
8
BLACK
6
CONTINUOUS
10
-0.8460161811023622
20
0.8819539763779527
11
-0.8460971653543307
21
0.8820204724409448
0
LINE
8
BLACK
6
CONTINUOUS
10
-0.8460971653543307
20
0.8820204724409448
11
-0.8461861023622047
21
0.8820764173228346
0
LINE
8
BLACK
6
CONTINUOUS
10
-0.8461861023622047
20
0.8820764173228346
11
-0.8462372834645669
21
0.8821354330708662
0
LINE
8
BLACK
6
CONTINUOUS
10
-0.8462372834645669
20
0.8821354330708662
11
-0.8464636220472441
21
0.8823211811023622
0
LINE
8
BLACK
6
CONTINUOUS
10
-0.8464636220472441
20
0.8823211811023622
11
-0.8483383858267717
21
0.8841959448818898
0
LINE
8
BLACK
6
CONTINUOUS
10
-0.8483383858267717
20
0.8841959448818898
11
-0.8485241732283464
21
0.8844223228346456
0
LINE
8
BLACK
6
CONTINUOUS
10
-0.8485241732283464
20
0.8844223228346456
11
-0.8485831496062992
21
0.8844734645669291
0
LINE
8
BLACK
6
CONTINUOUS
10
-0.8485831496062992
20
0.8844734645669291
11
-0.8486391338582677
21
0.8845624409448819
0
LINE
8
BLACK
6
CONTINUOUS
10
-0.8486391338582677
20
0.8845624409448819
11
-0.8487055905511811
21
0.8846433858267716
0
LINE
8
BLACK
6
CONTINUOUS
10
-0.8487055905511811
20
0.8846433858267716
11
-0.8487354330708661
21
0.8847153543307087
0
LINE
8
BLACK
6
CONTINUOUS
10
-0.8487354330708661
20
0.8847153543307087
11
-0.8488914960629921
21
0.8849633464566929
0
LINE
8
BLACK
6
CONTINUOUS
10
-0.8488914960629921
20
0.8849633464566929
11
-0.8507662598425196
21
0.8887128740157481
0
LINE
8
BLACK
6
CONTINUOUS
10
-0.8507662598425196
20
0.8887128740157481
11
-0.8509731496062992
21
0.8892535039370079
0
LINE
8
BLACK
6
CONTINUOUS
10
-0.8509731496062992
20
0.8892535039370079
11
-0.8509806692913385
21
0.8893593307086614
0
LINE
8
BLACK
6
CONTINUOUS
10
-0.8509806692913385
20
0.8893593307086614
11
-0.8510212598425196
21
0.8894573228346456
0
LINE
8
BLACK
6
CONTINUOUS
10
-0.8510212598425196
20
0.8894573228346456
11
-0.8510779921259842
21
0.8900333858267716
0
LINE
8
BLACK
6
CONTINUOUS
10
-0.8510779921259842
20
0.8900333858267716
11
-0.8510779921259842
21
0.8956576771653543
0
LINE
8
BLACK
6
CONTINUOUS
10
-0.8510779921259842
20
0.8956576771653543
11
-0.8510212598425196
21
0.8962337401574803
0
LINE
8
BLACK
6
CONTINUOUS
10
-0.8510212598425196
20
0.8962337401574803
11
-0.8509806692913385
21
0.8963317716535433
0
LINE
8
BLACK
6
CONTINUOUS
10
-0.8509806692913385
20
0.8963317716535433
11
-0.8509731496062992
21
0.8964375590551181
0
LINE
8
BLACK
6
CONTINUOUS
10
-0.8509731496062992
20
0.8964375590551181
11
-0.8507662598425196
21
0.8969781889763779
0
LINE
8
BLACK
6
CONTINUOUS
10
-0.8507662598425196
20
0.8969781889763779
11
-0.8488914960629921
21
0.900727716535433
0
LINE
8
BLACK
6
CONTINUOUS
10
-0.8488914960629921
20
0.900727716535433
11
-0.8487354330708661
21
0.900975748031496
0
LINE
8
BLACK
6
CONTINUOUS
10
-0.8487354330708661
20
0.900975748031496
11
-0.8487055905511811
21
0.9010476771653543
0
LINE
8
BLACK
6
CONTINUOUS
10
-0.8487055905511811
20
0.9010476771653543
11
-0.8486391338582677
21
0.9011286614173228
0
LINE
8
BLACK
6
CONTINUOUS
10
-0.8486391338582677
20
0.9011286614173228
11
-0.8485831496062992
21
0.9012175984251968
0
LINE
8
BLACK
6
CONTINUOUS
10
-0.8485831496062992
20
0.9012175984251968
11
-0.8485241732283464
21
0.901268779527559
0
LINE
8
BLACK
6
CONTINUOUS
10
-0.8485241732283464
20
0.901268779527559
11
-0.8483383858267717
21
0.9014951181102362
0
LINE
8
BLACK
6
CONTINUOUS
10
-0.8483383858267717
20
0.9014951181102362
11
-0.8464636220472441
21
0.9033698818897637
0
LINE
8
BLACK
6
CONTINUOUS
10
-0.8464636220472441
20
0.9033698818897637
11
-0.8462372834645669
21
0.9035556692913386
0
LINE
8
BLACK
6
CONTINUOUS
10
-0.8462372834645669
20
0.9035556692913386
11
-0.8461861023622047
21
0.9036146456692913
0
LINE
8
BLACK
6
CONTINUOUS
10
-0.8461861023622047
20
0.9036146456692913
11
-0.8460971653543307
21
0.9036706299212598
0
LINE
8
BLACK
6
CONTINUOUS
10
-0.8460971653543307
20
0.9036706299212598
11
-0.8460161811023622
21
0.9037370866141732
0
LINE
8
BLACK
6
CONTINUOUS
10
-0.8460161811023622
20
0.9037370866141732
11
-0.8459442519685039
21
0.9037669291338583
0
LINE
8
BLACK
6
CONTINUOUS
10
-0.8459442519685039
20
0.9037669291338583
11
-0.845696220472441
21
0.9039229921259843
0
LINE
8
BLACK
6
CONTINUOUS
10
-0.845696220472441
20
0.9039229921259843
11
-0.8419466929133858
21
0.9057977559055118
0
LINE
8
BLACK
6
CONTINUOUS
10
-0.8419466929133858
20
0.9057977559055118
11
-0.8414061023622047
21
0.9060046456692913
0
LINE
8
BLACK
6
CONTINUOUS
10
-0.8414061023622047
20
0.9060046456692913
11
-0.8413002362204725
21
0.9060122047244095
0
LINE
8
BLACK
6
CONTINUOUS
10
-0.8413002362204725
20
0.9060122047244095
11
-0.8412022440944882
21
0.9060527559055118
0
LINE
8
BLACK
6
CONTINUOUS
10
-0.8412022440944882
20
0.9060527559055118
11
-0.8406261811023622
21
0.9061094881889764
0
LINE
8
BLACK
6
CONTINUOUS
10
-0.8406261811023622
20
0.9061094881889764
11
-0.8256280708661418
21
0.9061094881889764
0
LINE
8
BLACK
6
CONTINUOUS
10
-0.8256280708661418
20
0.9061094881889764
11
-0.8250520078740158
21
0.9060527559055118
0
LINE
8
BLACK
6
CONTINUOUS
10
-0.8426266141732284
20
0.8988552362204725
11
-0.8438237401574803
21
0.8976581102362204
0
LINE
8
BLACK
6
CONTINUOUS
10
-0.8438237401574803
20
0.8976581102362204
11
-0.8451724803149606
21
0.8949606299212598
0
LINE
8
BLACK
6
CONTINUOUS
10
-0.8451724803149606
20
0.8949606299212598
11
-0.8451724803149606
21
0.8907304330708661
0
LINE
8
BLACK
6
CONTINUOUS
10
-0.8451724803149606
20
0.8907304330708661
11
-0.8438237401574803
21
0.8880329527559055
0
LINE
8
BLACK
6
CONTINUOUS
10
-0.8438237401574803
20
0.8880329527559055
11
-0.8426266141732284
21
0.8868358267716535
0
LINE
8
BLACK
6
CONTINUOUS
10
-0.8426266141732284
20
0.8868358267716535
11
-0.8399291338582677
21
0.8854870866141732
0
LINE
8
BLACK
6
CONTINUOUS
10
-0.8399291338582677
20
0.8854870866141732
11
-0.8285808267716536
21
0.8854870866141732
0
LINE
8
BLACK
6
CONTINUOUS
10
-0.8285808267716536
20
0.8854870866141732
11
-0.8285808267716536
21
0.9002039763779527
0
LINE
8
BLACK
6
CONTINUOUS
10
-0.8285808267716536
20
0.9002039763779527
11
-0.8399291338582677
21
0.9002039763779527
0
LINE
8
BLACK
6
CONTINUOUS
10
-0.8399291338582677
20
0.9002039763779527
11
-0.8426266141732284
21
0.8988552362204725
0
LINE
8
BLACK
6
CONTINUOUS
10
-0.927403937007874
20
0.8926664960629921
11
-0.9264979921259843
21
0.89195468503937
0
LINE
8
BLACK
6
CONTINUOUS
10
-0.9264979921259843
20
0.89195468503937
11
-0.9259334251968504
21
0.8909503543307087
0
LINE
8
BLACK
6
CONTINUOUS
10
-0.9259334251968504
20
0.8909503543307087
11
-0.9257961811023622
21
0.8898064960629921
0
LINE
8
BLACK
6
CONTINUOUS
10
-0.9257961811023622
20
0.8898064960629921
11
-0.9261070866141732
21
0.888697125984252
0
LINE
8
BLACK
6
CONTINUOUS
10
-0.9261070866141732
20
0.888697125984252
11
-0.9264183858267716
21
0.888209094488189
0
LINE
8
BLACK
6
CONTINUOUS
10
-0.9264183858267716
20
0.888209094488189
11
-0.9352962204724409
21
0.8769100393700787
0
LINE
8
BLACK
6
CONTINUOUS
10
-0.9352962204724409
20
0.8769100393700787
11
-0.9264183858267716
21
0.8656109448818897
0
LINE
8
BLACK
6
CONTINUOUS
10
-0.9264183858267716
20
0.8656109448818897
11
-0.9261070866141732
21
0.8651229133858267
0
LINE
8
BLACK
6
CONTINUOUS
10
-0.9261070866141732
20
0.8651229133858267
11
-0.9257961811023622
21
0.8640135433070866
0
LINE
8
BLACK
6
CONTINUOUS
10
-0.9257961811023622
20
0.8640135433070866
11
-0.9259334251968504
21
0.86286968503937
0
LINE
8
BLACK
6
CONTINUOUS
10
-0.9259334251968504
20
0.86286968503937
11
-0.9264979921259843
21
0.8618653543307087
0
LINE
8
BLACK
6
CONTINUOUS
10
-0.9264979921259843
20
0.8618653543307087
11
-0.927403937007874
21
0.8611535433070866
0
LINE
8
BLACK
6
CONTINUOUS
10
-0.927403937007874
20
0.8611535433070866
11
-0.9285133070866142
21
0.8608426377952756
0
LINE
8
BLACK
6
CONTINUOUS
10
-0.9285133070866142
20
0.8608426377952756
11
-0.9296571653543307
21
0.8609798818897637
0
LINE
8
BLACK
6
CONTINUOUS
10
-0.9296571653543307
20
0.8609798818897637
11
-0.9306614960629921
21
0.8615444488188976
0
LINE
8
BLACK
6
CONTINUOUS
10
-0.9306614960629921
20
0.8615444488188976
11
-0.9310620078740157
21
0.8619623622047244
0
LINE
8
BLACK
6
CONTINUOUS
10
-0.9310620078740157
20
0.8619623622047244
11
-0.9390514173228346
21
0.8721307086614173
0
LINE
8
BLACK
6
CONTINUOUS
10
-0.9390514173228346
20
0.8721307086614173
11
-0.9470407874015748
21
0.8619623622047244
0
LINE
8
BLACK
6
CONTINUOUS
10
-0.9470407874015748
20
0.8619623622047244
11
-0.9474412992125985
21
0.8615444488188976
0
LINE
8
BLACK
6
CONTINUOUS
10
-0.9474412992125985
20
0.8615444488188976
11
-0.9484456299212598
21
0.8609798818897637
0
LINE
8
BLACK
6
CONTINUOUS
10
-0.9484456299212598
20
0.8609798818897637
11
-0.9495894881889764
21
0.8608426377952756
0
LINE
8
BLACK
6
CONTINUOUS
10
-0.9495894881889764
20
0.8608426377952756
11
-0.9506988582677165
21
0.8611535433070866
0
LINE
8
BLACK
6
CONTINUOUS
10
-0.9506988582677165
20
0.8611535433070866
11
-0.9516048031496063
21
0.8618653543307087
0
LINE
8
BLACK
6
CONTINUOUS
10
-0.9516048031496063
20
0.8618653543307087
11
-0.9521693700787401
21
0.86286968503937
0
LINE
8
BLACK
6
CONTINUOUS
10
-0.9521693700787401
20
0.86286968503937
11
-0.9523066141732284
21
0.8640135433070866
0
LINE
8
BLACK
6
CONTINUOUS
10
-0.9523066141732284
20
0.8640135433070866
11
-0.9519957086614173
21
0.8651229133858267
0
LINE
8
BLACK
6
CONTINUOUS
10
-0.9519957086614173
20
0.8651229133858267
11
-0.9516844094488188
21
0.8656109448818897
0
LINE
8
BLACK
6
CONTINUOUS
10
-0.9516844094488188
20
0.8656109448818897
11
-0.9428066141732283
21
0.8769100393700787
0
LINE
8
BLACK
6
CONTINUOUS
10
-0.9428066141732283
20
0.8769100393700787
11
-0.9516844094488188
21
0.888209094488189
0
LINE
8
BLACK
6
CONTINUOUS
10
-0.9516844094488188
20
0.888209094488189
11
-0.9519957086614173
21
0.888697125984252
0
LINE
8
BLACK
6
CONTINUOUS
10
-0.9519957086614173
20
0.888697125984252
11
-0.9523066141732284
21
0.8898064960629921
0
LINE
8
BLACK
6
CONTINUOUS
10
-0.9523066141732284
20
0.8898064960629921
11
-0.9521693700787401
21
0.8909503543307087
0
LINE
8
BLACK
6
CONTINUOUS
10
-0.9521693700787401
20
0.8909503543307087
11
-0.9516048031496063
21
0.89195468503937
0
LINE
8
BLACK
6
CONTINUOUS
10
-0.9516048031496063
20
0.89195468503937
11
-0.9506988582677165
21
0.8926664960629921
0
LINE
8
BLACK
6
CONTINUOUS
10
-0.9506988582677165
20
0.8926664960629921
11
-0.9495894881889764
21
0.8929774015748031
0
LINE
8
BLACK
6
CONTINUOUS
10
-0.9495894881889764
20
0.8929774015748031
11
-0.9484456299212598
21
0.892840157480315
0
LINE
8
BLACK
6
CONTINUOUS
10
-0.9484456299212598
20
0.892840157480315
11
-0.9474412992125985
21
0.8922755905511811
0
LINE
8
BLACK
6
CONTINUOUS
10
-0.9474412992125985
20
0.8922755905511811
11
-0.9470407874015748
21
0.8918576771653544
0
LINE
8
BLACK
6
CONTINUOUS
10
-0.9470407874015748
20
0.8918576771653544
11
-0.9390514173228346
21
0.8816893700787402
0
LINE
8
BLACK
6
CONTINUOUS
10
-0.9390514173228346
20
0.8816893700787402
11
-0.9310620078740157
21
0.8918576771653544
0
LINE
8
BLACK
6
CONTINUOUS
10
-0.9310620078740157
20
0.8918576771653544
11
-0.9306614960629921
21
0.8922755905511811
0
LINE
8
BLACK
6
CONTINUOUS
10
-0.9306614960629921
20
0.8922755905511811
11
-0.9296571653543307
21
0.892840157480315
0
LINE
8
BLACK
6
CONTINUOUS
10
-0.9296571653543307
20
0.892840157480315
11
-0.9285133070866142
21
0.8929774015748031
0
LINE
8
BLACK
6
CONTINUOUS
10
-0.9285133070866142
20
0.8929774015748031
11
-0.927403937007874
21
0.8926664960629921
0
LINE
8
BLACK
6
CONTINUOUS
10
-0.7238212204724409
20
0.9060195669291339
11
-0.7236107874015748
21
0.9060046062992125
0
LINE
8
BLACK
6
CONTINUOUS
10
-0.7236107874015748
20
0.9060046062992125
11
-0.72327968503937
21
0.9058390551181102
0
LINE
8
BLACK
6
CONTINUOUS
10
-0.72327968503937
20
0.9058390551181102
11
-0.7229284251968504
21
0.9057219685039369
0
LINE
8
BLACK
6
CONTINUOUS
10
-0.7229284251968504
20
0.9057219685039369
11
-0.7227690944881889
21
0.9055837795275591
0
LINE
8
BLACK
6
CONTINUOUS
10
-0.7227690944881889
20
0.9055837795275591
11
-0.7225803543307087
21
0.9054894094488188
0
LINE
8
BLACK
6
CONTINUOUS
10
-0.7225803543307087
20
0.9054894094488188
11
-0.7223377165354331
21
0.90520968503937
0
LINE
8
BLACK
6
CONTINUOUS
10
-0.7223377165354331
20
0.90520968503937
11
-0.722058031496063
21
0.9049670866141732
0
LINE
8
BLACK
6
CONTINUOUS
10
-0.722058031496063
20
0.9049670866141732
11
-0.7219637401574803
21
0.9047784645669291
0
LINE
8
BLACK
6
CONTINUOUS
10
-0.7219637401574803
20
0.9047784645669291
11
-0.7218254724409449
21
0.9046190551181102
0
LINE
8
BLACK
6
CONTINUOUS
10
-0.7218254724409449
20
0.9046190551181102
11
-0.7215894881889764
21
0.9040904724409449
0
LINE
8
BLACK
6
CONTINUOUS
10
-0.7215894881889764
20
0.9040904724409449
11
-0.7084661417322834
21
0.8647203937007873
0
LINE
8
BLACK
6
CONTINUOUS
10
-0.7084661417322834
20
0.8647203937007873
11
-0.7083377952755905
21
0.8641559842519685
0
LINE
8
BLACK
6
CONTINUOUS
10
-0.7083377952755905
20
0.8641559842519685
11
-0.7084194881889764
21
0.8630067716535433
0
LINE
8
BLACK
6
CONTINUOUS
10
-0.7084194881889764
20
0.8630067716535433
11
-0.7089346850393701
21
0.8619762992125984
0
LINE
8
BLACK
6
CONTINUOUS
10
-0.7089346850393701
20
0.8619762992125984
11
-0.7098050787401574
21
0.8612214173228346
0
LINE
8
BLACK
6
CONTINUOUS
10
-0.7098050787401574
20
0.8612214173228346
11
-0.7108980708661418
21
0.8608570866141733
0
LINE
8
BLACK
6
CONTINUOUS
10
-0.7108980708661418
20
0.8608570866141733
11
-0.7120472834645669
21
0.860938779527559
0
LINE
8
BLACK
6
CONTINUOUS
10
-0.7120472834645669
20
0.860938779527559
11
-0.7130777165354331
21
0.8614540157480315
0
LINE
8
BLACK
6
CONTINUOUS
10
-0.7130777165354331
20
0.8614540157480315
11
-0.7138325984251969
21
0.8623243700787402
0
LINE
8
BLACK
6
CONTINUOUS
10
-0.7138325984251969
20
0.8623243700787402
11
-0.7140685826771653
21
0.8628529133858267
0
LINE
8
BLACK
6
CONTINUOUS
10
-0.7140685826771653
20
0.8628529133858267
11
-0.7171451181102362
21
0.8720825196850394
0
LINE
8
BLACK
6
CONTINUOUS
10
-0.7171451181102362
20
0.8720825196850394
11
-0.7316362992125984
21
0.8720825196850394
0
LINE
8
BLACK
6
CONTINUOUS
10
-0.7316362992125984
20
0.8720825196850394
11
-0.7347128346456693
21
0.8628529133858267
0
LINE
8
BLACK
6
CONTINUOUS
10
-0.7347128346456693
20
0.8628529133858267
11
-0.7349488188976377
21
0.8623243307086614
0
LINE
8
BLACK
6
CONTINUOUS
10
-0.7349488188976377
20
0.8623243307086614
11
-0.7357037007874015
21
0.8614539763779527
0
LINE
8
BLACK
6
CONTINUOUS
10
-0.7357037007874015
20
0.8614539763779527
11
-0.7367341338582677
21
0.860938779527559
0
LINE
8
BLACK
6
CONTINUOUS
10
-0.7367341338582677
20
0.860938779527559
11
-0.7378833464566928
21
0.8608570866141733
0
LINE
8
BLACK
6
CONTINUOUS
10
-0.7378833464566928
20
0.8608570866141733
11
-0.7389763779527558
21
0.8612214173228346
0
LINE
8
BLACK
6
CONTINUOUS
10
-0.7389763779527558
20
0.8612214173228346
11
-0.7398467322834645
21
0.8619762992125984
0
LINE
8
BLACK
6
CONTINUOUS
10
-0.7398467322834645
20
0.8619762992125984
11
-0.7403619291338582
21
0.8630067322834646
0
LINE
8
BLACK
6
CONTINUOUS
10
-0.7403619291338582
20
0.8630067322834646
11
-0.7404436220472441
21
0.8641559448818897
0
LINE
8
BLACK
6
CONTINUOUS
10
-0.7404436220472441
20
0.8641559448818897
11
-0.7403152755905512
21
0.8647203937007873
0
LINE
8
BLACK
6
CONTINUOUS
10
-0.7403152755905512
20
0.8647203937007873
11
-0.7271919291338582
21
0.9040904724409449
0
LINE
8
BLACK
6
CONTINUOUS
10
-0.7271919291338582
20
0.9040904724409449
11
-0.7269559448818897
21
0.9046190157480315
0
LINE
8
BLACK
6
CONTINUOUS
10
-0.7269559448818897
20
0.9046190157480315
11
-0.7268177559055118
21
0.9047783858267716
0
LINE
8
BLACK
6
CONTINUOUS
10
-0.7268177559055118
20
0.9047783858267716
11
-0.7267233858267717
21
0.9049670866141732
0
LINE
8
BLACK
6
CONTINUOUS
10
-0.7267233858267717
20
0.9049670866141732
11
-0.7264435433070866
21
0.9052098425196851
0
LINE
8
BLACK
6
CONTINUOUS
10
-0.7264435433070866
20
0.9052098425196851
11
-0.7262010629921259
21
0.9054893700787401
0
LINE
8
BLACK
6
CONTINUOUS
10
-0.7262010629921259
20
0.9054893700787401
11
-0.7260125196850393
21
0.9055836614173228
0
LINE
8
BLACK
6
CONTINUOUS
10
-0.7260125196850393
20
0.9055836614173228
11
-0.725853031496063
21
0.9057219685039369
0
LINE
8
BLACK
6
CONTINUOUS
10
-0.725853031496063
20
0.9057219685039369
11
-0.7255016535433071
21
0.905839094488189
0
LINE
8
BLACK
6
CONTINUOUS
10
-0.7255016535433071
20
0.905839094488189
11
-0.7251706299212598
21
0.9060046062992125
0
LINE
8
BLACK
6
CONTINUOUS
10
-0.7251706299212598
20
0.9060046062992125
11
-0.7249602362204725
21
0.9060195669291339
0
LINE
8
BLACK
6
CONTINUOUS
10
-0.7249602362204725
20
0.9060195669291339
11
-0.72476
21
0.9060862992125984
0
LINE
8
BLACK
6
CONTINUOUS
10
-0.72476
20
0.9060862992125984
11
-0.7243907086614173
21
0.9060600787401575
0
LINE
8
BLACK
6
CONTINUOUS
10
-0.7243907086614173
20
0.9060600787401575
11
-0.7240214173228346
21
0.9060862992125984
0
LINE
8
BLACK
6
CONTINUOUS
10
-0.7240214173228346
20
0.9060862992125984
11
-0.7238212204724409
21
0.9060195669291339
0
LINE
8
BLACK
6
CONTINUOUS
10
-0.7296677952755906
20
0.877988031496063
11
-0.719113622047244
21
0.877988031496063
0
LINE
8
BLACK
6
CONTINUOUS
10
-0.719113622047244
20
0.877988031496063
11
-0.7243907086614173
21
0.8938193307086614
0
LINE
8
BLACK
6
CONTINUOUS
10
-0.7243907086614173
20
0.8938193307086614
11
-0.7296677952755906
21
0.877988031496063
0
LINE
8
BLACK
6
CONTINUOUS
10
-0.6608829527559055
20
0.9056118503937007
11
-0.6600683070866141
21
0.9047972047244094
0
LINE
8
BLACK
6
CONTINUOUS
10
-0.6600683070866141
20
0.9047972047244094
11
-0.6596274015748032
21
0.9037327952755906
0
LINE
8
BLACK
6
CONTINUOUS
10
-0.6596274015748032
20
0.9037327952755906
11
-0.6595706692913386
21
0.9031567322834645
0
LINE
8
BLACK
6
CONTINUOUS
10
-0.6595706692913386
20
0.9031567322834645
11
-0.6595706692913386
21
0.8873618503937007
0
LINE
8
BLACK
6
CONTINUOUS
10
-0.6595706692913386
20
0.8873618503937007
11
-0.6429790157480315
21
0.8873618503937007
0
LINE
8
BLACK
6
CONTINUOUS
10
-0.6429790157480315
20
0.8873618503937007
11
-0.6429790157480315
21
0.9031567322834645
0
LINE
8
BLACK
6
CONTINUOUS
10
-0.6429790157480315
20
0.9031567322834645
11
-0.6429222834645669
21
0.9037327952755906
0
LINE
8
BLACK
6
CONTINUOUS
10
-0.6429222834645669
20
0.9037327952755906
11
-0.6424813779527558
21
0.9047972047244094
0
LINE
8
BLACK
6
CONTINUOUS
10
-0.6424813779527558
20
0.9047972047244094
11
-0.6416667322834646
21
0.9056118503937007
0
LINE
8
BLACK
6
CONTINUOUS
10
-0.6416667322834646
20
0.9056118503937007
11
-0.6406023228346457
21
0.9060527559055118
0
LINE
8
BLACK
6
CONTINUOUS
10
-0.6406023228346457
20
0.9060527559055118
11
-0.6394501968503937
21
0.9060527559055118
0
LINE
8
BLACK
6
CONTINUOUS
10
-0.6394501968503937
20
0.9060527559055118
11
-0.6383857874015748
21
0.9056118503937007
0
LINE
8
BLACK
6
CONTINUOUS
10
-0.6383857874015748
20
0.9056118503937007
11
-0.6375711417322835
21
0.9047972047244094
0
LINE
8
BLACK
6
CONTINUOUS
10
-0.6375711417322835
20
0.9047972047244094
11
-0.6371302362204724
21
0.9037327952755906
0
LINE
8
BLACK
6
CONTINUOUS
10
-0.6371302362204724
20
0.9037327952755906
11
-0.6370735039370079
21
0.9031567322834645
0
LINE
8
BLACK
6
CONTINUOUS
10
-0.6370735039370079
20
0.9031567322834645
11
-0.6370735039370079
21
0.8637866535433071
0
LINE
8
BLACK
6
CONTINUOUS
10
-0.6370735039370079
20
0.8637866535433071
11
-0.6371302362204724
21
0.8632105905511811
0
LINE
8
BLACK
6
CONTINUOUS
10
-0.6371302362204724
20
0.8632105905511811
11
-0.6375711417322835
21
0.8621461811023622
0
LINE
8
BLACK
6
CONTINUOUS
10
-0.6375711417322835
20
0.8621461811023622
11
-0.6383857874015748
21
0.8613315354330708
0
LINE
8
BLACK
6
CONTINUOUS
10
-0.6383857874015748
20
0.8613315354330708
11
-0.6394501968503937
21
0.8608906299212599
0
LINE
8
BLACK
6
CONTINUOUS
10
-0.6394501968503937
20
0.8608906299212599
11
-0.6406023228346457
21
0.8608906299212599
0
LINE
8
BLACK
6
CONTINUOUS
10
-0.6406023228346457
20
0.8608906299212599
11
-0.6416667322834646
21
0.8613315354330708
0
LINE
8
BLACK
6
CONTINUOUS
10
-0.6416667322834646
20
0.8613315354330708
11
-0.6424813779527558
21
0.8621461811023622
0
LINE
8
BLACK
6
CONTINUOUS
10
-0.6424813779527558
20
0.8621461811023622
11
-0.6429222834645669
21
0.8632105905511811
0
LINE
8
BLACK
6
CONTINUOUS
10
-0.6429222834645669
20
0.8632105905511811
11
-0.6429790157480315
21
0.8637866535433071
0
LINE
8
BLACK
6
CONTINUOUS
10
-0.6429790157480315
20
0.8637866535433071
11
-0.6429790157480315
21
0.8814563385826771
0
LINE
8
BLACK
6
CONTINUOUS
10
-0.6429790157480315
20
0.8814563385826771
11
-0.6595706692913386
21
0.8814563385826771
0
LINE
8
BLACK
6
CONTINUOUS
10
-0.6595706692913386
20
0.8814563385826771
11
-0.6595706692913386
21
0.8637866535433071
0
LINE
8
BLACK
6
CONTINUOUS
10
-0.6595706692913386
20
0.8637866535433071
11
-0.6596274015748032
21
0.8632105905511811
0
LINE
8
BLACK
6
CONTINUOUS
10
-0.6596274015748032
20
0.8632105905511811
11
-0.6600683070866141
21
0.8621461811023622
0
LINE
8
BLACK
6
CONTINUOUS
10
-0.6600683070866141
20
0.8621461811023622
11
-0.6608829527559055
21
0.8613315354330708
0
LINE
8
BLACK
6
CONTINUOUS
10
-0.6608829527559055
20
0.8613315354330708
11
-0.6619473622047244
21
0.8608906299212599
0
LINE
8
BLACK
6
CONTINUOUS
10
-0.6619473622047244
20
0.8608906299212599
11
-0.6630994881889763
21
0.8608906299212599
0
LINE
8
BLACK
6
CONTINUOUS
10
-0.6630994881889763
20
0.8608906299212599
11
-0.6641638976377953
21
0.8613315354330708
0
LINE
8
BLACK
6
CONTINUOUS
10
-0.6641638976377953
20
0.8613315354330708
11
-0.6649785433070866
21
0.8621461811023622
0
LINE
8
BLACK
6
CONTINUOUS
10
-0.6649785433070866
20
0.8621461811023622
11
-0.6654194488188976
21
0.8632105905511811
0
LINE
8
BLACK
6
CONTINUOUS
10
-0.6654194488188976
20
0.8632105905511811
11
-0.6654761811023622
21
0.8637866535433071
0
LINE
8
BLACK
6
CONTINUOUS
10
-0.6654761811023622
20
0.8637866535433071
11
-0.6654761811023622
21
0.9031567322834645
0
LINE
8
BLACK
6
CONTINUOUS
10
-0.6654761811023622
20
0.9031567322834645
11
-0.6654194488188976
21
0.9037327952755906
0
LINE
8
BLACK
6
CONTINUOUS
10
-0.6654194488188976
20
0.9037327952755906
11
-0.6649785433070866
21
0.9047972047244094
0
LINE
8
BLACK
6
CONTINUOUS
10
-0.6649785433070866
20
0.9047972047244094
11
-0.6641638976377953
21
0.9056118503937007
0
LINE
8
BLACK
6
CONTINUOUS
10
-0.6641638976377953
20
0.9056118503937007
11
-0.6630994881889763
21
0.9060527559055118
0
LINE
8
BLACK
6
CONTINUOUS
10
-0.6630994881889763
20
0.9060527559055118
11
-0.6619473622047244
21
0.9060527559055118
0
LINE
8
BLACK
6
CONTINUOUS
10
-0.6619473622047244
20
0.9060527559055118
11
-0.6608829527559055
21
0.9056118503937007
0
LINE
8
BLACK
6
CONTINUOUS
10
-0.8107682283464567
20
1.6913283858267716
11
-0.8099535433070866
21
1.6905137401574803
0
LINE
8
BLACK
6
CONTINUOUS
10
-0.8099535433070866
20
1.6905137401574803
11
-0.8096970866141732
21
1.6898945275590551
0
LINE
8
BLACK
6
CONTINUOUS
10
-0.8096970866141732
20
1.6898945275590551
11
-0.8095126771653544
21
1.6894493307086613
0
LINE
8
BLACK
6
CONTINUOUS
10
-0.8095126771653544
20
1.6894493307086613
11
-0.8094559448818898
21
1.6888732677165355
0
LINE
8
BLACK
6
CONTINUOUS
10
-0.8094559448818898
20
1.6888732677165355
11
-0.8094559448818898
21
1.6645013385826772
0
LINE
8
BLACK
6
CONTINUOUS
10
-0.8094559448818898
20
1.6645013385826772
11
-0.8095126771653544
21
1.6639252755905511
0
LINE
8
BLACK
6
CONTINUOUS
10
-0.8095126771653544
20
1.6639252755905511
11
-0.8099535826771653
21
1.6628608661417323
0
LINE
8
BLACK
6
CONTINUOUS
10
-0.8099535826771653
20
1.6628608661417323
11
-0.8107682283464567
21
1.6620462204724409
0
LINE
8
BLACK
6
CONTINUOUS
10
-0.8107682283464567
20
1.6620462204724409
11
-0.8118326377952756
21
1.6616053149606298
0
LINE
8
BLACK
6
CONTINUOUS
10
-0.8118326377952756
20
1.6616053149606298
11
-0.8129847637795276
21
1.6616053149606298
0
LINE
8
BLACK
6
CONTINUOUS
10
-0.8129847637795276
20
1.6616053149606298
11
-0.8140491732283465
21
1.6620462204724409
0
LINE
8
BLACK
6
CONTINUOUS
10
-0.8140491732283465
20
1.6620462204724409
11
-0.8148638188976378
21
1.6628608661417323
0
LINE
8
BLACK
6
CONTINUOUS
10
-0.8148638188976378
20
1.6628608661417323
11
-0.8153047244094488
21
1.6639252755905511
0
LINE
8
BLACK
6
CONTINUOUS
10
-0.8153047244094488
20
1.6639252755905511
11
-0.8153614566929134
21
1.6645013385826772
0
LINE
8
BLACK
6
CONTINUOUS
10
-0.8153614566929134
20
1.6645013385826772
11
-0.8153614566929134
21
1.6817447244094488
0
LINE
8
BLACK
6
CONTINUOUS
10
-0.8153614566929134
20
1.6817447244094488
11
-0.8328179921259843
21
1.6642881889763779
0
LINE
8
BLACK
6
CONTINUOUS
10
-0.8328179921259843
20
1.6642881889763779
11
-0.8332654330708661
21
1.6639209842519684
0
LINE
8
BLACK
6
CONTINUOUS
10
-0.8332654330708661
20
1.6639209842519684
11
-0.8333635039370079
21
1.6638803937007873
0
LINE
8
BLACK
6
CONTINUOUS
10
-0.8333635039370079
20
1.6638803937007873
11
-0.8334436220472441
21
1.6638108661417323
0
LINE
8
BLACK
6
CONTINUOUS
10
-0.8334436220472441
20
1.6638108661417323
11
-0.8339721653543307
21
1.6635748818897638
0
LINE
8
BLACK
6
CONTINUOUS
10
-0.8339721653543307
20
1.6635748818897638
11
-0.8395964566929134
21
1.6617001181102362
0
LINE
8
BLACK
6
CONTINUOUS
10
-0.8395964566929134
20
1.6617001181102362
11
-0.8398820472440944
21
1.6616351968503937
0
LINE
8
BLACK
6
CONTINUOUS
10
-0.8398820472440944
20
1.6616351968503937
11
-0.8399541338582677
21
1.6616053149606298
0
LINE
8
BLACK
6
CONTINUOUS
10
-0.8399541338582677
20
1.6616053149606298
11
-0.8400586614173228
21
1.6615950393700787
0
LINE
8
BLACK
6
CONTINUOUS
10
-0.8400586614173228
20
1.6615950393700787
11
-0.840160905511811
21
1.6615717716535432
0
LINE
8
BLACK
6
CONTINUOUS
10
-0.840160905511811
20
1.6615717716535432
11
-0.8402386614173228
21
1.6615773228346455
0
LINE
8
BLACK
6
CONTINUOUS
10
-0.8402386614173228
20
1.6615773228346455
11
-0.8405301968503937
21
1.6615485826771652
0
LINE
8
BLACK
6
CONTINUOUS
10
-0.8405301968503937
20
1.6615485826771652
11
-0.8442797244094488
21
1.6615485826771652
0
LINE
8
BLACK
6
CONTINUOUS
10
-0.8442797244094488
20
1.6615485826771652
11
-0.8448557874015747
21
1.6616053149606298
0
LINE
8
BLACK
6
CONTINUOUS
10
-0.8448557874015747
20
1.6616053149606298
11
-0.844953779527559
21
1.6616459055118109
0
LINE
8
BLACK
6
CONTINUOUS
10
-0.844953779527559
20
1.6616459055118109
11
-0.8450596456692914
21
1.6616534251968504
0
LINE
8
BLACK
6
CONTINUOUS
10
-0.8450596456692914
20
1.6616534251968504
11
-0.8456002362204724
21
1.6618603149606299
0
LINE
8
BLACK
6
CONTINUOUS
10
-0.8456002362204724
20
1.6618603149606299
11
-0.8493497637795275
21
1.6637350787401575
0
LINE
8
BLACK
6
CONTINUOUS
10
-0.8493497637795275
20
1.6637350787401575
11
-0.8495977952755905
21
1.6638911811023622
0
LINE
8
BLACK
6
CONTINUOUS
10
-0.8495977952755905
20
1.6638911811023622
11
-0.8496697244094488
21
1.6639209842519684
0
LINE
8
BLACK
6
CONTINUOUS
10
-0.8496697244094488
20
1.6639209842519684
11
-0.8497507086614173
21
1.6639874803149606
0
LINE
8
BLACK
6
CONTINUOUS
10
-0.8497507086614173
20
1.6639874803149606
11
-0.8498396456692913
21
1.6640434251968503
0
LINE
8
BLACK
6
CONTINUOUS
10
-0.8498396456692913
20
1.6640434251968503
11
-0.8498908267716535
21
1.6641024409448819
0
LINE
8
BLACK
6
CONTINUOUS
10
-0.8498908267716535
20
1.6641024409448819
11
-0.8501171653543307
21
1.6642881889763779
0
LINE
8
BLACK
6
CONTINUOUS
10
-0.8501171653543307
20
1.6642881889763779
11
-0.8519919291338582
21
1.6661629527559054
0
LINE
8
BLACK
6
CONTINUOUS
10
-0.8519919291338582
20
1.6661629527559054
11
-0.8521777165354331
21
1.6663893307086615
0
LINE
8
BLACK
6
CONTINUOUS
10
-0.8521777165354331
20
1.6663893307086615
11
-0.8522366929133858
21
1.666440472440945
0
LINE
8
BLACK
6
CONTINUOUS
10
-0.8522366929133858
20
1.666440472440945
11
-0.8522926771653543
21
1.6665294488188975
0
LINE
8
BLACK
6
CONTINUOUS
10
-0.8522926771653543
20
1.6665294488188975
11
-0.8523591338582677
21
1.6666103937007875
0
LINE
8
BLACK
6
CONTINUOUS
10
-0.8523591338582677
20
1.6666103937007875
11
-0.8523889763779527
21
1.6666823622047244
0
LINE
8
BLACK
6
CONTINUOUS
10
-0.8523889763779527
20
1.6666823622047244
11
-0.8525450393700787
21
1.6669303543307086
0
LINE
8
BLACK
6
CONTINUOUS
10
-0.8525450393700787
20
1.6669303543307086
11
-0.8544198031496063
21
1.6706798818897637
0
LINE
8
BLACK
6
CONTINUOUS
10
-0.8544198031496063
20
1.6706798818897637
11
-0.8546266929133858
21
1.6712205118110235
0
LINE
8
BLACK
6
CONTINUOUS
10
-0.8546266929133858
20
1.6712205118110235
11
-0.8546342125984252
21
1.6713263385826771
0
LINE
8
BLACK
6
CONTINUOUS
10
-0.8546342125984252
20
1.6713263385826771
11
-0.8546748031496063
21
1.6714243307086614
0
LINE
8
BLACK
6
CONTINUOUS
10
-0.8546748031496063
20
1.6714243307086614
11
-0.8547315354330709
21
1.6720003937007875
0
LINE
8
BLACK
6
CONTINUOUS
10
-0.8547315354330709
20
1.6720003937007875
11
-0.8547315354330709
21
1.6813742125984252
0
LINE
8
BLACK
6
CONTINUOUS
10
-0.8547315354330709
20
1.6813742125984252
11
-0.8546748031496063
21
1.6819502755905511
0
LINE
8
BLACK
6
CONTINUOUS
10
-0.8546748031496063
20
1.6819502755905511
11
-0.8546342125984252
21
1.6820483070866141
0
LINE
8
BLACK
6
CONTINUOUS
10
-0.8546342125984252
20
1.6820483070866141
11
-0.8546266929133858
21
1.682154094488189
0
LINE
8
BLACK
6
CONTINUOUS
10
-0.8546266929133858
20
1.682154094488189
11
-0.8544198031496063
21
1.6826947244094488
0
LINE
8
BLACK
6
CONTINUOUS
10
-0.8544198031496063
20
1.6826947244094488
11
-0.8525450393700787
21
1.6864442519685039
0
LINE
8
BLACK
6
CONTINUOUS
10
-0.8525450393700787
20
1.6864442519685039
11
-0.8523889763779527
21
1.6866922834645668
0
LINE
8
BLACK
6
CONTINUOUS
10
-0.8523889763779527
20
1.6866922834645668
11
-0.8523591338582677
21
1.6867642125984252
0
LINE
8
BLACK
6
CONTINUOUS
10
-0.8523591338582677
20
1.6867642125984252
11
-0.8522926771653543
21
1.6868451968503937
0
LINE
8
BLACK
6
CONTINUOUS
10
-0.8522926771653543
20
1.6868451968503937
11
-0.8522366929133858
21
1.6869341338582677
0
LINE
8
BLACK
6
CONTINUOUS
10
-0.8522366929133858
20
1.6869341338582677
11
-0.8521777165354331
21
1.68698531496063
0
LINE
8
BLACK
6
CONTINUOUS
10
-0.8521777165354331
20
1.68698531496063
11
-0.8519919291338582
21
1.687211653543307
0
LINE
8
BLACK
6
CONTINUOUS
10
-0.8519919291338582
20
1.687211653543307
11
-0.8501171653543307
21
1.6890864173228346
0
LINE
8
BLACK
6
CONTINUOUS
10
-0.8501171653543307
20
1.6890864173228346
11
-0.8496697244094488
21
1.689453622047244
0
LINE
8
BLACK
6
CONTINUOUS
10
-0.8496697244094488
20
1.689453622047244
11
-0.8486053149606299
21
1.6898945275590551
0
LINE
8
BLACK
6
CONTINUOUS
10
-0.8486053149606299
20
1.6898945275590551
11
-0.8474532283464566
21
1.6898945275590551
0
LINE
8
BLACK
6
CONTINUOUS
10
-0.8474532283464566
20
1.6898945275590551
11
-0.8463888188976377
21
1.689453622047244
0
LINE
8
BLACK
6
CONTINUOUS
10
-0.8463888188976377
20
1.689453622047244
11
-0.8455741338582677
21
1.688638937007874
0
LINE
8
BLACK
6
CONTINUOUS
10
-0.8455741338582677
20
1.688638937007874
11
-0.8451332283464567
21
1.687574527559055
0
LINE
8
BLACK
6
CONTINUOUS
10
-0.8451332283464567
20
1.687574527559055
11
-0.8451332283464567
21
1.6864224409448818
0
LINE
8
BLACK
6
CONTINUOUS
10
-0.8451332283464567
20
1.6864224409448818
11
-0.8455741338582677
21
1.685358031496063
0
LINE
8
BLACK
6
CONTINUOUS
10
-0.8455741338582677
20
1.685358031496063
11
-0.8459413385826772
21
1.684910590551181
0
LINE
8
BLACK
6
CONTINUOUS
10
-0.8459413385826772
20
1.684910590551181
11
-0.8474772834645669
21
1.6833746456692913
0
LINE
8
BLACK
6
CONTINUOUS
10
-0.8474772834645669
20
1.6833746456692913
11
-0.8488260236220472
21
1.6806771653543306
0
LINE
8
BLACK
6
CONTINUOUS
10
-0.8488260236220472
20
1.6806771653543306
11
-0.8488260236220472
21
1.6726974409448818
0
LINE
8
BLACK
6
CONTINUOUS
10
-0.8488260236220472
20
1.6726974409448818
11
-0.8474772834645669
21
1.6699999606299212
0
LINE
8
BLACK
6
CONTINUOUS
10
-0.8474772834645669
20
1.6699999606299212
11
-0.8462801574803149
21
1.6688028346456694
0
LINE
8
BLACK
6
CONTINUOUS
10
-0.8462801574803149
20
1.6688028346456694
11
-0.8435826771653543
21
1.667454094488189
0
LINE
8
BLACK
6
CONTINUOUS
10
-0.8435826771653543
20
1.667454094488189
11
-0.8410093307086614
21
1.667454094488189
0
LINE
8
BLACK
6
CONTINUOUS
10
-0.8410093307086614
20
1.667454094488189
11
-0.8365009448818898
21
1.6689569291338582
0
LINE
8
BLACK
6
CONTINUOUS
10
-0.8365009448818898
20
1.6689569291338582
11
-0.8144966141732283
21
1.6909611811023622
0
LINE
8
BLACK
6
CONTINUOUS
10
-0.8144966141732283
20
1.6909611811023622
11
-0.8140491732283465
21
1.6913284251968503
0
LINE
8
BLACK
6
CONTINUOUS
10
-0.8140491732283465
20
1.6913284251968503
11
-0.8132965354330709
21
1.6916401968503936
0
LINE
8
BLACK
6
CONTINUOUS
10
-0.8132965354330709
20
1.6916401968503936
11
-0.8129847637795276
21
1.6917692913385827
0
LINE
8
BLACK
6
CONTINUOUS
10
-0.8129847637795276
20
1.6917692913385827
11
-0.8118326377952756
21
1.6917692913385827
0
LINE
8
BLACK
6
CONTINUOUS
10
-0.8118326377952756
20
1.6917692913385827
11
-0.8107682283464567
21
1.6913283858267716
0
LINE
8
BLACK
6
CONTINUOUS
10
-0.8107682283464567
20
1.7213246456692912
11
-0.8099535826771653
21
1.72051
0
LINE
8
BLACK
6
CONTINUOUS
10
-0.8099535826771653
20
1.72051
11
-0.8095126771653544
21
1.719445590551181
0
LINE
8
BLACK
6
CONTINUOUS
10
-0.8095126771653544
20
1.719445590551181
11
-0.8094559448818898
21
1.7188695275590551
0
LINE
8
BLACK
6
CONTINUOUS
10
-0.8094559448818898
20
1.7188695275590551
11
-0.8094559448818898
21
1.71512
0
LINE
8
BLACK
6
CONTINUOUS
10
-0.8094559448818898
20
1.71512
11
-0.8094846850393701
21
1.7148284251968504
0
LINE
8
BLACK
6
CONTINUOUS
10
-0.8094846850393701
20
1.7148284251968504
11
-0.8094791338582678
21
1.7147506692913386
0
LINE
8
BLACK
6
CONTINUOUS
10
-0.8094791338582678
20
1.7147506692913386
11
-0.8095024015748031
21
1.7146484251968503
0
LINE
8
BLACK
6
CONTINUOUS
10
-0.8095024015748031
20
1.7146484251968503
11
-0.8095126771653544
21
1.7145439370078739
0
LINE
8
BLACK
6
CONTINUOUS
10
-0.8095126771653544
20
1.7145439370078739
11
-0.8095425590551181
21
1.7144718897637794
0
LINE
8
BLACK
6
CONTINUOUS
10
-0.8095425590551181
20
1.7144718897637794
11
-0.8096074803149607
21
1.714186220472441
0
LINE
8
BLACK
6
CONTINUOUS
10
-0.8096074803149607
20
1.714186220472441
11
-0.8114822440944882
21
1.708561968503937
0
LINE
8
BLACK
6
CONTINUOUS
10
-0.8114822440944882
20
1.708561968503937
11
-0.8117182283464567
21
1.7080333858267716
0
LINE
8
BLACK
6
CONTINUOUS
10
-0.8117182283464567
20
1.7080333858267716
11
-0.811787716535433
21
1.7079533070866142
0
LINE
8
BLACK
6
CONTINUOUS
10
-0.811787716535433
20
1.7079533070866142
11
-0.8118283070866141
21
1.7078552362204724
0
LINE
8
BLACK
6
CONTINUOUS
10
-0.8118283070866141
20
1.7078552362204724
11
-0.8121955511811023
21
1.7074077952755906
0
LINE
8
BLACK
6
CONTINUOUS
10
-0.8121955511811023
20
1.7074077952755906
11
-0.8159451181102362
21
1.7036582677165355
0
LINE
8
BLACK
6
CONTINUOUS
10
-0.8159451181102362
20
1.7036582677165355
11
-0.8163925984251968
21
1.7032910236220471
0
LINE
8
BLACK
6
CONTINUOUS
10
-0.8163925984251968
20
1.7032910236220471
11
-0.8164906692913385
21
1.7032504330708662
0
LINE
8
BLACK
6
CONTINUOUS
10
-0.8164906692913385
20
1.7032504330708662
11
-0.8165707480314961
21
1.7031809448818898
0
LINE
8
BLACK
6
CONTINUOUS
10
-0.8165707480314961
20
1.7031809448818898
11
-0.8170992913385826
21
1.7029449606299212
0
LINE
8
BLACK
6
CONTINUOUS
10
-0.8170992913385826
20
1.7029449606299212
11
-0.8227235826771654
21
1.7010701968503936
0
LINE
8
BLACK
6
CONTINUOUS
10
-0.8227235826771654
20
1.7010701968503936
11
-0.8230091732283464
21
1.7010052755905511
0
LINE
8
BLACK
6
CONTINUOUS
10
-0.8230091732283464
20
1.7010052755905511
11
-0.8230812598425197
21
1.7009753937007874
0
LINE
8
BLACK
6
CONTINUOUS
10
-0.8230812598425197
20
1.7009753937007874
11
-0.8231857874015748
21
1.7009651181102361
0
LINE
8
BLACK
6
CONTINUOUS
10
-0.8231857874015748
20
1.7009651181102361
11
-0.823288031496063
21
1.7009418503937008
0
LINE
8
BLACK
6
CONTINUOUS
10
-0.823288031496063
20
1.7009418503937008
11
-0.8233657874015747
21
1.7009474015748032
0
LINE
8
BLACK
6
CONTINUOUS
10
-0.8233657874015747
20
1.7009474015748032
11
-0.8236573228346457
21
1.7009186614173228
0
LINE
8
BLACK
6
CONTINUOUS
10
-0.8236573228346457
20
1.7009186614173228
11
-0.851778779527559
21
1.7009186614173228
0
LINE
8
BLACK
6
CONTINUOUS
10
-0.851778779527559
20
1.7009186614173228
11
-0.8523548425196851
21
1.7009753937007874
0
LINE
8
BLACK
6
CONTINUOUS
10
-0.8523548425196851
20
1.7009753937007874
11
-0.8534192519685039
21
1.7014162992125983
0
LINE
8
BLACK
6
CONTINUOUS
10
-0.8534192519685039
20
1.7014162992125983
11
-0.8542338976377952
21
1.7022309448818898
0
LINE
8
BLACK
6
CONTINUOUS
10
-0.8542338976377952
20
1.7022309448818898
11
-0.8546748031496063
21
1.7032953543307086
0
LINE
8
BLACK
6
CONTINUOUS
10
-0.8546748031496063
20
1.7032953543307086
11
-0.8546748031496063
21
1.7044474803149605
0
LINE
8
BLACK
6
CONTINUOUS
10
-0.8546748031496063
20
1.7044474803149605
11
-0.8542338976377952
21
1.7055118897637795
0
LINE
8
BLACK
6
CONTINUOUS
10
-0.8542338976377952
20
1.7055118897637795
11
-0.8534192519685039
21
1.7063265354330708
0
LINE
8
BLACK
6
CONTINUOUS
10
-0.8534192519685039
20
1.7063265354330708
11
-0.8523548425196851
21
1.7067674409448819
0
LINE
8
BLACK
6
CONTINUOUS
10
-0.8523548425196851
20
1.7067674409448819
11
-0.851778779527559
21
1.7068241732283465
0
LINE
8
BLACK
6
CONTINUOUS
10
-0.851778779527559
20
1.7068241732283465
11
-0.8241364566929134
21
1.7068241732283465
0
LINE
8
BLACK
6
CONTINUOUS
10
-0.8241364566929134
20
1.7068241732283465
11
-0.8196280708661418
21
1.7083270078740158
0
LINE
8
BLACK
6
CONTINUOUS
10
-0.8196280708661418
20
1.7083270078740158
11
-0.8168642519685039
21
1.7110907874015748
0
LINE
8
BLACK
6
CONTINUOUS
10
-0.8168642519685039
20
1.7110907874015748
11
-0.8153614566929134
21
1.7155991338582677
0
LINE
8
BLACK
6
CONTINUOUS
10
-0.8153614566929134
20
1.7155991338582677
11
-0.8153614566929134
21
1.7188695275590551
0
LINE
8
BLACK
6
CONTINUOUS
10
-0.8153614566929134
20
1.7188695275590551
11
-0.8153047244094488
21
1.719445590551181
0
LINE
8
BLACK
6
CONTINUOUS
10
-0.8153047244094488
20
1.719445590551181
11
-0.8148638188976378
21
1.72051
0
LINE
8
BLACK
6
CONTINUOUS
10
-0.8148638188976378
20
1.72051
11
-0.8140491732283465
21
1.7213246456692912
0
LINE
8
BLACK
6
CONTINUOUS
10
-0.8140491732283465
20
1.7213246456692912
11
-0.8129847637795276
21
1.7217655511811023
0
LINE
8
BLACK
6
CONTINUOUS
10
-0.8129847637795276
20
1.7217655511811023
11
-0.8118326377952756
21
1.7217655511811023
0
LINE
8
BLACK
6
CONTINUOUS
10
-0.8118326377952756
20
1.7217655511811023
11
-0.8107682283464567
21
1.7213246456692912
0
LINE
8
BLACK
6
CONTINUOUS
10
-0.729561653543307
20
2.4425666929133856
11
-0.7284962992125984
21
2.4415013385826771
0
LINE
8
BLACK
6
CONTINUOUS
10
-0.7284962992125984
20
2.4415013385826771
11
-0.7283464566929134
21
2.4407480314960628
0
LINE
8
BLACK
6
CONTINUOUS
10
-0.7283464566929134
20
2.4407480314960628
11
-0.7283464566929134
21
0.940748031496063
0
LINE
8
BLACK
6
CONTINUOUS
10
-0.7283464566929134
20
0.940748031496063
11
-0.7284962992125984
21
0.9399947244094488
0
LINE
8
BLACK
6
CONTINUOUS
10
-0.7284962992125984
20
0.9399947244094488
11
-0.729561653543307
21
0.9389293700787401
0
LINE
8
BLACK
6
CONTINUOUS
10
-0.729561653543307
20
0.9389293700787401
11
-0.7303149606299213
21
0.9387795275590551
0
LINE
8
BLACK
6
CONTINUOUS
10
-0.7303149606299213
20
0.9387795275590551
11
-0.9303149606299213
21
0.9387795275590551
0
LINE
8
BLACK
6
CONTINUOUS
10
-0.9303149606299213
20
0.9387795275590551
11
-0.9310682677165354
21
0.9389293700787401
0
LINE
8
BLACK
6
CONTINUOUS
10
-0.9310682677165354
20
0.9389293700787401
11
-0.932133622047244
21
0.9399947244094488
0
LINE
8
BLACK
6
CONTINUOUS
10
-0.932133622047244
20
0.9399947244094488
11
-0.9322834645669291
21
0.940748031496063
0
LINE
8
BLACK
6
CONTINUOUS
10
-0.9322834645669291
20
0.940748031496063
11
-0.9322834645669291
21
2.4013779527559054
0
LINE
8
BLACK
6
CONTINUOUS
10
-0.9322834645669291
20
2.4013779527559054
11
-0.932133622047244
21
2.4021312598425197
0
LINE
8
BLACK
6
CONTINUOUS
10
-0.932133622047244
20
2.4021312598425197
11
-0.9317068897637795
21
2.4027698818897636
0
LINE
8
BLACK
6
CONTINUOUS
10
-0.9317068897637795
20
2.4027698818897636
11
-0.8923368110236221
21
2.4421399999999998
0
LINE
8
BLACK
6
CONTINUOUS
10
-0.8923368110236221
20
2.4421399999999998
11
-0.891698188976378
21
2.4425666929133856
0
LINE
8
BLACK
6
CONTINUOUS
10
-0.891698188976378
20
2.4425666929133856
11
-0.8909448818897637
21
2.4427165354330707
0
LINE
8
BLACK
6
CONTINUOUS
10
-0.8909448818897637
20
2.4427165354330707
11
-0.7303149606299213
21
2.4427165354330707
0
LINE
8
BLACK
6
CONTINUOUS
10
-0.7303149606299213
20
2.4427165354330707
11
-0.729561653543307
21
2.4425666929133856
0
LINE
8
BLACK
6
CONTINUOUS
10
-0.8901294881889763
20
2.4387795275590549
11
-0.9283464566929134
21
2.4005625984251968
0
LINE
8
BLACK
6
CONTINUOUS
10
-0.9283464566929134
20
2.4005625984251968
11
-0.9283464566929134
21
0.9427165354330709
0
LINE
8
BLACK
6
CONTINUOUS
10
-0.9283464566929134
20
0.9427165354330709
11
-0.7322834645669292
21
0.9427165354330709
0
LINE
8
BLACK
6
CONTINUOUS
10
-0.7322834645669292
20
0.9427165354330709
11
-0.7322834645669292
21
2.4387795275590549
0
LINE
8
BLACK
6
CONTINUOUS
10
-0.7322834645669292
20
2.4387795275590549
11
-0.8901294881889763
21
2.4387795275590549
0
CIRCLE
8
BLACK
10
-0.3803149606299213
20
3.2884842519685038
40
0.0068897637795276
0
CIRCLE
8
BLACK
10
-0.3661417322834646
20
0.7419291338582678
40
0.0068897637795276
0
CIRCLE
8
BLACK
10
-0.3661417322834646
20
2.6399606299212599
40
0.0068897637795276
0
CIRCLE
8
BLACK
10
-0.1692913385826772
20
1.5151574803149606
40
0.0068897637795276
0
CIRCLE
8
BLACK
10
-0.1692913385826772
20
1.5938976377952756
40
0.0068897637795276
0
CIRCLE
8
BLACK
10
-0.1692913385826772
20
1.6726377952755904
40
0.0068897637795276
0
CIRCLE
8
BLACK
10
-0.1692913385826772
20
1.7513779527559055
40
0.0068897637795276
0
CIRCLE
8
BLACK
10
-0.1692913385826772
20
1.8301181102362205
40
0.0068897637795276
0
CIRCLE
8
BLACK
10
-0.1692913385826772
20
1.9088582677165353
40
0.0068897637795276
0
CIRCLE
8
BLACK
10
-0.2480314960629921
20
1.5151574803149606
40
0.0068897637795276
0
CIRCLE
8
BLACK
10
-0.2480314960629921
20
1.5938976377952756
40
0.0068897637795276
0
CIRCLE
8
BLACK
10
-0.2480314960629921
20
1.6726377952755904
40
0.0068897637795276
0
CIRCLE
8
BLACK
10
-0.2480314960629921
20
1.7513779527559055
40
0.0068897637795276
0
CIRCLE
8
BLACK
10
-0.2480314960629921
20
1.8301181102362205
40
0.0068897637795276
0
CIRCLE
8
BLACK
10
-0.2480314960629921
20
1.9088582677165353
40
0.0068897637795276
0
CIRCLE
8
BLACK
10
-0.3267716535433071
20
1.5151574803149606
40
0.0068897637795276
0
CIRCLE
8
BLACK
10
-0.3267716535433071
20
1.5938976377952756
40
0.0068897637795276
0
CIRCLE
8
BLACK
10
-0.3267716535433071
20
1.6726377952755904
40
0.0068897637795276
0
CIRCLE
8
BLACK
10
-0.3267716535433071
20
1.7513779527559055
40
0.0068897637795276
0
CIRCLE
8
BLACK
10
-0.3267716535433071
20
1.8301181102362205
40
0.0068897637795276
0
CIRCLE
8
BLACK
10
-0.3267716535433071
20
1.9088582677165353
40
0.0068897637795276
0
CIRCLE
8
BLACK
10
-0.405511811023622
20
1.5151574803149606
40
0.0068897637795276
0
CIRCLE
8
BLACK
10
-0.405511811023622
20
1.5938976377952756
40
0.0068897637795276
0
CIRCLE
8
BLACK
10
-0.405511811023622
20
1.6726377952755904
40
0.0068897637795276
0
CIRCLE
8
BLACK
10
-0.405511811023622
20
1.7513779527559055
40
0.0068897637795276
0
CIRCLE
8
BLACK
10
-0.405511811023622
20
1.8301181102362205
40
0.0068897637795276
0
CIRCLE
8
BLACK
10
-0.405511811023622
20
1.9088582677165353
40
0.0068897637795276
0
CIRCLE
8
BLACK
10
-0.484251968503937
20
1.5151574803149606
40
0.0068897637795276
0
CIRCLE
8
BLACK
10
-0.484251968503937
20
1.5938976377952756
40
0.0068897637795276
0
CIRCLE
8
BLACK
10
-0.484251968503937
20
1.6726377952755904
40
0.0068897637795276
0
CIRCLE
8
BLACK
10
-0.484251968503937
20
1.7513779527559055
40
0.0068897637795276
0
CIRCLE
8
BLACK
10
-0.484251968503937
20
1.8301181102362205
40
0.0068897637795276
0
CIRCLE
8
BLACK
10
-0.484251968503937
20
1.9088582677165353
40
0.0068897637795276
0
CIRCLE
8
BLACK
10
-0.562992125984252
20
0.9584645669291338
40
0.0068897637795276
0
CIRCLE
8
BLACK
10
-0.4645669291338583
20
0.9584645669291338
40
0.0068897637795276
0
CIRCLE
8
BLACK
10
-0.3661417322834646
20
0.9584645669291338
40
0.0068897637795276
0
CIRCLE
8
BLACK
10
-0.2677165354330708
20
0.9584645669291338
40
0.0068897637795276
0
CIRCLE
8
BLACK
10
-0.1692913385826772
20
0.9584645669291338
40
0.0068897637795276
0
CIRCLE
8
BLACK
10
-0.562992125984252
20
1.0765748031496063
40
0.0068897637795276
0
CIRCLE
8
BLACK
10
-0.4645669291338583
20
1.0765748031496063
40
0.0068897637795276
0
CIRCLE
8
BLACK
10
-0.3661417322834646
20
1.0765748031496063
40
0.0068897637795276
0
CIRCLE
8
BLACK
10
-0.2677165354330708
20
1.0765748031496063
40
0.0068897637795276
0
CIRCLE
8
BLACK
10
-0.1692913385826772
20
1.0765748031496063
40
0.0068897637795276
0
CIRCLE
8
BLACK
10
-0.562992125984252
20
1.175
40
0.0068897637795276
0
CIRCLE
8
BLACK
10
-0.4645669291338583
20
1.175
40
0.0068897637795276
0
CIRCLE
8
BLACK
10
-0.3661417322834646
20
1.175
40
0.0068897637795276
0
CIRCLE
8
BLACK
10
-0.2677165354330708
20
1.175
40
0.0068897637795276
0
CIRCLE
8
BLACK
10
-0.1692913385826772
20
1.175
40
0.0068897637795276
0
CIRCLE
8
BLACK
10
-0.562992125984252
20
1.2931102362204725
40
0.0068897637795276
0
CIRCLE
8
BLACK
10
-0.4645669291338583
20
1.2931102362204725
40
0.0068897637795276
0
CIRCLE
8
BLACK
10
-0.3661417322834646
20
1.2931102362204725
40
0.0068897637795276
0
CIRCLE
8
BLACK
10
-0.2677165354330708
20
1.2931102362204725
40
0.0068897637795276
0
CIRCLE
8
BLACK
10
-0.1692913385826772
20
1.2931102362204725
40
0.0068897637795276
0
CIRCLE
8
BLACK
10
-0.562992125984252
20
2.0887795275590553
40
0.0068897637795276
0
CIRCLE
8
BLACK
10
-0.4645669291338583
20
2.0887795275590553
40
0.0068897637795276
0
CIRCLE
8
BLACK
10
-0.3661417322834646
20
2.0887795275590553
40
0.0068897637795276
0
CIRCLE
8
BLACK
10
-0.2677165354330708
20
2.0887795275590553
40
0.0068897637795276
0
CIRCLE
8
BLACK
10
-0.1692913385826772
20
2.0887795275590553
40
0.0068897637795276
0
CIRCLE
8
BLACK
10
-0.562992125984252
20
2.2068897637795275
40
0.0068897637795276
0
CIRCLE
8
BLACK
10
-0.4645669291338583
20
2.2068897637795275
40
0.0068897637795276
0
CIRCLE
8
BLACK
10
-0.3661417322834646
20
2.2068897637795275
40
0.0068897637795276
0
CIRCLE
8
BLACK
10
-0.2677165354330708
20
2.2068897637795275
40
0.0068897637795276
0
CIRCLE
8
BLACK
10
-0.1692913385826772
20
2.2068897637795275
40
0.0068897637795276
0
CIRCLE
8
BLACK
10
-0.562992125984252
20
2.305314960629921
40
0.0068897637795276
0
CIRCLE
8
BLACK
10
-0.4645669291338583
20
2.305314960629921
40
0.0068897637795276
0
CIRCLE
8
BLACK
10
-0.3661417322834646
20
2.305314960629921
40
0.0068897637795276
0
CIRCLE
8
BLACK
10
-0.2677165354330708
20
2.305314960629921
40
0.0068897637795276
0
CIRCLE
8
BLACK
10
-0.1692913385826772
20
2.305314960629921
40
0.0068897637795276
0
CIRCLE
8
BLACK
10
-0.562992125984252
20
2.4234251968503937
40
0.0068897637795276
0
CIRCLE
8
BLACK
10
-0.4645669291338583
20
2.4234251968503937
40
0.0068897637795276
0
CIRCLE
8
BLACK
10
-0.3661417322834646
20
2.4234251968503937
40
0.0068897637795276
0
CIRCLE
8
BLACK
10
-0.2677165354330708
20
2.4234251968503937
40
0.0068897637795276
0
CIRCLE
8
BLACK
10
-0.1692913385826772
20
2.4234251968503937
40
0.0068897637795276
0
CIRCLE
8
BLACK
10
-0.7803149606299212
20
2.8884842519685039
40
0.0068897637795276
0
CIRCLE
8
BLACK
10
-0.3803149606299213
20
0.0884842519685039
40
0.0068897637795276
0
CIRCLE
8
BLACK
10
-0.7803149606299212
20
0.4884842519685039
40
0.0068897637795276
0
CIRCLE
8
BLACK
10
-0.8803149606299212
20
2.390748031496063
40
0.0068897637795276
0
CIRCLE
8
BLACK
10
-0.7803149606299212
20
2.390748031496063
40
0.0068897637795276
0
CIRCLE
8
BLACK
10
-0.8803149606299212
20
2.2907480314960629
40
0.0068897637795276
0
CIRCLE
8
BLACK
10
-0.7803149606299212
20
2.2907480314960629
40
0.0068897637795276
0
CIRCLE
8
BLACK
10
-0.8803149606299212
20
2.1907480314960628
40
0.0068897637795276
0
CIRCLE
8
BLACK
10
-0.7803149606299212
20
2.1907480314960628
40
0.0068897637795276
0
CIRCLE
8
BLACK
10
-0.8803149606299212
20
2.0907480314960631
40
0.0068897637795276
0
CIRCLE
8
BLACK
10
-0.7803149606299212
20
2.0907480314960631
40
0.0068897637795276
0
CIRCLE
8
BLACK
10
-0.8803149606299212
20
1.9907480314960631
40
0.0068897637795276
0
CIRCLE
8
BLACK
10
-0.7803149606299212
20
1.9907480314960631
40
0.0068897637795276
0
CIRCLE
8
BLACK
10
-0.8803149606299212
20
1.890748031496063
40
0.0068897637795276
0
CIRCLE
8
BLACK
10
-0.7803149606299212
20
1.890748031496063
40
0.0068897637795276
0
CIRCLE
8
BLACK
10
-0.8803149606299212
20
1.7907480314960629
40
0.0068897637795276
0
CIRCLE
8
BLACK
10
-0.7803149606299212
20
1.7907480314960629
40
0.0068897637795276
0
CIRCLE
8
BLACK
10
-0.8803149606299212
20
1.690748031496063
40
0.0068897637795276
0
CIRCLE
8
BLACK
10
-0.7803149606299212
20
1.690748031496063
40
0.0068897637795276
0
CIRCLE
8
BLACK
10
-0.8803149606299212
20
1.5907480314960629
40
0.0068897637795276
0
CIRCLE
8
BLACK
10
-0.7803149606299212
20
1.5907480314960629
40
0.0068897637795276
0
CIRCLE
8
BLACK
10
-0.8803149606299212
20
1.4907480314960631
40
0.0068897637795276
0
CIRCLE
8
BLACK
10
-0.7803149606299212
20
1.4907480314960631
40
0.0068897637795276
0
CIRCLE
8
BLACK
10
-0.8803149606299212
20
1.390748031496063
40
0.0068897637795276
0
CIRCLE
8
BLACK
10
-0.7803149606299212
20
1.390748031496063
40
0.0068897637795276
0
CIRCLE
8
BLACK
10
-0.8803149606299212
20
1.2907480314960629
40
0.0068897637795276
0
CIRCLE
8
BLACK
10
-0.7803149606299212
20
1.2907480314960629
40
0.0068897637795276
0
CIRCLE
8
BLACK
10
-0.8803149606299212
20
1.190748031496063
40
0.0068897637795276
0
CIRCLE
8
BLACK
10
-0.7803149606299212
20
1.190748031496063
40
0.0068897637795276
0
CIRCLE
8
BLACK
10
-0.8803149606299212
20
1.0907480314960629
40
0.0068897637795276
0
CIRCLE
8
BLACK
10
-0.7803149606299212
20
1.0907480314960629
40
0.0068897637795276
0
CIRCLE
8
BLACK
10
-0.8803149606299212
20
0.9907480314960629
40
0.0068897637795276
0
CIRCLE
8
BLACK
10
-0.7803149606299212
20
0.9907480314960629
40
0.0068897637795276
  0
ENDSEC
  0
EOF
