  0
SECTION
  2
HEADER
  9
$ANGBASE
  50
0.0
  9
$ANGDIR
  70
1
  9
$MEASUREMENT
  70
0
  0
ENDSEC
  0
SECTION
  2
TABLES
  0
TABLE
  2
LTYPE
  70
4
  0
LTYPE
  5
40F
  2
CONTINUOUS
  70
0
  3
Solid line
  72
65
  73
0
  40
0.0
  0
LTYPE
  5
410
  2
DASHDOT
 70
0
  3
Dash Dot ____ _ ____ _
 72
65
 73
4
 40
2.0
 49
1.25
 49
-0.25
 49
0.25
 49
-0.25
  0
LTYPE
  5
411
  2
DASHED
 70
0
  3
Dashed __ __ __ __ __
 72
65
 73
2
 40
0.75
 49
0.5
 49
-0.25
  0
LTYPE
  5
43B
  2
DOTTED
 70
0
  3
Dotted .  .  .  .
 72
65
 73
2
 40
0.2
 49
0.0
 49
-0.2
  0
ENDTAB
  0
TABLE
  2
STYLE
  70
4
  0
STYLE
  2
KICAD
  70
0
  40
0
  41
1
  42
1
  50
0
  71
0
  3
isocp.shx
  0
STYLE
  2
KICADB
  70
0
  40
0
  41
1
  42
1
  50
0
  71
0
  3
isocp.shx
  0
STYLE
  2
KICADI
  70
0
  40
0
  41
1
  42
1
  50
15
  71
0
  3
isocp.shx
  0
STYLE
  2
KICADBI
  70
0
  40
0
  41
1
  42
1
  50
15
  71
0
  3
isocp.shx
  0
ENDTAB
  0
TABLE
  2
LAYER
  70
1
  0
LAYER
  2
BLACK
  70
0
  62
7
  6
CONTINUOUS
  0
ENDTAB
  0
ENDSEC
  0
SECTION
  2
ENTITIES
0
LINE
8
BLACK
6
CONTINUOUS
10
-0.413956
20
0.370136
11
-0.410842
21
0.368055
0
LINE
8
BLACK
6
CONTINUOUS
10
-0.410842
20
0.368055
11
-0.408762
21
0.364942
0
LINE
8
BLACK
6
CONTINUOUS
10
-0.408762
20
0.364942
11
-0.408031
21
0.36127
0
LINE
8
BLACK
6
CONTINUOUS
10
-0.408031
20
0.36127
11
-0.408031
21
0.325344
0
LINE
8
BLACK
6
CONTINUOUS
10
-0.408031
20
0.325344
11
-0.408762
21
0.321672
0
LINE
8
BLACK
6
CONTINUOUS
10
-0.408762
20
0.321672
11
-0.410842
21
0.318559
0
LINE
8
BLACK
6
CONTINUOUS
10
-0.410842
20
0.318559
11
-0.413956
21
0.316479
0
LINE
8
BLACK
6
CONTINUOUS
10
-0.413956
20
0.316479
11
-0.417628
21
0.315748
0
LINE
8
BLACK
6
CONTINUOUS
10
-0.417628
20
0.315748
11
-0.436821
21
0.315748
0
LINE
8
BLACK
6
CONTINUOUS
10
-0.436821
20
0.315748
11
-0.440493
21
0.316479
0
LINE
8
BLACK
6
CONTINUOUS
10
-0.440493
20
0.316479
11
-0.443607
21
0.318559
0
LINE
8
BLACK
6
CONTINUOUS
10
-0.443607
20
0.318559
11
-0.445687
21
0.321672
0
LINE
8
BLACK
6
CONTINUOUS
10
-0.445687
20
0.321672
11
-0.446417
21
0.325344
0
LINE
8
BLACK
6
CONTINUOUS
10
-0.446417
20
0.325344
11
-0.446417
21
0.36127
0
LINE
8
BLACK
6
CONTINUOUS
10
-0.446417
20
0.36127
11
-0.445687
21
0.364942
0
LINE
8
BLACK
6
CONTINUOUS
10
-0.445687
20
0.364942
11
-0.443607
21
0.368055
0
LINE
8
BLACK
6
CONTINUOUS
10
-0.443607
20
0.368055
11
-0.440493
21
0.370136
0
LINE
8
BLACK
6
CONTINUOUS
10
-0.440493
20
0.370136
11
-0.436821
21
0.370866
0
LINE
8
BLACK
6
CONTINUOUS
10
-0.436821
20
0.370866
11
-0.417628
21
0.370866
0
LINE
8
BLACK
6
CONTINUOUS
10
-0.417628
20
0.370866
11
-0.413956
21
0.370136
0
LINE
8
BLACK
6
CONTINUOUS
10
-0.340137
20
0.370136
11
-0.337023
21
0.368055
0
LINE
8
BLACK
6
CONTINUOUS
10
-0.337023
20
0.368055
11
-0.334943
21
0.364942
0
LINE
8
BLACK
6
CONTINUOUS
10
-0.334943
20
0.364942
11
-0.334213
21
0.36127
0
LINE
8
BLACK
6
CONTINUOUS
10
-0.334213
20
0.36127
11
-0.334213
21
0.325344
0
LINE
8
BLACK
6
CONTINUOUS
10
-0.334213
20
0.325344
11
-0.334943
21
0.321672
0
LINE
8
BLACK
6
CONTINUOUS
10
-0.334943
20
0.321672
11
-0.337023
21
0.318559
0
LINE
8
BLACK
6
CONTINUOUS
10
-0.337023
20
0.318559
11
-0.340137
21
0.316479
0
LINE
8
BLACK
6
CONTINUOUS
10
-0.340137
20
0.316479
11
-0.343809
21
0.315748
0
LINE
8
BLACK
6
CONTINUOUS
10
-0.343809
20
0.315748
11
-0.363002
21
0.315748
0
LINE
8
BLACK
6
CONTINUOUS
10
-0.363002
20
0.315748
11
-0.366674
21
0.316479
0
LINE
8
BLACK
6
CONTINUOUS
10
-0.366674
20
0.316479
11
-0.369788
21
0.318559
0
LINE
8
BLACK
6
CONTINUOUS
10
-0.369788
20
0.318559
11
-0.371868
21
0.321672
0
LINE
8
BLACK
6
CONTINUOUS
10
-0.371868
20
0.321672
11
-0.372598
21
0.325344
0
LINE
8
BLACK
6
CONTINUOUS
10
-0.372598
20
0.325344
11
-0.372598
21
0.36127
0
LINE
8
BLACK
6
CONTINUOUS
10
-0.372598
20
0.36127
11
-0.371868
21
0.364942
0
LINE
8
BLACK
6
CONTINUOUS
10
-0.371868
20
0.364942
11
-0.369788
21
0.368055
0
LINE
8
BLACK
6
CONTINUOUS
10
-0.369788
20
0.368055
11
-0.366674
21
0.370136
0
LINE
8
BLACK
6
CONTINUOUS
10
-0.366674
20
0.370136
11
-0.363002
21
0.370866
0
LINE
8
BLACK
6
CONTINUOUS
10
-0.363002
20
0.370866
11
-0.343809
21
0.370866
0
LINE
8
BLACK
6
CONTINUOUS
10
-0.343809
20
0.370866
11
-0.340137
21
0.370136
0
LINE
8
BLACK
6
CONTINUOUS
10
-0.274836
20
0.371495
11
-0.271643
21
0.369361
0
LINE
8
BLACK
6
CONTINUOUS
10
-0.271643
20
0.369361
11
-0.269509
21
0.366168
0
LINE
8
BLACK
6
CONTINUOUS
10
-0.269509
20
0.366168
11
-0.26876
21
0.362402
0
LINE
8
BLACK
6
CONTINUOUS
10
-0.26876
20
0.362402
11
-0.26876
21
0.326969
0
LINE
8
BLACK
6
CONTINUOUS
10
-0.26876
20
0.326969
11
-0.269509
21
0.323202
0
LINE
8
BLACK
6
CONTINUOUS
10
-0.269509
20
0.323202
11
-0.271643
21
0.320009
0
LINE
8
BLACK
6
CONTINUOUS
10
-0.271643
20
0.320009
11
-0.274836
21
0.317875
0
LINE
8
BLACK
6
CONTINUOUS
10
-0.274836
20
0.317875
11
-0.278602
21
0.317126
0
LINE
8
BLACK
6
CONTINUOUS
10
-0.278602
20
0.317126
11
-0.299272
21
0.317126
0
LINE
8
BLACK
6
CONTINUOUS
10
-0.299272
20
0.317126
11
-0.303038
21
0.317875
0
LINE
8
BLACK
6
CONTINUOUS
10
-0.303038
20
0.317875
11
-0.306231
21
0.320009
0
LINE
8
BLACK
6
CONTINUOUS
10
-0.306231
20
0.320009
11
-0.308365
21
0.323202
0
LINE
8
BLACK
6
CONTINUOUS
10
-0.308365
20
0.323202
11
-0.309114
21
0.326969
0
LINE
8
BLACK
6
CONTINUOUS
10
-0.309114
20
0.326969
11
-0.309114
21
0.362402
0
LINE
8
BLACK
6
CONTINUOUS
10
-0.309114
20
0.362402
11
-0.308365
21
0.366168
0
LINE
8
BLACK
6
CONTINUOUS
10
-0.308365
20
0.366168
11
-0.306231
21
0.369361
0
LINE
8
BLACK
6
CONTINUOUS
10
-0.306231
20
0.369361
11
-0.303038
21
0.371495
0
LINE
8
BLACK
6
CONTINUOUS
10
-0.303038
20
0.371495
11
-0.299272
21
0.372244
0
LINE
8
BLACK
6
CONTINUOUS
10
-0.299272
20
0.372244
11
-0.278602
21
0.372244
0
LINE
8
BLACK
6
CONTINUOUS
10
-0.278602
20
0.372244
11
-0.274836
21
0.371495
0
LINE
8
BLACK
6
CONTINUOUS
10
-0.202985
20
0.371495
11
-0.199792
21
0.369361
0
LINE
8
BLACK
6
CONTINUOUS
10
-0.199792
20
0.369361
11
-0.197659
21
0.366168
0
LINE
8
BLACK
6
CONTINUOUS
10
-0.197659
20
0.366168
11
-0.196909
21
0.362402
0
LINE
8
BLACK
6
CONTINUOUS
10
-0.196909
20
0.362402
11
-0.196909
21
0.326969
0
LINE
8
BLACK
6
CONTINUOUS
10
-0.196909
20
0.326969
11
-0.197659
21
0.323202
0
LINE
8
BLACK
6
CONTINUOUS
10
-0.197659
20
0.323202
11
-0.199792
21
0.320009
0
LINE
8
BLACK
6
CONTINUOUS
10
-0.199792
20
0.320009
11
-0.202985
21
0.317875
0
LINE
8
BLACK
6
CONTINUOUS
10
-0.202985
20
0.317875
11
-0.206752
21
0.317126
0
LINE
8
BLACK
6
CONTINUOUS
10
-0.206752
20
0.317126
11
-0.227421
21
0.317126
0
LINE
8
BLACK
6
CONTINUOUS
10
-0.227421
20
0.317126
11
-0.231188
21
0.317875
0
LINE
8
BLACK
6
CONTINUOUS
10
-0.231188
20
0.317875
11
-0.234381
21
0.320009
0
LINE
8
BLACK
6
CONTINUOUS
10
-0.234381
20
0.320009
11
-0.236515
21
0.323202
0
LINE
8
BLACK
6
CONTINUOUS
10
-0.236515
20
0.323202
11
-0.237264
21
0.326969
0
LINE
8
BLACK
6
CONTINUOUS
10
-0.237264
20
0.326969
11
-0.237264
21
0.362402
0
LINE
8
BLACK
6
CONTINUOUS
10
-0.237264
20
0.362402
11
-0.236515
21
0.366168
0
LINE
8
BLACK
6
CONTINUOUS
10
-0.236515
20
0.366168
11
-0.234381
21
0.369361
0
LINE
8
BLACK
6
CONTINUOUS
10
-0.234381
20
0.369361
11
-0.231188
21
0.371495
0
LINE
8
BLACK
6
CONTINUOUS
10
-0.231188
20
0.371495
11
-0.227421
21
0.372244
0
LINE
8
BLACK
6
CONTINUOUS
10
-0.227421
20
0.372244
11
-0.206752
21
0.372244
0
LINE
8
BLACK
6
CONTINUOUS
10
-0.206752
20
0.372244
11
-0.202985
21
0.371495
0
LINE
8
BLACK
6
CONTINUOUS
10
-0.413956
20
0.489821
11
-0.410842
21
0.48774
0
LINE
8
BLACK
6
CONTINUOUS
10
-0.410842
20
0.48774
11
-0.408762
21
0.484627
0
LINE
8
BLACK
6
CONTINUOUS
10
-0.408762
20
0.484627
11
-0.408031
21
0.480955
0
LINE
8
BLACK
6
CONTINUOUS
10
-0.408031
20
0.480955
11
-0.408031
21
0.44503
0
LINE
8
BLACK
6
CONTINUOUS
10
-0.408031
20
0.44503
11
-0.408762
21
0.441357
0
LINE
8
BLACK
6
CONTINUOUS
10
-0.408762
20
0.441357
11
-0.410842
21
0.438244
0
LINE
8
BLACK
6
CONTINUOUS
10
-0.410842
20
0.438244
11
-0.413956
21
0.436164
0
LINE
8
BLACK
6
CONTINUOUS
10
-0.413956
20
0.436164
11
-0.417628
21
0.435433
0
LINE
8
BLACK
6
CONTINUOUS
10
-0.417628
20
0.435433
11
-0.436821
21
0.435433
0
LINE
8
BLACK
6
CONTINUOUS
10
-0.436821
20
0.435433
11
-0.440493
21
0.436164
0
LINE
8
BLACK
6
CONTINUOUS
10
-0.440493
20
0.436164
11
-0.443607
21
0.438244
0
LINE
8
BLACK
6
CONTINUOUS
10
-0.443607
20
0.438244
11
-0.445687
21
0.441357
0
LINE
8
BLACK
6
CONTINUOUS
10
-0.445687
20
0.441357
11
-0.446417
21
0.44503
0
LINE
8
BLACK
6
CONTINUOUS
10
-0.446417
20
0.44503
11
-0.446417
21
0.480955
0
LINE
8
BLACK
6
CONTINUOUS
10
-0.446417
20
0.480955
11
-0.445687
21
0.484627
0
LINE
8
BLACK
6
CONTINUOUS
10
-0.445687
20
0.484627
11
-0.443607
21
0.48774
0
LINE
8
BLACK
6
CONTINUOUS
10
-0.443607
20
0.48774
11
-0.440493
21
0.489821
0
LINE
8
BLACK
6
CONTINUOUS
10
-0.440493
20
0.489821
11
-0.436821
21
0.490551
0
LINE
8
BLACK
6
CONTINUOUS
10
-0.436821
20
0.490551
11
-0.417628
21
0.490551
0
LINE
8
BLACK
6
CONTINUOUS
10
-0.417628
20
0.490551
11
-0.413956
21
0.489821
0
LINE
8
BLACK
6
CONTINUOUS
10
-0.340137
20
0.489821
11
-0.337023
21
0.48774
0
LINE
8
BLACK
6
CONTINUOUS
10
-0.337023
20
0.48774
11
-0.334943
21
0.484627
0
LINE
8
BLACK
6
CONTINUOUS
10
-0.334943
20
0.484627
11
-0.334213
21
0.480955
0
LINE
8
BLACK
6
CONTINUOUS
10
-0.334213
20
0.480955
11
-0.334213
21
0.44503
0
LINE
8
BLACK
6
CONTINUOUS
10
-0.334213
20
0.44503
11
-0.334943
21
0.441357
0
LINE
8
BLACK
6
CONTINUOUS
10
-0.334943
20
0.441357
11
-0.337023
21
0.438244
0
LINE
8
BLACK
6
CONTINUOUS
10
-0.337023
20
0.438244
11
-0.340137
21
0.436164
0
LINE
8
BLACK
6
CONTINUOUS
10
-0.340137
20
0.436164
11
-0.343809
21
0.435433
0
LINE
8
BLACK
6
CONTINUOUS
10
-0.343809
20
0.435433
11
-0.363002
21
0.435433
0
LINE
8
BLACK
6
CONTINUOUS
10
-0.363002
20
0.435433
11
-0.366674
21
0.436164
0
LINE
8
BLACK
6
CONTINUOUS
10
-0.366674
20
0.436164
11
-0.369788
21
0.438244
0
LINE
8
BLACK
6
CONTINUOUS
10
-0.369788
20
0.438244
11
-0.371868
21
0.441357
0
LINE
8
BLACK
6
CONTINUOUS
10
-0.371868
20
0.441357
11
-0.372598
21
0.44503
0
LINE
8
BLACK
6
CONTINUOUS
10
-0.372598
20
0.44503
11
-0.372598
21
0.480955
0
LINE
8
BLACK
6
CONTINUOUS
10
-0.372598
20
0.480955
11
-0.371868
21
0.484627
0
LINE
8
BLACK
6
CONTINUOUS
10
-0.371868
20
0.484627
11
-0.369788
21
0.48774
0
LINE
8
BLACK
6
CONTINUOUS
10
-0.369788
20
0.48774
11
-0.366674
21
0.489821
0
LINE
8
BLACK
6
CONTINUOUS
10
-0.366674
20
0.489821
11
-0.363002
21
0.490551
0
LINE
8
BLACK
6
CONTINUOUS
10
-0.363002
20
0.490551
11
-0.343809
21
0.490551
0
LINE
8
BLACK
6
CONTINUOUS
10
-0.343809
20
0.490551
11
-0.340137
21
0.489821
0
LINE
8
BLACK
6
CONTINUOUS
10
-0.274836
20
0.491574
11
-0.271643
21
0.48944
0
LINE
8
BLACK
6
CONTINUOUS
10
-0.271643
20
0.48944
11
-0.269509
21
0.486247
0
LINE
8
BLACK
6
CONTINUOUS
10
-0.269509
20
0.486247
11
-0.26876
21
0.48248
0
LINE
8
BLACK
6
CONTINUOUS
10
-0.26876
20
0.48248
11
-0.26876
21
0.447047
0
LINE
8
BLACK
6
CONTINUOUS
10
-0.26876
20
0.447047
11
-0.269509
21
0.443281
0
LINE
8
BLACK
6
CONTINUOUS
10
-0.269509
20
0.443281
11
-0.271643
21
0.440088
0
LINE
8
BLACK
6
CONTINUOUS
10
-0.271643
20
0.440088
11
-0.274836
21
0.437954
0
LINE
8
BLACK
6
CONTINUOUS
10
-0.274836
20
0.437954
11
-0.278602
21
0.437205
0
LINE
8
BLACK
6
CONTINUOUS
10
-0.278602
20
0.437205
11
-0.299272
21
0.437205
0
LINE
8
BLACK
6
CONTINUOUS
10
-0.299272
20
0.437205
11
-0.303038
21
0.437954
0
LINE
8
BLACK
6
CONTINUOUS
10
-0.303038
20
0.437954
11
-0.306231
21
0.440088
0
LINE
8
BLACK
6
CONTINUOUS
10
-0.306231
20
0.440088
11
-0.308365
21
0.443281
0
LINE
8
BLACK
6
CONTINUOUS
10
-0.308365
20
0.443281
11
-0.309114
21
0.447047
0
LINE
8
BLACK
6
CONTINUOUS
10
-0.309114
20
0.447047
11
-0.309114
21
0.48248
0
LINE
8
BLACK
6
CONTINUOUS
10
-0.309114
20
0.48248
11
-0.308365
21
0.486247
0
LINE
8
BLACK
6
CONTINUOUS
10
-0.308365
20
0.486247
11
-0.306231
21
0.48944
0
LINE
8
BLACK
6
CONTINUOUS
10
-0.306231
20
0.48944
11
-0.303038
21
0.491574
0
LINE
8
BLACK
6
CONTINUOUS
10
-0.303038
20
0.491574
11
-0.299272
21
0.492323
0
LINE
8
BLACK
6
CONTINUOUS
10
-0.299272
20
0.492323
11
-0.278602
21
0.492323
0
LINE
8
BLACK
6
CONTINUOUS
10
-0.278602
20
0.492323
11
-0.274836
21
0.491574
0
LINE
8
BLACK
6
CONTINUOUS
10
-0.202985
20
0.491574
11
-0.199792
21
0.48944
0
LINE
8
BLACK
6
CONTINUOUS
10
-0.199792
20
0.48944
11
-0.197659
21
0.486247
0
LINE
8
BLACK
6
CONTINUOUS
10
-0.197659
20
0.486247
11
-0.196909
21
0.48248
0
LINE
8
BLACK
6
CONTINUOUS
10
-0.196909
20
0.48248
11
-0.196909
21
0.447047
0
LINE
8
BLACK
6
CONTINUOUS
10
-0.196909
20
0.447047
11
-0.197659
21
0.443281
0
LINE
8
BLACK
6
CONTINUOUS
10
-0.197659
20
0.443281
11
-0.199792
21
0.440088
0
LINE
8
BLACK
6
CONTINUOUS
10
-0.199792
20
0.440088
11
-0.202985
21
0.437954
0
LINE
8
BLACK
6
CONTINUOUS
10
-0.202985
20
0.437954
11
-0.206752
21
0.437205
0
LINE
8
BLACK
6
CONTINUOUS
10
-0.206752
20
0.437205
11
-0.227421
21
0.437205
0
LINE
8
BLACK
6
CONTINUOUS
10
-0.227421
20
0.437205
11
-0.231188
21
0.437954
0
LINE
8
BLACK
6
CONTINUOUS
10
-0.231188
20
0.437954
11
-0.234381
21
0.440088
0
LINE
8
BLACK
6
CONTINUOUS
10
-0.234381
20
0.440088
11
-0.236515
21
0.443281
0
LINE
8
BLACK
6
CONTINUOUS
10
-0.236515
20
0.443281
11
-0.237264
21
0.447047
0
LINE
8
BLACK
6
CONTINUOUS
10
-0.237264
20
0.447047
11
-0.237264
21
0.48248
0
LINE
8
BLACK
6
CONTINUOUS
10
-0.237264
20
0.48248
11
-0.236515
21
0.486247
0
LINE
8
BLACK
6
CONTINUOUS
10
-0.236515
20
0.486247
11
-0.234381
21
0.48944
0
LINE
8
BLACK
6
CONTINUOUS
10
-0.234381
20
0.48944
11
-0.231188
21
0.491574
0
LINE
8
BLACK
6
CONTINUOUS
10
-0.231188
20
0.491574
11
-0.227421
21
0.492323
0
LINE
8
BLACK
6
CONTINUOUS
10
-0.227421
20
0.492323
11
-0.206752
21
0.492323
0
LINE
8
BLACK
6
CONTINUOUS
10
-0.206752
20
0.492323
11
-0.202985
21
0.491574
  0
ENDSEC
  0
EOF
