  0
SECTION
  2
HEADER
  9
$ANGBASE
  50
0.0
  9
$ANGDIR
  70
1
  9
$MEASUREMENT
  70
0
  0
ENDSEC
  0
SECTION
  2
TABLES
  0
TABLE
  2
LTYPE
  70
4
  0
LTYPE
  5
40F
  2
CONTINUOUS
  70
0
  3
Solid line
  72
65
  73
0
  40
0.0
  0
LTYPE
  5
410
  2
DASHDOT
 70
0
  3
Dash Dot ____ _ ____ _
 72
65
 73
4
 40
2.0
 49
1.25
 49
-0.25
 49
0.25
 49
-0.25
  0
LTYPE
  5
411
  2
DASHED
 70
0
  3
Dashed __ __ __ __ __
 72
65
 73
2
 40
0.75
 49
0.5
 49
-0.25
  0
LTYPE
  5
43B
  2
DOTTED
 70
0
  3
Dotted .  .  .  .
 72
65
 73
2
 40
0.2
 49
0.0
 49
-0.2
  0
ENDTAB
  0
TABLE
  2
STYLE
  70
4
  0
STYLE
  2
KICAD
  70
0
  40
0
  41
1
  42
1
  50
0
  71
0
  3
isocp.shx
  0
STYLE
  2
KICADB
  70
0
  40
0
  41
1
  42
1
  50
0
  71
0
  3
isocp.shx
  0
STYLE
  2
KICADI
  70
0
  40
0
  41
1
  42
1
  50
15
  71
0
  3
isocp.shx
  0
STYLE
  2
KICADBI
  70
0
  40
0
  41
1
  42
1
  50
15
  71
0
  3
isocp.shx
  0
ENDTAB
  0
TABLE
  2
LAYER
  70
1
  0
LAYER
  2
BLACK
  70
0
  62
7
  6
CONTINUOUS
  0
ENDTAB
  0
ENDSEC
  0
SECTION
  2
ENTITIES
0
LINE
8
BLACK
6
CONTINUOUS
10
0.0780109448818898
20
3.4141072834645669
11
0.0781461811023622
21
3.4139938188976378
0
LINE
8
BLACK
6
CONTINUOUS
10
0.0781461811023622
20
3.4139938188976378
11
0.0783215354330709
21
3.4139736220472439
0
LINE
8
BLACK
6
CONTINUOUS
10
0.0783215354330709
20
3.4139736220472439
11
0.082071062992126
21
3.4120988582677163
0
LINE
8
BLACK
6
CONTINUOUS
10
0.082071062992126
20
3.4120988582677163
11
0.0827801181102362
21
3.4115729527559053
0
LINE
8
BLACK
6
CONTINUOUS
10
0.0827801181102362
20
3.4115729527559053
11
0.0828384645669291
21
3.4115457480314961
0
LINE
8
BLACK
6
CONTINUOUS
10
0.0828384645669291
20
3.4115457480314961
11
0.0847132283464567
21
3.4096709842519686
0
LINE
8
BLACK
6
CONTINUOUS
10
0.0847132283464567
20
3.4096709842519686
11
0.0852194881889764
21
3.4089479133858265
0
LINE
8
BLACK
6
CONTINUOUS
10
0.0852194881889764
20
3.4089479133858265
11
0.0852663385826772
21
3.4089035826771652
0
LINE
8
BLACK
6
CONTINUOUS
10
0.0852663385826772
20
3.4089035826771652
11
0.0871411023622047
21
3.4051540551181101
0
LINE
8
BLACK
6
CONTINUOUS
10
0.0871411023622047
20
3.4051540551181101
11
0.0874334645669291
21
3.4041711417322835
0
LINE
8
BLACK
6
CONTINUOUS
10
0.0874334645669291
20
3.4041711417322835
11
0.0873924409448819
21
3.4039994488188974
0
LINE
8
BLACK
6
CONTINUOUS
10
0.0873924409448819
20
3.4039994488188974
11
0.0874528346456693
21
3.4038335433070865
0
LINE
8
BLACK
6
CONTINUOUS
10
0.0874528346456693
20
3.4038335433070865
11
0.0874528346456693
21
3.3925849606299212
0
LINE
8
BLACK
6
CONTINUOUS
10
0.0874528346456693
20
3.3925849606299212
11
0.0872747637795276
21
3.3915750393700788
0
LINE
8
BLACK
6
CONTINUOUS
10
0.0872747637795276
20
3.3915750393700788
11
0.0871612598425197
21
3.391439803149606
0
LINE
8
BLACK
6
CONTINUOUS
10
0.0871612598425197
20
3.391439803149606
11
0.0871411023622047
21
3.3912644488188977
0
LINE
8
BLACK
6
CONTINUOUS
10
0.0871411023622047
20
3.3912644488188977
11
0.0852663385826772
21
3.3875149212598425
0
LINE
8
BLACK
6
CONTINUOUS
10
0.0852663385826772
20
3.3875149212598425
11
0.0847403937007874
21
3.3868058661417324
0
LINE
8
BLACK
6
CONTINUOUS
10
0.0847403937007874
20
3.3868058661417324
11
0.0847132283464567
21
3.3867475196850392
0
LINE
8
BLACK
6
CONTINUOUS
10
0.0847132283464567
20
3.3867475196850392
11
0.0828385039370079
21
3.3848727559055116
0
LINE
8
BLACK
6
CONTINUOUS
10
0.0828385039370079
20
3.3848727559055116
11
0.0821153149606299
21
3.3843663779527557
0
LINE
8
BLACK
6
CONTINUOUS
10
0.0821153149606299
20
3.3843663779527557
11
0.082071062992126
21
3.3843196062992127
0
LINE
8
BLACK
6
CONTINUOUS
10
0.082071062992126
20
3.3843196062992127
11
0.0783215354330709
21
3.3824448425196851
0
LINE
8
BLACK
6
CONTINUOUS
10
0.0783215354330709
20
3.3824448425196851
11
0.0773385826771654
21
3.3821524803149607
0
LINE
8
BLACK
6
CONTINUOUS
10
0.0773385826771654
20
3.3821524803149607
11
0.0771668897637795
21
3.3821935039370077
0
LINE
8
BLACK
6
CONTINUOUS
10
0.0771668897637795
20
3.3821935039370077
11
0.0770010236220472
21
3.3821331102362202
0
LINE
8
BLACK
6
CONTINUOUS
10
0.0770010236220472
20
3.3821331102362202
11
0.0713767322834646
21
3.3821331102362202
0
LINE
8
BLACK
6
CONTINUOUS
10
0.0713767322834646
20
3.3821331102362202
11
0.0703668110236221
21
3.3823111811023621
0
LINE
8
BLACK
6
CONTINUOUS
10
0.0703668110236221
20
3.3823111811023621
11
0.0702315354330709
21
3.38242468503937
0
LINE
8
BLACK
6
CONTINUOUS
10
0.0702315354330709
20
3.38242468503937
11
0.0700562204724409
21
3.3824448425196851
0
LINE
8
BLACK
6
CONTINUOUS
10
0.0700562204724409
20
3.3824448425196851
11
0.0663066929133858
21
3.3843196062992127
0
LINE
8
BLACK
6
CONTINUOUS
10
0.0663066929133858
20
3.3843196062992127
11
0.0655975590551181
21
3.3848455905511812
0
LINE
8
BLACK
6
CONTINUOUS
10
0.0655975590551181
20
3.3848455905511812
11
0.0655392519685039
21
3.3848727559055116
0
LINE
8
BLACK
6
CONTINUOUS
10
0.0655392519685039
20
3.3848727559055116
11
0.0636644881889764
21
3.3867475590551179
0
LINE
8
BLACK
6
CONTINUOUS
10
0.0636644881889764
20
3.3867475590551179
11
0.063158188976378
21
3.3874706299212596
0
LINE
8
BLACK
6
CONTINUOUS
10
0.063158188976378
20
3.3874706299212596
11
0.0631114173228347
21
3.3875149212598425
0
LINE
8
BLACK
6
CONTINUOUS
10
0.0631114173228347
20
3.3875149212598425
11
0.0612366535433071
21
3.3912644488188977
0
LINE
8
BLACK
6
CONTINUOUS
10
0.0612366535433071
20
3.3912644488188977
11
0.0609442913385827
21
3.392247401574803
0
LINE
8
BLACK
6
CONTINUOUS
10
0.0609442913385827
20
3.392247401574803
11
0.0609852755905512
21
3.3924190944881887
0
LINE
8
BLACK
6
CONTINUOUS
10
0.0609852755905512
20
3.3924190944881887
11
0.0609249212598425
21
3.3925849606299212
0
LINE
8
BLACK
6
CONTINUOUS
10
0.0609249212598425
20
3.3925849606299212
11
0.0609249212598425
21
3.4038335433070865
0
LINE
8
BLACK
6
CONTINUOUS
10
0.0609249212598425
20
3.4038335433070865
11
0.0611029921259843
21
3.404843464566929
0
LINE
8
BLACK
6
CONTINUOUS
10
0.0611029921259843
20
3.404843464566929
11
0.0612164566929134
21
3.40497874015748
0
LINE
8
BLACK
6
CONTINUOUS
10
0.0612164566929134
20
3.40497874015748
11
0.0612366535433071
21
3.4051540551181101
0
LINE
8
BLACK
6
CONTINUOUS
10
0.0612366535433071
20
3.4051540551181101
11
0.0631114173228347
21
3.4089035826771652
0
LINE
8
BLACK
6
CONTINUOUS
10
0.0631114173228347
20
3.4089035826771652
11
0.0636373228346457
21
3.4096126771653541
0
LINE
8
BLACK
6
CONTINUOUS
10
0.0636373228346457
20
3.4096126771653541
11
0.0636645275590551
21
3.4096709842519686
0
LINE
8
BLACK
6
CONTINUOUS
10
0.0636645275590551
20
3.4096709842519686
11
0.0655392913385827
21
3.4115457480314961
0
LINE
8
BLACK
6
CONTINUOUS
10
0.0655392913385827
20
3.4115457480314961
11
0.0662623622047244
21
3.4120520472440945
0
LINE
8
BLACK
6
CONTINUOUS
10
0.0662623622047244
20
3.4120520472440945
11
0.0663066929133858
21
3.4120988582677163
0
LINE
8
BLACK
6
CONTINUOUS
10
0.0663066929133858
20
3.4120988582677163
11
0.0700562204724409
21
3.4139736220472439
0
LINE
8
BLACK
6
CONTINUOUS
10
0.0700562204724409
20
3.4139736220472439
11
0.0710391338582677
21
3.4142659842519683
0
LINE
8
BLACK
6
CONTINUOUS
10
0.0710391338582677
20
3.4142659842519683
11
0.0712108267716535
21
3.4142250000000001
0
LINE
8
BLACK
6
CONTINUOUS
10
0.0712108267716535
20
3.4142250000000001
11
0.0713767322834646
21
3.4142853543307088
0
LINE
8
BLACK
6
CONTINUOUS
10
0.0713767322834646
20
3.4142853543307088
11
0.0770010236220472
21
3.4142853543307088
0
LINE
8
BLACK
6
CONTINUOUS
10
0.0770010236220472
20
3.4142853543307088
11
0.0780109448818898
21
3.4141072834645669
0
LINE
8
BLACK
6
CONTINUOUS
10
0.0693762992125984
20
3.4070311023622049
11
0.0681791732283464
21
3.4058339763779526
0
LINE
8
BLACK
6
CONTINUOUS
10
0.0681791732283464
20
3.4058339763779526
11
0.0668304330708661
21
3.403136496062992
0
LINE
8
BLACK
6
CONTINUOUS
10
0.0668304330708661
20
3.403136496062992
11
0.0668304330708661
21
3.3932820078740158
0
LINE
8
BLACK
6
CONTINUOUS
10
0.0668304330708661
20
3.3932820078740158
11
0.0681791732283464
21
3.3905845275590552
0
LINE
8
BLACK
6
CONTINUOUS
10
0.0681791732283464
20
3.3905845275590552
11
0.0693762992125984
21
3.3893873622047241
0
LINE
8
BLACK
6
CONTINUOUS
10
0.0693762992125984
20
3.3893873622047241
11
0.0720737795275591
21
3.3880386220472438
0
LINE
8
BLACK
6
CONTINUOUS
10
0.0720737795275591
20
3.3880386220472438
11
0.0763039763779527
21
3.3880386220472438
0
LINE
8
BLACK
6
CONTINUOUS
10
0.0763039763779527
20
3.3880386220472438
11
0.0790014173228346
21
3.3893873622047241
0
LINE
8
BLACK
6
CONTINUOUS
10
0.0790014173228346
20
3.3893873622047241
11
0.0801985433070866
21
3.3905845275590552
0
LINE
8
BLACK
6
CONTINUOUS
10
0.0801985433070866
20
3.3905845275590552
11
0.0815473228346457
21
3.3932820078740158
0
LINE
8
BLACK
6
CONTINUOUS
10
0.0815473228346457
20
3.3932820078740158
11
0.0815473228346457
21
3.403136496062992
0
LINE
8
BLACK
6
CONTINUOUS
10
0.0815473228346457
20
3.403136496062992
11
0.0801985826771654
21
3.4058339763779526
0
LINE
8
BLACK
6
CONTINUOUS
10
0.0801985826771654
20
3.4058339763779526
11
0.0790014566929134
21
3.4070311023622049
0
LINE
8
BLACK
6
CONTINUOUS
10
0.0790014566929134
20
3.4070311023622049
11
0.0763039763779527
21
3.4083798425196852
0
LINE
8
BLACK
6
CONTINUOUS
10
0.0763039763779527
20
3.4083798425196852
11
0.0720737795275591
21
3.4083798425196852
0
LINE
8
BLACK
6
CONTINUOUS
10
0.0720737795275591
20
3.4083798425196852
11
0.0693762992125984
21
3.4070311023622049
0
LINE
8
BLACK
6
CONTINUOUS
10
0.1205077952755906
20
3.4263539370078737
11
0.1211986220472441
21
3.4244559448818896
0
LINE
8
BLACK
6
CONTINUOUS
10
0.1211986220472441
20
3.4244559448818896
11
0.1211986220472441
21
3.3850858661417322
0
LINE
8
BLACK
6
CONTINUOUS
10
0.1211986220472441
20
3.3850858661417322
11
0.1210205511811024
21
3.3840759448818898
0
LINE
8
BLACK
6
CONTINUOUS
10
0.1210205511811024
20
3.3840759448818898
11
0.1197222440944882
21
3.3825287007874016
0
LINE
8
BLACK
6
CONTINUOUS
10
0.1197222440944882
20
3.3825287007874016
11
0.1177331102362205
21
3.3821779527559053
0
LINE
8
BLACK
6
CONTINUOUS
10
0.1177331102362205
20
3.3821779527559053
11
0.116596062992126
21
3.3828344881889763
0
LINE
8
BLACK
6
CONTINUOUS
10
0.116596062992126
20
3.3828344881889763
11
0.1158168503937008
21
3.3824448425196851
0
LINE
8
BLACK
6
CONTINUOUS
10
0.1158168503937008
20
3.3824448425196851
11
0.1148338976377953
21
3.3821524803149607
0
LINE
8
BLACK
6
CONTINUOUS
10
0.1148338976377953
20
3.3821524803149607
11
0.1146622047244095
21
3.3821935039370077
0
LINE
8
BLACK
6
CONTINUOUS
10
0.1146622047244095
20
3.3821935039370077
11
0.1144963385826772
21
3.3821331102362202
0
LINE
8
BLACK
6
CONTINUOUS
10
0.1144963385826772
20
3.3821331102362202
11
0.1069972834645669
21
3.3821331102362202
0
LINE
8
BLACK
6
CONTINUOUS
10
0.1069972834645669
20
3.3821331102362202
11
0.1059873622047244
21
3.3823111811023621
0
LINE
8
BLACK
6
CONTINUOUS
10
0.1059873622047244
20
3.3823111811023621
11
0.1058520866141732
21
3.38242468503937
0
LINE
8
BLACK
6
CONTINUOUS
10
0.1058520866141732
20
3.38242468503937
11
0.1056767716535433
21
3.3824448425196851
0
LINE
8
BLACK
6
CONTINUOUS
10
0.1056767716535433
20
3.3824448425196851
11
0.1019272440944882
21
3.3843196062992127
0
LINE
8
BLACK
6
CONTINUOUS
10
0.1019272440944882
20
3.3843196062992127
11
0.1012181102362205
21
3.3848455905511812
0
LINE
8
BLACK
6
CONTINUOUS
10
0.1012181102362205
20
3.3848455905511812
11
0.1011598031496063
21
3.3848727559055116
0
LINE
8
BLACK
6
CONTINUOUS
10
0.1011598031496063
20
3.3848727559055116
11
0.0992850393700787
21
3.3867475590551179
0
LINE
8
BLACK
6
CONTINUOUS
10
0.0992850393700787
20
3.3867475590551179
11
0.0987787401574803
21
3.3874706299212596
0
LINE
8
BLACK
6
CONTINUOUS
10
0.0987787401574803
20
3.3874706299212596
11
0.098731968503937
21
3.3875149212598425
0
LINE
8
BLACK
6
CONTINUOUS
10
0.098731968503937
20
3.3875149212598425
11
0.0968572047244095
21
3.3912644488188977
0
LINE
8
BLACK
6
CONTINUOUS
10
0.0968572047244095
20
3.3912644488188977
11
0.096564842519685
21
3.392247401574803
0
LINE
8
BLACK
6
CONTINUOUS
10
0.096564842519685
20
3.392247401574803
11
0.0966058267716535
21
3.3924190944881887
0
LINE
8
BLACK
6
CONTINUOUS
10
0.0966058267716535
20
3.3924190944881887
11
0.0965454724409449
21
3.3925849606299212
0
LINE
8
BLACK
6
CONTINUOUS
10
0.0965454724409449
20
3.3925849606299212
11
0.0965454724409449
21
3.4038335433070865
0
LINE
8
BLACK
6
CONTINUOUS
10
0.0965454724409449
20
3.4038335433070865
11
0.0967235433070866
21
3.404843464566929
0
LINE
8
BLACK
6
CONTINUOUS
10
0.0967235433070866
20
3.404843464566929
11
0.0968370078740158
21
3.40497874015748
0
LINE
8
BLACK
6
CONTINUOUS
10
0.0968370078740158
20
3.40497874015748
11
0.0968572047244095
21
3.4051540551181101
0
LINE
8
BLACK
6
CONTINUOUS
10
0.0968572047244095
20
3.4051540551181101
11
0.098731968503937
21
3.4089035826771652
0
LINE
8
BLACK
6
CONTINUOUS
10
0.098731968503937
20
3.4089035826771652
11
0.099257874015748
21
3.4096126771653541
0
LINE
8
BLACK
6
CONTINUOUS
10
0.099257874015748
20
3.4096126771653541
11
0.0992850787401575
21
3.4096709842519686
0
LINE
8
BLACK
6
CONTINUOUS
10
0.0992850787401575
20
3.4096709842519686
11
0.101159842519685
21
3.4115457480314961
0
LINE
8
BLACK
6
CONTINUOUS
10
0.101159842519685
20
3.4115457480314961
11
0.1018829133858268
21
3.4120520472440945
0
LINE
8
BLACK
6
CONTINUOUS
10
0.1018829133858268
20
3.4120520472440945
11
0.1019272440944882
21
3.4120988582677163
0
LINE
8
BLACK
6
CONTINUOUS
10
0.1019272440944882
20
3.4120988582677163
11
0.1056767716535433
21
3.4139736220472439
0
LINE
8
BLACK
6
CONTINUOUS
10
0.1056767716535433
20
3.4139736220472439
11
0.1066596850393701
21
3.4142659842519683
0
LINE
8
BLACK
6
CONTINUOUS
10
0.1066596850393701
20
3.4142659842519683
11
0.1068313779527559
21
3.4142250000000001
0
LINE
8
BLACK
6
CONTINUOUS
10
0.1068313779527559
20
3.4142250000000001
11
0.1069972834645669
21
3.4142853543307088
0
LINE
8
BLACK
6
CONTINUOUS
10
0.1069972834645669
20
3.4142853543307088
11
0.1144963385826772
21
3.4142853543307088
0
LINE
8
BLACK
6
CONTINUOUS
10
0.1144963385826772
20
3.4142853543307088
11
0.1152931102362205
21
3.4141448818897637
0
LINE
8
BLACK
6
CONTINUOUS
10
0.1152931102362205
20
3.4141448818897637
11
0.1152931102362205
21
3.4244559448818896
0
LINE
8
BLACK
6
CONTINUOUS
10
0.1152931102362205
20
3.4244559448818896
11
0.1154711811023622
21
3.4254658661417321
0
LINE
8
BLACK
6
CONTINUOUS
10
0.1154711811023622
20
3.4254658661417321
11
0.1167694881889764
21
3.4270131102362202
0
LINE
8
BLACK
6
CONTINUOUS
10
0.1167694881889764
20
3.4270131102362202
11
0.1187586220472441
21
3.4273638582677166
0
LINE
8
BLACK
6
CONTINUOUS
10
0.1187586220472441
20
3.4273638582677166
11
0.1205077952755906
21
3.4263539370078737
0
LINE
8
BLACK
6
CONTINUOUS
10
0.1049968503937008
20
3.4070311023622049
11
0.1037997244094488
21
3.4058339763779526
0
LINE
8
BLACK
6
CONTINUOUS
10
0.1037997244094488
20
3.4058339763779526
11
0.1024509842519685
21
3.403136496062992
0
LINE
8
BLACK
6
CONTINUOUS
10
0.1024509842519685
20
3.403136496062992
11
0.1024509842519685
21
3.3932820078740158
0
LINE
8
BLACK
6
CONTINUOUS
10
0.1024509842519685
20
3.3932820078740158
11
0.1037997244094488
21
3.3905845275590552
0
LINE
8
BLACK
6
CONTINUOUS
10
0.1037997244094488
20
3.3905845275590552
11
0.1049968503937008
21
3.3893873622047241
0
LINE
8
BLACK
6
CONTINUOUS
10
0.1049968503937008
20
3.3893873622047241
11
0.1076943307086614
21
3.3880386220472438
0
LINE
8
BLACK
6
CONTINUOUS
10
0.1076943307086614
20
3.3880386220472438
11
0.1137992913385827
21
3.3880386220472438
0
LINE
8
BLACK
6
CONTINUOUS
10
0.1137992913385827
20
3.3880386220472438
11
0.1152931102362205
21
3.3887855511811025
0
LINE
8
BLACK
6
CONTINUOUS
10
0.1152931102362205
20
3.3887855511811025
11
0.1152931102362205
21
3.4076329527559053
0
LINE
8
BLACK
6
CONTINUOUS
10
0.1152931102362205
20
3.4076329527559053
11
0.1137992913385827
21
3.4083798425196852
0
LINE
8
BLACK
6
CONTINUOUS
10
0.1137992913385827
20
3.4083798425196852
11
0.1076943307086614
21
3.4083798425196852
0
LINE
8
BLACK
6
CONTINUOUS
10
0.1076943307086614
20
3.4083798425196852
11
0.1049968503937008
21
3.4070311023622049
0
LINE
8
BLACK
6
CONTINUOUS
10
0.1561283464566929
20
3.4132305905511808
11
0.1568191732283465
21
3.4113325984251968
0
LINE
8
BLACK
6
CONTINUOUS
10
0.1568191732283465
20
3.4113325984251968
11
0.1568191732283465
21
3.3850858661417322
0
LINE
8
BLACK
6
CONTINUOUS
10
0.1568191732283465
20
3.3850858661417322
11
0.1566411023622047
21
3.3840759448818898
0
LINE
8
BLACK
6
CONTINUOUS
10
0.1566411023622047
20
3.3840759448818898
11
0.1553427952755906
21
3.3825287007874016
0
LINE
8
BLACK
6
CONTINUOUS
10
0.1553427952755906
20
3.3825287007874016
11
0.1533536614173228
21
3.3821779527559053
0
LINE
8
BLACK
6
CONTINUOUS
10
0.1533536614173228
20
3.3821779527559053
11
0.1516044881889764
21
3.3831878740157482
0
LINE
8
BLACK
6
CONTINUOUS
10
0.1516044881889764
20
3.3831878740157482
11
0.1515188976377953
21
3.383422992125984
0
LINE
8
BLACK
6
CONTINUOUS
10
0.1515188976377953
20
3.383422992125984
11
0.1495626377952756
21
3.3824448425196851
0
LINE
8
BLACK
6
CONTINUOUS
10
0.1495626377952756
20
3.3824448425196851
11
0.1485796850393701
21
3.3821524803149607
0
LINE
8
BLACK
6
CONTINUOUS
10
0.1485796850393701
20
3.3821524803149607
11
0.1484079921259842
21
3.3821935039370077
0
LINE
8
BLACK
6
CONTINUOUS
10
0.1484079921259842
20
3.3821935039370077
11
0.148242125984252
21
3.3821331102362202
0
LINE
8
BLACK
6
CONTINUOUS
10
0.148242125984252
20
3.3821331102362202
11
0.1426178346456693
21
3.3821331102362202
0
LINE
8
BLACK
6
CONTINUOUS
10
0.1426178346456693
20
3.3821331102362202
11
0.1416079133858268
21
3.3823111811023621
0
LINE
8
BLACK
6
CONTINUOUS
10
0.1416079133858268
20
3.3823111811023621
11
0.1414726377952756
21
3.38242468503937
0
LINE
8
BLACK
6
CONTINUOUS
10
0.1414726377952756
20
3.38242468503937
11
0.1412973228346457
21
3.3824448425196851
0
LINE
8
BLACK
6
CONTINUOUS
10
0.1412973228346457
20
3.3824448425196851
11
0.1375477952755906
21
3.3843196062992127
0
LINE
8
BLACK
6
CONTINUOUS
10
0.1375477952755906
20
3.3843196062992127
11
0.1367241338582677
21
3.3849305118110236
0
LINE
8
BLACK
6
CONTINUOUS
10
0.1367241338582677
20
3.3849305118110236
11
0.1365482677165354
21
3.3853362204724409
0
LINE
8
BLACK
6
CONTINUOUS
10
0.1365482677165354
20
3.3853362204724409
11
0.1362272834645669
21
3.3856401181102362
0
LINE
8
BLACK
6
CONTINUOUS
10
0.1362272834645669
20
3.3856401181102362
11
0.1343525196850394
21
3.3893896850393701
0
LINE
8
BLACK
6
CONTINUOUS
10
0.1343525196850394
20
3.3893896850393701
11
0.1340601181102362
21
3.3903726377952754
0
LINE
8
BLACK
6
CONTINUOUS
10
0.1340601181102362
20
3.3903726377952754
11
0.1341011417322835
21
3.3905443700787399
0
LINE
8
BLACK
6
CONTINUOUS
10
0.1341011417322835
20
3.3905443700787399
11
0.1340407874015748
21
3.3907101968503937
0
LINE
8
BLACK
6
CONTINUOUS
10
0.1340407874015748
20
3.3907101968503937
11
0.1340407874015748
21
3.4113325984251968
0
LINE
8
BLACK
6
CONTINUOUS
10
0.1340407874015748
20
3.4113325984251968
11
0.1342188582677165
21
3.4123425196850392
0
LINE
8
BLACK
6
CONTINUOUS
10
0.1342188582677165
20
3.4123425196850392
11
0.1355171653543307
21
3.4138897637795274
0
LINE
8
BLACK
6
CONTINUOUS
10
0.1355171653543307
20
3.4138897637795274
11
0.1375062992125984
21
3.4142405118110237
0
LINE
8
BLACK
6
CONTINUOUS
10
0.1375062992125984
20
3.4142405118110237
11
0.1392554724409449
21
3.4132305905511808
0
LINE
8
BLACK
6
CONTINUOUS
10
0.1392554724409449
20
3.4132305905511808
11
0.1399462992125984
21
3.4113325984251968
0
LINE
8
BLACK
6
CONTINUOUS
10
0.1399462992125984
20
3.4113325984251968
11
0.1399462992125984
21
3.3914072440944882
0
LINE
8
BLACK
6
CONTINUOUS
10
0.1399462992125984
20
3.3914072440944882
11
0.1410691338582677
21
3.3891614960629921
0
LINE
8
BLACK
6
CONTINUOUS
10
0.1410691338582677
20
3.3891614960629921
11
0.1433148818897638
21
3.3880386220472438
0
LINE
8
BLACK
6
CONTINUOUS
10
0.1433148818897638
20
3.3880386220472438
11
0.1475450787401575
21
3.3880386220472438
0
LINE
8
BLACK
6
CONTINUOUS
10
0.1475450787401575
20
3.3880386220472438
11
0.1502425196850394
21
3.3893873622047241
0
LINE
8
BLACK
6
CONTINUOUS
10
0.1502425196850394
20
3.3893873622047241
11
0.1509136614173228
21
3.3900585039370079
0
LINE
8
BLACK
6
CONTINUOUS
10
0.1509136614173228
20
3.3900585039370079
11
0.1509136614173228
21
3.4113325984251968
0
LINE
8
BLACK
6
CONTINUOUS
10
0.1509136614173228
20
3.4113325984251968
11
0.1510917322834646
21
3.4123425196850392
0
LINE
8
BLACK
6
CONTINUOUS
10
0.1510917322834646
20
3.4123425196850392
11
0.1523900393700788
21
3.4138897637795274
0
LINE
8
BLACK
6
CONTINUOUS
10
0.1523900393700788
20
3.4138897637795274
11
0.1543791732283465
21
3.4142405118110237
0
LINE
8
BLACK
6
CONTINUOUS
10
0.1543791732283465
20
3.4142405118110237
11
0.1561283464566929
21
3.4132305905511808
0
LINE
8
BLACK
6
CONTINUOUS
10
0.2054950393700787
20
3.4141072834645669
11
0.2056302755905512
21
3.4139938188976378
0
LINE
8
BLACK
6
CONTINUOUS
10
0.2056302755905512
20
3.4139938188976378
11
0.2058056299212598
21
3.4139736220472439
0
LINE
8
BLACK
6
CONTINUOUS
10
0.2058056299212598
20
3.4139736220472439
11
0.2095551574803149
21
3.4120988582677163
0
LINE
8
BLACK
6
CONTINUOUS
10
0.2095551574803149
20
3.4120988582677163
11
0.2103788188976378
21
3.4114879527559054
0
LINE
8
BLACK
6
CONTINUOUS
10
0.2103788188976378
20
3.4114879527559054
11
0.2105546456692913
21
3.4110822834645669
0
LINE
8
BLACK
6
CONTINUOUS
10
0.2105546456692913
20
3.4110822834645669
11
0.2108756692913386
21
3.4107783464566928
0
LINE
8
BLACK
6
CONTINUOUS
10
0.2108756692913386
20
3.4107783464566928
11
0.2127504330708661
21
3.4070288188976376
0
LINE
8
BLACK
6
CONTINUOUS
10
0.2127504330708661
20
3.4070288188976376
11
0.2130427952755906
21
3.4060459055118111
0
LINE
8
BLACK
6
CONTINUOUS
10
0.2130427952755906
20
3.4060459055118111
11
0.2130017716535433
21
3.4058742125984249
0
LINE
8
BLACK
6
CONTINUOUS
10
0.2130017716535433
20
3.4058742125984249
11
0.2130621653543307
21
3.4057083070866141
0
LINE
8
BLACK
6
CONTINUOUS
10
0.2130621653543307
20
3.4057083070866141
11
0.2130621653543307
21
3.401958779527559
0
LINE
8
BLACK
6
CONTINUOUS
10
0.2130621653543307
20
3.401958779527559
11
0.212884094488189
21
3.4009488582677165
0
LINE
8
BLACK
6
CONTINUOUS
10
0.212884094488189
20
3.4009488582677165
11
0.2125704330708661
21
3.4005751181102362
0
LINE
8
BLACK
6
CONTINUOUS
10
0.2125704330708661
20
3.4005751181102362
11
0.2124141338582677
21
3.4001129921259841
0
LINE
8
BLACK
6
CONTINUOUS
10
0.2124141338582677
20
3.4001129921259841
11
0.2119414566929134
21
3.3998255118110237
0
LINE
8
BLACK
6
CONTINUOUS
10
0.2119414566929134
20
3.3998255118110237
11
0.2115857874015748
21
3.3994016141732284
0
LINE
8
BLACK
6
CONTINUOUS
10
0.2115857874015748
20
3.3994016141732284
11
0.2111052755905512
21
3.3993168897637793
0
LINE
8
BLACK
6
CONTINUOUS
10
0.2111052755905512
20
3.3993168897637793
11
0.2106884645669291
21
3.3990633464566931
0
LINE
8
BLACK
6
CONTINUOUS
10
0.2106884645669291
20
3.3990633464566931
11
0.1943145275590551
21
3.3957885826771652
0
LINE
8
BLACK
6
CONTINUOUS
10
0.1943145275590551
20
3.3957885826771652
11
0.1943145275590551
21
3.3914072440944882
0
LINE
8
BLACK
6
CONTINUOUS
10
0.1943145275590551
20
3.3914072440944882
11
0.1954373622047244
21
3.3891614960629921
0
LINE
8
BLACK
6
CONTINUOUS
10
0.1954373622047244
20
3.3891614960629921
11
0.1976831102362205
21
3.3880386220472438
0
LINE
8
BLACK
6
CONTINUOUS
10
0.1976831102362205
20
3.3880386220472438
11
0.2037880708661417
21
3.3880386220472438
0
LINE
8
BLACK
6
CONTINUOUS
10
0.2037880708661417
20
3.3880386220472438
11
0.2069141338582677
21
3.3896016535433069
0
LINE
8
BLACK
6
CONTINUOUS
10
0.2069141338582677
20
3.3896016535433069
11
0.2078970472440945
21
3.3898940157480313
0
LINE
8
BLACK
6
CONTINUOUS
10
0.2078970472440945
20
3.3898940157480313
11
0.2098615748031496
21
3.3894247244094489
0
LINE
8
BLACK
6
CONTINUOUS
10
0.2098615748031496
20
3.3894247244094489
11
0.2110648818897638
21
3.3878024409448817
0
LINE
8
BLACK
6
CONTINUOUS
10
0.2110648818897638
20
3.3878024409448817
11
0.2109438188976378
21
3.3857862992125982
0
LINE
8
BLACK
6
CONTINUOUS
10
0.2109438188976378
20
3.3857862992125982
11
0.2095551574803149
21
3.3843196062992127
0
LINE
8
BLACK
6
CONTINUOUS
10
0.2095551574803149
20
3.3843196062992127
11
0.2058056299212598
21
3.3824448425196851
0
LINE
8
BLACK
6
CONTINUOUS
10
0.2058056299212598
20
3.3824448425196851
11
0.2048226771653543
21
3.3821524803149607
0
LINE
8
BLACK
6
CONTINUOUS
10
0.2048226771653543
20
3.3821524803149607
11
0.2046509842519685
21
3.3821935039370077
0
LINE
8
BLACK
6
CONTINUOUS
10
0.2046509842519685
20
3.3821935039370077
11
0.2044851181102362
21
3.3821331102362202
0
LINE
8
BLACK
6
CONTINUOUS
10
0.2044851181102362
20
3.3821331102362202
11
0.196986062992126
21
3.3821331102362202
0
LINE
8
BLACK
6
CONTINUOUS
10
0.196986062992126
20
3.3821331102362202
11
0.1959761417322834
21
3.3823111811023621
0
LINE
8
BLACK
6
CONTINUOUS
10
0.1959761417322834
20
3.3823111811023621
11
0.1958408661417323
21
3.38242468503937
0
LINE
8
BLACK
6
CONTINUOUS
10
0.1958408661417323
20
3.38242468503937
11
0.1956655511811023
21
3.3824448425196851
0
LINE
8
BLACK
6
CONTINUOUS
10
0.1956655511811023
20
3.3824448425196851
11
0.1919160236220472
21
3.3843196062992127
0
LINE
8
BLACK
6
CONTINUOUS
10
0.1919160236220472
20
3.3843196062992127
11
0.1910923622047244
21
3.3849305118110236
0
LINE
8
BLACK
6
CONTINUOUS
10
0.1910923622047244
20
3.3849305118110236
11
0.1909164960629921
21
3.3853362204724409
0
LINE
8
BLACK
6
CONTINUOUS
10
0.1909164960629921
20
3.3853362204724409
11
0.1905955118110236
21
3.3856401181102362
0
LINE
8
BLACK
6
CONTINUOUS
10
0.1905955118110236
20
3.3856401181102362
11
0.188720748031496
21
3.3893896850393701
0
LINE
8
BLACK
6
CONTINUOUS
10
0.188720748031496
20
3.3893896850393701
11
0.1884283464566929
21
3.3903726377952754
0
LINE
8
BLACK
6
CONTINUOUS
10
0.1884283464566929
20
3.3903726377952754
11
0.1884693700787402
21
3.3905443700787399
0
LINE
8
BLACK
6
CONTINUOUS
10
0.1884693700787402
20
3.3905443700787399
11
0.1884090157480315
21
3.3907101968503937
0
LINE
8
BLACK
6
CONTINUOUS
10
0.1884090157480315
20
3.3907101968503937
11
0.1884090157480315
21
3.4057083070866141
0
LINE
8
BLACK
6
CONTINUOUS
10
0.1884090157480315
20
3.4057083070866141
11
0.1885870866141732
21
3.4067182283464565
0
LINE
8
BLACK
6
CONTINUOUS
10
0.1885870866141732
20
3.4067182283464565
11
0.1887005511811023
21
3.4068535039370076
0
LINE
8
BLACK
6
CONTINUOUS
10
0.1887005511811023
20
3.4068535039370076
11
0.188720748031496
21
3.4070288188976376
0
LINE
8
BLACK
6
CONTINUOUS
10
0.188720748031496
20
3.4070288188976376
11
0.1905955118110236
21
3.4107783464566928
0
LINE
8
BLACK
6
CONTINUOUS
10
0.1905955118110236
20
3.4107783464566928
11
0.1912064173228346
21
3.4116020078740155
0
LINE
8
BLACK
6
CONTINUOUS
10
0.1912064173228346
20
3.4116020078740155
11
0.1916120866141732
21
3.4117778740157481
0
LINE
8
BLACK
6
CONTINUOUS
10
0.1916120866141732
20
3.4117778740157481
11
0.1919160236220472
21
3.4120988582677163
0
LINE
8
BLACK
6
CONTINUOUS
10
0.1919160236220472
20
3.4120988582677163
11
0.1956655511811023
21
3.4139736220472439
0
LINE
8
BLACK
6
CONTINUOUS
10
0.1956655511811023
20
3.4139736220472439
11
0.1966484645669291
21
3.4142659842519683
0
LINE
8
BLACK
6
CONTINUOUS
10
0.1966484645669291
20
3.4142659842519683
11
0.196820157480315
21
3.4142250000000001
0
LINE
8
BLACK
6
CONTINUOUS
10
0.196820157480315
20
3.4142250000000001
11
0.196986062992126
21
3.4142853543307088
0
LINE
8
BLACK
6
CONTINUOUS
10
0.196986062992126
20
3.4142853543307088
11
0.2044851181102362
21
3.4142853543307088
0
LINE
8
BLACK
6
CONTINUOUS
10
0.2044851181102362
20
3.4142853543307088
11
0.2054950393700787
21
3.4141072834645669
0
LINE
8
BLACK
6
CONTINUOUS
10
0.1954373622047244
20
3.4072570078740156
11
0.1943145275590551
21
3.4050112598425195
0
LINE
8
BLACK
6
CONTINUOUS
10
0.1943145275590551
20
3.4050112598425195
11
0.1943145275590551
21
3.4018110629921261
0
LINE
8
BLACK
6
CONTINUOUS
10
0.1943145275590551
20
3.4018110629921261
11
0.2071566535433071
21
3.4043794488188976
0
LINE
8
BLACK
6
CONTINUOUS
10
0.2071566535433071
20
3.4043794488188976
11
0.2071566535433071
21
3.4050112598425195
0
LINE
8
BLACK
6
CONTINUOUS
10
0.2071566535433071
20
3.4050112598425195
11
0.2060337795275591
21
3.4072570078740156
0
LINE
8
BLACK
6
CONTINUOUS
10
0.2060337795275591
20
3.4072570078740156
11
0.2037880708661417
21
3.4083798425196852
0
LINE
8
BLACK
6
CONTINUOUS
10
0.2037880708661417
20
3.4083798425196852
11
0.1976831102362205
21
3.4083798425196852
0
LINE
8
BLACK
6
CONTINUOUS
10
0.1976831102362205
20
3.4083798425196852
11
0.1954373622047244
21
3.4072570078740156
0
LINE
8
BLACK
6
CONTINUOUS
10
0.2761133858267716
20
3.4263539370078737
11
0.2768042125984252
21
3.4244559448818896
0
LINE
8
BLACK
6
CONTINUOUS
10
0.2768042125984252
20
3.4244559448818896
11
0.2768042125984252
21
3.3850858661417322
0
LINE
8
BLACK
6
CONTINUOUS
10
0.2768042125984252
20
3.3850858661417322
11
0.2766261417322834
21
3.3840759448818898
0
LINE
8
BLACK
6
CONTINUOUS
10
0.2766261417322834
20
3.3840759448818898
11
0.2753278346456693
21
3.3825287007874016
0
LINE
8
BLACK
6
CONTINUOUS
10
0.2753278346456693
20
3.3825287007874016
11
0.2733387007874016
21
3.3821779527559053
0
LINE
8
BLACK
6
CONTINUOUS
10
0.2733387007874016
20
3.3821779527559053
11
0.2722016535433071
21
3.3828344881889763
0
LINE
8
BLACK
6
CONTINUOUS
10
0.2722016535433071
20
3.3828344881889763
11
0.2714224409448819
21
3.3824448425196851
0
LINE
8
BLACK
6
CONTINUOUS
10
0.2714224409448819
20
3.3824448425196851
11
0.2704394881889764
21
3.3821524803149607
0
LINE
8
BLACK
6
CONTINUOUS
10
0.2704394881889764
20
3.3821524803149607
11
0.2702677952755905
21
3.3821935039370077
0
LINE
8
BLACK
6
CONTINUOUS
10
0.2702677952755905
20
3.3821935039370077
11
0.2701019291338583
21
3.3821331102362202
0
LINE
8
BLACK
6
CONTINUOUS
10
0.2701019291338583
20
3.3821331102362202
11
0.262602874015748
21
3.3821331102362202
0
LINE
8
BLACK
6
CONTINUOUS
10
0.262602874015748
20
3.3821331102362202
11
0.2615929527559055
21
3.3823111811023621
0
LINE
8
BLACK
6
CONTINUOUS
10
0.2615929527559055
20
3.3823111811023621
11
0.2614576771653543
21
3.38242468503937
0
LINE
8
BLACK
6
CONTINUOUS
10
0.2614576771653543
20
3.38242468503937
11
0.2612823622047244
21
3.3824448425196851
0
LINE
8
BLACK
6
CONTINUOUS
10
0.2612823622047244
20
3.3824448425196851
11
0.2575328346456693
21
3.3843196062992127
0
LINE
8
BLACK
6
CONTINUOUS
10
0.2575328346456693
20
3.3843196062992127
11
0.2568237007874016
21
3.3848455905511812
0
LINE
8
BLACK
6
CONTINUOUS
10
0.2568237007874016
20
3.3848455905511812
11
0.2567653937007874
21
3.3848727559055116
0
LINE
8
BLACK
6
CONTINUOUS
10
0.2567653937007874
20
3.3848727559055116
11
0.2548906299212598
21
3.3867475590551179
0
LINE
8
BLACK
6
CONTINUOUS
10
0.2548906299212598
20
3.3867475590551179
11
0.2543843307086614
21
3.3874706299212596
0
LINE
8
BLACK
6
CONTINUOUS
10
0.2543843307086614
20
3.3874706299212596
11
0.2543375590551181
21
3.3875149212598425
0
LINE
8
BLACK
6
CONTINUOUS
10
0.2543375590551181
20
3.3875149212598425
11
0.2524627952755906
21
3.3912644488188977
0
LINE
8
BLACK
6
CONTINUOUS
10
0.2524627952755906
20
3.3912644488188977
11
0.2521704330708661
21
3.392247401574803
0
LINE
8
BLACK
6
CONTINUOUS
10
0.2521704330708661
20
3.392247401574803
11
0.2522114173228346
21
3.3924190944881887
0
LINE
8
BLACK
6
CONTINUOUS
10
0.2522114173228346
20
3.3924190944881887
11
0.252151062992126
21
3.3925849606299212
0
LINE
8
BLACK
6
CONTINUOUS
10
0.252151062992126
20
3.3925849606299212
11
0.252151062992126
21
3.4038335433070865
0
LINE
8
BLACK
6
CONTINUOUS
10
0.252151062992126
20
3.4038335433070865
11
0.2523291338582677
21
3.404843464566929
0
LINE
8
BLACK
6
CONTINUOUS
10
0.2523291338582677
20
3.404843464566929
11
0.2524425984251968
21
3.40497874015748
0
LINE
8
BLACK
6
CONTINUOUS
10
0.2524425984251968
20
3.40497874015748
11
0.2524627952755906
21
3.4051540551181101
0
LINE
8
BLACK
6
CONTINUOUS
10
0.2524627952755906
20
3.4051540551181101
11
0.2543375590551181
21
3.4089035826771652
0
LINE
8
BLACK
6
CONTINUOUS
10
0.2543375590551181
20
3.4089035826771652
11
0.2548634645669292
21
3.4096126771653541
0
LINE
8
BLACK
6
CONTINUOUS
10
0.2548634645669292
20
3.4096126771653541
11
0.2548906692913386
21
3.4096709842519686
0
LINE
8
BLACK
6
CONTINUOUS
10
0.2548906692913386
20
3.4096709842519686
11
0.2567654330708661
21
3.4115457480314961
0
LINE
8
BLACK
6
CONTINUOUS
10
0.2567654330708661
20
3.4115457480314961
11
0.2574885039370079
21
3.4120520472440945
0
LINE
8
BLACK
6
CONTINUOUS
10
0.2574885039370079
20
3.4120520472440945
11
0.2575328346456693
21
3.4120988582677163
0
LINE
8
BLACK
6
CONTINUOUS
10
0.2575328346456693
20
3.4120988582677163
11
0.2612823622047244
21
3.4139736220472439
0
LINE
8
BLACK
6
CONTINUOUS
10
0.2612823622047244
20
3.4139736220472439
11
0.2622652755905512
21
3.4142659842519683
0
LINE
8
BLACK
6
CONTINUOUS
10
0.2622652755905512
20
3.4142659842519683
11
0.262436968503937
21
3.4142250000000001
0
LINE
8
BLACK
6
CONTINUOUS
10
0.262436968503937
20
3.4142250000000001
11
0.262602874015748
21
3.4142853543307088
0
LINE
8
BLACK
6
CONTINUOUS
10
0.262602874015748
20
3.4142853543307088
11
0.2701019291338583
21
3.4142853543307088
0
LINE
8
BLACK
6
CONTINUOUS
10
0.2701019291338583
20
3.4142853543307088
11
0.2708987007874016
21
3.4141448818897637
0
LINE
8
BLACK
6
CONTINUOUS
10
0.2708987007874016
20
3.4141448818897637
11
0.2708987007874016
21
3.4244559448818896
0
LINE
8
BLACK
6
CONTINUOUS
10
0.2708987007874016
20
3.4244559448818896
11
0.2710767716535433
21
3.4254658661417321
0
LINE
8
BLACK
6
CONTINUOUS
10
0.2710767716535433
20
3.4254658661417321
11
0.2723750787401575
21
3.4270131102362202
0
LINE
8
BLACK
6
CONTINUOUS
10
0.2723750787401575
20
3.4270131102362202
11
0.2743642125984252
21
3.4273638582677166
0
LINE
8
BLACK
6
CONTINUOUS
10
0.2743642125984252
20
3.4273638582677166
11
0.2761133858267716
21
3.4263539370078737
0
LINE
8
BLACK
6
CONTINUOUS
10
0.2606024409448819
20
3.4070311023622049
11
0.2594053149606299
21
3.4058339763779526
0
LINE
8
BLACK
6
CONTINUOUS
10
0.2594053149606299
20
3.4058339763779526
11
0.2580565748031496
21
3.403136496062992
0
LINE
8
BLACK
6
CONTINUOUS
10
0.2580565748031496
20
3.403136496062992
11
0.2580565748031496
21
3.3932820078740158
0
LINE
8
BLACK
6
CONTINUOUS
10
0.2580565748031496
20
3.3932820078740158
11
0.2594053149606299
21
3.3905845275590552
0
LINE
8
BLACK
6
CONTINUOUS
10
0.2594053149606299
20
3.3905845275590552
11
0.2606024409448819
21
3.3893873622047241
0
LINE
8
BLACK
6
CONTINUOUS
10
0.2606024409448819
20
3.3893873622047241
11
0.2632999212598425
21
3.3880386220472438
0
LINE
8
BLACK
6
CONTINUOUS
10
0.2632999212598425
20
3.3880386220472438
11
0.2694048818897637
21
3.3880386220472438
0
LINE
8
BLACK
6
CONTINUOUS
10
0.2694048818897637
20
3.3880386220472438
11
0.2708987007874016
21
3.3887855511811025
0
LINE
8
BLACK
6
CONTINUOUS
10
0.2708987007874016
20
3.3887855511811025
11
0.2708987007874016
21
3.4076329527559053
0
LINE
8
BLACK
6
CONTINUOUS
10
0.2708987007874016
20
3.4076329527559053
11
0.2694048818897637
21
3.4083798425196852
0
LINE
8
BLACK
6
CONTINUOUS
10
0.2694048818897637
20
3.4083798425196852
11
0.2632999212598425
21
3.4083798425196852
0
LINE
8
BLACK
6
CONTINUOUS
10
0.2632999212598425
20
3.4083798425196852
11
0.2606024409448819
21
3.4070311023622049
0
LINE
8
BLACK
6
CONTINUOUS
10
0.3760987007874015
20
3.4141072834645669
11
0.376233937007874
21
3.4139938188976378
0
LINE
8
BLACK
6
CONTINUOUS
10
0.376233937007874
20
3.4139938188976378
11
0.3764092913385826
21
3.4139736220472439
0
LINE
8
BLACK
6
CONTINUOUS
10
0.3764092913385826
20
3.4139736220472439
11
0.3801588188976378
21
3.4120988582677163
0
LINE
8
BLACK
6
CONTINUOUS
10
0.3801588188976378
20
3.4120988582677163
11
0.3809824803149606
21
3.4114879527559054
0
LINE
8
BLACK
6
CONTINUOUS
10
0.3809824803149606
20
3.4114879527559054
11
0.3811583070866142
21
3.4110822834645669
0
LINE
8
BLACK
6
CONTINUOUS
10
0.3811583070866142
20
3.4110822834645669
11
0.3814793307086614
21
3.4107783464566928
0
LINE
8
BLACK
6
CONTINUOUS
10
0.3814793307086614
20
3.4107783464566928
11
0.383354094488189
21
3.4070288188976376
0
LINE
8
BLACK
6
CONTINUOUS
10
0.383354094488189
20
3.4070288188976376
11
0.3836464566929134
21
3.4060459055118111
0
LINE
8
BLACK
6
CONTINUOUS
10
0.3836464566929134
20
3.4060459055118111
11
0.3836054330708661
21
3.4058742125984249
0
LINE
8
BLACK
6
CONTINUOUS
10
0.3836054330708661
20
3.4058742125984249
11
0.3836658267716536
21
3.4057083070866141
0
LINE
8
BLACK
6
CONTINUOUS
10
0.3836658267716536
20
3.4057083070866141
11
0.3836658267716536
21
3.401958779527559
0
LINE
8
BLACK
6
CONTINUOUS
10
0.3836658267716536
20
3.401958779527559
11
0.3834877559055118
21
3.4009488582677165
0
LINE
8
BLACK
6
CONTINUOUS
10
0.3834877559055118
20
3.4009488582677165
11
0.383174094488189
21
3.4005751181102362
0
LINE
8
BLACK
6
CONTINUOUS
10
0.383174094488189
20
3.4005751181102362
11
0.3830177952755905
21
3.4001129921259841
0
LINE
8
BLACK
6
CONTINUOUS
10
0.3830177952755905
20
3.4001129921259841
11
0.3825451181102362
21
3.3998255118110237
0
LINE
8
BLACK
6
CONTINUOUS
10
0.3825451181102362
20
3.3998255118110237
11
0.3821894488188976
21
3.3994016141732284
0
LINE
8
BLACK
6
CONTINUOUS
10
0.3821894488188976
20
3.3994016141732284
11
0.381708937007874
21
3.3993168897637793
0
LINE
8
BLACK
6
CONTINUOUS
10
0.381708937007874
20
3.3993168897637793
11
0.3812921259842519
21
3.3990633464566931
0
LINE
8
BLACK
6
CONTINUOUS
10
0.3812921259842519
20
3.3990633464566931
11
0.364918188976378
21
3.3957885826771652
0
LINE
8
BLACK
6
CONTINUOUS
10
0.364918188976378
20
3.3957885826771652
11
0.364918188976378
21
3.3914072440944882
0
LINE
8
BLACK
6
CONTINUOUS
10
0.364918188976378
20
3.3914072440944882
11
0.3660410236220472
21
3.3891614960629921
0
LINE
8
BLACK
6
CONTINUOUS
10
0.3660410236220472
20
3.3891614960629921
11
0.3682867716535433
21
3.3880386220472438
0
LINE
8
BLACK
6
CONTINUOUS
10
0.3682867716535433
20
3.3880386220472438
11
0.3743917322834646
21
3.3880386220472438
0
LINE
8
BLACK
6
CONTINUOUS
10
0.3743917322834646
20
3.3880386220472438
11
0.3775177952755905
21
3.3896016535433069
0
LINE
8
BLACK
6
CONTINUOUS
10
0.3775177952755905
20
3.3896016535433069
11
0.3785007086614173
21
3.3898940157480313
0
LINE
8
BLACK
6
CONTINUOUS
10
0.3785007086614173
20
3.3898940157480313
11
0.3804652362204725
21
3.3894247244094489
0
LINE
8
BLACK
6
CONTINUOUS
10
0.3804652362204725
20
3.3894247244094489
11
0.3816685433070866
21
3.3878024409448817
0
LINE
8
BLACK
6
CONTINUOUS
10
0.3816685433070866
20
3.3878024409448817
11
0.3815474803149606
21
3.3857862992125982
0
LINE
8
BLACK
6
CONTINUOUS
10
0.3815474803149606
20
3.3857862992125982
11
0.3801588188976378
21
3.3843196062992127
0
LINE
8
BLACK
6
CONTINUOUS
10
0.3801588188976378
20
3.3843196062992127
11
0.3764092913385826
21
3.3824448425196851
0
LINE
8
BLACK
6
CONTINUOUS
10
0.3764092913385826
20
3.3824448425196851
11
0.3754263385826772
21
3.3821524803149607
0
LINE
8
BLACK
6
CONTINUOUS
10
0.3754263385826772
20
3.3821524803149607
11
0.3752546456692913
21
3.3821935039370077
0
LINE
8
BLACK
6
CONTINUOUS
10
0.3752546456692913
20
3.3821935039370077
11
0.375088779527559
21
3.3821331102362202
0
LINE
8
BLACK
6
CONTINUOUS
10
0.375088779527559
20
3.3821331102362202
11
0.3675897244094488
21
3.3821331102362202
0
LINE
8
BLACK
6
CONTINUOUS
10
0.3675897244094488
20
3.3821331102362202
11
0.3665798031496063
21
3.3823111811023621
0
LINE
8
BLACK
6
CONTINUOUS
10
0.3665798031496063
20
3.3823111811023621
11
0.3664445275590551
21
3.38242468503937
0
LINE
8
BLACK
6
CONTINUOUS
10
0.3664445275590551
20
3.38242468503937
11
0.3662692125984252
21
3.3824448425196851
0
LINE
8
BLACK
6
CONTINUOUS
10
0.3662692125984252
20
3.3824448425196851
11
0.36251968503937
21
3.3843196062992127
0
LINE
8
BLACK
6
CONTINUOUS
10
0.36251968503937
20
3.3843196062992127
11
0.3616960236220472
21
3.3849305118110236
0
LINE
8
BLACK
6
CONTINUOUS
10
0.3616960236220472
20
3.3849305118110236
11
0.361520157480315
21
3.3853362204724409
0
LINE
8
BLACK
6
CONTINUOUS
10
0.361520157480315
20
3.3853362204724409
11
0.3611991732283464
21
3.3856401181102362
0
LINE
8
BLACK
6
CONTINUOUS
10
0.3611991732283464
20
3.3856401181102362
11
0.3593244094488189
21
3.3893896850393701
0
LINE
8
BLACK
6
CONTINUOUS
10
0.3593244094488189
20
3.3893896850393701
11
0.3590320078740157
21
3.3903726377952754
0
LINE
8
BLACK
6
CONTINUOUS
10
0.3590320078740157
20
3.3903726377952754
11
0.359073031496063
21
3.3905443700787399
0
LINE
8
BLACK
6
CONTINUOUS
10
0.359073031496063
20
3.3905443700787399
11
0.3590126771653543
21
3.3907101968503937
0
LINE
8
BLACK
6
CONTINUOUS
10
0.3590126771653543
20
3.3907101968503937
11
0.3590126771653543
21
3.4057083070866141
0
LINE
8
BLACK
6
CONTINUOUS
10
0.3590126771653543
20
3.4057083070866141
11
0.359190748031496
21
3.4067182283464565
0
LINE
8
BLACK
6
CONTINUOUS
10
0.359190748031496
20
3.4067182283464565
11
0.3593042125984252
21
3.4068535039370076
0
LINE
8
BLACK
6
CONTINUOUS
10
0.3593042125984252
20
3.4068535039370076
11
0.3593244094488189
21
3.4070288188976376
0
LINE
8
BLACK
6
CONTINUOUS
10
0.3593244094488189
20
3.4070288188976376
11
0.3611991732283464
21
3.4107783464566928
0
LINE
8
BLACK
6
CONTINUOUS
10
0.3611991732283464
20
3.4107783464566928
11
0.3618100787401575
21
3.4116020078740155
0
LINE
8
BLACK
6
CONTINUOUS
10
0.3618100787401575
20
3.4116020078740155
11
0.362215748031496
21
3.4117778740157481
0
LINE
8
BLACK
6
CONTINUOUS
10
0.362215748031496
20
3.4117778740157481
11
0.36251968503937
21
3.4120988582677163
0
LINE
8
BLACK
6
CONTINUOUS
10
0.36251968503937
20
3.4120988582677163
11
0.3662692125984252
21
3.4139736220472439
0
LINE
8
BLACK
6
CONTINUOUS
10
0.3662692125984252
20
3.4139736220472439
11
0.3672521259842519
21
3.4142659842519683
0
LINE
8
BLACK
6
CONTINUOUS
10
0.3672521259842519
20
3.4142659842519683
11
0.3674238188976378
21
3.4142250000000001
0
LINE
8
BLACK
6
CONTINUOUS
10
0.3674238188976378
20
3.4142250000000001
11
0.3675897244094488
21
3.4142853543307088
0
LINE
8
BLACK
6
CONTINUOUS
10
0.3675897244094488
20
3.4142853543307088
11
0.375088779527559
21
3.4142853543307088
0
LINE
8
BLACK
6
CONTINUOUS
10
0.375088779527559
20
3.4142853543307088
11
0.3760987007874015
21
3.4141072834645669
0
LINE
8
BLACK
6
CONTINUOUS
10
0.3660410236220472
20
3.4072570078740156
11
0.364918188976378
21
3.4050112598425195
0
LINE
8
BLACK
6
CONTINUOUS
10
0.364918188976378
20
3.4050112598425195
11
0.364918188976378
21
3.4018110629921261
0
LINE
8
BLACK
6
CONTINUOUS
10
0.364918188976378
20
3.4018110629921261
11
0.3777603149606299
21
3.4043794488188976
0
LINE
8
BLACK
6
CONTINUOUS
10
0.3777603149606299
20
3.4043794488188976
11
0.3777603149606299
21
3.4050112598425195
0
LINE
8
BLACK
6
CONTINUOUS
10
0.3777603149606299
20
3.4050112598425195
11
0.3766374409448819
21
3.4072570078740156
0
LINE
8
BLACK
6
CONTINUOUS
10
0.3766374409448819
20
3.4072570078740156
11
0.3743917322834646
21
3.4083798425196852
0
LINE
8
BLACK
6
CONTINUOUS
10
0.3743917322834646
20
3.4083798425196852
11
0.3682867716535433
21
3.4083798425196852
0
LINE
8
BLACK
6
CONTINUOUS
10
0.3682867716535433
20
3.4083798425196852
11
0.3660410236220472
21
3.4072570078740156
0
LINE
8
BLACK
6
CONTINUOUS
10
0.4435902755905512
20
3.4141072834645669
11
0.4437255118110236
21
3.4139938188976378
0
LINE
8
BLACK
6
CONTINUOUS
10
0.4437255118110236
20
3.4139938188976378
11
0.4439008661417323
21
3.4139736220472439
0
LINE
8
BLACK
6
CONTINUOUS
10
0.4439008661417323
20
3.4139736220472439
11
0.4476503937007874
21
3.4120988582677163
0
LINE
8
BLACK
6
CONTINUOUS
10
0.4476503937007874
20
3.4120988582677163
11
0.4484740551181102
21
3.4114879527559054
0
LINE
8
BLACK
6
CONTINUOUS
10
0.4484740551181102
20
3.4114879527559054
11
0.4492773228346457
21
3.4096347637795277
0
LINE
8
BLACK
6
CONTINUOUS
10
0.4492773228346457
20
3.4096347637795277
11
0.4487014566929134
21
3.4076987401574801
0
LINE
8
BLACK
6
CONTINUOUS
10
0.4487014566929134
20
3.4076987401574801
11
0.447015905511811
21
3.4065859055118111
0
LINE
8
BLACK
6
CONTINUOUS
10
0.447015905511811
20
3.4065859055118111
11
0.4450093700787401
21
3.4068168110236221
0
LINE
8
BLACK
6
CONTINUOUS
10
0.4450093700787401
20
3.4068168110236221
11
0.4418833070866142
21
3.4083798425196852
0
LINE
8
BLACK
6
CONTINUOUS
10
0.4418833070866142
20
3.4083798425196852
11
0.4376531102362204
21
3.4083798425196852
0
LINE
8
BLACK
6
CONTINUOUS
10
0.4376531102362204
20
3.4083798425196852
11
0.4354073622047244
21
3.4072570078740156
0
LINE
8
BLACK
6
CONTINUOUS
10
0.4354073622047244
20
3.4072570078740156
11
0.4342845275590551
21
3.4050112598425195
0
LINE
8
BLACK
6
CONTINUOUS
10
0.4342845275590551
20
3.4050112598425195
11
0.4342845275590551
21
3.4045305905511811
0
LINE
8
BLACK
6
CONTINUOUS
10
0.4342845275590551
20
3.4045305905511811
11
0.4354073622047244
21
3.4022848818897637
0
LINE
8
BLACK
6
CONTINUOUS
10
0.4354073622047244
20
3.4022848818897637
11
0.4376531102362204
21
3.4011620078740155
0
LINE
8
BLACK
6
CONTINUOUS
10
0.4376531102362204
20
3.4011620078740155
11
0.4425803543307086
21
3.4011620078740155
0
LINE
8
BLACK
6
CONTINUOUS
10
0.4425803543307086
20
3.4011620078740155
11
0.4435902755905512
21
3.400983937007874
0
LINE
8
BLACK
6
CONTINUOUS
10
0.4435902755905512
20
3.400983937007874
11
0.4437255118110236
21
3.4008704724409449
0
LINE
8
BLACK
6
CONTINUOUS
10
0.4437255118110236
20
3.4008704724409449
11
0.4439008661417323
21
3.400850275590551
0
LINE
8
BLACK
6
CONTINUOUS
10
0.4439008661417323
20
3.400850275590551
11
0.4476503937007874
21
3.3989755118110234
0
LINE
8
BLACK
6
CONTINUOUS
10
0.4476503937007874
20
3.3989755118110234
11
0.4484740551181102
21
3.3983646062992126
0
LINE
8
BLACK
6
CONTINUOUS
10
0.4484740551181102
20
3.3983646062992126
11
0.4486498818897638
21
3.397958937007874
0
LINE
8
BLACK
6
CONTINUOUS
10
0.4486498818897638
20
3.397958937007874
11
0.448970905511811
21
3.3976549999999999
0
LINE
8
BLACK
6
CONTINUOUS
10
0.448970905511811
20
3.3976549999999999
11
0.4508456692913386
21
3.3939054724409448
0
LINE
8
BLACK
6
CONTINUOUS
10
0.4508456692913386
20
3.3939054724409448
11
0.451138031496063
21
3.3929225590551182
0
LINE
8
BLACK
6
CONTINUOUS
10
0.451138031496063
20
3.3929225590551182
11
0.4510970078740157
21
3.392750866141732
0
LINE
8
BLACK
6
CONTINUOUS
10
0.4510970078740157
20
3.392750866141732
11
0.4511574015748032
21
3.3925849606299212
0
LINE
8
BLACK
6
CONTINUOUS
10
0.4511574015748032
20
3.3925849606299212
11
0.4511574015748032
21
3.3907101968503937
0
LINE
8
BLACK
6
CONTINUOUS
10
0.4511574015748032
20
3.3907101968503937
11
0.4509793307086614
21
3.3897002755905512
0
LINE
8
BLACK
6
CONTINUOUS
10
0.4509793307086614
20
3.3897002755905512
11
0.4508658267716535
21
3.3895650393700785
0
LINE
8
BLACK
6
CONTINUOUS
10
0.4508658267716535
20
3.3895650393700785
11
0.4508456692913386
21
3.3893896850393701
0
LINE
8
BLACK
6
CONTINUOUS
10
0.4508456692913386
20
3.3893896850393701
11
0.448970905511811
21
3.3856401181102362
0
LINE
8
BLACK
6
CONTINUOUS
10
0.448970905511811
20
3.3856401181102362
11
0.44836
21
3.3848164566929131
0
LINE
8
BLACK
6
CONTINUOUS
10
0.44836
20
3.3848164566929131
11
0.4479542913385827
21
3.3846406299212597
0
LINE
8
BLACK
6
CONTINUOUS
10
0.4479542913385827
20
3.3846406299212597
11
0.4476503937007874
21
3.3843196062992127
0
LINE
8
BLACK
6
CONTINUOUS
10
0.4476503937007874
20
3.3843196062992127
11
0.4439008661417323
21
3.3824448425196851
0
LINE
8
BLACK
6
CONTINUOUS
10
0.4439008661417323
20
3.3824448425196851
11
0.4429179133858268
21
3.3821524803149607
0
LINE
8
BLACK
6
CONTINUOUS
10
0.4429179133858268
20
3.3821524803149607
11
0.4427462204724409
21
3.3821935039370077
0
LINE
8
BLACK
6
CONTINUOUS
10
0.4427462204724409
20
3.3821935039370077
11
0.4425803543307086
21
3.3821331102362202
0
LINE
8
BLACK
6
CONTINUOUS
10
0.4425803543307086
20
3.3821331102362202
11
0.4350812992125984
21
3.3821331102362202
0
LINE
8
BLACK
6
CONTINUOUS
10
0.4350812992125984
20
3.3821331102362202
11
0.4340713779527559
21
3.3823111811023621
0
LINE
8
BLACK
6
CONTINUOUS
10
0.4340713779527559
20
3.3823111811023621
11
0.4339361023622047
21
3.38242468503937
0
LINE
8
BLACK
6
CONTINUOUS
10
0.4339361023622047
20
3.38242468503937
11
0.4337607874015748
21
3.3824448425196851
0
LINE
8
BLACK
6
CONTINUOUS
10
0.4337607874015748
20
3.3824448425196851
11
0.4300112598425197
21
3.3843196062992127
0
LINE
8
BLACK
6
CONTINUOUS
10
0.4300112598425197
20
3.3843196062992127
11
0.4291875984251968
21
3.3849305118110236
0
LINE
8
BLACK
6
CONTINUOUS
10
0.4291875984251968
20
3.3849305118110236
11
0.4283843307086614
21
3.3867837007874013
0
LINE
8
BLACK
6
CONTINUOUS
10
0.4283843307086614
20
3.3867837007874013
11
0.428960157480315
21
3.3887197244094489
0
LINE
8
BLACK
6
CONTINUOUS
10
0.428960157480315
20
3.3887197244094489
11
0.4306457086614173
21
3.3898325590551179
0
LINE
8
BLACK
6
CONTINUOUS
10
0.4306457086614173
20
3.3898325590551179
11
0.4326522834645669
21
3.3896016535433069
0
LINE
8
BLACK
6
CONTINUOUS
10
0.4326522834645669
20
3.3896016535433069
11
0.4357783464566929
21
3.3880386220472438
0
LINE
8
BLACK
6
CONTINUOUS
10
0.4357783464566929
20
3.3880386220472438
11
0.4418833070866142
21
3.3880386220472438
0
LINE
8
BLACK
6
CONTINUOUS
10
0.4418833070866142
20
3.3880386220472438
11
0.4441290157480315
21
3.3891614960629921
0
LINE
8
BLACK
6
CONTINUOUS
10
0.4441290157480315
20
3.3891614960629921
11
0.4452518897637795
21
3.3914072440944882
0
LINE
8
BLACK
6
CONTINUOUS
10
0.4452518897637795
20
3.3914072440944882
11
0.4452518897637795
21
3.3918879133858266
0
LINE
8
BLACK
6
CONTINUOUS
10
0.4452518897637795
20
3.3918879133858266
11
0.4441290157480315
21
3.3941336614173228
0
LINE
8
BLACK
6
CONTINUOUS
10
0.4441290157480315
20
3.3941336614173228
11
0.4418833070866142
21
3.3952564960629918
0
LINE
8
BLACK
6
CONTINUOUS
10
0.4418833070866142
20
3.3952564960629918
11
0.436956062992126
21
3.3952564960629918
0
LINE
8
BLACK
6
CONTINUOUS
10
0.436956062992126
20
3.3952564960629918
11
0.4359461417322835
21
3.3954345669291337
0
LINE
8
BLACK
6
CONTINUOUS
10
0.4359461417322835
20
3.3954345669291337
11
0.4358108661417323
21
3.3955480708661416
0
LINE
8
BLACK
6
CONTINUOUS
10
0.4358108661417323
20
3.3955480708661416
11
0.4356355511811024
21
3.3955682283464568
0
LINE
8
BLACK
6
CONTINUOUS
10
0.4356355511811024
20
3.3955682283464568
11
0.4318860236220473
21
3.3974429921259843
0
LINE
8
BLACK
6
CONTINUOUS
10
0.4318860236220473
20
3.3974429921259843
11
0.4310623622047244
21
3.3980538976377952
0
LINE
8
BLACK
6
CONTINUOUS
10
0.4310623622047244
20
3.3980538976377952
11
0.4308864960629921
21
3.3984596062992125
0
LINE
8
BLACK
6
CONTINUOUS
10
0.4308864960629921
20
3.3984596062992125
11
0.4305655118110236
21
3.3987635039370079
0
LINE
8
BLACK
6
CONTINUOUS
10
0.4305655118110236
20
3.3987635039370079
11
0.428690748031496
21
3.402513031496063
0
LINE
8
BLACK
6
CONTINUOUS
10
0.428690748031496
20
3.402513031496063
11
0.4283983858267716
21
3.4034959842519683
0
LINE
8
BLACK
6
CONTINUOUS
10
0.4283983858267716
20
3.4034959842519683
11
0.4284393700787402
21
3.4036676771653545
0
LINE
8
BLACK
6
CONTINUOUS
10
0.4284393700787402
20
3.4036676771653545
11
0.4283790157480315
21
3.4038335433070865
0
LINE
8
BLACK
6
CONTINUOUS
10
0.4283790157480315
20
3.4038335433070865
11
0.4283790157480315
21
3.4057083070866141
0
LINE
8
BLACK
6
CONTINUOUS
10
0.4283790157480315
20
3.4057083070866141
11
0.4285570866141732
21
3.4067182283464565
0
LINE
8
BLACK
6
CONTINUOUS
10
0.4285570866141732
20
3.4067182283464565
11
0.4286705511811024
21
3.4068535039370076
0
LINE
8
BLACK
6
CONTINUOUS
10
0.4286705511811024
20
3.4068535039370076
11
0.428690748031496
21
3.4070288188976376
0
LINE
8
BLACK
6
CONTINUOUS
10
0.428690748031496
20
3.4070288188976376
11
0.4305655118110236
21
3.4107783464566928
0
LINE
8
BLACK
6
CONTINUOUS
10
0.4305655118110236
20
3.4107783464566928
11
0.4311764173228346
21
3.4116020078740155
0
LINE
8
BLACK
6
CONTINUOUS
10
0.4311764173228346
20
3.4116020078740155
11
0.4315820866141732
21
3.4117778740157481
0
LINE
8
BLACK
6
CONTINUOUS
10
0.4315820866141732
20
3.4117778740157481
11
0.4318860236220473
21
3.4120988582677163
0
LINE
8
BLACK
6
CONTINUOUS
10
0.4318860236220473
20
3.4120988582677163
11
0.4356355511811024
21
3.4139736220472439
0
LINE
8
BLACK
6
CONTINUOUS
10
0.4356355511811024
20
3.4139736220472439
11
0.4366184645669291
21
3.4142659842519683
0
LINE
8
BLACK
6
CONTINUOUS
10
0.4366184645669291
20
3.4142659842519683
11
0.436790157480315
21
3.4142250000000001
0
LINE
8
BLACK
6
CONTINUOUS
10
0.436790157480315
20
3.4142250000000001
11
0.436956062992126
21
3.4142853543307088
0
LINE
8
BLACK
6
CONTINUOUS
10
0.436956062992126
20
3.4142853543307088
11
0.4425803543307086
21
3.4142853543307088
0
LINE
8
BLACK
6
CONTINUOUS
10
0.4425803543307086
20
3.4142853543307088
11
0.4435902755905512
21
3.4141072834645669
0
LINE
8
BLACK
6
CONTINUOUS
10
0.4960837007874015
20
3.4141072834645669
11
0.496218937007874
21
3.4139938188976378
0
LINE
8
BLACK
6
CONTINUOUS
10
0.496218937007874
20
3.4139938188976378
11
0.4963942913385826
21
3.4139736220472439
0
LINE
8
BLACK
6
CONTINUOUS
10
0.4963942913385826
20
3.4139736220472439
11
0.5001438188976378
21
3.4120988582677163
0
LINE
8
BLACK
6
CONTINUOUS
10
0.5001438188976378
20
3.4120988582677163
11
0.5008528740157481
21
3.4115729527559053
0
LINE
8
BLACK
6
CONTINUOUS
10
0.5008528740157481
20
3.4115729527559053
11
0.500911220472441
21
3.4115457480314961
0
LINE
8
BLACK
6
CONTINUOUS
10
0.500911220472441
20
3.4115457480314961
11
0.5027859842519685
21
3.4096709842519686
0
LINE
8
BLACK
6
CONTINUOUS
10
0.5027859842519685
20
3.4096709842519686
11
0.5032922440944881
21
3.4089479133858265
0
LINE
8
BLACK
6
CONTINUOUS
10
0.5032922440944881
20
3.4089479133858265
11
0.5033390944881889
21
3.4089035826771652
0
LINE
8
BLACK
6
CONTINUOUS
10
0.5033390944881889
20
3.4089035826771652
11
0.5052138582677165
21
3.4051540551181101
0
LINE
8
BLACK
6
CONTINUOUS
10
0.5052138582677165
20
3.4051540551181101
11
0.505506220472441
21
3.4041711417322835
0
LINE
8
BLACK
6
CONTINUOUS
10
0.505506220472441
20
3.4041711417322835
11
0.5054651968503937
21
3.4039994488188974
0
LINE
8
BLACK
6
CONTINUOUS
10
0.5054651968503937
20
3.4039994488188974
11
0.5055255905511811
21
3.4038335433070865
0
LINE
8
BLACK
6
CONTINUOUS
10
0.5055255905511811
20
3.4038335433070865
11
0.5055255905511811
21
3.3925849606299212
0
LINE
8
BLACK
6
CONTINUOUS
10
0.5055255905511811
20
3.3925849606299212
11
0.5053475196850393
21
3.3915750393700788
0
LINE
8
BLACK
6
CONTINUOUS
10
0.5053475196850393
20
3.3915750393700788
11
0.5052340157480315
21
3.391439803149606
0
LINE
8
BLACK
6
CONTINUOUS
10
0.5052340157480315
20
3.391439803149606
11
0.5052138582677165
21
3.3912644488188977
0
LINE
8
BLACK
6
CONTINUOUS
10
0.5052138582677165
20
3.3912644488188977
11
0.5033390944881889
21
3.3875149212598425
0
LINE
8
BLACK
6
CONTINUOUS
10
0.5033390944881889
20
3.3875149212598425
11
0.5028131496062992
21
3.3868058661417324
0
LINE
8
BLACK
6
CONTINUOUS
10
0.5028131496062992
20
3.3868058661417324
11
0.5027859842519685
21
3.3867475196850392
0
LINE
8
BLACK
6
CONTINUOUS
10
0.5027859842519685
20
3.3867475196850392
11
0.5009112598425197
21
3.3848727559055116
0
LINE
8
BLACK
6
CONTINUOUS
10
0.5009112598425197
20
3.3848727559055116
11
0.5001880708661417
21
3.3843663779527557
0
LINE
8
BLACK
6
CONTINUOUS
10
0.5001880708661417
20
3.3843663779527557
11
0.5001438188976378
21
3.3843196062992127
0
LINE
8
BLACK
6
CONTINUOUS
10
0.5001438188976378
20
3.3843196062992127
11
0.4963942913385826
21
3.3824448425196851
0
LINE
8
BLACK
6
CONTINUOUS
10
0.4963942913385826
20
3.3824448425196851
11
0.4954113385826772
21
3.3821524803149607
0
LINE
8
BLACK
6
CONTINUOUS
10
0.4954113385826772
20
3.3821524803149607
11
0.4952396456692914
21
3.3821935039370077
0
LINE
8
BLACK
6
CONTINUOUS
10
0.4952396456692914
20
3.3821935039370077
11
0.495073779527559
21
3.3821331102362202
0
LINE
8
BLACK
6
CONTINUOUS
10
0.495073779527559
20
3.3821331102362202
11
0.4894494881889764
21
3.3821331102362202
0
LINE
8
BLACK
6
CONTINUOUS
10
0.4894494881889764
20
3.3821331102362202
11
0.4884395669291339
21
3.3823111811023621
0
LINE
8
BLACK
6
CONTINUOUS
10
0.4884395669291339
20
3.3823111811023621
11
0.4883042913385827
21
3.38242468503937
0
LINE
8
BLACK
6
CONTINUOUS
10
0.4883042913385827
20
3.38242468503937
11
0.4881289763779528
21
3.3824448425196851
0
LINE
8
BLACK
6
CONTINUOUS
10
0.4881289763779528
20
3.3824448425196851
11
0.4843794488188976
21
3.3843196062992127
0
LINE
8
BLACK
6
CONTINUOUS
10
0.4843794488188976
20
3.3843196062992127
11
0.4836703149606299
21
3.3848455905511812
0
LINE
8
BLACK
6
CONTINUOUS
10
0.4836703149606299
20
3.3848455905511812
11
0.4836120078740158
21
3.3848727559055116
0
LINE
8
BLACK
6
CONTINUOUS
10
0.4836120078740158
20
3.3848727559055116
11
0.4817372440944882
21
3.3867475590551179
0
LINE
8
BLACK
6
CONTINUOUS
10
0.4817372440944882
20
3.3867475590551179
11
0.4812309448818898
21
3.3874706299212596
0
LINE
8
BLACK
6
CONTINUOUS
10
0.4812309448818898
20
3.3874706299212596
11
0.4811841732283464
21
3.3875149212598425
0
LINE
8
BLACK
6
CONTINUOUS
10
0.4811841732283464
20
3.3875149212598425
11
0.4793094094488189
21
3.3912644488188977
0
LINE
8
BLACK
6
CONTINUOUS
10
0.4793094094488189
20
3.3912644488188977
11
0.4790170472440945
21
3.392247401574803
0
LINE
8
BLACK
6
CONTINUOUS
10
0.4790170472440945
20
3.392247401574803
11
0.479058031496063
21
3.3924190944881887
0
LINE
8
BLACK
6
CONTINUOUS
10
0.479058031496063
20
3.3924190944881887
11
0.4789976771653543
21
3.3925849606299212
0
LINE
8
BLACK
6
CONTINUOUS
10
0.4789976771653543
20
3.3925849606299212
11
0.4789976771653543
21
3.4038335433070865
0
LINE
8
BLACK
6
CONTINUOUS
10
0.4789976771653543
20
3.4038335433070865
11
0.479175748031496
21
3.404843464566929
0
LINE
8
BLACK
6
CONTINUOUS
10
0.479175748031496
20
3.404843464566929
11
0.4792892125984252
21
3.40497874015748
0
LINE
8
BLACK
6
CONTINUOUS
10
0.4792892125984252
20
3.40497874015748
11
0.4793094094488189
21
3.4051540551181101
0
LINE
8
BLACK
6
CONTINUOUS
10
0.4793094094488189
20
3.4051540551181101
11
0.4811841732283464
21
3.4089035826771652
0
LINE
8
BLACK
6
CONTINUOUS
10
0.4811841732283464
20
3.4089035826771652
11
0.4817100787401575
21
3.4096126771653541
0
LINE
8
BLACK
6
CONTINUOUS
10
0.4817100787401575
20
3.4096126771653541
11
0.4817372834645669
21
3.4096709842519686
0
LINE
8
BLACK
6
CONTINUOUS
10
0.4817372834645669
20
3.4096709842519686
11
0.4836120472440945
21
3.4115457480314961
0
LINE
8
BLACK
6
CONTINUOUS
10
0.4836120472440945
20
3.4115457480314961
11
0.4843351181102362
21
3.4120520472440945
0
LINE
8
BLACK
6
CONTINUOUS
10
0.4843351181102362
20
3.4120520472440945
11
0.4843794488188976
21
3.4120988582677163
0
LINE
8
BLACK
6
CONTINUOUS
10
0.4843794488188976
20
3.4120988582677163
11
0.4881289763779528
21
3.4139736220472439
0
LINE
8
BLACK
6
CONTINUOUS
10
0.4881289763779528
20
3.4139736220472439
11
0.4891118897637795
21
3.4142659842519683
0
LINE
8
BLACK
6
CONTINUOUS
10
0.4891118897637795
20
3.4142659842519683
11
0.4892835826771653
21
3.4142250000000001
0
LINE
8
BLACK
6
CONTINUOUS
10
0.4892835826771653
20
3.4142250000000001
11
0.4894494881889764
21
3.4142853543307088
0
LINE
8
BLACK
6
CONTINUOUS
10
0.4894494881889764
20
3.4142853543307088
11
0.495073779527559
21
3.4142853543307088
0
LINE
8
BLACK
6
CONTINUOUS
10
0.495073779527559
20
3.4142853543307088
11
0.4960837007874015
21
3.4141072834645669
0
LINE
8
BLACK
6
CONTINUOUS
10
0.4874490551181102
20
3.4070311023622049
11
0.4862519291338582
21
3.4058339763779526
0
LINE
8
BLACK
6
CONTINUOUS
10
0.4862519291338582
20
3.4058339763779526
11
0.484903188976378
21
3.403136496062992
0
LINE
8
BLACK
6
CONTINUOUS
10
0.484903188976378
20
3.403136496062992
11
0.484903188976378
21
3.3932820078740158
0
LINE
8
BLACK
6
CONTINUOUS
10
0.484903188976378
20
3.3932820078740158
11
0.4862519291338582
21
3.3905845275590552
0
LINE
8
BLACK
6
CONTINUOUS
10
0.4862519291338582
20
3.3905845275590552
11
0.4874490551181102
21
3.3893873622047241
0
LINE
8
BLACK
6
CONTINUOUS
10
0.4874490551181102
20
3.3893873622047241
11
0.4901465354330709
21
3.3880386220472438
0
LINE
8
BLACK
6
CONTINUOUS
10
0.4901465354330709
20
3.3880386220472438
11
0.4943767322834646
21
3.3880386220472438
0
LINE
8
BLACK
6
CONTINUOUS
10
0.4943767322834646
20
3.3880386220472438
11
0.4970741732283465
21
3.3893873622047241
0
LINE
8
BLACK
6
CONTINUOUS
10
0.4970741732283465
20
3.3893873622047241
11
0.4982712992125984
21
3.3905845275590552
0
LINE
8
BLACK
6
CONTINUOUS
10
0.4982712992125984
20
3.3905845275590552
11
0.4996200787401575
21
3.3932820078740158
0
LINE
8
BLACK
6
CONTINUOUS
10
0.4996200787401575
20
3.3932820078740158
11
0.4996200787401575
21
3.403136496062992
0
LINE
8
BLACK
6
CONTINUOUS
10
0.4996200787401575
20
3.403136496062992
11
0.4982713385826771
21
3.4058339763779526
0
LINE
8
BLACK
6
CONTINUOUS
10
0.4982713385826771
20
3.4058339763779526
11
0.4970742125984252
21
3.4070311023622049
0
LINE
8
BLACK
6
CONTINUOUS
10
0.4970742125984252
20
3.4070311023622049
11
0.4943767322834646
21
3.4083798425196852
0
LINE
8
BLACK
6
CONTINUOUS
10
0.4943767322834646
20
3.4083798425196852
11
0.4901465354330709
21
3.4083798425196852
0
LINE
8
BLACK
6
CONTINUOUS
10
0.4901465354330709
20
3.4083798425196852
11
0.4874490551181102
21
3.4070311023622049
0
LINE
8
BLACK
6
CONTINUOUS
10
0.5654500393700788
20
3.4141072834645669
11
0.5655852755905512
21
3.4139938188976378
0
LINE
8
BLACK
6
CONTINUOUS
10
0.5655852755905512
20
3.4139938188976378
11
0.5657606299212599
21
3.4139736220472439
0
LINE
8
BLACK
6
CONTINUOUS
10
0.5657606299212599
20
3.4139736220472439
11
0.569510157480315
21
3.4120988582677163
0
LINE
8
BLACK
6
CONTINUOUS
10
0.569510157480315
20
3.4120988582677163
11
0.5703338188976378
21
3.4114879527559054
0
LINE
8
BLACK
6
CONTINUOUS
10
0.5703338188976378
20
3.4114879527559054
11
0.5711370866141732
21
3.4096347637795277
0
LINE
8
BLACK
6
CONTINUOUS
10
0.5711370866141732
20
3.4096347637795277
11
0.570561220472441
21
3.4076987401574801
0
LINE
8
BLACK
6
CONTINUOUS
10
0.570561220472441
20
3.4076987401574801
11
0.5688756692913386
21
3.4065859055118111
0
LINE
8
BLACK
6
CONTINUOUS
10
0.5688756692913386
20
3.4065859055118111
11
0.5668691338582676
21
3.4068168110236221
0
LINE
8
BLACK
6
CONTINUOUS
10
0.5668691338582676
20
3.4068168110236221
11
0.5637430708661417
21
3.4083798425196852
0
LINE
8
BLACK
6
CONTINUOUS
10
0.5637430708661417
20
3.4083798425196852
11
0.559512874015748
21
3.4083798425196852
0
LINE
8
BLACK
6
CONTINUOUS
10
0.559512874015748
20
3.4083798425196852
11
0.557267125984252
21
3.4072570078740156
0
LINE
8
BLACK
6
CONTINUOUS
10
0.557267125984252
20
3.4072570078740156
11
0.5561442913385827
21
3.4050112598425195
0
LINE
8
BLACK
6
CONTINUOUS
10
0.5561442913385827
20
3.4050112598425195
11
0.5561442913385827
21
3.4045305905511811
0
LINE
8
BLACK
6
CONTINUOUS
10
0.5561442913385827
20
3.4045305905511811
11
0.557267125984252
21
3.4022848818897637
0
LINE
8
BLACK
6
CONTINUOUS
10
0.557267125984252
20
3.4022848818897637
11
0.559512874015748
21
3.4011620078740155
0
LINE
8
BLACK
6
CONTINUOUS
10
0.559512874015748
20
3.4011620078740155
11
0.5644401181102362
21
3.4011620078740155
0
LINE
8
BLACK
6
CONTINUOUS
10
0.5644401181102362
20
3.4011620078740155
11
0.5654500393700788
21
3.400983937007874
0
LINE
8
BLACK
6
CONTINUOUS
10
0.5654500393700788
20
3.400983937007874
11
0.5655852755905512
21
3.4008704724409449
0
LINE
8
BLACK
6
CONTINUOUS
10
0.5655852755905512
20
3.4008704724409449
11
0.5657606299212599
21
3.400850275590551
0
LINE
8
BLACK
6
CONTINUOUS
10
0.5657606299212599
20
3.400850275590551
11
0.569510157480315
21
3.3989755118110234
0
LINE
8
BLACK
6
CONTINUOUS
10
0.569510157480315
20
3.3989755118110234
11
0.5703338188976378
21
3.3983646062992126
0
LINE
8
BLACK
6
CONTINUOUS
10
0.5703338188976378
20
3.3983646062992126
11
0.5705096456692913
21
3.397958937007874
0
LINE
8
BLACK
6
CONTINUOUS
10
0.5705096456692913
20
3.397958937007874
11
0.5708306692913385
21
3.3976549999999999
0
LINE
8
BLACK
6
CONTINUOUS
10
0.5708306692913385
20
3.3976549999999999
11
0.5727054330708661
21
3.3939054724409448
0
LINE
8
BLACK
6
CONTINUOUS
10
0.5727054330708661
20
3.3939054724409448
11
0.5729977952755906
21
3.3929225590551182
0
LINE
8
BLACK
6
CONTINUOUS
10
0.5729977952755906
20
3.3929225590551182
11
0.5729567716535433
21
3.392750866141732
0
LINE
8
BLACK
6
CONTINUOUS
10
0.5729567716535433
20
3.392750866141732
11
0.5730171653543307
21
3.3925849606299212
0
LINE
8
BLACK
6
CONTINUOUS
10
0.5730171653543307
20
3.3925849606299212
11
0.5730171653543307
21
3.3907101968503937
0
LINE
8
BLACK
6
CONTINUOUS
10
0.5730171653543307
20
3.3907101968503937
11
0.5728390944881889
21
3.3897002755905512
0
LINE
8
BLACK
6
CONTINUOUS
10
0.5728390944881889
20
3.3897002755905512
11
0.5727255905511811
21
3.3895650393700785
0
LINE
8
BLACK
6
CONTINUOUS
10
0.5727255905511811
20
3.3895650393700785
11
0.5727054330708661
21
3.3893896850393701
0
LINE
8
BLACK
6
CONTINUOUS
10
0.5727054330708661
20
3.3893896850393701
11
0.5708306692913385
21
3.3856401181102362
0
LINE
8
BLACK
6
CONTINUOUS
10
0.5708306692913385
20
3.3856401181102362
11
0.5702197637795275
21
3.3848164566929131
0
LINE
8
BLACK
6
CONTINUOUS
10
0.5702197637795275
20
3.3848164566929131
11
0.5698140551181102
21
3.3846406299212597
0
LINE
8
BLACK
6
CONTINUOUS
10
0.5698140551181102
20
3.3846406299212597
11
0.569510157480315
21
3.3843196062992127
0
LINE
8
BLACK
6
CONTINUOUS
10
0.569510157480315
20
3.3843196062992127
11
0.5657606299212599
21
3.3824448425196851
0
LINE
8
BLACK
6
CONTINUOUS
10
0.5657606299212599
20
3.3824448425196851
11
0.5647776771653543
21
3.3821524803149607
0
LINE
8
BLACK
6
CONTINUOUS
10
0.5647776771653543
20
3.3821524803149607
11
0.5646059842519685
21
3.3821935039370077
0
LINE
8
BLACK
6
CONTINUOUS
10
0.5646059842519685
20
3.3821935039370077
11
0.5644401181102362
21
3.3821331102362202
0
LINE
8
BLACK
6
CONTINUOUS
10
0.5644401181102362
20
3.3821331102362202
11
0.556941062992126
21
3.3821331102362202
0
LINE
8
BLACK
6
CONTINUOUS
10
0.556941062992126
20
3.3821331102362202
11
0.5559311417322834
21
3.3823111811023621
0
LINE
8
BLACK
6
CONTINUOUS
10
0.5559311417322834
20
3.3823111811023621
11
0.5557958661417323
21
3.38242468503937
0
LINE
8
BLACK
6
CONTINUOUS
10
0.5557958661417323
20
3.38242468503937
11
0.5556205511811023
21
3.3824448425196851
0
LINE
8
BLACK
6
CONTINUOUS
10
0.5556205511811023
20
3.3824448425196851
11
0.5518710236220472
21
3.3843196062992127
0
LINE
8
BLACK
6
CONTINUOUS
10
0.5518710236220472
20
3.3843196062992127
11
0.5510473622047244
21
3.3849305118110236
0
LINE
8
BLACK
6
CONTINUOUS
10
0.5510473622047244
20
3.3849305118110236
11
0.550244094488189
21
3.3867837007874013
0
LINE
8
BLACK
6
CONTINUOUS
10
0.550244094488189
20
3.3867837007874013
11
0.5508199212598425
21
3.3887197244094489
0
LINE
8
BLACK
6
CONTINUOUS
10
0.5508199212598425
20
3.3887197244094489
11
0.5525054724409448
21
3.3898325590551179
0
LINE
8
BLACK
6
CONTINUOUS
10
0.5525054724409448
20
3.3898325590551179
11
0.5545120472440945
21
3.3896016535433069
0
LINE
8
BLACK
6
CONTINUOUS
10
0.5545120472440945
20
3.3896016535433069
11
0.5576381102362205
21
3.3880386220472438
0
LINE
8
BLACK
6
CONTINUOUS
10
0.5576381102362205
20
3.3880386220472438
11
0.5637430708661417
21
3.3880386220472438
0
LINE
8
BLACK
6
CONTINUOUS
10
0.5637430708661417
20
3.3880386220472438
11
0.565988779527559
21
3.3891614960629921
0
LINE
8
BLACK
6
CONTINUOUS
10
0.565988779527559
20
3.3891614960629921
11
0.5671116535433071
21
3.3914072440944882
0
LINE
8
BLACK
6
CONTINUOUS
10
0.5671116535433071
20
3.3914072440944882
11
0.5671116535433071
21
3.3918879133858266
0
LINE
8
BLACK
6
CONTINUOUS
10
0.5671116535433071
20
3.3918879133858266
11
0.565988779527559
21
3.3941336614173228
0
LINE
8
BLACK
6
CONTINUOUS
10
0.565988779527559
20
3.3941336614173228
11
0.5637430708661417
21
3.3952564960629918
0
LINE
8
BLACK
6
CONTINUOUS
10
0.5637430708661417
20
3.3952564960629918
11
0.5588158267716535
21
3.3952564960629918
0
LINE
8
BLACK
6
CONTINUOUS
10
0.5588158267716535
20
3.3952564960629918
11
0.557805905511811
21
3.3954345669291337
0
LINE
8
BLACK
6
CONTINUOUS
10
0.557805905511811
20
3.3954345669291337
11
0.5576706299212598
21
3.3955480708661416
0
LINE
8
BLACK
6
CONTINUOUS
10
0.5576706299212598
20
3.3955480708661416
11
0.5574953149606299
21
3.3955682283464568
0
LINE
8
BLACK
6
CONTINUOUS
10
0.5574953149606299
20
3.3955682283464568
11
0.5537457874015748
21
3.3974429921259843
0
LINE
8
BLACK
6
CONTINUOUS
10
0.5537457874015748
20
3.3974429921259843
11
0.5529221259842519
21
3.3980538976377952
0
LINE
8
BLACK
6
CONTINUOUS
10
0.5529221259842519
20
3.3980538976377952
11
0.5527462598425197
21
3.3984596062992125
0
LINE
8
BLACK
6
CONTINUOUS
10
0.5527462598425197
20
3.3984596062992125
11
0.5524252755905512
21
3.3987635039370079
0
LINE
8
BLACK
6
CONTINUOUS
10
0.5524252755905512
20
3.3987635039370079
11
0.5505505118110237
21
3.402513031496063
0
LINE
8
BLACK
6
CONTINUOUS
10
0.5505505118110237
20
3.402513031496063
11
0.5502581496062992
21
3.4034959842519683
0
LINE
8
BLACK
6
CONTINUOUS
10
0.5502581496062992
20
3.4034959842519683
11
0.5502991338582677
21
3.4036676771653545
0
LINE
8
BLACK
6
CONTINUOUS
10
0.5502991338582677
20
3.4036676771653545
11
0.5502387795275591
21
3.4038335433070865
0
LINE
8
BLACK
6
CONTINUOUS
10
0.5502387795275591
20
3.4038335433070865
11
0.5502387795275591
21
3.4057083070866141
0
LINE
8
BLACK
6
CONTINUOUS
10
0.5502387795275591
20
3.4057083070866141
11
0.5504168503937008
21
3.4067182283464565
0
LINE
8
BLACK
6
CONTINUOUS
10
0.5504168503937008
20
3.4067182283464565
11
0.5505303149606299
21
3.4068535039370076
0
LINE
8
BLACK
6
CONTINUOUS
10
0.5505303149606299
20
3.4068535039370076
11
0.5505505118110237
21
3.4070288188976376
0
LINE
8
BLACK
6
CONTINUOUS
10
0.5505505118110237
20
3.4070288188976376
11
0.5524252755905512
21
3.4107783464566928
0
LINE
8
BLACK
6
CONTINUOUS
10
0.5524252755905512
20
3.4107783464566928
11
0.5530361811023622
21
3.4116020078740155
0
LINE
8
BLACK
6
CONTINUOUS
10
0.5530361811023622
20
3.4116020078740155
11
0.5534418503937008
21
3.4117778740157481
0
LINE
8
BLACK
6
CONTINUOUS
10
0.5534418503937008
20
3.4117778740157481
11
0.5537457874015748
21
3.4120988582677163
0
LINE
8
BLACK
6
CONTINUOUS
10
0.5537457874015748
20
3.4120988582677163
11
0.5574953149606299
21
3.4139736220472439
0
LINE
8
BLACK
6
CONTINUOUS
10
0.5574953149606299
20
3.4139736220472439
11
0.5584782283464567
21
3.4142659842519683
0
LINE
8
BLACK
6
CONTINUOUS
10
0.5584782283464567
20
3.4142659842519683
11
0.5586499212598425
21
3.4142250000000001
0
LINE
8
BLACK
6
CONTINUOUS
10
0.5586499212598425
20
3.4142250000000001
11
0.5588158267716535
21
3.4142853543307088
0
LINE
8
BLACK
6
CONTINUOUS
10
0.5588158267716535
20
3.4142853543307088
11
0.5644401181102362
21
3.4142853543307088
0
LINE
8
BLACK
6
CONTINUOUS
10
0.5644401181102362
20
3.4142853543307088
11
0.5654500393700788
21
3.4141072834645669
0
LINE
8
BLACK
6
CONTINUOUS
10
0.0255175196850394
20
3.4141072834645669
11
0.0256527559055118
21
3.4139938188976378
0
LINE
8
BLACK
6
CONTINUOUS
10
0.0256527559055118
20
3.4139938188976378
11
0.0258281102362205
21
3.4139736220472439
0
LINE
8
BLACK
6
CONTINUOUS
10
0.0258281102362205
20
3.4139736220472439
11
0.0295776377952756
21
3.4120988582677163
0
LINE
8
BLACK
6
CONTINUOUS
10
0.0295776377952756
20
3.4120988582677163
11
0.0301475590551181
21
3.4116761811023619
0
LINE
8
BLACK
6
CONTINUOUS
10
0.0301475590551181
20
3.4116761811023619
11
0.0303822047244094
21
3.4117778740157481
0
LINE
8
BLACK
6
CONTINUOUS
10
0.0303822047244094
20
3.4117778740157481
11
0.0306861417322835
21
3.4120988582677163
0
LINE
8
BLACK
6
CONTINUOUS
10
0.0306861417322835
20
3.4120988582677163
11
0.0344356692913386
21
3.4139736220472439
0
LINE
8
BLACK
6
CONTINUOUS
10
0.0344356692913386
20
3.4139736220472439
11
0.0354185826771654
21
3.4142659842519683
0
LINE
8
BLACK
6
CONTINUOUS
10
0.0354185826771654
20
3.4142659842519683
11
0.0355902755905512
21
3.4142250000000001
0
LINE
8
BLACK
6
CONTINUOUS
10
0.0355902755905512
20
3.4142250000000001
11
0.0357561811023622
21
3.4142853543307088
0
LINE
8
BLACK
6
CONTINUOUS
10
0.0357561811023622
20
3.4142853543307088
11
0.0413804724409449
21
3.4142853543307088
0
LINE
8
BLACK
6
CONTINUOUS
10
0.0413804724409449
20
3.4142853543307088
11
0.0423903937007874
21
3.4141072834645669
0
LINE
8
BLACK
6
CONTINUOUS
10
0.0423903937007874
20
3.4141072834645669
11
0.0425256299212598
21
3.4139938188976378
0
LINE
8
BLACK
6
CONTINUOUS
10
0.0425256299212598
20
3.4139938188976378
11
0.0427009842519685
21
3.4139736220472439
0
LINE
8
BLACK
6
CONTINUOUS
10
0.0427009842519685
20
3.4139736220472439
11
0.0464505511811024
21
3.4120988582677163
0
LINE
8
BLACK
6
CONTINUOUS
10
0.0464505511811024
20
3.4120988582677163
11
0.0472742125984252
21
3.4114879527559054
0
LINE
8
BLACK
6
CONTINUOUS
10
0.0472742125984252
20
3.4114879527559054
11
0.0474500393700787
21
3.4110822834645669
0
LINE
8
BLACK
6
CONTINUOUS
10
0.0474500393700787
20
3.4110822834645669
11
0.047771062992126
21
3.4107783464566928
0
LINE
8
BLACK
6
CONTINUOUS
10
0.047771062992126
20
3.4107783464566928
11
0.0496458267716535
21
3.4070288188976376
0
LINE
8
BLACK
6
CONTINUOUS
10
0.0496458267716535
20
3.4070288188976376
11
0.049938188976378
21
3.4060459055118111
0
LINE
8
BLACK
6
CONTINUOUS
10
0.049938188976378
20
3.4060459055118111
11
0.0498971653543307
21
3.4058742125984249
0
LINE
8
BLACK
6
CONTINUOUS
10
0.0498971653543307
20
3.4058742125984249
11
0.0499575590551181
21
3.4057083070866141
0
LINE
8
BLACK
6
CONTINUOUS
10
0.0499575590551181
20
3.4057083070866141
11
0.0499575590551181
21
3.3850858661417322
0
LINE
8
BLACK
6
CONTINUOUS
10
0.0499575590551181
20
3.3850858661417322
11
0.0497794881889764
21
3.3840759448818898
0
LINE
8
BLACK
6
CONTINUOUS
10
0.0497794881889764
20
3.3840759448818898
11
0.0484811811023622
21
3.3825287007874016
0
LINE
8
BLACK
6
CONTINUOUS
10
0.0484811811023622
20
3.3825287007874016
11
0.0464920472440945
21
3.3821779527559053
0
LINE
8
BLACK
6
CONTINUOUS
10
0.0464920472440945
20
3.3821779527559053
11
0.044742874015748
21
3.3831878740157482
0
LINE
8
BLACK
6
CONTINUOUS
10
0.044742874015748
20
3.3831878740157482
11
0.0440520472440945
21
3.3850858661417322
0
LINE
8
BLACK
6
CONTINUOUS
10
0.0440520472440945
20
3.3850858661417322
11
0.0440520472440945
21
3.4050112598425195
0
LINE
8
BLACK
6
CONTINUOUS
10
0.0440520472440945
20
3.4050112598425195
11
0.0429291732283465
21
3.4072570078740156
0
LINE
8
BLACK
6
CONTINUOUS
10
0.0429291732283465
20
3.4072570078740156
11
0.0406834251968504
21
3.4083798425196852
0
LINE
8
BLACK
6
CONTINUOUS
10
0.0406834251968504
20
3.4083798425196852
11
0.0364532283464567
21
3.4083798425196852
0
LINE
8
BLACK
6
CONTINUOUS
10
0.0364532283464567
20
3.4083798425196852
11
0.0342074803149606
21
3.4072570078740156
0
LINE
8
BLACK
6
CONTINUOUS
10
0.0342074803149606
20
3.4072570078740156
11
0.0330846456692913
21
3.4050112598425195
0
LINE
8
BLACK
6
CONTINUOUS
10
0.0330846456692913
20
3.4050112598425195
11
0.0330846456692913
21
3.3850858661417322
0
LINE
8
BLACK
6
CONTINUOUS
10
0.0330846456692913
20
3.3850858661417322
11
0.0329065748031496
21
3.3840759448818898
0
LINE
8
BLACK
6
CONTINUOUS
10
0.0329065748031496
20
3.3840759448818898
11
0.0316082677165354
21
3.3825287007874016
0
LINE
8
BLACK
6
CONTINUOUS
10
0.0316082677165354
20
3.3825287007874016
11
0.0296191338582677
21
3.3821779527559053
0
LINE
8
BLACK
6
CONTINUOUS
10
0.0296191338582677
20
3.3821779527559053
11
0.0278699606299213
21
3.3831878740157482
0
LINE
8
BLACK
6
CONTINUOUS
10
0.0278699606299213
20
3.3831878740157482
11
0.0271791338582677
21
3.3850858661417322
0
LINE
8
BLACK
6
CONTINUOUS
10
0.0271791338582677
20
3.3850858661417322
11
0.0271791338582677
21
3.4050112598425195
0
LINE
8
BLACK
6
CONTINUOUS
10
0.0271791338582677
20
3.4050112598425195
11
0.0260562598425197
21
3.4072570078740156
0
LINE
8
BLACK
6
CONTINUOUS
10
0.0260562598425197
20
3.4072570078740156
11
0.0238105511811024
21
3.4083798425196852
0
LINE
8
BLACK
6
CONTINUOUS
10
0.0238105511811024
20
3.4083798425196852
11
0.0195803543307087
21
3.4083798425196852
0
LINE
8
BLACK
6
CONTINUOUS
10
0.0195803543307087
20
3.4083798425196852
11
0.016882874015748
21
3.4070311023622049
0
LINE
8
BLACK
6
CONTINUOUS
10
0.016882874015748
20
3.4070311023622049
11
0.0162117716535433
21
3.4063599999999998
0
LINE
8
BLACK
6
CONTINUOUS
10
0.0162117716535433
20
3.4063599999999998
11
0.0162117716535433
21
3.3850858661417322
0
LINE
8
BLACK
6
CONTINUOUS
10
0.0162117716535433
20
3.3850858661417322
11
0.0160337007874016
21
3.3840759448818898
0
LINE
8
BLACK
6
CONTINUOUS
10
0.0160337007874016
20
3.3840759448818898
11
0.0147353937007874
21
3.3825287007874016
0
LINE
8
BLACK
6
CONTINUOUS
10
0.0147353937007874
20
3.3825287007874016
11
0.0127462598425197
21
3.3821779527559053
0
LINE
8
BLACK
6
CONTINUOUS
10
0.0127462598425197
20
3.3821779527559053
11
0.0109970866141732
21
3.3831878740157482
0
LINE
8
BLACK
6
CONTINUOUS
10
0.0109970866141732
20
3.3831878740157482
11
0.0103062598425197
21
3.3850858661417322
0
LINE
8
BLACK
6
CONTINUOUS
10
0.0103062598425197
20
3.3850858661417322
11
0.0103062598425197
21
3.4113325984251968
0
LINE
8
BLACK
6
CONTINUOUS
10
0.0103062598425197
20
3.4113325984251968
11
0.0104843307086614
21
3.4123425196850392
0
LINE
8
BLACK
6
CONTINUOUS
10
0.0104843307086614
20
3.4123425196850392
11
0.0117826377952756
21
3.4138897637795274
0
LINE
8
BLACK
6
CONTINUOUS
10
0.0117826377952756
20
3.4138897637795274
11
0.0137717716535433
21
3.4142405118110237
0
LINE
8
BLACK
6
CONTINUOUS
10
0.0137717716535433
20
3.4142405118110237
11
0.0155209448818898
21
3.4132305905511808
0
LINE
8
BLACK
6
CONTINUOUS
10
0.0155209448818898
20
3.4132305905511808
11
0.0156064960629921
21
3.4129955118110233
0
LINE
8
BLACK
6
CONTINUOUS
10
0.0156064960629921
20
3.4129955118110233
11
0.0175627952755905
21
3.4139736220472439
0
LINE
8
BLACK
6
CONTINUOUS
10
0.0175627952755905
20
3.4139736220472439
11
0.0185457086614173
21
3.4142659842519683
0
LINE
8
BLACK
6
CONTINUOUS
10
0.0185457086614173
20
3.4142659842519683
11
0.0187174015748031
21
3.4142250000000001
0
LINE
8
BLACK
6
CONTINUOUS
10
0.0187174015748031
20
3.4142250000000001
11
0.0188833070866142
21
3.4142853543307088
0
LINE
8
BLACK
6
CONTINUOUS
10
0.0188833070866142
20
3.4142853543307088
11
0.0245075984251968
21
3.4142853543307088
0
LINE
8
BLACK
6
CONTINUOUS
10
0.0245075984251968
20
3.4142853543307088
11
0.0255175196850394
21
3.4141072834645669
0
LINE
8
BLACK
6
CONTINUOUS
10
0.294861062992126
20
3.4132305905511808
11
0.2955518897637795
21
3.4113325984251968
0
LINE
8
BLACK
6
CONTINUOUS
10
0.2955518897637795
20
3.4113325984251968
11
0.2955518897637795
21
3.3850858661417322
0
LINE
8
BLACK
6
CONTINUOUS
10
0.2955518897637795
20
3.3850858661417322
11
0.2953738188976378
21
3.3840759448818898
0
LINE
8
BLACK
6
CONTINUOUS
10
0.2953738188976378
20
3.3840759448818898
11
0.2940755118110236
21
3.3825287007874016
0
LINE
8
BLACK
6
CONTINUOUS
10
0.2940755118110236
20
3.3825287007874016
11
0.2920863779527559
21
3.3821779527559053
0
LINE
8
BLACK
6
CONTINUOUS
10
0.2920863779527559
20
3.3821779527559053
11
0.2903372047244094
21
3.3831878740157482
0
LINE
8
BLACK
6
CONTINUOUS
10
0.2903372047244094
20
3.3831878740157482
11
0.2896463779527559
21
3.3850858661417322
0
LINE
8
BLACK
6
CONTINUOUS
10
0.2896463779527559
20
3.3850858661417322
11
0.2896463779527559
21
3.4113325984251968
0
LINE
8
BLACK
6
CONTINUOUS
10
0.2896463779527559
20
3.4113325984251968
11
0.2898244488188976
21
3.4123425196850392
0
LINE
8
BLACK
6
CONTINUOUS
10
0.2898244488188976
20
3.4123425196850392
11
0.2911227559055118
21
3.4138897637795274
0
LINE
8
BLACK
6
CONTINUOUS
10
0.2911227559055118
20
3.4138897637795274
11
0.2931118897637795
21
3.4142405118110237
0
LINE
8
BLACK
6
CONTINUOUS
10
0.2931118897637795
20
3.4142405118110237
11
0.294861062992126
21
3.4132305905511808
0
LINE
8
BLACK
6
CONTINUOUS
10
0.3236052755905512
20
3.4141072834645669
11
0.3237405118110236
21
3.4139938188976378
0
LINE
8
BLACK
6
CONTINUOUS
10
0.3237405118110236
20
3.4139938188976378
11
0.3239158661417323
21
3.4139736220472439
0
LINE
8
BLACK
6
CONTINUOUS
10
0.3239158661417323
20
3.4139736220472439
11
0.3276653937007874
21
3.4120988582677163
0
LINE
8
BLACK
6
CONTINUOUS
10
0.3276653937007874
20
3.4120988582677163
11
0.3282353149606299
21
3.4116761811023619
0
LINE
8
BLACK
6
CONTINUOUS
10
0.3282353149606299
20
3.4116761811023619
11
0.3284699606299212
21
3.4117778740157481
0
LINE
8
BLACK
6
CONTINUOUS
10
0.3284699606299212
20
3.4117778740157481
11
0.3287738976377952
21
3.4120988582677163
0
LINE
8
BLACK
6
CONTINUOUS
10
0.3287738976377952
20
3.4120988582677163
11
0.3325234251968504
21
3.4139736220472439
0
LINE
8
BLACK
6
CONTINUOUS
10
0.3325234251968504
20
3.4139736220472439
11
0.3335063385826771
21
3.4142659842519683
0
LINE
8
BLACK
6
CONTINUOUS
10
0.3335063385826771
20
3.4142659842519683
11
0.333678031496063
21
3.4142250000000001
0
LINE
8
BLACK
6
CONTINUOUS
10
0.333678031496063
20
3.4142250000000001
11
0.333843937007874
21
3.4142853543307088
0
LINE
8
BLACK
6
CONTINUOUS
10
0.333843937007874
20
3.4142853543307088
11
0.3394682283464567
21
3.4142853543307088
0
LINE
8
BLACK
6
CONTINUOUS
10
0.3394682283464567
20
3.4142853543307088
11
0.3404781496062992
21
3.4141072834645669
0
LINE
8
BLACK
6
CONTINUOUS
10
0.3404781496062992
20
3.4141072834645669
11
0.3406133858267716
21
3.4139938188976378
0
LINE
8
BLACK
6
CONTINUOUS
10
0.3406133858267716
20
3.4139938188976378
11
0.3407887401574803
21
3.4139736220472439
0
LINE
8
BLACK
6
CONTINUOUS
10
0.3407887401574803
20
3.4139736220472439
11
0.3445383070866141
21
3.4120988582677163
0
LINE
8
BLACK
6
CONTINUOUS
10
0.3445383070866141
20
3.4120988582677163
11
0.345361968503937
21
3.4114879527559054
0
LINE
8
BLACK
6
CONTINUOUS
10
0.345361968503937
20
3.4114879527559054
11
0.3455377952755905
21
3.4110822834645669
0
LINE
8
BLACK
6
CONTINUOUS
10
0.3455377952755905
20
3.4110822834645669
11
0.3458588188976378
21
3.4107783464566928
0
LINE
8
BLACK
6
CONTINUOUS
10
0.3458588188976378
20
3.4107783464566928
11
0.3477335826771654
21
3.4070288188976376
0
LINE
8
BLACK
6
CONTINUOUS
10
0.3477335826771654
20
3.4070288188976376
11
0.3480259448818898
21
3.4060459055118111
0
LINE
8
BLACK
6
CONTINUOUS
10
0.3480259448818898
20
3.4060459055118111
11
0.3479849212598425
21
3.4058742125984249
0
LINE
8
BLACK
6
CONTINUOUS
10
0.3479849212598425
20
3.4058742125984249
11
0.3480453149606299
21
3.4057083070866141
0
LINE
8
BLACK
6
CONTINUOUS
10
0.3480453149606299
20
3.4057083070866141
11
0.3480453149606299
21
3.3850858661417322
0
LINE
8
BLACK
6
CONTINUOUS
10
0.3480453149606299
20
3.3850858661417322
11
0.3478672440944882
21
3.3840759448818898
0
LINE
8
BLACK
6
CONTINUOUS
10
0.3478672440944882
20
3.3840759448818898
11
0.346568937007874
21
3.3825287007874016
0
LINE
8
BLACK
6
CONTINUOUS
10
0.346568937007874
20
3.3825287007874016
11
0.3445798031496063
21
3.3821779527559053
0
LINE
8
BLACK
6
CONTINUOUS
10
0.3445798031496063
20
3.3821779527559053
11
0.3428306299212598
21
3.3831878740157482
0
LINE
8
BLACK
6
CONTINUOUS
10
0.3428306299212598
20
3.3831878740157482
11
0.3421398031496063
21
3.3850858661417322
0
LINE
8
BLACK
6
CONTINUOUS
10
0.3421398031496063
20
3.3850858661417322
11
0.3421398031496063
21
3.4050112598425195
0
LINE
8
BLACK
6
CONTINUOUS
10
0.3421398031496063
20
3.4050112598425195
11
0.3410169291338583
21
3.4072570078740156
0
LINE
8
BLACK
6
CONTINUOUS
10
0.3410169291338583
20
3.4072570078740156
11
0.3387711811023622
21
3.4083798425196852
0
LINE
8
BLACK
6
CONTINUOUS
10
0.3387711811023622
20
3.4083798425196852
11
0.3345409842519685
21
3.4083798425196852
0
LINE
8
BLACK
6
CONTINUOUS
10
0.3345409842519685
20
3.4083798425196852
11
0.3322952362204724
21
3.4072570078740156
0
LINE
8
BLACK
6
CONTINUOUS
10
0.3322952362204724
20
3.4072570078740156
11
0.3311724015748032
21
3.4050112598425195
0
LINE
8
BLACK
6
CONTINUOUS
10
0.3311724015748032
20
3.4050112598425195
11
0.3311724015748032
21
3.3850858661417322
0
LINE
8
BLACK
6
CONTINUOUS
10
0.3311724015748032
20
3.3850858661417322
11
0.3309943307086614
21
3.3840759448818898
0
LINE
8
BLACK
6
CONTINUOUS
10
0.3309943307086614
20
3.3840759448818898
11
0.3296960236220473
21
3.3825287007874016
0
LINE
8
BLACK
6
CONTINUOUS
10
0.3296960236220473
20
3.3825287007874016
11
0.3277068897637795
21
3.3821779527559053
0
LINE
8
BLACK
6
CONTINUOUS
10
0.3277068897637795
20
3.3821779527559053
11
0.325957716535433
21
3.3831878740157482
0
LINE
8
BLACK
6
CONTINUOUS
10
0.325957716535433
20
3.3831878740157482
11
0.3252668897637795
21
3.3850858661417322
0
LINE
8
BLACK
6
CONTINUOUS
10
0.3252668897637795
20
3.3850858661417322
11
0.3252668897637795
21
3.4050112598425195
0
LINE
8
BLACK
6
CONTINUOUS
10
0.3252668897637795
20
3.4050112598425195
11
0.3241440157480315
21
3.4072570078740156
0
LINE
8
BLACK
6
CONTINUOUS
10
0.3241440157480315
20
3.4072570078740156
11
0.3218983070866142
21
3.4083798425196852
0
LINE
8
BLACK
6
CONTINUOUS
10
0.3218983070866142
20
3.4083798425196852
11
0.3176681102362205
21
3.4083798425196852
0
LINE
8
BLACK
6
CONTINUOUS
10
0.3176681102362205
20
3.4083798425196852
11
0.3149706299212598
21
3.4070311023622049
0
LINE
8
BLACK
6
CONTINUOUS
10
0.3149706299212598
20
3.4070311023622049
11
0.3142995275590551
21
3.4063599999999998
0
LINE
8
BLACK
6
CONTINUOUS
10
0.3142995275590551
20
3.4063599999999998
11
0.3142995275590551
21
3.3850858661417322
0
LINE
8
BLACK
6
CONTINUOUS
10
0.3142995275590551
20
3.3850858661417322
11
0.3141214566929134
21
3.3840759448818898
0
LINE
8
BLACK
6
CONTINUOUS
10
0.3141214566929134
20
3.3840759448818898
11
0.3128231496062992
21
3.3825287007874016
0
LINE
8
BLACK
6
CONTINUOUS
10
0.3128231496062992
20
3.3825287007874016
11
0.3108340157480315
21
3.3821779527559053
0
LINE
8
BLACK
6
CONTINUOUS
10
0.3108340157480315
20
3.3821779527559053
11
0.309084842519685
21
3.3831878740157482
0
LINE
8
BLACK
6
CONTINUOUS
10
0.309084842519685
20
3.3831878740157482
11
0.3083940157480315
21
3.3850858661417322
0
LINE
8
BLACK
6
CONTINUOUS
10
0.3083940157480315
20
3.3850858661417322
11
0.3083940157480315
21
3.4113325984251968
0
LINE
8
BLACK
6
CONTINUOUS
10
0.3083940157480315
20
3.4113325984251968
11
0.3085720866141732
21
3.4123425196850392
0
LINE
8
BLACK
6
CONTINUOUS
10
0.3085720866141732
20
3.4123425196850392
11
0.3098703937007874
21
3.4138897637795274
0
LINE
8
BLACK
6
CONTINUOUS
10
0.3098703937007874
20
3.4138897637795274
11
0.3118595275590551
21
3.4142405118110237
0
LINE
8
BLACK
6
CONTINUOUS
10
0.3118595275590551
20
3.4142405118110237
11
0.3136087007874016
21
3.4132305905511808
0
LINE
8
BLACK
6
CONTINUOUS
10
0.3136087007874016
20
3.4132305905511808
11
0.3136942519685039
21
3.4129955118110233
0
LINE
8
BLACK
6
CONTINUOUS
10
0.3136942519685039
20
3.4129955118110233
11
0.3156505511811024
21
3.4139736220472439
0
LINE
8
BLACK
6
CONTINUOUS
10
0.3156505511811024
20
3.4139736220472439
11
0.3166334645669291
21
3.4142659842519683
0
LINE
8
BLACK
6
CONTINUOUS
10
0.3166334645669291
20
3.4142659842519683
11
0.316805157480315
21
3.4142250000000001
0
LINE
8
BLACK
6
CONTINUOUS
10
0.316805157480315
20
3.4142250000000001
11
0.316971062992126
21
3.4142853543307088
0
LINE
8
BLACK
6
CONTINUOUS
10
0.316971062992126
20
3.4142853543307088
11
0.3225953543307086
21
3.4142853543307088
0
LINE
8
BLACK
6
CONTINUOUS
10
0.3225953543307086
20
3.4142853543307088
11
0.3236052755905512
21
3.4141072834645669
0
LINE
8
BLACK
6
CONTINUOUS
10
0.4098444881889763
20
3.4141072834645669
11
0.4099797244094488
21
3.4139938188976378
0
LINE
8
BLACK
6
CONTINUOUS
10
0.4099797244094488
20
3.4139938188976378
11
0.4101550787401575
21
3.4139736220472439
0
LINE
8
BLACK
6
CONTINUOUS
10
0.4101550787401575
20
3.4139736220472439
11
0.4139046062992126
21
3.4120988582677163
0
LINE
8
BLACK
6
CONTINUOUS
10
0.4139046062992126
20
3.4120988582677163
11
0.4147282677165354
21
3.4114879527559054
0
LINE
8
BLACK
6
CONTINUOUS
10
0.4147282677165354
20
3.4114879527559054
11
0.414904094488189
21
3.4110822834645669
0
LINE
8
BLACK
6
CONTINUOUS
10
0.414904094488189
20
3.4110822834645669
11
0.4152251181102362
21
3.4107783464566928
0
LINE
8
BLACK
6
CONTINUOUS
10
0.4152251181102362
20
3.4107783464566928
11
0.4170998818897638
21
3.4070288188976376
0
LINE
8
BLACK
6
CONTINUOUS
10
0.4170998818897638
20
3.4070288188976376
11
0.4173922440944882
21
3.4060459055118111
0
LINE
8
BLACK
6
CONTINUOUS
10
0.4173922440944882
20
3.4060459055118111
11
0.4173512204724409
21
3.4058742125984249
0
LINE
8
BLACK
6
CONTINUOUS
10
0.4173512204724409
20
3.4058742125984249
11
0.4174116141732284
21
3.4057083070866141
0
LINE
8
BLACK
6
CONTINUOUS
10
0.4174116141732284
20
3.4057083070866141
11
0.4174116141732284
21
3.3850858661417322
0
LINE
8
BLACK
6
CONTINUOUS
10
0.4174116141732284
20
3.3850858661417322
11
0.4172335433070866
21
3.3840759448818898
0
LINE
8
BLACK
6
CONTINUOUS
10
0.4172335433070866
20
3.3840759448818898
11
0.4159352362204724
21
3.3825287007874016
0
LINE
8
BLACK
6
CONTINUOUS
10
0.4159352362204724
20
3.3825287007874016
11
0.4139461023622047
21
3.3821779527559053
0
LINE
8
BLACK
6
CONTINUOUS
10
0.4139461023622047
20
3.3821779527559053
11
0.4121969291338582
21
3.3831878740157482
0
LINE
8
BLACK
6
CONTINUOUS
10
0.4121969291338582
20
3.3831878740157482
11
0.4115061023622047
21
3.3850858661417322
0
LINE
8
BLACK
6
CONTINUOUS
10
0.4115061023622047
20
3.3850858661417322
11
0.4115061023622047
21
3.4050112598425195
0
LINE
8
BLACK
6
CONTINUOUS
10
0.4115061023622047
20
3.4050112598425195
11
0.4103832283464567
21
3.4072570078740156
0
LINE
8
BLACK
6
CONTINUOUS
10
0.4103832283464567
20
3.4072570078740156
11
0.4081375196850394
21
3.4083798425196852
0
LINE
8
BLACK
6
CONTINUOUS
10
0.4081375196850394
20
3.4083798425196852
11
0.4039073228346456
21
3.4083798425196852
0
LINE
8
BLACK
6
CONTINUOUS
10
0.4039073228346456
20
3.4083798425196852
11
0.4012098425196851
21
3.4070311023622049
0
LINE
8
BLACK
6
CONTINUOUS
10
0.4012098425196851
20
3.4070311023622049
11
0.4005387401574803
21
3.4063599999999998
0
LINE
8
BLACK
6
CONTINUOUS
10
0.4005387401574803
20
3.4063599999999998
11
0.4005387401574803
21
3.3850858661417322
0
LINE
8
BLACK
6
CONTINUOUS
10
0.4005387401574803
20
3.3850858661417322
11
0.4003606692913386
21
3.3840759448818898
0
LINE
8
BLACK
6
CONTINUOUS
10
0.4003606692913386
20
3.3840759448818898
11
0.3990623622047244
21
3.3825287007874016
0
LINE
8
BLACK
6
CONTINUOUS
10
0.3990623622047244
20
3.3825287007874016
11
0.3970732283464567
21
3.3821779527559053
0
LINE
8
BLACK
6
CONTINUOUS
10
0.3970732283464567
20
3.3821779527559053
11
0.3953240551181103
21
3.3831878740157482
0
LINE
8
BLACK
6
CONTINUOUS
10
0.3953240551181103
20
3.3831878740157482
11
0.3946332283464567
21
3.3850858661417322
0
LINE
8
BLACK
6
CONTINUOUS
10
0.3946332283464567
20
3.3850858661417322
11
0.3946332283464567
21
3.4113325984251968
0
LINE
8
BLACK
6
CONTINUOUS
10
0.3946332283464567
20
3.4113325984251968
11
0.3948112992125984
21
3.4123425196850392
0
LINE
8
BLACK
6
CONTINUOUS
10
0.3948112992125984
20
3.4123425196850392
11
0.3961096062992126
21
3.4138897637795274
0
LINE
8
BLACK
6
CONTINUOUS
10
0.3961096062992126
20
3.4138897637795274
11
0.3980987401574803
21
3.4142405118110237
0
LINE
8
BLACK
6
CONTINUOUS
10
0.3980987401574803
20
3.4142405118110237
11
0.3998479133858268
21
3.4132305905511808
0
LINE
8
BLACK
6
CONTINUOUS
10
0.3998479133858268
20
3.4132305905511808
11
0.3999334645669291
21
3.4129955118110233
0
LINE
8
BLACK
6
CONTINUOUS
10
0.3999334645669291
20
3.4129955118110233
11
0.4018897637795276
21
3.4139736220472439
0
LINE
8
BLACK
6
CONTINUOUS
10
0.4018897637795276
20
3.4139736220472439
11
0.4028726771653543
21
3.4142659842519683
0
LINE
8
BLACK
6
CONTINUOUS
10
0.4028726771653543
20
3.4142659842519683
11
0.4030443700787402
21
3.4142250000000001
0
LINE
8
BLACK
6
CONTINUOUS
10
0.4030443700787402
20
3.4142250000000001
11
0.4032102755905512
21
3.4142853543307088
0
LINE
8
BLACK
6
CONTINUOUS
10
0.4032102755905512
20
3.4142853543307088
11
0.4088345669291338
21
3.4142853543307088
0
LINE
8
BLACK
6
CONTINUOUS
10
0.4088345669291338
20
3.4142853543307088
11
0.4098444881889763
21
3.4141072834645669
0
LINE
8
BLACK
6
CONTINUOUS
10
0.4673394881889764
20
3.4132305905511808
11
0.4680303149606299
21
3.4113325984251968
0
LINE
8
BLACK
6
CONTINUOUS
10
0.4680303149606299
20
3.4113325984251968
11
0.4680303149606299
21
3.3850858661417322
0
LINE
8
BLACK
6
CONTINUOUS
10
0.4680303149606299
20
3.3850858661417322
11
0.4678522440944882
21
3.3840759448818898
0
LINE
8
BLACK
6
CONTINUOUS
10
0.4678522440944882
20
3.3840759448818898
11
0.466553937007874
21
3.3825287007874016
0
LINE
8
BLACK
6
CONTINUOUS
10
0.466553937007874
20
3.3825287007874016
11
0.4645648031496063
21
3.3821779527559053
0
LINE
8
BLACK
6
CONTINUOUS
10
0.4645648031496063
20
3.3821779527559053
11
0.4628156299212599
21
3.3831878740157482
0
LINE
8
BLACK
6
CONTINUOUS
10
0.4628156299212599
20
3.3831878740157482
11
0.4621248031496063
21
3.3850858661417322
0
LINE
8
BLACK
6
CONTINUOUS
10
0.4621248031496063
20
3.3850858661417322
11
0.4621248031496063
21
3.4113325984251968
0
LINE
8
BLACK
6
CONTINUOUS
10
0.4621248031496063
20
3.4113325984251968
11
0.462302874015748
21
3.4123425196850392
0
LINE
8
BLACK
6
CONTINUOUS
10
0.462302874015748
20
3.4123425196850392
11
0.4636011811023622
21
3.4138897637795274
0
LINE
8
BLACK
6
CONTINUOUS
10
0.4636011811023622
20
3.4138897637795274
11
0.4655903149606299
21
3.4142405118110237
0
LINE
8
BLACK
6
CONTINUOUS
10
0.4655903149606299
20
3.4142405118110237
11
0.4673394881889764
21
3.4132305905511808
0
LINE
8
BLACK
6
CONTINUOUS
10
0.5317042519685039
20
3.4141072834645669
11
0.5318394881889764
21
3.4139938188976378
0
LINE
8
BLACK
6
CONTINUOUS
10
0.5318394881889764
20
3.4139938188976378
11
0.532014842519685
21
3.4139736220472439
0
LINE
8
BLACK
6
CONTINUOUS
10
0.532014842519685
20
3.4139736220472439
11
0.5357643700787401
21
3.4120988582677163
0
LINE
8
BLACK
6
CONTINUOUS
10
0.5357643700787401
20
3.4120988582677163
11
0.5365880314960629
21
3.4114879527559054
0
LINE
8
BLACK
6
CONTINUOUS
10
0.5365880314960629
20
3.4114879527559054
11
0.5367638582677166
21
3.4110822834645669
0
LINE
8
BLACK
6
CONTINUOUS
10
0.5367638582677166
20
3.4110822834645669
11
0.5370848818897638
21
3.4107783464566928
0
LINE
8
BLACK
6
CONTINUOUS
10
0.5370848818897638
20
3.4107783464566928
11
0.5389596456692913
21
3.4070288188976376
0
LINE
8
BLACK
6
CONTINUOUS
10
0.5389596456692913
20
3.4070288188976376
11
0.5392520078740157
21
3.4060459055118111
0
LINE
8
BLACK
6
CONTINUOUS
10
0.5392520078740157
20
3.4060459055118111
11
0.5392109842519685
21
3.4058742125984249
0
LINE
8
BLACK
6
CONTINUOUS
10
0.5392109842519685
20
3.4058742125984249
11
0.5392713779527559
21
3.4057083070866141
0
LINE
8
BLACK
6
CONTINUOUS
10
0.5392713779527559
20
3.4057083070866141
11
0.5392713779527559
21
3.3850858661417322
0
LINE
8
BLACK
6
CONTINUOUS
10
0.5392713779527559
20
3.3850858661417322
11
0.5390933070866142
21
3.3840759448818898
0
LINE
8
BLACK
6
CONTINUOUS
10
0.5390933070866142
20
3.3840759448818898
11
0.537795
21
3.3825287007874016
0
LINE
8
BLACK
6
CONTINUOUS
10
0.537795
20
3.3825287007874016
11
0.5358058661417323
21
3.3821779527559053
0
LINE
8
BLACK
6
CONTINUOUS
10
0.5358058661417323
20
3.3821779527559053
11
0.5340566929133859
21
3.3831878740157482
0
LINE
8
BLACK
6
CONTINUOUS
10
0.5340566929133859
20
3.3831878740157482
11
0.5333658661417323
21
3.3850858661417322
0
LINE
8
BLACK
6
CONTINUOUS
10
0.5333658661417323
20
3.3850858661417322
11
0.5333658661417323
21
3.4050112598425195
0
LINE
8
BLACK
6
CONTINUOUS
10
0.5333658661417323
20
3.4050112598425195
11
0.5322429921259842
21
3.4072570078740156
0
LINE
8
BLACK
6
CONTINUOUS
10
0.5322429921259842
20
3.4072570078740156
11
0.5299972834645669
21
3.4083798425196852
0
LINE
8
BLACK
6
CONTINUOUS
10
0.5299972834645669
20
3.4083798425196852
11
0.5257670866141733
21
3.4083798425196852
0
LINE
8
BLACK
6
CONTINUOUS
10
0.5257670866141733
20
3.4083798425196852
11
0.5230696062992126
21
3.4070311023622049
0
LINE
8
BLACK
6
CONTINUOUS
10
0.5230696062992126
20
3.4070311023622049
11
0.5223985039370078
21
3.4063599999999998
0
LINE
8
BLACK
6
CONTINUOUS
10
0.5223985039370078
20
3.4063599999999998
11
0.5223985039370078
21
3.3850858661417322
0
LINE
8
BLACK
6
CONTINUOUS
10
0.5223985039370078
20
3.3850858661417322
11
0.5222204330708661
21
3.3840759448818898
0
LINE
8
BLACK
6
CONTINUOUS
10
0.5222204330708661
20
3.3840759448818898
11
0.5209221259842519
21
3.3825287007874016
0
LINE
8
BLACK
6
CONTINUOUS
10
0.5209221259842519
20
3.3825287007874016
11
0.5189329921259842
21
3.3821779527559053
0
LINE
8
BLACK
6
CONTINUOUS
10
0.5189329921259842
20
3.3821779527559053
11
0.5171838188976378
21
3.3831878740157482
0
LINE
8
BLACK
6
CONTINUOUS
10
0.5171838188976378
20
3.3831878740157482
11
0.5164929921259842
21
3.3850858661417322
0
LINE
8
BLACK
6
CONTINUOUS
10
0.5164929921259842
20
3.3850858661417322
11
0.5164929921259842
21
3.4113325984251968
0
LINE
8
BLACK
6
CONTINUOUS
10
0.5164929921259842
20
3.4113325984251968
11
0.516671062992126
21
3.4123425196850392
0
LINE
8
BLACK
6
CONTINUOUS
10
0.516671062992126
20
3.4123425196850392
11
0.5179693700787401
21
3.4138897637795274
0
LINE
8
BLACK
6
CONTINUOUS
10
0.5179693700787401
20
3.4138897637795274
11
0.5199585039370078
21
3.4142405118110237
0
LINE
8
BLACK
6
CONTINUOUS
10
0.5199585039370078
20
3.4142405118110237
11
0.5217076771653543
21
3.4132305905511808
0
LINE
8
BLACK
6
CONTINUOUS
10
0.5217076771653543
20
3.4132305905511808
11
0.5217932283464567
21
3.4129955118110233
0
LINE
8
BLACK
6
CONTINUOUS
10
0.5217932283464567
20
3.4129955118110233
11
0.5237495275590551
21
3.4139736220472439
0
LINE
8
BLACK
6
CONTINUOUS
10
0.5237495275590551
20
3.4139736220472439
11
0.5247324409448819
21
3.4142659842519683
0
LINE
8
BLACK
6
CONTINUOUS
10
0.5247324409448819
20
3.4142659842519683
11
0.5249041338582677
21
3.4142250000000001
0
LINE
8
BLACK
6
CONTINUOUS
10
0.5249041338582677
20
3.4142250000000001
11
0.5250700393700787
21
3.4142853543307088
0
LINE
8
BLACK
6
CONTINUOUS
10
0.5250700393700787
20
3.4142853543307088
11
0.5306943307086615
21
3.4142853543307088
0
LINE
8
BLACK
6
CONTINUOUS
10
0.5306943307086615
20
3.4142853543307088
11
0.5317042519685039
21
3.4141072834645669
0
LINE
8
BLACK
6
CONTINUOUS
10
0.1748760236220472
20
3.4263539370078737
11
0.1755668503937008
21
3.4244559448818896
0
LINE
8
BLACK
6
CONTINUOUS
10
0.1755668503937008
20
3.4244559448818896
11
0.1755668503937008
21
3.3914072440944882
0
LINE
8
BLACK
6
CONTINUOUS
10
0.1755668503937008
20
3.3914072440944882
11
0.1766896850393701
21
3.3891614960629921
0
LINE
8
BLACK
6
CONTINUOUS
10
0.1766896850393701
20
3.3891614960629921
11
0.1795588976377953
21
3.3877268897637793
0
LINE
8
BLACK
6
CONTINUOUS
10
0.1795588976377953
20
3.3877268897637793
11
0.1803825590551181
21
3.3871159842519685
0
LINE
8
BLACK
6
CONTINUOUS
10
0.1803825590551181
20
3.3871159842519685
11
0.1811858267716535
21
3.3852627952755903
0
LINE
8
BLACK
6
CONTINUOUS
10
0.1811858267716535
20
3.3852627952755903
11
0.1806099606299213
21
3.3833267716535431
0
LINE
8
BLACK
6
CONTINUOUS
10
0.1806099606299213
20
3.3833267716535431
11
0.1789244094488189
21
3.3822139370078741
0
LINE
8
BLACK
6
CONTINUOUS
10
0.1789244094488189
20
3.3822139370078741
11
0.176917874015748
21
3.3824448425196851
0
LINE
8
BLACK
6
CONTINUOUS
10
0.176917874015748
20
3.3824448425196851
11
0.1731683464566929
21
3.3843196062992127
0
LINE
8
BLACK
6
CONTINUOUS
10
0.1731683464566929
20
3.3843196062992127
11
0.1723446850393701
21
3.3849305118110236
0
LINE
8
BLACK
6
CONTINUOUS
10
0.1723446850393701
20
3.3849305118110236
11
0.1721688188976378
21
3.3853362204724409
0
LINE
8
BLACK
6
CONTINUOUS
10
0.1721688188976378
20
3.3853362204724409
11
0.1718478346456693
21
3.3856401181102362
0
LINE
8
BLACK
6
CONTINUOUS
10
0.1718478346456693
20
3.3856401181102362
11
0.1699730708661417
21
3.3893896850393701
0
LINE
8
BLACK
6
CONTINUOUS
10
0.1699730708661417
20
3.3893896850393701
11
0.1696806692913386
21
3.3903726377952754
0
LINE
8
BLACK
6
CONTINUOUS
10
0.1696806692913386
20
3.3903726377952754
11
0.1697216929133858
21
3.3905443700787399
0
LINE
8
BLACK
6
CONTINUOUS
10
0.1697216929133858
20
3.3905443700787399
11
0.1696613385826772
21
3.3907101968503937
0
LINE
8
BLACK
6
CONTINUOUS
10
0.1696613385826772
20
3.3907101968503937
11
0.1696613385826772
21
3.4244559448818896
0
LINE
8
BLACK
6
CONTINUOUS
10
0.1696613385826772
20
3.4244559448818896
11
0.1698394094488189
21
3.4254658661417321
0
LINE
8
BLACK
6
CONTINUOUS
10
0.1698394094488189
20
3.4254658661417321
11
0.1711377165354331
21
3.4270131102362202
0
LINE
8
BLACK
6
CONTINUOUS
10
0.1711377165354331
20
3.4270131102362202
11
0.1731268503937008
21
3.4273638582677166
0
LINE
8
BLACK
6
CONTINUOUS
10
0.1731268503937008
20
3.4273638582677166
11
0.1748760236220472
21
3.4263539370078737
0
LINE
8
BLACK
6
CONTINUOUS
10
0.2929787795275591
20
3.4273403937007871
11
0.2931118897637795
21
3.4273638582677166
0
LINE
8
BLACK
6
CONTINUOUS
10
0.2931118897637795
20
3.4273638582677166
11
0.2932288582677166
21
3.4272963385826771
0
LINE
8
BLACK
6
CONTINUOUS
10
0.2932288582677166
20
3.4272963385826771
11
0.2933633464566929
21
3.4273080708661419
0
LINE
8
BLACK
6
CONTINUOUS
10
0.2933633464566929
20
3.4273080708661419
11
0.2939917322834645
21
3.4268680708661416
0
LINE
8
BLACK
6
CONTINUOUS
10
0.2939917322834645
20
3.4268680708661416
11
0.2946870472440945
21
3.4265438582677166
0
LINE
8
BLACK
6
CONTINUOUS
10
0.2946870472440945
20
3.4265438582677166
11
0.2965618110236221
21
3.424669094488189
0
LINE
8
BLACK
6
CONTINUOUS
10
0.2965618110236221
20
3.424669094488189
11
0.2967851968503937
21
3.4243500787401575
0
LINE
8
BLACK
6
CONTINUOUS
10
0.2967851968503937
20
3.4243500787401575
11
0.2968926771653543
21
3.4242748031496064
0
LINE
8
BLACK
6
CONTINUOUS
10
0.2968926771653543
20
3.4242748031496064
11
0.2969266141732284
21
3.4241480708661416
0
LINE
8
BLACK
6
CONTINUOUS
10
0.2969266141732284
20
3.4241480708661416
11
0.29715
21
3.4238290551181101
0
LINE
8
BLACK
6
CONTINUOUS
10
0.29715
20
3.4238290551181101
11
0.2972168503937008
21
3.4230648425196848
0
LINE
8
BLACK
6
CONTINUOUS
10
0.2972168503937008
20
3.4230648425196848
11
0.2974153937007874
21
3.4223238188976377
0
LINE
8
BLACK
6
CONTINUOUS
10
0.2974153937007874
20
3.4223238188976377
11
0.2973027952755906
21
3.4220824015748033
0
LINE
8
BLACK
6
CONTINUOUS
10
0.2973027952755906
20
3.4220824015748033
11
0.2973260236220472
21
3.4218169685039368
0
LINE
8
BLACK
6
CONTINUOUS
10
0.2973260236220472
20
3.4218169685039368
11
0.2968860236220472
21
3.4211885826771651
0
LINE
8
BLACK
6
CONTINUOUS
10
0.2968860236220472
20
3.4211885826771651
11
0.2965618110236221
21
3.4204932677165352
0
LINE
8
BLACK
6
CONTINUOUS
10
0.2965618110236221
20
3.4204932677165352
11
0.2946870472440945
21
3.4186185039370076
0
LINE
8
BLACK
6
CONTINUOUS
10
0.2946870472440945
20
3.4186185039370076
11
0.2943679921259842
21
3.4183951181102361
0
LINE
8
BLACK
6
CONTINUOUS
10
0.2943679921259842
20
3.4183951181102361
11
0.2942927559055118
21
3.4182876377952756
0
LINE
8
BLACK
6
CONTINUOUS
10
0.2942927559055118
20
3.4182876377952756
11
0.2941659842519685
21
3.4182537007874014
0
LINE
8
BLACK
6
CONTINUOUS
10
0.2941659842519685
20
3.4182537007874014
11
0.2941590157480315
21
3.4182488188976379
0
LINE
8
BLACK
6
CONTINUOUS
10
0.2941590157480315
20
3.4182488188976379
11
0.2940755118110236
21
3.4181492519685039
0
LINE
8
BLACK
6
CONTINUOUS
10
0.2940755118110236
20
3.4181492519685039
11
0.293997125984252
21
3.4181354330708662
0
LINE
8
BLACK
6
CONTINUOUS
10
0.293997125984252
20
3.4181354330708662
11
0.2938470078740157
21
3.4180303149606299
0
LINE
8
BLACK
6
CONTINUOUS
10
0.2938470078740157
20
3.4180303149606299
11
0.2930826771653543
21
3.4179634645669292
0
LINE
8
BLACK
6
CONTINUOUS
10
0.2930826771653543
20
3.4179634645669292
11
0.2923417716535433
21
3.4177649212598427
0
LINE
8
BLACK
6
CONTINUOUS
10
0.2923417716535433
20
3.4177649212598427
11
0.2922194094488189
21
3.417821968503937
0
LINE
8
BLACK
6
CONTINUOUS
10
0.2922194094488189
20
3.417821968503937
11
0.2920863779527559
21
3.417798503937008
0
LINE
8
BLACK
6
CONTINUOUS
10
0.2920863779527559
20
3.417798503937008
11
0.2919694094488189
21
3.4178660236220471
0
LINE
8
BLACK
6
CONTINUOUS
10
0.2919694094488189
20
3.4178660236220471
11
0.2918349212598425
21
3.417854251968504
0
LINE
8
BLACK
6
CONTINUOUS
10
0.2918349212598425
20
3.417854251968504
11
0.2912064173228346
21
3.41829437007874
0
LINE
8
BLACK
6
CONTINUOUS
10
0.2912064173228346
20
3.41829437007874
11
0.2905112204724409
21
3.4186185039370076
0
LINE
8
BLACK
6
CONTINUOUS
10
0.2905112204724409
20
3.4186185039370076
11
0.2886364566929134
21
3.4204932677165352
0
LINE
8
BLACK
6
CONTINUOUS
10
0.2886364566929134
20
3.4204932677165352
11
0.2884130708661417
21
3.4208123228346454
0
LINE
8
BLACK
6
CONTINUOUS
10
0.2884130708661417
20
3.4208123228346454
11
0.2883055905511811
21
3.4208875590551182
0
LINE
8
BLACK
6
CONTINUOUS
10
0.2883055905511811
20
3.4208875590551182
11
0.2882716141732283
21
3.4210143307086613
0
LINE
8
BLACK
6
CONTINUOUS
10
0.2882716141732283
20
3.4210143307086613
11
0.2880482677165354
21
3.4213333070866141
0
LINE
8
BLACK
6
CONTINUOUS
10
0.2880482677165354
20
3.4213333070866141
11
0.2879813779527559
21
3.4220975984251969
0
LINE
8
BLACK
6
CONTINUOUS
10
0.2879813779527559
20
3.4220975984251969
11
0.287782874015748
21
3.4228385039370077
0
LINE
8
BLACK
6
CONTINUOUS
10
0.287782874015748
20
3.4228385039370077
11
0.2878954330708661
21
3.4230799212598426
0
LINE
8
BLACK
6
CONTINUOUS
10
0.2878954330708661
20
3.4230799212598426
11
0.2878722047244094
21
3.4233453937007874
0
LINE
8
BLACK
6
CONTINUOUS
10
0.2878722047244094
20
3.4233453937007874
11
0.2883122834645669
21
3.4239739370078741
0
LINE
8
BLACK
6
CONTINUOUS
10
0.2883122834645669
20
3.4239739370078741
11
0.2886364566929134
21
3.424669094488189
0
LINE
8
BLACK
6
CONTINUOUS
10
0.2886364566929134
20
3.424669094488189
11
0.2905112204724409
21
3.4265438582677166
0
LINE
8
BLACK
6
CONTINUOUS
10
0.2905112204724409
20
3.4265438582677166
11
0.2908302362204724
21
3.4267672440944881
0
LINE
8
BLACK
6
CONTINUOUS
10
0.2908302362204724
20
3.4267672440944881
11
0.2909055118110236
21
3.4268747244094486
0
LINE
8
BLACK
6
CONTINUOUS
10
0.2909055118110236
20
3.4268747244094486
11
0.2910322440944882
21
3.4269087007874015
0
LINE
8
BLACK
6
CONTINUOUS
10
0.2910322440944882
20
3.4269087007874015
11
0.2910392125984252
21
3.4269135826771651
0
LINE
8
BLACK
6
CONTINUOUS
10
0.2910392125984252
20
3.4269135826771651
11
0.2911227559055118
21
3.4270131102362202
0
LINE
8
BLACK
6
CONTINUOUS
10
0.2911227559055118
20
3.4270131102362202
11
0.2912011023622047
21
3.4270269685039367
0
LINE
8
BLACK
6
CONTINUOUS
10
0.2912011023622047
20
3.4270269685039367
11
0.2913512598425197
21
3.4271320472440943
0
LINE
8
BLACK
6
CONTINUOUS
10
0.2913512598425197
20
3.4271320472440943
11
0.2921154330708661
21
3.4271989370078741
0
LINE
8
BLACK
6
CONTINUOUS
10
0.2921154330708661
20
3.4271989370078741
11
0.2928564566929134
21
3.427397440944882
0
LINE
8
BLACK
6
CONTINUOUS
10
0.2928564566929134
20
3.427397440944882
11
0.2929787795275591
21
3.4273403937007871
0
LINE
8
BLACK
6
CONTINUOUS
10
0.4654572047244094
20
3.4273403937007871
11
0.4655903149606299
21
3.4273638582677166
0
LINE
8
BLACK
6
CONTINUOUS
10
0.4655903149606299
20
3.4273638582677166
11
0.4657072834645669
21
3.4272963385826771
0
LINE
8
BLACK
6
CONTINUOUS
10
0.4657072834645669
20
3.4272963385826771
11
0.4658417716535433
21
3.4273080708661419
0
LINE
8
BLACK
6
CONTINUOUS
10
0.4658417716535433
20
3.4273080708661419
11
0.466470157480315
21
3.4268680708661416
0
LINE
8
BLACK
6
CONTINUOUS
10
0.466470157480315
20
3.4268680708661416
11
0.4671654724409449
21
3.4265438582677166
0
LINE
8
BLACK
6
CONTINUOUS
10
0.4671654724409449
20
3.4265438582677166
11
0.4690402362204724
21
3.424669094488189
0
LINE
8
BLACK
6
CONTINUOUS
10
0.4690402362204724
20
3.424669094488189
11
0.4692636220472441
21
3.4243500787401575
0
LINE
8
BLACK
6
CONTINUOUS
10
0.4692636220472441
20
3.4243500787401575
11
0.4693711023622047
21
3.4242748031496064
0
LINE
8
BLACK
6
CONTINUOUS
10
0.4693711023622047
20
3.4242748031496064
11
0.4694050393700787
21
3.4241480708661416
0
LINE
8
BLACK
6
CONTINUOUS
10
0.4694050393700787
20
3.4241480708661416
11
0.4696284251968504
21
3.4238290551181101
0
LINE
8
BLACK
6
CONTINUOUS
10
0.4696284251968504
20
3.4238290551181101
11
0.4696952755905512
21
3.4230648425196848
0
LINE
8
BLACK
6
CONTINUOUS
10
0.4696952755905512
20
3.4230648425196848
11
0.4698938188976378
21
3.4223238188976377
0
LINE
8
BLACK
6
CONTINUOUS
10
0.4698938188976378
20
3.4223238188976377
11
0.4697812204724409
21
3.4220824015748033
0
LINE
8
BLACK
6
CONTINUOUS
10
0.4697812204724409
20
3.4220824015748033
11
0.4698044488188976
21
3.4218169685039368
0
LINE
8
BLACK
6
CONTINUOUS
10
0.4698044488188976
20
3.4218169685039368
11
0.4693644488188976
21
3.4211885826771651
0
LINE
8
BLACK
6
CONTINUOUS
10
0.4693644488188976
20
3.4211885826771651
11
0.4690402362204724
21
3.4204932677165352
0
LINE
8
BLACK
6
CONTINUOUS
10
0.4690402362204724
20
3.4204932677165352
11
0.4671654724409449
21
3.4186185039370076
0
LINE
8
BLACK
6
CONTINUOUS
10
0.4671654724409449
20
3.4186185039370076
11
0.4668464173228347
21
3.4183951181102361
0
LINE
8
BLACK
6
CONTINUOUS
10
0.4668464173228347
20
3.4183951181102361
11
0.4667711811023622
21
3.4182876377952756
0
LINE
8
BLACK
6
CONTINUOUS
10
0.4667711811023622
20
3.4182876377952756
11
0.4666444094488189
21
3.4182537007874014
0
LINE
8
BLACK
6
CONTINUOUS
10
0.4666444094488189
20
3.4182537007874014
11
0.4666374409448819
21
3.4182488188976379
0
LINE
8
BLACK
6
CONTINUOUS
10
0.4666374409448819
20
3.4182488188976379
11
0.466553937007874
21
3.4181492519685039
0
LINE
8
BLACK
6
CONTINUOUS
10
0.466553937007874
20
3.4181492519685039
11
0.4664755511811023
21
3.4181354330708662
0
LINE
8
BLACK
6
CONTINUOUS
10
0.4664755511811023
20
3.4181354330708662
11
0.4663254330708662
21
3.4180303149606299
0
LINE
8
BLACK
6
CONTINUOUS
10
0.4663254330708662
20
3.4180303149606299
11
0.4655611023622047
21
3.4179634645669292
0
LINE
8
BLACK
6
CONTINUOUS
10
0.4655611023622047
20
3.4179634645669292
11
0.4648201968503937
21
3.4177649212598427
0
LINE
8
BLACK
6
CONTINUOUS
10
0.4648201968503937
20
3.4177649212598427
11
0.4646978346456693
21
3.417821968503937
0
LINE
8
BLACK
6
CONTINUOUS
10
0.4646978346456693
20
3.417821968503937
11
0.4645648031496063
21
3.417798503937008
0
LINE
8
BLACK
6
CONTINUOUS
10
0.4645648031496063
20
3.417798503937008
11
0.4644478346456693
21
3.4178660236220471
0
LINE
8
BLACK
6
CONTINUOUS
10
0.4644478346456693
20
3.4178660236220471
11
0.4643133464566929
21
3.417854251968504
0
LINE
8
BLACK
6
CONTINUOUS
10
0.4643133464566929
20
3.417854251968504
11
0.463684842519685
21
3.41829437007874
0
LINE
8
BLACK
6
CONTINUOUS
10
0.463684842519685
20
3.41829437007874
11
0.4629896456692913
21
3.4186185039370076
0
LINE
8
BLACK
6
CONTINUOUS
10
0.4629896456692913
20
3.4186185039370076
11
0.4611148818897638
21
3.4204932677165352
0
LINE
8
BLACK
6
CONTINUOUS
10
0.4611148818897638
20
3.4204932677165352
11
0.4608914960629921
21
3.4208123228346454
0
LINE
8
BLACK
6
CONTINUOUS
10
0.4608914960629921
20
3.4208123228346454
11
0.4607840157480315
21
3.4208875590551182
0
LINE
8
BLACK
6
CONTINUOUS
10
0.4607840157480315
20
3.4208875590551182
11
0.4607500393700787
21
3.4210143307086613
0
LINE
8
BLACK
6
CONTINUOUS
10
0.4607500393700787
20
3.4210143307086613
11
0.4605266929133858
21
3.4213333070866141
0
LINE
8
BLACK
6
CONTINUOUS
10
0.4605266929133858
20
3.4213333070866141
11
0.4604598031496063
21
3.4220975984251969
0
LINE
8
BLACK
6
CONTINUOUS
10
0.4604598031496063
20
3.4220975984251969
11
0.4602612992125984
21
3.4228385039370077
0
LINE
8
BLACK
6
CONTINUOUS
10
0.4602612992125984
20
3.4228385039370077
11
0.4603738582677165
21
3.4230799212598426
0
LINE
8
BLACK
6
CONTINUOUS
10
0.4603738582677165
20
3.4230799212598426
11
0.4603506299212599
21
3.4233453937007874
0
LINE
8
BLACK
6
CONTINUOUS
10
0.4603506299212599
20
3.4233453937007874
11
0.4607907086614173
21
3.4239739370078741
0
LINE
8
BLACK
6
CONTINUOUS
10
0.4607907086614173
20
3.4239739370078741
11
0.4611148818897638
21
3.424669094488189
0
LINE
8
BLACK
6
CONTINUOUS
10
0.4611148818897638
20
3.424669094488189
11
0.4629896456692913
21
3.4265438582677166
0
LINE
8
BLACK
6
CONTINUOUS
10
0.4629896456692913
20
3.4265438582677166
11
0.4633086614173228
21
3.4267672440944881
0
LINE
8
BLACK
6
CONTINUOUS
10
0.4633086614173228
20
3.4267672440944881
11
0.463383937007874
21
3.4268747244094486
0
LINE
8
BLACK
6
CONTINUOUS
10
0.463383937007874
20
3.4268747244094486
11
0.4635106692913386
21
3.4269087007874015
0
LINE
8
BLACK
6
CONTINUOUS
10
0.4635106692913386
20
3.4269087007874015
11
0.4635176377952756
21
3.4269135826771651
0
LINE
8
BLACK
6
CONTINUOUS
10
0.4635176377952756
20
3.4269135826771651
11
0.4636011811023622
21
3.4270131102362202
0
LINE
8
BLACK
6
CONTINUOUS
10
0.4636011811023622
20
3.4270131102362202
11
0.4636795275590551
21
3.4270269685039367
0
LINE
8
BLACK
6
CONTINUOUS
10
0.4636795275590551
20
3.4270269685039367
11
0.4638296850393701
21
3.4271320472440943
0
LINE
8
BLACK
6
CONTINUOUS
10
0.4638296850393701
20
3.4271320472440943
11
0.4645938582677165
21
3.4271989370078741
0
LINE
8
BLACK
6
CONTINUOUS
10
0.4645938582677165
20
3.4271989370078741
11
0.4653348818897638
21
3.427397440944882
0
LINE
8
BLACK
6
CONTINUOUS
10
0.4653348818897638
20
3.427397440944882
11
0.4654572047244094
21
3.4273403937007871
  0
ENDSEC
  0
EOF
