  0
SECTION
  2
HEADER
  9
$ANGBASE
  50
0.0
  9
$ANGDIR
  70
1
  9
$MEASUREMENT
  70
0
  0
ENDSEC
  0
SECTION
  2
TABLES
  0
TABLE
  2
LTYPE
  70
4
  0
LTYPE
  5
40F
  2
CONTINUOUS
  70
0
  3
Solid line
  72
65
  73
0
  40
0.0
  0
LTYPE
  5
410
  2
DASHDOT
 70
0
  3
Dash Dot ____ _ ____ _
 72
65
 73
4
 40
2.0
 49
1.25
 49
-0.25
 49
0.25
 49
-0.25
  0
LTYPE
  5
411
  2
DASHED
 70
0
  3
Dashed __ __ __ __ __
 72
65
 73
2
 40
0.75
 49
0.5
 49
-0.25
  0
LTYPE
  5
43B
  2
DOTTED
 70
0
  3
Dotted .  .  .  .
 72
65
 73
2
 40
0.2
 49
0.0
 49
-0.2
  0
ENDTAB
  0
TABLE
  2
STYLE
  70
4
  0
STYLE
  2
KICAD
  70
0
  40
0
  41
1
  42
1
  50
0
  71
0
  3
isocp.shx
  0
STYLE
  2
KICADB
  70
0
  40
0
  41
1
  42
1
  50
0
  71
0
  3
isocp.shx
  0
STYLE
  2
KICADI
  70
0
  40
0
  41
1
  42
1
  50
15
  71
0
  3
isocp.shx
  0
STYLE
  2
KICADBI
  70
0
  40
0
  41
1
  42
1
  50
15
  71
0
  3
isocp.shx
  0
ENDTAB
  0
TABLE
  2
LAYER
  70
1
  0
LAYER
  2
BLACK
  70
0
  62
7
  6
CONTINUOUS
  0
ENDTAB
  0
ENDSEC
  0
SECTION
  2
ENTITIES
0
LINE
8
BLACK
6
CONTINUOUS
10
-0.854614
20
0.880135
11
-0.853067
21
0.878836
0
LINE
8
BLACK
6
CONTINUOUS
10
-0.853067
20
0.878836
11
-0.852716
21
0.876847
0
LINE
8
BLACK
6
CONTINUOUS
10
-0.852716
20
0.876847
11
-0.853726
21
0.875098
0
LINE
8
BLACK
6
CONTINUOUS
10
-0.853726
20
0.875098
11
-0.855624
21
0.874407
0
LINE
8
BLACK
6
CONTINUOUS
10
-0.855624
20
0.874407
11
-0.885621
21
0.874407
0
LINE
8
BLACK
6
CONTINUOUS
10
-0.885621
20
0.874407
11
-0.88663
21
0.874585
0
LINE
8
BLACK
6
CONTINUOUS
10
-0.88663
20
0.874585
11
-0.888178
21
0.875884
0
LINE
8
BLACK
6
CONTINUOUS
10
-0.888178
20
0.875884
11
-0.888528
21
0.877873
0
LINE
8
BLACK
6
CONTINUOUS
10
-0.888528
20
0.877873
11
-0.887519
21
0.879622
0
LINE
8
BLACK
6
CONTINUOUS
10
-0.887519
20
0.879622
11
-0.885621
21
0.880313
0
LINE
8
BLACK
6
CONTINUOUS
10
-0.885621
20
0.880313
11
-0.855624
21
0.880313
0
LINE
8
BLACK
6
CONTINUOUS
10
-0.855624
20
0.880313
11
-0.854614
21
0.880135
0
LINE
8
BLACK
6
CONTINUOUS
10
-1.0017
20
0.923405
11
-1.00164
21
0.923424
0
LINE
8
BLACK
6
CONTINUOUS
10
-1.00164
20
0.923424
11
-1.00152
21
0.923374
0
LINE
8
BLACK
6
CONTINUOUS
10
-1.00152
20
0.923374
11
-1.00085
21
0.923254
0
LINE
8
BLACK
6
CONTINUOUS
10
-1.00085
20
0.923254
11
-1.00037
21
0.922851
0
LINE
8
BLACK
6
CONTINUOUS
10
-1.00037
20
0.922851
11
-0.999794
21
0.922593
0
LINE
8
BLACK
6
CONTINUOUS
10
-0.999794
20
0.922593
11
-0.999615
21
0.922221
0
LINE
8
BLACK
6
CONTINUOUS
10
-0.999615
20
0.922221
11
-0.999299
21
0.921956
0
LINE
8
BLACK
6
CONTINUOUS
10
-0.999299
20
0.921956
11
-0.99919
21
0.921338
0
LINE
8
BLACK
6
CONTINUOUS
10
-0.99919
20
0.921338
11
-0.998918
21
0.920773
0
LINE
8
BLACK
6
CONTINUOUS
10
-0.998918
20
0.920773
11
-0.997043
21
0.902026
0
LINE
8
BLACK
6
CONTINUOUS
10
-0.997043
20
0.902026
11
-0.99712
21
0.901003
0
LINE
8
BLACK
6
CONTINUOUS
10
-0.99712
20
0.901003
11
-0.997131
21
0.900987
0
LINE
8
BLACK
6
CONTINUOUS
10
-0.997131
20
0.900987
11
-0.997129
21
0.900968
0
LINE
8
BLACK
6
CONTINUOUS
10
-0.997129
20
0.900968
11
-0.997698
21
0.900156
0
LINE
8
BLACK
6
CONTINUOUS
10
-0.997698
20
0.900156
11
-0.998258
21
0.899334
0
LINE
8
BLACK
6
CONTINUOUS
10
-0.998258
20
0.899334
11
-0.998277
21
0.899329
0
LINE
8
BLACK
6
CONTINUOUS
10
-0.998277
20
0.899329
11
-0.998288
21
0.899313
0
LINE
8
BLACK
6
CONTINUOUS
10
-0.998288
20
0.899313
11
-0.999247
21
0.899056
0
LINE
8
BLACK
6
CONTINUOUS
10
-0.999247
20
0.899056
11
-1.0002
21
0.898787
0
LINE
8
BLACK
6
CONTINUOUS
10
-1.0002
20
0.898787
11
-1.00022
21
0.898795
0
LINE
8
BLACK
6
CONTINUOUS
10
-1.00022
20
0.898795
11
-1.00024
21
0.89879
0
LINE
8
BLACK
6
CONTINUOUS
10
-1.00024
20
0.89879
11
-1.00114
21
0.899209
0
LINE
8
BLACK
6
CONTINUOUS
10
-1.00114
20
0.899209
11
-1.00204
21
0.899618
0
LINE
8
BLACK
6
CONTINUOUS
10
-1.00204
20
0.899618
11
-1.00205
21
0.899636
0
LINE
8
BLACK
6
CONTINUOUS
10
-1.00205
20
0.899636
11
-1.00207
21
0.899644
0
LINE
8
BLACK
6
CONTINUOUS
10
-1.00207
20
0.899644
11
-1.00361
21
0.90118
0
LINE
8
BLACK
6
CONTINUOUS
10
-1.00361
20
0.90118
11
-1.0063
21
0.902529
0
LINE
8
BLACK
6
CONTINUOUS
10
-1.0063
20
0.902529
11
-1.01428
21
0.902529
0
LINE
8
BLACK
6
CONTINUOUS
10
-1.01428
20
0.902529
11
-1.01698
21
0.90118
0
LINE
8
BLACK
6
CONTINUOUS
10
-1.01698
20
0.90118
11
-1.01818
21
0.899983
0
LINE
8
BLACK
6
CONTINUOUS
10
-1.01818
20
0.899983
11
-1.01953
21
0.897285
0
LINE
8
BLACK
6
CONTINUOUS
10
-1.01953
20
0.897285
11
-1.01953
21
0.889306
0
LINE
8
BLACK
6
CONTINUOUS
10
-1.01953
20
0.889306
11
-1.01818
21
0.886608
0
LINE
8
BLACK
6
CONTINUOUS
10
-1.01818
20
0.886608
11
-1.01698
21
0.885411
0
LINE
8
BLACK
6
CONTINUOUS
10
-1.01698
20
0.885411
11
-1.01428
21
0.884062
0
LINE
8
BLACK
6
CONTINUOUS
10
-1.01428
20
0.884062
11
-1.0063
21
0.884062
0
LINE
8
BLACK
6
CONTINUOUS
10
-1.0063
20
0.884062
11
-1.00361
21
0.885411
0
LINE
8
BLACK
6
CONTINUOUS
10
-1.00361
20
0.885411
11
-1.00207
21
0.886947
0
LINE
8
BLACK
6
CONTINUOUS
10
-1.00207
20
0.886947
11
-1.00123
21
0.887535
0
LINE
8
BLACK
6
CONTINUOUS
10
-1.00123
20
0.887535
11
-0.999217
21
0.887711
0
LINE
8
BLACK
6
CONTINUOUS
10
-0.999217
20
0.887711
11
-0.997563
21
0.886553
0
LINE
8
BLACK
6
CONTINUOUS
10
-0.997563
20
0.886553
11
-0.99704
21
0.884602
0
LINE
8
BLACK
6
CONTINUOUS
10
-0.99704
20
0.884602
11
-0.997893
21
0.882771
0
LINE
8
BLACK
6
CONTINUOUS
10
-0.997893
20
0.882771
11
-0.999768
21
0.880896
0
LINE
8
BLACK
6
CONTINUOUS
10
-0.999768
20
0.880896
11
-1.00049
21
0.88039
0
LINE
8
BLACK
6
CONTINUOUS
10
-1.00049
20
0.88039
11
-1.00054
21
0.880343
0
LINE
8
BLACK
6
CONTINUOUS
10
-1.00054
20
0.880343
11
-1.00429
21
0.878468
0
LINE
8
BLACK
6
CONTINUOUS
10
-1.00429
20
0.878468
11
-1.00527
21
0.878176
0
LINE
8
BLACK
6
CONTINUOUS
10
-1.00527
20
0.878176
11
-1.00544
21
0.878217
0
LINE
8
BLACK
6
CONTINUOUS
10
-1.00544
20
0.878217
11
-1.00561
21
0.878157
0
LINE
8
BLACK
6
CONTINUOUS
10
-1.00561
20
0.878157
11
-1.01498
21
0.878157
0
LINE
8
BLACK
6
CONTINUOUS
10
-1.01498
20
0.878157
11
-1.01599
21
0.878335
0
LINE
8
BLACK
6
CONTINUOUS
10
-1.01599
20
0.878335
11
-1.01612
21
0.878448
0
LINE
8
BLACK
6
CONTINUOUS
10
-1.01612
20
0.878448
11
-1.0163
21
0.878468
0
LINE
8
BLACK
6
CONTINUOUS
10
-1.0163
20
0.878468
11
-1.02005
21
0.880343
0
LINE
8
BLACK
6
CONTINUOUS
10
-1.02005
20
0.880343
11
-1.02076
21
0.880869
0
LINE
8
BLACK
6
CONTINUOUS
10
-1.02076
20
0.880869
11
-1.02082
21
0.880896
0
LINE
8
BLACK
6
CONTINUOUS
10
-1.02082
20
0.880896
11
-1.02269
21
0.882771
0
LINE
8
BLACK
6
CONTINUOUS
10
-1.02269
20
0.882771
11
-1.0232
21
0.883494
0
LINE
8
BLACK
6
CONTINUOUS
10
-1.0232
20
0.883494
11
-1.02324
21
0.883539
0
LINE
8
BLACK
6
CONTINUOUS
10
-1.02324
20
0.883539
11
-1.02512
21
0.887288
0
LINE
8
BLACK
6
CONTINUOUS
10
-1.02512
20
0.887288
11
-1.02541
21
0.888271
0
LINE
8
BLACK
6
CONTINUOUS
10
-1.02541
20
0.888271
11
-1.02537
21
0.888443
0
LINE
8
BLACK
6
CONTINUOUS
10
-1.02537
20
0.888443
11
-1.02543
21
0.888609
0
LINE
8
BLACK
6
CONTINUOUS
10
-1.02543
20
0.888609
11
-1.02543
21
0.897982
0
LINE
8
BLACK
6
CONTINUOUS
10
-1.02543
20
0.897982
11
-1.02525
21
0.898992
0
LINE
8
BLACK
6
CONTINUOUS
10
-1.02525
20
0.898992
11
-1.02514
21
0.899128
0
LINE
8
BLACK
6
CONTINUOUS
10
-1.02514
20
0.899128
11
-1.02512
21
0.899303
0
LINE
8
BLACK
6
CONTINUOUS
10
-1.02512
20
0.899303
11
-1.02324
21
0.903052
0
LINE
8
BLACK
6
CONTINUOUS
10
-1.02324
20
0.903052
11
-1.02272
21
0.903762
0
LINE
8
BLACK
6
CONTINUOUS
10
-1.02272
20
0.903762
11
-1.02269
21
0.90382
0
LINE
8
BLACK
6
CONTINUOUS
10
-1.02269
20
0.90382
11
-1.02082
21
0.905695
0
LINE
8
BLACK
6
CONTINUOUS
10
-1.02082
20
0.905695
11
-1.02009
21
0.906201
0
LINE
8
BLACK
6
CONTINUOUS
10
-1.02009
20
0.906201
11
-1.02005
21
0.906248
0
LINE
8
BLACK
6
CONTINUOUS
10
-1.02005
20
0.906248
11
-1.0163
21
0.908122
0
LINE
8
BLACK
6
CONTINUOUS
10
-1.0163
20
0.908122
11
-1.01532
21
0.908415
0
LINE
8
BLACK
6
CONTINUOUS
10
-1.01532
20
0.908415
11
-1.01515
21
0.908374
0
LINE
8
BLACK
6
CONTINUOUS
10
-1.01515
20
0.908374
11
-1.01498
21
0.908434
0
LINE
8
BLACK
6
CONTINUOUS
10
-1.01498
20
0.908434
11
-1.00561
21
0.908434
0
LINE
8
BLACK
6
CONTINUOUS
10
-1.00561
20
0.908434
11
-1.0046
21
0.908256
0
LINE
8
BLACK
6
CONTINUOUS
10
-1.0046
20
0.908256
11
-1.00446
21
0.908143
0
LINE
8
BLACK
6
CONTINUOUS
10
-1.00446
20
0.908143
11
-1.00429
21
0.908122
0
LINE
8
BLACK
6
CONTINUOUS
10
-1.00429
20
0.908122
11
-1.00355
21
0.907756
0
LINE
8
BLACK
6
CONTINUOUS
10
-1.00355
20
0.907756
11
-1.00453
21
0.917527
0
LINE
8
BLACK
6
CONTINUOUS
10
-1.00453
20
0.917527
11
-1.0206
21
0.917527
0
LINE
8
BLACK
6
CONTINUOUS
10
-1.0206
20
0.917527
11
-1.02161
21
0.917705
0
LINE
8
BLACK
6
CONTINUOUS
10
-1.02161
20
0.917705
11
-1.02316
21
0.919003
0
LINE
8
BLACK
6
CONTINUOUS
10
-1.02316
20
0.919003
11
-1.02351
21
0.920992
0
LINE
8
BLACK
6
CONTINUOUS
10
-1.02351
20
0.920992
11
-1.0225
21
0.922741
0
LINE
8
BLACK
6
CONTINUOUS
10
-1.0225
20
0.922741
11
-1.0206
21
0.923432
0
LINE
8
BLACK
6
CONTINUOUS
10
-1.0206
20
0.923432
11
-1.00186
21
0.923432
0
LINE
8
BLACK
6
CONTINUOUS
10
-1.00186
20
0.923432
11
-1.0017
21
0.923405
0
LINE
8
BLACK
6
CONTINUOUS
10
-0.973075
20
0.923303
11
-0.972905
21
0.923314
0
LINE
8
BLACK
6
CONTINUOUS
10
-0.972905
20
0.923314
11
-0.972215
21
0.922806
0
LINE
8
BLACK
6
CONTINUOUS
10
-0.972215
20
0.922806
11
-0.971473
21
0.922378
0
LINE
8
BLACK
6
CONTINUOUS
10
-0.971473
20
0.922378
11
-0.971415
21
0.922218
0
LINE
8
BLACK
6
CONTINUOUS
10
-0.971415
20
0.922218
11
-0.971278
21
0.922117
0
LINE
8
BLACK
6
CONTINUOUS
10
-0.971278
20
0.922117
11
-0.96769
21
0.916736
0
LINE
8
BLACK
6
CONTINUOUS
10
-0.96769
20
0.916736
11
-0.964486
21
0.913532
0
LINE
8
BLACK
6
CONTINUOUS
10
-0.964486
20
0.913532
11
-0.961165
21
0.911872
0
LINE
8
BLACK
6
CONTINUOUS
10
-0.961165
20
0.911872
11
-0.960342
21
0.911261
0
LINE
8
BLACK
6
CONTINUOUS
10
-0.960342
20
0.911261
11
-0.959539
21
0.909408
0
LINE
8
BLACK
6
CONTINUOUS
10
-0.959539
20
0.909408
11
-0.960114
21
0.907472
0
LINE
8
BLACK
6
CONTINUOUS
10
-0.960114
20
0.907472
11
-0.9618
21
0.906359
0
LINE
8
BLACK
6
CONTINUOUS
10
-0.9618
20
0.906359
11
-0.963806
21
0.90659
0
LINE
8
BLACK
6
CONTINUOUS
10
-0.963806
20
0.90659
11
-0.967556
21
0.908465
0
LINE
8
BLACK
6
CONTINUOUS
10
-0.967556
20
0.908465
11
-0.968265
21
0.908991
0
LINE
8
BLACK
6
CONTINUOUS
10
-0.968265
20
0.908991
11
-0.968323
21
0.909018
0
LINE
8
BLACK
6
CONTINUOUS
10
-0.968323
20
0.909018
11
-0.970782
21
0.911476
0
LINE
8
BLACK
6
CONTINUOUS
10
-0.970782
20
0.911476
11
-0.970782
21
0.884062
0
LINE
8
BLACK
6
CONTINUOUS
10
-0.970782
20
0.884062
11
-0.962486
21
0.884062
0
LINE
8
BLACK
6
CONTINUOUS
10
-0.962486
20
0.884062
11
-0.961476
21
0.883884
0
LINE
8
BLACK
6
CONTINUOUS
10
-0.961476
20
0.883884
11
-0.959929
21
0.882586
0
LINE
8
BLACK
6
CONTINUOUS
10
-0.959929
20
0.882586
11
-0.959578
21
0.880597
0
LINE
8
BLACK
6
CONTINUOUS
10
-0.959578
20
0.880597
11
-0.960588
21
0.878848
0
LINE
8
BLACK
6
CONTINUOUS
10
-0.960588
20
0.878848
11
-0.962486
21
0.878157
0
LINE
8
BLACK
6
CONTINUOUS
10
-0.962486
20
0.878157
11
-0.984983
21
0.878157
0
LINE
8
BLACK
6
CONTINUOUS
10
-0.984983
20
0.878157
11
-0.985993
21
0.878335
0
LINE
8
BLACK
6
CONTINUOUS
10
-0.985993
20
0.878335
11
-0.98754
21
0.879633
0
LINE
8
BLACK
6
CONTINUOUS
10
-0.98754
20
0.879633
11
-0.987891
21
0.881622
0
LINE
8
BLACK
6
CONTINUOUS
10
-0.987891
20
0.881622
11
-0.986881
21
0.883371
0
LINE
8
BLACK
6
CONTINUOUS
10
-0.986881
20
0.883371
11
-0.984983
21
0.884062
0
LINE
8
BLACK
6
CONTINUOUS
10
-0.984983
20
0.884062
11
-0.976687
21
0.884062
0
LINE
8
BLACK
6
CONTINUOUS
10
-0.976687
20
0.884062
11
-0.976687
21
0.92048
0
LINE
8
BLACK
6
CONTINUOUS
10
-0.976687
20
0.92048
11
-0.976509
21
0.921489
0
LINE
8
BLACK
6
CONTINUOUS
10
-0.976509
20
0.921489
11
-0.9764
21
0.92162
0
LINE
8
BLACK
6
CONTINUOUS
10
-0.9764
20
0.92162
11
-0.976381
21
0.921788
0
LINE
8
BLACK
6
CONTINUOUS
10
-0.976381
20
0.921788
11
-0.975762
21
0.92238
0
LINE
8
BLACK
6
CONTINUOUS
10
-0.975762
20
0.92238
11
-0.975211
21
0.923037
0
LINE
8
BLACK
6
CONTINUOUS
10
-0.975211
20
0.923037
11
-0.975044
21
0.923066
0
LINE
8
BLACK
6
CONTINUOUS
10
-0.975044
20
0.923066
11
-0.974921
21
0.923184
0
LINE
8
BLACK
6
CONTINUOUS
10
-0.974921
20
0.923184
11
-0.974066
21
0.923239
0
LINE
8
BLACK
6
CONTINUOUS
10
-0.974066
20
0.923239
11
-0.973222
21
0.923387
0
LINE
8
BLACK
6
CONTINUOUS
10
-0.973222
20
0.923387
11
-0.973075
21
0.923303
0
LINE
8
BLACK
6
CONTINUOUS
10
-0.897734
20
0.923254
11
-0.897599
21
0.923141
0
LINE
8
BLACK
6
CONTINUOUS
10
-0.897599
20
0.923141
11
-0.897423
21
0.923121
0
LINE
8
BLACK
6
CONTINUOUS
10
-0.897423
20
0.923121
11
-0.893674
21
0.921246
0
LINE
8
BLACK
6
CONTINUOUS
10
-0.893674
20
0.921246
11
-0.892965
21
0.92072
0
LINE
8
BLACK
6
CONTINUOUS
10
-0.892965
20
0.92072
11
-0.892906
21
0.920693
0
LINE
8
BLACK
6
CONTINUOUS
10
-0.892906
20
0.920693
11
-0.891032
21
0.918818
0
LINE
8
BLACK
6
CONTINUOUS
10
-0.891032
20
0.918818
11
-0.890444
21
0.917978
0
LINE
8
BLACK
6
CONTINUOUS
10
-0.890444
20
0.917978
11
-0.890268
21
0.915966
0
LINE
8
BLACK
6
CONTINUOUS
10
-0.890268
20
0.915966
11
-0.891426
21
0.914311
0
LINE
8
BLACK
6
CONTINUOUS
10
-0.891426
20
0.914311
11
-0.893377
21
0.913789
0
LINE
8
BLACK
6
CONTINUOUS
10
-0.893377
20
0.913789
11
-0.895208
21
0.914642
0
LINE
8
BLACK
6
CONTINUOUS
10
-0.895208
20
0.914642
11
-0.896744
21
0.916178
0
LINE
8
BLACK
6
CONTINUOUS
10
-0.896744
20
0.916178
11
-0.899441
21
0.917527
0
LINE
8
BLACK
6
CONTINUOUS
10
-0.899441
20
0.917527
11
-0.907421
21
0.917527
0
LINE
8
BLACK
6
CONTINUOUS
10
-0.907421
20
0.917527
11
-0.910118
21
0.916178
0
LINE
8
BLACK
6
CONTINUOUS
10
-0.910118
20
0.916178
11
-0.911315
21
0.914981
0
LINE
8
BLACK
6
CONTINUOUS
10
-0.911315
20
0.914981
11
-0.912664
21
0.912283
0
LINE
8
BLACK
6
CONTINUOUS
10
-0.912664
20
0.912283
11
-0.912664
21
0.90971
0
LINE
8
BLACK
6
CONTINUOUS
10
-0.912664
20
0.90971
11
-0.911161
21
0.905202
0
LINE
8
BLACK
6
CONTINUOUS
10
-0.911161
20
0.905202
11
-0.889157
21
0.883197
0
LINE
8
BLACK
6
CONTINUOUS
10
-0.889157
20
0.883197
11
-0.888787
21
0.882669
0
LINE
8
BLACK
6
CONTINUOUS
10
-0.888787
20
0.882669
11
-0.888688
21
0.882586
0
LINE
8
BLACK
6
CONTINUOUS
10
-0.888688
20
0.882586
11
-0.888674
21
0.882508
0
LINE
8
BLACK
6
CONTINUOUS
10
-0.888674
20
0.882508
11
-0.888569
21
0.882357
0
LINE
8
BLACK
6
CONTINUOUS
10
-0.888569
20
0.882357
11
-0.888491
21
0.881472
0
LINE
8
BLACK
6
CONTINUOUS
10
-0.888491
20
0.881472
11
-0.888337
21
0.880597
0
LINE
8
BLACK
6
CONTINUOUS
10
-0.888337
20
0.880597
11
-0.888404
21
0.88048
0
LINE
8
BLACK
6
CONTINUOUS
10
-0.888404
20
0.88048
11
-0.888393
21
0.880345
0
LINE
8
BLACK
6
CONTINUOUS
10
-0.888393
20
0.880345
11
-0.888903
21
0.879617
0
LINE
8
BLACK
6
CONTINUOUS
10
-0.888903
20
0.879617
11
-0.889347
21
0.878848
0
LINE
8
BLACK
6
CONTINUOUS
10
-0.889347
20
0.878848
11
-0.889474
21
0.878801
0
LINE
8
BLACK
6
CONTINUOUS
10
-0.889474
20
0.878801
11
-0.889551
21
0.878691
0
LINE
8
BLACK
6
CONTINUOUS
10
-0.889551
20
0.878691
11
-0.89041
21
0.878461
0
LINE
8
BLACK
6
CONTINUOUS
10
-0.89041
20
0.878461
11
-0.891245
21
0.878157
0
LINE
8
BLACK
6
CONTINUOUS
10
-0.891245
20
0.878157
11
-0.915617
21
0.878157
0
LINE
8
BLACK
6
CONTINUOUS
10
-0.915617
20
0.878157
11
-0.916627
21
0.878335
0
LINE
8
BLACK
6
CONTINUOUS
10
-0.916627
20
0.878335
11
-0.918174
21
0.879633
0
LINE
8
BLACK
6
CONTINUOUS
10
-0.918174
20
0.879633
11
-0.918525
21
0.881622
0
LINE
8
BLACK
6
CONTINUOUS
10
-0.918525
20
0.881622
11
-0.917515
21
0.883371
0
LINE
8
BLACK
6
CONTINUOUS
10
-0.917515
20
0.883371
11
-0.915617
21
0.884062
0
LINE
8
BLACK
6
CONTINUOUS
10
-0.915617
20
0.884062
11
-0.898373
21
0.884062
0
LINE
8
BLACK
6
CONTINUOUS
10
-0.898373
20
0.884062
11
-0.91583
21
0.901519
0
LINE
8
BLACK
6
CONTINUOUS
10
-0.91583
20
0.901519
11
-0.916418
21
0.902359
0
LINE
8
BLACK
6
CONTINUOUS
10
-0.916418
20
0.902359
11
-0.916434
21
0.902535
0
LINE
8
BLACK
6
CONTINUOUS
10
-0.916434
20
0.902535
11
-0.916543
21
0.902673
0
LINE
8
BLACK
6
CONTINUOUS
10
-0.916543
20
0.902673
11
-0.918418
21
0.908297
0
LINE
8
BLACK
6
CONTINUOUS
10
-0.918418
20
0.908297
11
-0.918548
21
0.90917
0
LINE
8
BLACK
6
CONTINUOUS
10
-0.918548
20
0.90917
11
-0.91857
21
0.909231
0
LINE
8
BLACK
6
CONTINUOUS
10
-0.91857
20
0.909231
11
-0.91857
21
0.912981
0
LINE
8
BLACK
6
CONTINUOUS
10
-0.91857
20
0.912981
11
-0.918391
21
0.91399
0
LINE
8
BLACK
6
CONTINUOUS
10
-0.918391
20
0.91399
11
-0.918278
21
0.914126
0
LINE
8
BLACK
6
CONTINUOUS
10
-0.918278
20
0.914126
11
-0.918258
21
0.914301
0
LINE
8
BLACK
6
CONTINUOUS
10
-0.918258
20
0.914301
11
-0.916383
21
0.918051
0
LINE
8
BLACK
6
CONTINUOUS
10
-0.916383
20
0.918051
11
-0.915857
21
0.91876
0
LINE
8
BLACK
6
CONTINUOUS
10
-0.915857
20
0.91876
11
-0.91583
21
0.918818
0
LINE
8
BLACK
6
CONTINUOUS
10
-0.91583
20
0.918818
11
-0.913955
21
0.920693
0
LINE
8
BLACK
6
CONTINUOUS
10
-0.913955
20
0.920693
11
-0.913232
21
0.921199
0
LINE
8
BLACK
6
CONTINUOUS
10
-0.913232
20
0.921199
11
-0.913188
21
0.921246
0
LINE
8
BLACK
6
CONTINUOUS
10
-0.913188
20
0.921246
11
-0.909438
21
0.923121
0
LINE
8
BLACK
6
CONTINUOUS
10
-0.909438
20
0.923121
11
-0.908455
21
0.923413
0
LINE
8
BLACK
6
CONTINUOUS
10
-0.908455
20
0.923413
11
-0.908284
21
0.923372
0
LINE
8
BLACK
6
CONTINUOUS
10
-0.908284
20
0.923372
11
-0.908118
21
0.923432
0
LINE
8
BLACK
6
CONTINUOUS
10
-0.908118
20
0.923432
11
-0.898744
21
0.923432
0
LINE
8
BLACK
6
CONTINUOUS
10
-0.898744
20
0.923432
11
-0.897734
21
0.923254
0
LINE
8
BLACK
6
CONTINUOUS
10
-0.789624
20
0.923365
11
-0.789495
21
0.923387
0
LINE
8
BLACK
6
CONTINUOUS
10
-0.789495
20
0.923387
11
-0.789381
21
0.923322
0
LINE
8
BLACK
6
CONTINUOUS
10
-0.789381
20
0.923322
11
-0.788998
21
0.923254
0
LINE
8
BLACK
6
CONTINUOUS
10
-0.788998
20
0.923254
11
-0.78841
21
0.922761
0
LINE
8
BLACK
6
CONTINUOUS
10
-0.78841
20
0.922761
11
-0.787746
21
0.922378
0
LINE
8
BLACK
6
CONTINUOUS
10
-0.787746
20
0.922378
11
-0.787654
21
0.922127
0
LINE
8
BLACK
6
CONTINUOUS
10
-0.787654
20
0.922127
11
-0.78745
21
0.921956
0
LINE
8
BLACK
6
CONTINUOUS
10
-0.78745
20
0.921956
11
-0.787317
21
0.9212
0
LINE
8
BLACK
6
CONTINUOUS
10
-0.787317
20
0.9212
11
-0.787055
21
0.92048
0
LINE
8
BLACK
6
CONTINUOUS
10
-0.787055
20
0.92048
11
-0.787055
21
0.881109
0
LINE
8
BLACK
6
CONTINUOUS
10
-0.787055
20
0.881109
11
-0.787122
21
0.880726
0
LINE
8
BLACK
6
CONTINUOUS
10
-0.787122
20
0.880726
11
-0.7871
21
0.880597
0
LINE
8
BLACK
6
CONTINUOUS
10
-0.7871
20
0.880597
11
-0.787165
21
0.880483
0
LINE
8
BLACK
6
CONTINUOUS
10
-0.787165
20
0.880483
11
-0.787233
21
0.8801
0
LINE
8
BLACK
6
CONTINUOUS
10
-0.787233
20
0.8801
11
-0.787726
21
0.879512
0
LINE
8
BLACK
6
CONTINUOUS
10
-0.787726
20
0.879512
11
-0.78811
21
0.878848
0
LINE
8
BLACK
6
CONTINUOUS
10
-0.78811
20
0.878848
11
-0.78836
21
0.878756
0
LINE
8
BLACK
6
CONTINUOUS
10
-0.78836
20
0.878756
11
-0.788531
21
0.878552
0
LINE
8
BLACK
6
CONTINUOUS
10
-0.788531
20
0.878552
11
-0.789287
21
0.878419
0
LINE
8
BLACK
6
CONTINUOUS
10
-0.789287
20
0.878419
11
-0.790008
21
0.878157
0
LINE
8
BLACK
6
CONTINUOUS
10
-0.790008
20
0.878157
11
-0.808755
21
0.878157
0
LINE
8
BLACK
6
CONTINUOUS
10
-0.808755
20
0.878157
11
-0.809765
21
0.878335
0
LINE
8
BLACK
6
CONTINUOUS
10
-0.809765
20
0.878335
11
-0.811312
21
0.879633
0
LINE
8
BLACK
6
CONTINUOUS
10
-0.811312
20
0.879633
11
-0.811663
21
0.881622
0
LINE
8
BLACK
6
CONTINUOUS
10
-0.811663
20
0.881622
11
-0.810653
21
0.883371
0
LINE
8
BLACK
6
CONTINUOUS
10
-0.810653
20
0.883371
11
-0.808755
21
0.884062
0
LINE
8
BLACK
6
CONTINUOUS
10
-0.808755
20
0.884062
11
-0.79296
21
0.884062
0
LINE
8
BLACK
6
CONTINUOUS
10
-0.79296
20
0.884062
11
-0.79296
21
0.898779
0
LINE
8
BLACK
6
CONTINUOUS
10
-0.79296
20
0.898779
11
-0.803131
21
0.898779
0
LINE
8
BLACK
6
CONTINUOUS
10
-0.803131
20
0.898779
11
-0.804141
21
0.898957
0
LINE
8
BLACK
6
CONTINUOUS
10
-0.804141
20
0.898957
11
-0.805688
21
0.900256
0
LINE
8
BLACK
6
CONTINUOUS
10
-0.805688
20
0.900256
11
-0.806039
21
0.902245
0
LINE
8
BLACK
6
CONTINUOUS
10
-0.806039
20
0.902245
11
-0.805029
21
0.903994
0
LINE
8
BLACK
6
CONTINUOUS
10
-0.805029
20
0.903994
11
-0.803131
21
0.904685
0
LINE
8
BLACK
6
CONTINUOUS
10
-0.803131
20
0.904685
11
-0.79296
21
0.904685
0
LINE
8
BLACK
6
CONTINUOUS
10
-0.79296
20
0.904685
11
-0.79296
21
0.917527
0
LINE
8
BLACK
6
CONTINUOUS
10
-0.79296
20
0.917527
11
-0.808755
21
0.917527
0
LINE
8
BLACK
6
CONTINUOUS
10
-0.808755
20
0.917527
11
-0.809765
21
0.917705
0
LINE
8
BLACK
6
CONTINUOUS
10
-0.809765
20
0.917705
11
-0.811312
21
0.919003
0
LINE
8
BLACK
6
CONTINUOUS
10
-0.811312
20
0.919003
11
-0.811663
21
0.920992
0
LINE
8
BLACK
6
CONTINUOUS
10
-0.811663
20
0.920992
11
-0.810653
21
0.922741
0
LINE
8
BLACK
6
CONTINUOUS
10
-0.810653
20
0.922741
11
-0.808755
21
0.923432
0
LINE
8
BLACK
6
CONTINUOUS
10
-0.808755
20
0.923432
11
-0.790008
21
0.923432
0
LINE
8
BLACK
6
CONTINUOUS
10
-0.790008
20
0.923432
11
-0.789624
21
0.923365
0
LINE
8
BLACK
6
CONTINUOUS
10
-0.750254
20
0.923365
11
-0.750125
21
0.923387
0
LINE
8
BLACK
6
CONTINUOUS
10
-0.750125
20
0.923387
11
-0.750011
21
0.923322
0
LINE
8
BLACK
6
CONTINUOUS
10
-0.750011
20
0.923322
11
-0.749628
21
0.923254
0
LINE
8
BLACK
6
CONTINUOUS
10
-0.749628
20
0.923254
11
-0.74904
21
0.922761
0
LINE
8
BLACK
6
CONTINUOUS
10
-0.74904
20
0.922761
11
-0.748376
21
0.922378
0
LINE
8
BLACK
6
CONTINUOUS
10
-0.748376
20
0.922378
11
-0.748284
21
0.922127
0
LINE
8
BLACK
6
CONTINUOUS
10
-0.748284
20
0.922127
11
-0.74808
21
0.921956
0
LINE
8
BLACK
6
CONTINUOUS
10
-0.74808
20
0.921956
11
-0.747947
21
0.9212
0
LINE
8
BLACK
6
CONTINUOUS
10
-0.747947
20
0.9212
11
-0.747685
21
0.92048
0
LINE
8
BLACK
6
CONTINUOUS
10
-0.747685
20
0.92048
11
-0.747685
21
0.881109
0
LINE
8
BLACK
6
CONTINUOUS
10
-0.747685
20
0.881109
11
-0.747752
21
0.880726
0
LINE
8
BLACK
6
CONTINUOUS
10
-0.747752
20
0.880726
11
-0.74773
21
0.880597
0
LINE
8
BLACK
6
CONTINUOUS
10
-0.74773
20
0.880597
11
-0.747795
21
0.880483
0
LINE
8
BLACK
6
CONTINUOUS
10
-0.747795
20
0.880483
11
-0.747863
21
0.8801
0
LINE
8
BLACK
6
CONTINUOUS
10
-0.747863
20
0.8801
11
-0.748356
21
0.879512
0
LINE
8
BLACK
6
CONTINUOUS
10
-0.748356
20
0.879512
11
-0.748739
21
0.878848
0
LINE
8
BLACK
6
CONTINUOUS
10
-0.748739
20
0.878848
11
-0.74899
21
0.878756
0
LINE
8
BLACK
6
CONTINUOUS
10
-0.74899
20
0.878756
11
-0.749161
21
0.878552
0
LINE
8
BLACK
6
CONTINUOUS
10
-0.749161
20
0.878552
11
-0.749917
21
0.878419
0
LINE
8
BLACK
6
CONTINUOUS
10
-0.749917
20
0.878419
11
-0.750637
21
0.878157
0
LINE
8
BLACK
6
CONTINUOUS
10
-0.750637
20
0.878157
11
-0.760011
21
0.878157
0
LINE
8
BLACK
6
CONTINUOUS
10
-0.760011
20
0.878157
11
-0.760881
21
0.87831
0
LINE
8
BLACK
6
CONTINUOUS
10
-0.760881
20
0.87831
11
-0.760945
21
0.878308
0
LINE
8
BLACK
6
CONTINUOUS
10
-0.760945
20
0.878308
11
-0.766569
21
0.880183
0
LINE
8
BLACK
6
CONTINUOUS
10
-0.766569
20
0.880183
11
-0.767471
21
0.880671
0
LINE
8
BLACK
6
CONTINUOUS
10
-0.767471
20
0.880671
11
-0.767563
21
0.880822
0
LINE
8
BLACK
6
CONTINUOUS
10
-0.767563
20
0.880822
11
-0.767723
21
0.880896
0
LINE
8
BLACK
6
CONTINUOUS
10
-0.767723
20
0.880896
11
-0.771473
21
0.884646
0
LINE
8
BLACK
6
CONTINUOUS
10
-0.771473
20
0.884646
11
-0.771979
21
0.885369
0
LINE
8
BLACK
6
CONTINUOUS
10
-0.771979
20
0.885369
11
-0.772026
21
0.885413
0
LINE
8
BLACK
6
CONTINUOUS
10
-0.772026
20
0.885413
11
-0.773901
21
0.889163
0
LINE
8
BLACK
6
CONTINUOUS
10
-0.773901
20
0.889163
11
-0.774046
21
0.889651
0
LINE
8
BLACK
6
CONTINUOUS
10
-0.774046
20
0.889651
11
-0.774124
21
0.889767
0
LINE
8
BLACK
6
CONTINUOUS
10
-0.774124
20
0.889767
11
-0.775999
21
0.897266
0
LINE
8
BLACK
6
CONTINUOUS
10
-0.775999
20
0.897266
11
-0.776041
21
0.897854
0
LINE
8
BLACK
6
CONTINUOUS
10
-0.776041
20
0.897854
11
-0.776087
21
0.897982
0
LINE
8
BLACK
6
CONTINUOUS
10
-0.776087
20
0.897982
11
-0.776087
21
0.903607
0
LINE
8
BLACK
6
CONTINUOUS
10
-0.776087
20
0.903607
11
-0.775985
21
0.904187
0
LINE
8
BLACK
6
CONTINUOUS
10
-0.775985
20
0.904187
11
-0.775999
21
0.904323
0
LINE
8
BLACK
6
CONTINUOUS
10
-0.775999
20
0.904323
11
-0.774124
21
0.911822
0
LINE
8
BLACK
6
CONTINUOUS
10
-0.774124
20
0.911822
11
-0.773917
21
0.912287
0
LINE
8
BLACK
6
CONTINUOUS
10
-0.773917
20
0.912287
11
-0.773901
21
0.912426
0
LINE
8
BLACK
6
CONTINUOUS
10
-0.773901
20
0.912426
11
-0.772026
21
0.916176
0
LINE
8
BLACK
6
CONTINUOUS
10
-0.772026
20
0.916176
11
-0.7715
21
0.916885
0
LINE
8
BLACK
6
CONTINUOUS
10
-0.7715
20
0.916885
11
-0.771473
21
0.916943
0
LINE
8
BLACK
6
CONTINUOUS
10
-0.771473
20
0.916943
11
-0.767723
21
0.920693
0
LINE
8
BLACK
6
CONTINUOUS
10
-0.767723
20
0.920693
11
-0.766883
21
0.921281
0
LINE
8
BLACK
6
CONTINUOUS
10
-0.766883
20
0.921281
11
-0.766708
21
0.921296
0
LINE
8
BLACK
6
CONTINUOUS
10
-0.766708
20
0.921296
11
-0.766569
21
0.921406
0
LINE
8
BLACK
6
CONTINUOUS
10
-0.766569
20
0.921406
11
-0.760945
21
0.923281
0
LINE
8
BLACK
6
CONTINUOUS
10
-0.760945
20
0.923281
11
-0.760072
21
0.92341
0
LINE
8
BLACK
6
CONTINUOUS
10
-0.760072
20
0.92341
11
-0.760011
21
0.923432
0
LINE
8
BLACK
6
CONTINUOUS
10
-0.760011
20
0.923432
11
-0.750637
21
0.923432
0
LINE
8
BLACK
6
CONTINUOUS
10
-0.750637
20
0.923432
11
-0.750254
21
0.923365
0
LINE
8
BLACK
6
CONTINUOUS
10
-0.764041
20
0.916024
11
-0.766958
21
0.913106
0
LINE
8
BLACK
6
CONTINUOUS
10
-0.766958
20
0.913106
11
-0.768474
21
0.910075
0
LINE
8
BLACK
6
CONTINUOUS
10
-0.768474
20
0.910075
11
-0.770182
21
0.903243
0
LINE
8
BLACK
6
CONTINUOUS
10
-0.770182
20
0.903243
11
-0.770182
21
0.898346
0
LINE
8
BLACK
6
CONTINUOUS
10
-0.770182
20
0.898346
11
-0.768474
21
0.891514
0
LINE
8
BLACK
6
CONTINUOUS
10
-0.768474
20
0.891514
11
-0.766958
21
0.888483
0
LINE
8
BLACK
6
CONTINUOUS
10
-0.766958
20
0.888483
11
-0.764041
21
0.885565
0
LINE
8
BLACK
6
CONTINUOUS
10
-0.764041
20
0.885565
11
-0.759532
21
0.884062
0
LINE
8
BLACK
6
CONTINUOUS
10
-0.759532
20
0.884062
11
-0.75359
21
0.884062
0
LINE
8
BLACK
6
CONTINUOUS
10
-0.75359
20
0.884062
11
-0.75359
21
0.917527
0
LINE
8
BLACK
6
CONTINUOUS
10
-0.75359
20
0.917527
11
-0.759532
21
0.917527
0
LINE
8
BLACK
6
CONTINUOUS
10
-0.759532
20
0.917527
11
-0.764041
21
0.916024
0
LINE
8
BLACK
6
CONTINUOUS
10
-0.680888
20
0.923365
11
-0.680758
21
0.923387
0
LINE
8
BLACK
6
CONTINUOUS
10
-0.680758
20
0.923387
11
-0.680645
21
0.923322
0
LINE
8
BLACK
6
CONTINUOUS
10
-0.680645
20
0.923322
11
-0.680261
21
0.923254
0
LINE
8
BLACK
6
CONTINUOUS
10
-0.680261
20
0.923254
11
-0.679674
21
0.922761
0
LINE
8
BLACK
6
CONTINUOUS
10
-0.679674
20
0.922761
11
-0.679009
21
0.922378
0
LINE
8
BLACK
6
CONTINUOUS
10
-0.679009
20
0.922378
11
-0.678918
21
0.922127
0
LINE
8
BLACK
6
CONTINUOUS
10
-0.678918
20
0.922127
11
-0.678714
21
0.921956
0
LINE
8
BLACK
6
CONTINUOUS
10
-0.678714
20
0.921956
11
-0.678581
21
0.9212
0
LINE
8
BLACK
6
CONTINUOUS
10
-0.678581
20
0.9212
11
-0.678318
21
0.92048
0
LINE
8
BLACK
6
CONTINUOUS
10
-0.678318
20
0.92048
11
-0.678318
21
0.881109
0
LINE
8
BLACK
6
CONTINUOUS
10
-0.678318
20
0.881109
11
-0.678386
21
0.880726
0
LINE
8
BLACK
6
CONTINUOUS
10
-0.678386
20
0.880726
11
-0.678363
21
0.880597
0
LINE
8
BLACK
6
CONTINUOUS
10
-0.678363
20
0.880597
11
-0.678429
21
0.880483
0
LINE
8
BLACK
6
CONTINUOUS
10
-0.678429
20
0.880483
11
-0.678496
21
0.8801
0
LINE
8
BLACK
6
CONTINUOUS
10
-0.678496
20
0.8801
11
-0.67899
21
0.879512
0
LINE
8
BLACK
6
CONTINUOUS
10
-0.67899
20
0.879512
11
-0.679373
21
0.878848
0
LINE
8
BLACK
6
CONTINUOUS
10
-0.679373
20
0.878848
11
-0.679623
21
0.878756
0
LINE
8
BLACK
6
CONTINUOUS
10
-0.679623
20
0.878756
11
-0.679795
21
0.878552
0
LINE
8
BLACK
6
CONTINUOUS
10
-0.679795
20
0.878552
11
-0.68055
21
0.878419
0
LINE
8
BLACK
6
CONTINUOUS
10
-0.68055
20
0.878419
11
-0.681271
21
0.878157
0
LINE
8
BLACK
6
CONTINUOUS
10
-0.681271
20
0.878157
11
-0.700019
21
0.878157
0
LINE
8
BLACK
6
CONTINUOUS
10
-0.700019
20
0.878157
11
-0.701029
21
0.878335
0
LINE
8
BLACK
6
CONTINUOUS
10
-0.701029
20
0.878335
11
-0.702576
21
0.879633
0
LINE
8
BLACK
6
CONTINUOUS
10
-0.702576
20
0.879633
11
-0.702927
21
0.881622
0
LINE
8
BLACK
6
CONTINUOUS
10
-0.702927
20
0.881622
11
-0.701917
21
0.883371
0
LINE
8
BLACK
6
CONTINUOUS
10
-0.701917
20
0.883371
11
-0.700019
21
0.884062
0
LINE
8
BLACK
6
CONTINUOUS
10
-0.700019
20
0.884062
11
-0.684224
21
0.884062
0
LINE
8
BLACK
6
CONTINUOUS
10
-0.684224
20
0.884062
11
-0.684224
21
0.898779
0
LINE
8
BLACK
6
CONTINUOUS
10
-0.684224
20
0.898779
11
-0.694394
21
0.898779
0
LINE
8
BLACK
6
CONTINUOUS
10
-0.694394
20
0.898779
11
-0.695404
21
0.898957
0
LINE
8
BLACK
6
CONTINUOUS
10
-0.695404
20
0.898957
11
-0.696952
21
0.900256
0
LINE
8
BLACK
6
CONTINUOUS
10
-0.696952
20
0.900256
11
-0.697302
21
0.902245
0
LINE
8
BLACK
6
CONTINUOUS
10
-0.697302
20
0.902245
11
-0.696292
21
0.903994
0
LINE
8
BLACK
6
CONTINUOUS
10
-0.696292
20
0.903994
11
-0.694394
21
0.904685
0
LINE
8
BLACK
6
CONTINUOUS
10
-0.694394
20
0.904685
11
-0.684224
21
0.904685
0
LINE
8
BLACK
6
CONTINUOUS
10
-0.684224
20
0.904685
11
-0.684224
21
0.917527
0
LINE
8
BLACK
6
CONTINUOUS
10
-0.684224
20
0.917527
11
-0.700019
21
0.917527
0
LINE
8
BLACK
6
CONTINUOUS
10
-0.700019
20
0.917527
11
-0.701029
21
0.917705
0
LINE
8
BLACK
6
CONTINUOUS
10
-0.701029
20
0.917705
11
-0.702576
21
0.919003
0
LINE
8
BLACK
6
CONTINUOUS
10
-0.702576
20
0.919003
11
-0.702927
21
0.920992
0
LINE
8
BLACK
6
CONTINUOUS
10
-0.702927
20
0.920992
11
-0.701917
21
0.922741
0
LINE
8
BLACK
6
CONTINUOUS
10
-0.701917
20
0.922741
11
-0.700019
21
0.923432
0
LINE
8
BLACK
6
CONTINUOUS
10
-0.700019
20
0.923432
11
-0.681271
21
0.923432
0
LINE
8
BLACK
6
CONTINUOUS
10
-0.681271
20
0.923432
11
-0.680888
21
0.923365
0
LINE
8
BLACK
6
CONTINUOUS
10
-0.825245
20
0.923365
11
-0.825115
21
0.923387
0
LINE
8
BLACK
6
CONTINUOUS
10
-0.825115
20
0.923387
11
-0.825002
21
0.923322
0
LINE
8
BLACK
6
CONTINUOUS
10
-0.825002
20
0.923322
11
-0.824618
21
0.923254
0
LINE
8
BLACK
6
CONTINUOUS
10
-0.824618
20
0.923254
11
-0.82403
21
0.922761
0
LINE
8
BLACK
6
CONTINUOUS
10
-0.82403
20
0.922761
11
-0.823366
21
0.922378
0
LINE
8
BLACK
6
CONTINUOUS
10
-0.823366
20
0.922378
11
-0.823275
21
0.922127
0
LINE
8
BLACK
6
CONTINUOUS
10
-0.823275
20
0.922127
11
-0.823071
21
0.921956
0
LINE
8
BLACK
6
CONTINUOUS
10
-0.823071
20
0.921956
11
-0.822938
21
0.9212
0
LINE
8
BLACK
6
CONTINUOUS
10
-0.822938
20
0.9212
11
-0.822675
21
0.92048
0
LINE
8
BLACK
6
CONTINUOUS
10
-0.822675
20
0.92048
11
-0.822675
21
0.881109
0
LINE
8
BLACK
6
CONTINUOUS
10
-0.822675
20
0.881109
11
-0.822853
21
0.8801
0
LINE
8
BLACK
6
CONTINUOUS
10
-0.822853
20
0.8801
11
-0.824152
21
0.878552
0
LINE
8
BLACK
6
CONTINUOUS
10
-0.824152
20
0.878552
11
-0.826141
21
0.878202
0
LINE
8
BLACK
6
CONTINUOUS
10
-0.826141
20
0.878202
11
-0.82789
21
0.879211
0
LINE
8
BLACK
6
CONTINUOUS
10
-0.82789
20
0.879211
11
-0.828581
21
0.881109
0
LINE
8
BLACK
6
CONTINUOUS
10
-0.828581
20
0.881109
11
-0.828581
21
0.896904
0
LINE
8
BLACK
6
CONTINUOUS
10
-0.828581
20
0.896904
11
-0.833465
21
0.896904
0
LINE
8
BLACK
6
CONTINUOUS
10
-0.833465
20
0.896904
11
-0.845706
21
0.879416
0
LINE
8
BLACK
6
CONTINUOUS
10
-0.845706
20
0.879416
11
-0.846431
21
0.878691
0
LINE
8
BLACK
6
CONTINUOUS
10
-0.846431
20
0.878691
11
-0.848382
21
0.878168
0
LINE
8
BLACK
6
CONTINUOUS
10
-0.848382
20
0.878168
11
-0.850213
21
0.879021
0
LINE
8
BLACK
6
CONTINUOUS
10
-0.850213
20
0.879021
11
-0.851067
21
0.880852
0
LINE
8
BLACK
6
CONTINUOUS
10
-0.851067
20
0.880852
11
-0.850544
21
0.882803
0
LINE
8
BLACK
6
CONTINUOUS
10
-0.850544
20
0.882803
11
-0.840668
21
0.896912
0
LINE
8
BLACK
6
CONTINUOUS
10
-0.840668
20
0.896912
11
-0.841636
21
0.897082
0
LINE
8
BLACK
6
CONTINUOUS
10
-0.841636
20
0.897082
11
-0.841771
21
0.897196
0
LINE
8
BLACK
6
CONTINUOUS
10
-0.841771
20
0.897196
11
-0.841947
21
0.897216
0
LINE
8
BLACK
6
CONTINUOUS
10
-0.841947
20
0.897216
11
-0.845696
21
0.899091
0
LINE
8
BLACK
6
CONTINUOUS
10
-0.845696
20
0.899091
11
-0.846405
21
0.899617
0
LINE
8
BLACK
6
CONTINUOUS
10
-0.846405
20
0.899617
11
-0.846464
21
0.899644
0
LINE
8
BLACK
6
CONTINUOUS
10
-0.846464
20
0.899644
11
-0.848338
21
0.901519
0
LINE
8
BLACK
6
CONTINUOUS
10
-0.848338
20
0.901519
11
-0.848845
21
0.902242
0
LINE
8
BLACK
6
CONTINUOUS
10
-0.848845
20
0.902242
11
-0.848891
21
0.902286
0
LINE
8
BLACK
6
CONTINUOUS
10
-0.848891
20
0.902286
11
-0.850766
21
0.906036
0
LINE
8
BLACK
6
CONTINUOUS
10
-0.850766
20
0.906036
11
-0.851059
21
0.907019
0
LINE
8
BLACK
6
CONTINUOUS
10
-0.851059
20
0.907019
11
-0.851018
21
0.90719
0
LINE
8
BLACK
6
CONTINUOUS
10
-0.851018
20
0.90719
11
-0.851078
21
0.907356
0
LINE
8
BLACK
6
CONTINUOUS
10
-0.851078
20
0.907356
11
-0.851078
21
0.912981
0
LINE
8
BLACK
6
CONTINUOUS
10
-0.851078
20
0.912981
11
-0.8509
21
0.91399
0
LINE
8
BLACK
6
CONTINUOUS
10
-0.8509
20
0.91399
11
-0.850786
21
0.914126
0
LINE
8
BLACK
6
CONTINUOUS
10
-0.850786
20
0.914126
11
-0.850766
21
0.914301
0
LINE
8
BLACK
6
CONTINUOUS
10
-0.850766
20
0.914301
11
-0.848891
21
0.918051
0
LINE
8
BLACK
6
CONTINUOUS
10
-0.848891
20
0.918051
11
-0.848366
21
0.91876
0
LINE
8
BLACK
6
CONTINUOUS
10
-0.848366
20
0.91876
11
-0.848338
21
0.918818
0
LINE
8
BLACK
6
CONTINUOUS
10
-0.848338
20
0.918818
11
-0.846464
21
0.920693
0
LINE
8
BLACK
6
CONTINUOUS
10
-0.846464
20
0.920693
11
-0.845741
21
0.921199
0
LINE
8
BLACK
6
CONTINUOUS
10
-0.845741
20
0.921199
11
-0.845696
21
0.921246
0
LINE
8
BLACK
6
CONTINUOUS
10
-0.845696
20
0.921246
11
-0.841947
21
0.923121
0
LINE
8
BLACK
6
CONTINUOUS
10
-0.841947
20
0.923121
11
-0.840964
21
0.923413
0
LINE
8
BLACK
6
CONTINUOUS
10
-0.840964
20
0.923413
11
-0.840792
21
0.923372
0
LINE
8
BLACK
6
CONTINUOUS
10
-0.840792
20
0.923372
11
-0.840626
21
0.923432
0
LINE
8
BLACK
6
CONTINUOUS
10
-0.840626
20
0.923432
11
-0.825628
21
0.923432
0
LINE
8
BLACK
6
CONTINUOUS
10
-0.825628
20
0.923432
11
-0.825245
21
0.923365
0
LINE
8
BLACK
6
CONTINUOUS
10
-0.842627
20
0.916178
11
-0.843824
21
0.914981
0
LINE
8
BLACK
6
CONTINUOUS
10
-0.843824
20
0.914981
11
-0.845172
21
0.912283
0
LINE
8
BLACK
6
CONTINUOUS
10
-0.845172
20
0.912283
11
-0.845172
21
0.908053
0
LINE
8
BLACK
6
CONTINUOUS
10
-0.845172
20
0.908053
11
-0.843824
21
0.905356
0
LINE
8
BLACK
6
CONTINUOUS
10
-0.843824
20
0.905356
11
-0.842627
21
0.904159
0
LINE
8
BLACK
6
CONTINUOUS
10
-0.842627
20
0.904159
11
-0.839929
21
0.90281
0
LINE
8
BLACK
6
CONTINUOUS
10
-0.839929
20
0.90281
11
-0.828581
21
0.90281
0
LINE
8
BLACK
6
CONTINUOUS
10
-0.828581
20
0.90281
11
-0.828581
21
0.917527
0
LINE
8
BLACK
6
CONTINUOUS
10
-0.828581
20
0.917527
11
-0.839929
21
0.917527
0
LINE
8
BLACK
6
CONTINUOUS
10
-0.839929
20
0.917527
11
-0.842627
21
0.916178
0
LINE
8
BLACK
6
CONTINUOUS
10
-0.92654
20
0.909326
11
-0.925789
21
0.907451
0
LINE
8
BLACK
6
CONTINUOUS
10
-0.925789
20
0.907451
11
-0.926418
21
0.905532
0
LINE
8
BLACK
6
CONTINUOUS
10
-0.926418
20
0.905532
11
-0.935296
21
0.894233
0
LINE
8
BLACK
6
CONTINUOUS
10
-0.935296
20
0.894233
11
-0.926418
21
0.882934
0
LINE
8
BLACK
6
CONTINUOUS
10
-0.926418
20
0.882934
11
-0.925934
21
0.88203
0
LINE
8
BLACK
6
CONTINUOUS
10
-0.925934
20
0.88203
11
-0.925999
21
0.880011
0
LINE
8
BLACK
6
CONTINUOUS
10
-0.925999
20
0.880011
11
-0.927347
21
0.878506
0
LINE
8
BLACK
6
CONTINUOUS
10
-0.927347
20
0.878506
11
-0.929346
21
0.87822
0
LINE
8
BLACK
6
CONTINUOUS
10
-0.929346
20
0.87822
11
-0.931062
21
0.879285
0
LINE
8
BLACK
6
CONTINUOUS
10
-0.931062
20
0.879285
11
-0.939051
21
0.889454
0
LINE
8
BLACK
6
CONTINUOUS
10
-0.939051
20
0.889454
11
-0.947041
21
0.879285
0
LINE
8
BLACK
6
CONTINUOUS
10
-0.947041
20
0.879285
11
-0.947805
21
0.878601
0
LINE
8
BLACK
6
CONTINUOUS
10
-0.947805
20
0.878601
11
-0.949782
21
0.878187
0
LINE
8
BLACK
6
CONTINUOUS
10
-0.949782
20
0.878187
11
-0.951562
21
0.87914
0
LINE
8
BLACK
6
CONTINUOUS
10
-0.951562
20
0.87914
11
-0.952314
21
0.881015
0
LINE
8
BLACK
6
CONTINUOUS
10
-0.952314
20
0.881015
11
-0.951684
21
0.882934
0
LINE
8
BLACK
6
CONTINUOUS
10
-0.951684
20
0.882934
11
-0.942807
21
0.894233
0
LINE
8
BLACK
6
CONTINUOUS
10
-0.942807
20
0.894233
11
-0.951684
21
0.905532
0
LINE
8
BLACK
6
CONTINUOUS
10
-0.951684
20
0.905532
11
-0.952168
21
0.906436
0
LINE
8
BLACK
6
CONTINUOUS
10
-0.952168
20
0.906436
11
-0.952103
21
0.908455
0
LINE
8
BLACK
6
CONTINUOUS
10
-0.952103
20
0.908455
11
-0.950756
21
0.90996
0
LINE
8
BLACK
6
CONTINUOUS
10
-0.950756
20
0.90996
11
-0.948757
21
0.910246
0
LINE
8
BLACK
6
CONTINUOUS
10
-0.948757
20
0.910246
11
-0.947041
21
0.909181
0
LINE
8
BLACK
6
CONTINUOUS
10
-0.947041
20
0.909181
11
-0.939051
21
0.899012
0
LINE
8
BLACK
6
CONTINUOUS
10
-0.939051
20
0.899012
11
-0.931062
21
0.909181
0
LINE
8
BLACK
6
CONTINUOUS
10
-0.931062
20
0.909181
11
-0.930298
21
0.909865
0
LINE
8
BLACK
6
CONTINUOUS
10
-0.930298
20
0.909865
11
-0.928321
21
0.910279
0
LINE
8
BLACK
6
CONTINUOUS
10
-0.928321
20
0.910279
11
-0.92654
21
0.909326
0
LINE
8
BLACK
6
CONTINUOUS
10
-0.723909
20
0.923213
11
-0.722985
21
0.923076
0
LINE
8
BLACK
6
CONTINUOUS
10
-0.722985
20
0.923076
11
-0.722928
21
0.923012
0
LINE
8
BLACK
6
CONTINUOUS
10
-0.722928
20
0.923012
11
-0.722845
21
0.922995
0
LINE
8
BLACK
6
CONTINUOUS
10
-0.722845
20
0.922995
11
-0.722264
21
0.922264
0
LINE
8
BLACK
6
CONTINUOUS
10
-0.722264
20
0.922264
11
-0.721645
21
0.921565
0
LINE
8
BLACK
6
CONTINUOUS
10
-0.721645
20
0.921565
11
-0.721642
21
0.92148
0
LINE
8
BLACK
6
CONTINUOUS
10
-0.721642
20
0.92148
11
-0.721589
21
0.921413
0
LINE
8
BLACK
6
CONTINUOUS
10
-0.721589
20
0.921413
11
-0.708466
21
0.882043
0
LINE
8
BLACK
6
CONTINUOUS
10
-0.708466
20
0.882043
11
-0.708316
21
0.881029
0
LINE
8
BLACK
6
CONTINUOUS
10
-0.708316
20
0.881029
11
-0.709058
21
0.87915
0
LINE
8
BLACK
6
CONTINUOUS
10
-0.709058
20
0.87915
11
-0.710834
21
0.878189
0
LINE
8
BLACK
6
CONTINUOUS
10
-0.710834
20
0.878189
11
-0.712813
21
0.878594
0
LINE
8
BLACK
6
CONTINUOUS
10
-0.712813
20
0.878594
11
-0.714069
21
0.880176
0
LINE
8
BLACK
6
CONTINUOUS
10
-0.714069
20
0.880176
11
-0.717145
21
0.889405
0
LINE
8
BLACK
6
CONTINUOUS
10
-0.717145
20
0.889405
11
-0.731636
21
0.889405
0
LINE
8
BLACK
6
CONTINUOUS
10
-0.731636
20
0.889405
11
-0.734713
21
0.880176
0
LINE
8
BLACK
6
CONTINUOUS
10
-0.734713
20
0.880176
11
-0.735201
21
0.879274
0
LINE
8
BLACK
6
CONTINUOUS
10
-0.735201
20
0.879274
11
-0.736922
21
0.878217
0
LINE
8
BLACK
6
CONTINUOUS
10
-0.736922
20
0.878217
11
-0.73892
21
0.878513
0
LINE
8
BLACK
6
CONTINUOUS
10
-0.73892
20
0.878513
11
-0.74026
21
0.880024
0
LINE
8
BLACK
6
CONTINUOUS
10
-0.74026
20
0.880024
11
-0.740315
21
0.882043
0
LINE
8
BLACK
6
CONTINUOUS
10
-0.740315
20
0.882043
11
-0.727192
21
0.921413
0
LINE
8
BLACK
6
CONTINUOUS
10
-0.727192
20
0.921413
11
-0.726704
21
0.922315
0
LINE
8
BLACK
6
CONTINUOUS
10
-0.726704
20
0.922315
11
-0.726631
21
0.92236
0
LINE
8
BLACK
6
CONTINUOUS
10
-0.726631
20
0.92236
11
-0.7266
21
0.922439
0
LINE
8
BLACK
6
CONTINUOUS
10
-0.7266
20
0.922439
11
-0.725779
21
0.922883
0
LINE
8
BLACK
6
CONTINUOUS
10
-0.725779
20
0.922883
11
-0.724983
21
0.923372
0
LINE
8
BLACK
6
CONTINUOUS
10
-0.724983
20
0.923372
11
-0.724899
21
0.92336
0
LINE
8
BLACK
6
CONTINUOUS
10
-0.724899
20
0.92336
11
-0.724824
21
0.9234
0
LINE
8
BLACK
6
CONTINUOUS
10
-0.724824
20
0.9234
11
-0.723909
21
0.923213
0
LINE
8
BLACK
6
CONTINUOUS
10
-0.729668
20
0.895311
11
-0.719114
21
0.895311
0
LINE
8
BLACK
6
CONTINUOUS
10
-0.719114
20
0.895311
11
-0.724391
21
0.911142
0
LINE
8
BLACK
6
CONTINUOUS
10
-0.724391
20
0.911142
11
-0.729668
21
0.895311
0
LINE
8
BLACK
6
CONTINUOUS
10
-0.637764
20
0.922378
11
-0.637074
21
0.92048
0
LINE
8
BLACK
6
CONTINUOUS
10
-0.637074
20
0.92048
11
-0.637074
21
0.881109
0
LINE
8
BLACK
6
CONTINUOUS
10
-0.637074
20
0.881109
11
-0.637252
21
0.8801
0
LINE
8
BLACK
6
CONTINUOUS
10
-0.637252
20
0.8801
11
-0.63855
21
0.878552
0
LINE
8
BLACK
6
CONTINUOUS
10
-0.63855
20
0.878552
11
-0.640539
21
0.878202
0
LINE
8
BLACK
6
CONTINUOUS
10
-0.640539
20
0.878202
11
-0.642288
21
0.879211
0
LINE
8
BLACK
6
CONTINUOUS
10
-0.642288
20
0.879211
11
-0.642979
21
0.881109
0
LINE
8
BLACK
6
CONTINUOUS
10
-0.642979
20
0.881109
11
-0.642979
21
0.898779
0
LINE
8
BLACK
6
CONTINUOUS
10
-0.642979
20
0.898779
11
-0.659571
21
0.898779
0
LINE
8
BLACK
6
CONTINUOUS
10
-0.659571
20
0.898779
11
-0.659571
21
0.881109
0
LINE
8
BLACK
6
CONTINUOUS
10
-0.659571
20
0.881109
11
-0.659749
21
0.8801
0
LINE
8
BLACK
6
CONTINUOUS
10
-0.659749
20
0.8801
11
-0.661047
21
0.878552
0
LINE
8
BLACK
6
CONTINUOUS
10
-0.661047
20
0.878552
11
-0.663036
21
0.878202
0
LINE
8
BLACK
6
CONTINUOUS
10
-0.663036
20
0.878202
11
-0.664785
21
0.879211
0
LINE
8
BLACK
6
CONTINUOUS
10
-0.664785
20
0.879211
11
-0.665476
21
0.881109
0
LINE
8
BLACK
6
CONTINUOUS
10
-0.665476
20
0.881109
11
-0.665476
21
0.92048
0
LINE
8
BLACK
6
CONTINUOUS
10
-0.665476
20
0.92048
11
-0.665298
21
0.921489
0
LINE
8
BLACK
6
CONTINUOUS
10
-0.665298
20
0.921489
11
-0.664
21
0.923037
0
LINE
8
BLACK
6
CONTINUOUS
10
-0.664
20
0.923037
11
-0.662011
21
0.923387
0
LINE
8
BLACK
6
CONTINUOUS
10
-0.662011
20
0.923387
11
-0.660261
21
0.922378
0
LINE
8
BLACK
6
CONTINUOUS
10
-0.660261
20
0.922378
11
-0.659571
21
0.92048
0
LINE
8
BLACK
6
CONTINUOUS
10
-0.659571
20
0.92048
11
-0.659571
21
0.904685
0
LINE
8
BLACK
6
CONTINUOUS
10
-0.659571
20
0.904685
11
-0.642979
21
0.904685
0
LINE
8
BLACK
6
CONTINUOUS
10
-0.642979
20
0.904685
11
-0.642979
21
0.92048
0
LINE
8
BLACK
6
CONTINUOUS
10
-0.642979
20
0.92048
11
-0.642801
21
0.921489
0
LINE
8
BLACK
6
CONTINUOUS
10
-0.642801
20
0.921489
11
-0.641503
21
0.923037
0
LINE
8
BLACK
6
CONTINUOUS
10
-0.641503
20
0.923037
11
-0.639514
21
0.923387
0
LINE
8
BLACK
6
CONTINUOUS
10
-0.639514
20
0.923387
11
-0.637764
21
0.922378
0
LINE
8
BLACK
6
CONTINUOUS
10
-0.811779
20
1.69171
11
-0.811644
21
1.69173
0
LINE
8
BLACK
6
CONTINUOUS
10
-0.811644
20
1.69173
11
-0.810916
21
1.69122
0
LINE
8
BLACK
6
CONTINUOUS
10
-0.810916
20
1.69122
11
-0.810147
21
1.69077
0
LINE
8
BLACK
6
CONTINUOUS
10
-0.810147
20
1.69077
11
-0.810101
21
1.69064
0
LINE
8
BLACK
6
CONTINUOUS
10
-0.810101
20
1.69064
11
-0.80999
21
1.69057
0
LINE
8
BLACK
6
CONTINUOUS
10
-0.80999
20
1.69057
11
-0.80976
21
1.68971
0
LINE
8
BLACK
6
CONTINUOUS
10
-0.80976
20
1.68971
11
-0.809456
21
1.68887
0
LINE
8
BLACK
6
CONTINUOUS
10
-0.809456
20
1.68887
11
-0.809456
21
1.6645
0
LINE
8
BLACK
6
CONTINUOUS
10
-0.809456
20
1.6645
11
-0.809634
21
1.66349
0
LINE
8
BLACK
6
CONTINUOUS
10
-0.809634
20
1.66349
11
-0.810932
21
1.66194
0
LINE
8
BLACK
6
CONTINUOUS
10
-0.810932
20
1.66194
11
-0.812921
21
1.66159
0
LINE
8
BLACK
6
CONTINUOUS
10
-0.812921
20
1.66159
11
-0.814671
21
1.6626
0
LINE
8
BLACK
6
CONTINUOUS
10
-0.814671
20
1.6626
11
-0.815361
21
1.6645
0
LINE
8
BLACK
6
CONTINUOUS
10
-0.815361
20
1.6645
11
-0.815361
21
1.68174
0
LINE
8
BLACK
6
CONTINUOUS
10
-0.815361
20
1.68174
11
-0.832818
21
1.66429
0
LINE
8
BLACK
6
CONTINUOUS
10
-0.832818
20
1.66429
11
-0.833658
21
1.6637
0
LINE
8
BLACK
6
CONTINUOUS
10
-0.833658
20
1.6637
11
-0.833834
21
1.66368
0
LINE
8
BLACK
6
CONTINUOUS
10
-0.833834
20
1.66368
11
-0.833972
21
1.66357
0
LINE
8
BLACK
6
CONTINUOUS
10
-0.833972
20
1.66357
11
-0.839596
21
1.6617
0
LINE
8
BLACK
6
CONTINUOUS
10
-0.839596
20
1.6617
11
-0.84047
21
1.66157
0
LINE
8
BLACK
6
CONTINUOUS
10
-0.84047
20
1.66157
11
-0.84053
21
1.66155
0
LINE
8
BLACK
6
CONTINUOUS
10
-0.84053
20
1.66155
11
-0.84428
21
1.66155
0
LINE
8
BLACK
6
CONTINUOUS
10
-0.84428
20
1.66155
11
-0.84529
21
1.66173
0
LINE
8
BLACK
6
CONTINUOUS
10
-0.84529
20
1.66173
11
-0.845425
21
1.66184
0
LINE
8
BLACK
6
CONTINUOUS
10
-0.845425
20
1.66184
11
-0.8456
21
1.66186
0
LINE
8
BLACK
6
CONTINUOUS
10
-0.8456
20
1.66186
11
-0.84935
21
1.66374
0
LINE
8
BLACK
6
CONTINUOUS
10
-0.84935
20
1.66374
11
-0.850059
21
1.66426
0
LINE
8
BLACK
6
CONTINUOUS
10
-0.850059
20
1.66426
11
-0.850117
21
1.66429
0
LINE
8
BLACK
6
CONTINUOUS
10
-0.850117
20
1.66429
11
-0.851992
21
1.66616
0
LINE
8
BLACK
6
CONTINUOUS
10
-0.851992
20
1.66616
11
-0.852498
21
1.66689
0
LINE
8
BLACK
6
CONTINUOUS
10
-0.852498
20
1.66689
11
-0.852545
21
1.66693
0
LINE
8
BLACK
6
CONTINUOUS
10
-0.852545
20
1.66693
11
-0.85442
21
1.67068
0
LINE
8
BLACK
6
CONTINUOUS
10
-0.85442
20
1.67068
11
-0.854712
21
1.67166
0
LINE
8
BLACK
6
CONTINUOUS
10
-0.854712
20
1.67166
11
-0.854671
21
1.67183
0
LINE
8
BLACK
6
CONTINUOUS
10
-0.854671
20
1.67183
11
-0.854732
21
1.672
0
LINE
8
BLACK
6
CONTINUOUS
10
-0.854732
20
1.672
11
-0.854732
21
1.68137
0
LINE
8
BLACK
6
CONTINUOUS
10
-0.854732
20
1.68137
11
-0.854553
21
1.68238
0
LINE
8
BLACK
6
CONTINUOUS
10
-0.854553
20
1.68238
11
-0.85444
21
1.68252
0
LINE
8
BLACK
6
CONTINUOUS
10
-0.85444
20
1.68252
11
-0.85442
21
1.68269
0
LINE
8
BLACK
6
CONTINUOUS
10
-0.85442
20
1.68269
11
-0.852545
21
1.68644
0
LINE
8
BLACK
6
CONTINUOUS
10
-0.852545
20
1.68644
11
-0.852019
21
1.68715
0
LINE
8
BLACK
6
CONTINUOUS
10
-0.852019
20
1.68715
11
-0.851992
21
1.68721
0
LINE
8
BLACK
6
CONTINUOUS
10
-0.851992
20
1.68721
11
-0.850117
21
1.68909
0
LINE
8
BLACK
6
CONTINUOUS
10
-0.850117
20
1.68909
11
-0.849277
21
1.68967
0
LINE
8
BLACK
6
CONTINUOUS
10
-0.849277
20
1.68967
11
-0.847265
21
1.68985
0
LINE
8
BLACK
6
CONTINUOUS
10
-0.847265
20
1.68985
11
-0.84561
21
1.68869
0
LINE
8
BLACK
6
CONTINUOUS
10
-0.84561
20
1.68869
11
-0.845088
21
1.68674
0
LINE
8
BLACK
6
CONTINUOUS
10
-0.845088
20
1.68674
11
-0.845941
21
1.68491
0
LINE
8
BLACK
6
CONTINUOUS
10
-0.845941
20
1.68491
11
-0.847477
21
1.68337
0
LINE
8
BLACK
6
CONTINUOUS
10
-0.847477
20
1.68337
11
-0.848826
21
1.68068
0
LINE
8
BLACK
6
CONTINUOUS
10
-0.848826
20
1.68068
11
-0.848826
21
1.6727
0
LINE
8
BLACK
6
CONTINUOUS
10
-0.848826
20
1.6727
11
-0.847477
21
1.67
0
LINE
8
BLACK
6
CONTINUOUS
10
-0.847477
20
1.67
11
-0.84628
21
1.6688
0
LINE
8
BLACK
6
CONTINUOUS
10
-0.84628
20
1.6688
11
-0.843583
21
1.66745
0
LINE
8
BLACK
6
CONTINUOUS
10
-0.843583
20
1.66745
11
-0.841009
21
1.66745
0
LINE
8
BLACK
6
CONTINUOUS
10
-0.841009
20
1.66745
11
-0.836501
21
1.66896
0
LINE
8
BLACK
6
CONTINUOUS
10
-0.836501
20
1.66896
11
-0.814497
21
1.69096
0
LINE
8
BLACK
6
CONTINUOUS
10
-0.814497
20
1.69096
11
-0.813969
21
1.69133
0
LINE
8
BLACK
6
CONTINUOUS
10
-0.813969
20
1.69133
11
-0.813885
21
1.69143
0
LINE
8
BLACK
6
CONTINUOUS
10
-0.813885
20
1.69143
11
-0.813807
21
1.69144
0
LINE
8
BLACK
6
CONTINUOUS
10
-0.813807
20
1.69144
11
-0.813657
21
1.69155
0
LINE
8
BLACK
6
CONTINUOUS
10
-0.813657
20
1.69155
11
-0.812771
21
1.69163
0
LINE
8
BLACK
6
CONTINUOUS
10
-0.812771
20
1.69163
11
-0.811896
21
1.69178
0
LINE
8
BLACK
6
CONTINUOUS
10
-0.811896
20
1.69178
11
-0.811779
21
1.69171
0
LINE
8
BLACK
6
CONTINUOUS
10
-0.810147
20
1.72077
11
-0.809456
21
1.71887
0
LINE
8
BLACK
6
CONTINUOUS
10
-0.809456
20
1.71887
11
-0.809456
21
1.71512
0
LINE
8
BLACK
6
CONTINUOUS
10
-0.809456
20
1.71512
11
-0.809609
21
1.71425
0
LINE
8
BLACK
6
CONTINUOUS
10
-0.809609
20
1.71425
11
-0.809607
21
1.71419
0
LINE
8
BLACK
6
CONTINUOUS
10
-0.809607
20
1.71419
11
-0.811482
21
1.70856
0
LINE
8
BLACK
6
CONTINUOUS
10
-0.811482
20
1.70856
11
-0.811971
21
1.70766
0
LINE
8
BLACK
6
CONTINUOUS
10
-0.811971
20
1.70766
11
-0.812121
21
1.70757
0
LINE
8
BLACK
6
CONTINUOUS
10
-0.812121
20
1.70757
11
-0.812196
21
1.70741
0
LINE
8
BLACK
6
CONTINUOUS
10
-0.812196
20
1.70741
11
-0.815945
21
1.70366
0
LINE
8
BLACK
6
CONTINUOUS
10
-0.815945
20
1.70366
11
-0.816785
21
1.70307
0
LINE
8
BLACK
6
CONTINUOUS
10
-0.816785
20
1.70307
11
-0.816961
21
1.70305
0
LINE
8
BLACK
6
CONTINUOUS
10
-0.816961
20
1.70305
11
-0.817099
21
1.70294
0
LINE
8
BLACK
6
CONTINUOUS
10
-0.817099
20
1.70294
11
-0.822724
21
1.70107
0
LINE
8
BLACK
6
CONTINUOUS
10
-0.822724
20
1.70107
11
-0.823597
21
1.70094
0
LINE
8
BLACK
6
CONTINUOUS
10
-0.823597
20
1.70094
11
-0.823657
21
1.70092
0
LINE
8
BLACK
6
CONTINUOUS
10
-0.823657
20
1.70092
11
-0.851779
21
1.70092
0
LINE
8
BLACK
6
CONTINUOUS
10
-0.851779
20
1.70092
11
-0.852789
21
1.7011
0
LINE
8
BLACK
6
CONTINUOUS
10
-0.852789
20
1.7011
11
-0.854336
21
1.7024
0
LINE
8
BLACK
6
CONTINUOUS
10
-0.854336
20
1.7024
11
-0.854687
21
1.70438
0
LINE
8
BLACK
6
CONTINUOUS
10
-0.854687
20
1.70438
11
-0.853677
21
1.70613
0
LINE
8
BLACK
6
CONTINUOUS
10
-0.853677
20
1.70613
11
-0.851779
21
1.70682
0
LINE
8
BLACK
6
CONTINUOUS
10
-0.851779
20
1.70682
11
-0.824136
21
1.70682
0
LINE
8
BLACK
6
CONTINUOUS
10
-0.824136
20
1.70682
11
-0.819628
21
1.70833
0
LINE
8
BLACK
6
CONTINUOUS
10
-0.819628
20
1.70833
11
-0.816864
21
1.71109
0
LINE
8
BLACK
6
CONTINUOUS
10
-0.816864
20
1.71109
11
-0.815361
21
1.7156
0
LINE
8
BLACK
6
CONTINUOUS
10
-0.815361
20
1.7156
11
-0.815361
21
1.71887
0
LINE
8
BLACK
6
CONTINUOUS
10
-0.815361
20
1.71887
11
-0.815183
21
1.71988
0
LINE
8
BLACK
6
CONTINUOUS
10
-0.815183
20
1.71988
11
-0.813885
21
1.72143
0
LINE
8
BLACK
6
CONTINUOUS
10
-0.813885
20
1.72143
11
-0.811896
21
1.72178
0
LINE
8
BLACK
6
CONTINUOUS
10
-0.811896
20
1.72178
11
-0.810147
21
1.72077
0
LINE
8
BLACK
6
CONTINUOUS
10
-0.780315
20
2.44272
11
-0.778923
21
2.44214
0
LINE
8
BLACK
6
CONTINUOUS
10
-0.778923
20
2.44214
11
-0.728923
21
2.39214
0
LINE
8
BLACK
6
CONTINUOUS
10
-0.728923
20
2.39214
11
-0.728346
21
2.39075
0
LINE
8
BLACK
6
CONTINUOUS
10
-0.728346
20
2.39075
11
-0.728346
21
0.940748
0
LINE
8
BLACK
6
CONTINUOUS
10
-0.728346
20
0.940748
11
-0.728923
21
0.939356
0
LINE
8
BLACK
6
CONTINUOUS
10
-0.728923
20
0.939356
11
-0.730315
21
0.93878
0
LINE
8
BLACK
6
CONTINUOUS
10
-0.730315
20
0.93878
11
-0.930315
21
0.93878
0
LINE
8
BLACK
6
CONTINUOUS
10
-0.930315
20
0.93878
11
-0.931707
21
0.939356
0
LINE
8
BLACK
6
CONTINUOUS
10
-0.931707
20
0.939356
11
-0.932283
21
0.940748
0
LINE
8
BLACK
6
CONTINUOUS
10
-0.932283
20
0.940748
11
-0.932283
21
2.44075
0
LINE
8
BLACK
6
CONTINUOUS
10
-0.932283
20
2.44075
11
-0.931707
21
2.44214
0
LINE
8
BLACK
6
CONTINUOUS
10
-0.931707
20
2.44214
11
-0.930315
21
2.44272
0
LINE
8
BLACK
6
CONTINUOUS
10
-0.930315
20
2.44272
11
-0.780315
21
2.44272
0
LINE
8
BLACK
6
CONTINUOUS
10
-0.928346
20
2.43878
11
-0.928346
21
0.942717
0
LINE
8
BLACK
6
CONTINUOUS
10
-0.928346
20
0.942717
11
-0.732283
21
0.942717
0
LINE
8
BLACK
6
CONTINUOUS
10
-0.732283
20
0.942717
11
-0.732283
21
2.38993
0
LINE
8
BLACK
6
CONTINUOUS
10
-0.732283
20
2.38993
11
-0.78113
21
2.43878
0
LINE
8
BLACK
6
CONTINUOUS
10
-0.78113
20
2.43878
11
-0.928346
21
2.43878
  0
ENDSEC
  0
EOF
