  0
SECTION
  2
HEADER
  9
$ANGBASE
  50
0.0
  9
$ANGDIR
  70
1
  9
$MEASUREMENT
  70
0
  0
ENDSEC
  0
SECTION
  2
TABLES
  0
TABLE
  2
LTYPE
  70
4
  0
LTYPE
  5
40F
  2
CONTINUOUS
  70
0
  3
Solid line
  72
65
  73
0
  40
0.0
  0
LTYPE
  5
410
  2
DASHDOT
 70
0
  3
Dash Dot ____ _ ____ _
 72
65
 73
4
 40
2.0
 49
1.25
 49
-0.25
 49
0.25
 49
-0.25
  0
LTYPE
  5
411
  2
DASHED
 70
0
  3
Dashed __ __ __ __ __
 72
65
 73
2
 40
0.75
 49
0.5
 49
-0.25
  0
LTYPE
  5
43B
  2
DOTTED
 70
0
  3
Dotted .  .  .  .
 72
65
 73
2
 40
0.2
 49
0.0
 49
-0.2
  0
ENDTAB
  0
TABLE
  2
STYLE
  70
4
  0
STYLE
  2
KICAD
  70
0
  40
0
  41
1
  42
1
  50
0
  71
0
  3
isocp.shx
  0
STYLE
  2
KICADB
  70
0
  40
0
  41
1
  42
1
  50
0
  71
0
  3
isocp.shx
  0
STYLE
  2
KICADI
  70
0
  40
0
  41
1
  42
1
  50
15
  71
0
  3
isocp.shx
  0
STYLE
  2
KICADBI
  70
0
  40
0
  41
1
  42
1
  50
15
  71
0
  3
isocp.shx
  0
ENDTAB
  0
TABLE
  2
LAYER
  70
1
  0
LAYER
  2
BLACK
  70
0
  62
7
  6
CONTINUOUS
  0
ENDTAB
  0
ENDSEC
  0
SECTION
  2
ENTITIES
0
LINE
8
BLACK
6
CONTINUOUS
10
-0.8546143700787402
20
0.862811811023622
11
-0.8530671259842519
21
0.8615135039370079
0
LINE
8
BLACK
6
CONTINUOUS
10
-0.8530671259842519
20
0.8615135039370079
11
-0.8527163779527559
21
0.8595243700787402
0
LINE
8
BLACK
6
CONTINUOUS
10
-0.8527163779527559
20
0.8595243700787402
11
-0.8537262992125985
21
0.8577751968503937
0
LINE
8
BLACK
6
CONTINUOUS
10
-0.8537262992125985
20
0.8577751968503937
11
-0.8556242913385826
21
0.8570843700787402
0
LINE
8
BLACK
6
CONTINUOUS
10
-0.8556242913385826
20
0.8570843700787402
11
-0.8856205511811024
21
0.8570843700787402
0
LINE
8
BLACK
6
CONTINUOUS
10
-0.8856205511811024
20
0.8570843700787402
11
-0.8866304724409448
21
0.8572624409448819
0
LINE
8
BLACK
6
CONTINUOUS
10
-0.8866304724409448
20
0.8572624409448819
11
-0.8881777165354331
21
0.8585607480314961
0
LINE
8
BLACK
6
CONTINUOUS
10
-0.8881777165354331
20
0.8585607480314961
11
-0.8885284645669291
21
0.8605498818897638
0
LINE
8
BLACK
6
CONTINUOUS
10
-0.8885284645669291
20
0.8605498818897638
11
-0.8875185433070866
21
0.8622990551181102
0
LINE
8
BLACK
6
CONTINUOUS
10
-0.8875185433070866
20
0.8622990551181102
11
-0.8856205511811024
21
0.8629898818897638
0
LINE
8
BLACK
6
CONTINUOUS
10
-0.8856205511811024
20
0.8629898818897638
11
-0.8556242913385826
21
0.8629898818897638
0
LINE
8
BLACK
6
CONTINUOUS
10
-0.8556242913385826
20
0.8629898818897638
11
-0.8546143700787402
21
0.862811811023622
0
LINE
8
BLACK
6
CONTINUOUS
10
-1.0017022440944883
20
0.9060824015748031
11
-1.0016351968503936
21
0.9061012204724409
0
LINE
8
BLACK
6
CONTINUOUS
10
-1.0016351968503936
20
0.9061012204724409
11
-1.0015236614173229
21
0.906050905511811
0
LINE
8
BLACK
6
CONTINUOUS
10
-1.0015236614173229
20
0.906050905511811
11
-1.0008461417322834
21
0.9059314173228347
0
LINE
8
BLACK
6
CONTINUOUS
10
-1.0008461417322834
20
0.9059314173228347
11
-1.0003657874015748
21
0.9055283464566929
0
LINE
8
BLACK
6
CONTINUOUS
10
-1.0003657874015748
20
0.9055283464566929
11
-0.9997942125984252
21
0.9052703937007874
0
LINE
8
BLACK
6
CONTINUOUS
10
-0.9997942125984252
20
0.9052703937007874
11
-0.9996151574803149
21
0.9048984645669291
0
LINE
8
BLACK
6
CONTINUOUS
10
-0.9996151574803149
20
0.9048984645669291
11
-0.9992988976377952
21
0.9046331102362205
0
LINE
8
BLACK
6
CONTINUOUS
10
-0.9992988976377952
20
0.9046331102362205
11
-0.9991900393700787
21
0.9040155905511811
0
LINE
8
BLACK
6
CONTINUOUS
10
-0.9991900393700787
20
0.9040155905511811
11
-0.9989179527559054
21
0.9034505511811023
0
LINE
8
BLACK
6
CONTINUOUS
10
-0.9989179527559054
20
0.9034505511811023
11
-0.9970431889763779
21
0.8847029133858267
0
LINE
8
BLACK
6
CONTINUOUS
10
-0.9970431889763779
20
0.8847029133858267
11
-0.9971198818897637
21
0.8836802755905512
0
LINE
8
BLACK
6
CONTINUOUS
10
-0.9971198818897637
20
0.8836802755905512
11
-0.9971308661417323
21
0.8836642125984252
0
LINE
8
BLACK
6
CONTINUOUS
10
-0.9971308661417323
20
0.8836642125984252
11
-0.9971291732283465
21
0.8836448818897638
0
LINE
8
BLACK
6
CONTINUOUS
10
-0.9971291732283465
20
0.8836448818897638
11
-0.997697559055118
21
0.8828331496062992
0
LINE
8
BLACK
6
CONTINUOUS
10
-0.997697559055118
20
0.8828331496062992
11
-0.9982577952755906
21
0.8820115354330709
0
LINE
8
BLACK
6
CONTINUOUS
10
-0.9982577952755906
20
0.8820115354330709
11
-0.9982765354330708
21
0.8820062992125984
0
LINE
8
BLACK
6
CONTINUOUS
10
-0.9982765354330708
20
0.8820062992125984
11
-0.9982876771653543
21
0.8819903149606299
0
LINE
8
BLACK
6
CONTINUOUS
10
-0.9982876771653543
20
0.8819903149606299
11
-0.9992466141732284
21
0.8817334251968504
0
LINE
8
BLACK
6
CONTINUOUS
10
-0.9992466141732284
20
0.8817334251968504
11
-1.0002021653543307
21
0.8814646062992125
0
LINE
8
BLACK
6
CONTINUOUS
10
-1.0002021653543307
20
0.8814646062992125
11
-1.0002199212598426
21
0.8814726377952755
0
LINE
8
BLACK
6
CONTINUOUS
10
-1.0002199212598426
20
0.8814726377952755
11
-1.0002386614173229
21
0.8814675984251968
0
LINE
8
BLACK
6
CONTINUOUS
10
-1.0002386614173229
20
0.8814675984251968
11
-1.0011370472440944
21
0.8818865354330708
0
LINE
8
BLACK
6
CONTINUOUS
10
-1.0011370472440944
20
0.8818865354330708
11
-1.0020431496062991
21
0.8822954330708661
0
LINE
8
BLACK
6
CONTINUOUS
10
-1.0020431496062991
20
0.8822954330708661
11
-1.0020516141732283
21
0.8823129921259842
0
LINE
8
BLACK
6
CONTINUOUS
10
-1.0020516141732283
20
0.8823129921259842
11
-1.0020692125984252
21
0.8823211811023622
0
LINE
8
BLACK
6
CONTINUOUS
10
-1.0020692125984252
20
0.8823211811023622
11
-1.0036051574803149
21
0.8838571259842519
0
LINE
8
BLACK
6
CONTINUOUS
10
-1.0036051574803149
20
0.8838571259842519
11
-1.0063026377952755
21
0.8852058661417322
0
LINE
8
BLACK
6
CONTINUOUS
10
-1.0063026377952755
20
0.8852058661417322
11
-1.0142823622047243
21
0.8852058661417322
0
LINE
8
BLACK
6
CONTINUOUS
10
-1.0142823622047243
20
0.8852058661417322
11
-1.016979842519685
21
0.8838571259842519
0
LINE
8
BLACK
6
CONTINUOUS
10
-1.016979842519685
20
0.8838571259842519
11
-1.018176968503937
21
0.88266
0
LINE
8
BLACK
6
CONTINUOUS
10
-1.018176968503937
20
0.88266
11
-1.0195257086614173
21
0.8799625196850394
0
LINE
8
BLACK
6
CONTINUOUS
10
-1.0195257086614173
20
0.8799625196850394
11
-1.0195257086614173
21
0.8719827952755905
0
LINE
8
BLACK
6
CONTINUOUS
10
-1.0195257086614173
20
0.8719827952755905
11
-1.018176968503937
21
0.8692853149606299
0
LINE
8
BLACK
6
CONTINUOUS
10
-1.018176968503937
20
0.8692853149606299
11
-1.016979842519685
21
0.8680881496062992
0
LINE
8
BLACK
6
CONTINUOUS
10
-1.016979842519685
20
0.8680881496062992
11
-1.0142823622047243
21
0.8667394094488189
0
LINE
8
BLACK
6
CONTINUOUS
10
-1.0142823622047243
20
0.8667394094488189
11
-1.0063026377952755
21
0.8667394094488189
0
LINE
8
BLACK
6
CONTINUOUS
10
-1.0063026377952755
20
0.8667394094488189
11
-1.0036051968503936
21
0.8680881496062992
0
LINE
8
BLACK
6
CONTINUOUS
10
-1.0036051968503936
20
0.8680881496062992
11
-1.0020692519685039
21
0.869624094488189
0
LINE
8
BLACK
6
CONTINUOUS
10
-1.0020692519685039
20
0.869624094488189
11
-1.0012292125984252
21
0.8702123228346457
0
LINE
8
BLACK
6
CONTINUOUS
10
-1.0012292125984252
20
0.8702123228346457
11
-0.9992170866141732
21
0.8703883858267716
0
LINE
8
BLACK
6
CONTINUOUS
10
-0.9992170866141732
20
0.8703883858267716
11
-0.997562559055118
21
0.8692298818897638
0
LINE
8
BLACK
6
CONTINUOUS
10
-0.997562559055118
20
0.8692298818897638
11
-0.9970398031496063
21
0.8672788976377953
0
LINE
8
BLACK
6
CONTINUOUS
10
-0.9970398031496063
20
0.8672788976377953
11
-0.9978933858267717
21
0.8654483070866141
0
LINE
8
BLACK
6
CONTINUOUS
10
-0.9978933858267717
20
0.8654483070866141
11
-0.9997681102362205
21
0.8635735433070866
0
LINE
8
BLACK
6
CONTINUOUS
10
-0.9997681102362205
20
0.8635735433070866
11
-1.0004912992125985
21
0.8630671653543307
0
LINE
8
BLACK
6
CONTINUOUS
10
-1.0004912992125985
20
0.8630671653543307
11
-1.0005355511811023
21
0.8630203937007874
0
LINE
8
BLACK
6
CONTINUOUS
10
-1.0005355511811023
20
0.8630203937007874
11
-1.0042850787401574
21
0.8611456299212599
0
LINE
8
BLACK
6
CONTINUOUS
10
-1.0042850787401574
20
0.8611456299212599
11
-1.0052680314960629
21
0.8608532677165354
0
LINE
8
BLACK
6
CONTINUOUS
10
-1.0052680314960629
20
0.8608532677165354
11
-1.0054397244094488
21
0.8608942913385826
0
LINE
8
BLACK
6
CONTINUOUS
10
-1.0054397244094488
20
0.8608942913385826
11
-1.0056055905511811
21
0.8608338976377953
0
LINE
8
BLACK
6
CONTINUOUS
10
-1.0056055905511811
20
0.8608338976377953
11
-1.0149794094488189
21
0.8608338976377953
0
LINE
8
BLACK
6
CONTINUOUS
10
-1.0149794094488189
20
0.8608338976377953
11
-1.0159893307086614
21
0.861011968503937
0
LINE
8
BLACK
6
CONTINUOUS
10
-1.0159893307086614
20
0.861011968503937
11
-1.0161246062992126
21
0.8611254724409448
0
LINE
8
BLACK
6
CONTINUOUS
10
-1.0161246062992126
20
0.8611254724409448
11
-1.0162999212598425
21
0.8611456299212599
0
LINE
8
BLACK
6
CONTINUOUS
10
-1.0162999212598425
20
0.8611456299212599
11
-1.0200494488188976
21
0.8630203937007874
0
LINE
8
BLACK
6
CONTINUOUS
10
-1.0200494488188976
20
0.8630203937007874
11
-1.0207585826771652
21
0.8635463779527559
0
LINE
8
BLACK
6
CONTINUOUS
10
-1.0207585826771652
20
0.8635463779527559
11
-1.0208168897637795
21
0.8635735433070866
0
LINE
8
BLACK
6
CONTINUOUS
10
-1.0208168897637795
20
0.8635735433070866
11
-1.022691653543307
21
0.8654483464566929
0
LINE
8
BLACK
6
CONTINUOUS
10
-1.022691653543307
20
0.8654483464566929
11
-1.0231979527559054
21
0.8661714173228346
0
LINE
8
BLACK
6
CONTINUOUS
10
-1.0231979527559054
20
0.8661714173228346
11
-1.0232447244094487
21
0.8662157086614173
0
LINE
8
BLACK
6
CONTINUOUS
10
-1.0232447244094487
20
0.8662157086614173
11
-1.0251194881889762
21
0.8699652362204724
0
LINE
8
BLACK
6
CONTINUOUS
10
-1.0251194881889762
20
0.8699652362204724
11
-1.0254118503937009
21
0.8709481889763779
0
LINE
8
BLACK
6
CONTINUOUS
10
-1.0254118503937009
20
0.8709481889763779
11
-1.0253708661417322
21
0.8711198818897637
0
LINE
8
BLACK
6
CONTINUOUS
10
-1.0253708661417322
20
0.8711198818897637
11
-1.025431220472441
21
0.8712857480314961
0
LINE
8
BLACK
6
CONTINUOUS
10
-1.025431220472441
20
0.8712857480314961
11
-1.025431220472441
21
0.8806595669291338
0
LINE
8
BLACK
6
CONTINUOUS
10
-1.025431220472441
20
0.8806595669291338
11
-1.0252531496062991
21
0.8816694881889764
0
LINE
8
BLACK
6
CONTINUOUS
10
-1.0252531496062991
20
0.8816694881889764
11
-1.0251396850393701
21
0.8818047637795275
0
LINE
8
BLACK
6
CONTINUOUS
10
-1.0251396850393701
20
0.8818047637795275
11
-1.0251194881889762
21
0.8819800787401575
0
LINE
8
BLACK
6
CONTINUOUS
10
-1.0251194881889762
20
0.8819800787401575
11
-1.0232447244094487
21
0.8857296062992126
0
LINE
8
BLACK
6
CONTINUOUS
10
-1.0232447244094487
20
0.8857296062992126
11
-1.0227188188976377
21
0.8864387007874015
0
LINE
8
BLACK
6
CONTINUOUS
10
-1.0227188188976377
20
0.8864387007874015
11
-1.0226916141732283
21
0.8864970078740158
0
LINE
8
BLACK
6
CONTINUOUS
10
-1.0226916141732283
20
0.8864970078740158
11
-1.0208168503937007
21
0.8883717716535433
0
LINE
8
BLACK
6
CONTINUOUS
10
-1.0208168503937007
20
0.8883717716535433
11
-1.0200937795275591
21
0.8888780708661417
0
LINE
8
BLACK
6
CONTINUOUS
10
-1.0200937795275591
20
0.8888780708661417
11
-1.0200494488188976
21
0.8889248818897637
0
LINE
8
BLACK
6
CONTINUOUS
10
-1.0200494488188976
20
0.8889248818897637
11
-1.0162999212598425
21
0.8907996456692914
0
LINE
8
BLACK
6
CONTINUOUS
10
-1.0162999212598425
20
0.8907996456692914
11
-1.0153170078740157
21
0.8910920078740158
0
LINE
8
BLACK
6
CONTINUOUS
10
-1.0153170078740157
20
0.8910920078740158
11
-1.01514531496063
21
0.8910510236220472
0
LINE
8
BLACK
6
CONTINUOUS
10
-1.01514531496063
20
0.8910510236220472
11
-1.0149794094488189
21
0.8911113779527559
0
LINE
8
BLACK
6
CONTINUOUS
10
-1.0149794094488189
20
0.8911113779527559
11
-1.0056055905511811
21
0.8911113779527559
0
LINE
8
BLACK
6
CONTINUOUS
10
-1.0056055905511811
20
0.8911113779527559
11
-1.0045956692913385
21
0.8909333070866141
0
LINE
8
BLACK
6
CONTINUOUS
10
-1.0045956692913385
20
0.8909333070866141
11
-1.0044604330708662
21
0.890819842519685
0
LINE
8
BLACK
6
CONTINUOUS
10
-1.0044604330708662
20
0.890819842519685
11
-1.0042850787401574
21
0.8907996456692914
0
LINE
8
BLACK
6
CONTINUOUS
10
-1.0042850787401574
20
0.8907996456692914
11
-1.0035511811023621
21
0.8904327165354331
0
LINE
8
BLACK
6
CONTINUOUS
10
-1.0035511811023621
20
0.8904327165354331
11
-1.0045282677165355
21
0.9002039763779527
0
LINE
8
BLACK
6
CONTINUOUS
10
-1.0045282677165355
20
0.9002039763779527
11
-1.0206037007874016
21
0.9002039763779527
0
LINE
8
BLACK
6
CONTINUOUS
10
-1.0206037007874016
20
0.9002039763779527
11
-1.021613622047244
21
0.9003820472440944
0
LINE
8
BLACK
6
CONTINUOUS
10
-1.021613622047244
20
0.9003820472440944
11
-1.0231608661417322
21
0.9016803543307086
0
LINE
8
BLACK
6
CONTINUOUS
10
-1.0231608661417322
20
0.9016803543307086
11
-1.0235116141732283
21
0.9036694881889764
0
LINE
8
BLACK
6
CONTINUOUS
10
-1.0235116141732283
20
0.9036694881889764
11
-1.0225016929133859
21
0.9054186614173229
0
LINE
8
BLACK
6
CONTINUOUS
10
-1.0225016929133859
20
0.9054186614173229
11
-1.0206037007874016
21
0.9061094881889764
0
LINE
8
BLACK
6
CONTINUOUS
10
-1.0206037007874016
20
0.9061094881889764
11
-1.001856062992126
21
0.9061094881889764
0
LINE
8
BLACK
6
CONTINUOUS
10
-1.001856062992126
20
0.9061094881889764
11
-1.0017022440944883
21
0.9060824015748031
0
LINE
8
BLACK
6
CONTINUOUS
10
-0.9730747637795275
20
0.9059797637795275
11
-0.9729053543307087
21
0.9059906692913385
0
LINE
8
BLACK
6
CONTINUOUS
10
-0.9729053543307087
20
0.9059906692913385
11
-0.9722147637795275
21
0.9054832283464567
0
LINE
8
BLACK
6
CONTINUOUS
10
-0.9722147637795275
20
0.9054832283464567
11
-0.9714726377952756
21
0.9050547244094488
0
LINE
8
BLACK
6
CONTINUOUS
10
-0.9714726377952756
20
0.9050547244094488
11
-0.9714146062992126
21
0.9048952362204724
0
LINE
8
BLACK
6
CONTINUOUS
10
-0.9714146062992126
20
0.9048952362204724
11
-0.971277716535433
21
0.9047946456692914
0
LINE
8
BLACK
6
CONTINUOUS
10
-0.971277716535433
20
0.9047946456692914
11
-0.9676903937007874
21
0.8994136220472441
0
LINE
8
BLACK
6
CONTINUOUS
10
-0.9676903937007874
20
0.8994136220472441
11
-0.9644864173228346
21
0.8962096456692913
0
LINE
8
BLACK
6
CONTINUOUS
10
-0.9644864173228346
20
0.8962096456692913
11
-0.9611654724409449
21
0.8945491732283465
0
LINE
8
BLACK
6
CONTINUOUS
10
-0.9611654724409449
20
0.8945491732283465
11
-0.960341811023622
21
0.8939382677165354
0
LINE
8
BLACK
6
CONTINUOUS
10
-0.960341811023622
20
0.8939382677165354
11
-0.9595385433070865
21
0.8920850787401574
0
LINE
8
BLACK
6
CONTINUOUS
10
-0.9595385433070865
20
0.8920850787401574
11
-0.9601144094488189
21
0.8901490551181103
0
LINE
8
BLACK
6
CONTINUOUS
10
-0.9601144094488189
20
0.8901490551181103
11
-0.9617999606299212
21
0.8890362204724409
0
LINE
8
BLACK
6
CONTINUOUS
10
-0.9617999606299212
20
0.8890362204724409
11
-0.9638064960629921
21
0.8892671259842519
0
LINE
8
BLACK
6
CONTINUOUS
10
-0.9638064960629921
20
0.8892671259842519
11
-0.9675560236220472
21
0.8911418897637795
0
LINE
8
BLACK
6
CONTINUOUS
10
-0.9675560236220472
20
0.8911418897637795
11
-0.9682651181102362
21
0.8916678346456692
0
LINE
8
BLACK
6
CONTINUOUS
10
-0.9682651181102362
20
0.8916678346456692
11
-0.9683234251968503
21
0.891695
0
LINE
8
BLACK
6
CONTINUOUS
10
-0.9683234251968503
20
0.891695
11
-0.970781811023622
21
0.8941533858267716
0
LINE
8
BLACK
6
CONTINUOUS
10
-0.970781811023622
20
0.8941533858267716
11
-0.970781811023622
21
0.8667394094488189
0
LINE
8
BLACK
6
CONTINUOUS
10
-0.970781811023622
20
0.8667394094488189
11
-0.9624859842519685
21
0.8667394094488189
0
LINE
8
BLACK
6
CONTINUOUS
10
-0.9624859842519685
20
0.8667394094488189
11
-0.961476062992126
21
0.8665613385826771
0
LINE
8
BLACK
6
CONTINUOUS
10
-0.961476062992126
20
0.8665613385826771
11
-0.9599288188976378
21
0.865263031496063
0
LINE
8
BLACK
6
CONTINUOUS
10
-0.9599288188976378
20
0.865263031496063
11
-0.9595780708661417
21
0.8632738976377953
0
LINE
8
BLACK
6
CONTINUOUS
10
-0.9595780708661417
20
0.8632738976377953
11
-0.9605879921259842
21
0.8615247244094488
0
LINE
8
BLACK
6
CONTINUOUS
10
-0.9605879921259842
20
0.8615247244094488
11
-0.9624859842519685
21
0.8608338976377953
0
LINE
8
BLACK
6
CONTINUOUS
10
-0.9624859842519685
20
0.8608338976377953
11
-0.9849831496062992
21
0.8608338976377953
0
LINE
8
BLACK
6
CONTINUOUS
10
-0.9849831496062992
20
0.8608338976377953
11
-0.9859930708661417
21
0.861011968503937
0
LINE
8
BLACK
6
CONTINUOUS
10
-0.9859930708661417
20
0.861011968503937
11
-0.9875403149606299
21
0.8623102755905512
0
LINE
8
BLACK
6
CONTINUOUS
10
-0.9875403149606299
20
0.8623102755905512
11
-0.9878910629921259
21
0.8642994094488189
0
LINE
8
BLACK
6
CONTINUOUS
10
-0.9878910629921259
20
0.8642994094488189
11
-0.9868811417322835
21
0.8660485826771653
0
LINE
8
BLACK
6
CONTINUOUS
10
-0.9868811417322835
20
0.8660485826771653
11
-0.9849831496062992
21
0.8667394094488189
0
LINE
8
BLACK
6
CONTINUOUS
10
-0.9849831496062992
20
0.8667394094488189
11
-0.9766873228346457
21
0.8667394094488189
0
LINE
8
BLACK
6
CONTINUOUS
10
-0.9766873228346457
20
0.8667394094488189
11
-0.9766873228346457
21
0.9031567322834645
0
LINE
8
BLACK
6
CONTINUOUS
10
-0.9766873228346457
20
0.9031567322834645
11
-0.9765092519685039
21
0.9041666535433071
0
LINE
8
BLACK
6
CONTINUOUS
10
-0.9765092519685039
20
0.9041666535433071
11
-0.9764001574803149
21
0.9042967322834645
0
LINE
8
BLACK
6
CONTINUOUS
10
-0.9764001574803149
20
0.9042967322834645
11
-0.9763814566929133
21
0.9044654724409449
0
LINE
8
BLACK
6
CONTINUOUS
10
-0.9763814566929133
20
0.9044654724409449
11
-0.9757618503937008
21
0.9050574015748031
0
LINE
8
BLACK
6
CONTINUOUS
10
-0.9757618503937008
20
0.9050574015748031
11
-0.9752109448818898
21
0.9057138976377953
0
LINE
8
BLACK
6
CONTINUOUS
10
-0.9752109448818898
20
0.9057138976377953
11
-0.9750437401574803
21
0.9057433858267716
0
LINE
8
BLACK
6
CONTINUOUS
10
-0.9750437401574803
20
0.9057433858267716
11
-0.9749209448818897
21
0.9058606692913386
0
LINE
8
BLACK
6
CONTINUOUS
10
-0.9749209448818897
20
0.9058606692913386
11
-0.9740658267716535
21
0.9059158267716535
0
LINE
8
BLACK
6
CONTINUOUS
10
-0.9740658267716535
20
0.9059158267716535
11
-0.973221811023622
21
0.9060646456692913
0
LINE
8
BLACK
6
CONTINUOUS
10
-0.973221811023622
20
0.9060646456692913
11
-0.9730747637795275
21
0.9059797637795275
0
LINE
8
BLACK
6
CONTINUOUS
10
-0.8977340157480315
20
0.9059314173228347
11
-0.8975987795275591
21
0.9058179527559055
0
LINE
8
BLACK
6
CONTINUOUS
10
-0.8975987795275591
20
0.9058179527559055
11
-0.8974234251968504
21
0.9057977559055118
0
LINE
8
BLACK
6
CONTINUOUS
10
-0.8974234251968504
20
0.9057977559055118
11
-0.8936738976377953
21
0.9039229921259843
0
LINE
8
BLACK
6
CONTINUOUS
10
-0.8936738976377953
20
0.9039229921259843
11
-0.892964842519685
21
0.9033970866141732
0
LINE
8
BLACK
6
CONTINUOUS
10
-0.892964842519685
20
0.9033970866141732
11
-0.8929064960629921
21
0.9033698818897637
0
LINE
8
BLACK
6
CONTINUOUS
10
-0.8929064960629921
20
0.9033698818897637
11
-0.8910317322834646
21
0.9014951181102362
0
LINE
8
BLACK
6
CONTINUOUS
10
-0.8910317322834646
20
0.9014951181102362
11
-0.8904435433070866
21
0.9006550787401575
0
LINE
8
BLACK
6
CONTINUOUS
10
-0.8904435433070866
20
0.9006550787401575
11
-0.8902675196850394
21
0.8986429921259842
0
LINE
8
BLACK
6
CONTINUOUS
10
-0.8902675196850394
20
0.8986429921259842
11
-0.8914260236220473
21
0.8969884251968504
0
LINE
8
BLACK
6
CONTINUOUS
10
-0.8914260236220473
20
0.8969884251968504
11
-0.8933770078740157
21
0.8964657086614173
0
LINE
8
BLACK
6
CONTINUOUS
10
-0.8933770078740157
20
0.8964657086614173
11
-0.8952075590551181
21
0.8973192913385827
0
LINE
8
BLACK
6
CONTINUOUS
10
-0.8952075590551181
20
0.8973192913385827
11
-0.8967435039370079
21
0.8988552362204725
0
LINE
8
BLACK
6
CONTINUOUS
10
-0.8967435039370079
20
0.8988552362204725
11
-0.8994409842519685
21
0.9002039763779527
0
LINE
8
BLACK
6
CONTINUOUS
10
-0.8994409842519685
20
0.9002039763779527
11
-0.9074207086614173
21
0.9002039763779527
0
LINE
8
BLACK
6
CONTINUOUS
10
-0.9074207086614173
20
0.9002039763779527
11
-0.910118188976378
21
0.8988552362204725
0
LINE
8
BLACK
6
CONTINUOUS
10
-0.910118188976378
20
0.8988552362204725
11
-0.9113153149606299
21
0.8976581102362204
0
LINE
8
BLACK
6
CONTINUOUS
10
-0.9113153149606299
20
0.8976581102362204
11
-0.9126640551181102
21
0.8949606299212598
0
LINE
8
BLACK
6
CONTINUOUS
10
-0.9126640551181102
20
0.8949606299212598
11
-0.9126640551181102
21
0.8923873228346456
0
LINE
8
BLACK
6
CONTINUOUS
10
-0.9126640551181102
20
0.8923873228346456
11
-0.9111612598425196
21
0.8878788976377953
0
LINE
8
BLACK
6
CONTINUOUS
10
-0.9111612598425196
20
0.8878788976377953
11
-0.889156968503937
21
0.8658745669291339
0
LINE
8
BLACK
6
CONTINUOUS
10
-0.889156968503937
20
0.8658745669291339
11
-0.8887872047244094
21
0.8653465354330708
0
LINE
8
BLACK
6
CONTINUOUS
10
-0.8887872047244094
20
0.8653465354330708
11
-0.8886877165354331
21
0.865263031496063
0
LINE
8
BLACK
6
CONTINUOUS
10
-0.8886877165354331
20
0.865263031496063
11
-0.888673937007874
21
0.8651847244094488
0
LINE
8
BLACK
6
CONTINUOUS
10
-0.888673937007874
20
0.8651847244094488
11
-0.8885687401574803
21
0.8650345275590551
0
LINE
8
BLACK
6
CONTINUOUS
10
-0.8885687401574803
20
0.8650345275590551
11
-0.8884912992125984
21
0.8641489763779527
0
LINE
8
BLACK
6
CONTINUOUS
10
-0.8884912992125984
20
0.8641489763779527
11
-0.888336968503937
21
0.8632738976377953
0
LINE
8
BLACK
6
CONTINUOUS
10
-0.888336968503937
20
0.8632738976377953
11
-0.8884044881889763
21
0.863156968503937
0
LINE
8
BLACK
6
CONTINUOUS
10
-0.8884044881889763
20
0.863156968503937
11
-0.8883927165354331
21
0.8630224015748031
0
LINE
8
BLACK
6
CONTINUOUS
10
-0.8883927165354331
20
0.8630224015748031
11
-0.8889025984251968
21
0.862294251968504
0
LINE
8
BLACK
6
CONTINUOUS
10
-0.8889025984251968
20
0.862294251968504
11
-0.8893468897637795
21
0.8615247244094488
0
LINE
8
BLACK
6
CONTINUOUS
10
-0.8893468897637795
20
0.8615247244094488
11
-0.889473779527559
21
0.8614785826771654
0
LINE
8
BLACK
6
CONTINUOUS
10
-0.889473779527559
20
0.8614785826771654
11
-0.8895512598425197
21
0.861367874015748
0
LINE
8
BLACK
6
CONTINUOUS
10
-0.8895512598425197
20
0.861367874015748
11
-0.8904098031496063
21
0.861137874015748
0
LINE
8
BLACK
6
CONTINUOUS
10
-0.8904098031496063
20
0.861137874015748
11
-0.8912448818897638
21
0.8608338976377953
0
LINE
8
BLACK
6
CONTINUOUS
10
-0.8912448818897638
20
0.8608338976377953
11
-0.915616811023622
21
0.8608338976377953
0
LINE
8
BLACK
6
CONTINUOUS
10
-0.915616811023622
20
0.8608338976377953
11
-0.9166267322834646
21
0.861011968503937
0
LINE
8
BLACK
6
CONTINUOUS
10
-0.9166267322834646
20
0.861011968503937
11
-0.9181739763779527
21
0.8623102755905512
0
LINE
8
BLACK
6
CONTINUOUS
10
-0.9181739763779527
20
0.8623102755905512
11
-0.9185247244094488
21
0.8642994094488189
0
LINE
8
BLACK
6
CONTINUOUS
10
-0.9185247244094488
20
0.8642994094488189
11
-0.9175148031496063
21
0.8660485826771653
0
LINE
8
BLACK
6
CONTINUOUS
10
-0.9175148031496063
20
0.8660485826771653
11
-0.915616811023622
21
0.8667394094488189
0
LINE
8
BLACK
6
CONTINUOUS
10
-0.915616811023622
20
0.8667394094488189
11
-0.8983734645669291
21
0.8667394094488189
0
LINE
8
BLACK
6
CONTINUOUS
10
-0.8983734645669291
20
0.8667394094488189
11
-0.9158299606299213
21
0.8841959448818898
0
LINE
8
BLACK
6
CONTINUOUS
10
-0.9158299606299213
20
0.8841959448818898
11
-0.9164181496062992
21
0.8850359842519685
0
LINE
8
BLACK
6
CONTINUOUS
10
-0.9164181496062992
20
0.8850359842519685
11
-0.9164335433070866
21
0.8852118503937008
0
LINE
8
BLACK
6
CONTINUOUS
10
-0.9164335433070866
20
0.8852118503937008
11
-0.9165432677165354
21
0.8853501181102362
0
LINE
8
BLACK
6
CONTINUOUS
10
-0.9165432677165354
20
0.8853501181102362
11
-0.9184180314960629
21
0.8909744094488189
0
LINE
8
BLACK
6
CONTINUOUS
10
-0.9184180314960629
20
0.8909744094488189
11
-0.9185475196850393
21
0.8918475984251968
0
LINE
8
BLACK
6
CONTINUOUS
10
-0.9185475196850393
20
0.8918475984251968
11
-0.9185695669291338
21
0.8919081496062992
0
LINE
8
BLACK
6
CONTINUOUS
10
-0.9185695669291338
20
0.8919081496062992
11
-0.9185695669291338
21
0.8956576771653543
0
LINE
8
BLACK
6
CONTINUOUS
10
-0.9185695669291338
20
0.8956576771653543
11
-0.9183914960629921
21
0.8966675984251968
0
LINE
8
BLACK
6
CONTINUOUS
10
-0.9183914960629921
20
0.8966675984251968
11
-0.918278031496063
21
0.896802874015748
0
LINE
8
BLACK
6
CONTINUOUS
10
-0.918278031496063
20
0.896802874015748
11
-0.9182578346456692
21
0.8969781889763779
0
LINE
8
BLACK
6
CONTINUOUS
10
-0.9182578346456692
20
0.8969781889763779
11
-0.9163830708661417
21
0.900727716535433
0
LINE
8
BLACK
6
CONTINUOUS
10
-0.9163830708661417
20
0.900727716535433
11
-0.9158571653543307
21
0.9014368110236221
0
LINE
8
BLACK
6
CONTINUOUS
10
-0.9158571653543307
20
0.9014368110236221
11
-0.9158299606299213
21
0.9014951181102362
0
LINE
8
BLACK
6
CONTINUOUS
10
-0.9158299606299213
20
0.9014951181102362
11
-0.9139551968503937
21
0.9033698818897637
0
LINE
8
BLACK
6
CONTINUOUS
10
-0.9139551968503937
20
0.9033698818897637
11
-0.913232125984252
21
0.9038761811023622
0
LINE
8
BLACK
6
CONTINUOUS
10
-0.913232125984252
20
0.9038761811023622
11
-0.9131877952755906
21
0.9039229921259843
0
LINE
8
BLACK
6
CONTINUOUS
10
-0.9131877952755906
20
0.9039229921259843
11
-0.9094382677165355
21
0.9057977559055118
0
LINE
8
BLACK
6
CONTINUOUS
10
-0.9094382677165355
20
0.9057977559055118
11
-0.9084553543307087
21
0.9060901181102362
0
LINE
8
BLACK
6
CONTINUOUS
10
-0.9084553543307087
20
0.9060901181102362
11
-0.9082836614173229
21
0.9060491338582677
0
LINE
8
BLACK
6
CONTINUOUS
10
-0.9082836614173229
20
0.9060491338582677
11
-0.9081177559055118
21
0.9061094881889764
0
LINE
8
BLACK
6
CONTINUOUS
10
-0.9081177559055118
20
0.9061094881889764
11
-0.898743937007874
21
0.9061094881889764
0
LINE
8
BLACK
6
CONTINUOUS
10
-0.898743937007874
20
0.9061094881889764
11
-0.8977340157480315
21
0.9059314173228347
0
LINE
8
BLACK
6
CONTINUOUS
10
-0.7896240157480314
20
0.9060418897637795
11
-0.7894947637795275
21
0.9060646456692913
0
LINE
8
BLACK
6
CONTINUOUS
10
-0.7894947637795275
20
0.9060646456692913
11
-0.7893811811023622
21
0.9059990551181102
0
LINE
8
BLACK
6
CONTINUOUS
10
-0.7893811811023622
20
0.9059990551181102
11
-0.7889975984251968
21
0.9059314173228347
0
LINE
8
BLACK
6
CONTINUOUS
10
-0.7889975984251968
20
0.9059314173228347
11
-0.7884099212598425
21
0.9054383070866141
0
LINE
8
BLACK
6
CONTINUOUS
10
-0.7884099212598425
20
0.9054383070866141
11
-0.7877455905511811
21
0.9050547244094488
0
LINE
8
BLACK
6
CONTINUOUS
10
-0.7877455905511811
20
0.9050547244094488
11
-0.7876544881889763
21
0.9048044094488189
0
LINE
8
BLACK
6
CONTINUOUS
10
-0.7876544881889763
20
0.9048044094488189
11
-0.7874503543307086
21
0.9046331102362205
0
LINE
8
BLACK
6
CONTINUOUS
10
-0.7874503543307086
20
0.9046331102362205
11
-0.787317125984252
21
0.9038775590551181
0
LINE
8
BLACK
6
CONTINUOUS
10
-0.787317125984252
20
0.9038775590551181
11
-0.7870547637795275
21
0.9031567322834645
0
LINE
8
BLACK
6
CONTINUOUS
10
-0.7870547637795275
20
0.9031567322834645
11
-0.7870547637795275
21
0.8637866535433071
0
LINE
8
BLACK
6
CONTINUOUS
10
-0.7870547637795275
20
0.8637866535433071
11
-0.7871224015748032
21
0.8634031496062992
0
LINE
8
BLACK
6
CONTINUOUS
10
-0.7871224015748032
20
0.8634031496062992
11
-0.7870996062992126
21
0.8632738976377953
0
LINE
8
BLACK
6
CONTINUOUS
10
-0.7870996062992126
20
0.8632738976377953
11
-0.7871652362204724
21
0.8631603149606299
0
LINE
8
BLACK
6
CONTINUOUS
10
-0.7871652362204724
20
0.8631603149606299
11
-0.7872328346456693
21
0.8627767322834645
0
LINE
8
BLACK
6
CONTINUOUS
10
-0.7872328346456693
20
0.8627767322834645
11
-0.7877259842519685
21
0.8621890551181102
0
LINE
8
BLACK
6
CONTINUOUS
10
-0.7877259842519685
20
0.8621890551181102
11
-0.7881095275590551
21
0.8615247244094488
0
LINE
8
BLACK
6
CONTINUOUS
10
-0.7881095275590551
20
0.8615247244094488
11
-0.7883598818897638
21
0.8614336220472441
0
LINE
8
BLACK
6
CONTINUOUS
10
-0.7883598818897638
20
0.8614336220472441
11
-0.7885311417322834
21
0.8612294881889764
0
LINE
8
BLACK
6
CONTINUOUS
10
-0.7885311417322834
20
0.8612294881889764
11
-0.7892867322834646
21
0.8610962598425197
0
LINE
8
BLACK
6
CONTINUOUS
10
-0.7892867322834646
20
0.8610962598425197
11
-0.7900075196850393
21
0.8608338976377953
0
LINE
8
BLACK
6
CONTINUOUS
10
-0.7900075196850393
20
0.8608338976377953
11
-0.8087551574803149
21
0.8608338976377953
0
LINE
8
BLACK
6
CONTINUOUS
10
-0.8087551574803149
20
0.8608338976377953
11
-0.8097650787401575
21
0.861011968503937
0
LINE
8
BLACK
6
CONTINUOUS
10
-0.8097650787401575
20
0.861011968503937
11
-0.8113123228346456
21
0.8623102755905512
0
LINE
8
BLACK
6
CONTINUOUS
10
-0.8113123228346456
20
0.8623102755905512
11
-0.8116630708661418
21
0.8642994094488189
0
LINE
8
BLACK
6
CONTINUOUS
10
-0.8116630708661418
20
0.8642994094488189
11
-0.8106531496062992
21
0.8660485826771653
0
LINE
8
BLACK
6
CONTINUOUS
10
-0.8106531496062992
20
0.8660485826771653
11
-0.8087551574803149
21
0.8667394094488189
0
LINE
8
BLACK
6
CONTINUOUS
10
-0.8087551574803149
20
0.8667394094488189
11
-0.7929602755905512
21
0.8667394094488189
0
LINE
8
BLACK
6
CONTINUOUS
10
-0.7929602755905512
20
0.8667394094488189
11
-0.7929602755905512
21
0.8814563385826771
0
LINE
8
BLACK
6
CONTINUOUS
10
-0.7929602755905512
20
0.8814563385826771
11
-0.8031308661417322
21
0.8814563385826771
0
LINE
8
BLACK
6
CONTINUOUS
10
-0.8031308661417322
20
0.8814563385826771
11
-0.8041407874015748
21
0.8816344094488189
0
LINE
8
BLACK
6
CONTINUOUS
10
-0.8041407874015748
20
0.8816344094488189
11
-0.8056880314960629
21
0.882932716535433
0
LINE
8
BLACK
6
CONTINUOUS
10
-0.8056880314960629
20
0.882932716535433
11
-0.8060387795275591
21
0.8849218503937007
0
LINE
8
BLACK
6
CONTINUOUS
10
-0.8060387795275591
20
0.8849218503937007
11
-0.8050288582677165
21
0.8866710236220472
0
LINE
8
BLACK
6
CONTINUOUS
10
-0.8050288582677165
20
0.8866710236220472
11
-0.8031308661417322
21
0.8873618503937007
0
LINE
8
BLACK
6
CONTINUOUS
10
-0.8031308661417322
20
0.8873618503937007
11
-0.7929602755905512
21
0.8873618503937007
0
LINE
8
BLACK
6
CONTINUOUS
10
-0.7929602755905512
20
0.8873618503937007
11
-0.7929602755905512
21
0.9002039763779527
0
LINE
8
BLACK
6
CONTINUOUS
10
-0.7929602755905512
20
0.9002039763779527
11
-0.8087551574803149
21
0.9002039763779527
0
LINE
8
BLACK
6
CONTINUOUS
10
-0.8087551574803149
20
0.9002039763779527
11
-0.8097650787401575
21
0.9003820472440944
0
LINE
8
BLACK
6
CONTINUOUS
10
-0.8097650787401575
20
0.9003820472440944
11
-0.8113123228346456
21
0.9016803543307086
0
LINE
8
BLACK
6
CONTINUOUS
10
-0.8113123228346456
20
0.9016803543307086
11
-0.8116630708661418
21
0.9036694881889764
0
LINE
8
BLACK
6
CONTINUOUS
10
-0.8116630708661418
20
0.9036694881889764
11
-0.8106531496062992
21
0.9054186614173229
0
LINE
8
BLACK
6
CONTINUOUS
10
-0.8106531496062992
20
0.9054186614173229
11
-0.8087551574803149
21
0.9061094881889764
0
LINE
8
BLACK
6
CONTINUOUS
10
-0.8087551574803149
20
0.9061094881889764
11
-0.7900075196850393
21
0.9061094881889764
0
LINE
8
BLACK
6
CONTINUOUS
10
-0.7900075196850393
20
0.9061094881889764
11
-0.7896240157480314
21
0.9060418897637795
0
LINE
8
BLACK
6
CONTINUOUS
10
-0.750253937007874
20
0.9060418897637795
11
-0.75012468503937
21
0.9060646456692913
0
LINE
8
BLACK
6
CONTINUOUS
10
-0.75012468503937
20
0.9060646456692913
11
-0.7500111023622047
21
0.9059990551181102
0
LINE
8
BLACK
6
CONTINUOUS
10
-0.7500111023622047
20
0.9059990551181102
11
-0.7496275196850394
21
0.9059314173228347
0
LINE
8
BLACK
6
CONTINUOUS
10
-0.7496275196850394
20
0.9059314173228347
11
-0.749039842519685
21
0.9054383070866141
0
LINE
8
BLACK
6
CONTINUOUS
10
-0.749039842519685
20
0.9054383070866141
11
-0.7483755118110236
21
0.9050547244094488
0
LINE
8
BLACK
6
CONTINUOUS
10
-0.7483755118110236
20
0.9050547244094488
11
-0.7482844094488189
21
0.9048044094488189
0
LINE
8
BLACK
6
CONTINUOUS
10
-0.7482844094488189
20
0.9048044094488189
11
-0.7480802755905511
21
0.9046331102362205
0
LINE
8
BLACK
6
CONTINUOUS
10
-0.7480802755905511
20
0.9046331102362205
11
-0.7479470472440944
21
0.9038775590551181
0
LINE
8
BLACK
6
CONTINUOUS
10
-0.7479470472440944
20
0.9038775590551181
11
-0.74768468503937
21
0.9031567322834645
0
LINE
8
BLACK
6
CONTINUOUS
10
-0.74768468503937
20
0.9031567322834645
11
-0.74768468503937
21
0.8637866535433071
0
LINE
8
BLACK
6
CONTINUOUS
10
-0.74768468503937
20
0.8637866535433071
11
-0.7477523228346457
21
0.8634031496062992
0
LINE
8
BLACK
6
CONTINUOUS
10
-0.7477523228346457
20
0.8634031496062992
11
-0.7477295275590551
21
0.8632738976377953
0
LINE
8
BLACK
6
CONTINUOUS
10
-0.7477295275590551
20
0.8632738976377953
11
-0.747795157480315
21
0.8631603149606299
0
LINE
8
BLACK
6
CONTINUOUS
10
-0.747795157480315
20
0.8631603149606299
11
-0.7478627559055118
21
0.8627767322834645
0
LINE
8
BLACK
6
CONTINUOUS
10
-0.7478627559055118
20
0.8627767322834645
11
-0.748355905511811
21
0.8621890551181102
0
LINE
8
BLACK
6
CONTINUOUS
10
-0.748355905511811
20
0.8621890551181102
11
-0.7487394488188976
21
0.8615247244094488
0
LINE
8
BLACK
6
CONTINUOUS
10
-0.7487394488188976
20
0.8615247244094488
11
-0.7489898031496063
21
0.8614336220472441
0
LINE
8
BLACK
6
CONTINUOUS
10
-0.7489898031496063
20
0.8614336220472441
11
-0.7491610629921259
21
0.8612294881889764
0
LINE
8
BLACK
6
CONTINUOUS
10
-0.7491610629921259
20
0.8612294881889764
11
-0.7499166535433071
21
0.8610962598425197
0
LINE
8
BLACK
6
CONTINUOUS
10
-0.7499166535433071
20
0.8610962598425197
11
-0.7506374409448818
21
0.8608338976377953
0
LINE
8
BLACK
6
CONTINUOUS
10
-0.7506374409448818
20
0.8608338976377953
11
-0.7600112598425197
21
0.8608338976377953
0
LINE
8
BLACK
6
CONTINUOUS
10
-0.7600112598425197
20
0.8608338976377953
11
-0.7608806692913386
21
0.8609872047244095
0
LINE
8
BLACK
6
CONTINUOUS
10
-0.7608806692913386
20
0.8609872047244095
11
-0.7609450393700787
21
0.8609854330708662
0
LINE
8
BLACK
6
CONTINUOUS
10
-0.7609450393700787
20
0.8609854330708662
11
-0.7665692913385826
21
0.8628601968503937
0
LINE
8
BLACK
6
CONTINUOUS
10
-0.7665692913385826
20
0.8628601968503937
11
-0.767471062992126
21
0.8633485039370079
0
LINE
8
BLACK
6
CONTINUOUS
10
-0.767471062992126
20
0.8633485039370079
11
-0.7675634645669291
21
0.8634988976377953
0
LINE
8
BLACK
6
CONTINUOUS
10
-0.7675634645669291
20
0.8634988976377953
11
-0.7677234645669291
21
0.8635735039370078
0
LINE
8
BLACK
6
CONTINUOUS
10
-0.7677234645669291
20
0.8635735039370078
11
-0.7714729921259842
21
0.8673230708661417
0
LINE
8
BLACK
6
CONTINUOUS
10
-0.7714729921259842
20
0.8673230708661417
11
-0.7719794094488189
21
0.8680462598425197
0
LINE
8
BLACK
6
CONTINUOUS
10
-0.7719794094488189
20
0.8680462598425197
11
-0.7720261023622047
21
0.8680904724409448
0
LINE
8
BLACK
6
CONTINUOUS
10
-0.7720261023622047
20
0.8680904724409448
11
-0.7739008661417323
21
0.8718399999999999
0
LINE
8
BLACK
6
CONTINUOUS
10
-0.7739008661417323
20
0.8718399999999999
11
-0.7740461811023622
21
0.8723284645669291
0
LINE
8
BLACK
6
CONTINUOUS
10
-0.7740461811023622
20
0.8723284645669291
11
-0.7741244488188976
21
0.8724443700787401
0
LINE
8
BLACK
6
CONTINUOUS
10
-0.7741244488188976
20
0.8724443700787401
11
-0.7759992125984252
21
0.8799434251968504
0
LINE
8
BLACK
6
CONTINUOUS
10
-0.7759992125984252
20
0.8799434251968504
11
-0.7760407086614173
21
0.8805313385826772
0
LINE
8
BLACK
6
CONTINUOUS
10
-0.7760407086614173
20
0.8805313385826772
11
-0.7760873622047244
21
0.8806595669291338
0
LINE
8
BLACK
6
CONTINUOUS
10
-0.7760873622047244
20
0.8806595669291338
11
-0.7760873622047244
21
0.8862838582677165
0
LINE
8
BLACK
6
CONTINUOUS
10
-0.7760873622047244
20
0.8862838582677165
11
-0.7759850393700787
21
0.8868642519685039
0
LINE
8
BLACK
6
CONTINUOUS
10
-0.7759850393700787
20
0.8868642519685039
11
-0.7759992125984252
21
0.887
0
LINE
8
BLACK
6
CONTINUOUS
10
-0.7759992125984252
20
0.887
11
-0.7741244488188976
21
0.8944990551181102
0
LINE
8
BLACK
6
CONTINUOUS
10
-0.7741244488188976
20
0.8944990551181102
11
-0.7739168897637795
21
0.8949645275590551
0
LINE
8
BLACK
6
CONTINUOUS
10
-0.7739168897637795
20
0.8949645275590551
11
-0.7739008661417323
21
0.8951034251968504
0
LINE
8
BLACK
6
CONTINUOUS
10
-0.7739008661417323
20
0.8951034251968504
11
-0.7720261023622047
21
0.8988529527559055
0
LINE
8
BLACK
6
CONTINUOUS
10
-0.7720261023622047
20
0.8988529527559055
11
-0.7715001968503937
21
0.8995620472440945
0
LINE
8
BLACK
6
CONTINUOUS
10
-0.7715001968503937
20
0.8995620472440945
11
-0.7714729921259842
21
0.8996203543307086
0
LINE
8
BLACK
6
CONTINUOUS
10
-0.7714729921259842
20
0.8996203543307086
11
-0.7677234645669291
21
0.9033698818897637
0
LINE
8
BLACK
6
CONTINUOUS
10
-0.7677234645669291
20
0.9033698818897637
11
-0.7668834251968504
21
0.9039581102362204
0
LINE
8
BLACK
6
CONTINUOUS
10
-0.7668834251968504
20
0.9039581102362204
11
-0.7667075196850394
21
0.9039735039370078
0
LINE
8
BLACK
6
CONTINUOUS
10
-0.7667075196850394
20
0.9039735039370078
11
-0.7665692913385826
21
0.904083188976378
0
LINE
8
BLACK
6
CONTINUOUS
10
-0.7665692913385826
20
0.904083188976378
11
-0.7609450393700787
21
0.9059579527559055
0
LINE
8
BLACK
6
CONTINUOUS
10
-0.7609450393700787
20
0.9059579527559055
11
-0.760071811023622
21
0.9060874803149606
0
LINE
8
BLACK
6
CONTINUOUS
10
-0.760071811023622
20
0.9060874803149606
11
-0.7600112598425197
21
0.9061094881889764
0
LINE
8
BLACK
6
CONTINUOUS
10
-0.7600112598425197
20
0.9061094881889764
11
-0.7506374409448818
21
0.9061094881889764
0
LINE
8
BLACK
6
CONTINUOUS
10
-0.7506374409448818
20
0.9061094881889764
11
-0.750253937007874
21
0.9060418897637795
0
LINE
8
BLACK
6
CONTINUOUS
10
-0.7640405118110236
20
0.8987011811023622
11
-0.7669583464566929
21
0.8957833464566929
0
LINE
8
BLACK
6
CONTINUOUS
10
-0.7669583464566929
20
0.8957833464566929
11
-0.7684738582677165
21
0.8927523622047244
0
LINE
8
BLACK
6
CONTINUOUS
10
-0.7684738582677165
20
0.8927523622047244
11
-0.7701818503937008
21
0.88592031496063
0
LINE
8
BLACK
6
CONTINUOUS
10
-0.7701818503937008
20
0.88592031496063
11
-0.7701818503937008
21
0.8810231102362205
0
LINE
8
BLACK
6
CONTINUOUS
10
-0.7701818503937008
20
0.8810231102362205
11
-0.7684738582677165
21
0.874191062992126
0
LINE
8
BLACK
6
CONTINUOUS
10
-0.7684738582677165
20
0.874191062992126
11
-0.7669583464566929
21
0.8711600787401574
0
LINE
8
BLACK
6
CONTINUOUS
10
-0.7669583464566929
20
0.8711600787401574
11
-0.7640405118110236
21
0.8682422047244094
0
LINE
8
BLACK
6
CONTINUOUS
10
-0.7640405118110236
20
0.8682422047244094
11
-0.7595321259842519
21
0.8667394094488189
0
LINE
8
BLACK
6
CONTINUOUS
10
-0.7595321259842519
20
0.8667394094488189
11
-0.7535901968503936
21
0.8667394094488189
0
LINE
8
BLACK
6
CONTINUOUS
10
-0.7535901968503936
20
0.8667394094488189
11
-0.7535901968503936
21
0.9002039763779527
0
LINE
8
BLACK
6
CONTINUOUS
10
-0.7535901968503936
20
0.9002039763779527
11
-0.7595321259842519
21
0.9002039763779527
0
LINE
8
BLACK
6
CONTINUOUS
10
-0.7595321259842519
20
0.9002039763779527
11
-0.7640405118110236
21
0.8987011811023622
0
LINE
8
BLACK
6
CONTINUOUS
10
-0.6808875984251969
20
0.9060418897637795
11
-0.6807583464566929
21
0.9060646456692913
0
LINE
8
BLACK
6
CONTINUOUS
10
-0.6807583464566929
20
0.9060646456692913
11
-0.6806447637795275
21
0.9059990551181102
0
LINE
8
BLACK
6
CONTINUOUS
10
-0.6806447637795275
20
0.9059990551181102
11
-0.6802611811023622
21
0.9059314173228347
0
LINE
8
BLACK
6
CONTINUOUS
10
-0.6802611811023622
20
0.9059314173228347
11
-0.6796735039370079
21
0.9054383070866141
0
LINE
8
BLACK
6
CONTINUOUS
10
-0.6796735039370079
20
0.9054383070866141
11
-0.6790091732283464
21
0.9050547244094488
0
LINE
8
BLACK
6
CONTINUOUS
10
-0.6790091732283464
20
0.9050547244094488
11
-0.6789180708661418
21
0.9048044094488189
0
LINE
8
BLACK
6
CONTINUOUS
10
-0.6789180708661418
20
0.9048044094488189
11
-0.678713937007874
21
0.9046331102362205
0
LINE
8
BLACK
6
CONTINUOUS
10
-0.678713937007874
20
0.9046331102362205
11
-0.6785807086614173
21
0.9038775590551181
0
LINE
8
BLACK
6
CONTINUOUS
10
-0.6785807086614173
20
0.9038775590551181
11
-0.6783183464566929
21
0.9031567322834645
0
LINE
8
BLACK
6
CONTINUOUS
10
-0.6783183464566929
20
0.9031567322834645
11
-0.6783183464566929
21
0.8637866535433071
0
LINE
8
BLACK
6
CONTINUOUS
10
-0.6783183464566929
20
0.8637866535433071
11
-0.6783859842519685
21
0.8634031496062992
0
LINE
8
BLACK
6
CONTINUOUS
10
-0.6783859842519685
20
0.8634031496062992
11
-0.6783631889763779
21
0.8632738976377953
0
LINE
8
BLACK
6
CONTINUOUS
10
-0.6783631889763779
20
0.8632738976377953
11
-0.6784288188976377
21
0.8631603149606299
0
LINE
8
BLACK
6
CONTINUOUS
10
-0.6784288188976377
20
0.8631603149606299
11
-0.6784964173228346
21
0.8627767322834645
0
LINE
8
BLACK
6
CONTINUOUS
10
-0.6784964173228346
20
0.8627767322834645
11
-0.6789895669291338
21
0.8621890551181102
0
LINE
8
BLACK
6
CONTINUOUS
10
-0.6789895669291338
20
0.8621890551181102
11
-0.6793731102362205
21
0.8615247244094488
0
LINE
8
BLACK
6
CONTINUOUS
10
-0.6793731102362205
20
0.8615247244094488
11
-0.6796234645669291
21
0.8614336220472441
0
LINE
8
BLACK
6
CONTINUOUS
10
-0.6796234645669291
20
0.8614336220472441
11
-0.6797947244094488
21
0.8612294881889764
0
LINE
8
BLACK
6
CONTINUOUS
10
-0.6797947244094488
20
0.8612294881889764
11
-0.6805503149606299
21
0.8610962598425197
0
LINE
8
BLACK
6
CONTINUOUS
10
-0.6805503149606299
20
0.8610962598425197
11
-0.6812711023622047
21
0.8608338976377953
0
LINE
8
BLACK
6
CONTINUOUS
10
-0.6812711023622047
20
0.8608338976377953
11
-0.7000187401574803
21
0.8608338976377953
0
LINE
8
BLACK
6
CONTINUOUS
10
-0.7000187401574803
20
0.8608338976377953
11
-0.7010286614173228
21
0.861011968503937
0
LINE
8
BLACK
6
CONTINUOUS
10
-0.7010286614173228
20
0.861011968503937
11
-0.702575905511811
21
0.8623102755905512
0
LINE
8
BLACK
6
CONTINUOUS
10
-0.702575905511811
20
0.8623102755905512
11
-0.7029266535433071
21
0.8642994094488189
0
LINE
8
BLACK
6
CONTINUOUS
10
-0.7029266535433071
20
0.8642994094488189
11
-0.7019167322834645
21
0.8660485826771653
0
LINE
8
BLACK
6
CONTINUOUS
10
-0.7019167322834645
20
0.8660485826771653
11
-0.7000187401574803
21
0.8667394094488189
0
LINE
8
BLACK
6
CONTINUOUS
10
-0.7000187401574803
20
0.8667394094488189
11
-0.6842238582677165
21
0.8667394094488189
0
LINE
8
BLACK
6
CONTINUOUS
10
-0.6842238582677165
20
0.8667394094488189
11
-0.6842238582677165
21
0.8814563385826771
0
LINE
8
BLACK
6
CONTINUOUS
10
-0.6842238582677165
20
0.8814563385826771
11
-0.6943944488188977
21
0.8814563385826771
0
LINE
8
BLACK
6
CONTINUOUS
10
-0.6943944488188977
20
0.8814563385826771
11
-0.6954043700787401
21
0.8816344094488189
0
LINE
8
BLACK
6
CONTINUOUS
10
-0.6954043700787401
20
0.8816344094488189
11
-0.6969516141732284
21
0.882932716535433
0
LINE
8
BLACK
6
CONTINUOUS
10
-0.6969516141732284
20
0.882932716535433
11
-0.6973023622047244
21
0.8849218503937007
0
LINE
8
BLACK
6
CONTINUOUS
10
-0.6973023622047244
20
0.8849218503937007
11
-0.6962924409448819
21
0.8866710236220472
0
LINE
8
BLACK
6
CONTINUOUS
10
-0.6962924409448819
20
0.8866710236220472
11
-0.6943944488188977
21
0.8873618503937007
0
LINE
8
BLACK
6
CONTINUOUS
10
-0.6943944488188977
20
0.8873618503937007
11
-0.6842238582677165
21
0.8873618503937007
0
LINE
8
BLACK
6
CONTINUOUS
10
-0.6842238582677165
20
0.8873618503937007
11
-0.6842238582677165
21
0.9002039763779527
0
LINE
8
BLACK
6
CONTINUOUS
10
-0.6842238582677165
20
0.9002039763779527
11
-0.7000187401574803
21
0.9002039763779527
0
LINE
8
BLACK
6
CONTINUOUS
10
-0.7000187401574803
20
0.9002039763779527
11
-0.7010286614173228
21
0.9003820472440944
0
LINE
8
BLACK
6
CONTINUOUS
10
-0.7010286614173228
20
0.9003820472440944
11
-0.702575905511811
21
0.9016803543307086
0
LINE
8
BLACK
6
CONTINUOUS
10
-0.702575905511811
20
0.9016803543307086
11
-0.7029266535433071
21
0.9036694881889764
0
LINE
8
BLACK
6
CONTINUOUS
10
-0.7029266535433071
20
0.9036694881889764
11
-0.7019167322834645
21
0.9054186614173229
0
LINE
8
BLACK
6
CONTINUOUS
10
-0.7019167322834645
20
0.9054186614173229
11
-0.7000187401574803
21
0.9061094881889764
0
LINE
8
BLACK
6
CONTINUOUS
10
-0.7000187401574803
20
0.9061094881889764
11
-0.6812711023622047
21
0.9061094881889764
0
LINE
8
BLACK
6
CONTINUOUS
10
-0.6812711023622047
20
0.9061094881889764
11
-0.6808875984251969
21
0.9060418897637795
0
LINE
8
BLACK
6
CONTINUOUS
10
-0.8252445669291338
20
0.9060418897637795
11
-0.82511531496063
21
0.9060646456692913
0
LINE
8
BLACK
6
CONTINUOUS
10
-0.82511531496063
20
0.9060646456692913
11
-0.8250017322834645
21
0.9059990551181102
0
LINE
8
BLACK
6
CONTINUOUS
10
-0.8250017322834645
20
0.9059990551181102
11
-0.8246181496062992
21
0.9059314173228347
0
LINE
8
BLACK
6
CONTINUOUS
10
-0.8246181496062992
20
0.9059314173228347
11
-0.8240304724409449
21
0.9054383070866141
0
LINE
8
BLACK
6
CONTINUOUS
10
-0.8240304724409449
20
0.9054383070866141
11
-0.8233661417322834
21
0.9050547244094488
0
LINE
8
BLACK
6
CONTINUOUS
10
-0.8233661417322834
20
0.9050547244094488
11
-0.8232750393700787
21
0.9048044094488189
0
LINE
8
BLACK
6
CONTINUOUS
10
-0.8232750393700787
20
0.9048044094488189
11
-0.8230709055118111
21
0.9046331102362205
0
LINE
8
BLACK
6
CONTINUOUS
10
-0.8230709055118111
20
0.9046331102362205
11
-0.8229376771653543
21
0.9038775590551181
0
LINE
8
BLACK
6
CONTINUOUS
10
-0.8229376771653543
20
0.9038775590551181
11
-0.82267531496063
21
0.9031567322834645
0
LINE
8
BLACK
6
CONTINUOUS
10
-0.82267531496063
20
0.9031567322834645
11
-0.82267531496063
21
0.8637866535433071
0
LINE
8
BLACK
6
CONTINUOUS
10
-0.82267531496063
20
0.8637866535433071
11
-0.8228533858267716
21
0.8627767322834645
0
LINE
8
BLACK
6
CONTINUOUS
10
-0.8228533858267716
20
0.8627767322834645
11
-0.8241516929133859
21
0.8612294881889764
0
LINE
8
BLACK
6
CONTINUOUS
10
-0.8241516929133859
20
0.8612294881889764
11
-0.8261408267716536
21
0.8608787401574803
0
LINE
8
BLACK
6
CONTINUOUS
10
-0.8261408267716536
20
0.8608787401574803
11
-0.82789
21
0.8618886614173228
0
LINE
8
BLACK
6
CONTINUOUS
10
-0.82789
20
0.8618886614173228
11
-0.8285808267716536
21
0.8637866535433071
0
LINE
8
BLACK
6
CONTINUOUS
10
-0.8285808267716536
20
0.8637866535433071
11
-0.8285808267716536
21
0.8795815748031496
0
LINE
8
BLACK
6
CONTINUOUS
10
-0.8285808267716536
20
0.8795815748031496
11
-0.8334645275590551
21
0.8795815748031496
0
LINE
8
BLACK
6
CONTINUOUS
10
-0.8334645275590551
20
0.8795815748031496
11
-0.8457062598425197
21
0.8620933464566929
0
LINE
8
BLACK
6
CONTINUOUS
10
-0.8457062598425197
20
0.8620933464566929
11
-0.8464312598425197
21
0.8613681102362205
0
LINE
8
BLACK
6
CONTINUOUS
10
-0.8464312598425197
20
0.8613681102362205
11
-0.8483821653543306
21
0.8608450787401575
0
LINE
8
BLACK
6
CONTINUOUS
10
-0.8483821653543306
20
0.8608450787401575
11
-0.850212874015748
21
0.8616984251968504
0
LINE
8
BLACK
6
CONTINUOUS
10
-0.850212874015748
20
0.8616984251968504
11
-0.8510666929133858
21
0.8635288976377953
0
LINE
8
BLACK
6
CONTINUOUS
10
-0.8510666929133858
20
0.8635288976377953
11
-0.8505442125984252
21
0.8654799606299213
0
LINE
8
BLACK
6
CONTINUOUS
10
-0.8505442125984252
20
0.8654799606299213
11
-0.8406679527559054
21
0.8795889763779527
0
LINE
8
BLACK
6
CONTINUOUS
10
-0.8406679527559054
20
0.8795889763779527
11
-0.8416361023622047
21
0.8797596456692913
0
LINE
8
BLACK
6
CONTINUOUS
10
-0.8416361023622047
20
0.8797596456692913
11
-0.8417713779527559
21
0.8798731496062991
0
LINE
8
BLACK
6
CONTINUOUS
10
-0.8417713779527559
20
0.8798731496062991
11
-0.8419466929133858
21
0.8798933070866142
0
LINE
8
BLACK
6
CONTINUOUS
10
-0.8419466929133858
20
0.8798933070866142
11
-0.845696220472441
21
0.8817680708661417
0
LINE
8
BLACK
6
CONTINUOUS
10
-0.845696220472441
20
0.8817680708661417
11
-0.8464053149606299
21
0.8822939763779527
0
LINE
8
BLACK
6
CONTINUOUS
10
-0.8464053149606299
20
0.8822939763779527
11
-0.8464636220472441
21
0.8823211811023622
0
LINE
8
BLACK
6
CONTINUOUS
10
-0.8464636220472441
20
0.8823211811023622
11
-0.8483383858267717
21
0.8841959448818898
0
LINE
8
BLACK
6
CONTINUOUS
10
-0.8483383858267717
20
0.8841959448818898
11
-0.8488446850393701
21
0.8849190551181102
0
LINE
8
BLACK
6
CONTINUOUS
10
-0.8488446850393701
20
0.8849190551181102
11
-0.8488914960629921
21
0.8849633464566929
0
LINE
8
BLACK
6
CONTINUOUS
10
-0.8488914960629921
20
0.8849633464566929
11
-0.8507662598425196
21
0.8887128740157481
0
LINE
8
BLACK
6
CONTINUOUS
10
-0.8507662598425196
20
0.8887128740157481
11
-0.851058622047244
21
0.8896958267716535
0
LINE
8
BLACK
6
CONTINUOUS
10
-0.851058622047244
20
0.8896958267716535
11
-0.8510176377952756
21
0.8898675196850393
0
LINE
8
BLACK
6
CONTINUOUS
10
-0.8510176377952756
20
0.8898675196850393
11
-0.8510779921259842
21
0.8900333858267716
0
LINE
8
BLACK
6
CONTINUOUS
10
-0.8510779921259842
20
0.8900333858267716
11
-0.8510779921259842
21
0.8956576771653543
0
LINE
8
BLACK
6
CONTINUOUS
10
-0.8510779921259842
20
0.8956576771653543
11
-0.8508999212598425
21
0.8966675984251968
0
LINE
8
BLACK
6
CONTINUOUS
10
-0.8508999212598425
20
0.8966675984251968
11
-0.8507864566929134
21
0.896802874015748
0
LINE
8
BLACK
6
CONTINUOUS
10
-0.8507864566929134
20
0.896802874015748
11
-0.8507662598425196
21
0.8969781889763779
0
LINE
8
BLACK
6
CONTINUOUS
10
-0.8507662598425196
20
0.8969781889763779
11
-0.8488914960629921
21
0.900727716535433
0
LINE
8
BLACK
6
CONTINUOUS
10
-0.8488914960629921
20
0.900727716535433
11
-0.8483655905511811
21
0.9014368110236221
0
LINE
8
BLACK
6
CONTINUOUS
10
-0.8483655905511811
20
0.9014368110236221
11
-0.8483383858267717
21
0.9014951181102362
0
LINE
8
BLACK
6
CONTINUOUS
10
-0.8483383858267717
20
0.9014951181102362
11
-0.8464636220472441
21
0.9033698818897637
0
LINE
8
BLACK
6
CONTINUOUS
10
-0.8464636220472441
20
0.9033698818897637
11
-0.8457405511811024
21
0.9038761811023622
0
LINE
8
BLACK
6
CONTINUOUS
10
-0.8457405511811024
20
0.9038761811023622
11
-0.845696220472441
21
0.9039229921259843
0
LINE
8
BLACK
6
CONTINUOUS
10
-0.845696220472441
20
0.9039229921259843
11
-0.8419466929133858
21
0.9057977559055118
0
LINE
8
BLACK
6
CONTINUOUS
10
-0.8419466929133858
20
0.9057977559055118
11
-0.8409637795275591
21
0.9060901181102362
0
LINE
8
BLACK
6
CONTINUOUS
10
-0.8409637795275591
20
0.9060901181102362
11
-0.8407920866141733
21
0.9060491338582677
0
LINE
8
BLACK
6
CONTINUOUS
10
-0.8407920866141733
20
0.9060491338582677
11
-0.8406261811023622
21
0.9061094881889764
0
LINE
8
BLACK
6
CONTINUOUS
10
-0.8406261811023622
20
0.9061094881889764
11
-0.8256280708661418
21
0.9061094881889764
0
LINE
8
BLACK
6
CONTINUOUS
10
-0.8256280708661418
20
0.9061094881889764
11
-0.8252445669291338
21
0.9060418897637795
0
LINE
8
BLACK
6
CONTINUOUS
10
-0.8426266141732284
20
0.8988552362204725
11
-0.8438237401574803
21
0.8976581102362204
0
LINE
8
BLACK
6
CONTINUOUS
10
-0.8438237401574803
20
0.8976581102362204
11
-0.8451724803149606
21
0.8949606299212598
0
LINE
8
BLACK
6
CONTINUOUS
10
-0.8451724803149606
20
0.8949606299212598
11
-0.8451724803149606
21
0.8907304330708661
0
LINE
8
BLACK
6
CONTINUOUS
10
-0.8451724803149606
20
0.8907304330708661
11
-0.8438237401574803
21
0.8880329527559055
0
LINE
8
BLACK
6
CONTINUOUS
10
-0.8438237401574803
20
0.8880329527559055
11
-0.8426266141732284
21
0.8868358267716535
0
LINE
8
BLACK
6
CONTINUOUS
10
-0.8426266141732284
20
0.8868358267716535
11
-0.8399291338582677
21
0.8854870866141732
0
LINE
8
BLACK
6
CONTINUOUS
10
-0.8399291338582677
20
0.8854870866141732
11
-0.8285808267716536
21
0.8854870866141732
0
LINE
8
BLACK
6
CONTINUOUS
10
-0.8285808267716536
20
0.8854870866141732
11
-0.8285808267716536
21
0.9002039763779527
0
LINE
8
BLACK
6
CONTINUOUS
10
-0.8285808267716536
20
0.9002039763779527
11
-0.8399291338582677
21
0.9002039763779527
0
LINE
8
BLACK
6
CONTINUOUS
10
-0.8399291338582677
20
0.9002039763779527
11
-0.8426266141732284
21
0.8988552362204725
0
LINE
8
BLACK
6
CONTINUOUS
10
-0.9265404330708661
20
0.8920031496062992
11
-0.9257889763779528
21
0.8901283464566929
0
LINE
8
BLACK
6
CONTINUOUS
10
-0.9257889763779528
20
0.8901283464566929
11
-0.9264183858267716
21
0.888209094488189
0
LINE
8
BLACK
6
CONTINUOUS
10
-0.9264183858267716
20
0.888209094488189
11
-0.9352962204724409
21
0.8769100393700787
0
LINE
8
BLACK
6
CONTINUOUS
10
-0.9352962204724409
20
0.8769100393700787
11
-0.9264183858267716
21
0.8656109448818897
0
LINE
8
BLACK
6
CONTINUOUS
10
-0.9264183858267716
20
0.8656109448818897
11
-0.9259344488188976
21
0.864706811023622
0
LINE
8
BLACK
6
CONTINUOUS
10
-0.9259344488188976
20
0.864706811023622
11
-0.9259994094488189
21
0.862688031496063
0
LINE
8
BLACK
6
CONTINUOUS
10
-0.9259994094488189
20
0.862688031496063
11
-0.927346811023622
21
0.8611833070866142
0
LINE
8
BLACK
6
CONTINUOUS
10
-0.927346811023622
20
0.8611833070866142
11
-0.9293461811023622
21
0.8608967716535433
0
LINE
8
BLACK
6
CONTINUOUS
10
-0.9293461811023622
20
0.8608967716535433
11
-0.9310620078740157
21
0.8619623622047244
0
LINE
8
BLACK
6
CONTINUOUS
10
-0.9310620078740157
20
0.8619623622047244
11
-0.9390514173228346
21
0.8721307086614173
0
LINE
8
BLACK
6
CONTINUOUS
10
-0.9390514173228346
20
0.8721307086614173
11
-0.9470407874015748
21
0.8619623622047244
0
LINE
8
BLACK
6
CONTINUOUS
10
-0.9470407874015748
20
0.8619623622047244
11
-0.9478047637795275
21
0.8612782677165354
0
LINE
8
BLACK
6
CONTINUOUS
10
-0.9478047637795275
20
0.8612782677165354
11
-0.9497815748031496
21
0.860863779527559
0
LINE
8
BLACK
6
CONTINUOUS
10
-0.9497815748031496
20
0.860863779527559
11
-0.9515623622047243
21
0.8618168897637795
0
LINE
8
BLACK
6
CONTINUOUS
10
-0.9515623622047243
20
0.8618168897637795
11
-0.9523138188976378
21
0.8636916929133858
0
LINE
8
BLACK
6
CONTINUOUS
10
-0.9523138188976378
20
0.8636916929133858
11
-0.9516844094488188
21
0.8656109448818897
0
LINE
8
BLACK
6
CONTINUOUS
10
-0.9516844094488188
20
0.8656109448818897
11
-0.9428066141732283
21
0.8769100393700787
0
LINE
8
BLACK
6
CONTINUOUS
10
-0.9428066141732283
20
0.8769100393700787
11
-0.9516844094488188
21
0.888209094488189
0
LINE
8
BLACK
6
CONTINUOUS
10
-0.9516844094488188
20
0.888209094488189
11
-0.9521683464566929
21
0.8891132283464567
0
LINE
8
BLACK
6
CONTINUOUS
10
-0.9521683464566929
20
0.8891132283464567
11
-0.9521033858267717
21
0.8911320078740157
0
LINE
8
BLACK
6
CONTINUOUS
10
-0.9521033858267717
20
0.8911320078740157
11
-0.9507559842519685
21
0.8926367322834645
0
LINE
8
BLACK
6
CONTINUOUS
10
-0.9507559842519685
20
0.8926367322834645
11
-0.9487566141732283
21
0.8929232677165354
0
LINE
8
BLACK
6
CONTINUOUS
10
-0.9487566141732283
20
0.8929232677165354
11
-0.9470407874015748
21
0.8918576771653544
0
LINE
8
BLACK
6
CONTINUOUS
10
-0.9470407874015748
20
0.8918576771653544
11
-0.9390514173228346
21
0.8816893700787402
0
LINE
8
BLACK
6
CONTINUOUS
10
-0.9390514173228346
20
0.8816893700787402
11
-0.9310620078740157
21
0.8918576771653544
0
LINE
8
BLACK
6
CONTINUOUS
10
-0.9310620078740157
20
0.8918576771653544
11
-0.9302980314960629
21
0.8925417716535433
0
LINE
8
BLACK
6
CONTINUOUS
10
-0.9302980314960629
20
0.8925417716535433
11
-0.9283212204724409
21
0.8929562598425197
0
LINE
8
BLACK
6
CONTINUOUS
10
-0.9283212204724409
20
0.8929562598425197
11
-0.9265404330708661
21
0.8920031496062992
0
LINE
8
BLACK
6
CONTINUOUS
10
-0.7239087007874015
20
0.9058902755905511
11
-0.7229847244094488
21
0.9057532677165354
0
LINE
8
BLACK
6
CONTINUOUS
10
-0.7229847244094488
20
0.9057532677165354
11
-0.7229283070866142
21
0.9056896456692913
0
LINE
8
BLACK
6
CONTINUOUS
10
-0.7229283070866142
20
0.9056896456692913
11
-0.7228450393700787
21
0.9056725984251969
0
LINE
8
BLACK
6
CONTINUOUS
10
-0.7228450393700787
20
0.9056725984251969
11
-0.7222644094488189
21
0.9049409448818897
0
LINE
8
BLACK
6
CONTINUOUS
10
-0.7222644094488189
20
0.9049409448818897
11
-0.7216446456692913
21
0.9042420078740158
0
LINE
8
BLACK
6
CONTINUOUS
10
-0.7216446456692913
20
0.9042420078740158
11
-0.7216423622047244
21
0.9041570866141732
0
LINE
8
BLACK
6
CONTINUOUS
10
-0.7216423622047244
20
0.9041570866141732
11
-0.7215894881889764
21
0.9040904724409449
0
LINE
8
BLACK
6
CONTINUOUS
10
-0.7215894881889764
20
0.9040904724409449
11
-0.7084661417322834
21
0.8647203937007873
0
LINE
8
BLACK
6
CONTINUOUS
10
-0.7084661417322834
20
0.8647203937007873
11
-0.7083157086614174
21
0.8637060236220472
0
LINE
8
BLACK
6
CONTINUOUS
10
-0.7083157086614174
20
0.8637060236220472
11
-0.7090581102362205
21
0.8618275984251969
0
LINE
8
BLACK
6
CONTINUOUS
10
-0.7090581102362205
20
0.8618275984251969
11
-0.7108342519685039
21
0.8608658267716536
0
LINE
8
BLACK
6
CONTINUOUS
10
-0.7108342519685039
20
0.8608658267716536
11
-0.712813031496063
21
0.8612707874015748
0
LINE
8
BLACK
6
CONTINUOUS
10
-0.712813031496063
20
0.8612707874015748
11
-0.7140685826771653
21
0.8628529133858267
0
LINE
8
BLACK
6
CONTINUOUS
10
-0.7140685826771653
20
0.8628529133858267
11
-0.7171451181102362
21
0.8720825196850394
0
LINE
8
BLACK
6
CONTINUOUS
10
-0.7171451181102362
20
0.8720825196850394
11
-0.7316362992125984
21
0.8720825196850394
0
LINE
8
BLACK
6
CONTINUOUS
10
-0.7316362992125984
20
0.8720825196850394
11
-0.7347128346456693
21
0.8628529133858267
0
LINE
8
BLACK
6
CONTINUOUS
10
-0.7347128346456693
20
0.8628529133858267
11
-0.7352011417322835
21
0.8619511417322835
0
LINE
8
BLACK
6
CONTINUOUS
10
-0.7352011417322835
20
0.8619511417322835
11
-0.7369220866141732
21
0.8608938582677165
0
LINE
8
BLACK
6
CONTINUOUS
10
-0.7369220866141732
20
0.8608938582677165
11
-0.7389200787401574
21
0.8611901181102362
0
LINE
8
BLACK
6
CONTINUOUS
10
-0.7389200787401574
20
0.8611901181102362
11
-0.7402601181102362
21
0.8627013385826772
0
LINE
8
BLACK
6
CONTINUOUS
10
-0.7402601181102362
20
0.8627013385826772
11
-0.7403152755905512
21
0.8647203937007873
0
LINE
8
BLACK
6
CONTINUOUS
10
-0.7403152755905512
20
0.8647203937007873
11
-0.7271919291338582
21
0.9040904724409449
0
LINE
8
BLACK
6
CONTINUOUS
10
-0.7271919291338582
20
0.9040904724409449
11
-0.7267036614173228
21
0.9049922440944882
0
LINE
8
BLACK
6
CONTINUOUS
10
-0.7267036614173228
20
0.9049922440944882
11
-0.7266312204724409
21
0.9050367716535432
0
LINE
8
BLACK
6
CONTINUOUS
10
-0.7266312204724409
20
0.9050367716535432
11
-0.7265999606299213
21
0.9051157874015748
0
LINE
8
BLACK
6
CONTINUOUS
10
-0.7265999606299213
20
0.9051157874015748
11
-0.7257786614173228
21
0.9055605511811023
0
LINE
8
BLACK
6
CONTINUOUS
10
-0.7257786614173228
20
0.9055605511811023
11
-0.7249826771653544
21
0.9060495275590551
0
LINE
8
BLACK
6
CONTINUOUS
10
-0.7249826771653544
20
0.9060495275590551
11
-0.7248986220472441
21
0.9060370866141733
0
LINE
8
BLACK
6
CONTINUOUS
10
-0.7248986220472441
20
0.9060370866141733
11
-0.7248238188976378
21
0.9060775590551181
0
LINE
8
BLACK
6
CONTINUOUS
10
-0.7248238188976378
20
0.9060775590551181
11
-0.7239087007874015
21
0.9058902755905511
0
LINE
8
BLACK
6
CONTINUOUS
10
-0.7296677952755906
20
0.877988031496063
11
-0.719113622047244
21
0.877988031496063
0
LINE
8
BLACK
6
CONTINUOUS
10
-0.719113622047244
20
0.877988031496063
11
-0.7243907086614173
21
0.8938193307086614
0
LINE
8
BLACK
6
CONTINUOUS
10
-0.7243907086614173
20
0.8938193307086614
11
-0.7296677952755906
21
0.877988031496063
0
LINE
8
BLACK
6
CONTINUOUS
10
-0.6377643307086615
20
0.9050547244094488
11
-0.6370735039370079
21
0.9031567322834645
0
LINE
8
BLACK
6
CONTINUOUS
10
-0.6370735039370079
20
0.9031567322834645
11
-0.6370735039370079
21
0.8637866535433071
0
LINE
8
BLACK
6
CONTINUOUS
10
-0.6370735039370079
20
0.8637866535433071
11
-0.6372515748031496
21
0.8627767322834645
0
LINE
8
BLACK
6
CONTINUOUS
10
-0.6372515748031496
20
0.8627767322834645
11
-0.6385498818897638
21
0.8612294881889764
0
LINE
8
BLACK
6
CONTINUOUS
10
-0.6385498818897638
20
0.8612294881889764
11
-0.6405390157480315
21
0.8608787401574803
0
LINE
8
BLACK
6
CONTINUOUS
10
-0.6405390157480315
20
0.8608787401574803
11
-0.642288188976378
21
0.8618886614173228
0
LINE
8
BLACK
6
CONTINUOUS
10
-0.642288188976378
20
0.8618886614173228
11
-0.6429790157480315
21
0.8637866535433071
0
LINE
8
BLACK
6
CONTINUOUS
10
-0.6429790157480315
20
0.8637866535433071
11
-0.6429790157480315
21
0.8814563385826771
0
LINE
8
BLACK
6
CONTINUOUS
10
-0.6429790157480315
20
0.8814563385826771
11
-0.6595706692913386
21
0.8814563385826771
0
LINE
8
BLACK
6
CONTINUOUS
10
-0.6595706692913386
20
0.8814563385826771
11
-0.6595706692913386
21
0.8637866535433071
0
LINE
8
BLACK
6
CONTINUOUS
10
-0.6595706692913386
20
0.8637866535433071
11
-0.6597487401574803
21
0.8627767322834645
0
LINE
8
BLACK
6
CONTINUOUS
10
-0.6597487401574803
20
0.8627767322834645
11
-0.6610470472440945
21
0.8612294881889764
0
LINE
8
BLACK
6
CONTINUOUS
10
-0.6610470472440945
20
0.8612294881889764
11
-0.6630361811023622
21
0.8608787401574803
0
LINE
8
BLACK
6
CONTINUOUS
10
-0.6630361811023622
20
0.8608787401574803
11
-0.6647853543307086
21
0.8618886614173228
0
LINE
8
BLACK
6
CONTINUOUS
10
-0.6647853543307086
20
0.8618886614173228
11
-0.6654761811023622
21
0.8637866535433071
0
LINE
8
BLACK
6
CONTINUOUS
10
-0.6654761811023622
20
0.8637866535433071
11
-0.6654761811023622
21
0.9031567322834645
0
LINE
8
BLACK
6
CONTINUOUS
10
-0.6654761811023622
20
0.9031567322834645
11
-0.6652981102362204
21
0.9041666535433071
0
LINE
8
BLACK
6
CONTINUOUS
10
-0.6652981102362204
20
0.9041666535433071
11
-0.6639998031496063
21
0.9057138976377953
0
LINE
8
BLACK
6
CONTINUOUS
10
-0.6639998031496063
20
0.9057138976377953
11
-0.6620106692913386
21
0.9060646456692913
0
LINE
8
BLACK
6
CONTINUOUS
10
-0.6620106692913386
20
0.9060646456692913
11
-0.6602614960629921
21
0.9050547244094488
0
LINE
8
BLACK
6
CONTINUOUS
10
-0.6602614960629921
20
0.9050547244094488
11
-0.6595706692913386
21
0.9031567322834645
0
LINE
8
BLACK
6
CONTINUOUS
10
-0.6595706692913386
20
0.9031567322834645
11
-0.6595706692913386
21
0.8873618503937007
0
LINE
8
BLACK
6
CONTINUOUS
10
-0.6595706692913386
20
0.8873618503937007
11
-0.6429790157480315
21
0.8873618503937007
0
LINE
8
BLACK
6
CONTINUOUS
10
-0.6429790157480315
20
0.8873618503937007
11
-0.6429790157480315
21
0.9031567322834645
0
LINE
8
BLACK
6
CONTINUOUS
10
-0.6429790157480315
20
0.9031567322834645
11
-0.6428009448818898
21
0.9041666535433071
0
LINE
8
BLACK
6
CONTINUOUS
10
-0.6428009448818898
20
0.9041666535433071
11
-0.6415026377952756
21
0.9057138976377953
0
LINE
8
BLACK
6
CONTINUOUS
10
-0.6415026377952756
20
0.9057138976377953
11
-0.6395135039370079
21
0.9060646456692913
0
LINE
8
BLACK
6
CONTINUOUS
10
-0.6395135039370079
20
0.9060646456692913
11
-0.6377643307086615
21
0.9050547244094488
0
LINE
8
BLACK
6
CONTINUOUS
10
-0.8117790157480315
20
1.6917137007874015
11
-0.8116444488188976
21
1.6917254330708662
0
LINE
8
BLACK
6
CONTINUOUS
10
-0.8116444488188976
20
1.6917254330708662
11
-0.8109162992125984
21
1.691215590551181
0
LINE
8
BLACK
6
CONTINUOUS
10
-0.8109162992125984
20
1.691215590551181
11
-0.8101467716535433
21
1.6907712598425197
0
LINE
8
BLACK
6
CONTINUOUS
10
-0.8101467716535433
20
1.6907712598425197
11
-0.8101006299212599
21
1.6906444094488189
0
LINE
8
BLACK
6
CONTINUOUS
10
-0.8101006299212599
20
1.6906444094488189
11
-0.8099899212598425
21
1.6905668897637796
0
LINE
8
BLACK
6
CONTINUOUS
10
-0.8099899212598425
20
1.6905668897637796
11
-0.8097599212598425
21
1.6897083858267716
0
LINE
8
BLACK
6
CONTINUOUS
10
-0.8097599212598425
20
1.6897083858267716
11
-0.8094559448818898
21
1.6888732677165355
0
LINE
8
BLACK
6
CONTINUOUS
10
-0.8094559448818898
20
1.6888732677165355
11
-0.8094559448818898
21
1.6645013385826772
0
LINE
8
BLACK
6
CONTINUOUS
10
-0.8094559448818898
20
1.6645013385826772
11
-0.8096340157480315
21
1.6634914173228346
0
LINE
8
BLACK
6
CONTINUOUS
10
-0.8096340157480315
20
1.6634914173228346
11
-0.8109323228346457
21
1.6619441732283464
0
LINE
8
BLACK
6
CONTINUOUS
10
-0.8109323228346457
20
1.6619441732283464
11
-0.8129214566929134
21
1.6615934251968503
0
LINE
8
BLACK
6
CONTINUOUS
10
-0.8129214566929134
20
1.6615934251968503
11
-0.8146706299212598
21
1.6626033464566929
0
LINE
8
BLACK
6
CONTINUOUS
10
-0.8146706299212598
20
1.6626033464566929
11
-0.8153614566929134
21
1.6645013385826772
0
LINE
8
BLACK
6
CONTINUOUS
10
-0.8153614566929134
20
1.6645013385826772
11
-0.8153614566929134
21
1.6817447244094488
0
LINE
8
BLACK
6
CONTINUOUS
10
-0.8153614566929134
20
1.6817447244094488
11
-0.8328179921259843
21
1.6642881889763779
0
LINE
8
BLACK
6
CONTINUOUS
10
-0.8328179921259843
20
1.6642881889763779
11
-0.833658031496063
21
1.6637
0
LINE
8
BLACK
6
CONTINUOUS
10
-0.833658031496063
20
1.6637
11
-0.8338338976377953
21
1.6636846456692913
0
LINE
8
BLACK
6
CONTINUOUS
10
-0.8338338976377953
20
1.6636846456692913
11
-0.8339721653543307
21
1.6635748818897638
0
LINE
8
BLACK
6
CONTINUOUS
10
-0.8339721653543307
20
1.6635748818897638
11
-0.8395964566929134
21
1.6617001181102362
0
LINE
8
BLACK
6
CONTINUOUS
10
-0.8395964566929134
20
1.6617001181102362
11
-0.8404696456692913
21
1.6615706692913386
0
LINE
8
BLACK
6
CONTINUOUS
10
-0.8404696456692913
20
1.6615706692913386
11
-0.8405301968503937
21
1.6615485826771652
0
LINE
8
BLACK
6
CONTINUOUS
10
-0.8405301968503937
20
1.6615485826771652
11
-0.8442797244094488
21
1.6615485826771652
0
LINE
8
BLACK
6
CONTINUOUS
10
-0.8442797244094488
20
1.6615485826771652
11
-0.8452896456692913
21
1.6617266535433071
0
LINE
8
BLACK
6
CONTINUOUS
10
-0.8452896456692913
20
1.6617266535433071
11
-0.8454249212598425
21
1.661840157480315
0
LINE
8
BLACK
6
CONTINUOUS
10
-0.8454249212598425
20
1.661840157480315
11
-0.8456002362204724
21
1.6618603149606299
0
LINE
8
BLACK
6
CONTINUOUS
10
-0.8456002362204724
20
1.6618603149606299
11
-0.8493497637795275
21
1.6637350787401575
0
LINE
8
BLACK
6
CONTINUOUS
10
-0.8493497637795275
20
1.6637350787401575
11
-0.8500588582677165
21
1.6642609842519684
0
LINE
8
BLACK
6
CONTINUOUS
10
-0.8500588582677165
20
1.6642609842519684
11
-0.8501171653543307
21
1.6642881889763779
0
LINE
8
BLACK
6
CONTINUOUS
10
-0.8501171653543307
20
1.6642881889763779
11
-0.8519919291338582
21
1.6661629527559054
0
LINE
8
BLACK
6
CONTINUOUS
10
-0.8519919291338582
20
1.6661629527559054
11
-0.8524982283464567
21
1.666886062992126
0
LINE
8
BLACK
6
CONTINUOUS
10
-0.8524982283464567
20
1.666886062992126
11
-0.8525450393700787
21
1.6669303543307086
0
LINE
8
BLACK
6
CONTINUOUS
10
-0.8525450393700787
20
1.6669303543307086
11
-0.8544198031496063
21
1.6706798818897637
0
LINE
8
BLACK
6
CONTINUOUS
10
-0.8544198031496063
20
1.6706798818897637
11
-0.8547121653543307
21
1.6716628346456692
0
LINE
8
BLACK
6
CONTINUOUS
10
-0.8547121653543307
20
1.6716628346456692
11
-0.8546711811023622
21
1.6718345275590552
0
LINE
8
BLACK
6
CONTINUOUS
10
-0.8546711811023622
20
1.6718345275590552
11
-0.8547315354330709
21
1.6720003937007875
0
LINE
8
BLACK
6
CONTINUOUS
10
-0.8547315354330709
20
1.6720003937007875
11
-0.8547315354330709
21
1.6813742125984252
0
LINE
8
BLACK
6
CONTINUOUS
10
-0.8547315354330709
20
1.6813742125984252
11
-0.8545534645669292
21
1.6823841338582677
0
LINE
8
BLACK
6
CONTINUOUS
10
-0.8545534645669292
20
1.6823841338582677
11
-0.85444
21
1.6825194094488189
0
LINE
8
BLACK
6
CONTINUOUS
10
-0.85444
20
1.6825194094488189
11
-0.8544198031496063
21
1.6826947244094488
0
LINE
8
BLACK
6
CONTINUOUS
10
-0.8544198031496063
20
1.6826947244094488
11
-0.8525450393700787
21
1.6864442519685039
0
LINE
8
BLACK
6
CONTINUOUS
10
-0.8525450393700787
20
1.6864442519685039
11
-0.8520191338582677
21
1.6871533464566928
0
LINE
8
BLACK
6
CONTINUOUS
10
-0.8520191338582677
20
1.6871533464566928
11
-0.8519919291338582
21
1.687211653543307
0
LINE
8
BLACK
6
CONTINUOUS
10
-0.8519919291338582
20
1.687211653543307
11
-0.8501171653543307
21
1.6890864173228346
0
LINE
8
BLACK
6
CONTINUOUS
10
-0.8501171653543307
20
1.6890864173228346
11
-0.849277125984252
21
1.6896746062992125
0
LINE
8
BLACK
6
CONTINUOUS
10
-0.849277125984252
20
1.6896746062992125
11
-0.8472650393700787
21
1.6898506299212599
0
LINE
8
BLACK
6
CONTINUOUS
10
-0.8472650393700787
20
1.6898506299212599
11
-0.8456104724409449
21
1.688692125984252
0
LINE
8
BLACK
6
CONTINUOUS
10
-0.8456104724409449
20
1.688692125984252
11
-0.8450877559055118
21
1.6867411417322835
0
LINE
8
BLACK
6
CONTINUOUS
10
-0.8450877559055118
20
1.6867411417322835
11
-0.8459413385826772
21
1.684910590551181
0
LINE
8
BLACK
6
CONTINUOUS
10
-0.8459413385826772
20
1.684910590551181
11
-0.8474772834645669
21
1.6833746456692913
0
LINE
8
BLACK
6
CONTINUOUS
10
-0.8474772834645669
20
1.6833746456692913
11
-0.8488260236220472
21
1.6806771653543306
0
LINE
8
BLACK
6
CONTINUOUS
10
-0.8488260236220472
20
1.6806771653543306
11
-0.8488260236220472
21
1.6726974409448818
0
LINE
8
BLACK
6
CONTINUOUS
10
-0.8488260236220472
20
1.6726974409448818
11
-0.8474772834645669
21
1.6699999606299212
0
LINE
8
BLACK
6
CONTINUOUS
10
-0.8474772834645669
20
1.6699999606299212
11
-0.8462801574803149
21
1.6688028346456694
0
LINE
8
BLACK
6
CONTINUOUS
10
-0.8462801574803149
20
1.6688028346456694
11
-0.8435826771653543
21
1.667454094488189
0
LINE
8
BLACK
6
CONTINUOUS
10
-0.8435826771653543
20
1.667454094488189
11
-0.8410093307086614
21
1.667454094488189
0
LINE
8
BLACK
6
CONTINUOUS
10
-0.8410093307086614
20
1.667454094488189
11
-0.8365009448818898
21
1.6689569291338582
0
LINE
8
BLACK
6
CONTINUOUS
10
-0.8365009448818898
20
1.6689569291338582
11
-0.8144966141732283
21
1.6909611811023622
0
LINE
8
BLACK
6
CONTINUOUS
10
-0.8144966141732283
20
1.6909611811023622
11
-0.8139685826771653
21
1.6913309842519684
0
LINE
8
BLACK
6
CONTINUOUS
10
-0.8139685826771653
20
1.6913309842519684
11
-0.8138850787401575
21
1.691430433070866
0
LINE
8
BLACK
6
CONTINUOUS
10
-0.8138850787401575
20
1.691430433070866
11
-0.8138067716535433
21
1.691444251968504
0
LINE
8
BLACK
6
CONTINUOUS
10
-0.8138067716535433
20
1.691444251968504
11
-0.8136565748031496
21
1.6915494094488188
0
LINE
8
BLACK
6
CONTINUOUS
10
-0.8136565748031496
20
1.6915494094488188
11
-0.8127710236220472
21
1.6916268897637794
0
LINE
8
BLACK
6
CONTINUOUS
10
-0.8127710236220472
20
1.6916268897637794
11
-0.8118959448818898
21
1.6917811811023622
0
LINE
8
BLACK
6
CONTINUOUS
10
-0.8118959448818898
20
1.6917811811023622
11
-0.8117790157480315
21
1.6917137007874015
0
LINE
8
BLACK
6
CONTINUOUS
10
-0.8101467716535433
20
1.7207675196850394
11
-0.8094559448818898
21
1.7188695275590551
0
LINE
8
BLACK
6
CONTINUOUS
10
-0.8094559448818898
20
1.7188695275590551
11
-0.8094559448818898
21
1.71512
0
LINE
8
BLACK
6
CONTINUOUS
10
-0.8094559448818898
20
1.71512
11
-0.809609251968504
21
1.7142506299212599
0
LINE
8
BLACK
6
CONTINUOUS
10
-0.809609251968504
20
1.7142506299212599
11
-0.8096074803149607
21
1.714186220472441
0
LINE
8
BLACK
6
CONTINUOUS
10
-0.8096074803149607
20
1.714186220472441
11
-0.8114822440944882
21
1.708561968503937
0
LINE
8
BLACK
6
CONTINUOUS
10
-0.8114822440944882
20
1.708561968503937
11
-0.8119705511811024
21
1.7076601968503937
0
LINE
8
BLACK
6
CONTINUOUS
10
-0.8119705511811024
20
1.7076601968503937
11
-0.8121209448818898
21
1.7075678346456693
0
LINE
8
BLACK
6
CONTINUOUS
10
-0.8121209448818898
20
1.7075678346456693
11
-0.8121955511811023
21
1.7074077952755906
0
LINE
8
BLACK
6
CONTINUOUS
10
-0.8121955511811023
20
1.7074077952755906
11
-0.8159451181102362
21
1.7036582677165355
0
LINE
8
BLACK
6
CONTINUOUS
10
-0.8159451181102362
20
1.7036582677165355
11
-0.816785157480315
21
1.7030700393700786
0
LINE
8
BLACK
6
CONTINUOUS
10
-0.816785157480315
20
1.7030700393700786
11
-0.8169611023622048
21
1.70305468503937
0
LINE
8
BLACK
6
CONTINUOUS
10
-0.8169611023622048
20
1.70305468503937
11
-0.8170992913385826
21
1.7029449606299212
0
LINE
8
BLACK
6
CONTINUOUS
10
-0.8170992913385826
20
1.7029449606299212
11
-0.8227235826771654
21
1.7010701968503936
0
LINE
8
BLACK
6
CONTINUOUS
10
-0.8227235826771654
20
1.7010701968503936
11
-0.8235967716535433
21
1.700940748031496
0
LINE
8
BLACK
6
CONTINUOUS
10
-0.8235967716535433
20
1.700940748031496
11
-0.8236573228346457
21
1.7009186614173228
0
LINE
8
BLACK
6
CONTINUOUS
10
-0.8236573228346457
20
1.7009186614173228
11
-0.851778779527559
21
1.7009186614173228
0
LINE
8
BLACK
6
CONTINUOUS
10
-0.851778779527559
20
1.7009186614173228
11
-0.8527887007874015
21
1.7010967322834645
0
LINE
8
BLACK
6
CONTINUOUS
10
-0.8527887007874015
20
1.7010967322834645
11
-0.8543359448818898
21
1.7023950393700786
0
LINE
8
BLACK
6
CONTINUOUS
10
-0.8543359448818898
20
1.7023950393700786
11
-0.8546866929133858
21
1.7043841732283465
0
LINE
8
BLACK
6
CONTINUOUS
10
-0.8546866929133858
20
1.7043841732283465
11
-0.8536767716535433
21
1.7061333464566928
0
LINE
8
BLACK
6
CONTINUOUS
10
-0.8536767716535433
20
1.7061333464566928
11
-0.851778779527559
21
1.7068241732283465
0
LINE
8
BLACK
6
CONTINUOUS
10
-0.851778779527559
20
1.7068241732283465
11
-0.8241364566929134
21
1.7068241732283465
0
LINE
8
BLACK
6
CONTINUOUS
10
-0.8241364566929134
20
1.7068241732283465
11
-0.8196280708661418
21
1.7083270078740158
0
LINE
8
BLACK
6
CONTINUOUS
10
-0.8196280708661418
20
1.7083270078740158
11
-0.8168642519685039
21
1.7110907874015748
0
LINE
8
BLACK
6
CONTINUOUS
10
-0.8168642519685039
20
1.7110907874015748
11
-0.8153614566929134
21
1.7155991338582677
0
LINE
8
BLACK
6
CONTINUOUS
10
-0.8153614566929134
20
1.7155991338582677
11
-0.8153614566929134
21
1.7188695275590551
0
LINE
8
BLACK
6
CONTINUOUS
10
-0.8153614566929134
20
1.7188695275590551
11
-0.8151833858267716
21
1.7198794488188975
0
LINE
8
BLACK
6
CONTINUOUS
10
-0.8151833858267716
20
1.7198794488188975
11
-0.8138850787401575
21
1.7214266929133857
0
LINE
8
BLACK
6
CONTINUOUS
10
-0.8138850787401575
20
1.7214266929133857
11
-0.8118959448818898
21
1.7217774409448818
0
LINE
8
BLACK
6
CONTINUOUS
10
-0.8118959448818898
20
1.7217774409448818
11
-0.8101467716535433
21
1.7207675196850394
0
LINE
8
BLACK
6
CONTINUOUS
10
-0.7303149606299213
20
2.4427165354330707
11
-0.728923031496063
21
2.442139960629921
0
LINE
8
BLACK
6
CONTINUOUS
10
-0.728923031496063
20
2.442139960629921
11
-0.7283464566929134
21
2.4407480314960628
0
LINE
8
BLACK
6
CONTINUOUS
10
-0.7283464566929134
20
2.4407480314960628
11
-0.7283464566929134
21
0.940748031496063
0
LINE
8
BLACK
6
CONTINUOUS
10
-0.7283464566929134
20
0.940748031496063
11
-0.728923031496063
21
0.9393561023622047
0
LINE
8
BLACK
6
CONTINUOUS
10
-0.728923031496063
20
0.9393561023622047
11
-0.7303149606299213
21
0.9387795275590551
0
LINE
8
BLACK
6
CONTINUOUS
10
-0.7303149606299213
20
0.9387795275590551
11
-0.9303149606299213
21
0.9387795275590551
0
LINE
8
BLACK
6
CONTINUOUS
10
-0.9303149606299213
20
0.9387795275590551
11
-0.9317068897637795
21
0.9393561023622047
0
LINE
8
BLACK
6
CONTINUOUS
10
-0.9317068897637795
20
0.9393561023622047
11
-0.9322834645669291
21
0.940748031496063
0
LINE
8
BLACK
6
CONTINUOUS
10
-0.9322834645669291
20
0.940748031496063
11
-0.9322834645669291
21
2.4013779527559054
0
LINE
8
BLACK
6
CONTINUOUS
10
-0.9322834645669291
20
2.4013779527559054
11
-0.9317068897637795
21
2.4027698818897636
0
LINE
8
BLACK
6
CONTINUOUS
10
-0.9317068897637795
20
2.4027698818897636
11
-0.8923368110236221
21
2.4421399999999998
0
LINE
8
BLACK
6
CONTINUOUS
10
-0.8923368110236221
20
2.4421399999999998
11
-0.8909448818897637
21
2.4427165354330707
0
LINE
8
BLACK
6
CONTINUOUS
10
-0.8909448818897637
20
2.4427165354330707
11
-0.7303149606299213
21
2.4427165354330707
0
LINE
8
BLACK
6
CONTINUOUS
10
-0.8901294881889763
20
2.4387795275590549
11
-0.9283464566929134
21
2.4005625984251968
0
LINE
8
BLACK
6
CONTINUOUS
10
-0.9283464566929134
20
2.4005625984251968
11
-0.9283464566929134
21
0.9427165354330709
0
LINE
8
BLACK
6
CONTINUOUS
10
-0.9283464566929134
20
0.9427165354330709
11
-0.7322834645669292
21
0.9427165354330709
0
LINE
8
BLACK
6
CONTINUOUS
10
-0.7322834645669292
20
0.9427165354330709
11
-0.7322834645669292
21
2.4387795275590549
0
LINE
8
BLACK
6
CONTINUOUS
10
-0.7322834645669292
20
2.4387795275590549
11
-0.8901294881889763
21
2.4387795275590549
  0
ENDSEC
  0
EOF
