  0
SECTION
  2
HEADER
  9
$ANGBASE
  50
0.0
  9
$ANGDIR
  70
1
  9
$MEASUREMENT
  70
0
  0
ENDSEC
  0
SECTION
  2
TABLES
  0
TABLE
  2
LTYPE
  70
4
  0
LTYPE
  5
40F
  2
CONTINUOUS
  70
0
  3
Solid line
  72
65
  73
0
  40
0.0
  0
LTYPE
  5
410
  2
DASHDOT
 70
0
  3
Dash Dot ____ _ ____ _
 72
65
 73
4
 40
2.0
 49
1.25
 49
-0.25
 49
0.25
 49
-0.25
  0
LTYPE
  5
411
  2
DASHED
 70
0
  3
Dashed __ __ __ __ __
 72
65
 73
2
 40
0.75
 49
0.5
 49
-0.25
  0
LTYPE
  5
43B
  2
DOTTED
 70
0
  3
Dotted .  .  .  .
 72
65
 73
2
 40
0.2
 49
0.0
 49
-0.2
  0
ENDTAB
  0
TABLE
  2
STYLE
  70
4
  0
STYLE
  2
KICAD
  70
0
  40
0
  41
1
  42
1
  50
0
  71
0
  3
isocp.shx
  0
STYLE
  2
KICADB
  70
0
  40
0
  41
1
  42
1
  50
0
  71
0
  3
isocp.shx
  0
STYLE
  2
KICADI
  70
0
  40
0
  41
1
  42
1
  50
15
  71
0
  3
isocp.shx
  0
STYLE
  2
KICADBI
  70
0
  40
0
  41
1
  42
1
  50
15
  71
0
  3
isocp.shx
  0
ENDTAB
  0
TABLE
  2
LAYER
  70
1
  0
LAYER
  2
BLACK
  70
0
  62
7
  6
CONTINUOUS
  0
ENDTAB
  0
ENDSEC
  0
SECTION
  2
ENTITIES
0
LINE
8
BLACK
6
CONTINUOUS
10
-0.662935748031496
20
0.8772424803149607
11
-0.6618713385826771
21
0.8768015748031496
0
LINE
8
BLACK
6
CONTINUOUS
10
-0.6618713385826771
20
0.8768015748031496
11
-0.6610566929133858
21
0.8759869291338582
0
LINE
8
BLACK
6
CONTINUOUS
10
-0.6610566929133858
20
0.8759869291338582
11
-0.6606157874015748
21
0.8749225196850393
0
LINE
8
BLACK
6
CONTINUOUS
10
-0.6606157874015748
20
0.8749225196850393
11
-0.6605590551181102
21
0.8743464566929133
0
LINE
8
BLACK
6
CONTINUOUS
10
-0.6605590551181102
20
0.8743464566929133
11
-0.6605590551181102
21
0.6743464566929134
0
LINE
8
BLACK
6
CONTINUOUS
10
-0.6605590551181102
20
0.6743464566929134
11
-0.6606157874015748
21
0.6737703937007874
0
LINE
8
BLACK
6
CONTINUOUS
10
-0.6606157874015748
20
0.6737703937007874
11
-0.6610566929133858
21
0.6727059842519685
0
LINE
8
BLACK
6
CONTINUOUS
10
-0.6610566929133858
20
0.6727059842519685
11
-0.6618713385826771
21
0.6718913385826771
0
LINE
8
BLACK
6
CONTINUOUS
10
-0.6618713385826771
20
0.6718913385826771
11
-0.662935748031496
21
0.6714504330708662
0
LINE
8
BLACK
6
CONTINUOUS
10
-0.662935748031496
20
0.6714504330708662
11
-0.663511811023622
21
0.6713937007874016
0
LINE
8
BLACK
6
CONTINUOUS
10
-0.663511811023622
20
0.6713937007874016
11
-0.963511811023622
21
0.6713937007874016
0
LINE
8
BLACK
6
CONTINUOUS
10
-0.963511811023622
20
0.6713937007874016
11
-0.964087874015748
21
0.6714504330708662
0
LINE
8
BLACK
6
CONTINUOUS
10
-0.964087874015748
20
0.6714504330708662
11
-0.9651522834645669
21
0.6718913385826771
0
LINE
8
BLACK
6
CONTINUOUS
10
-0.9651522834645669
20
0.6718913385826771
11
-0.9659669291338583
21
0.6727059842519685
0
LINE
8
BLACK
6
CONTINUOUS
10
-0.9659669291338583
20
0.6727059842519685
11
-0.9664078346456693
21
0.6737703937007874
0
LINE
8
BLACK
6
CONTINUOUS
10
-0.9664078346456693
20
0.6737703937007874
11
-0.9664645669291339
21
0.6743464566929134
0
LINE
8
BLACK
6
CONTINUOUS
10
-0.9664645669291339
20
0.6743464566929134
11
-0.9664645669291339
21
0.8743464566929133
0
LINE
8
BLACK
6
CONTINUOUS
10
-0.9664645669291339
20
0.8743464566929133
11
-0.9664078346456693
21
0.8749225196850393
0
LINE
8
BLACK
6
CONTINUOUS
10
-0.9664078346456693
20
0.8749225196850393
11
-0.9659669291338583
21
0.8759869291338582
0
LINE
8
BLACK
6
CONTINUOUS
10
-0.9659669291338583
20
0.8759869291338582
11
-0.9651522834645669
21
0.8768015748031496
0
LINE
8
BLACK
6
CONTINUOUS
10
-0.9651522834645669
20
0.8768015748031496
11
-0.964087874015748
21
0.8772424803149607
0
LINE
8
BLACK
6
CONTINUOUS
10
-0.964087874015748
20
0.8772424803149607
11
-0.963511811023622
21
0.8772992125984251
0
LINE
8
BLACK
6
CONTINUOUS
10
-0.963511811023622
20
0.8772992125984251
11
-0.663511811023622
21
0.8772992125984251
0
LINE
8
BLACK
6
CONTINUOUS
10
-0.663511811023622
20
0.8772992125984251
11
-0.662935748031496
21
0.8772424803149607
0
LINE
8
BLACK
6
CONTINUOUS
10
-0.9605590551181102
20
0.8713937007874015
11
-0.9605590551181102
21
0.6772992125984252
0
LINE
8
BLACK
6
CONTINUOUS
10
-0.9605590551181102
20
0.6772992125984252
11
-0.6664645669291338
21
0.6772992125984252
0
LINE
8
BLACK
6
CONTINUOUS
10
-0.6664645669291338
20
0.6772992125984252
11
-0.6664645669291338
21
0.8713937007874015
0
LINE
8
BLACK
6
CONTINUOUS
10
-0.6664645669291338
20
0.8713937007874015
11
-0.9605590551181102
21
0.8713937007874015
0
LINE
8
BLACK
6
CONTINUOUS
10
-0.6110609842519685
20
0.7423685433070866
11
-0.6099965748031496
21
0.7419276377952756
0
LINE
8
BLACK
6
CONTINUOUS
10
-0.6099965748031496
20
0.7419276377952756
11
-0.6091819291338583
21
0.7411129921259842
0
LINE
8
BLACK
6
CONTINUOUS
10
-0.6091819291338583
20
0.7411129921259842
11
-0.6087410236220472
21
0.7400485826771653
0
LINE
8
BLACK
6
CONTINUOUS
10
-0.6087410236220472
20
0.7400485826771653
11
-0.6086842913385827
21
0.7394725196850394
0
LINE
8
BLACK
6
CONTINUOUS
10
-0.6086842913385827
20
0.7394725196850394
11
-0.6086842913385827
21
0.7300987007874016
0
LINE
8
BLACK
6
CONTINUOUS
10
-0.6086842913385827
20
0.7300987007874016
11
-0.6087130314960629
21
0.7298071259842519
0
LINE
8
BLACK
6
CONTINUOUS
10
-0.6087130314960629
20
0.7298071259842519
11
-0.6087074803149606
21
0.7297293700787402
0
LINE
8
BLACK
6
CONTINUOUS
10
-0.6087074803149606
20
0.7297293700787402
11
-0.6087307480314961
21
0.7296271259842519
0
LINE
8
BLACK
6
CONTINUOUS
10
-0.6087307480314961
20
0.7296271259842519
11
-0.6087410236220472
21
0.7295226377952756
0
LINE
8
BLACK
6
CONTINUOUS
10
-0.6087410236220472
20
0.7295226377952756
11
-0.608770905511811
21
0.7294505905511811
0
LINE
8
BLACK
6
CONTINUOUS
10
-0.608770905511811
20
0.7294505905511811
11
-0.6088358267716535
21
0.7291649212598426
0
LINE
8
BLACK
6
CONTINUOUS
10
-0.6088358267716535
20
0.7291649212598426
11
-0.610710590551181
21
0.7235406692913385
0
LINE
8
BLACK
6
CONTINUOUS
10
-0.610710590551181
20
0.7235406692913385
11
-0.6109465748031496
21
0.7230120866141733
0
LINE
8
BLACK
6
CONTINUOUS
10
-0.6109465748031496
20
0.7230120866141733
11
-0.611016062992126
21
0.7229320078740157
0
LINE
8
BLACK
6
CONTINUOUS
10
-0.611016062992126
20
0.7229320078740157
11
-0.6110566535433071
21
0.722833937007874
0
LINE
8
BLACK
6
CONTINUOUS
10
-0.6110566535433071
20
0.722833937007874
11
-0.6114238976377953
21
0.7223864960629921
0
LINE
8
BLACK
6
CONTINUOUS
10
-0.6114238976377953
20
0.7223864960629921
11
-0.6151734645669291
21
0.718636968503937
0
LINE
8
BLACK
6
CONTINUOUS
10
-0.6151734645669291
20
0.718636968503937
11
-0.615399842519685
21
0.7184512204724409
0
LINE
8
BLACK
6
CONTINUOUS
10
-0.615399842519685
20
0.7184512204724409
11
-0.6154509842519685
21
0.7183922047244095
0
LINE
8
BLACK
6
CONTINUOUS
10
-0.6154509842519685
20
0.7183922047244095
11
-0.6155399212598425
21
0.7183362598425197
0
LINE
8
BLACK
6
CONTINUOUS
10
-0.6155399212598425
20
0.7183362598425197
11
-0.6156209448818898
21
0.7182697244094488
0
LINE
8
BLACK
6
CONTINUOUS
10
-0.6156209448818898
20
0.7182697244094488
11
-0.6156929921259843
21
0.7182399212598425
0
LINE
8
BLACK
6
CONTINUOUS
10
-0.6156929921259843
20
0.7182399212598425
11
-0.6159408661417323
21
0.7180838582677165
0
LINE
8
BLACK
6
CONTINUOUS
10
-0.6159408661417323
20
0.7180838582677165
11
-0.6196903937007874
21
0.7162090944881889
0
LINE
8
BLACK
6
CONTINUOUS
10
-0.6196903937007874
20
0.7162090944881889
11
-0.6197325196850394
21
0.7161929921259842
0
LINE
8
BLACK
6
CONTINUOUS
10
-0.6197325196850394
20
0.7161929921259842
11
-0.6197496456692914
21
0.7161802755905512
0
LINE
8
BLACK
6
CONTINUOUS
10
-0.6197496456692914
20
0.7161802755905512
11
-0.6199916141732283
21
0.7160938582677165
0
LINE
8
BLACK
6
CONTINUOUS
10
-0.6199916141732283
20
0.7160938582677165
11
-0.6202310236220472
21
0.7160022047244095
0
LINE
8
BLACK
6
CONTINUOUS
10
-0.6202310236220472
20
0.7160022047244095
11
-0.620252283464567
21
0.7160007086614173
0
LINE
8
BLACK
6
CONTINUOUS
10
-0.620252283464567
20
0.7160007086614173
11
-0.6202947637795275
21
0.7159855118110237
0
LINE
8
BLACK
6
CONTINUOUS
10
-0.6202947637795275
20
0.7159855118110237
11
-0.6277938188976377
21
0.7141107480314961
0
LINE
8
BLACK
6
CONTINUOUS
10
-0.6277938188976377
20
0.7141107480314961
11
-0.6278937007874016
21
0.7140959842519685
0
LINE
8
BLACK
6
CONTINUOUS
10
-0.6278937007874016
20
0.7140959842519685
11
-0.6279338976377953
21
0.7140793307086614
0
LINE
8
BLACK
6
CONTINUOUS
10
-0.6279338976377953
20
0.7140793307086614
11
-0.6281509448818897
21
0.7140579921259842
0
LINE
8
BLACK
6
CONTINUOUS
10
-0.6281509448818897
20
0.7140579921259842
11
-0.6283664173228346
21
0.7140261023622048
0
LINE
8
BLACK
6
CONTINUOUS
10
-0.6283664173228346
20
0.7140261023622048
11
-0.6284094488188976
21
0.7140325196850393
0
LINE
8
BLACK
6
CONTINUOUS
10
-0.6284094488188976
20
0.7140325196850393
11
-0.6285099606299213
21
0.7140225984251969
0
LINE
8
BLACK
6
CONTINUOUS
10
-0.6285099606299213
20
0.7140225984251969
11
-0.6341342519685039
21
0.7140225984251969
0
LINE
8
BLACK
6
CONTINUOUS
10
-0.6341342519685039
20
0.7140225984251969
11
-0.6342348031496062
21
0.7140325196850393
0
LINE
8
BLACK
6
CONTINUOUS
10
-0.6342348031496062
20
0.7140325196850393
11
-0.6342777952755906
21
0.7140261023622048
0
LINE
8
BLACK
6
CONTINUOUS
10
-0.6342777952755906
20
0.7140261023622048
11
-0.6344933070866141
21
0.7140579921259842
0
LINE
8
BLACK
6
CONTINUOUS
10
-0.6344933070866141
20
0.7140579921259842
11
-0.6347103149606299
21
0.7140793307086614
0
LINE
8
BLACK
6
CONTINUOUS
10
-0.6347103149606299
20
0.7140793307086614
11
-0.6347505511811024
21
0.7140959842519685
0
LINE
8
BLACK
6
CONTINUOUS
10
-0.6347505511811024
20
0.7140959842519685
11
-0.6348503937007874
21
0.7141107480314961
0
LINE
8
BLACK
6
CONTINUOUS
10
-0.6348503937007874
20
0.7141107480314961
11
-0.6423494488188977
21
0.7159855118110237
0
LINE
8
BLACK
6
CONTINUOUS
10
-0.6423494488188977
20
0.7159855118110237
11
-0.642391968503937
21
0.7160007086614173
0
LINE
8
BLACK
6
CONTINUOUS
10
-0.642391968503937
20
0.7160007086614173
11
-0.6424132283464566
21
0.7160022047244095
0
LINE
8
BLACK
6
CONTINUOUS
10
-0.6424132283464566
20
0.7160022047244095
11
-0.6426529921259843
21
0.7160939763779527
0
LINE
8
BLACK
6
CONTINUOUS
10
-0.6426529921259843
20
0.7160939763779527
11
-0.6428945669291338
21
0.7161802755905512
0
LINE
8
BLACK
6
CONTINUOUS
10
-0.6428945669291338
20
0.7161802755905512
11
-0.6429117322834645
21
0.7161929921259842
0
LINE
8
BLACK
6
CONTINUOUS
10
-0.6429117322834645
20
0.7161929921259842
11
-0.6429538188976378
21
0.7162090944881889
0
LINE
8
BLACK
6
CONTINUOUS
10
-0.6429538188976378
20
0.7162090944881889
11
-0.6467033464566929
21
0.7180838582677165
0
LINE
8
BLACK
6
CONTINUOUS
10
-0.6467033464566929
20
0.7180838582677165
11
-0.6469511811023622
21
0.7182398818897637
0
LINE
8
BLACK
6
CONTINUOUS
10
-0.6469511811023622
20
0.7182398818897637
11
-0.6470233070866142
21
0.7182697244094488
0
LINE
8
BLACK
6
CONTINUOUS
10
-0.6470233070866142
20
0.7182697244094488
11
-0.6471044881889764
21
0.7183363385826772
0
LINE
8
BLACK
6
CONTINUOUS
10
-0.6471044881889764
20
0.7183363385826772
11
-0.6471932283464567
21
0.7183922047244095
0
LINE
8
BLACK
6
CONTINUOUS
10
-0.6471932283464567
20
0.7183922047244095
11
-0.6472443700787401
21
0.7184511417322834
0
LINE
8
BLACK
6
CONTINUOUS
10
-0.6472443700787401
20
0.7184511417322834
11
-0.6474707480314961
21
0.718636968503937
0
LINE
8
BLACK
6
CONTINUOUS
10
-0.6474707480314961
20
0.718636968503937
11
-0.6512202755905512
21
0.7223864960629921
0
LINE
8
BLACK
6
CONTINUOUS
10
-0.6512202755905512
20
0.7223864960629921
11
-0.6515874803149606
21
0.722833937007874
0
LINE
8
BLACK
6
CONTINUOUS
10
-0.6515874803149606
20
0.722833937007874
11
-0.6516281102362205
21
0.7229320078740157
0
LINE
8
BLACK
6
CONTINUOUS
10
-0.6516281102362205
20
0.7229320078740157
11
-0.6516975984251968
21
0.7230121259842519
0
LINE
8
BLACK
6
CONTINUOUS
10
-0.6516975984251968
20
0.7230121259842519
11
-0.6519335826771654
21
0.7235406692913385
0
LINE
8
BLACK
6
CONTINUOUS
10
-0.6519335826771654
20
0.7235406692913385
11
-0.6538083464566929
21
0.7291649606299212
0
LINE
8
BLACK
6
CONTINUOUS
10
-0.6538083464566929
20
0.7291649606299212
11
-0.6538733070866142
21
0.7294505511811024
0
LINE
8
BLACK
6
CONTINUOUS
10
-0.6538733070866142
20
0.7294505511811024
11
-0.6539031496062992
21
0.7295226377952756
0
LINE
8
BLACK
6
CONTINUOUS
10
-0.6539031496062992
20
0.7295226377952756
11
-0.6539134645669291
21
0.7296271653543307
0
LINE
8
BLACK
6
CONTINUOUS
10
-0.6539134645669291
20
0.7296271653543307
11
-0.6539366929133859
21
0.7297294094488189
0
LINE
8
BLACK
6
CONTINUOUS
10
-0.6539366929133859
20
0.7297294094488189
11
-0.6539311811023621
21
0.7298071653543307
0
LINE
8
BLACK
6
CONTINUOUS
10
-0.6539311811023621
20
0.7298071653543307
11
-0.6539598818897637
21
0.7300987007874016
0
LINE
8
BLACK
6
CONTINUOUS
10
-0.6539598818897637
20
0.7300987007874016
11
-0.6539598818897637
21
0.7394725196850394
0
LINE
8
BLACK
6
CONTINUOUS
10
-0.6539598818897637
20
0.7394725196850394
11
-0.6539031496062992
21
0.7400485826771653
0
LINE
8
BLACK
6
CONTINUOUS
10
-0.6539031496062992
20
0.7400485826771653
11
-0.6534622440944882
21
0.7411129921259842
0
LINE
8
BLACK
6
CONTINUOUS
10
-0.6534622440944882
20
0.7411129921259842
11
-0.6526475984251968
21
0.7419276377952756
0
LINE
8
BLACK
6
CONTINUOUS
10
-0.6526475984251968
20
0.7419276377952756
11
-0.6515831889763779
21
0.7423685433070866
0
LINE
8
BLACK
6
CONTINUOUS
10
-0.6515831889763779
20
0.7423685433070866
11
-0.6510071259842519
21
0.7424252755905512
0
LINE
8
BLACK
6
CONTINUOUS
10
-0.6510071259842519
20
0.7424252755905512
11
-0.6116370472440945
21
0.7424252755905512
0
LINE
8
BLACK
6
CONTINUOUS
10
-0.6116370472440945
20
0.7424252755905512
11
-0.6110609842519685
21
0.7423685433070866
0
LINE
8
BLACK
6
CONTINUOUS
10
-0.6480543700787401
20
0.730577874015748
11
-0.6465515748031496
21
0.7260694488188976
0
LINE
8
BLACK
6
CONTINUOUS
10
-0.6465515748031496
20
0.7260694488188976
11
-0.6436337401574803
21
0.7231516141732284
0
LINE
8
BLACK
6
CONTINUOUS
10
-0.6436337401574803
20
0.7231516141732284
11
-0.6406027559055117
21
0.7216361417322834
0
LINE
8
BLACK
6
CONTINUOUS
10
-0.6406027559055117
20
0.7216361417322834
11
-0.6337707086614173
21
0.7199281102362205
0
LINE
8
BLACK
6
CONTINUOUS
10
-0.6337707086614173
20
0.7199281102362205
11
-0.6288735039370078
21
0.7199281102362205
0
LINE
8
BLACK
6
CONTINUOUS
10
-0.6288735039370078
20
0.7199281102362205
11
-0.6220414566929133
21
0.7216361417322834
0
LINE
8
BLACK
6
CONTINUOUS
10
-0.6220414566929133
20
0.7216361417322834
11
-0.6190104724409449
21
0.723151653543307
0
LINE
8
BLACK
6
CONTINUOUS
10
-0.6190104724409449
20
0.723151653543307
11
-0.6160925984251968
21
0.7260694881889763
0
LINE
8
BLACK
6
CONTINUOUS
10
-0.6160925984251968
20
0.7260694881889763
11
-0.6145898031496063
21
0.7305778346456693
0
LINE
8
BLACK
6
CONTINUOUS
10
-0.6145898031496063
20
0.7305778346456693
11
-0.6145898031496063
21
0.7365197637795275
0
LINE
8
BLACK
6
CONTINUOUS
10
-0.6145898031496063
20
0.7365197637795275
11
-0.6480543700787401
21
0.7365197637795275
0
LINE
8
BLACK
6
CONTINUOUS
10
-0.6480543700787401
20
0.7365197637795275
11
-0.6480543700787401
21
0.730577874015748
0
LINE
8
BLACK
6
CONTINUOUS
10
-0.6110609842519685
20
0.7836133858267716
11
-0.6099965748031496
21
0.7831724803149606
0
LINE
8
BLACK
6
CONTINUOUS
10
-0.6099965748031496
20
0.7831724803149606
11
-0.6091819291338583
21
0.7823578346456693
0
LINE
8
BLACK
6
CONTINUOUS
10
-0.6091819291338583
20
0.7823578346456693
11
-0.6087410236220472
21
0.7812934251968504
0
LINE
8
BLACK
6
CONTINUOUS
10
-0.6087410236220472
20
0.7812934251968504
11
-0.6087410236220472
21
0.7801412992125984
0
LINE
8
BLACK
6
CONTINUOUS
10
-0.6087410236220472
20
0.7801412992125984
11
-0.6091819291338583
21
0.7790768897637795
0
LINE
8
BLACK
6
CONTINUOUS
10
-0.6091819291338583
20
0.7790768897637795
11
-0.6099965748031496
21
0.7782622440944882
0
LINE
8
BLACK
6
CONTINUOUS
10
-0.6099965748031496
20
0.7782622440944882
11
-0.6110609842519685
21
0.7778213385826771
0
LINE
8
BLACK
6
CONTINUOUS
10
-0.6110609842519685
20
0.7778213385826771
11
-0.6116370472440945
21
0.7777646062992126
0
LINE
8
BLACK
6
CONTINUOUS
10
-0.6116370472440945
20
0.7777646062992126
11
-0.6398883464566929
21
0.7777646062992126
0
LINE
8
BLACK
6
CONTINUOUS
10
-0.6398883464566929
20
0.7777646062992126
11
-0.6101720472440945
21
0.7607838976377953
0
LINE
8
BLACK
6
CONTINUOUS
10
-0.6101720472440945
20
0.7607838976377953
11
-0.6100506299212598
21
0.7606977165354331
0
LINE
8
BLACK
6
CONTINUOUS
10
-0.6100506299212598
20
0.7606977165354331
11
-0.6099965748031496
21
0.7606753149606299
0
LINE
8
BLACK
6
CONTINUOUS
10
-0.6099965748031496
20
0.7606753149606299
11
-0.6099415748031496
21
0.7606203149606299
0
LINE
8
BLACK
6
CONTINUOUS
10
-0.6099415748031496
20
0.7606203149606299
11
-0.6097000393700788
21
0.7604488582677165
0
LINE
8
BLACK
6
CONTINUOUS
10
-0.6097000393700788
20
0.7604488582677165
11
-0.6094595669291338
21
0.7601383070866141
0
LINE
8
BLACK
6
CONTINUOUS
10
-0.6094595669291338
20
0.7601383070866141
11
-0.6091819291338583
21
0.7598606692913386
0
LINE
8
BLACK
6
CONTINUOUS
10
-0.6091819291338583
20
0.7598606692913386
11
-0.6091098818897638
21
0.7596867322834645
0
LINE
8
BLACK
6
CONTINUOUS
10
-0.6091098818897638
20
0.7596867322834645
11
-0.6089946456692913
21
0.7595379133858268
0
LINE
8
BLACK
6
CONTINUOUS
10
-0.6089946456692913
20
0.7595379133858268
11
-0.6088913385826772
21
0.7591591338582677
0
LINE
8
BLACK
6
CONTINUOUS
10
-0.6088913385826772
20
0.7591591338582677
11
-0.6087410236220472
21
0.7587962598425196
0
LINE
8
BLACK
6
CONTINUOUS
10
-0.6087410236220472
20
0.7587962598425196
11
-0.6087410236220472
21
0.7586080708661417
0
LINE
8
BLACK
6
CONTINUOUS
10
-0.6087410236220472
20
0.7586080708661417
11
-0.6086914960629921
21
0.7584264566929134
0
LINE
8
BLACK
6
CONTINUOUS
10
-0.6086914960629921
20
0.7584264566929134
11
-0.6087410236220472
21
0.7580368503937007
0
LINE
8
BLACK
6
CONTINUOUS
10
-0.6087410236220472
20
0.7580368503937007
11
-0.6087410236220472
21
0.7576441338582677
0
LINE
8
BLACK
6
CONTINUOUS
10
-0.6087410236220472
20
0.7576441338582677
11
-0.6088130708661417
21
0.7574703149606299
0
LINE
8
BLACK
6
CONTINUOUS
10
-0.6088130708661417
20
0.7574703149606299
11
-0.6088367716535433
21
0.7572835433070866
0
LINE
8
BLACK
6
CONTINUOUS
10
-0.6088367716535433
20
0.7572835433070866
11
-0.6090316929133858
21
0.7569424409448818
0
LINE
8
BLACK
6
CONTINUOUS
10
-0.6090316929133858
20
0.7569424409448818
11
-0.6091819291338583
21
0.7565797244094488
0
LINE
8
BLACK
6
CONTINUOUS
10
-0.6091819291338583
20
0.7565797244094488
11
-0.6093149606299213
21
0.7564467322834646
0
LINE
8
BLACK
6
CONTINUOUS
10
-0.6093149606299213
20
0.7564467322834646
11
-0.6094083858267716
21
0.7562831889763779
0
LINE
8
BLACK
6
CONTINUOUS
10
-0.6094083858267716
20
0.7562831889763779
11
-0.6097190157480314
21
0.7560426771653543
0
LINE
8
BLACK
6
CONTINUOUS
10
-0.6097190157480314
20
0.7560426771653543
11
-0.6099965748031496
21
0.7557650787401574
0
LINE
8
BLACK
6
CONTINUOUS
10
-0.6099965748031496
20
0.7557650787401574
11
-0.6101704724409449
21
0.7556930708661417
0
LINE
8
BLACK
6
CONTINUOUS
10
-0.6101704724409449
20
0.7556930708661417
11
-0.6103192913385826
21
0.7555777952755905
0
LINE
8
BLACK
6
CONTINUOUS
10
-0.6103192913385826
20
0.7555777952755905
11
-0.610698188976378
21
0.7554744881889763
0
LINE
8
BLACK
6
CONTINUOUS
10
-0.610698188976378
20
0.7554744881889763
11
-0.6110609842519685
21
0.7553241732283464
0
LINE
8
BLACK
6
CONTINUOUS
10
-0.6110609842519685
20
0.7553241732283464
11
-0.611355590551181
21
0.7552951968503937
0
LINE
8
BLACK
6
CONTINUOUS
10
-0.611355590551181
20
0.7552951968503937
11
-0.6114307874015747
21
0.7552746456692914
0
LINE
8
BLACK
6
CONTINUOUS
10
-0.6114307874015747
20
0.7552746456692914
11
-0.6114888976377952
21
0.7552820472440944
0
LINE
8
BLACK
6
CONTINUOUS
10
-0.6114888976377952
20
0.7552820472440944
11
-0.6116370472440945
21
0.7552674409448819
0
LINE
8
BLACK
6
CONTINUOUS
10
-0.6116370472440945
20
0.7552674409448819
11
-0.6510071259842519
21
0.7552674409448819
0
LINE
8
BLACK
6
CONTINUOUS
10
-0.6510071259842519
20
0.7552674409448819
11
-0.6515831889763779
21
0.7553241732283464
0
LINE
8
BLACK
6
CONTINUOUS
10
-0.6515831889763779
20
0.7553241732283464
11
-0.6526475984251968
21
0.7557650787401574
0
LINE
8
BLACK
6
CONTINUOUS
10
-0.6526475984251968
20
0.7557650787401574
11
-0.6534622440944882
21
0.7565797244094488
0
LINE
8
BLACK
6
CONTINUOUS
10
-0.6534622440944882
20
0.7565797244094488
11
-0.6539031496062992
21
0.7576441338582677
0
LINE
8
BLACK
6
CONTINUOUS
10
-0.6539031496062992
20
0.7576441338582677
11
-0.6539031496062992
21
0.7587962598425196
0
LINE
8
BLACK
6
CONTINUOUS
10
-0.6539031496062992
20
0.7587962598425196
11
-0.6534622440944882
21
0.7598606692913386
0
LINE
8
BLACK
6
CONTINUOUS
10
-0.6534622440944882
20
0.7598606692913386
11
-0.6526475984251968
21
0.7606753149606299
0
LINE
8
BLACK
6
CONTINUOUS
10
-0.6526475984251968
20
0.7606753149606299
11
-0.6515831889763779
21
0.7611162204724409
0
LINE
8
BLACK
6
CONTINUOUS
10
-0.6515831889763779
20
0.7611162204724409
11
-0.6510071259842519
21
0.7611729527559055
0
LINE
8
BLACK
6
CONTINUOUS
10
-0.6510071259842519
20
0.7611729527559055
11
-0.6227558267716535
21
0.7611729527559055
0
LINE
8
BLACK
6
CONTINUOUS
10
-0.6227558267716535
20
0.7611729527559055
11
-0.6524720866141732
21
0.7781536614173228
0
LINE
8
BLACK
6
CONTINUOUS
10
-0.6524720866141732
20
0.7781536614173228
11
-0.6525935039370079
21
0.778239842519685
0
LINE
8
BLACK
6
CONTINUOUS
10
-0.6525935039370079
20
0.778239842519685
11
-0.6526475984251968
21
0.7782622440944882
0
LINE
8
BLACK
6
CONTINUOUS
10
-0.6526475984251968
20
0.7782622440944882
11
-0.6527027165354331
21
0.7783173622047244
0
LINE
8
BLACK
6
CONTINUOUS
10
-0.6527027165354331
20
0.7783173622047244
11
-0.6529441338582677
21
0.7784887007874015
0
LINE
8
BLACK
6
CONTINUOUS
10
-0.6529441338582677
20
0.7784887007874015
11
-0.6531846850393701
21
0.7787993307086614
0
LINE
8
BLACK
6
CONTINUOUS
10
-0.6531846850393701
20
0.7787993307086614
11
-0.6534622440944882
21
0.7790768897637795
0
LINE
8
BLACK
6
CONTINUOUS
10
-0.6534622440944882
20
0.7790768897637795
11
-0.6535342913385827
21
0.7792507874015748
0
LINE
8
BLACK
6
CONTINUOUS
10
-0.6535342913385827
20
0.7792507874015748
11
-0.6536495275590551
21
0.7793996062992126
0
LINE
8
BLACK
6
CONTINUOUS
10
-0.6536495275590551
20
0.7793996062992126
11
-0.653752874015748
21
0.7797785039370079
0
LINE
8
BLACK
6
CONTINUOUS
10
-0.653752874015748
20
0.7797785039370079
11
-0.6539031496062992
21
0.7801412992125984
0
LINE
8
BLACK
6
CONTINUOUS
10
-0.6539031496062992
20
0.7801412992125984
11
-0.6539031496062992
21
0.780329527559055
0
LINE
8
BLACK
6
CONTINUOUS
10
-0.6539031496062992
20
0.780329527559055
11
-0.6539526771653543
21
0.7805111023622047
0
LINE
8
BLACK
6
CONTINUOUS
10
-0.6539526771653543
20
0.7805111023622047
11
-0.6539031496062992
21
0.780900748031496
0
LINE
8
BLACK
6
CONTINUOUS
10
-0.6539031496062992
20
0.780900748031496
11
-0.6539031496062992
21
0.7812934251968504
0
LINE
8
BLACK
6
CONTINUOUS
10
-0.6539031496062992
20
0.7812934251968504
11
-0.6538311417322834
21
0.781467283464567
0
LINE
8
BLACK
6
CONTINUOUS
10
-0.6538311417322834
20
0.781467283464567
11
-0.6538074015748031
21
0.7816540157480315
0
LINE
8
BLACK
6
CONTINUOUS
10
-0.6538074015748031
20
0.7816540157480315
11
-0.6536125196850393
21
0.7819951574803149
0
LINE
8
BLACK
6
CONTINUOUS
10
-0.6536125196850393
20
0.7819951574803149
11
-0.6534622440944882
21
0.7823578346456693
0
LINE
8
BLACK
6
CONTINUOUS
10
-0.6534622440944882
20
0.7823578346456693
11
-0.6533292519685039
21
0.7824908661417322
0
LINE
8
BLACK
6
CONTINUOUS
10
-0.6533292519685039
20
0.7824908661417322
11
-0.6532357874015748
21
0.7826543700787402
0
LINE
8
BLACK
6
CONTINUOUS
10
-0.6532357874015748
20
0.7826543700787402
11
-0.6529251968503937
21
0.7828949212598425
0
LINE
8
BLACK
6
CONTINUOUS
10
-0.6529251968503937
20
0.7828949212598425
11
-0.6526475984251968
21
0.7831724803149606
0
LINE
8
BLACK
6
CONTINUOUS
10
-0.6526475984251968
20
0.7831724803149606
11
-0.6524737401574803
21
0.783244527559055
0
LINE
8
BLACK
6
CONTINUOUS
10
-0.6524737401574803
20
0.783244527559055
11
-0.6523248818897638
21
0.7833597637795275
0
LINE
8
BLACK
6
CONTINUOUS
10
-0.6523248818897638
20
0.7833597637795275
11
-0.6519460236220472
21
0.7834631102362205
0
LINE
8
BLACK
6
CONTINUOUS
10
-0.6519460236220472
20
0.7834631102362205
11
-0.6515831889763779
21
0.7836133858267716
0
LINE
8
BLACK
6
CONTINUOUS
10
-0.6515831889763779
20
0.7836133858267716
11
-0.651288622047244
21
0.7836424015748031
0
LINE
8
BLACK
6
CONTINUOUS
10
-0.651288622047244
20
0.7836424015748031
11
-0.6512133858267717
21
0.7836629133858267
0
LINE
8
BLACK
6
CONTINUOUS
10
-0.6512133858267717
20
0.7836629133858267
11
-0.6511553149606299
21
0.7836555511811023
0
LINE
8
BLACK
6
CONTINUOUS
10
-0.6511553149606299
20
0.7836555511811023
11
-0.6510071259842519
21
0.7836701181102362
0
LINE
8
BLACK
6
CONTINUOUS
10
-0.6510071259842519
20
0.7836701181102362
11
-0.6116370472440945
21
0.7836701181102362
0
LINE
8
BLACK
6
CONTINUOUS
10
-0.6116370472440945
20
0.7836701181102362
11
-0.6110609842519685
21
0.7836133858267716
0
LINE
8
BLACK
6
CONTINUOUS
10
-0.6284094488188976
20
0.8249050787401575
11
-0.6283664173228346
21
0.8249114566929133
0
LINE
8
BLACK
6
CONTINUOUS
10
-0.6283664173228346
20
0.8249114566929133
11
-0.6281509448818897
21
0.8248796062992125
0
LINE
8
BLACK
6
CONTINUOUS
10
-0.6281509448818897
20
0.8248796062992125
11
-0.6279338976377953
21
0.8248582283464567
0
LINE
8
BLACK
6
CONTINUOUS
10
-0.6279338976377953
20
0.8248582283464567
11
-0.6278937007874016
21
0.8248416141732283
0
LINE
8
BLACK
6
CONTINUOUS
10
-0.6278937007874016
20
0.8248416141732283
11
-0.6277938188976377
21
0.824826811023622
0
LINE
8
BLACK
6
CONTINUOUS
10
-0.6277938188976377
20
0.824826811023622
11
-0.6202947637795275
21
0.8229520472440944
0
LINE
8
BLACK
6
CONTINUOUS
10
-0.6202947637795275
20
0.8229520472440944
11
-0.620252283464567
21
0.8229368897637795
0
LINE
8
BLACK
6
CONTINUOUS
10
-0.620252283464567
20
0.8229368897637795
11
-0.6202310236220472
21
0.8229353543307086
0
LINE
8
BLACK
6
CONTINUOUS
10
-0.6202310236220472
20
0.8229353543307086
11
-0.6199916141732283
21
0.8228437401574803
0
LINE
8
BLACK
6
CONTINUOUS
10
-0.6199916141732283
20
0.8228437401574803
11
-0.6197496456692914
21
0.8227572834645669
0
LINE
8
BLACK
6
CONTINUOUS
10
-0.6197496456692914
20
0.8227572834645669
11
-0.6197325196850394
21
0.8227446062992125
0
LINE
8
BLACK
6
CONTINUOUS
10
-0.6197325196850394
20
0.8227446062992125
11
-0.6196903937007874
21
0.8227284645669292
0
LINE
8
BLACK
6
CONTINUOUS
10
-0.6196903937007874
20
0.8227284645669292
11
-0.6159408661417323
21
0.8208537007874016
0
LINE
8
BLACK
6
CONTINUOUS
10
-0.6159408661417323
20
0.8208537007874016
11
-0.6156929921259843
21
0.8206976771653544
0
LINE
8
BLACK
6
CONTINUOUS
10
-0.6156929921259843
20
0.8206976771653544
11
-0.6156209448818898
21
0.8206678346456693
0
LINE
8
BLACK
6
CONTINUOUS
10
-0.6156209448818898
20
0.8206678346456693
11
-0.6155399212598425
21
0.8206013385826771
0
LINE
8
BLACK
6
CONTINUOUS
10
-0.6155399212598425
20
0.8206013385826771
11
-0.6154509842519685
21
0.8205453543307086
0
LINE
8
BLACK
6
CONTINUOUS
10
-0.6154509842519685
20
0.8205453543307086
11
-0.615399842519685
21
0.8204863779527559
0
LINE
8
BLACK
6
CONTINUOUS
10
-0.615399842519685
20
0.8204863779527559
11
-0.6151734645669291
21
0.8203005905511811
0
LINE
8
BLACK
6
CONTINUOUS
10
-0.6151734645669291
20
0.8203005905511811
11
-0.6114238976377953
21
0.816551062992126
0
LINE
8
BLACK
6
CONTINUOUS
10
-0.6114238976377953
20
0.816551062992126
11
-0.6110566535433071
21
0.8161036220472441
0
LINE
8
BLACK
6
CONTINUOUS
10
-0.6110566535433071
20
0.8161036220472441
11
-0.611016062992126
21
0.816005590551181
0
LINE
8
BLACK
6
CONTINUOUS
10
-0.611016062992126
20
0.816005590551181
11
-0.6109465748031496
21
0.8159254724409448
0
LINE
8
BLACK
6
CONTINUOUS
10
-0.6109465748031496
20
0.8159254724409448
11
-0.610710590551181
21
0.8153968897637796
0
LINE
8
BLACK
6
CONTINUOUS
10
-0.610710590551181
20
0.8153968897637796
11
-0.6088358267716535
21
0.8097726377952755
0
LINE
8
BLACK
6
CONTINUOUS
10
-0.6088358267716535
20
0.8097726377952755
11
-0.608770905511811
21
0.8094870078740157
0
LINE
8
BLACK
6
CONTINUOUS
10
-0.608770905511811
20
0.8094870078740157
11
-0.6087410236220472
21
0.8094149212598425
0
LINE
8
BLACK
6
CONTINUOUS
10
-0.6087410236220472
20
0.8094149212598425
11
-0.6087307480314961
21
0.8093104724409449
0
LINE
8
BLACK
6
CONTINUOUS
10
-0.6087307480314961
20
0.8093104724409449
11
-0.6087074803149606
21
0.8092081889763779
0
LINE
8
BLACK
6
CONTINUOUS
10
-0.6087074803149606
20
0.8092081889763779
11
-0.6087130314960629
21
0.8091304724409448
0
LINE
8
BLACK
6
CONTINUOUS
10
-0.6087130314960629
20
0.8091304724409448
11
-0.6086842913385827
21
0.8088388582677165
0
LINE
8
BLACK
6
CONTINUOUS
10
-0.6086842913385827
20
0.8088388582677165
11
-0.6086842913385827
21
0.8050893307086614
0
LINE
8
BLACK
6
CONTINUOUS
10
-0.6086842913385827
20
0.8050893307086614
11
-0.6087130314960629
21
0.8047977559055118
0
LINE
8
BLACK
6
CONTINUOUS
10
-0.6087130314960629
20
0.8047977559055118
11
-0.6087074803149606
21
0.80472
0
LINE
8
BLACK
6
CONTINUOUS
10
-0.6087074803149606
20
0.80472
11
-0.6087307480314961
21
0.8046177559055118
0
LINE
8
BLACK
6
CONTINUOUS
10
-0.6087307480314961
20
0.8046177559055118
11
-0.6087410236220472
21
0.8045132677165354
0
LINE
8
BLACK
6
CONTINUOUS
10
-0.6087410236220472
20
0.8045132677165354
11
-0.608770905511811
21
0.8044412204724409
0
LINE
8
BLACK
6
CONTINUOUS
10
-0.608770905511811
20
0.8044412204724409
11
-0.6088358267716535
21
0.8041555511811024
0
LINE
8
BLACK
6
CONTINUOUS
10
-0.6088358267716535
20
0.8041555511811024
11
-0.610710590551181
21
0.7985312992125984
0
LINE
8
BLACK
6
CONTINUOUS
10
-0.610710590551181
20
0.7985312992125984
11
-0.6109465748031496
21
0.7980027165354331
0
LINE
8
BLACK
6
CONTINUOUS
10
-0.6109465748031496
20
0.7980027165354331
11
-0.6110161417322835
21
0.7979225590551181
0
LINE
8
BLACK
6
CONTINUOUS
10
-0.6110161417322835
20
0.7979225590551181
11
-0.6110566929133858
21
0.7978245669291338
0
LINE
8
BLACK
6
CONTINUOUS
10
-0.6110566929133858
20
0.7978245669291338
11
-0.611423937007874
21
0.7973770866141732
0
LINE
8
BLACK
6
CONTINUOUS
10
-0.611423937007874
20
0.7973770866141732
11
-0.6132987401574803
21
0.7955023228346456
0
LINE
8
BLACK
6
CONTINUOUS
10
-0.6132987401574803
20
0.7955023228346456
11
-0.6137461811023622
21
0.7951351181102362
0
LINE
8
BLACK
6
CONTINUOUS
10
-0.6137461811023622
20
0.7951351181102362
11
-0.6143696850393701
21
0.7948768897637795
0
LINE
8
BLACK
6
CONTINUOUS
10
-0.6143696850393701
20
0.7948768897637795
11
-0.6148105511811024
21
0.794694251968504
0
LINE
8
BLACK
6
CONTINUOUS
10
-0.6148105511811024
20
0.794694251968504
11
-0.6153866141732284
21
0.7946375196850394
0
LINE
8
BLACK
6
CONTINUOUS
10
-0.6153866141732284
20
0.7946375196850394
11
-0.6285099606299213
21
0.7946375196850394
0
LINE
8
BLACK
6
CONTINUOUS
10
-0.6285099606299213
20
0.7946375196850394
11
-0.6290860236220472
21
0.794694251968504
0
LINE
8
BLACK
6
CONTINUOUS
10
-0.6290860236220472
20
0.794694251968504
11
-0.6301504330708662
21
0.7951351574803149
0
LINE
8
BLACK
6
CONTINUOUS
10
-0.6301504330708662
20
0.7951351574803149
11
-0.6309650787401575
21
0.7959498031496063
0
LINE
8
BLACK
6
CONTINUOUS
10
-0.6309650787401575
20
0.7959498031496063
11
-0.6314059842519685
21
0.7970142125984252
0
LINE
8
BLACK
6
CONTINUOUS
10
-0.6314059842519685
20
0.7970142125984252
11
-0.6314059842519685
21
0.797014251968504
0
LINE
8
BLACK
6
CONTINUOUS
10
-0.6314059842519685
20
0.797014251968504
11
-0.6314627165354331
21
0.7975902755905512
0
LINE
8
BLACK
6
CONTINUOUS
10
-0.6314627165354331
20
0.7975902755905512
11
-0.6314627165354331
21
0.8050893307086614
0
LINE
8
BLACK
6
CONTINUOUS
10
-0.6314627165354331
20
0.8050893307086614
11
-0.6314059842519685
21
0.8056653937007874
0
LINE
8
BLACK
6
CONTINUOUS
10
-0.6314059842519685
20
0.8056653937007874
11
-0.6309650787401575
21
0.8067298031496063
0
LINE
8
BLACK
6
CONTINUOUS
10
-0.6309650787401575
20
0.8067298031496063
11
-0.6301504330708662
21
0.8075444488188976
0
LINE
8
BLACK
6
CONTINUOUS
10
-0.6301504330708662
20
0.8075444488188976
11
-0.6290860236220472
21
0.8079853543307086
0
LINE
8
BLACK
6
CONTINUOUS
10
-0.6290860236220472
20
0.8079853543307086
11
-0.6279338976377953
21
0.8079853543307086
0
LINE
8
BLACK
6
CONTINUOUS
10
-0.6279338976377953
20
0.8079853543307086
11
-0.6268694881889764
21
0.8075444488188976
0
LINE
8
BLACK
6
CONTINUOUS
10
-0.6268694881889764
20
0.8075444488188976
11
-0.626054842519685
21
0.8067298031496063
0
LINE
8
BLACK
6
CONTINUOUS
10
-0.626054842519685
20
0.8067298031496063
11
-0.625613937007874
21
0.8056653937007874
0
LINE
8
BLACK
6
CONTINUOUS
10
-0.625613937007874
20
0.8056653937007874
11
-0.6255572047244095
21
0.8050893307086614
0
LINE
8
BLACK
6
CONTINUOUS
10
-0.6255572047244095
20
0.8050893307086614
11
-0.6255572047244095
21
0.800543031496063
0
LINE
8
BLACK
6
CONTINUOUS
10
-0.6255572047244095
20
0.800543031496063
11
-0.6166096850393701
21
0.800543031496063
0
LINE
8
BLACK
6
CONTINUOUS
10
-0.6166096850393701
20
0.800543031496063
11
-0.6160925984251968
21
0.8010601181102363
0
LINE
8
BLACK
6
CONTINUOUS
10
-0.6160925984251968
20
0.8010601181102363
11
-0.6145898031496063
21
0.8055684645669291
0
LINE
8
BLACK
6
CONTINUOUS
10
-0.6145898031496063
20
0.8055684645669291
11
-0.6145898031496063
21
0.8083597244094488
0
LINE
8
BLACK
6
CONTINUOUS
10
-0.6145898031496063
20
0.8083597244094488
11
-0.6160925984251968
21
0.8128681102362204
0
LINE
8
BLACK
6
CONTINUOUS
10
-0.6160925984251968
20
0.8128681102362204
11
-0.6190104724409449
21
0.8157859448818897
0
LINE
8
BLACK
6
CONTINUOUS
10
-0.6190104724409449
20
0.8157859448818897
11
-0.6220414566929133
21
0.8173014566929133
0
LINE
8
BLACK
6
CONTINUOUS
10
-0.6220414566929133
20
0.8173014566929133
11
-0.6288735039370078
21
0.8190094488188976
0
LINE
8
BLACK
6
CONTINUOUS
10
-0.6288735039370078
20
0.8190094488188976
11
-0.6337707086614173
21
0.8190094488188976
0
LINE
8
BLACK
6
CONTINUOUS
10
-0.6337707086614173
20
0.8190094488188976
11
-0.6406027559055117
21
0.8173014566929133
0
LINE
8
BLACK
6
CONTINUOUS
10
-0.6406027559055117
20
0.8173014566929133
11
-0.6436337401574803
21
0.8157859448818897
0
LINE
8
BLACK
6
CONTINUOUS
10
-0.6436337401574803
20
0.8157859448818897
11
-0.6465515748031496
21
0.8128681496062992
0
LINE
8
BLACK
6
CONTINUOUS
10
-0.6465515748031496
20
0.8128681496062992
11
-0.6480543700787401
21
0.8083597244094488
0
LINE
8
BLACK
6
CONTINUOUS
10
-0.6480543700787401
20
0.8083597244094488
11
-0.6480543700787401
21
0.8039116141732283
0
LINE
8
BLACK
6
CONTINUOUS
10
-0.6480543700787401
20
0.8039116141732283
11
-0.6464913385826772
21
0.8007855511811024
0
LINE
8
BLACK
6
CONTINUOUS
10
-0.6464913385826772
20
0.8007855511811024
11
-0.6462844488188976
21
0.8002449606299212
0
LINE
8
BLACK
6
CONTINUOUS
10
-0.6462844488188976
20
0.8002449606299212
11
-0.6462027952755905
21
0.7990957480314961
0
LINE
8
BLACK
6
CONTINUOUS
10
-0.6462027952755905
20
0.7990957480314961
11
-0.6465671259842519
21
0.7980027559055118
0
LINE
8
BLACK
6
CONTINUOUS
10
-0.6465671259842519
20
0.7980027559055118
11
-0.647321968503937
21
0.7971324015748031
0
LINE
8
BLACK
6
CONTINUOUS
10
-0.647321968503937
20
0.7971324015748031
11
-0.6483524803149606
21
0.7966171259842519
0
LINE
8
BLACK
6
CONTINUOUS
10
-0.6483524803149606
20
0.7966171259842519
11
-0.6495016929133858
21
0.7965354724409449
0
LINE
8
BLACK
6
CONTINUOUS
10
-0.6495016929133858
20
0.7965354724409449
11
-0.6505946456692914
21
0.7968998031496063
0
LINE
8
BLACK
6
CONTINUOUS
10
-0.6505946456692914
20
0.7968998031496063
11
-0.6514650393700787
21
0.7976546456692913
0
LINE
8
BLACK
6
CONTINUOUS
10
-0.6514650393700787
20
0.7976546456692913
11
-0.6517733858267717
21
0.7981445275590551
0
LINE
8
BLACK
6
CONTINUOUS
10
-0.6517733858267717
20
0.7981445275590551
11
-0.6536481496062992
21
0.8018940551181102
0
LINE
8
BLACK
6
CONTINUOUS
10
-0.6536481496062992
20
0.8018940551181102
11
-0.6538550393700787
21
0.8024346850393701
0
LINE
8
BLACK
6
CONTINUOUS
10
-0.6538550393700787
20
0.8024346850393701
11
-0.6538625590551181
21
0.8025405118110236
0
LINE
8
BLACK
6
CONTINUOUS
10
-0.6538625590551181
20
0.8025405118110236
11
-0.6539031496062992
21
0.8026385039370079
0
LINE
8
BLACK
6
CONTINUOUS
10
-0.6539031496062992
20
0.8026385039370079
11
-0.6539598818897637
21
0.8032145669291338
0
LINE
8
BLACK
6
CONTINUOUS
10
-0.6539598818897637
20
0.8032145669291338
11
-0.6539598818897637
21
0.8088388582677165
0
LINE
8
BLACK
6
CONTINUOUS
10
-0.6539598818897637
20
0.8088388582677165
11
-0.6539311811023621
21
0.8091304330708661
0
LINE
8
BLACK
6
CONTINUOUS
10
-0.6539311811023621
20
0.8091304330708661
11
-0.6539366929133859
21
0.8092081496062992
0
LINE
8
BLACK
6
CONTINUOUS
10
-0.6539366929133859
20
0.8092081496062992
11
-0.6539134645669291
21
0.8093104330708661
0
LINE
8
BLACK
6
CONTINUOUS
10
-0.6539134645669291
20
0.8093104330708661
11
-0.6539031496062992
21
0.8094149212598425
0
LINE
8
BLACK
6
CONTINUOUS
10
-0.6539031496062992
20
0.8094149212598425
11
-0.6538733070866142
21
0.8094870472440945
0
LINE
8
BLACK
6
CONTINUOUS
10
-0.6538733070866142
20
0.8094870472440945
11
-0.6538083464566929
21
0.8097725984251968
0
LINE
8
BLACK
6
CONTINUOUS
10
-0.6538083464566929
20
0.8097725984251968
11
-0.6519335826771654
21
0.8153968897637796
0
LINE
8
BLACK
6
CONTINUOUS
10
-0.6519335826771654
20
0.8153968897637796
11
-0.6516975984251968
21
0.8159254330708661
0
LINE
8
BLACK
6
CONTINUOUS
10
-0.6516975984251968
20
0.8159254330708661
11
-0.6516281102362205
21
0.816005590551181
0
LINE
8
BLACK
6
CONTINUOUS
10
-0.6516281102362205
20
0.816005590551181
11
-0.6515874803149606
21
0.8161036220472441
0
LINE
8
BLACK
6
CONTINUOUS
10
-0.6515874803149606
20
0.8161036220472441
11
-0.6512202755905512
21
0.816551062992126
0
LINE
8
BLACK
6
CONTINUOUS
10
-0.6512202755905512
20
0.816551062992126
11
-0.6474707480314961
21
0.8203005905511811
0
LINE
8
BLACK
6
CONTINUOUS
10
-0.6474707480314961
20
0.8203005905511811
11
-0.6472443700787401
21
0.8204864566929133
0
LINE
8
BLACK
6
CONTINUOUS
10
-0.6472443700787401
20
0.8204864566929133
11
-0.6471932283464567
21
0.8205453543307086
0
LINE
8
BLACK
6
CONTINUOUS
10
-0.6471932283464567
20
0.8205453543307086
11
-0.6471044881889764
21
0.8206012598425196
0
LINE
8
BLACK
6
CONTINUOUS
10
-0.6471044881889764
20
0.8206012598425196
11
-0.6470233070866142
21
0.8206678346456693
0
LINE
8
BLACK
6
CONTINUOUS
10
-0.6470233070866142
20
0.8206678346456693
11
-0.6469511811023622
21
0.820697716535433
0
LINE
8
BLACK
6
CONTINUOUS
10
-0.6469511811023622
20
0.820697716535433
11
-0.6467033464566929
21
0.8208537007874016
0
LINE
8
BLACK
6
CONTINUOUS
10
-0.6467033464566929
20
0.8208537007874016
11
-0.6429538188976378
21
0.8227284645669292
0
LINE
8
BLACK
6
CONTINUOUS
10
-0.6429538188976378
20
0.8227284645669292
11
-0.6429117322834645
21
0.8227446062992125
0
LINE
8
BLACK
6
CONTINUOUS
10
-0.6429117322834645
20
0.8227446062992125
11
-0.6428945669291338
21
0.8227572834645669
0
LINE
8
BLACK
6
CONTINUOUS
10
-0.6428945669291338
20
0.8227572834645669
11
-0.6426529921259843
21
0.822843622047244
0
LINE
8
BLACK
6
CONTINUOUS
10
-0.6426529921259843
20
0.822843622047244
11
-0.6424132283464566
21
0.8229353543307086
0
LINE
8
BLACK
6
CONTINUOUS
10
-0.6424132283464566
20
0.8229353543307086
11
-0.642391968503937
21
0.8229368897637795
0
LINE
8
BLACK
6
CONTINUOUS
10
-0.642391968503937
20
0.8229368897637795
11
-0.6423494488188977
21
0.8229520472440944
0
LINE
8
BLACK
6
CONTINUOUS
10
-0.6423494488188977
20
0.8229520472440944
11
-0.6348503937007874
21
0.824826811023622
0
LINE
8
BLACK
6
CONTINUOUS
10
-0.6348503937007874
20
0.824826811023622
11
-0.6347505511811024
21
0.8248416141732283
0
LINE
8
BLACK
6
CONTINUOUS
10
-0.6347505511811024
20
0.8248416141732283
11
-0.6347103149606299
21
0.8248582283464567
0
LINE
8
BLACK
6
CONTINUOUS
10
-0.6347103149606299
20
0.8248582283464567
11
-0.6344933070866141
21
0.8248796062992125
0
LINE
8
BLACK
6
CONTINUOUS
10
-0.6344933070866141
20
0.8248796062992125
11
-0.6342777952755906
21
0.8249114566929133
0
LINE
8
BLACK
6
CONTINUOUS
10
-0.6342777952755906
20
0.8249114566929133
11
-0.6342348031496062
21
0.8249050787401575
0
LINE
8
BLACK
6
CONTINUOUS
10
-0.6342348031496062
20
0.8249050787401575
11
-0.6341342519685039
21
0.8249149606299212
0
LINE
8
BLACK
6
CONTINUOUS
10
-0.6341342519685039
20
0.8249149606299212
11
-0.6285099606299213
21
0.8249149606299212
0
LINE
8
BLACK
6
CONTINUOUS
10
-0.6285099606299213
20
0.8249149606299212
11
-0.6284094488188976
21
0.8249050787401575
0
LINE
8
BLACK
6
CONTINUOUS
10
-0.7901948031496063
20
0.9297377952755905
11
-0.7891303937007874
21
0.9292968897637796
0
LINE
8
BLACK
6
CONTINUOUS
10
-0.7891303937007874
20
0.9292968897637796
11
-0.7883157480314961
21
0.9284822440944882
0
LINE
8
BLACK
6
CONTINUOUS
10
-0.7883157480314961
20
0.9284822440944882
11
-0.787874842519685
21
0.9274178346456693
0
LINE
8
BLACK
6
CONTINUOUS
10
-0.787874842519685
20
0.9274178346456693
11
-0.7878181102362205
21
0.9268417716535433
0
LINE
8
BLACK
6
CONTINUOUS
10
-0.7878181102362205
20
0.9268417716535433
11
-0.7878181102362205
21
0.8874716929133858
0
LINE
8
BLACK
6
CONTINUOUS
10
-0.7878181102362205
20
0.8874716929133858
11
-0.787874842519685
21
0.8868956299212598
0
LINE
8
BLACK
6
CONTINUOUS
10
-0.787874842519685
20
0.8868956299212598
11
-0.7883157480314961
21
0.8858312204724409
0
LINE
8
BLACK
6
CONTINUOUS
10
-0.7883157480314961
20
0.8858312204724409
11
-0.7891303937007874
21
0.8850165748031495
0
LINE
8
BLACK
6
CONTINUOUS
10
-0.7891303937007874
20
0.8850165748031495
11
-0.7901948031496063
21
0.8845756692913386
0
LINE
8
BLACK
6
CONTINUOUS
10
-0.7901948031496063
20
0.8845756692913386
11
-0.7907708661417323
21
0.884518937007874
0
LINE
8
BLACK
6
CONTINUOUS
10
-0.7907708661417323
20
0.884518937007874
11
-0.8057689763779528
21
0.884518937007874
0
LINE
8
BLACK
6
CONTINUOUS
10
-0.8057689763779528
20
0.884518937007874
11
-0.8063450393700787
21
0.8845756692913386
0
LINE
8
BLACK
6
CONTINUOUS
10
-0.8063450393700787
20
0.8845756692913386
11
-0.806443031496063
21
0.8846162598425197
0
LINE
8
BLACK
6
CONTINUOUS
10
-0.806443031496063
20
0.8846162598425197
11
-0.8065488976377952
21
0.884623779527559
0
LINE
8
BLACK
6
CONTINUOUS
10
-0.8065488976377952
20
0.884623779527559
11
-0.8070894881889764
21
0.8848306692913386
0
LINE
8
BLACK
6
CONTINUOUS
10
-0.8070894881889764
20
0.8848306692913386
11
-0.8108390157480315
21
0.8867054330708661
0
LINE
8
BLACK
6
CONTINUOUS
10
-0.8108390157480315
20
0.8867054330708661
11
-0.8110870472440944
21
0.8868615354330709
0
LINE
8
BLACK
6
CONTINUOUS
10
-0.8110870472440944
20
0.8868615354330709
11
-0.8111589763779528
21
0.8868913385826771
0
LINE
8
BLACK
6
CONTINUOUS
10
-0.8111589763779528
20
0.8868913385826771
11
-0.8112399606299212
21
0.8869577952755905
0
LINE
8
BLACK
6
CONTINUOUS
10
-0.8112399606299212
20
0.8869577952755905
11
-0.8113288976377953
21
0.887013779527559
0
LINE
8
BLACK
6
CONTINUOUS
10
-0.8113288976377953
20
0.887013779527559
11
-0.8113801181102362
21
0.8870728346456692
0
LINE
8
BLACK
6
CONTINUOUS
10
-0.8113801181102362
20
0.8870728346456692
11
-0.8116064566929133
21
0.8872585826771653
0
LINE
8
BLACK
6
CONTINUOUS
10
-0.8116064566929133
20
0.8872585826771653
11
-0.813481220472441
21
0.8891333858267716
0
LINE
8
BLACK
6
CONTINUOUS
10
-0.813481220472441
20
0.8891333858267716
11
-0.8136669685039369
21
0.8893597244094488
0
LINE
8
BLACK
6
CONTINUOUS
10
-0.8136669685039369
20
0.8893597244094488
11
-0.8137259448818898
21
0.8894108661417323
0
LINE
8
BLACK
6
CONTINUOUS
10
-0.8137259448818898
20
0.8894108661417323
11
-0.8137819291338583
21
0.8894998031496063
0
LINE
8
BLACK
6
CONTINUOUS
10
-0.8137819291338583
20
0.8894998031496063
11
-0.8138484251968504
21
0.8895808267716535
0
LINE
8
BLACK
6
CONTINUOUS
10
-0.8138484251968504
20
0.8895808267716535
11
-0.8138782677165354
21
0.889652874015748
0
LINE
8
BLACK
6
CONTINUOUS
10
-0.8138782677165354
20
0.889652874015748
11
-0.8140342913385826
21
0.889900748031496
0
LINE
8
BLACK
6
CONTINUOUS
10
-0.8140342913385826
20
0.889900748031496
11
-0.8159090551181102
21
0.8936502755905512
0
LINE
8
BLACK
6
CONTINUOUS
10
-0.8159090551181102
20
0.8936502755905512
11
-0.8161159448818898
21
0.894190905511811
0
LINE
8
BLACK
6
CONTINUOUS
10
-0.8161159448818898
20
0.894190905511811
11
-0.8161234645669291
21
0.8942967322834645
0
LINE
8
BLACK
6
CONTINUOUS
10
-0.8161234645669291
20
0.8942967322834645
11
-0.8161640551181102
21
0.8943947244094488
0
LINE
8
BLACK
6
CONTINUOUS
10
-0.8161640551181102
20
0.8943947244094488
11
-0.8162207874015748
21
0.8949707874015748
0
LINE
8
BLACK
6
CONTINUOUS
10
-0.8162207874015748
20
0.8949707874015748
11
-0.8162207874015748
21
0.9005950787401574
0
LINE
8
BLACK
6
CONTINUOUS
10
-0.8162207874015748
20
0.9005950787401574
11
-0.8161640551181102
21
0.9011711417322834
0
LINE
8
BLACK
6
CONTINUOUS
10
-0.8161640551181102
20
0.9011711417322834
11
-0.8161234645669291
21
0.9012691732283464
0
LINE
8
BLACK
6
CONTINUOUS
10
-0.8161234645669291
20
0.9012691732283464
11
-0.8161159448818898
21
0.9013749606299213
0
LINE
8
BLACK
6
CONTINUOUS
10
-0.8161159448818898
20
0.9013749606299213
11
-0.8159090551181102
21
0.9019155905511811
0
LINE
8
BLACK
6
CONTINUOUS
10
-0.8159090551181102
20
0.9019155905511811
11
-0.8140342913385826
21
0.9056651181102362
0
LINE
8
BLACK
6
CONTINUOUS
10
-0.8140342913385826
20
0.9056651181102362
11
-0.8138782283464566
21
0.9059131496062992
0
LINE
8
BLACK
6
CONTINUOUS
10
-0.8138782283464566
20
0.9059131496062992
11
-0.8138483858267717
21
0.9059850787401574
0
LINE
8
BLACK
6
CONTINUOUS
10
-0.8138483858267717
20
0.9059850787401574
11
-0.8137819291338583
21
0.906066062992126
0
LINE
8
BLACK
6
CONTINUOUS
10
-0.8137819291338583
20
0.906066062992126
11
-0.8137259448818898
21
0.9061549999999999
0
LINE
8
BLACK
6
CONTINUOUS
10
-0.8137259448818898
20
0.9061549999999999
11
-0.8136669685039369
21
0.9062061811023622
0
LINE
8
BLACK
6
CONTINUOUS
10
-0.8136669685039369
20
0.9062061811023622
11
-0.8134811811023622
21
0.9064325196850394
0
LINE
8
BLACK
6
CONTINUOUS
10
-0.8134811811023622
20
0.9064325196850394
11
-0.8116064173228347
21
0.9083072834645669
0
LINE
8
BLACK
6
CONTINUOUS
10
-0.8116064173228347
20
0.9083072834645669
11
-0.8111589763779528
21
0.9086744881889763
0
LINE
8
BLACK
6
CONTINUOUS
10
-0.8111589763779528
20
0.9086744881889763
11
-0.8110610236220472
21
0.9087150787401574
0
LINE
8
BLACK
6
CONTINUOUS
10
-0.8110610236220472
20
0.9087150787401574
11
-0.8109808267716535
21
0.9087846062992125
0
LINE
8
BLACK
6
CONTINUOUS
10
-0.8109808267716535
20
0.9087846062992125
11
-0.810741968503937
21
0.9088912992125984
0
LINE
8
BLACK
6
CONTINUOUS
10
-0.810741968503937
20
0.9088912992125984
11
-0.8116064173228347
21
0.9097557480314961
0
LINE
8
BLACK
6
CONTINUOUS
10
-0.8116064173228347
20
0.9097557480314961
11
-0.8117922047244094
21
0.909982125984252
0
LINE
8
BLACK
6
CONTINUOUS
10
-0.8117922047244094
20
0.909982125984252
11
-0.8118511811023622
21
0.9100332677165354
0
LINE
8
BLACK
6
CONTINUOUS
10
-0.8118511811023622
20
0.9100332677165354
11
-0.8119071653543307
21
0.9101222440944882
0
LINE
8
BLACK
6
CONTINUOUS
10
-0.8119071653543307
20
0.9101222440944882
11
-0.8119736220472441
21
0.910203188976378
0
LINE
8
BLACK
6
CONTINUOUS
10
-0.8119736220472441
20
0.910203188976378
11
-0.8120034645669291
21
0.910275157480315
0
LINE
8
BLACK
6
CONTINUOUS
10
-0.8120034645669291
20
0.910275157480315
11
-0.8121595275590551
21
0.9105231496062992
0
LINE
8
BLACK
6
CONTINUOUS
10
-0.8121595275590551
20
0.9105231496062992
11
-0.8140342913385826
21
0.9142726771653543
0
LINE
8
BLACK
6
CONTINUOUS
10
-0.8140342913385826
20
0.9142726771653543
11
-0.8142411811023622
21
0.9148133070866141
0
LINE
8
BLACK
6
CONTINUOUS
10
-0.8142411811023622
20
0.9148133070866141
11
-0.8142487007874015
21
0.9149191338582677
0
LINE
8
BLACK
6
CONTINUOUS
10
-0.8142487007874015
20
0.9149191338582677
11
-0.8142892913385826
21
0.915017125984252
0
LINE
8
BLACK
6
CONTINUOUS
10
-0.8142892913385826
20
0.915017125984252
11
-0.8143460236220472
21
0.915593188976378
0
LINE
8
BLACK
6
CONTINUOUS
10
-0.8143460236220472
20
0.915593188976378
11
-0.8143460236220472
21
0.9193427165354331
0
LINE
8
BLACK
6
CONTINUOUS
10
-0.8143460236220472
20
0.9193427165354331
11
-0.8142892913385826
21
0.9199187795275591
0
LINE
8
BLACK
6
CONTINUOUS
10
-0.8142892913385826
20
0.9199187795275591
11
-0.8142487007874015
21
0.920016811023622
0
LINE
8
BLACK
6
CONTINUOUS
10
-0.8142487007874015
20
0.920016811023622
11
-0.8142411811023622
21
0.9201225984251968
0
LINE
8
BLACK
6
CONTINUOUS
10
-0.8142411811023622
20
0.9201225984251968
11
-0.8140342913385826
21
0.9206632283464566
0
LINE
8
BLACK
6
CONTINUOUS
10
-0.8140342913385826
20
0.9206632283464566
11
-0.8121595275590551
21
0.9244127559055118
0
LINE
8
BLACK
6
CONTINUOUS
10
-0.8121595275590551
20
0.9244127559055118
11
-0.8120034645669291
21
0.9246607874015748
0
LINE
8
BLACK
6
CONTINUOUS
10
-0.8120034645669291
20
0.9246607874015748
11
-0.8119736220472441
21
0.9247327165354331
0
LINE
8
BLACK
6
CONTINUOUS
10
-0.8119736220472441
20
0.9247327165354331
11
-0.8119071653543307
21
0.9248137007874015
0
LINE
8
BLACK
6
CONTINUOUS
10
-0.8119071653543307
20
0.9248137007874015
11
-0.8118511811023622
21
0.9249026377952756
0
LINE
8
BLACK
6
CONTINUOUS
10
-0.8118511811023622
20
0.9249026377952756
11
-0.8117922047244094
21
0.9249538188976377
0
LINE
8
BLACK
6
CONTINUOUS
10
-0.8117922047244094
20
0.9249538188976377
11
-0.8116064173228347
21
0.9251801574803149
0
LINE
8
BLACK
6
CONTINUOUS
10
-0.8116064173228347
20
0.9251801574803149
11
-0.8097316535433071
21
0.9270549212598425
0
LINE
8
BLACK
6
CONTINUOUS
10
-0.8097316535433071
20
0.9270549212598425
11
-0.8095053149606299
21
0.9272407086614173
0
LINE
8
BLACK
6
CONTINUOUS
10
-0.8095053149606299
20
0.9272407086614173
11
-0.8094541338582677
21
0.9272996850393701
0
LINE
8
BLACK
6
CONTINUOUS
10
-0.8094541338582677
20
0.9272996850393701
11
-0.8093651968503937
21
0.9273556692913386
0
LINE
8
BLACK
6
CONTINUOUS
10
-0.8093651968503937
20
0.9273556692913386
11
-0.8092842125984252
21
0.927422125984252
0
LINE
8
BLACK
6
CONTINUOUS
10
-0.8092842125984252
20
0.927422125984252
11
-0.8092122834645669
21
0.927451968503937
0
LINE
8
BLACK
6
CONTINUOUS
10
-0.8092122834645669
20
0.927451968503937
11
-0.808964251968504
21
0.927608031496063
0
LINE
8
BLACK
6
CONTINUOUS
10
-0.808964251968504
20
0.927608031496063
11
-0.8052147244094487
21
0.9294827952755905
0
LINE
8
BLACK
6
CONTINUOUS
10
-0.8052147244094487
20
0.9294827952755905
11
-0.8046741338582677
21
0.9296896850393701
0
LINE
8
BLACK
6
CONTINUOUS
10
-0.8046741338582677
20
0.9296896850393701
11
-0.8045682677165354
21
0.9296972440944882
0
LINE
8
BLACK
6
CONTINUOUS
10
-0.8045682677165354
20
0.9296972440944882
11
-0.8044702755905512
21
0.9297377952755905
0
LINE
8
BLACK
6
CONTINUOUS
10
-0.8044702755905512
20
0.9297377952755905
11
-0.8038942125984252
21
0.9297945275590551
0
LINE
8
BLACK
6
CONTINUOUS
10
-0.8038942125984252
20
0.9297945275590551
11
-0.7907708661417323
21
0.9297945275590551
0
LINE
8
BLACK
6
CONTINUOUS
10
-0.7907708661417323
20
0.9297945275590551
11
-0.7901948031496063
21
0.9297377952755905
0
LINE
8
BLACK
6
CONTINUOUS
10
-0.8079234645669291
20
0.9036385826771653
11
-0.8089665354330708
21
0.9025955118110236
0
LINE
8
BLACK
6
CONTINUOUS
10
-0.8089665354330708
20
0.9025955118110236
11
-0.8103152755905512
21
0.899898031496063
0
LINE
8
BLACK
6
CONTINUOUS
10
-0.8103152755905512
20
0.899898031496063
11
-0.8103152755905512
21
0.8956678346456692
0
LINE
8
BLACK
6
CONTINUOUS
10
-0.8103152755905512
20
0.8956678346456692
11
-0.8089665354330708
21
0.8929703543307086
0
LINE
8
BLACK
6
CONTINUOUS
10
-0.8089665354330708
20
0.8929703543307086
11
-0.8077694094488189
21
0.8917731889763779
0
LINE
8
BLACK
6
CONTINUOUS
10
-0.8077694094488189
20
0.8917731889763779
11
-0.8050719291338583
21
0.8904244488188976
0
LINE
8
BLACK
6
CONTINUOUS
10
-0.8050719291338583
20
0.8904244488188976
11
-0.7937236220472441
21
0.8904244488188976
0
LINE
8
BLACK
6
CONTINUOUS
10
-0.7937236220472441
20
0.8904244488188976
11
-0.7937236220472441
21
0.9051413779527558
0
LINE
8
BLACK
6
CONTINUOUS
10
-0.7937236220472441
20
0.9051413779527558
11
-0.8034150787401575
21
0.9051413779527558
0
LINE
8
BLACK
6
CONTINUOUS
10
-0.8034150787401575
20
0.9051413779527558
11
-0.8079234645669291
21
0.9036385826771653
0
LINE
8
BLACK
6
CONTINUOUS
10
-0.8058946456692914
20
0.9225402755905512
11
-0.8070917716535433
21
0.9213431496062991
0
LINE
8
BLACK
6
CONTINUOUS
10
-0.8070917716535433
20
0.9213431496062991
11
-0.8084405118110236
21
0.9186456692913385
0
LINE
8
BLACK
6
CONTINUOUS
10
-0.8084405118110236
20
0.9186456692913385
11
-0.8084405118110236
21
0.9162902362204725
0
LINE
8
BLACK
6
CONTINUOUS
10
-0.8084405118110236
20
0.9162902362204725
11
-0.8070917716535433
21
0.9135927559055118
0
LINE
8
BLACK
6
CONTINUOUS
10
-0.8070917716535433
20
0.9135927559055118
11
-0.8058946456692914
21
0.9123956299212598
0
LINE
8
BLACK
6
CONTINUOUS
10
-0.8058946456692914
20
0.9123956299212598
11
-0.8031971653543307
21
0.9110468897637795
0
LINE
8
BLACK
6
CONTINUOUS
10
-0.8031971653543307
20
0.9110468897637795
11
-0.7937236220472441
21
0.9110468897637795
0
LINE
8
BLACK
6
CONTINUOUS
10
-0.7937236220472441
20
0.9110468897637795
11
-0.7937236220472441
21
0.9238890157480315
0
LINE
8
BLACK
6
CONTINUOUS
10
-0.7937236220472441
20
0.9238890157480315
11
-0.8031971653543307
21
0.9238890157480315
0
LINE
8
BLACK
6
CONTINUOUS
10
-0.8031971653543307
20
0.9238890157480315
11
-0.8058946456692914
21
0.9225402755905512
0
LINE
8
BLACK
6
CONTINUOUS
10
-0.8434985826771654
20
0.9199230708661417
11
-0.842683937007874
21
0.9191084251968503
0
LINE
8
BLACK
6
CONTINUOUS
10
-0.842683937007874
20
0.9191084251968503
11
-0.8422430314960629
21
0.9180440157480315
0
LINE
8
BLACK
6
CONTINUOUS
10
-0.8422430314960629
20
0.9180440157480315
11
-0.8421862992125984
21
0.9174679527559055
0
LINE
8
BLACK
6
CONTINUOUS
10
-0.8421862992125984
20
0.9174679527559055
11
-0.8421862992125984
21
0.9054225984251968
0
LINE
8
BLACK
6
CONTINUOUS
10
-0.8421862992125984
20
0.9054225984251968
11
-0.8301409448818897
21
0.9054225984251968
0
LINE
8
BLACK
6
CONTINUOUS
10
-0.8301409448818897
20
0.9054225984251968
11
-0.8295648818897637
21
0.9053658661417323
0
LINE
8
BLACK
6
CONTINUOUS
10
-0.8295648818897637
20
0.9053658661417323
11
-0.8285004724409448
21
0.9049249606299212
0
LINE
8
BLACK
6
CONTINUOUS
10
-0.8285004724409448
20
0.9049249606299212
11
-0.8276858267716535
21
0.9041103149606299
0
LINE
8
BLACK
6
CONTINUOUS
10
-0.8276858267716535
20
0.9041103149606299
11
-0.8272449212598425
21
0.903045905511811
0
LINE
8
BLACK
6
CONTINUOUS
10
-0.8272449212598425
20
0.903045905511811
11
-0.8272449212598425
21
0.901893779527559
0
LINE
8
BLACK
6
CONTINUOUS
10
-0.8272449212598425
20
0.901893779527559
11
-0.8276858267716535
21
0.9008293700787401
0
LINE
8
BLACK
6
CONTINUOUS
10
-0.8276858267716535
20
0.9008293700787401
11
-0.8285004724409448
21
0.9000147244094489
0
LINE
8
BLACK
6
CONTINUOUS
10
-0.8285004724409448
20
0.9000147244094489
11
-0.8295648818897637
21
0.8995738188976378
0
LINE
8
BLACK
6
CONTINUOUS
10
-0.8295648818897637
20
0.8995738188976378
11
-0.8301409448818897
21
0.8995170866141732
0
LINE
8
BLACK
6
CONTINUOUS
10
-0.8301409448818897
20
0.8995170866141732
11
-0.8421862992125984
21
0.8995170866141732
0
LINE
8
BLACK
6
CONTINUOUS
10
-0.8421862992125984
20
0.8995170866141732
11
-0.8421862992125984
21
0.8874716929133858
0
LINE
8
BLACK
6
CONTINUOUS
10
-0.8421862992125984
20
0.8874716929133858
11
-0.8422430314960629
21
0.8868956299212598
0
LINE
8
BLACK
6
CONTINUOUS
10
-0.8422430314960629
20
0.8868956299212598
11
-0.842683937007874
21
0.8858312204724409
0
LINE
8
BLACK
6
CONTINUOUS
10
-0.842683937007874
20
0.8858312204724409
11
-0.8434985826771654
21
0.8850165748031495
0
LINE
8
BLACK
6
CONTINUOUS
10
-0.8434985826771654
20
0.8850165748031495
11
-0.8445629921259842
21
0.8845756692913386
0
LINE
8
BLACK
6
CONTINUOUS
10
-0.8445629921259842
20
0.8845756692913386
11
-0.8457151181102363
21
0.8845756692913386
0
LINE
8
BLACK
6
CONTINUOUS
10
-0.8457151181102363
20
0.8845756692913386
11
-0.8467795275590551
21
0.8850165748031495
0
LINE
8
BLACK
6
CONTINUOUS
10
-0.8467795275590551
20
0.8850165748031495
11
-0.8475941732283464
21
0.8858312204724409
0
LINE
8
BLACK
6
CONTINUOUS
10
-0.8475941732283464
20
0.8858312204724409
11
-0.8480350787401575
21
0.8868956299212598
0
LINE
8
BLACK
6
CONTINUOUS
10
-0.8480350787401575
20
0.8868956299212598
11
-0.8480918110236221
21
0.8874716929133858
0
LINE
8
BLACK
6
CONTINUOUS
10
-0.8480918110236221
20
0.8874716929133858
11
-0.8480918110236221
21
0.8995170866141732
0
LINE
8
BLACK
6
CONTINUOUS
10
-0.8480918110236221
20
0.8995170866141732
11
-0.8601371653543307
21
0.8995170866141732
0
LINE
8
BLACK
6
CONTINUOUS
10
-0.8601371653543307
20
0.8995170866141732
11
-0.8607132283464567
21
0.8995738188976378
0
LINE
8
BLACK
6
CONTINUOUS
10
-0.8607132283464567
20
0.8995738188976378
11
-0.8617776377952756
21
0.9000147244094489
0
LINE
8
BLACK
6
CONTINUOUS
10
-0.8617776377952756
20
0.9000147244094489
11
-0.862592283464567
21
0.9008293700787401
0
LINE
8
BLACK
6
CONTINUOUS
10
-0.862592283464567
20
0.9008293700787401
11
-0.8630331889763779
21
0.901893779527559
0
LINE
8
BLACK
6
CONTINUOUS
10
-0.8630331889763779
20
0.901893779527559
11
-0.8630331889763779
21
0.903045905511811
0
LINE
8
BLACK
6
CONTINUOUS
10
-0.8630331889763779
20
0.903045905511811
11
-0.862592283464567
21
0.9041103149606299
0
LINE
8
BLACK
6
CONTINUOUS
10
-0.862592283464567
20
0.9041103149606299
11
-0.8617776377952756
21
0.9049249606299212
0
LINE
8
BLACK
6
CONTINUOUS
10
-0.8617776377952756
20
0.9049249606299212
11
-0.8607132283464567
21
0.9053658661417323
0
LINE
8
BLACK
6
CONTINUOUS
10
-0.8607132283464567
20
0.9053658661417323
11
-0.8601371653543307
21
0.9054225984251968
0
LINE
8
BLACK
6
CONTINUOUS
10
-0.8601371653543307
20
0.9054225984251968
11
-0.8480918110236221
21
0.9054225984251968
0
LINE
8
BLACK
6
CONTINUOUS
10
-0.8480918110236221
20
0.9054225984251968
11
-0.8480918110236221
21
0.9174679527559055
0
LINE
8
BLACK
6
CONTINUOUS
10
-0.8480918110236221
20
0.9174679527559055
11
-0.8480350787401575
21
0.9180440157480315
0
LINE
8
BLACK
6
CONTINUOUS
10
-0.8480350787401575
20
0.9180440157480315
11
-0.8475941732283464
21
0.9191084251968503
0
LINE
8
BLACK
6
CONTINUOUS
10
-0.8475941732283464
20
0.9191084251968503
11
-0.8467795275590551
21
0.9199230708661417
0
LINE
8
BLACK
6
CONTINUOUS
10
-0.8467795275590551
20
0.9199230708661417
11
-0.8457151181102363
21
0.9203639763779528
0
LINE
8
BLACK
6
CONTINUOUS
10
-0.8457151181102363
20
0.9203639763779528
11
-0.8445629921259842
21
0.9203639763779528
0
LINE
8
BLACK
6
CONTINUOUS
10
-0.8445629921259842
20
0.9203639763779528
11
-0.8434985826771654
21
0.9199230708661417
0
LINE
8
BLACK
6
CONTINUOUS
10
-0.7270487795275591
20
2.4452926377952755
11
-0.7257703543307087
21
2.4440142125984252
0
LINE
8
BLACK
6
CONTINUOUS
10
-0.7257703543307087
20
2.4440142125984252
11
-0.7255905511811024
21
2.4431102362204724
0
LINE
8
BLACK
6
CONTINUOUS
10
-0.7255905511811024
20
2.4431102362204724
11
-0.7255905511811024
21
0.9383858267716535
0
LINE
8
BLACK
6
CONTINUOUS
10
-0.7255905511811024
20
0.9383858267716535
11
-0.7257703543307087
21
0.9374818503937008
0
LINE
8
BLACK
6
CONTINUOUS
10
-0.7257703543307087
20
0.9374818503937008
11
-0.7270487795275591
21
0.9362034251968504
0
LINE
8
BLACK
6
CONTINUOUS
10
-0.7270487795275591
20
0.9362034251968504
11
-0.7279527559055118
21
0.9360236220472441
0
LINE
8
BLACK
6
CONTINUOUS
10
-0.7279527559055118
20
0.9360236220472441
11
-0.9326771653543307
21
0.9360236220472441
0
LINE
8
BLACK
6
CONTINUOUS
10
-0.9326771653543307
20
0.9360236220472441
11
-0.9335811417322835
21
0.9362034251968504
0
LINE
8
BLACK
6
CONTINUOUS
10
-0.9335811417322835
20
0.9362034251968504
11
-0.9348595669291339
21
0.9374818503937008
0
LINE
8
BLACK
6
CONTINUOUS
10
-0.9348595669291339
20
0.9374818503937008
11
-0.9350393700787402
21
0.9383858267716535
0
LINE
8
BLACK
6
CONTINUOUS
10
-0.9350393700787402
20
0.9383858267716535
11
-0.9350393700787402
21
2.3407480314960631
0
LINE
8
BLACK
6
CONTINUOUS
10
-0.9350393700787402
20
2.3407480314960631
11
-0.9348595669291339
21
2.3416520078740155
0
LINE
8
BLACK
6
CONTINUOUS
10
-0.9348595669291339
20
2.3416520078740155
11
-0.9335811417322835
21
2.3429304330708662
0
LINE
8
BLACK
6
CONTINUOUS
10
-0.9335811417322835
20
2.3429304330708662
11
-0.9326771653543307
21
2.3431102362204723
0
LINE
8
BLACK
6
CONTINUOUS
10
-0.9326771653543307
20
2.3431102362204723
11
-0.8326771653543307
21
2.3431102362204723
0
LINE
8
BLACK
6
CONTINUOUS
10
-0.8326771653543307
20
2.3431102362204723
11
-0.8326771653543307
21
2.4431102362204724
0
LINE
8
BLACK
6
CONTINUOUS
10
-0.8326771653543307
20
2.4431102362204724
11
-0.8324973622047244
21
2.4440142125984252
0
LINE
8
BLACK
6
CONTINUOUS
10
-0.8324973622047244
20
2.4440142125984252
11
-0.831218937007874
21
2.4452926377952755
0
LINE
8
BLACK
6
CONTINUOUS
10
-0.831218937007874
20
2.4452926377952755
11
-0.8303149606299213
21
2.445472440944882
0
LINE
8
BLACK
6
CONTINUOUS
10
-0.8303149606299213
20
2.445472440944882
11
-0.7279527559055118
21
2.445472440944882
0
LINE
8
BLACK
6
CONTINUOUS
10
-0.7279527559055118
20
2.445472440944882
11
-0.7270487795275591
21
2.4452926377952755
0
LINE
8
BLACK
6
CONTINUOUS
10
-0.8279527559055118
20
2.4407480314960628
11
-0.8279527559055118
21
2.3407480314960631
0
LINE
8
BLACK
6
CONTINUOUS
10
-0.8279527559055118
20
2.3407480314960631
11
-0.8281325590551181
21
2.3398440551181103
0
LINE
8
BLACK
6
CONTINUOUS
10
-0.8281325590551181
20
2.3398440551181103
11
-0.8294109842519685
21
2.3385656299212596
0
LINE
8
BLACK
6
CONTINUOUS
10
-0.8294109842519685
20
2.3385656299212596
11
-0.8303149606299213
21
2.3383858267716535
0
LINE
8
BLACK
6
CONTINUOUS
10
-0.8303149606299213
20
2.3383858267716535
11
-0.9303149606299213
21
2.3383858267716535
0
LINE
8
BLACK
6
CONTINUOUS
10
-0.9303149606299213
20
2.3383858267716535
11
-0.9303149606299213
21
0.940748031496063
0
LINE
8
BLACK
6
CONTINUOUS
10
-0.9303149606299213
20
0.940748031496063
11
-0.7303149606299213
21
0.940748031496063
0
LINE
8
BLACK
6
CONTINUOUS
10
-0.7303149606299213
20
0.940748031496063
11
-0.7303149606299213
21
2.4407480314960628
0
LINE
8
BLACK
6
CONTINUOUS
10
-0.7303149606299213
20
2.4407480314960628
11
-0.8279527559055118
21
2.4407480314960628
0
LINE
8
BLACK
6
CONTINUOUS
10
-0.8794109842519685
20
2.4452926377952755
11
-0.8781325590551181
21
2.4440142125984252
0
LINE
8
BLACK
6
CONTINUOUS
10
-0.8781325590551181
20
2.4440142125984252
11
-0.8781325590551181
21
2.4422062598425196
0
LINE
8
BLACK
6
CONTINUOUS
10
-0.8781325590551181
20
2.4422062598425196
11
-0.8794109842519685
21
2.4409278346456693
0
LINE
8
BLACK
6
CONTINUOUS
10
-0.8794109842519685
20
2.4409278346456693
11
-0.8803149606299212
21
2.4407480314960628
0
LINE
8
BLACK
6
CONTINUOUS
10
-0.8803149606299212
20
2.4407480314960628
11
-0.9303149606299213
21
2.4407480314960628
0
LINE
8
BLACK
6
CONTINUOUS
10
-0.9303149606299213
20
2.4407480314960628
11
-0.9303149606299213
21
2.390748031496063
0
LINE
8
BLACK
6
CONTINUOUS
10
-0.9303149606299213
20
2.390748031496063
11
-0.9304947637795276
21
2.3898440551181102
0
LINE
8
BLACK
6
CONTINUOUS
10
-0.9304947637795276
20
2.3898440551181102
11
-0.931773188976378
21
2.3885656299212599
0
LINE
8
BLACK
6
CONTINUOUS
10
-0.931773188976378
20
2.3885656299212599
11
-0.9335811417322835
21
2.3885656299212599
0
LINE
8
BLACK
6
CONTINUOUS
10
-0.9335811417322835
20
2.3885656299212599
11
-0.9348595669291339
21
2.3898440551181102
0
LINE
8
BLACK
6
CONTINUOUS
10
-0.9348595669291339
20
2.3898440551181102
11
-0.9350393700787402
21
2.390748031496063
0
LINE
8
BLACK
6
CONTINUOUS
10
-0.9350393700787402
20
2.390748031496063
11
-0.9350393700787402
21
2.4431102362204724
0
LINE
8
BLACK
6
CONTINUOUS
10
-0.9350393700787402
20
2.4431102362204724
11
-0.9348595669291339
21
2.4440142125984252
0
LINE
8
BLACK
6
CONTINUOUS
10
-0.9348595669291339
20
2.4440142125984252
11
-0.9335811417322835
21
2.4452926377952755
0
LINE
8
BLACK
6
CONTINUOUS
10
-0.9335811417322835
20
2.4452926377952755
11
-0.9326771653543307
21
2.445472440944882
0
LINE
8
BLACK
6
CONTINUOUS
10
-0.9326771653543307
20
2.445472440944882
11
-0.8803149606299212
21
2.445472440944882
0
LINE
8
BLACK
6
CONTINUOUS
10
-0.8803149606299212
20
2.445472440944882
11
-0.8794109842519685
21
2.4452926377952755
0
LINE
8
BLACK
6
CONTINUOUS
10
-0.8391127559055118
20
2.5241629921259841
11
-0.8390147637795276
21
2.5241224015748029
0
LINE
8
BLACK
6
CONTINUOUS
10
-0.8390147637795276
20
2.5241224015748029
11
-0.8389089370078739
21
2.5241148818897639
0
LINE
8
BLACK
6
CONTINUOUS
10
-0.8389089370078739
20
2.5241148818897639
11
-0.8383683070866141
21
2.5239079921259844
0
LINE
8
BLACK
6
CONTINUOUS
10
-0.8383683070866141
20
2.5239079921259844
11
-0.834618779527559
21
2.5220332283464568
0
LINE
8
BLACK
6
CONTINUOUS
10
-0.834618779527559
20
2.5220332283464568
11
-0.8343707874015748
21
2.5218771653543306
0
LINE
8
BLACK
6
CONTINUOUS
10
-0.8343707874015748
20
2.5218771653543306
11
-0.8342988188976378
21
2.5218473228346454
0
LINE
8
BLACK
6
CONTINUOUS
10
-0.8342988188976378
20
2.5218473228346454
11
-0.834217874015748
21
2.5217808661417322
0
LINE
8
BLACK
6
CONTINUOUS
10
-0.834217874015748
20
2.5217808661417322
11
-0.8341288976377953
21
2.5217248818897637
0
LINE
8
BLACK
6
CONTINUOUS
10
-0.8341288976377953
20
2.5217248818897637
11
-0.8340777559055118
21
2.5216659055118109
0
LINE
8
BLACK
6
CONTINUOUS
10
-0.8340777559055118
20
2.5216659055118109
11
-0.8338513779527559
21
2.5214801181102362
0
LINE
8
BLACK
6
CONTINUOUS
10
-0.8338513779527559
20
2.5214801181102362
11
-0.8319766141732283
21
2.5196053543307086
0
LINE
8
BLACK
6
CONTINUOUS
10
-0.8319766141732283
20
2.5196053543307086
11
-0.8316094094488189
21
2.5191579133858268
0
LINE
8
BLACK
6
CONTINUOUS
10
-0.8316094094488189
20
2.5191579133858268
11
-0.8311685039370078
21
2.518093503937008
0
LINE
8
BLACK
6
CONTINUOUS
10
-0.8311685039370078
20
2.518093503937008
11
-0.8311685039370078
21
2.5169414173228346
0
LINE
8
BLACK
6
CONTINUOUS
10
-0.8311685039370078
20
2.5169414173228346
11
-0.8316094094488189
21
2.5158770078740158
0
LINE
8
BLACK
6
CONTINUOUS
10
-0.8316094094488189
20
2.5158770078740158
11
-0.832424094488189
21
2.5150623228346456
0
LINE
8
BLACK
6
CONTINUOUS
10
-0.832424094488189
20
2.5150623228346456
11
-0.8334885039370079
21
2.5146214173228345
0
LINE
8
BLACK
6
CONTINUOUS
10
-0.8334885039370079
20
2.5146214173228345
11
-0.8346405905511811
21
2.5146214173228345
0
LINE
8
BLACK
6
CONTINUOUS
10
-0.8346405905511811
20
2.5146214173228345
11
-0.835705
21
2.5150623228346456
0
LINE
8
BLACK
6
CONTINUOUS
10
-0.835705
20
2.5150623228346456
11
-0.8361524409448818
21
2.5154295275590552
0
LINE
8
BLACK
6
CONTINUOUS
10
-0.8361524409448818
20
2.5154295275590552
11
-0.8376883858267716
21
2.5169654724409449
0
LINE
8
BLACK
6
CONTINUOUS
10
-0.8376883858267716
20
2.5169654724409449
11
-0.8403858661417323
21
2.5183142125984253
0
LINE
8
BLACK
6
CONTINUOUS
10
-0.8403858661417323
20
2.5183142125984253
11
-0.8483655905511811
21
2.5183142125984253
0
LINE
8
BLACK
6
CONTINUOUS
10
-0.8483655905511811
20
2.5183142125984253
11
-0.8510630708661417
21
2.5169654724409449
0
LINE
8
BLACK
6
CONTINUOUS
10
-0.8510630708661417
20
2.5169654724409449
11
-0.8522601968503937
21
2.5157683464566927
0
LINE
8
BLACK
6
CONTINUOUS
10
-0.8522601968503937
20
2.5157683464566927
11
-0.853608937007874
21
2.513070866141732
0
LINE
8
BLACK
6
CONTINUOUS
10
-0.853608937007874
20
2.513070866141732
11
-0.853608937007874
21
2.5104975590551182
0
LINE
8
BLACK
6
CONTINUOUS
10
-0.853608937007874
20
2.5104975590551182
11
-0.8521061417322835
21
2.5059891338582676
0
LINE
8
BLACK
6
CONTINUOUS
10
-0.8521061417322835
20
2.5059891338582676
11
-0.8301018503937008
21
2.4839848031496063
0
LINE
8
BLACK
6
CONTINUOUS
10
-0.8301018503937008
20
2.4839848031496063
11
-0.8297346062992126
21
2.4835373622047245
0
LINE
8
BLACK
6
CONTINUOUS
10
-0.8297346062992126
20
2.4835373622047245
11
-0.8292937401574803
21
2.4824729133858265
0
LINE
8
BLACK
6
CONTINUOUS
10
-0.8292937401574803
20
2.4824729133858265
11
-0.8292937401574803
21
2.4813208267716536
0
LINE
8
BLACK
6
CONTINUOUS
10
-0.8292937401574803
20
2.4813208267716536
11
-0.8297346456692913
21
2.4802564173228347
0
LINE
8
BLACK
6
CONTINUOUS
10
-0.8297346456692913
20
2.4802564173228347
11
-0.8305492913385827
21
2.4794417322834645
0
LINE
8
BLACK
6
CONTINUOUS
10
-0.8305492913385827
20
2.4794417322834645
11
-0.831301968503937
21
2.4791300000000001
0
LINE
8
BLACK
6
CONTINUOUS
10
-0.831301968503937
20
2.4791300000000001
11
-0.8316137007874016
21
2.4790008661417322
0
LINE
8
BLACK
6
CONTINUOUS
10
-0.8316137007874016
20
2.4790008661417322
11
-0.8321897637795276
21
2.4789441338582678
0
LINE
8
BLACK
6
CONTINUOUS
10
-0.8321897637795276
20
2.4789441338582678
11
-0.8565616929133858
21
2.4789441338582678
0
LINE
8
BLACK
6
CONTINUOUS
10
-0.8565616929133858
20
2.4789441338582678
11
-0.8571377559055118
21
2.4790008661417322
0
LINE
8
BLACK
6
CONTINUOUS
10
-0.8571377559055118
20
2.4790008661417322
11
-0.8582021653543307
21
2.4794417716535433
0
LINE
8
BLACK
6
CONTINUOUS
10
-0.8582021653543307
20
2.4794417716535433
11
-0.859016811023622
21
2.4802564173228347
0
LINE
8
BLACK
6
CONTINUOUS
10
-0.859016811023622
20
2.4802564173228347
11
-0.859457716535433
21
2.4813208267716536
0
LINE
8
BLACK
6
CONTINUOUS
10
-0.859457716535433
20
2.4813208267716536
11
-0.859457716535433
21
2.4824729527559053
0
LINE
8
BLACK
6
CONTINUOUS
10
-0.859457716535433
20
2.4824729527559053
11
-0.859016811023622
21
2.4835373622047245
0
LINE
8
BLACK
6
CONTINUOUS
10
-0.859016811023622
20
2.4835373622047245
11
-0.8582021653543307
21
2.4843520078740156
0
LINE
8
BLACK
6
CONTINUOUS
10
-0.8582021653543307
20
2.4843520078740156
11
-0.8571377559055118
21
2.4847929133858266
0
LINE
8
BLACK
6
CONTINUOUS
10
-0.8571377559055118
20
2.4847929133858266
11
-0.8565616929133858
21
2.4848496456692915
0
LINE
8
BLACK
6
CONTINUOUS
10
-0.8565616929133858
20
2.4848496456692915
11
-0.8393183464566929
21
2.4848496456692915
0
LINE
8
BLACK
6
CONTINUOUS
10
-0.8393183464566929
20
2.4848496456692915
11
-0.8567748425196851
21
2.5023061811023624
0
LINE
8
BLACK
6
CONTINUOUS
10
-0.8567748425196851
20
2.5023061811023624
11
-0.8571420472440945
21
2.5027536220472442
0
LINE
8
BLACK
6
CONTINUOUS
10
-0.8571420472440945
20
2.5027536220472442
11
-0.8571826771653543
21
2.5028516929133859
0
LINE
8
BLACK
6
CONTINUOUS
10
-0.8571826771653543
20
2.5028516929133859
11
-0.8572521653543307
21
2.5029318110236218
0
LINE
8
BLACK
6
CONTINUOUS
10
-0.8572521653543307
20
2.5029318110236218
11
-0.8574881496062992
21
2.5034603543307088
0
LINE
8
BLACK
6
CONTINUOUS
10
-0.8574881496062992
20
2.5034603543307088
11
-0.8593629133858267
21
2.5090846456692915
0
LINE
8
BLACK
6
CONTINUOUS
10
-0.8593629133858267
20
2.5090846456692915
11
-0.8594278740157481
21
2.5093702362204722
0
LINE
8
BLACK
6
CONTINUOUS
10
-0.8594278740157481
20
2.5093702362204722
11
-0.859457716535433
21
2.5094423228346456
0
LINE
8
BLACK
6
CONTINUOUS
10
-0.859457716535433
20
2.5094423228346456
11
-0.859468031496063
21
2.5095468503937006
0
LINE
8
BLACK
6
CONTINUOUS
10
-0.859468031496063
20
2.5095468503937006
11
-0.8594912598425196
21
2.5096490944881888
0
LINE
8
BLACK
6
CONTINUOUS
10
-0.8594912598425196
20
2.5096490944881888
11
-0.859485748031496
21
2.5097268503937009
0
LINE
8
BLACK
6
CONTINUOUS
10
-0.859485748031496
20
2.5097268503937009
11
-0.8595144488188976
21
2.5100183858267715
0
LINE
8
BLACK
6
CONTINUOUS
10
-0.8595144488188976
20
2.5100183858267715
11
-0.8595144488188976
21
2.5137679133858266
0
LINE
8
BLACK
6
CONTINUOUS
10
-0.8595144488188976
20
2.5137679133858266
11
-0.859457716535433
21
2.5143439763779525
0
LINE
8
BLACK
6
CONTINUOUS
10
-0.859457716535433
20
2.5143439763779525
11
-0.8594171259842519
21
2.5144420078740155
0
LINE
8
BLACK
6
CONTINUOUS
10
-0.8594171259842519
20
2.5144420078740155
11
-0.8594096062992126
21
2.5145477952755906
0
LINE
8
BLACK
6
CONTINUOUS
10
-0.8594096062992126
20
2.5145477952755906
11
-0.859202716535433
21
2.5150884251968502
0
LINE
8
BLACK
6
CONTINUOUS
10
-0.859202716535433
20
2.5150884251968502
11
-0.8573279527559055
21
2.5188379527559053
0
LINE
8
BLACK
6
CONTINUOUS
10
-0.8573279527559055
20
2.5188379527559053
11
-0.8571718897637796
21
2.5190859842519684
0
LINE
8
BLACK
6
CONTINUOUS
10
-0.8571718897637796
20
2.5190859842519684
11
-0.8571420472440945
21
2.5191579133858268
0
LINE
8
BLACK
6
CONTINUOUS
10
-0.8571420472440945
20
2.5191579133858268
11
-0.8570755905511811
21
2.5192388976377953
0
LINE
8
BLACK
6
CONTINUOUS
10
-0.8570755905511811
20
2.5192388976377953
11
-0.8570196062992126
21
2.5193278346456691
0
LINE
8
BLACK
6
CONTINUOUS
10
-0.8570196062992126
20
2.5193278346456691
11
-0.8569606299212599
21
2.5193790157480316
0
LINE
8
BLACK
6
CONTINUOUS
10
-0.8569606299212599
20
2.5193790157480316
11
-0.8567748425196851
21
2.5196053543307086
0
LINE
8
BLACK
6
CONTINUOUS
10
-0.8567748425196851
20
2.5196053543307086
11
-0.8549000787401575
21
2.5214801181102362
0
LINE
8
BLACK
6
CONTINUOUS
10
-0.8549000787401575
20
2.5214801181102362
11
-0.8546737401574803
21
2.5216659055118109
0
LINE
8
BLACK
6
CONTINUOUS
10
-0.8546737401574803
20
2.5216659055118109
11
-0.8546225590551181
21
2.5217248818897637
0
LINE
8
BLACK
6
CONTINUOUS
10
-0.8546225590551181
20
2.5217248818897637
11
-0.854533622047244
21
2.5217808661417322
0
LINE
8
BLACK
6
CONTINUOUS
10
-0.854533622047244
20
2.5217808661417322
11
-0.8544526377952756
21
2.5218473228346454
0
LINE
8
BLACK
6
CONTINUOUS
10
-0.8544526377952756
20
2.5218473228346454
11
-0.8543807086614174
21
2.5218771653543306
0
LINE
8
BLACK
6
CONTINUOUS
10
-0.8543807086614174
20
2.5218771653543306
11
-0.8541326771653543
21
2.5220332283464568
0
LINE
8
BLACK
6
CONTINUOUS
10
-0.8541326771653543
20
2.5220332283464568
11
-0.8503831496062992
21
2.5239079921259844
0
LINE
8
BLACK
6
CONTINUOUS
10
-0.8503831496062992
20
2.5239079921259844
11
-0.8498425590551181
21
2.5241148818897639
0
LINE
8
BLACK
6
CONTINUOUS
10
-0.8498425590551181
20
2.5241148818897639
11
-0.8497366929133858
21
2.5241224409448817
0
LINE
8
BLACK
6
CONTINUOUS
10
-0.8497366929133858
20
2.5241224409448817
11
-0.8496387007874016
21
2.5241629921259841
0
LINE
8
BLACK
6
CONTINUOUS
10
-0.8496387007874016
20
2.5241629921259841
11
-0.8490626377952756
21
2.5242197244094489
0
LINE
8
BLACK
6
CONTINUOUS
10
-0.8490626377952756
20
2.5242197244094489
11
-0.8396888188976378
21
2.5242197244094489
0
LINE
8
BLACK
6
CONTINUOUS
10
-0.8396888188976378
20
2.5242197244094489
11
-0.8391127559055118
21
2.5241629921259841
0
LINE
8
BLACK
6
CONTINUOUS
10
-0.8155511417322835
20
2.523722086614173
11
-0.8147364960629921
21
2.522907440944882
0
LINE
8
BLACK
6
CONTINUOUS
10
-0.8147364960629921
20
2.522907440944882
11
-0.8142955905511811
21
2.5218430314960631
0
LINE
8
BLACK
6
CONTINUOUS
10
-0.8142955905511811
20
2.5218430314960631
11
-0.8142388582677165
21
2.5212669685039368
0
LINE
8
BLACK
6
CONTINUOUS
10
-0.8142388582677165
20
2.5212669685039368
11
-0.8142388582677165
21
2.4936246850393702
0
LINE
8
BLACK
6
CONTINUOUS
10
-0.8142388582677165
20
2.4936246850393702
11
-0.812736062992126
21
2.4891162598425196
0
LINE
8
BLACK
6
CONTINUOUS
10
-0.812736062992126
20
2.4891162598425196
11
-0.809972283464567
21
2.4863524409448816
0
LINE
8
BLACK
6
CONTINUOUS
10
-0.809972283464567
20
2.4863524409448816
11
-0.8054638976377952
21
2.4848496456692915
0
LINE
8
BLACK
6
CONTINUOUS
10
-0.8054638976377952
20
2.4848496456692915
11
-0.8021935039370078
21
2.4848496456692915
0
LINE
8
BLACK
6
CONTINUOUS
10
-0.8021935039370078
20
2.4848496456692915
11
-0.8016174409448819
21
2.4847929133858266
0
LINE
8
BLACK
6
CONTINUOUS
10
-0.8016174409448819
20
2.4847929133858266
11
-0.8005530314960629
21
2.4843520078740156
0
LINE
8
BLACK
6
CONTINUOUS
10
-0.8005530314960629
20
2.4843520078740156
11
-0.7997383858267716
21
2.4835373622047245
0
LINE
8
BLACK
6
CONTINUOUS
10
-0.7997383858267716
20
2.4835373622047245
11
-0.7992974803149606
21
2.4824729527559053
0
LINE
8
BLACK
6
CONTINUOUS
10
-0.7992974803149606
20
2.4824729527559053
11
-0.7992974803149606
21
2.4813208267716536
0
LINE
8
BLACK
6
CONTINUOUS
10
-0.7992974803149606
20
2.4813208267716536
11
-0.7997383858267716
21
2.4802564173228347
0
LINE
8
BLACK
6
CONTINUOUS
10
-0.7997383858267716
20
2.4802564173228347
11
-0.8005530314960629
21
2.4794417716535433
0
LINE
8
BLACK
6
CONTINUOUS
10
-0.8005530314960629
20
2.4794417716535433
11
-0.8016174409448819
21
2.4790008661417322
0
LINE
8
BLACK
6
CONTINUOUS
10
-0.8016174409448819
20
2.4790008661417322
11
-0.8021935039370078
21
2.4789441338582678
0
LINE
8
BLACK
6
CONTINUOUS
10
-0.8021935039370078
20
2.4789441338582678
11
-0.8059430314960629
21
2.4789441338582678
0
LINE
8
BLACK
6
CONTINUOUS
10
-0.8059430314960629
20
2.4789441338582678
11
-0.8062346456692914
21
2.478972874015748
0
LINE
8
BLACK
6
CONTINUOUS
10
-0.8062346456692914
20
2.478972874015748
11
-0.8063123622047244
21
2.4789673228346456
0
LINE
8
BLACK
6
CONTINUOUS
10
-0.8063123622047244
20
2.4789673228346456
11
-0.8064146456692913
21
2.4789905905511809
0
LINE
8
BLACK
6
CONTINUOUS
10
-0.8064146456692913
20
2.4789905905511809
11
-0.8065190944881889
21
2.4790008661417322
0
LINE
8
BLACK
6
CONTINUOUS
10
-0.8065190944881889
20
2.4790008661417322
11
-0.8065911811023622
21
2.4790307480314961
0
LINE
8
BLACK
6
CONTINUOUS
10
-0.8065911811023622
20
2.4790307480314961
11
-0.8068768110236221
21
2.4790956692913384
0
LINE
8
BLACK
6
CONTINUOUS
10
-0.8068768110236221
20
2.4790956692913384
11
-0.812501062992126
21
2.480970433070866
0
LINE
8
BLACK
6
CONTINUOUS
10
-0.812501062992126
20
2.480970433070866
11
-0.8130296456692914
21
2.4812064173228348
0
LINE
8
BLACK
6
CONTINUOUS
10
-0.8130296456692914
20
2.4812064173228348
11
-0.8131097637795276
21
2.481275905511811
0
LINE
8
BLACK
6
CONTINUOUS
10
-0.8131097637795276
20
2.481275905511811
11
-0.8132077952755905
21
2.4813164960629921
0
LINE
8
BLACK
6
CONTINUOUS
10
-0.8132077952755905
20
2.4813164960629921
11
-0.8136552362204724
21
2.4816837401574801
0
LINE
8
BLACK
6
CONTINUOUS
10
-0.8136552362204724
20
2.4816837401574801
11
-0.8174047637795275
21
2.4854333070866139
0
LINE
8
BLACK
6
CONTINUOUS
10
-0.8174047637795275
20
2.4854333070866139
11
-0.8177720078740157
21
2.4858807874015749
0
LINE
8
BLACK
6
CONTINUOUS
10
-0.8177720078740157
20
2.4858807874015749
11
-0.8178126377952756
21
2.4859788582677167
0
LINE
8
BLACK
6
CONTINUOUS
10
-0.8178126377952756
20
2.4859788582677167
11
-0.8178820866141732
21
2.4860589370078738
0
LINE
8
BLACK
6
CONTINUOUS
10
-0.8178820866141732
20
2.4860589370078738
11
-0.8181180708661417
21
2.4865874803149604
0
LINE
8
BLACK
6
CONTINUOUS
10
-0.8181180708661417
20
2.4865874803149604
11
-0.8199928346456693
21
2.4922117716535435
0
LINE
8
BLACK
6
CONTINUOUS
10
-0.8199928346456693
20
2.4922117716535435
11
-0.8200577952755905
21
2.4924973622047242
0
LINE
8
BLACK
6
CONTINUOUS
10
-0.8200577952755905
20
2.4924973622047242
11
-0.8200876377952756
21
2.4925694488188976
0
LINE
8
BLACK
6
CONTINUOUS
10
-0.8200876377952756
20
2.4925694488188976
11
-0.8200979527559055
21
2.4926739763779526
0
LINE
8
BLACK
6
CONTINUOUS
10
-0.8200979527559055
20
2.4926739763779526
11
-0.8201211811023622
21
2.4927762204724409
0
LINE
8
BLACK
6
CONTINUOUS
10
-0.8201211811023622
20
2.4927762204724409
11
-0.8201156692913386
21
2.4928539763779529
0
LINE
8
BLACK
6
CONTINUOUS
10
-0.8201156692913386
20
2.4928539763779529
11
-0.8201443700787402
21
2.4931455118110235
0
LINE
8
BLACK
6
CONTINUOUS
10
-0.8201443700787402
20
2.4931455118110235
11
-0.8201443700787402
21
2.5212669685039368
0
LINE
8
BLACK
6
CONTINUOUS
10
-0.8201443700787402
20
2.5212669685039368
11
-0.8200876377952756
21
2.5218430314960631
0
LINE
8
BLACK
6
CONTINUOUS
10
-0.8200876377952756
20
2.5218430314960631
11
-0.8196467322834645
21
2.522907440944882
0
LINE
8
BLACK
6
CONTINUOUS
10
-0.8196467322834645
20
2.522907440944882
11
-0.8188320866141732
21
2.523722086614173
0
LINE
8
BLACK
6
CONTINUOUS
10
-0.8188320866141732
20
2.523722086614173
11
-0.8177676771653544
21
2.5241629921259841
0
LINE
8
BLACK
6
CONTINUOUS
10
-0.8177676771653544
20
2.5241629921259841
11
-0.8166155511811023
21
2.5241629921259841
0
LINE
8
BLACK
6
CONTINUOUS
10
-0.8166155511811023
20
2.5241629921259841
11
-0.8155511417322835
21
2.523722086614173
0
LINE
8
BLACK
6
CONTINUOUS
10
-0.4569936614173228
20
2.7221430314960631
11
-0.4557152362204724
21
2.7208646062992123
0
LINE
8
BLACK
6
CONTINUOUS
10
-0.4557152362204724
20
2.7208646062992123
11
-0.4555354330708661
21
2.71996062992126
0
LINE
8
BLACK
6
CONTINUOUS
10
-0.4555354330708661
20
2.71996062992126
11
-0.4555354330708661
21
2.5467322834645669
0
LINE
8
BLACK
6
CONTINUOUS
10
-0.4555354330708661
20
2.5467322834645669
11
-0.4557152362204724
21
2.5458283070866141
0
LINE
8
BLACK
6
CONTINUOUS
10
-0.4557152362204724
20
2.5458283070866141
11
-0.4569936614173228
21
2.5445498818897638
0
LINE
8
BLACK
6
CONTINUOUS
10
-0.4569936614173228
20
2.5445498818897638
11
-0.4578976377952756
21
2.5443700787401573
0
LINE
8
BLACK
6
CONTINUOUS
10
-0.4578976377952756
20
2.5443700787401573
11
-0.6311259842519685
21
2.5443700787401573
0
LINE
8
BLACK
6
CONTINUOUS
10
-0.6311259842519685
20
2.5443700787401573
11
-0.6320299606299212
21
2.5445498818897638
0
LINE
8
BLACK
6
CONTINUOUS
10
-0.6320299606299212
20
2.5445498818897638
11
-0.6333083858267716
21
2.5458283070866141
0
LINE
8
BLACK
6
CONTINUOUS
10
-0.6333083858267716
20
2.5458283070866141
11
-0.6334881889763779
21
2.5467322834645669
0
LINE
8
BLACK
6
CONTINUOUS
10
-0.6334881889763779
20
2.5467322834645669
11
-0.6334881889763779
21
2.71996062992126
0
LINE
8
BLACK
6
CONTINUOUS
10
-0.6334881889763779
20
2.71996062992126
11
-0.6333083858267716
21
2.7208646062992123
0
LINE
8
BLACK
6
CONTINUOUS
10
-0.6333083858267716
20
2.7208646062992123
11
-0.6320299606299212
21
2.7221430314960631
0
LINE
8
BLACK
6
CONTINUOUS
10
-0.6320299606299212
20
2.7221430314960631
11
-0.6311259842519685
21
2.7223228346456692
0
LINE
8
BLACK
6
CONTINUOUS
10
-0.6311259842519685
20
2.7223228346456692
11
-0.4578976377952756
21
2.7223228346456692
0
LINE
8
BLACK
6
CONTINUOUS
10
-0.4578976377952756
20
2.7223228346456692
11
-0.4569936614173228
21
2.7221430314960631
0
LINE
8
BLACK
6
CONTINUOUS
10
-0.628763779527559
20
2.7175984251968504
11
-0.628763779527559
21
2.5490944881889761
0
LINE
8
BLACK
6
CONTINUOUS
10
-0.628763779527559
20
2.5490944881889761
11
-0.460259842519685
21
2.5490944881889761
0
LINE
8
BLACK
6
CONTINUOUS
10
-0.460259842519685
20
2.5490944881889761
11
-0.460259842519685
21
2.7175984251968504
0
LINE
8
BLACK
6
CONTINUOUS
10
-0.460259842519685
20
2.7175984251968504
11
-0.628763779527559
21
2.7175984251968504
0
LINE
8
BLACK
6
CONTINUOUS
10
-0.0919936614173228
20
2.7221430314960631
11
-0.0907152362204724
21
2.7208646062992123
0
LINE
8
BLACK
6
CONTINUOUS
10
-0.0907152362204724
20
2.7208646062992123
11
-0.0905354330708661
21
2.71996062992126
0
LINE
8
BLACK
6
CONTINUOUS
10
-0.0905354330708661
20
2.71996062992126
11
-0.0905354330708661
21
2.5467322834645669
0
LINE
8
BLACK
6
CONTINUOUS
10
-0.0905354330708661
20
2.5467322834645669
11
-0.0907152362204724
21
2.5458283070866141
0
LINE
8
BLACK
6
CONTINUOUS
10
-0.0907152362204724
20
2.5458283070866141
11
-0.0919936614173228
21
2.5445498818897638
0
LINE
8
BLACK
6
CONTINUOUS
10
-0.0919936614173228
20
2.5445498818897638
11
-0.0928976377952756
21
2.5443700787401573
0
LINE
8
BLACK
6
CONTINUOUS
10
-0.0928976377952756
20
2.5443700787401573
11
-0.2661259842519685
21
2.5443700787401573
0
LINE
8
BLACK
6
CONTINUOUS
10
-0.2661259842519685
20
2.5443700787401573
11
-0.2670299606299212
21
2.5445498818897638
0
LINE
8
BLACK
6
CONTINUOUS
10
-0.2670299606299212
20
2.5445498818897638
11
-0.2683083858267716
21
2.5458283070866141
0
LINE
8
BLACK
6
CONTINUOUS
10
-0.2683083858267716
20
2.5458283070866141
11
-0.2684881889763779
21
2.5467322834645669
0
LINE
8
BLACK
6
CONTINUOUS
10
-0.2684881889763779
20
2.5467322834645669
11
-0.2684881889763779
21
2.71996062992126
0
LINE
8
BLACK
6
CONTINUOUS
10
-0.2684881889763779
20
2.71996062992126
11
-0.2683083858267716
21
2.7208646062992123
0
LINE
8
BLACK
6
CONTINUOUS
10
-0.2683083858267716
20
2.7208646062992123
11
-0.2670299606299212
21
2.7221430314960631
0
LINE
8
BLACK
6
CONTINUOUS
10
-0.2670299606299212
20
2.7221430314960631
11
-0.2661259842519685
21
2.7223228346456692
0
LINE
8
BLACK
6
CONTINUOUS
10
-0.2661259842519685
20
2.7223228346456692
11
-0.0928976377952756
21
2.7223228346456692
0
LINE
8
BLACK
6
CONTINUOUS
10
-0.0928976377952756
20
2.7223228346456692
11
-0.0919936614173228
21
2.7221430314960631
0
LINE
8
BLACK
6
CONTINUOUS
10
-0.263763779527559
20
2.7175984251968504
11
-0.263763779527559
21
2.5490944881889761
0
LINE
8
BLACK
6
CONTINUOUS
10
-0.263763779527559
20
2.5490944881889761
11
-0.095259842519685
21
2.5490944881889761
0
LINE
8
BLACK
6
CONTINUOUS
10
-0.095259842519685
20
2.5490944881889761
11
-0.095259842519685
21
2.7175984251968504
0
LINE
8
BLACK
6
CONTINUOUS
10
-0.095259842519685
20
2.7175984251968504
11
-0.263763779527559
21
2.7175984251968504
0
LINE
8
BLACK
6
CONTINUOUS
10
-0.6679947244094488
20
2.6231724803149605
11
-0.6671800787401575
21
2.6223578346456691
0
LINE
8
BLACK
6
CONTINUOUS
10
-0.6671800787401575
20
2.6223578346456691
11
-0.6667391732283464
21
2.6212934251968503
0
LINE
8
BLACK
6
CONTINUOUS
10
-0.6667391732283464
20
2.6212934251968503
11
-0.6666824409448818
21
2.6207173622047244
0
LINE
8
BLACK
6
CONTINUOUS
10
-0.6666824409448818
20
2.6207173622047244
11
-0.6666824409448818
21
2.6086720078740155
0
LINE
8
BLACK
6
CONTINUOUS
10
-0.6666824409448818
20
2.6086720078740155
11
-0.6546370472440944
21
2.6086720078740155
0
LINE
8
BLACK
6
CONTINUOUS
10
-0.6546370472440944
20
2.6086720078740155
11
-0.6540609842519685
21
2.6086152755905512
0
LINE
8
BLACK
6
CONTINUOUS
10
-0.6540609842519685
20
2.6086152755905512
11
-0.6529965748031495
21
2.6081743700787401
0
LINE
8
BLACK
6
CONTINUOUS
10
-0.6529965748031495
20
2.6081743700787401
11
-0.6521819291338583
21
2.6073597244094486
0
LINE
8
BLACK
6
CONTINUOUS
10
-0.6521819291338583
20
2.6073597244094486
11
-0.6517410236220472
21
2.6062953149606298
0
LINE
8
BLACK
6
CONTINUOUS
10
-0.6517410236220472
20
2.6062953149606298
11
-0.6517410236220472
21
2.6051431889763781
0
LINE
8
BLACK
6
CONTINUOUS
10
-0.6517410236220472
20
2.6051431889763781
11
-0.6521819291338583
21
2.6040787795275588
0
LINE
8
BLACK
6
CONTINUOUS
10
-0.6521819291338583
20
2.6040787795275588
11
-0.6529965748031495
21
2.6032641338582678
0
LINE
8
BLACK
6
CONTINUOUS
10
-0.6529965748031495
20
2.6032641338582678
11
-0.6540609842519685
21
2.6028232283464567
0
LINE
8
BLACK
6
CONTINUOUS
10
-0.6540609842519685
20
2.6028232283464567
11
-0.6546370472440944
21
2.6027664960629919
0
LINE
8
BLACK
6
CONTINUOUS
10
-0.6546370472440944
20
2.6027664960629919
11
-0.6666824409448818
21
2.6027664960629919
0
LINE
8
BLACK
6
CONTINUOUS
10
-0.6666824409448818
20
2.6027664960629919
11
-0.6666824409448818
21
2.5907211023622048
0
LINE
8
BLACK
6
CONTINUOUS
10
-0.6666824409448818
20
2.5907211023622048
11
-0.6667391732283464
21
2.5901450393700789
0
LINE
8
BLACK
6
CONTINUOUS
10
-0.6667391732283464
20
2.5901450393700789
11
-0.6671800787401575
21
2.5890806299212596
0
LINE
8
BLACK
6
CONTINUOUS
10
-0.6671800787401575
20
2.5890806299212596
11
-0.6679947244094488
21
2.5882659842519686
0
LINE
8
BLACK
6
CONTINUOUS
10
-0.6679947244094488
20
2.5882659842519686
11
-0.6690591338582677
21
2.5878250787401575
0
LINE
8
BLACK
6
CONTINUOUS
10
-0.6690591338582677
20
2.5878250787401575
11
-0.6702112598425197
21
2.5878250787401575
0
LINE
8
BLACK
6
CONTINUOUS
10
-0.6702112598425197
20
2.5878250787401575
11
-0.6712756692913385
21
2.5882659842519686
0
LINE
8
BLACK
6
CONTINUOUS
10
-0.6712756692913385
20
2.5882659842519686
11
-0.6720903149606299
21
2.5890806299212596
0
LINE
8
BLACK
6
CONTINUOUS
10
-0.6720903149606299
20
2.5890806299212596
11
-0.672531220472441
21
2.5901450393700789
0
LINE
8
BLACK
6
CONTINUOUS
10
-0.672531220472441
20
2.5901450393700789
11
-0.6725879527559055
21
2.5907211023622048
0
LINE
8
BLACK
6
CONTINUOUS
10
-0.6725879527559055
20
2.5907211023622048
11
-0.6725879527559055
21
2.6027664960629919
0
LINE
8
BLACK
6
CONTINUOUS
10
-0.6725879527559055
20
2.6027664960629919
11
-0.6846333070866142
21
2.6027664960629919
0
LINE
8
BLACK
6
CONTINUOUS
10
-0.6846333070866142
20
2.6027664960629919
11
-0.6852093700787402
21
2.6028232283464567
0
LINE
8
BLACK
6
CONTINUOUS
10
-0.6852093700787402
20
2.6028232283464567
11
-0.6862737795275591
21
2.6032641338582678
0
LINE
8
BLACK
6
CONTINUOUS
10
-0.6862737795275591
20
2.6032641338582678
11
-0.6870884251968504
21
2.6040787795275588
0
LINE
8
BLACK
6
CONTINUOUS
10
-0.6870884251968504
20
2.6040787795275588
11
-0.6875293307086614
21
2.6051431889763781
0
LINE
8
BLACK
6
CONTINUOUS
10
-0.6875293307086614
20
2.6051431889763781
11
-0.6875293307086614
21
2.6062953149606298
0
LINE
8
BLACK
6
CONTINUOUS
10
-0.6875293307086614
20
2.6062953149606298
11
-0.6870884251968504
21
2.6073597244094486
0
LINE
8
BLACK
6
CONTINUOUS
10
-0.6870884251968504
20
2.6073597244094486
11
-0.6862737795275591
21
2.6081743700787401
0
LINE
8
BLACK
6
CONTINUOUS
10
-0.6862737795275591
20
2.6081743700787401
11
-0.6852093700787402
21
2.6086152755905512
0
LINE
8
BLACK
6
CONTINUOUS
10
-0.6852093700787402
20
2.6086152755905512
11
-0.6846333070866142
21
2.6086720078740155
0
LINE
8
BLACK
6
CONTINUOUS
10
-0.6846333070866142
20
2.6086720078740155
11
-0.6725879527559055
21
2.6086720078740155
0
LINE
8
BLACK
6
CONTINUOUS
10
-0.6725879527559055
20
2.6086720078740155
11
-0.6725879527559055
21
2.6207173622047244
0
LINE
8
BLACK
6
CONTINUOUS
10
-0.6725879527559055
20
2.6207173622047244
11
-0.672531220472441
21
2.6212934251968503
0
LINE
8
BLACK
6
CONTINUOUS
10
-0.672531220472441
20
2.6212934251968503
11
-0.6720903149606299
21
2.6223578346456691
0
LINE
8
BLACK
6
CONTINUOUS
10
-0.6720903149606299
20
2.6223578346456691
11
-0.6712756692913385
21
2.6231724803149605
0
LINE
8
BLACK
6
CONTINUOUS
10
-0.6712756692913385
20
2.6231724803149605
11
-0.6702112598425197
21
2.6236133858267716
0
LINE
8
BLACK
6
CONTINUOUS
10
-0.6702112598425197
20
2.6236133858267716
11
-0.6690591338582677
21
2.6236133858267716
0
LINE
8
BLACK
6
CONTINUOUS
10
-0.6690591338582677
20
2.6236133858267716
11
-0.6679947244094488
21
2.6231724803149605
0
LINE
8
BLACK
6
CONTINUOUS
10
-0.6540609842519685
20
2.662983464566929
11
-0.6529965748031495
21
2.6625425590551179
0
LINE
8
BLACK
6
CONTINUOUS
10
-0.6529965748031495
20
2.6625425590551179
11
-0.6521819291338583
21
2.6617279133858269
0
LINE
8
BLACK
6
CONTINUOUS
10
-0.6521819291338583
20
2.6617279133858269
11
-0.6517410236220472
21
2.6606635039370077
0
LINE
8
BLACK
6
CONTINUOUS
10
-0.6517410236220472
20
2.6606635039370077
11
-0.6516842913385826
21
2.6600874409448818
0
LINE
8
BLACK
6
CONTINUOUS
10
-0.6516842913385826
20
2.6600874409448818
11
-0.6516842913385826
21
2.6450893307086614
0
LINE
8
BLACK
6
CONTINUOUS
10
-0.6516842913385826
20
2.6450893307086614
11
-0.6517410236220472
21
2.6445132677165355
0
LINE
8
BLACK
6
CONTINUOUS
10
-0.6517410236220472
20
2.6445132677165355
11
-0.6517816141732283
21
2.64441531496063
0
LINE
8
BLACK
6
CONTINUOUS
10
-0.6517816141732283
20
2.64441531496063
11
-0.6517891338582678
21
2.6443094094488186
0
LINE
8
BLACK
6
CONTINUOUS
10
-0.6517891338582678
20
2.6443094094488186
11
-0.6519960236220472
21
2.6437688188976378
0
LINE
8
BLACK
6
CONTINUOUS
10
-0.6519960236220472
20
2.6437688188976378
11
-0.6538707874015748
21
2.6400192913385827
0
LINE
8
BLACK
6
CONTINUOUS
10
-0.6538707874015748
20
2.6400192913385827
11
-0.6540268897637795
21
2.6397712992125983
0
LINE
8
BLACK
6
CONTINUOUS
10
-0.6540268897637795
20
2.6397712992125983
11
-0.6540566929133859
21
2.6396993307086611
0
LINE
8
BLACK
6
CONTINUOUS
10
-0.6540566929133859
20
2.6396993307086611
11
-0.6541231496062992
21
2.6396183858267714
0
LINE
8
BLACK
6
CONTINUOUS
10
-0.6541231496062992
20
2.6396183858267714
11
-0.6541791338582676
21
2.6395294094488189
0
LINE
8
BLACK
6
CONTINUOUS
10
-0.6541791338582676
20
2.6395294094488189
11
-0.654238188976378
21
2.6394782283464568
0
LINE
8
BLACK
6
CONTINUOUS
10
-0.654238188976378
20
2.6394782283464568
11
-0.654423937007874
21
2.6392518503937006
0
LINE
8
BLACK
6
CONTINUOUS
10
-0.654423937007874
20
2.6392518503937006
11
-0.6562987401574804
21
2.637377086614173
0
LINE
8
BLACK
6
CONTINUOUS
10
-0.6562987401574804
20
2.637377086614173
11
-0.6565250787401574
21
2.6371913779527558
0
LINE
8
BLACK
6
CONTINUOUS
10
-0.6565250787401574
20
2.6371913779527558
11
-0.6565762204724409
21
2.6371323622047242
0
LINE
8
BLACK
6
CONTINUOUS
10
-0.6565762204724409
20
2.6371323622047242
11
-0.656665157480315
21
2.6370764173228345
0
LINE
8
BLACK
6
CONTINUOUS
10
-0.656665157480315
20
2.6370764173228345
11
-0.6567461811023622
21
2.6370098818897638
0
LINE
8
BLACK
6
CONTINUOUS
10
-0.6567461811023622
20
2.6370098818897638
11
-0.6568182283464566
21
2.6369800787401574
0
LINE
8
BLACK
6
CONTINUOUS
10
-0.6568182283464566
20
2.6369800787401574
11
-0.6570661023622048
21
2.6368240157480316
0
LINE
8
BLACK
6
CONTINUOUS
10
-0.6570661023622048
20
2.6368240157480316
11
-0.6608156299212599
21
2.634949251968504
0
LINE
8
BLACK
6
CONTINUOUS
10
-0.6608156299212599
20
2.634949251968504
11
-0.6613562598425197
21
2.6347423622047241
0
LINE
8
BLACK
6
CONTINUOUS
10
-0.6613562598425197
20
2.6347423622047241
11
-0.6614620866141732
21
2.6347348818897638
0
LINE
8
BLACK
6
CONTINUOUS
10
-0.6614620866141732
20
2.6347348818897638
11
-0.6615600787401574
21
2.6346942519685039
0
LINE
8
BLACK
6
CONTINUOUS
10
-0.6615600787401574
20
2.6346942519685039
11
-0.6621361417322834
21
2.6346375196850391
0
LINE
8
BLACK
6
CONTINUOUS
10
-0.6621361417322834
20
2.6346375196850391
11
-0.6677604330708661
21
2.6346375196850391
0
LINE
8
BLACK
6
CONTINUOUS
10
-0.6677604330708661
20
2.6346375196850391
11
-0.6683364960629921
21
2.6346942519685039
0
LINE
8
BLACK
6
CONTINUOUS
10
-0.6683364960629921
20
2.6346942519685039
11
-0.6684344881889763
21
2.634734842519685
0
LINE
8
BLACK
6
CONTINUOUS
10
-0.6684344881889763
20
2.634734842519685
11
-0.6685403543307087
21
2.6347423622047241
0
LINE
8
BLACK
6
CONTINUOUS
10
-0.6685403543307087
20
2.6347423622047241
11
-0.6690809448818897
21
2.634949251968504
0
LINE
8
BLACK
6
CONTINUOUS
10
-0.6690809448818897
20
2.634949251968504
11
-0.6728304724409448
21
2.6368240157480316
0
LINE
8
BLACK
6
CONTINUOUS
10
-0.6728304724409448
20
2.6368240157480316
11
-0.6730785039370079
21
2.6369801181102361
0
LINE
8
BLACK
6
CONTINUOUS
10
-0.6730785039370079
20
2.6369801181102361
11
-0.6731504330708661
21
2.6370099212598426
0
LINE
8
BLACK
6
CONTINUOUS
10
-0.6731504330708661
20
2.6370099212598426
11
-0.6732314173228346
21
2.6370764173228345
0
LINE
8
BLACK
6
CONTINUOUS
10
-0.6732314173228346
20
2.6370764173228345
11
-0.6733203543307087
21
2.6371323622047242
0
LINE
8
BLACK
6
CONTINUOUS
10
-0.6733203543307087
20
2.6371323622047242
11
-0.6733715354330708
21
2.6371913779527558
0
LINE
8
BLACK
6
CONTINUOUS
10
-0.6733715354330708
20
2.6371913779527558
11
-0.673597874015748
21
2.6373771259842518
0
LINE
8
BLACK
6
CONTINUOUS
10
-0.673597874015748
20
2.6373771259842518
11
-0.6754726377952756
21
2.6392518897637793
0
LINE
8
BLACK
6
CONTINUOUS
10
-0.6754726377952756
20
2.6392518897637793
11
-0.675839842519685
21
2.6396993307086611
0
LINE
8
BLACK
6
CONTINUOUS
10
-0.675839842519685
20
2.6396993307086611
11
-0.6758804724409448
21
2.6397974015748029
0
LINE
8
BLACK
6
CONTINUOUS
10
-0.6758804724409448
20
2.6397974015748029
11
-0.6759499606299213
21
2.6398775196850393
0
LINE
8
BLACK
6
CONTINUOUS
10
-0.6759499606299213
20
2.6398775196850393
11
-0.6760566141732284
21
2.6401164173228344
0
LINE
8
BLACK
6
CONTINUOUS
10
-0.6760566141732284
20
2.6401164173228344
11
-0.6769211023622047
21
2.6392518897637793
0
LINE
8
BLACK
6
CONTINUOUS
10
-0.6769211023622047
20
2.6392518897637793
11
-0.6771474803149606
21
2.6390661417322834
0
LINE
8
BLACK
6
CONTINUOUS
10
-0.6771474803149606
20
2.6390661417322834
11
-0.6771986220472441
21
2.6390071259842518
0
LINE
8
BLACK
6
CONTINUOUS
10
-0.6771986220472441
20
2.6390071259842518
11
-0.6772875984251968
21
2.638951181102362
0
LINE
8
BLACK
6
CONTINUOUS
10
-0.6772875984251968
20
2.638951181102362
11
-0.6773685433070866
21
2.6388846850393701
0
LINE
8
BLACK
6
CONTINUOUS
10
-0.6773685433070866
20
2.6388846850393701
11
-0.6774405118110236
21
2.6388548818897637
0
LINE
8
BLACK
6
CONTINUOUS
10
-0.6774405118110236
20
2.6388548818897637
11
-0.6776885039370079
21
2.6386987795275592
0
LINE
8
BLACK
6
CONTINUOUS
10
-0.6776885039370079
20
2.6386987795275592
11
-0.681438031496063
21
2.6368240157480316
0
LINE
8
BLACK
6
CONTINUOUS
10
-0.681438031496063
20
2.6368240157480316
11
-0.6819786614173228
21
2.6366171259842521
0
LINE
8
BLACK
6
CONTINUOUS
10
-0.6819786614173228
20
2.6366171259842521
11
-0.6820844881889764
21
2.6366096456692913
0
LINE
8
BLACK
6
CONTINUOUS
10
-0.6820844881889764
20
2.6366096456692913
11
-0.6821824803149606
21
2.6365690157480315
0
LINE
8
BLACK
6
CONTINUOUS
10
-0.6821824803149606
20
2.6365690157480315
11
-0.6827585433070866
21
2.6365122834645667
0
LINE
8
BLACK
6
CONTINUOUS
10
-0.6827585433070866
20
2.6365122834645667
11
-0.6865080708661417
21
2.6365122834645667
0
LINE
8
BLACK
6
CONTINUOUS
10
-0.6865080708661417
20
2.6365122834645667
11
-0.6870841338582677
21
2.6365690157480315
0
LINE
8
BLACK
6
CONTINUOUS
10
-0.6870841338582677
20
2.6365690157480315
11
-0.687182125984252
21
2.6366096062992126
0
LINE
8
BLACK
6
CONTINUOUS
10
-0.687182125984252
20
2.6366096062992126
11
-0.6872879921259842
21
2.6366171259842521
0
LINE
8
BLACK
6
CONTINUOUS
10
-0.6872879921259842
20
2.6366171259842521
11
-0.6878285826771653
21
2.6368240157480316
0
LINE
8
BLACK
6
CONTINUOUS
10
-0.6878285826771653
20
2.6368240157480316
11
-0.6915781102362205
21
2.6386987795275592
0
LINE
8
BLACK
6
CONTINUOUS
10
-0.6915781102362205
20
2.6386987795275592
11
-0.6918261417322834
21
2.6388548818897637
0
LINE
8
BLACK
6
CONTINUOUS
10
-0.6918261417322834
20
2.6388548818897637
11
-0.6918980708661417
21
2.6388846850393701
0
LINE
8
BLACK
6
CONTINUOUS
10
-0.6918980708661417
20
2.6388846850393701
11
-0.6919790551181102
21
2.638951181102362
0
LINE
8
BLACK
6
CONTINUOUS
10
-0.6919790551181102
20
2.638951181102362
11
-0.6920679921259842
21
2.6390071259842518
0
LINE
8
BLACK
6
CONTINUOUS
10
-0.6920679921259842
20
2.6390071259842518
11
-0.6921191732283465
21
2.6390661417322834
0
LINE
8
BLACK
6
CONTINUOUS
10
-0.6921191732283465
20
2.6390661417322834
11
-0.6923455118110237
21
2.6392518897637793
0
LINE
8
BLACK
6
CONTINUOUS
10
-0.6923455118110237
20
2.6392518897637793
11
-0.6942202755905512
21
2.6411266535433069
0
LINE
8
BLACK
6
CONTINUOUS
10
-0.6942202755905512
20
2.6411266535433069
11
-0.6944060629921259
21
2.6413530314960632
0
LINE
8
BLACK
6
CONTINUOUS
10
-0.6944060629921259
20
2.6413530314960632
11
-0.6944650393700788
21
2.6414041732283464
0
LINE
8
BLACK
6
CONTINUOUS
10
-0.6944650393700788
20
2.6414041732283464
11
-0.6945210236220473
21
2.641493149606299
0
LINE
8
BLACK
6
CONTINUOUS
10
-0.6945210236220473
20
2.641493149606299
11
-0.6945874803149606
21
2.6415740944881887
0
LINE
8
BLACK
6
CONTINUOUS
10
-0.6945874803149606
20
2.6415740944881887
11
-0.6946173228346456
21
2.6416460629921259
0
LINE
8
BLACK
6
CONTINUOUS
10
-0.6946173228346456
20
2.6416460629921259
11
-0.6947733858267716
21
2.6418940551181103
0
LINE
8
BLACK
6
CONTINUOUS
10
-0.6947733858267716
20
2.6418940551181103
11
-0.6966481496062992
21
2.6456435826771654
0
LINE
8
BLACK
6
CONTINUOUS
10
-0.6966481496062992
20
2.6456435826771654
11
-0.6968550393700788
21
2.646184212598425
0
LINE
8
BLACK
6
CONTINUOUS
10
-0.6968550393700788
20
2.646184212598425
11
-0.6968625590551181
21
2.6462900393700788
0
LINE
8
BLACK
6
CONTINUOUS
10
-0.6968625590551181
20
2.6462900393700788
11
-0.6969031496062992
21
2.6463880314960631
0
LINE
8
BLACK
6
CONTINUOUS
10
-0.6969031496062992
20
2.6463880314960631
11
-0.6969598818897638
21
2.6469640944881889
0
LINE
8
BLACK
6
CONTINUOUS
10
-0.6969598818897638
20
2.6469640944881889
11
-0.6969598818897638
21
2.6600874409448818
0
LINE
8
BLACK
6
CONTINUOUS
10
-0.6969598818897638
20
2.6600874409448818
11
-0.6969031496062992
21
2.6606635039370077
0
LINE
8
BLACK
6
CONTINUOUS
10
-0.6969031496062992
20
2.6606635039370077
11
-0.6964622440944882
21
2.6617279133858269
0
LINE
8
BLACK
6
CONTINUOUS
10
-0.6964622440944882
20
2.6617279133858269
11
-0.6956475984251969
21
2.6625425590551179
0
LINE
8
BLACK
6
CONTINUOUS
10
-0.6956475984251969
20
2.6625425590551179
11
-0.6945831889763779
21
2.662983464566929
0
LINE
8
BLACK
6
CONTINUOUS
10
-0.6945831889763779
20
2.662983464566929
11
-0.694007125984252
21
2.6630401968503938
0
LINE
8
BLACK
6
CONTINUOUS
10
-0.694007125984252
20
2.6630401968503938
11
-0.6546370472440944
21
2.6630401968503938
0
LINE
8
BLACK
6
CONTINUOUS
10
-0.6546370472440944
20
2.6630401968503938
11
-0.6540609842519685
21
2.662983464566929
0
LINE
8
BLACK
6
CONTINUOUS
10
-0.6723067322834646
20
2.6474432677165352
11
-0.670803937007874
21
2.642934842519685
0
LINE
8
BLACK
6
CONTINUOUS
10
-0.670803937007874
20
2.642934842519685
11
-0.6697608661417322
21
2.6418917716535431
0
LINE
8
BLACK
6
CONTINUOUS
10
-0.6697608661417322
20
2.6418917716535431
11
-0.6670633858267716
21
2.6405430314960627
0
LINE
8
BLACK
6
CONTINUOUS
10
-0.6670633858267716
20
2.6405430314960627
11
-0.6628331889763779
21
2.6405430314960627
0
LINE
8
BLACK
6
CONTINUOUS
10
-0.6628331889763779
20
2.6405430314960627
11
-0.6601357086614174
21
2.6418918110236218
0
LINE
8
BLACK
6
CONTINUOUS
10
-0.6601357086614174
20
2.6418918110236218
11
-0.6589385433070866
21
2.6430889370078741
0
LINE
8
BLACK
6
CONTINUOUS
10
-0.6589385433070866
20
2.6430889370078741
11
-0.6575898031496062
21
2.645786377952756
0
LINE
8
BLACK
6
CONTINUOUS
10
-0.6575898031496062
20
2.645786377952756
11
-0.6575898031496062
21
2.6571346850393702
0
LINE
8
BLACK
6
CONTINUOUS
10
-0.6575898031496062
20
2.6571346850393702
11
-0.6723067322834646
21
2.6571346850393702
0
LINE
8
BLACK
6
CONTINUOUS
10
-0.6723067322834646
20
2.6571346850393702
11
-0.6723067322834646
21
2.6474432677165352
0
LINE
8
BLACK
6
CONTINUOUS
10
-0.6910543700787402
20
2.6476611417322835
11
-0.6897056299212598
21
2.6449636614173229
0
LINE
8
BLACK
6
CONTINUOUS
10
-0.6897056299212598
20
2.6449636614173229
11
-0.6885085039370079
21
2.6437665354330706
0
LINE
8
BLACK
6
CONTINUOUS
10
-0.6885085039370079
20
2.6437665354330706
11
-0.6858110236220473
21
2.6424177952755903
0
LINE
8
BLACK
6
CONTINUOUS
10
-0.6858110236220473
20
2.6424177952755903
11
-0.6834555905511811
21
2.6424177952755903
0
LINE
8
BLACK
6
CONTINUOUS
10
-0.6834555905511811
20
2.6424177952755903
11
-0.6807581102362205
21
2.6437665354330706
0
LINE
8
BLACK
6
CONTINUOUS
10
-0.6807581102362205
20
2.6437665354330706
11
-0.6795609842519685
21
2.6449636614173229
0
LINE
8
BLACK
6
CONTINUOUS
10
-0.6795609842519685
20
2.6449636614173229
11
-0.6782122440944882
21
2.6476611417322835
0
LINE
8
BLACK
6
CONTINUOUS
10
-0.6782122440944882
20
2.6476611417322835
11
-0.6782122440944882
21
2.6571346850393702
0
LINE
8
BLACK
6
CONTINUOUS
10
-0.6782122440944882
20
2.6571346850393702
11
-0.6910543700787402
21
2.6571346850393702
0
LINE
8
BLACK
6
CONTINUOUS
10
-0.6910543700787402
20
2.6571346850393702
11
-0.6910543700787402
21
2.6476611417322835
0
LINE
8
BLACK
6
CONTINUOUS
10
-0.5409082283464567
20
2.7817062992125985
11
-0.540618937007874
21
2.7817062992125985
0
LINE
8
BLACK
6
CONTINUOUS
10
-0.540618937007874
20
2.7817062992125985
11
-0.5403488582677165
21
2.7815944488188977
0
LINE
8
BLACK
6
CONTINUOUS
10
-0.5403488582677165
20
2.7815944488188977
11
-0.5400622047244095
21
2.7815370866141733
0
LINE
8
BLACK
6
CONTINUOUS
10
-0.5400622047244095
20
2.7815370866141733
11
-0.5398218503937008
21
2.7813761417322835
0
LINE
8
BLACK
6
CONTINUOUS
10
-0.5398218503937008
20
2.7813761417322835
11
-0.5395545275590551
21
2.7812653937007874
0
LINE
8
BLACK
6
CONTINUOUS
10
-0.5395545275590551
20
2.7812653937007874
11
-0.5393478346456693
21
2.7810587007874017
0
LINE
8
BLACK
6
CONTINUOUS
10
-0.5393478346456693
20
2.7810587007874017
11
-0.5391049212598426
21
2.7808960236220472
0
LINE
8
BLACK
6
CONTINUOUS
10
-0.5391049212598426
20
2.7808960236220472
11
-0.5387419291338582
21
2.7804527952755906
0
LINE
8
BLACK
6
CONTINUOUS
10
-0.5387419291338582
20
2.7804527952755906
11
-0.5387398818897637
21
2.7804507480314959
0
LINE
8
BLACK
6
CONTINUOUS
10
-0.5387398818897637
20
2.7804507480314959
11
-0.5387395275590551
21
2.7804498818897638
0
LINE
8
BLACK
6
CONTINUOUS
10
-0.5387395275590551
20
2.7804498818897638
11
-0.5387381496062992
21
2.7804481889763779
0
LINE
8
BLACK
6
CONTINUOUS
10
-0.5387381496062992
20
2.7804481889763779
11
-0.5351508267716535
21
2.7750671653543306
0
LINE
8
BLACK
6
CONTINUOUS
10
-0.5351508267716535
20
2.7750671653543306
11
-0.5319468503937008
21
2.7718631889763778
0
LINE
8
BLACK
6
CONTINUOUS
10
-0.5319468503937008
20
2.7718631889763778
11
-0.528625905511811
21
2.770202716535433
0
LINE
8
BLACK
6
CONTINUOUS
10
-0.528625905511811
20
2.770202716535433
11
-0.5281360236220473
21
2.76989437007874
0
LINE
8
BLACK
6
CONTINUOUS
10
-0.5281360236220473
20
2.76989437007874
11
-0.5273811811023622
21
2.7690239763779525
0
LINE
8
BLACK
6
CONTINUOUS
10
-0.5273811811023622
20
2.7690239763779525
11
-0.5270168503937008
21
2.7679310236220473
0
LINE
8
BLACK
6
CONTINUOUS
10
-0.5270168503937008
20
2.7679310236220473
11
-0.5270985039370079
21
2.766781811023622
0
LINE
8
BLACK
6
CONTINUOUS
10
-0.5270985039370079
20
2.766781811023622
11
-0.5276137795275591
21
2.7657512992125985
0
LINE
8
BLACK
6
CONTINUOUS
10
-0.5276137795275591
20
2.7657512992125985
11
-0.5284841338582678
21
2.7649964566929133
0
LINE
8
BLACK
6
CONTINUOUS
10
-0.5284841338582678
20
2.7649964566929133
11
-0.529577125984252
21
2.7646321259842521
0
LINE
8
BLACK
6
CONTINUOUS
10
-0.529577125984252
20
2.7646321259842521
11
-0.5307263385826771
21
2.7647137795275589
0
LINE
8
BLACK
6
CONTINUOUS
10
-0.5307263385826771
20
2.7647137795275589
11
-0.5312669291338582
21
2.7649206692913384
0
LINE
8
BLACK
6
CONTINUOUS
10
-0.5312669291338582
20
2.7649206692913384
11
-0.5350164566929134
21
2.766795433070866
0
LINE
8
BLACK
6
CONTINUOUS
10
-0.5350164566929134
20
2.766795433070866
11
-0.5352642913385827
21
2.7669514566929134
0
LINE
8
BLACK
6
CONTINUOUS
10
-0.5352642913385827
20
2.7669514566929134
11
-0.5353364173228347
21
2.7669812992125982
0
LINE
8
BLACK
6
CONTINUOUS
10
-0.5353364173228347
20
2.7669812992125982
11
-0.5354175984251969
21
2.7670479133858268
0
LINE
8
BLACK
6
CONTINUOUS
10
-0.5354175984251969
20
2.7670479133858268
11
-0.5355063385826772
21
2.767103779527559
0
LINE
8
BLACK
6
CONTINUOUS
10
-0.5355063385826772
20
2.767103779527559
11
-0.5355574803149606
21
2.7671627165354331
0
LINE
8
BLACK
6
CONTINUOUS
10
-0.5355574803149606
20
2.7671627165354331
11
-0.5357838582677166
21
2.7673485433070866
0
LINE
8
BLACK
6
CONTINUOUS
10
-0.5357838582677166
20
2.7673485433070866
11
-0.5382422440944882
21
2.7698069291338583
0
LINE
8
BLACK
6
CONTINUOUS
10
-0.5382422440944882
20
2.7698069291338583
11
-0.5382422440944882
21
2.7423929527559054
0
LINE
8
BLACK
6
CONTINUOUS
10
-0.5382422440944882
20
2.7423929527559054
11
-0.5299464173228347
21
2.7423929527559054
0
LINE
8
BLACK
6
CONTINUOUS
10
-0.5299464173228347
20
2.7423929527559054
11
-0.5293703543307087
21
2.7423362204724411
0
LINE
8
BLACK
6
CONTINUOUS
10
-0.5293703543307087
20
2.7423362204724411
11
-0.5283059448818898
21
2.74189531496063
0
LINE
8
BLACK
6
CONTINUOUS
10
-0.5283059448818898
20
2.74189531496063
11
-0.5274912992125984
21
2.7410806692913385
0
LINE
8
BLACK
6
CONTINUOUS
10
-0.5274912992125984
20
2.7410806692913385
11
-0.5270503937007874
21
2.7400162598425197
0
LINE
8
BLACK
6
CONTINUOUS
10
-0.5270503937007874
20
2.7400162598425197
11
-0.5270503937007874
21
2.7388641338582675
0
LINE
8
BLACK
6
CONTINUOUS
10
-0.5270503937007874
20
2.7388641338582675
11
-0.5274912992125984
21
2.7377997244094487
0
LINE
8
BLACK
6
CONTINUOUS
10
-0.5274912992125984
20
2.7377997244094487
11
-0.5283059448818898
21
2.7369850787401573
0
LINE
8
BLACK
6
CONTINUOUS
10
-0.5283059448818898
20
2.7369850787401573
11
-0.5293703543307087
21
2.7365441732283462
0
LINE
8
BLACK
6
CONTINUOUS
10
-0.5293703543307087
20
2.7365441732283462
11
-0.5299464173228347
21
2.7364874409448818
0
LINE
8
BLACK
6
CONTINUOUS
10
-0.5299464173228347
20
2.7364874409448818
11
-0.5524435826771653
21
2.7364874409448818
0
LINE
8
BLACK
6
CONTINUOUS
10
-0.5524435826771653
20
2.7364874409448818
11
-0.5530196456692913
21
2.7365441732283462
0
LINE
8
BLACK
6
CONTINUOUS
10
-0.5530196456692913
20
2.7365441732283462
11
-0.5540840551181102
21
2.7369850787401573
0
LINE
8
BLACK
6
CONTINUOUS
10
-0.5540840551181102
20
2.7369850787401573
11
-0.5548987007874016
21
2.7377997244094487
0
LINE
8
BLACK
6
CONTINUOUS
10
-0.5548987007874016
20
2.7377997244094487
11
-0.5553396062992126
21
2.7388641338582675
0
LINE
8
BLACK
6
CONTINUOUS
10
-0.5553396062992126
20
2.7388641338582675
11
-0.5553396062992126
21
2.7400162598425197
0
LINE
8
BLACK
6
CONTINUOUS
10
-0.5553396062992126
20
2.7400162598425197
11
-0.5548987007874016
21
2.7410806692913385
0
LINE
8
BLACK
6
CONTINUOUS
10
-0.5548987007874016
20
2.7410806692913385
11
-0.5540840551181102
21
2.74189531496063
0
LINE
8
BLACK
6
CONTINUOUS
10
-0.5540840551181102
20
2.74189531496063
11
-0.5530196456692913
21
2.7423362204724411
0
LINE
8
BLACK
6
CONTINUOUS
10
-0.5530196456692913
20
2.7423362204724411
11
-0.5524435826771653
21
2.7423929527559054
0
LINE
8
BLACK
6
CONTINUOUS
10
-0.5524435826771653
20
2.7423929527559054
11
-0.5441477559055118
21
2.7423929527559054
0
LINE
8
BLACK
6
CONTINUOUS
10
-0.5441477559055118
20
2.7423929527559054
11
-0.5441477559055118
21
2.7788102755905513
0
LINE
8
BLACK
6
CONTINUOUS
10
-0.5441477559055118
20
2.7788102755905513
11
-0.5441475590551181
21
2.7788123622047243
0
LINE
8
BLACK
6
CONTINUOUS
10
-0.5441475590551181
20
2.7788123622047243
11
-0.5441477559055118
21
2.7788133858267714
0
LINE
8
BLACK
6
CONTINUOUS
10
-0.5441477559055118
20
2.7788133858267714
11
-0.5441471653543307
21
2.7788164173228345
0
LINE
8
BLACK
6
CONTINUOUS
10
-0.5441471653543307
20
2.7788164173228345
11
-0.5440910236220472
21
2.7793863385826771
0
LINE
8
BLACK
6
CONTINUOUS
10
-0.5440910236220472
20
2.7793863385826771
11
-0.5439791732283464
21
2.7796564566929134
0
LINE
8
BLACK
6
CONTINUOUS
10
-0.5439791732283464
20
2.7796564566929134
11
-0.543921811023622
21
2.7799430708661417
0
LINE
8
BLACK
6
CONTINUOUS
10
-0.543921811023622
20
2.7799430708661417
11
-0.5437608661417322
21
2.780183464566929
0
LINE
8
BLACK
6
CONTINUOUS
10
-0.5437608661417322
20
2.780183464566929
11
-0.5436501181102362
21
2.7804507480314959
0
LINE
8
BLACK
6
CONTINUOUS
10
-0.5436501181102362
20
2.7804507480314959
11
-0.5434434251968504
21
2.7806574803149604
0
LINE
8
BLACK
6
CONTINUOUS
10
-0.5434434251968504
20
2.7806574803149604
11
-0.5432807480314961
21
2.7809003543307087
0
LINE
8
BLACK
6
CONTINUOUS
10
-0.5432807480314961
20
2.7809003543307087
11
-0.5430400393700787
21
2.7810608661417322
0
LINE
8
BLACK
6
CONTINUOUS
10
-0.5430400393700787
20
2.7810608661417322
11
-0.5428354724409449
21
2.7812653937007874
0
LINE
8
BLACK
6
CONTINUOUS
10
-0.5428354724409449
20
2.7812653937007874
11
-0.5425653937007874
21
2.7813772834645669
0
LINE
8
BLACK
6
CONTINUOUS
10
-0.5425653937007874
20
2.7813772834645669
11
-0.542322125984252
21
2.7815394488188976
0
LINE
8
BLACK
6
CONTINUOUS
10
-0.542322125984252
20
2.7815394488188976
11
-0.5420383464566929
21
2.7815955905511811
0
LINE
8
BLACK
6
CONTINUOUS
10
-0.5420383464566929
20
2.7815955905511811
11
-0.541771062992126
21
2.7817062992125985
0
LINE
8
BLACK
6
CONTINUOUS
10
-0.541771062992126
20
2.7817062992125985
11
-0.5414786614173228
21
2.7817062992125985
0
LINE
8
BLACK
6
CONTINUOUS
10
-0.5414786614173228
20
2.7817062992125985
11
-0.5411918897637795
21
2.7817630314960629
0
LINE
8
BLACK
6
CONTINUOUS
10
-0.5411918897637795
20
2.7817630314960629
11
-0.5409082283464567
21
2.7817062992125985
0
LINE
8
BLACK
6
CONTINUOUS
10
-0.4918750393700787
20
2.7817062992125985
11
-0.4908106299212598
21
2.7812653937007874
0
LINE
8
BLACK
6
CONTINUOUS
10
-0.4908106299212598
20
2.7812653937007874
11
-0.4899959842519685
21
2.7804507480314959
0
LINE
8
BLACK
6
CONTINUOUS
10
-0.4899959842519685
20
2.7804507480314959
11
-0.4895550787401575
21
2.7793863385826771
0
LINE
8
BLACK
6
CONTINUOUS
10
-0.4895550787401575
20
2.7793863385826771
11
-0.4894983464566929
21
2.7788102755905513
0
LINE
8
BLACK
6
CONTINUOUS
10
-0.4894983464566929
20
2.7788102755905513
11
-0.4894983464566929
21
2.7394401968503939
0
LINE
8
BLACK
6
CONTINUOUS
10
-0.4894983464566929
20
2.7394401968503939
11
-0.4895550787401575
21
2.7388641338582675
0
LINE
8
BLACK
6
CONTINUOUS
10
-0.4895550787401575
20
2.7388641338582675
11
-0.4899959842519685
21
2.7377997244094487
0
LINE
8
BLACK
6
CONTINUOUS
10
-0.4899959842519685
20
2.7377997244094487
11
-0.4908106299212598
21
2.7369850787401573
0
LINE
8
BLACK
6
CONTINUOUS
10
-0.4908106299212598
20
2.7369850787401573
11
-0.4918750393700787
21
2.7365441732283462
0
LINE
8
BLACK
6
CONTINUOUS
10
-0.4918750393700787
20
2.7365441732283462
11
-0.4930271653543307
21
2.7365441732283462
0
LINE
8
BLACK
6
CONTINUOUS
10
-0.4930271653543307
20
2.7365441732283462
11
-0.4940915748031496
21
2.7369850787401573
0
LINE
8
BLACK
6
CONTINUOUS
10
-0.4940915748031496
20
2.7369850787401573
11
-0.4949062204724409
21
2.7377997244094487
0
LINE
8
BLACK
6
CONTINUOUS
10
-0.4949062204724409
20
2.7377997244094487
11
-0.495347125984252
21
2.7388641338582675
0
LINE
8
BLACK
6
CONTINUOUS
10
-0.495347125984252
20
2.7388641338582675
11
-0.4954038582677165
21
2.7394401968503939
0
LINE
8
BLACK
6
CONTINUOUS
10
-0.4954038582677165
20
2.7394401968503939
11
-0.4954038582677165
21
2.7552351181102361
0
LINE
8
BLACK
6
CONTINUOUS
10
-0.4954038582677165
20
2.7552351181102361
11
-0.5074492125984252
21
2.7552351181102361
0
LINE
8
BLACK
6
CONTINUOUS
10
-0.5074492125984252
20
2.7552351181102361
11
-0.5080252755905512
21
2.7552918503937005
0
LINE
8
BLACK
6
CONTINUOUS
10
-0.5080252755905512
20
2.7552918503937005
11
-0.5081232677165354
21
2.7553324409448816
0
LINE
8
BLACK
6
CONTINUOUS
10
-0.5081232677165354
20
2.7553324409448816
11
-0.5082291338582677
21
2.7553399606299211
0
LINE
8
BLACK
6
CONTINUOUS
10
-0.5082291338582677
20
2.7553399606299211
11
-0.5087697244094488
21
2.7555468503937006
0
LINE
8
BLACK
6
CONTINUOUS
10
-0.5087697244094488
20
2.7555468503937006
11
-0.5125192519685039
21
2.7574216141732282
0
LINE
8
BLACK
6
CONTINUOUS
10
-0.5125192519685039
20
2.7574216141732282
11
-0.5127672834645669
21
2.7575777165354332
0
LINE
8
BLACK
6
CONTINUOUS
10
-0.5127672834645669
20
2.7575777165354332
11
-0.5128392125984251
21
2.7576075196850391
0
LINE
8
BLACK
6
CONTINUOUS
10
-0.5128392125984251
20
2.7576075196850391
11
-0.5129201968503937
21
2.7576740157480315
0
LINE
8
BLACK
6
CONTINUOUS
10
-0.5129201968503937
20
2.7576740157480315
11
-0.5130091338582677
21
2.7577299606299213
0
LINE
8
BLACK
6
CONTINUOUS
10
-0.5130091338582677
20
2.7577299606299213
11
-0.5130603149606299
21
2.7577889763779528
0
LINE
8
BLACK
6
CONTINUOUS
10
-0.5130603149606299
20
2.7577889763779528
11
-0.513286653543307
21
2.7579747244094488
0
LINE
8
BLACK
6
CONTINUOUS
10
-0.513286653543307
20
2.7579747244094488
11
-0.5151614173228346
21
2.7598494881889764
0
LINE
8
BLACK
6
CONTINUOUS
10
-0.5151614173228346
20
2.7598494881889764
11
-0.5153472047244094
21
2.7600758661417322
0
LINE
8
BLACK
6
CONTINUOUS
10
-0.5153472047244094
20
2.7600758661417322
11
-0.5154061811023621
21
2.7601270078740159
0
LINE
8
BLACK
6
CONTINUOUS
10
-0.5154061811023621
20
2.7601270078740159
11
-0.5154621653543306
21
2.7602159842519685
0
LINE
8
BLACK
6
CONTINUOUS
10
-0.5154621653543306
20
2.7602159842519685
11
-0.515528622047244
21
2.7602969291338582
0
LINE
8
BLACK
6
CONTINUOUS
10
-0.515528622047244
20
2.7602969291338582
11
-0.5155584645669291
21
2.7603688976377954
0
LINE
8
BLACK
6
CONTINUOUS
10
-0.5155584645669291
20
2.7603688976377954
11
-0.5157145275590551
21
2.7606168897637793
0
LINE
8
BLACK
6
CONTINUOUS
10
-0.5157145275590551
20
2.7606168897637793
11
-0.5175892913385827
21
2.7643664173228344
0
LINE
8
BLACK
6
CONTINUOUS
10
-0.5175892913385827
20
2.7643664173228344
11
-0.5177961811023621
21
2.7649070472440944
0
LINE
8
BLACK
6
CONTINUOUS
10
-0.5177961811023621
20
2.7649070472440944
11
-0.5178037007874016
21
2.7650128740157478
0
LINE
8
BLACK
6
CONTINUOUS
10
-0.5178037007874016
20
2.7650128740157478
11
-0.5178442913385827
21
2.7651108661417321
0
LINE
8
BLACK
6
CONTINUOUS
10
-0.5178442913385827
20
2.7651108661417321
11
-0.5179010236220473
21
2.7656869291338584
0
LINE
8
BLACK
6
CONTINUOUS
10
-0.5179010236220473
20
2.7656869291338584
11
-0.5179010236220473
21
2.7713112204724411
0
LINE
8
BLACK
6
CONTINUOUS
10
-0.5179010236220473
20
2.7713112204724411
11
-0.5178442913385827
21
2.7718872834645669
0
LINE
8
BLACK
6
CONTINUOUS
10
-0.5178442913385827
20
2.7718872834645669
11
-0.5178037007874016
21
2.7719853149606299
0
LINE
8
BLACK
6
CONTINUOUS
10
-0.5178037007874016
20
2.7719853149606299
11
-0.5177961811023621
21
2.7720911023622046
0
LINE
8
BLACK
6
CONTINUOUS
10
-0.5177961811023621
20
2.7720911023622046
11
-0.5175892913385827
21
2.7726317322834646
0
LINE
8
BLACK
6
CONTINUOUS
10
-0.5175892913385827
20
2.7726317322834646
11
-0.5157145275590551
21
2.7763812598425197
0
LINE
8
BLACK
6
CONTINUOUS
10
-0.5157145275590551
20
2.7763812598425197
11
-0.5155584645669291
21
2.7766292913385828
0
LINE
8
BLACK
6
CONTINUOUS
10
-0.5155584645669291
20
2.7766292913385828
11
-0.515528622047244
21
2.7767012204724408
0
LINE
8
BLACK
6
CONTINUOUS
10
-0.515528622047244
20
2.7767012204724408
11
-0.5154621653543306
21
2.7767822047244093
0
LINE
8
BLACK
6
CONTINUOUS
10
-0.5154621653543306
20
2.7767822047244093
11
-0.5154061811023621
21
2.7768711417322836
0
LINE
8
BLACK
6
CONTINUOUS
10
-0.5154061811023621
20
2.7768711417322836
11
-0.5153472047244094
21
2.7769223228346456
0
LINE
8
BLACK
6
CONTINUOUS
10
-0.5153472047244094
20
2.7769223228346456
11
-0.5151614173228346
21
2.7771486614173226
0
LINE
8
BLACK
6
CONTINUOUS
10
-0.5151614173228346
20
2.7771486614173226
11
-0.513286653543307
21
2.7790234251968502
0
LINE
8
BLACK
6
CONTINUOUS
10
-0.513286653543307
20
2.7790234251968502
11
-0.5130603149606299
21
2.7792092125984253
0
LINE
8
BLACK
6
CONTINUOUS
10
-0.5130603149606299
20
2.7792092125984253
11
-0.5130091338582677
21
2.7792681889763777
0
LINE
8
BLACK
6
CONTINUOUS
10
-0.5130091338582677
20
2.7792681889763777
11
-0.5129201968503937
21
2.7793241732283462
0
LINE
8
BLACK
6
CONTINUOUS
10
-0.5129201968503937
20
2.7793241732283462
11
-0.5128392125984251
21
2.7793906299212598
0
LINE
8
BLACK
6
CONTINUOUS
10
-0.5128392125984251
20
2.7793906299212598
11
-0.5127672834645669
21
2.779420472440945
0
LINE
8
BLACK
6
CONTINUOUS
10
-0.5127672834645669
20
2.779420472440945
11
-0.5125192519685039
21
2.7795765354330708
0
LINE
8
BLACK
6
CONTINUOUS
10
-0.5125192519685039
20
2.7795765354330708
11
-0.5087697244094488
21
2.7814512992125984
0
LINE
8
BLACK
6
CONTINUOUS
10
-0.5087697244094488
20
2.7814512992125984
11
-0.5082291338582677
21
2.7816581889763778
0
LINE
8
BLACK
6
CONTINUOUS
10
-0.5082291338582677
20
2.7816581889763778
11
-0.5081232677165354
21
2.7816657480314961
0
LINE
8
BLACK
6
CONTINUOUS
10
-0.5081232677165354
20
2.7816657480314961
11
-0.5080252755905512
21
2.7817062992125985
0
LINE
8
BLACK
6
CONTINUOUS
10
-0.5080252755905512
20
2.7817062992125985
11
-0.5074492125984252
21
2.7817630314960629
0
LINE
8
BLACK
6
CONTINUOUS
10
-0.5074492125984252
20
2.7817630314960629
11
-0.4924511023622047
21
2.7817630314960629
0
LINE
8
BLACK
6
CONTINUOUS
10
-0.4924511023622047
20
2.7817630314960629
11
-0.4918750393700787
21
2.7817062992125985
0
LINE
8
BLACK
6
CONTINUOUS
10
-0.5094496456692913
20
2.7745087795275589
11
-0.5106467716535433
21
2.7733116535433071
0
LINE
8
BLACK
6
CONTINUOUS
10
-0.5106467716535433
20
2.7733116535433071
11
-0.5119955118110237
21
2.7706141732283465
0
LINE
8
BLACK
6
CONTINUOUS
10
-0.5119955118110237
20
2.7706141732283465
11
-0.5119955118110237
21
2.7663839763779525
0
LINE
8
BLACK
6
CONTINUOUS
10
-0.5119955118110237
20
2.7663839763779525
11
-0.5106467716535433
21
2.7636864960629919
0
LINE
8
BLACK
6
CONTINUOUS
10
-0.5106467716535433
20
2.7636864960629919
11
-0.5094496456692913
21
2.7624893700787401
0
LINE
8
BLACK
6
CONTINUOUS
10
-0.5094496456692913
20
2.7624893700787401
11
-0.5067521653543307
21
2.7611406299212597
0
LINE
8
BLACK
6
CONTINUOUS
10
-0.5067521653543307
20
2.7611406299212597
11
-0.4954038582677165
21
2.7611406299212597
0
LINE
8
BLACK
6
CONTINUOUS
10
-0.4954038582677165
20
2.7611406299212597
11
-0.4954038582677165
21
2.7758575196850392
0
LINE
8
BLACK
6
CONTINUOUS
10
-0.4954038582677165
20
2.7758575196850392
11
-0.5067521653543307
21
2.7758575196850392
0
LINE
8
BLACK
6
CONTINUOUS
10
-0.5067521653543307
20
2.7758575196850392
11
-0.5094496456692913
21
2.7745087795275589
0
LINE
8
BLACK
6
CONTINUOUS
10
-0.4562544881889763
20
2.7817062992125985
11
-0.4551900787401575
21
2.7812653937007874
0
LINE
8
BLACK
6
CONTINUOUS
10
-0.4551900787401575
20
2.7812653937007874
11
-0.4543754330708661
21
2.7804507480314959
0
LINE
8
BLACK
6
CONTINUOUS
10
-0.4543754330708661
20
2.7804507480314959
11
-0.4539345275590551
21
2.7793863385826771
0
LINE
8
BLACK
6
CONTINUOUS
10
-0.4539345275590551
20
2.7793863385826771
11
-0.4539345275590551
21
2.778234212598425
0
LINE
8
BLACK
6
CONTINUOUS
10
-0.4539345275590551
20
2.778234212598425
11
-0.4543754330708661
21
2.7771698031496062
0
LINE
8
BLACK
6
CONTINUOUS
10
-0.4543754330708661
20
2.7771698031496062
11
-0.4551900787401575
21
2.7763551574803147
0
LINE
8
BLACK
6
CONTINUOUS
10
-0.4551900787401575
20
2.7763551574803147
11
-0.4562544881889763
21
2.7759142519685041
0
LINE
8
BLACK
6
CONTINUOUS
10
-0.4562544881889763
20
2.7759142519685041
11
-0.4568305511811023
21
2.7758575196850392
0
LINE
8
BLACK
6
CONTINUOUS
10
-0.4568305511811023
20
2.7758575196850392
11
-0.4651263779527559
21
2.7758575196850392
0
LINE
8
BLACK
6
CONTINUOUS
10
-0.4651263779527559
20
2.7758575196850392
11
-0.4651263779527559
21
2.7394401968503939
0
LINE
8
BLACK
6
CONTINUOUS
10
-0.4651263779527559
20
2.7394401968503939
11
-0.4651831102362204
21
2.7388641338582675
0
LINE
8
BLACK
6
CONTINUOUS
10
-0.4651831102362204
20
2.7388641338582675
11
-0.4656240157480315
21
2.7377997244094487
0
LINE
8
BLACK
6
CONTINUOUS
10
-0.4656240157480315
20
2.7377997244094487
11
-0.4664386614173228
21
2.7369850787401573
0
LINE
8
BLACK
6
CONTINUOUS
10
-0.4664386614173228
20
2.7369850787401573
11
-0.4675030708661417
21
2.7365441732283462
0
LINE
8
BLACK
6
CONTINUOUS
10
-0.4675030708661417
20
2.7365441732283462
11
-0.4686551968503937
21
2.7365441732283462
0
LINE
8
BLACK
6
CONTINUOUS
10
-0.4686551968503937
20
2.7365441732283462
11
-0.4697196062992126
21
2.7369850787401573
0
LINE
8
BLACK
6
CONTINUOUS
10
-0.4697196062992126
20
2.7369850787401573
11
-0.4705342519685039
21
2.7377997244094487
0
LINE
8
BLACK
6
CONTINUOUS
10
-0.4705342519685039
20
2.7377997244094487
11
-0.4709751574803149
21
2.7388641338582675
0
LINE
8
BLACK
6
CONTINUOUS
10
-0.4709751574803149
20
2.7388641338582675
11
-0.4710318897637795
21
2.7394401968503939
0
LINE
8
BLACK
6
CONTINUOUS
10
-0.4710318897637795
20
2.7394401968503939
11
-0.4710318897637795
21
2.7758575196850392
0
LINE
8
BLACK
6
CONTINUOUS
10
-0.4710318897637795
20
2.7758575196850392
11
-0.479327716535433
21
2.7758575196850392
0
LINE
8
BLACK
6
CONTINUOUS
10
-0.479327716535433
20
2.7758575196850392
11
-0.479903779527559
21
2.7759142519685041
0
LINE
8
BLACK
6
CONTINUOUS
10
-0.479903779527559
20
2.7759142519685041
11
-0.4809681889763779
21
2.7763551574803147
0
LINE
8
BLACK
6
CONTINUOUS
10
-0.4809681889763779
20
2.7763551574803147
11
-0.4817828346456693
21
2.7771698031496062
0
LINE
8
BLACK
6
CONTINUOUS
10
-0.4817828346456693
20
2.7771698031496062
11
-0.4822237401574803
21
2.778234212598425
0
LINE
8
BLACK
6
CONTINUOUS
10
-0.4822237401574803
20
2.778234212598425
11
-0.4822237401574803
21
2.7793863385826771
0
LINE
8
BLACK
6
CONTINUOUS
10
-0.4822237401574803
20
2.7793863385826771
11
-0.4817828346456693
21
2.7804507480314959
0
LINE
8
BLACK
6
CONTINUOUS
10
-0.4817828346456693
20
2.7804507480314959
11
-0.4809681889763779
21
2.7812653937007874
0
LINE
8
BLACK
6
CONTINUOUS
10
-0.4809681889763779
20
2.7812653937007874
11
-0.479903779527559
21
2.7817062992125985
0
LINE
8
BLACK
6
CONTINUOUS
10
-0.479903779527559
20
2.7817062992125985
11
-0.479327716535433
21
2.7817630314960629
0
LINE
8
BLACK
6
CONTINUOUS
10
-0.479327716535433
20
2.7817630314960629
11
-0.4568305511811023
21
2.7817630314960629
0
LINE
8
BLACK
6
CONTINUOUS
10
-0.4568305511811023
20
2.7817630314960629
11
-0.4562544881889763
21
2.7817062992125985
0
LINE
8
BLACK
6
CONTINUOUS
10
-0.2719946456692913
20
2.7877062992125983
11
-0.2718966535433071
21
2.7876657086614172
0
LINE
8
BLACK
6
CONTINUOUS
10
-0.2718966535433071
20
2.7876657086614172
11
-0.2717908267716536
21
2.7876581889763781
0
LINE
8
BLACK
6
CONTINUOUS
10
-0.2717908267716536
20
2.7876581889763781
11
-0.2712501968503937
21
2.7874512992125982
0
LINE
8
BLACK
6
CONTINUOUS
10
-0.2712501968503937
20
2.7874512992125982
11
-0.2675006692913386
21
2.7855765354330706
0
LINE
8
BLACK
6
CONTINUOUS
10
-0.2675006692913386
20
2.7855765354330706
11
-0.2672526771653543
21
2.7854204724409448
0
LINE
8
BLACK
6
CONTINUOUS
10
-0.2672526771653543
20
2.7854204724409448
11
-0.2671807086614173
21
2.7853906299212596
0
LINE
8
BLACK
6
CONTINUOUS
10
-0.2671807086614173
20
2.7853906299212596
11
-0.2670997637795275
21
2.7853241732283465
0
LINE
8
BLACK
6
CONTINUOUS
10
-0.2670997637795275
20
2.7853241732283465
11
-0.2670107874015748
21
2.785268188976378
0
LINE
8
BLACK
6
CONTINUOUS
10
-0.2670107874015748
20
2.785268188976378
11
-0.2669596456692913
21
2.7852092125984251
0
LINE
8
BLACK
6
CONTINUOUS
10
-0.2669596456692913
20
2.7852092125984251
11
-0.2667332677165354
21
2.7850234251968504
0
LINE
8
BLACK
6
CONTINUOUS
10
-0.2667332677165354
20
2.7850234251968504
11
-0.2648585039370079
21
2.7831486614173229
0
LINE
8
BLACK
6
CONTINUOUS
10
-0.2648585039370079
20
2.7831486614173229
11
-0.2644912992125984
21
2.7827012204724411
0
LINE
8
BLACK
6
CONTINUOUS
10
-0.2644912992125984
20
2.7827012204724411
11
-0.2640503937007874
21
2.7816368110236218
0
LINE
8
BLACK
6
CONTINUOUS
10
-0.2640503937007874
20
2.7816368110236218
11
-0.2640503937007874
21
2.7804847244094488
0
LINE
8
BLACK
6
CONTINUOUS
10
-0.2640503937007874
20
2.7804847244094488
11
-0.2644912992125984
21
2.77942031496063
0
LINE
8
BLACK
6
CONTINUOUS
10
-0.2644912992125984
20
2.77942031496063
11
-0.2653059842519685
21
2.7786056299212598
0
LINE
8
BLACK
6
CONTINUOUS
10
-0.2653059842519685
20
2.7786056299212598
11
-0.2663703937007874
21
2.7781647244094487
0
LINE
8
BLACK
6
CONTINUOUS
10
-0.2663703937007874
20
2.7781647244094487
11
-0.2675224803149606
21
2.7781647244094487
0
LINE
8
BLACK
6
CONTINUOUS
10
-0.2675224803149606
20
2.7781647244094487
11
-0.2685868897637795
21
2.7786056299212598
0
LINE
8
BLACK
6
CONTINUOUS
10
-0.2685868897637795
20
2.7786056299212598
11
-0.2690343307086614
21
2.778972834645669
0
LINE
8
BLACK
6
CONTINUOUS
10
-0.2690343307086614
20
2.778972834645669
11
-0.2705702755905512
21
2.7805087795275591
0
LINE
8
BLACK
6
CONTINUOUS
10
-0.2705702755905512
20
2.7805087795275591
11
-0.2732677559055118
21
2.7818575196850395
0
LINE
8
BLACK
6
CONTINUOUS
10
-0.2732677559055118
20
2.7818575196850395
11
-0.2812474803149606
21
2.7818575196850395
0
LINE
8
BLACK
6
CONTINUOUS
10
-0.2812474803149606
20
2.7818575196850395
11
-0.2839449606299213
21
2.7805087795275591
0
LINE
8
BLACK
6
CONTINUOUS
10
-0.2839449606299213
20
2.7805087795275591
11
-0.2851420866141732
21
2.7793116535433069
0
LINE
8
BLACK
6
CONTINUOUS
10
-0.2851420866141732
20
2.7793116535433069
11
-0.2864908267716536
21
2.7766141732283462
0
LINE
8
BLACK
6
CONTINUOUS
10
-0.2864908267716536
20
2.7766141732283462
11
-0.2864908267716536
21
2.7740408661417324
0
LINE
8
BLACK
6
CONTINUOUS
10
-0.2864908267716536
20
2.7740408661417324
11
-0.284988031496063
21
2.7695324409448818
0
LINE
8
BLACK
6
CONTINUOUS
10
-0.284988031496063
20
2.7695324409448818
11
-0.2629837401574803
21
2.7475281102362206
0
LINE
8
BLACK
6
CONTINUOUS
10
-0.2629837401574803
20
2.7475281102362206
11
-0.2626164960629921
21
2.7470806692913383
0
LINE
8
BLACK
6
CONTINUOUS
10
-0.2626164960629921
20
2.7470806692913383
11
-0.2621756299212598
21
2.7460162204724408
0
LINE
8
BLACK
6
CONTINUOUS
10
-0.2621756299212598
20
2.7460162204724408
11
-0.2621756299212598
21
2.7448641338582678
0
LINE
8
BLACK
6
CONTINUOUS
10
-0.2621756299212598
20
2.7448641338582678
11
-0.2626165354330708
21
2.743799724409449
0
LINE
8
BLACK
6
CONTINUOUS
10
-0.2626165354330708
20
2.743799724409449
11
-0.2634311811023622
21
2.7429850393700788
0
LINE
8
BLACK
6
CONTINUOUS
10
-0.2634311811023622
20
2.7429850393700788
11
-0.2641838582677165
21
2.7426733070866143
0
LINE
8
BLACK
6
CONTINUOUS
10
-0.2641838582677165
20
2.7426733070866143
11
-0.2644955905511811
21
2.7425441732283464
0
LINE
8
BLACK
6
CONTINUOUS
10
-0.2644955905511811
20
2.7425441732283464
11
-0.2650716535433071
21
2.7424874409448816
0
LINE
8
BLACK
6
CONTINUOUS
10
-0.2650716535433071
20
2.7424874409448816
11
-0.2894435826771654
21
2.7424874409448816
0
LINE
8
BLACK
6
CONTINUOUS
10
-0.2894435826771654
20
2.7424874409448816
11
-0.2900196456692913
21
2.7425441732283464
0
LINE
8
BLACK
6
CONTINUOUS
10
-0.2900196456692913
20
2.7425441732283464
11
-0.2910840551181103
21
2.7429850787401575
0
LINE
8
BLACK
6
CONTINUOUS
10
-0.2910840551181103
20
2.7429850787401575
11
-0.2918987007874015
21
2.743799724409449
0
LINE
8
BLACK
6
CONTINUOUS
10
-0.2918987007874015
20
2.743799724409449
11
-0.2923396062992126
21
2.7448641338582678
0
LINE
8
BLACK
6
CONTINUOUS
10
-0.2923396062992126
20
2.7448641338582678
11
-0.2923396062992126
21
2.7460162598425195
0
LINE
8
BLACK
6
CONTINUOUS
10
-0.2923396062992126
20
2.7460162598425195
11
-0.2918987007874015
21
2.7470806692913383
0
LINE
8
BLACK
6
CONTINUOUS
10
-0.2918987007874015
20
2.7470806692913383
11
-0.2910840551181103
21
2.7478953149606298
0
LINE
8
BLACK
6
CONTINUOUS
10
-0.2910840551181103
20
2.7478953149606298
11
-0.2900196456692913
21
2.7483362204724409
0
LINE
8
BLACK
6
CONTINUOUS
10
-0.2900196456692913
20
2.7483362204724409
11
-0.2894435826771654
21
2.7483929527559052
0
LINE
8
BLACK
6
CONTINUOUS
10
-0.2894435826771654
20
2.7483929527559052
11
-0.2722002362204725
21
2.7483929527559052
0
LINE
8
BLACK
6
CONTINUOUS
10
-0.2722002362204725
20
2.7483929527559052
11
-0.2896567322834646
21
2.7658494881889761
0
LINE
8
BLACK
6
CONTINUOUS
10
-0.2896567322834646
20
2.7658494881889761
11
-0.290023937007874
21
2.7662969291338584
0
LINE
8
BLACK
6
CONTINUOUS
10
-0.290023937007874
20
2.7662969291338584
11
-0.2900645669291338
21
2.7663949999999997
0
LINE
8
BLACK
6
CONTINUOUS
10
-0.2900645669291338
20
2.7663949999999997
11
-0.2901340551181102
21
2.7664751181102361
0
LINE
8
BLACK
6
CONTINUOUS
10
-0.2901340551181102
20
2.7664751181102361
11
-0.2903700393700787
21
2.7670036614173226
0
LINE
8
BLACK
6
CONTINUOUS
10
-0.2903700393700787
20
2.7670036614173226
11
-0.2922448031496063
21
2.7726279527559052
0
LINE
8
BLACK
6
CONTINUOUS
10
-0.2922448031496063
20
2.7726279527559052
11
-0.2923097637795276
21
2.7729135433070864
0
LINE
8
BLACK
6
CONTINUOUS
10
-0.2923097637795276
20
2.7729135433070864
11
-0.2923396062992126
21
2.7729856299212599
0
LINE
8
BLACK
6
CONTINUOUS
10
-0.2923396062992126
20
2.7729856299212599
11
-0.2923499212598425
21
2.7730901574803148
0
LINE
8
BLACK
6
CONTINUOUS
10
-0.2923499212598425
20
2.7730901574803148
11
-0.2923731496062992
21
2.7731924015748031
0
LINE
8
BLACK
6
CONTINUOUS
10
-0.2923731496062992
20
2.7731924015748031
11
-0.2923676377952756
21
2.7732701574803147
0
LINE
8
BLACK
6
CONTINUOUS
10
-0.2923676377952756
20
2.7732701574803147
11
-0.2923963385826772
21
2.7735616929133857
0
LINE
8
BLACK
6
CONTINUOUS
10
-0.2923963385826772
20
2.7735616929133857
11
-0.2923963385826772
21
2.7773112204724408
0
LINE
8
BLACK
6
CONTINUOUS
10
-0.2923963385826772
20
2.7773112204724408
11
-0.2923396062992126
21
2.7778872834645667
0
LINE
8
BLACK
6
CONTINUOUS
10
-0.2923396062992126
20
2.7778872834645667
11
-0.2922990157480315
21
2.7779853149606297
0
LINE
8
BLACK
6
CONTINUOUS
10
-0.2922990157480315
20
2.7779853149606297
11
-0.2922914960629921
21
2.7780911023622048
0
LINE
8
BLACK
6
CONTINUOUS
10
-0.2922914960629921
20
2.7780911023622048
11
-0.2920846062992126
21
2.7786317322834644
0
LINE
8
BLACK
6
CONTINUOUS
10
-0.2920846062992126
20
2.7786317322834644
11
-0.290209842519685
21
2.7823812598425195
0
LINE
8
BLACK
6
CONTINUOUS
10
-0.290209842519685
20
2.7823812598425195
11
-0.2900537795275591
21
2.7826292913385826
0
LINE
8
BLACK
6
CONTINUOUS
10
-0.2900537795275591
20
2.7826292913385826
11
-0.290023937007874
21
2.7827012204724411
0
LINE
8
BLACK
6
CONTINUOUS
10
-0.290023937007874
20
2.7827012204724411
11
-0.2899574803149606
21
2.7827822047244095
0
LINE
8
BLACK
6
CONTINUOUS
10
-0.2899574803149606
20
2.7827822047244095
11
-0.2899014960629921
21
2.7828711417322833
0
LINE
8
BLACK
6
CONTINUOUS
10
-0.2899014960629921
20
2.7828711417322833
11
-0.2898425196850394
21
2.7829223228346458
0
LINE
8
BLACK
6
CONTINUOUS
10
-0.2898425196850394
20
2.7829223228346458
11
-0.2896567322834646
21
2.7831486614173229
0
LINE
8
BLACK
6
CONTINUOUS
10
-0.2896567322834646
20
2.7831486614173229
11
-0.287781968503937
21
2.7850234251968504
0
LINE
8
BLACK
6
CONTINUOUS
10
-0.287781968503937
20
2.7850234251968504
11
-0.2875556299212598
21
2.7852092125984251
0
LINE
8
BLACK
6
CONTINUOUS
10
-0.2875556299212598
20
2.7852092125984251
11
-0.2875044488188976
21
2.785268188976378
0
LINE
8
BLACK
6
CONTINUOUS
10
-0.2875044488188976
20
2.785268188976378
11
-0.2874155118110236
21
2.7853241732283465
0
LINE
8
BLACK
6
CONTINUOUS
10
-0.2874155118110236
20
2.7853241732283465
11
-0.2873345275590551
21
2.7853906299212596
0
LINE
8
BLACK
6
CONTINUOUS
10
-0.2873345275590551
20
2.7853906299212596
11
-0.2872625984251969
21
2.7854204724409448
0
LINE
8
BLACK
6
CONTINUOUS
10
-0.2872625984251969
20
2.7854204724409448
11
-0.2870145669291339
21
2.7855765354330706
0
LINE
8
BLACK
6
CONTINUOUS
10
-0.2870145669291339
20
2.7855765354330706
11
-0.2832650393700787
21
2.7874512992125982
0
LINE
8
BLACK
6
CONTINUOUS
10
-0.2832650393700787
20
2.7874512992125982
11
-0.2827244488188976
21
2.7876581889763781
0
LINE
8
BLACK
6
CONTINUOUS
10
-0.2827244488188976
20
2.7876581889763781
11
-0.2826185826771653
21
2.7876657480314959
0
LINE
8
BLACK
6
CONTINUOUS
10
-0.2826185826771653
20
2.7876657480314959
11
-0.2825205905511811
21
2.7877062992125983
0
LINE
8
BLACK
6
CONTINUOUS
10
-0.2825205905511811
20
2.7877062992125983
11
-0.2819445275590551
21
2.7877630314960631
0
LINE
8
BLACK
6
CONTINUOUS
10
-0.2819445275590551
20
2.7877630314960631
11
-0.2725707086614173
21
2.7877630314960631
0
LINE
8
BLACK
6
CONTINUOUS
10
-0.2725707086614173
20
2.7877630314960631
11
-0.2719946456692913
21
2.7877062992125983
0
LINE
8
BLACK
6
CONTINUOUS
10
-0.2288750393700787
20
2.7877062992125983
11
-0.2278106299212598
21
2.7872653937007872
0
LINE
8
BLACK
6
CONTINUOUS
10
-0.2278106299212598
20
2.7872653937007872
11
-0.2269959842519685
21
2.7864507480314962
0
LINE
8
BLACK
6
CONTINUOUS
10
-0.2269959842519685
20
2.7864507480314962
11
-0.2265550787401575
21
2.7853863385826769
0
LINE
8
BLACK
6
CONTINUOUS
10
-0.2265550787401575
20
2.7853863385826769
11
-0.2264983464566929
21
2.7848102755905511
0
LINE
8
BLACK
6
CONTINUOUS
10
-0.2264983464566929
20
2.7848102755905511
11
-0.2264983464566929
21
2.7454401968503936
0
LINE
8
BLACK
6
CONTINUOUS
10
-0.2264983464566929
20
2.7454401968503936
11
-0.2265550787401575
21
2.7448641338582678
0
LINE
8
BLACK
6
CONTINUOUS
10
-0.2265550787401575
20
2.7448641338582678
11
-0.2269959842519685
21
2.743799724409449
0
LINE
8
BLACK
6
CONTINUOUS
10
-0.2269959842519685
20
2.743799724409449
11
-0.2278106299212598
21
2.7429850787401575
0
LINE
8
BLACK
6
CONTINUOUS
10
-0.2278106299212598
20
2.7429850787401575
11
-0.2288750393700787
21
2.7425441732283464
0
LINE
8
BLACK
6
CONTINUOUS
10
-0.2288750393700787
20
2.7425441732283464
11
-0.2300271653543307
21
2.7425441732283464
0
LINE
8
BLACK
6
CONTINUOUS
10
-0.2300271653543307
20
2.7425441732283464
11
-0.2310915748031496
21
2.7429850787401575
0
LINE
8
BLACK
6
CONTINUOUS
10
-0.2310915748031496
20
2.7429850787401575
11
-0.2319062204724409
21
2.743799724409449
0
LINE
8
BLACK
6
CONTINUOUS
10
-0.2319062204724409
20
2.743799724409449
11
-0.232347125984252
21
2.7448641338582678
0
LINE
8
BLACK
6
CONTINUOUS
10
-0.232347125984252
20
2.7448641338582678
11
-0.2324038582677165
21
2.7454401968503936
0
LINE
8
BLACK
6
CONTINUOUS
10
-0.2324038582677165
20
2.7454401968503936
11
-0.2324038582677165
21
2.7612351181102364
0
LINE
8
BLACK
6
CONTINUOUS
10
-0.2324038582677165
20
2.7612351181102364
11
-0.2444492125984252
21
2.7612351181102364
0
LINE
8
BLACK
6
CONTINUOUS
10
-0.2444492125984252
20
2.7612351181102364
11
-0.2450252755905512
21
2.7612918503937007
0
LINE
8
BLACK
6
CONTINUOUS
10
-0.2450252755905512
20
2.7612918503937007
11
-0.2451232677165354
21
2.7613324409448818
0
LINE
8
BLACK
6
CONTINUOUS
10
-0.2451232677165354
20
2.7613324409448818
11
-0.2452291338582677
21
2.7613399606299214
0
LINE
8
BLACK
6
CONTINUOUS
10
-0.2452291338582677
20
2.7613399606299214
11
-0.2457697244094488
21
2.7615468503937008
0
LINE
8
BLACK
6
CONTINUOUS
10
-0.2457697244094488
20
2.7615468503937008
11
-0.2495192519685039
21
2.7634216141732284
0
LINE
8
BLACK
6
CONTINUOUS
10
-0.2495192519685039
20
2.7634216141732284
11
-0.2497672834645669
21
2.7635777165354329
0
LINE
8
BLACK
6
CONTINUOUS
10
-0.2497672834645669
20
2.7635777165354329
11
-0.2498392125984252
21
2.7636075196850394
0
LINE
8
BLACK
6
CONTINUOUS
10
-0.2498392125984252
20
2.7636075196850394
11
-0.2499201968503937
21
2.7636740157480313
0
LINE
8
BLACK
6
CONTINUOUS
10
-0.2499201968503937
20
2.7636740157480313
11
-0.2500091338582677
21
2.763729960629921
0
LINE
8
BLACK
6
CONTINUOUS
10
-0.2500091338582677
20
2.763729960629921
11
-0.2500603149606299
21
2.7637889763779526
0
LINE
8
BLACK
6
CONTINUOUS
10
-0.2500603149606299
20
2.7637889763779526
11
-0.2502866535433071
21
2.7639747244094486
0
LINE
8
BLACK
6
CONTINUOUS
10
-0.2502866535433071
20
2.7639747244094486
11
-0.2521614173228346
21
2.7658494881889761
0
LINE
8
BLACK
6
CONTINUOUS
10
-0.2521614173228346
20
2.7658494881889761
11
-0.2523472047244095
21
2.7660758661417324
0
LINE
8
BLACK
6
CONTINUOUS
10
-0.2523472047244095
20
2.7660758661417324
11
-0.2524061811023622
21
2.7661270078740157
0
LINE
8
BLACK
6
CONTINUOUS
10
-0.2524061811023622
20
2.7661270078740157
11
-0.2524621653543307
21
2.7662159842519682
0
LINE
8
BLACK
6
CONTINUOUS
10
-0.2524621653543307
20
2.7662159842519682
11
-0.2525286220472441
21
2.7662969291338584
0
LINE
8
BLACK
6
CONTINUOUS
10
-0.2525286220472441
20
2.7662969291338584
11
-0.2525584645669292
21
2.7663688976377951
0
LINE
8
BLACK
6
CONTINUOUS
10
-0.2525584645669292
20
2.7663688976377951
11
-0.2527145275590551
21
2.7666168897637795
0
LINE
8
BLACK
6
CONTINUOUS
10
-0.2527145275590551
20
2.7666168897637795
11
-0.2545892913385827
21
2.7703664173228346
0
LINE
8
BLACK
6
CONTINUOUS
10
-0.2545892913385827
20
2.7703664173228346
11
-0.2547961811023622
21
2.7709070472440946
0
LINE
8
BLACK
6
CONTINUOUS
10
-0.2547961811023622
20
2.7709070472440946
11
-0.2548037007874016
21
2.771012874015748
0
LINE
8
BLACK
6
CONTINUOUS
10
-0.2548037007874016
20
2.771012874015748
11
-0.2548442913385827
21
2.7711108661417323
0
LINE
8
BLACK
6
CONTINUOUS
10
-0.2548442913385827
20
2.7711108661417323
11
-0.2549010236220473
21
2.7716869291338582
0
LINE
8
BLACK
6
CONTINUOUS
10
-0.2549010236220473
20
2.7716869291338582
11
-0.2549010236220473
21
2.7773112204724408
0
LINE
8
BLACK
6
CONTINUOUS
10
-0.2549010236220473
20
2.7773112204724408
11
-0.2548442913385827
21
2.7778872834645667
0
LINE
8
BLACK
6
CONTINUOUS
10
-0.2548442913385827
20
2.7778872834645667
11
-0.2548037007874016
21
2.7779853149606297
0
LINE
8
BLACK
6
CONTINUOUS
10
-0.2548037007874016
20
2.7779853149606297
11
-0.2547961811023622
21
2.7780911023622048
0
LINE
8
BLACK
6
CONTINUOUS
10
-0.2547961811023622
20
2.7780911023622048
11
-0.2545892913385827
21
2.7786317322834644
0
LINE
8
BLACK
6
CONTINUOUS
10
-0.2545892913385827
20
2.7786317322834644
11
-0.2527145275590551
21
2.7823812598425195
0
LINE
8
BLACK
6
CONTINUOUS
10
-0.2527145275590551
20
2.7823812598425195
11
-0.2525584645669292
21
2.7826292913385826
0
LINE
8
BLACK
6
CONTINUOUS
10
-0.2525584645669292
20
2.7826292913385826
11
-0.2525286220472441
21
2.7827012204724411
0
LINE
8
BLACK
6
CONTINUOUS
10
-0.2525286220472441
20
2.7827012204724411
11
-0.2524621653543307
21
2.7827822047244095
0
LINE
8
BLACK
6
CONTINUOUS
10
-0.2524621653543307
20
2.7827822047244095
11
-0.2524061811023622
21
2.7828711417322833
0
LINE
8
BLACK
6
CONTINUOUS
10
-0.2524061811023622
20
2.7828711417322833
11
-0.2523472047244095
21
2.7829223228346458
0
LINE
8
BLACK
6
CONTINUOUS
10
-0.2523472047244095
20
2.7829223228346458
11
-0.2521614173228346
21
2.7831486614173229
0
LINE
8
BLACK
6
CONTINUOUS
10
-0.2521614173228346
20
2.7831486614173229
11
-0.2502866535433071
21
2.7850234251968504
0
LINE
8
BLACK
6
CONTINUOUS
10
-0.2502866535433071
20
2.7850234251968504
11
-0.2500603149606299
21
2.7852092125984251
0
LINE
8
BLACK
6
CONTINUOUS
10
-0.2500603149606299
20
2.7852092125984251
11
-0.2500091338582677
21
2.785268188976378
0
LINE
8
BLACK
6
CONTINUOUS
10
-0.2500091338582677
20
2.785268188976378
11
-0.2499201968503937
21
2.7853241732283465
0
LINE
8
BLACK
6
CONTINUOUS
10
-0.2499201968503937
20
2.7853241732283465
11
-0.2498392125984252
21
2.7853906299212596
0
LINE
8
BLACK
6
CONTINUOUS
10
-0.2498392125984252
20
2.7853906299212596
11
-0.2497672834645669
21
2.7854204724409448
0
LINE
8
BLACK
6
CONTINUOUS
10
-0.2497672834645669
20
2.7854204724409448
11
-0.2495192519685039
21
2.7855765354330706
0
LINE
8
BLACK
6
CONTINUOUS
10
-0.2495192519685039
20
2.7855765354330706
11
-0.2457697244094488
21
2.7874512992125982
0
LINE
8
BLACK
6
CONTINUOUS
10
-0.2457697244094488
20
2.7874512992125982
11
-0.2452291338582677
21
2.7876581889763781
0
LINE
8
BLACK
6
CONTINUOUS
10
-0.2452291338582677
20
2.7876581889763781
11
-0.2451232677165354
21
2.7876657480314959
0
LINE
8
BLACK
6
CONTINUOUS
10
-0.2451232677165354
20
2.7876657480314959
11
-0.2450252755905512
21
2.7877062992125983
0
LINE
8
BLACK
6
CONTINUOUS
10
-0.2450252755905512
20
2.7877062992125983
11
-0.2444492125984252
21
2.7877630314960631
0
LINE
8
BLACK
6
CONTINUOUS
10
-0.2444492125984252
20
2.7877630314960631
11
-0.2294511023622047
21
2.7877630314960631
0
LINE
8
BLACK
6
CONTINUOUS
10
-0.2294511023622047
20
2.7877630314960631
11
-0.2288750393700787
21
2.7877062992125983
0
LINE
8
BLACK
6
CONTINUOUS
10
-0.2464496456692913
20
2.7805087795275591
11
-0.2476467716535433
21
2.7793116535433069
0
LINE
8
BLACK
6
CONTINUOUS
10
-0.2476467716535433
20
2.7793116535433069
11
-0.2489955118110236
21
2.7766141732283462
0
LINE
8
BLACK
6
CONTINUOUS
10
-0.2489955118110236
20
2.7766141732283462
11
-0.2489955118110236
21
2.7723839763779528
0
LINE
8
BLACK
6
CONTINUOUS
10
-0.2489955118110236
20
2.7723839763779528
11
-0.2476467716535433
21
2.7696864960629921
0
LINE
8
BLACK
6
CONTINUOUS
10
-0.2476467716535433
20
2.7696864960629921
11
-0.2464496456692913
21
2.7684893700787403
0
LINE
8
BLACK
6
CONTINUOUS
10
-0.2464496456692913
20
2.7684893700787403
11
-0.2437521653543307
21
2.76714062992126
0
LINE
8
BLACK
6
CONTINUOUS
10
-0.2437521653543307
20
2.76714062992126
11
-0.2324038582677165
21
2.76714062992126
0
LINE
8
BLACK
6
CONTINUOUS
10
-0.2324038582677165
20
2.76714062992126
11
-0.2324038582677165
21
2.7818575196850395
0
LINE
8
BLACK
6
CONTINUOUS
10
-0.2324038582677165
20
2.7818575196850395
11
-0.2437521653543307
21
2.7818575196850395
0
LINE
8
BLACK
6
CONTINUOUS
10
-0.2437521653543307
20
2.7818575196850395
11
-0.2464496456692913
21
2.7805087795275591
0
LINE
8
BLACK
6
CONTINUOUS
10
-0.1932544881889764
20
2.7877062992125983
11
-0.1921900787401575
21
2.7872653937007872
0
LINE
8
BLACK
6
CONTINUOUS
10
-0.1921900787401575
20
2.7872653937007872
11
-0.1913754330708661
21
2.7864507480314962
0
LINE
8
BLACK
6
CONTINUOUS
10
-0.1913754330708661
20
2.7864507480314962
11
-0.1909345275590551
21
2.7853863385826769
0
LINE
8
BLACK
6
CONTINUOUS
10
-0.1909345275590551
20
2.7853863385826769
11
-0.1909345275590551
21
2.7842342125984252
0
LINE
8
BLACK
6
CONTINUOUS
10
-0.1909345275590551
20
2.7842342125984252
11
-0.1913754330708661
21
2.7831698031496064
0
LINE
8
BLACK
6
CONTINUOUS
10
-0.1913754330708661
20
2.7831698031496064
11
-0.1921900787401575
21
2.7823551574803149
0
LINE
8
BLACK
6
CONTINUOUS
10
-0.1921900787401575
20
2.7823551574803149
11
-0.1932544881889764
21
2.7819142519685038
0
LINE
8
BLACK
6
CONTINUOUS
10
-0.1932544881889764
20
2.7819142519685038
11
-0.1938305511811023
21
2.7818575196850395
0
LINE
8
BLACK
6
CONTINUOUS
10
-0.1938305511811023
20
2.7818575196850395
11
-0.2021263779527559
21
2.7818575196850395
0
LINE
8
BLACK
6
CONTINUOUS
10
-0.2021263779527559
20
2.7818575196850395
11
-0.2021263779527559
21
2.7454401968503936
0
LINE
8
BLACK
6
CONTINUOUS
10
-0.2021263779527559
20
2.7454401968503936
11
-0.2021831102362205
21
2.7448641338582678
0
LINE
8
BLACK
6
CONTINUOUS
10
-0.2021831102362205
20
2.7448641338582678
11
-0.2026240157480315
21
2.743799724409449
0
LINE
8
BLACK
6
CONTINUOUS
10
-0.2026240157480315
20
2.743799724409449
11
-0.2034386614173228
21
2.7429850787401575
0
LINE
8
BLACK
6
CONTINUOUS
10
-0.2034386614173228
20
2.7429850787401575
11
-0.2045030708661417
21
2.7425441732283464
0
LINE
8
BLACK
6
CONTINUOUS
10
-0.2045030708661417
20
2.7425441732283464
11
-0.2056551968503937
21
2.7425441732283464
0
LINE
8
BLACK
6
CONTINUOUS
10
-0.2056551968503937
20
2.7425441732283464
11
-0.2067196062992126
21
2.7429850787401575
0
LINE
8
BLACK
6
CONTINUOUS
10
-0.2067196062992126
20
2.7429850787401575
11
-0.2075342519685039
21
2.743799724409449
0
LINE
8
BLACK
6
CONTINUOUS
10
-0.2075342519685039
20
2.743799724409449
11
-0.2079751574803149
21
2.7448641338582678
0
LINE
8
BLACK
6
CONTINUOUS
10
-0.2079751574803149
20
2.7448641338582678
11
-0.2080318897637795
21
2.7454401968503936
0
LINE
8
BLACK
6
CONTINUOUS
10
-0.2080318897637795
20
2.7454401968503936
11
-0.2080318897637795
21
2.7818575196850395
0
LINE
8
BLACK
6
CONTINUOUS
10
-0.2080318897637795
20
2.7818575196850395
11
-0.2163277165354331
21
2.7818575196850395
0
LINE
8
BLACK
6
CONTINUOUS
10
-0.2163277165354331
20
2.7818575196850395
11
-0.216903779527559
21
2.7819142519685038
0
LINE
8
BLACK
6
CONTINUOUS
10
-0.216903779527559
20
2.7819142519685038
11
-0.217968188976378
21
2.7823551574803149
0
LINE
8
BLACK
6
CONTINUOUS
10
-0.217968188976378
20
2.7823551574803149
11
-0.2187828346456693
21
2.7831698031496064
0
LINE
8
BLACK
6
CONTINUOUS
10
-0.2187828346456693
20
2.7831698031496064
11
-0.2192237401574803
21
2.7842342125984252
0
LINE
8
BLACK
6
CONTINUOUS
10
-0.2192237401574803
20
2.7842342125984252
11
-0.2192237401574803
21
2.7853863385826769
0
LINE
8
BLACK
6
CONTINUOUS
10
-0.2192237401574803
20
2.7853863385826769
11
-0.2187828346456693
21
2.7864507480314962
0
LINE
8
BLACK
6
CONTINUOUS
10
-0.2187828346456693
20
2.7864507480314962
11
-0.217968188976378
21
2.7872653937007872
0
LINE
8
BLACK
6
CONTINUOUS
10
-0.217968188976378
20
2.7872653937007872
11
-0.216903779527559
21
2.7877062992125983
0
LINE
8
BLACK
6
CONTINUOUS
10
-0.216903779527559
20
2.7877062992125983
11
-0.2163277165354331
21
2.7877630314960631
0
LINE
8
BLACK
6
CONTINUOUS
10
-0.2163277165354331
20
2.7877630314960631
11
-0.1938305511811023
21
2.7877630314960631
0
LINE
8
BLACK
6
CONTINUOUS
10
-0.1938305511811023
20
2.7877630314960631
11
-0.1932544881889764
21
2.7877062992125983
0
LINE
8
BLACK
6
CONTINUOUS
10
-0.1060609842519685
20
2.7723685433070866
11
-0.1049965748031496
21
2.7719276377952755
0
LINE
8
BLACK
6
CONTINUOUS
10
-0.1049965748031496
20
2.7719276377952755
11
-0.1041819291338583
21
2.7711129921259841
0
LINE
8
BLACK
6
CONTINUOUS
10
-0.1041819291338583
20
2.7711129921259841
11
-0.1037410236220472
21
2.7700485826771652
0
LINE
8
BLACK
6
CONTINUOUS
10
-0.1037410236220472
20
2.7700485826771652
11
-0.1036842913385827
21
2.7694725196850394
0
LINE
8
BLACK
6
CONTINUOUS
10
-0.1036842913385827
20
2.7694725196850394
11
-0.1036842913385827
21
2.7600987007874016
0
LINE
8
BLACK
6
CONTINUOUS
10
-0.1036842913385827
20
2.7600987007874016
11
-0.103713031496063
21
2.7598071259842518
0
LINE
8
BLACK
6
CONTINUOUS
10
-0.103713031496063
20
2.7598071259842518
11
-0.1037074803149606
21
2.7597293700787402
0
LINE
8
BLACK
6
CONTINUOUS
10
-0.1037074803149606
20
2.7597293700787402
11
-0.1037307480314961
21
2.759627125984252
0
LINE
8
BLACK
6
CONTINUOUS
10
-0.1037307480314961
20
2.759627125984252
11
-0.1037410236220472
21
2.7595226377952757
0
LINE
8
BLACK
6
CONTINUOUS
10
-0.1037410236220472
20
2.7595226377952757
11
-0.103770905511811
21
2.759450590551181
0
LINE
8
BLACK
6
CONTINUOUS
10
-0.103770905511811
20
2.759450590551181
11
-0.1038358267716535
21
2.7591649212598424
0
LINE
8
BLACK
6
CONTINUOUS
10
-0.1038358267716535
20
2.7591649212598424
11
-0.1057105905511811
21
2.7535406692913384
0
LINE
8
BLACK
6
CONTINUOUS
10
-0.1057105905511811
20
2.7535406692913384
11
-0.1059465748031496
21
2.7530120866141732
0
LINE
8
BLACK
6
CONTINUOUS
10
-0.1059465748031496
20
2.7530120866141732
11
-0.106016062992126
21
2.7529320078740156
0
LINE
8
BLACK
6
CONTINUOUS
10
-0.106016062992126
20
2.7529320078740156
11
-0.1060566535433071
21
2.7528339370078738
0
LINE
8
BLACK
6
CONTINUOUS
10
-0.1060566535433071
20
2.7528339370078738
11
-0.1064238976377953
21
2.752386496062992
0
LINE
8
BLACK
6
CONTINUOUS
10
-0.1064238976377953
20
2.752386496062992
11
-0.1101734645669291
21
2.7486369685039369
0
LINE
8
BLACK
6
CONTINUOUS
10
-0.1101734645669291
20
2.7486369685039369
11
-0.110399842519685
21
2.7484512204724409
0
LINE
8
BLACK
6
CONTINUOUS
10
-0.110399842519685
20
2.7484512204724409
11
-0.1104509842519685
21
2.7483922047244094
0
LINE
8
BLACK
6
CONTINUOUS
10
-0.1104509842519685
20
2.7483922047244094
11
-0.1105399212598425
21
2.7483362598425196
0
LINE
8
BLACK
6
CONTINUOUS
10
-0.1105399212598425
20
2.7483362598425196
11
-0.1106209448818898
21
2.7482697244094489
0
LINE
8
BLACK
6
CONTINUOUS
10
-0.1106209448818898
20
2.7482697244094489
11
-0.1106929921259843
21
2.7482399212598425
0
LINE
8
BLACK
6
CONTINUOUS
10
-0.1106929921259843
20
2.7482399212598425
11
-0.1109408661417323
21
2.7480838582677163
0
LINE
8
BLACK
6
CONTINUOUS
10
-0.1109408661417323
20
2.7480838582677163
11
-0.1146903937007874
21
2.7462090944881887
0
LINE
8
BLACK
6
CONTINUOUS
10
-0.1146903937007874
20
2.7462090944881887
11
-0.1147325196850394
21
2.7461929921259842
0
LINE
8
BLACK
6
CONTINUOUS
10
-0.1147325196850394
20
2.7461929921259842
11
-0.1147496456692913
21
2.7461802755905511
0
LINE
8
BLACK
6
CONTINUOUS
10
-0.1147496456692913
20
2.7461802755905511
11
-0.1149916141732283
21
2.7460938582677166
0
LINE
8
BLACK
6
CONTINUOUS
10
-0.1149916141732283
20
2.7460938582677166
11
-0.1152310236220472
21
2.7460022047244093
0
LINE
8
BLACK
6
CONTINUOUS
10
-0.1152310236220472
20
2.7460022047244093
11
-0.1152522834645669
21
2.7460007086614171
0
LINE
8
BLACK
6
CONTINUOUS
10
-0.1152522834645669
20
2.7460007086614171
11
-0.1152947637795276
21
2.7459855118110235
0
LINE
8
BLACK
6
CONTINUOUS
10
-0.1152947637795276
20
2.7459855118110235
11
-0.1227938188976378
21
2.7441107480314959
0
LINE
8
BLACK
6
CONTINUOUS
10
-0.1227938188976378
20
2.7441107480314959
11
-0.1228937007874016
21
2.7440959842519685
0
LINE
8
BLACK
6
CONTINUOUS
10
-0.1228937007874016
20
2.7440959842519685
11
-0.1229338976377953
21
2.7440793307086615
0
LINE
8
BLACK
6
CONTINUOUS
10
-0.1229338976377953
20
2.7440793307086615
11
-0.1231509448818898
21
2.7440579921259842
0
LINE
8
BLACK
6
CONTINUOUS
10
-0.1231509448818898
20
2.7440579921259842
11
-0.1233664173228346
21
2.7440261023622048
0
LINE
8
BLACK
6
CONTINUOUS
10
-0.1233664173228346
20
2.7440261023622048
11
-0.1234094488188976
21
2.7440325196850393
0
LINE
8
BLACK
6
CONTINUOUS
10
-0.1234094488188976
20
2.7440325196850393
11
-0.1235099606299213
21
2.7440225984251967
0
LINE
8
BLACK
6
CONTINUOUS
10
-0.1235099606299213
20
2.7440225984251967
11
-0.1291342519685039
21
2.7440225984251967
0
LINE
8
BLACK
6
CONTINUOUS
10
-0.1291342519685039
20
2.7440225984251967
11
-0.1292348031496063
21
2.7440325196850393
0
LINE
8
BLACK
6
CONTINUOUS
10
-0.1292348031496063
20
2.7440325196850393
11
-0.1292777952755906
21
2.7440261023622048
0
LINE
8
BLACK
6
CONTINUOUS
10
-0.1292777952755906
20
2.7440261023622048
11
-0.1294933070866142
21
2.7440579921259842
0
LINE
8
BLACK
6
CONTINUOUS
10
-0.1294933070866142
20
2.7440579921259842
11
-0.1297103149606299
21
2.7440793307086615
0
LINE
8
BLACK
6
CONTINUOUS
10
-0.1297103149606299
20
2.7440793307086615
11
-0.1297505511811023
21
2.7440959842519685
0
LINE
8
BLACK
6
CONTINUOUS
10
-0.1297505511811023
20
2.7440959842519685
11
-0.1298503937007874
21
2.7441107480314959
0
LINE
8
BLACK
6
CONTINUOUS
10
-0.1298503937007874
20
2.7441107480314959
11
-0.1373494488188976
21
2.7459855118110235
0
LINE
8
BLACK
6
CONTINUOUS
10
-0.1373494488188976
20
2.7459855118110235
11
-0.137391968503937
21
2.7460007086614171
0
LINE
8
BLACK
6
CONTINUOUS
10
-0.137391968503937
20
2.7460007086614171
11
-0.1374132283464567
21
2.7460022047244093
0
LINE
8
BLACK
6
CONTINUOUS
10
-0.1374132283464567
20
2.7460022047244093
11
-0.1376529921259843
21
2.7460939763779528
0
LINE
8
BLACK
6
CONTINUOUS
10
-0.1376529921259843
20
2.7460939763779528
11
-0.1378945669291338
21
2.7461802755905511
0
LINE
8
BLACK
6
CONTINUOUS
10
-0.1378945669291338
20
2.7461802755905511
11
-0.1379117322834646
21
2.7461929921259842
0
LINE
8
BLACK
6
CONTINUOUS
10
-0.1379117322834646
20
2.7461929921259842
11
-0.1379538188976378
21
2.7462090944881887
0
LINE
8
BLACK
6
CONTINUOUS
10
-0.1379538188976378
20
2.7462090944881887
11
-0.1417033464566929
21
2.7480838582677163
0
LINE
8
BLACK
6
CONTINUOUS
10
-0.1417033464566929
20
2.7480838582677163
11
-0.1419511811023622
21
2.7482398818897638
0
LINE
8
BLACK
6
CONTINUOUS
10
-0.1419511811023622
20
2.7482398818897638
11
-0.1420233070866142
21
2.7482697244094489
0
LINE
8
BLACK
6
CONTINUOUS
10
-0.1420233070866142
20
2.7482697244094489
11
-0.1421044881889764
21
2.7483363385826771
0
LINE
8
BLACK
6
CONTINUOUS
10
-0.1421044881889764
20
2.7483363385826771
11
-0.1421932283464567
21
2.7483922047244094
0
LINE
8
BLACK
6
CONTINUOUS
10
-0.1421932283464567
20
2.7483922047244094
11
-0.1422443700787402
21
2.7484511417322834
0
LINE
8
BLACK
6
CONTINUOUS
10
-0.1422443700787402
20
2.7484511417322834
11
-0.1424707480314961
21
2.7486369685039369
0
LINE
8
BLACK
6
CONTINUOUS
10
-0.1424707480314961
20
2.7486369685039369
11
-0.1462202755905512
21
2.752386496062992
0
LINE
8
BLACK
6
CONTINUOUS
10
-0.1462202755905512
20
2.752386496062992
11
-0.1465874803149606
21
2.7528339370078738
0
LINE
8
BLACK
6
CONTINUOUS
10
-0.1465874803149606
20
2.7528339370078738
11
-0.1466281102362205
21
2.7529320078740156
0
LINE
8
BLACK
6
CONTINUOUS
10
-0.1466281102362205
20
2.7529320078740156
11
-0.1466975984251968
21
2.7530121259842519
0
LINE
8
BLACK
6
CONTINUOUS
10
-0.1466975984251968
20
2.7530121259842519
11
-0.1469335826771654
21
2.7535406692913384
0
LINE
8
BLACK
6
CONTINUOUS
10
-0.1469335826771654
20
2.7535406692913384
11
-0.1488083464566929
21
2.7591649606299211
0
LINE
8
BLACK
6
CONTINUOUS
10
-0.1488083464566929
20
2.7591649606299211
11
-0.1488733070866142
21
2.7594505511811023
0
LINE
8
BLACK
6
CONTINUOUS
10
-0.1488733070866142
20
2.7594505511811023
11
-0.1489031496062992
21
2.7595226377952757
0
LINE
8
BLACK
6
CONTINUOUS
10
-0.1489031496062992
20
2.7595226377952757
11
-0.1489134645669291
21
2.7596271653543307
0
LINE
8
BLACK
6
CONTINUOUS
10
-0.1489134645669291
20
2.7596271653543307
11
-0.1489366929133858
21
2.7597294094488189
0
LINE
8
BLACK
6
CONTINUOUS
10
-0.1489366929133858
20
2.7597294094488189
11
-0.1489311811023622
21
2.7598071653543306
0
LINE
8
BLACK
6
CONTINUOUS
10
-0.1489311811023622
20
2.7598071653543306
11
-0.1489598818897638
21
2.7600987007874016
0
LINE
8
BLACK
6
CONTINUOUS
10
-0.1489598818897638
20
2.7600987007874016
11
-0.1489598818897638
21
2.7694725196850394
0
LINE
8
BLACK
6
CONTINUOUS
10
-0.1489598818897638
20
2.7694725196850394
11
-0.1489031496062992
21
2.7700485826771652
0
LINE
8
BLACK
6
CONTINUOUS
10
-0.1489031496062992
20
2.7700485826771652
11
-0.1484622440944882
21
2.7711129921259841
0
LINE
8
BLACK
6
CONTINUOUS
10
-0.1484622440944882
20
2.7711129921259841
11
-0.1476475984251968
21
2.7719276377952755
0
LINE
8
BLACK
6
CONTINUOUS
10
-0.1476475984251968
20
2.7719276377952755
11
-0.146583188976378
21
2.7723685433070866
0
LINE
8
BLACK
6
CONTINUOUS
10
-0.146583188976378
20
2.7723685433070866
11
-0.146007125984252
21
2.772425275590551
0
LINE
8
BLACK
6
CONTINUOUS
10
-0.146007125984252
20
2.772425275590551
11
-0.1066370472440945
21
2.772425275590551
0
LINE
8
BLACK
6
CONTINUOUS
10
-0.1066370472440945
20
2.772425275590551
11
-0.1060609842519685
21
2.7723685433070866
0
LINE
8
BLACK
6
CONTINUOUS
10
-0.1430543700787402
20
2.7605778740157478
11
-0.1415515748031496
21
2.7560694488188977
0
LINE
8
BLACK
6
CONTINUOUS
10
-0.1415515748031496
20
2.7560694488188977
11
-0.1386337401574803
21
2.7531516141732282
0
LINE
8
BLACK
6
CONTINUOUS
10
-0.1386337401574803
20
2.7531516141732282
11
-0.1356027559055118
21
2.7516361417322832
0
LINE
8
BLACK
6
CONTINUOUS
10
-0.1356027559055118
20
2.7516361417322832
11
-0.1287707086614173
21
2.7499281102362203
0
LINE
8
BLACK
6
CONTINUOUS
10
-0.1287707086614173
20
2.7499281102362203
11
-0.1238735039370079
21
2.7499281102362203
0
LINE
8
BLACK
6
CONTINUOUS
10
-0.1238735039370079
20
2.7499281102362203
11
-0.1170414566929134
21
2.7516361417322832
0
LINE
8
BLACK
6
CONTINUOUS
10
-0.1170414566929134
20
2.7516361417322832
11
-0.1140104724409449
21
2.7531516535433069
0
LINE
8
BLACK
6
CONTINUOUS
10
-0.1140104724409449
20
2.7531516535433069
11
-0.1110925984251969
21
2.7560694881889765
0
LINE
8
BLACK
6
CONTINUOUS
10
-0.1110925984251969
20
2.7560694881889765
11
-0.1095898031496063
21
2.7605778346456691
0
LINE
8
BLACK
6
CONTINUOUS
10
-0.1095898031496063
20
2.7605778346456691
11
-0.1095898031496063
21
2.7665197637795274
0
LINE
8
BLACK
6
CONTINUOUS
10
-0.1095898031496063
20
2.7665197637795274
11
-0.1430543700787402
21
2.7665197637795274
0
LINE
8
BLACK
6
CONTINUOUS
10
-0.1430543700787402
20
2.7665197637795274
11
-0.1430543700787402
21
2.7605778740157478
0
LINE
8
BLACK
6
CONTINUOUS
10
-0.1060609842519685
20
2.8136133858267716
11
-0.1049965748031496
21
2.8131724803149605
0
LINE
8
BLACK
6
CONTINUOUS
10
-0.1049965748031496
20
2.8131724803149605
11
-0.1041819291338583
21
2.812357834645669
0
LINE
8
BLACK
6
CONTINUOUS
10
-0.1041819291338583
20
2.812357834645669
11
-0.1037410236220472
21
2.8112934251968502
0
LINE
8
BLACK
6
CONTINUOUS
10
-0.1037410236220472
20
2.8112934251968502
11
-0.1037410236220472
21
2.8101412992125985
0
LINE
8
BLACK
6
CONTINUOUS
10
-0.1037410236220472
20
2.8101412992125985
11
-0.1041819291338583
21
2.8090768897637797
0
LINE
8
BLACK
6
CONTINUOUS
10
-0.1041819291338583
20
2.8090768897637797
11
-0.1049965748031496
21
2.8082622440944882
0
LINE
8
BLACK
6
CONTINUOUS
10
-0.1049965748031496
20
2.8082622440944882
11
-0.1060609842519685
21
2.8078213385826771
0
LINE
8
BLACK
6
CONTINUOUS
10
-0.1060609842519685
20
2.8078213385826771
11
-0.1066370472440945
21
2.8077646062992123
0
LINE
8
BLACK
6
CONTINUOUS
10
-0.1066370472440945
20
2.8077646062992123
11
-0.1348883464566929
21
2.8077646062992123
0
LINE
8
BLACK
6
CONTINUOUS
10
-0.1348883464566929
20
2.8077646062992123
11
-0.1051720472440945
21
2.790783897637795
0
LINE
8
BLACK
6
CONTINUOUS
10
-0.1051720472440945
20
2.790783897637795
11
-0.1050506299212598
21
2.790697716535433
0
LINE
8
BLACK
6
CONTINUOUS
10
-0.1050506299212598
20
2.790697716535433
11
-0.1049965748031496
21
2.7906753149606298
0
LINE
8
BLACK
6
CONTINUOUS
10
-0.1049965748031496
20
2.7906753149606298
11
-0.1049415748031496
21
2.7906203149606297
0
LINE
8
BLACK
6
CONTINUOUS
10
-0.1049415748031496
20
2.7906203149606297
11
-0.1047000393700787
21
2.7904488582677165
0
LINE
8
BLACK
6
CONTINUOUS
10
-0.1047000393700787
20
2.7904488582677165
11
-0.1044595669291339
21
2.7901383070866141
0
LINE
8
BLACK
6
CONTINUOUS
10
-0.1044595669291339
20
2.7901383070866141
11
-0.1041819291338583
21
2.7898606692913384
0
LINE
8
BLACK
6
CONTINUOUS
10
-0.1041819291338583
20
2.7898606692913384
11
-0.1041098818897638
21
2.7896867322834646
0
LINE
8
BLACK
6
CONTINUOUS
10
-0.1041098818897638
20
2.7896867322834646
11
-0.1039946456692913
21
2.7895379133858267
0
LINE
8
BLACK
6
CONTINUOUS
10
-0.1039946456692913
20
2.7895379133858267
11
-0.1038913385826772
21
2.7891591338582677
0
LINE
8
BLACK
6
CONTINUOUS
10
-0.1038913385826772
20
2.7891591338582677
11
-0.1037410236220472
21
2.7887962598425196
0
LINE
8
BLACK
6
CONTINUOUS
10
-0.1037410236220472
20
2.7887962598425196
11
-0.1037410236220472
21
2.7886080708661418
0
LINE
8
BLACK
6
CONTINUOUS
10
-0.1037410236220472
20
2.7886080708661418
11
-0.1036914960629921
21
2.7884264566929131
0
LINE
8
BLACK
6
CONTINUOUS
10
-0.1036914960629921
20
2.7884264566929131
11
-0.1037410236220472
21
2.7880368503937007
0
LINE
8
BLACK
6
CONTINUOUS
10
-0.1037410236220472
20
2.7880368503937007
11
-0.1037410236220472
21
2.7876441338582678
0
LINE
8
BLACK
6
CONTINUOUS
10
-0.1037410236220472
20
2.7876441338582678
11
-0.1038130708661417
21
2.7874703149606299
0
LINE
8
BLACK
6
CONTINUOUS
10
-0.1038130708661417
20
2.7874703149606299
11
-0.1038367716535433
21
2.7872835433070864
0
LINE
8
BLACK
6
CONTINUOUS
10
-0.1038367716535433
20
2.7872835433070864
11
-0.1040316929133858
21
2.7869424409448817
0
LINE
8
BLACK
6
CONTINUOUS
10
-0.1040316929133858
20
2.7869424409448817
11
-0.1041819291338583
21
2.7865797244094486
0
LINE
8
BLACK
6
CONTINUOUS
10
-0.1041819291338583
20
2.7865797244094486
11
-0.1043149606299213
21
2.7864467322834643
0
LINE
8
BLACK
6
CONTINUOUS
10
-0.1043149606299213
20
2.7864467322834643
11
-0.1044083858267717
21
2.7862831889763777
0
LINE
8
BLACK
6
CONTINUOUS
10
-0.1044083858267717
20
2.7862831889763777
11
-0.1047190157480315
21
2.7860426771653541
0
LINE
8
BLACK
6
CONTINUOUS
10
-0.1047190157480315
20
2.7860426771653541
11
-0.1049965748031496
21
2.7857650787401576
0
LINE
8
BLACK
6
CONTINUOUS
10
-0.1049965748031496
20
2.7857650787401576
11
-0.1051704724409449
21
2.7856930708661416
0
LINE
8
BLACK
6
CONTINUOUS
10
-0.1051704724409449
20
2.7856930708661416
11
-0.1053192913385827
21
2.7855777952755907
0
LINE
8
BLACK
6
CONTINUOUS
10
-0.1053192913385827
20
2.7855777952755907
11
-0.1056981889763779
21
2.7854744881889761
0
LINE
8
BLACK
6
CONTINUOUS
10
-0.1056981889763779
20
2.7854744881889761
11
-0.1060609842519685
21
2.7853241732283465
0
LINE
8
BLACK
6
CONTINUOUS
10
-0.1060609842519685
20
2.7853241732283465
11
-0.1063555905511811
21
2.7852951968503938
0
LINE
8
BLACK
6
CONTINUOUS
10
-0.1063555905511811
20
2.7852951968503938
11
-0.1064307874015748
21
2.7852746456692912
0
LINE
8
BLACK
6
CONTINUOUS
10
-0.1064307874015748
20
2.7852746456692912
11
-0.1064888976377953
21
2.7852820472440944
0
LINE
8
BLACK
6
CONTINUOUS
10
-0.1064888976377953
20
2.7852820472440944
11
-0.1066370472440945
21
2.7852674409448817
0
LINE
8
BLACK
6
CONTINUOUS
10
-0.1066370472440945
20
2.7852674409448817
11
-0.146007125984252
21
2.7852674409448817
0
LINE
8
BLACK
6
CONTINUOUS
10
-0.146007125984252
20
2.7852674409448817
11
-0.146583188976378
21
2.7853241732283465
0
LINE
8
BLACK
6
CONTINUOUS
10
-0.146583188976378
20
2.7853241732283465
11
-0.1476475984251968
21
2.7857650787401576
0
LINE
8
BLACK
6
CONTINUOUS
10
-0.1476475984251968
20
2.7857650787401576
11
-0.1484622440944882
21
2.7865797244094486
0
LINE
8
BLACK
6
CONTINUOUS
10
-0.1484622440944882
20
2.7865797244094486
11
-0.1489031496062992
21
2.7876441338582678
0
LINE
8
BLACK
6
CONTINUOUS
10
-0.1489031496062992
20
2.7876441338582678
11
-0.1489031496062992
21
2.7887962598425196
0
LINE
8
BLACK
6
CONTINUOUS
10
-0.1489031496062992
20
2.7887962598425196
11
-0.1484622440944882
21
2.7898606692913384
0
LINE
8
BLACK
6
CONTINUOUS
10
-0.1484622440944882
20
2.7898606692913384
11
-0.1476475984251968
21
2.7906753149606298
0
LINE
8
BLACK
6
CONTINUOUS
10
-0.1476475984251968
20
2.7906753149606298
11
-0.146583188976378
21
2.7911162204724409
0
LINE
8
BLACK
6
CONTINUOUS
10
-0.146583188976378
20
2.7911162204724409
11
-0.146007125984252
21
2.7911729527559053
0
LINE
8
BLACK
6
CONTINUOUS
10
-0.146007125984252
20
2.7911729527559053
11
-0.1177558267716535
21
2.7911729527559053
0
LINE
8
BLACK
6
CONTINUOUS
10
-0.1177558267716535
20
2.7911729527559053
11
-0.1474720866141732
21
2.8081536614173226
0
LINE
8
BLACK
6
CONTINUOUS
10
-0.1474720866141732
20
2.8081536614173226
11
-0.1475935039370079
21
2.8082398425196851
0
LINE
8
BLACK
6
CONTINUOUS
10
-0.1475935039370079
20
2.8082398425196851
11
-0.1476475984251968
21
2.8082622440944882
0
LINE
8
BLACK
6
CONTINUOUS
10
-0.1476475984251968
20
2.8082622440944882
11
-0.1477027165354331
21
2.8083173622047242
0
LINE
8
BLACK
6
CONTINUOUS
10
-0.1477027165354331
20
2.8083173622047242
11
-0.1479441338582677
21
2.8084887007874015
0
LINE
8
BLACK
6
CONTINUOUS
10
-0.1479441338582677
20
2.8084887007874015
11
-0.1481846850393701
21
2.8087993307086614
0
LINE
8
BLACK
6
CONTINUOUS
10
-0.1481846850393701
20
2.8087993307086614
11
-0.1484622440944882
21
2.8090768897637797
0
LINE
8
BLACK
6
CONTINUOUS
10
-0.1484622440944882
20
2.8090768897637797
11
-0.1485342913385827
21
2.8092507874015746
0
LINE
8
BLACK
6
CONTINUOUS
10
-0.1485342913385827
20
2.8092507874015746
11
-0.1486495275590551
21
2.8093996062992126
0
LINE
8
BLACK
6
CONTINUOUS
10
-0.1486495275590551
20
2.8093996062992126
11
-0.148752874015748
21
2.8097785039370078
0
LINE
8
BLACK
6
CONTINUOUS
10
-0.148752874015748
20
2.8097785039370078
11
-0.1489031496062992
21
2.8101412992125985
0
LINE
8
BLACK
6
CONTINUOUS
10
-0.1489031496062992
20
2.8101412992125985
11
-0.1489031496062992
21
2.810329527559055
0
LINE
8
BLACK
6
CONTINUOUS
10
-0.1489031496062992
20
2.810329527559055
11
-0.1489526771653543
21
2.8105111023622045
0
LINE
8
BLACK
6
CONTINUOUS
10
-0.1489526771653543
20
2.8105111023622045
11
-0.1489031496062992
21
2.810900748031496
0
LINE
8
BLACK
6
CONTINUOUS
10
-0.1489031496062992
20
2.810900748031496
11
-0.1489031496062992
21
2.8112934251968502
0
LINE
8
BLACK
6
CONTINUOUS
10
-0.1489031496062992
20
2.8112934251968502
11
-0.1488311417322835
21
2.8114672834645669
0
LINE
8
BLACK
6
CONTINUOUS
10
-0.1488311417322835
20
2.8114672834645669
11
-0.1488074015748032
21
2.8116540157480316
0
LINE
8
BLACK
6
CONTINUOUS
10
-0.1488074015748032
20
2.8116540157480316
11
-0.1486125196850394
21
2.811995157480315
0
LINE
8
BLACK
6
CONTINUOUS
10
-0.1486125196850394
20
2.811995157480315
11
-0.1484622440944882
21
2.812357834645669
0
LINE
8
BLACK
6
CONTINUOUS
10
-0.1484622440944882
20
2.812357834645669
11
-0.1483292519685039
21
2.812490866141732
0
LINE
8
BLACK
6
CONTINUOUS
10
-0.1483292519685039
20
2.812490866141732
11
-0.1482357874015748
21
2.8126543700787403
0
LINE
8
BLACK
6
CONTINUOUS
10
-0.1482357874015748
20
2.8126543700787403
11
-0.1479251968503937
21
2.8128949212598426
0
LINE
8
BLACK
6
CONTINUOUS
10
-0.1479251968503937
20
2.8128949212598426
11
-0.1476475984251968
21
2.8131724803149605
0
LINE
8
BLACK
6
CONTINUOUS
10
-0.1476475984251968
20
2.8131724803149605
11
-0.1474737401574803
21
2.8132445275590552
0
LINE
8
BLACK
6
CONTINUOUS
10
-0.1474737401574803
20
2.8132445275590552
11
-0.1473248818897638
21
2.8133597637795273
0
LINE
8
BLACK
6
CONTINUOUS
10
-0.1473248818897638
20
2.8133597637795273
11
-0.1469460236220472
21
2.8134631102362202
0
LINE
8
BLACK
6
CONTINUOUS
10
-0.1469460236220472
20
2.8134631102362202
11
-0.146583188976378
21
2.8136133858267716
0
LINE
8
BLACK
6
CONTINUOUS
10
-0.146583188976378
20
2.8136133858267716
11
-0.1462886220472441
21
2.8136424015748029
0
LINE
8
BLACK
6
CONTINUOUS
10
-0.1462886220472441
20
2.8136424015748029
11
-0.1462133858267717
21
2.8136629133858269
0
LINE
8
BLACK
6
CONTINUOUS
10
-0.1462133858267717
20
2.8136629133858269
11
-0.1461553149606299
21
2.8136555511811023
0
LINE
8
BLACK
6
CONTINUOUS
10
-0.1461553149606299
20
2.8136555511811023
11
-0.146007125984252
21
2.8136701181102364
0
LINE
8
BLACK
6
CONTINUOUS
10
-0.146007125984252
20
2.8136701181102364
11
-0.1066370472440945
21
2.8136701181102364
0
LINE
8
BLACK
6
CONTINUOUS
10
-0.1066370472440945
20
2.8136701181102364
11
-0.1060609842519685
21
2.8136133858267716
0
LINE
8
BLACK
6
CONTINUOUS
10
-0.1234094488188976
20
2.8549050787401575
11
-0.1233664173228346
21
2.8549114566929132
0
LINE
8
BLACK
6
CONTINUOUS
10
-0.1233664173228346
20
2.8549114566929132
11
-0.1231509448818898
21
2.8548796062992126
0
LINE
8
BLACK
6
CONTINUOUS
10
-0.1231509448818898
20
2.8548796062992126
11
-0.1229338976377953
21
2.8548582283464565
0
LINE
8
BLACK
6
CONTINUOUS
10
-0.1229338976377953
20
2.8548582283464565
11
-0.1228937007874016
21
2.8548416141732282
0
LINE
8
BLACK
6
CONTINUOUS
10
-0.1228937007874016
20
2.8548416141732282
11
-0.1227938188976378
21
2.8548268110236221
0
LINE
8
BLACK
6
CONTINUOUS
10
-0.1227938188976378
20
2.8548268110236221
11
-0.1152947637795276
21
2.8529520472440946
0
LINE
8
BLACK
6
CONTINUOUS
10
-0.1152947637795276
20
2.8529520472440946
11
-0.1152522834645669
21
2.8529368897637797
0
LINE
8
BLACK
6
CONTINUOUS
10
-0.1152522834645669
20
2.8529368897637797
11
-0.1152310236220472
21
2.8529353543307088
0
LINE
8
BLACK
6
CONTINUOUS
10
-0.1152310236220472
20
2.8529353543307088
11
-0.1149916141732283
21
2.8528437401574802
0
LINE
8
BLACK
6
CONTINUOUS
10
-0.1149916141732283
20
2.8528437401574802
11
-0.1147496456692913
21
2.8527572834645669
0
LINE
8
BLACK
6
CONTINUOUS
10
-0.1147496456692913
20
2.8527572834645669
11
-0.1147325196850394
21
2.8527446062992126
0
LINE
8
BLACK
6
CONTINUOUS
10
-0.1147325196850394
20
2.8527446062992126
11
-0.1146903937007874
21
2.8527284645669289
0
LINE
8
BLACK
6
CONTINUOUS
10
-0.1146903937007874
20
2.8527284645669289
11
-0.1109408661417323
21
2.8508537007874013
0
LINE
8
BLACK
6
CONTINUOUS
10
-0.1109408661417323
20
2.8508537007874013
11
-0.1106929921259843
21
2.8506976771653543
0
LINE
8
BLACK
6
CONTINUOUS
10
-0.1106929921259843
20
2.8506976771653543
11
-0.1106209448818898
21
2.8506678346456691
0
LINE
8
BLACK
6
CONTINUOUS
10
-0.1106209448818898
20
2.8506678346456691
11
-0.1105399212598425
21
2.8506013385826772
0
LINE
8
BLACK
6
CONTINUOUS
10
-0.1105399212598425
20
2.8506013385826772
11
-0.1104509842519685
21
2.8505453543307087
0
LINE
8
BLACK
6
CONTINUOUS
10
-0.1104509842519685
20
2.8505453543307087
11
-0.110399842519685
21
2.8504863779527558
0
LINE
8
BLACK
6
CONTINUOUS
10
-0.110399842519685
20
2.8504863779527558
11
-0.1101734645669291
21
2.8503005905511811
0
LINE
8
BLACK
6
CONTINUOUS
10
-0.1101734645669291
20
2.8503005905511811
11
-0.1064238976377953
21
2.846551062992126
0
LINE
8
BLACK
6
CONTINUOUS
10
-0.1064238976377953
20
2.846551062992126
11
-0.1060566535433071
21
2.8461036220472442
0
LINE
8
BLACK
6
CONTINUOUS
10
-0.1060566535433071
20
2.8461036220472442
11
-0.106016062992126
21
2.8460055905511812
0
LINE
8
BLACK
6
CONTINUOUS
10
-0.106016062992126
20
2.8460055905511812
11
-0.1059465748031496
21
2.8459254724409448
0
LINE
8
BLACK
6
CONTINUOUS
10
-0.1059465748031496
20
2.8459254724409448
11
-0.1057105905511811
21
2.8453968897637796
0
LINE
8
BLACK
6
CONTINUOUS
10
-0.1057105905511811
20
2.8453968897637796
11
-0.1038358267716535
21
2.8397726377952757
0
LINE
8
BLACK
6
CONTINUOUS
10
-0.1038358267716535
20
2.8397726377952757
11
-0.103770905511811
21
2.8394870078740158
0
LINE
8
BLACK
6
CONTINUOUS
10
-0.103770905511811
20
2.8394870078740158
11
-0.1037410236220472
21
2.8394149212598423
0
LINE
8
BLACK
6
CONTINUOUS
10
-0.1037410236220472
20
2.8394149212598423
11
-0.1037307480314961
21
2.8393104724409448
0
LINE
8
BLACK
6
CONTINUOUS
10
-0.1037307480314961
20
2.8393104724409448
11
-0.1037074803149606
21
2.8392081889763778
0
LINE
8
BLACK
6
CONTINUOUS
10
-0.1037074803149606
20
2.8392081889763778
11
-0.103713031496063
21
2.839130472440945
0
LINE
8
BLACK
6
CONTINUOUS
10
-0.103713031496063
20
2.839130472440945
11
-0.1036842913385827
21
2.8388388582677164
0
LINE
8
BLACK
6
CONTINUOUS
10
-0.1036842913385827
20
2.8388388582677164
11
-0.1036842913385827
21
2.8350893307086613
0
LINE
8
BLACK
6
CONTINUOUS
10
-0.1036842913385827
20
2.8350893307086613
11
-0.103713031496063
21
2.8347977559055115
0
LINE
8
BLACK
6
CONTINUOUS
10
-0.103713031496063
20
2.8347977559055115
11
-0.1037074803149606
21
2.8347199999999999
0
LINE
8
BLACK
6
CONTINUOUS
10
-0.1037074803149606
20
2.8347199999999999
11
-0.1037307480314961
21
2.8346177559055117
0
LINE
8
BLACK
6
CONTINUOUS
10
-0.1037307480314961
20
2.8346177559055117
11
-0.1037410236220472
21
2.8345132677165354
0
LINE
8
BLACK
6
CONTINUOUS
10
-0.1037410236220472
20
2.8345132677165354
11
-0.103770905511811
21
2.8344412204724407
0
LINE
8
BLACK
6
CONTINUOUS
10
-0.103770905511811
20
2.8344412204724407
11
-0.1038358267716535
21
2.8341555511811025
0
LINE
8
BLACK
6
CONTINUOUS
10
-0.1038358267716535
20
2.8341555511811025
11
-0.1057105905511811
21
2.8285312992125982
0
LINE
8
BLACK
6
CONTINUOUS
10
-0.1057105905511811
20
2.8285312992125982
11
-0.1059465748031496
21
2.8280027165354329
0
LINE
8
BLACK
6
CONTINUOUS
10
-0.1059465748031496
20
2.8280027165354329
11
-0.1060161417322835
21
2.8279225590551182
0
LINE
8
BLACK
6
CONTINUOUS
10
-0.1060161417322835
20
2.8279225590551182
11
-0.1060566929133858
21
2.827824566929134
0
LINE
8
BLACK
6
CONTINUOUS
10
-0.1060566929133858
20
2.827824566929134
11
-0.106423937007874
21
2.827377086614173
0
LINE
8
BLACK
6
CONTINUOUS
10
-0.106423937007874
20
2.827377086614173
11
-0.1082987401574803
21
2.8255023228346454
0
LINE
8
BLACK
6
CONTINUOUS
10
-0.1082987401574803
20
2.8255023228346454
11
-0.1087461811023622
21
2.8251351181102362
0
LINE
8
BLACK
6
CONTINUOUS
10
-0.1087461811023622
20
2.8251351181102362
11
-0.1093696850393701
21
2.8248768897637793
0
LINE
8
BLACK
6
CONTINUOUS
10
-0.1093696850393701
20
2.8248768897637793
11
-0.1098105511811024
21
2.8246942519685039
0
LINE
8
BLACK
6
CONTINUOUS
10
-0.1098105511811024
20
2.8246942519685039
11
-0.1103866141732283
21
2.8246375196850395
0
LINE
8
BLACK
6
CONTINUOUS
10
-0.1103866141732283
20
2.8246375196850395
11
-0.1235099606299213
21
2.8246375196850395
0
LINE
8
BLACK
6
CONTINUOUS
10
-0.1235099606299213
20
2.8246375196850395
11
-0.1240860236220472
21
2.8246942519685039
0
LINE
8
BLACK
6
CONTINUOUS
10
-0.1240860236220472
20
2.8246942519685039
11
-0.1251504330708662
21
2.825135157480315
0
LINE
8
BLACK
6
CONTINUOUS
10
-0.1251504330708662
20
2.825135157480315
11
-0.1259650787401575
21
2.8259498031496064
0
LINE
8
BLACK
6
CONTINUOUS
10
-0.1259650787401575
20
2.8259498031496064
11
-0.1264059842519685
21
2.8270142125984252
0
LINE
8
BLACK
6
CONTINUOUS
10
-0.1264059842519685
20
2.8270142125984252
11
-0.1264059842519685
21
2.827014251968504
0
LINE
8
BLACK
6
CONTINUOUS
10
-0.1264059842519685
20
2.827014251968504
11
-0.1264627165354331
21
2.8275902755905511
0
LINE
8
BLACK
6
CONTINUOUS
10
-0.1264627165354331
20
2.8275902755905511
11
-0.1264627165354331
21
2.8350893307086613
0
LINE
8
BLACK
6
CONTINUOUS
10
-0.1264627165354331
20
2.8350893307086613
11
-0.1264059842519685
21
2.8356653937007872
0
LINE
8
BLACK
6
CONTINUOUS
10
-0.1264059842519685
20
2.8356653937007872
11
-0.1259650787401575
21
2.8367298031496064
0
LINE
8
BLACK
6
CONTINUOUS
10
-0.1259650787401575
20
2.8367298031496064
11
-0.1251504330708662
21
2.8375444488188974
0
LINE
8
BLACK
6
CONTINUOUS
10
-0.1251504330708662
20
2.8375444488188974
11
-0.1240860236220472
21
2.8379853543307085
0
LINE
8
BLACK
6
CONTINUOUS
10
-0.1240860236220472
20
2.8379853543307085
11
-0.1229338976377953
21
2.8379853543307085
0
LINE
8
BLACK
6
CONTINUOUS
10
-0.1229338976377953
20
2.8379853543307085
11
-0.1218694881889764
21
2.8375444488188974
0
LINE
8
BLACK
6
CONTINUOUS
10
-0.1218694881889764
20
2.8375444488188974
11
-0.121054842519685
21
2.8367298031496064
0
LINE
8
BLACK
6
CONTINUOUS
10
-0.121054842519685
20
2.8367298031496064
11
-0.120613937007874
21
2.8356653937007872
0
LINE
8
BLACK
6
CONTINUOUS
10
-0.120613937007874
20
2.8356653937007872
11
-0.1205572047244095
21
2.8350893307086613
0
LINE
8
BLACK
6
CONTINUOUS
10
-0.1205572047244095
20
2.8350893307086613
11
-0.1205572047244095
21
2.8305430314960631
0
LINE
8
BLACK
6
CONTINUOUS
10
-0.1205572047244095
20
2.8305430314960631
11
-0.1116096850393701
21
2.8305430314960631
0
LINE
8
BLACK
6
CONTINUOUS
10
-0.1116096850393701
20
2.8305430314960631
11
-0.1110925984251969
21
2.8310601181102362
0
LINE
8
BLACK
6
CONTINUOUS
10
-0.1110925984251969
20
2.8310601181102362
11
-0.1095898031496063
21
2.8355684645669292
0
LINE
8
BLACK
6
CONTINUOUS
10
-0.1095898031496063
20
2.8355684645669292
11
-0.1095898031496063
21
2.8383597244094489
0
LINE
8
BLACK
6
CONTINUOUS
10
-0.1095898031496063
20
2.8383597244094489
11
-0.1110925984251969
21
2.8428681102362203
0
LINE
8
BLACK
6
CONTINUOUS
10
-0.1110925984251969
20
2.8428681102362203
11
-0.1140104724409449
21
2.8457859448818899
0
LINE
8
BLACK
6
CONTINUOUS
10
-0.1140104724409449
20
2.8457859448818899
11
-0.1170414566929134
21
2.8473014566929131
0
LINE
8
BLACK
6
CONTINUOUS
10
-0.1170414566929134
20
2.8473014566929131
11
-0.1238735039370079
21
2.8490094488188977
0
LINE
8
BLACK
6
CONTINUOUS
10
-0.1238735039370079
20
2.8490094488188977
11
-0.1287707086614173
21
2.8490094488188977
0
LINE
8
BLACK
6
CONTINUOUS
10
-0.1287707086614173
20
2.8490094488188977
11
-0.1356027559055118
21
2.8473014566929131
0
LINE
8
BLACK
6
CONTINUOUS
10
-0.1356027559055118
20
2.8473014566929131
11
-0.1386337401574803
21
2.8457859448818899
0
LINE
8
BLACK
6
CONTINUOUS
10
-0.1386337401574803
20
2.8457859448818899
11
-0.1415515748031496
21
2.8428681496062991
0
LINE
8
BLACK
6
CONTINUOUS
10
-0.1415515748031496
20
2.8428681496062991
11
-0.1430543700787402
21
2.8383597244094489
0
LINE
8
BLACK
6
CONTINUOUS
10
-0.1430543700787402
20
2.8383597244094489
11
-0.1430543700787402
21
2.8339116141732283
0
LINE
8
BLACK
6
CONTINUOUS
10
-0.1430543700787402
20
2.8339116141732283
11
-0.1414913385826772
21
2.8307855511811022
0
LINE
8
BLACK
6
CONTINUOUS
10
-0.1414913385826772
20
2.8307855511811022
11
-0.1412844488188976
21
2.8302449606299214
0
LINE
8
BLACK
6
CONTINUOUS
10
-0.1412844488188976
20
2.8302449606299214
11
-0.1412027952755905
21
2.829095748031496
0
LINE
8
BLACK
6
CONTINUOUS
10
-0.1412027952755905
20
2.829095748031496
11
-0.141567125984252
21
2.8280027559055116
0
LINE
8
BLACK
6
CONTINUOUS
10
-0.141567125984252
20
2.8280027559055116
11
-0.142321968503937
21
2.8271324015748029
0
LINE
8
BLACK
6
CONTINUOUS
10
-0.142321968503937
20
2.8271324015748029
11
-0.1433524803149606
21
2.8266171259842521
0
LINE
8
BLACK
6
CONTINUOUS
10
-0.1433524803149606
20
2.8266171259842521
11
-0.1445016929133858
21
2.8265354724409448
0
LINE
8
BLACK
6
CONTINUOUS
10
-0.1445016929133858
20
2.8265354724409448
11
-0.1455946456692913
21
2.8268998031496064
0
LINE
8
BLACK
6
CONTINUOUS
10
-0.1455946456692913
20
2.8268998031496064
11
-0.1464650393700787
21
2.8276546456692913
0
LINE
8
BLACK
6
CONTINUOUS
10
-0.1464650393700787
20
2.8276546456692913
11
-0.1467733858267717
21
2.8281445275590551
0
LINE
8
BLACK
6
CONTINUOUS
10
-0.1467733858267717
20
2.8281445275590551
11
-0.1486481496062992
21
2.8318940551181102
0
LINE
8
BLACK
6
CONTINUOUS
10
-0.1486481496062992
20
2.8318940551181102
11
-0.1488550393700787
21
2.8324346850393698
0
LINE
8
BLACK
6
CONTINUOUS
10
-0.1488550393700787
20
2.8324346850393698
11
-0.1488625590551181
21
2.8325405118110236
0
LINE
8
BLACK
6
CONTINUOUS
10
-0.1488625590551181
20
2.8325405118110236
11
-0.1489031496062992
21
2.8326385039370079
0
LINE
8
BLACK
6
CONTINUOUS
10
-0.1489031496062992
20
2.8326385039370079
11
-0.1489598818897638
21
2.8332145669291338
0
LINE
8
BLACK
6
CONTINUOUS
10
-0.1489598818897638
20
2.8332145669291338
11
-0.1489598818897638
21
2.8388388582677164
0
LINE
8
BLACK
6
CONTINUOUS
10
-0.1489598818897638
20
2.8388388582677164
11
-0.1489311811023622
21
2.8391304330708662
0
LINE
8
BLACK
6
CONTINUOUS
10
-0.1489311811023622
20
2.8391304330708662
11
-0.1489366929133858
21
2.8392081496062991
0
LINE
8
BLACK
6
CONTINUOUS
10
-0.1489366929133858
20
2.8392081496062991
11
-0.1489134645669291
21
2.8393104330708661
0
LINE
8
BLACK
6
CONTINUOUS
10
-0.1489134645669291
20
2.8393104330708661
11
-0.1489031496062992
21
2.8394149212598423
0
LINE
8
BLACK
6
CONTINUOUS
10
-0.1489031496062992
20
2.8394149212598423
11
-0.1488733070866142
21
2.8394870472440945
0
LINE
8
BLACK
6
CONTINUOUS
10
-0.1488733070866142
20
2.8394870472440945
11
-0.1488083464566929
21
2.8397725984251969
0
LINE
8
BLACK
6
CONTINUOUS
10
-0.1488083464566929
20
2.8397725984251969
11
-0.1469335826771654
21
2.8453968897637796
0
LINE
8
BLACK
6
CONTINUOUS
10
-0.1469335826771654
20
2.8453968897637796
11
-0.1466975984251968
21
2.8459254330708661
0
LINE
8
BLACK
6
CONTINUOUS
10
-0.1466975984251968
20
2.8459254330708661
11
-0.1466281102362205
21
2.8460055905511812
0
LINE
8
BLACK
6
CONTINUOUS
10
-0.1466281102362205
20
2.8460055905511812
11
-0.1465874803149606
21
2.8461036220472442
0
LINE
8
BLACK
6
CONTINUOUS
10
-0.1465874803149606
20
2.8461036220472442
11
-0.1462202755905512
21
2.846551062992126
0
LINE
8
BLACK
6
CONTINUOUS
10
-0.1462202755905512
20
2.846551062992126
11
-0.1424707480314961
21
2.8503005905511811
0
LINE
8
BLACK
6
CONTINUOUS
10
-0.1424707480314961
20
2.8503005905511811
11
-0.1422443700787402
21
2.8504864566929133
0
LINE
8
BLACK
6
CONTINUOUS
10
-0.1422443700787402
20
2.8504864566929133
11
-0.1421932283464567
21
2.8505453543307087
0
LINE
8
BLACK
6
CONTINUOUS
10
-0.1421932283464567
20
2.8505453543307087
11
-0.1421044881889764
21
2.8506012598425197
0
LINE
8
BLACK
6
CONTINUOUS
10
-0.1421044881889764
20
2.8506012598425197
11
-0.1420233070866142
21
2.8506678346456691
0
LINE
8
BLACK
6
CONTINUOUS
10
-0.1420233070866142
20
2.8506678346456691
11
-0.1419511811023622
21
2.850697716535433
0
LINE
8
BLACK
6
CONTINUOUS
10
-0.1419511811023622
20
2.850697716535433
11
-0.1417033464566929
21
2.8508537007874013
0
LINE
8
BLACK
6
CONTINUOUS
10
-0.1417033464566929
20
2.8508537007874013
11
-0.1379538188976378
21
2.8527284645669289
0
LINE
8
BLACK
6
CONTINUOUS
10
-0.1379538188976378
20
2.8527284645669289
11
-0.1379117322834646
21
2.8527446062992126
0
LINE
8
BLACK
6
CONTINUOUS
10
-0.1379117322834646
20
2.8527446062992126
11
-0.1378945669291338
21
2.8527572834645669
0
LINE
8
BLACK
6
CONTINUOUS
10
-0.1378945669291338
20
2.8527572834645669
11
-0.1376529921259843
21
2.852843622047244
0
LINE
8
BLACK
6
CONTINUOUS
10
-0.1376529921259843
20
2.852843622047244
11
-0.1374132283464567
21
2.8529353543307088
0
LINE
8
BLACK
6
CONTINUOUS
10
-0.1374132283464567
20
2.8529353543307088
11
-0.137391968503937
21
2.8529368897637797
0
LINE
8
BLACK
6
CONTINUOUS
10
-0.137391968503937
20
2.8529368897637797
11
-0.1373494488188976
21
2.8529520472440946
0
LINE
8
BLACK
6
CONTINUOUS
10
-0.1373494488188976
20
2.8529520472440946
11
-0.1298503937007874
21
2.8548268110236221
0
LINE
8
BLACK
6
CONTINUOUS
10
-0.1298503937007874
20
2.8548268110236221
11
-0.1297505511811023
21
2.8548416141732282
0
LINE
8
BLACK
6
CONTINUOUS
10
-0.1297505511811023
20
2.8548416141732282
11
-0.1297103149606299
21
2.8548582283464565
0
LINE
8
BLACK
6
CONTINUOUS
10
-0.1297103149606299
20
2.8548582283464565
11
-0.1294933070866142
21
2.8548796062992126
0
LINE
8
BLACK
6
CONTINUOUS
10
-0.1294933070866142
20
2.8548796062992126
11
-0.1292777952755906
21
2.8549114566929132
0
LINE
8
BLACK
6
CONTINUOUS
10
-0.1292777952755906
20
2.8549114566929132
11
-0.1292348031496063
21
2.8549050787401575
0
LINE
8
BLACK
6
CONTINUOUS
10
-0.1292348031496063
20
2.8549050787401575
11
-0.1291342519685039
21
2.8549149606299213
0
LINE
8
BLACK
6
CONTINUOUS
10
-0.1291342519685039
20
2.8549149606299213
11
-0.1235099606299213
21
2.8549149606299213
0
LINE
8
BLACK
6
CONTINUOUS
10
-0.1235099606299213
20
2.8549149606299213
11
-0.1234094488188976
21
2.8549050787401575
0
CIRCLE
8
BLACK
10
-0.3803149606299213
20
3.2884842519685038
40
0.0068897637795276
0
CIRCLE
8
BLACK
10
-0.3661417322834646
20
0.7419291338582678
40
0.0068897637795276
0
CIRCLE
8
BLACK
10
-0.3661417322834646
20
2.6399606299212599
40
0.0068897637795276
0
CIRCLE
8
BLACK
10
-0.1692913385826772
20
1.5151574803149606
40
0.0068897637795276
0
CIRCLE
8
BLACK
10
-0.1692913385826772
20
1.5938976377952756
40
0.0068897637795276
0
CIRCLE
8
BLACK
10
-0.1692913385826772
20
1.6726377952755904
40
0.0068897637795276
0
CIRCLE
8
BLACK
10
-0.1692913385826772
20
1.7513779527559055
40
0.0068897637795276
0
CIRCLE
8
BLACK
10
-0.1692913385826772
20
1.8301181102362205
40
0.0068897637795276
0
CIRCLE
8
BLACK
10
-0.1692913385826772
20
1.9088582677165353
40
0.0068897637795276
0
CIRCLE
8
BLACK
10
-0.2480314960629921
20
1.5151574803149606
40
0.0068897637795276
0
CIRCLE
8
BLACK
10
-0.2480314960629921
20
1.5938976377952756
40
0.0068897637795276
0
CIRCLE
8
BLACK
10
-0.2480314960629921
20
1.6726377952755904
40
0.0068897637795276
0
CIRCLE
8
BLACK
10
-0.2480314960629921
20
1.7513779527559055
40
0.0068897637795276
0
CIRCLE
8
BLACK
10
-0.2480314960629921
20
1.8301181102362205
40
0.0068897637795276
0
CIRCLE
8
BLACK
10
-0.2480314960629921
20
1.9088582677165353
40
0.0068897637795276
0
CIRCLE
8
BLACK
10
-0.3267716535433071
20
1.5151574803149606
40
0.0068897637795276
0
CIRCLE
8
BLACK
10
-0.3267716535433071
20
1.5938976377952756
40
0.0068897637795276
0
CIRCLE
8
BLACK
10
-0.3267716535433071
20
1.6726377952755904
40
0.0068897637795276
0
CIRCLE
8
BLACK
10
-0.3267716535433071
20
1.7513779527559055
40
0.0068897637795276
0
CIRCLE
8
BLACK
10
-0.3267716535433071
20
1.8301181102362205
40
0.0068897637795276
0
CIRCLE
8
BLACK
10
-0.3267716535433071
20
1.9088582677165353
40
0.0068897637795276
0
CIRCLE
8
BLACK
10
-0.405511811023622
20
1.5151574803149606
40
0.0068897637795276
0
CIRCLE
8
BLACK
10
-0.405511811023622
20
1.5938976377952756
40
0.0068897637795276
0
CIRCLE
8
BLACK
10
-0.405511811023622
20
1.6726377952755904
40
0.0068897637795276
0
CIRCLE
8
BLACK
10
-0.405511811023622
20
1.7513779527559055
40
0.0068897637795276
0
CIRCLE
8
BLACK
10
-0.405511811023622
20
1.8301181102362205
40
0.0068897637795276
0
CIRCLE
8
BLACK
10
-0.405511811023622
20
1.9088582677165353
40
0.0068897637795276
0
CIRCLE
8
BLACK
10
-0.484251968503937
20
1.5151574803149606
40
0.0068897637795276
0
CIRCLE
8
BLACK
10
-0.484251968503937
20
1.5938976377952756
40
0.0068897637795276
0
CIRCLE
8
BLACK
10
-0.484251968503937
20
1.6726377952755904
40
0.0068897637795276
0
CIRCLE
8
BLACK
10
-0.484251968503937
20
1.7513779527559055
40
0.0068897637795276
0
CIRCLE
8
BLACK
10
-0.484251968503937
20
1.8301181102362205
40
0.0068897637795276
0
CIRCLE
8
BLACK
10
-0.484251968503937
20
1.9088582677165353
40
0.0068897637795276
0
CIRCLE
8
BLACK
10
-0.562992125984252
20
0.9584645669291338
40
0.0068897637795276
0
CIRCLE
8
BLACK
10
-0.4645669291338583
20
0.9584645669291338
40
0.0068897637795276
0
CIRCLE
8
BLACK
10
-0.3661417322834646
20
0.9584645669291338
40
0.0068897637795276
0
CIRCLE
8
BLACK
10
-0.2677165354330708
20
0.9584645669291338
40
0.0068897637795276
0
CIRCLE
8
BLACK
10
-0.1692913385826772
20
0.9584645669291338
40
0.0068897637795276
0
CIRCLE
8
BLACK
10
-0.562992125984252
20
1.0765748031496063
40
0.0068897637795276
0
CIRCLE
8
BLACK
10
-0.4645669291338583
20
1.0765748031496063
40
0.0068897637795276
0
CIRCLE
8
BLACK
10
-0.3661417322834646
20
1.0765748031496063
40
0.0068897637795276
0
CIRCLE
8
BLACK
10
-0.2677165354330708
20
1.0765748031496063
40
0.0068897637795276
0
CIRCLE
8
BLACK
10
-0.1692913385826772
20
1.0765748031496063
40
0.0068897637795276
0
CIRCLE
8
BLACK
10
-0.562992125984252
20
1.175
40
0.0068897637795276
0
CIRCLE
8
BLACK
10
-0.4645669291338583
20
1.175
40
0.0068897637795276
0
CIRCLE
8
BLACK
10
-0.3661417322834646
20
1.175
40
0.0068897637795276
0
CIRCLE
8
BLACK
10
-0.2677165354330708
20
1.175
40
0.0068897637795276
0
CIRCLE
8
BLACK
10
-0.1692913385826772
20
1.175
40
0.0068897637795276
0
CIRCLE
8
BLACK
10
-0.562992125984252
20
1.2931102362204725
40
0.0068897637795276
0
CIRCLE
8
BLACK
10
-0.4645669291338583
20
1.2931102362204725
40
0.0068897637795276
0
CIRCLE
8
BLACK
10
-0.3661417322834646
20
1.2931102362204725
40
0.0068897637795276
0
CIRCLE
8
BLACK
10
-0.2677165354330708
20
1.2931102362204725
40
0.0068897637795276
0
CIRCLE
8
BLACK
10
-0.1692913385826772
20
1.2931102362204725
40
0.0068897637795276
0
CIRCLE
8
BLACK
10
-0.562992125984252
20
2.0887795275590553
40
0.0068897637795276
0
CIRCLE
8
BLACK
10
-0.4645669291338583
20
2.0887795275590553
40
0.0068897637795276
0
CIRCLE
8
BLACK
10
-0.3661417322834646
20
2.0887795275590553
40
0.0068897637795276
0
CIRCLE
8
BLACK
10
-0.2677165354330708
20
2.0887795275590553
40
0.0068897637795276
0
CIRCLE
8
BLACK
10
-0.1692913385826772
20
2.0887795275590553
40
0.0068897637795276
0
CIRCLE
8
BLACK
10
-0.562992125984252
20
2.2068897637795275
40
0.0068897637795276
0
CIRCLE
8
BLACK
10
-0.4645669291338583
20
2.2068897637795275
40
0.0068897637795276
0
CIRCLE
8
BLACK
10
-0.3661417322834646
20
2.2068897637795275
40
0.0068897637795276
0
CIRCLE
8
BLACK
10
-0.2677165354330708
20
2.2068897637795275
40
0.0068897637795276
0
CIRCLE
8
BLACK
10
-0.1692913385826772
20
2.2068897637795275
40
0.0068897637795276
0
CIRCLE
8
BLACK
10
-0.562992125984252
20
2.305314960629921
40
0.0068897637795276
0
CIRCLE
8
BLACK
10
-0.4645669291338583
20
2.305314960629921
40
0.0068897637795276
0
CIRCLE
8
BLACK
10
-0.3661417322834646
20
2.305314960629921
40
0.0068897637795276
0
CIRCLE
8
BLACK
10
-0.2677165354330708
20
2.305314960629921
40
0.0068897637795276
0
CIRCLE
8
BLACK
10
-0.1692913385826772
20
2.305314960629921
40
0.0068897637795276
0
CIRCLE
8
BLACK
10
-0.562992125984252
20
2.4234251968503937
40
0.0068897637795276
0
CIRCLE
8
BLACK
10
-0.4645669291338583
20
2.4234251968503937
40
0.0068897637795276
0
CIRCLE
8
BLACK
10
-0.3661417322834646
20
2.4234251968503937
40
0.0068897637795276
0
CIRCLE
8
BLACK
10
-0.2677165354330708
20
2.4234251968503937
40
0.0068897637795276
0
CIRCLE
8
BLACK
10
-0.1692913385826772
20
2.4234251968503937
40
0.0068897637795276
0
CIRCLE
8
BLACK
10
-0.7803149606299212
20
2.8884842519685039
40
0.0068897637795276
0
CIRCLE
8
BLACK
10
-0.3803149606299213
20
0.0884842519685039
40
0.0068897637795276
0
CIRCLE
8
BLACK
10
-0.7803149606299212
20
0.4884842519685039
40
0.0068897637795276
0
CIRCLE
8
BLACK
10
-0.713511811023622
20
0.7243464566929134
40
0.0068897637795276
0
CIRCLE
8
BLACK
10
-0.713511811023622
20
0.8243464566929134
40
0.0068897637795276
0
CIRCLE
8
BLACK
10
-0.813511811023622
20
0.7243464173228347
40
0.0068897637795276
0
CIRCLE
8
BLACK
10
-0.813511811023622
20
0.8243464960629922
40
0.0068897637795276
0
CIRCLE
8
BLACK
10
-0.913511811023622
20
0.7243464566929134
40
0.0068897637795276
0
CIRCLE
8
BLACK
10
-0.913511811023622
20
0.8243464566929134
40
0.0068897637795276
0
CIRCLE
8
BLACK
10
-0.8803149606299212
20
2.390748031496063
40
0.0068897637795276
0
CIRCLE
8
BLACK
10
-0.7803149606299212
20
2.390748031496063
40
0.0068897637795276
0
CIRCLE
8
BLACK
10
-0.8803149606299212
20
2.2907480314960629
40
0.0068897637795276
0
CIRCLE
8
BLACK
10
-0.7803149606299212
20
2.2907480314960629
40
0.0068897637795276
0
CIRCLE
8
BLACK
10
-0.8803149606299212
20
2.1907480314960628
40
0.0068897637795276
0
CIRCLE
8
BLACK
10
-0.7803149606299212
20
2.1907480314960628
40
0.0068897637795276
0
CIRCLE
8
BLACK
10
-0.8803149606299212
20
2.0907480314960631
40
0.0068897637795276
0
CIRCLE
8
BLACK
10
-0.7803149606299212
20
2.0907480314960631
40
0.0068897637795276
0
CIRCLE
8
BLACK
10
-0.8803149606299212
20
1.9907480314960631
40
0.0068897637795276
0
CIRCLE
8
BLACK
10
-0.7803149606299212
20
1.9907480314960631
40
0.0068897637795276
0
CIRCLE
8
BLACK
10
-0.8803149606299212
20
1.890748031496063
40
0.0068897637795276
0
CIRCLE
8
BLACK
10
-0.7803149606299212
20
1.890748031496063
40
0.0068897637795276
0
CIRCLE
8
BLACK
10
-0.8803149606299212
20
1.7907480314960629
40
0.0068897637795276
0
CIRCLE
8
BLACK
10
-0.7803149606299212
20
1.7907480314960629
40
0.0068897637795276
0
CIRCLE
8
BLACK
10
-0.8803149606299212
20
1.690748031496063
40
0.0068897637795276
0
CIRCLE
8
BLACK
10
-0.7803149606299212
20
1.690748031496063
40
0.0068897637795276
0
CIRCLE
8
BLACK
10
-0.8803149606299212
20
1.5907480314960629
40
0.0068897637795276
0
CIRCLE
8
BLACK
10
-0.7803149606299212
20
1.5907480314960629
40
0.0068897637795276
0
CIRCLE
8
BLACK
10
-0.8803149606299212
20
1.4907480314960631
40
0.0068897637795276
0
CIRCLE
8
BLACK
10
-0.7803149606299212
20
1.4907480314960631
40
0.0068897637795276
0
CIRCLE
8
BLACK
10
-0.8803149606299212
20
1.390748031496063
40
0.0068897637795276
0
CIRCLE
8
BLACK
10
-0.7803149606299212
20
1.390748031496063
40
0.0068897637795276
0
CIRCLE
8
BLACK
10
-0.8803149606299212
20
1.2907480314960629
40
0.0068897637795276
0
CIRCLE
8
BLACK
10
-0.7803149606299212
20
1.2907480314960629
40
0.0068897637795276
0
CIRCLE
8
BLACK
10
-0.8803149606299212
20
1.190748031496063
40
0.0068897637795276
0
CIRCLE
8
BLACK
10
-0.7803149606299212
20
1.190748031496063
40
0.0068897637795276
0
CIRCLE
8
BLACK
10
-0.8803149606299212
20
1.0907480314960629
40
0.0068897637795276
0
CIRCLE
8
BLACK
10
-0.7803149606299212
20
1.0907480314960629
40
0.0068897637795276
0
CIRCLE
8
BLACK
10
-0.8803149606299212
20
0.9907480314960629
40
0.0068897637795276
0
CIRCLE
8
BLACK
10
-0.7803149606299212
20
0.9907480314960629
40
0.0068897637795276
  0
ENDSEC
  0
EOF
