  0
SECTION
  2
HEADER
  9
$ANGBASE
  50
0.0
  9
$ANGDIR
  70
1
  9
$MEASUREMENT
  70
0
  0
ENDSEC
  0
SECTION
  2
TABLES
  0
TABLE
  2
LTYPE
  70
4
  0
LTYPE
  5
40F
  2
CONTINUOUS
  70
0
  3
Solid line
  72
65
  73
0
  40
0.0
  0
LTYPE
  5
410
  2
DASHDOT
 70
0
  3
Dash Dot ____ _ ____ _
 72
65
 73
4
 40
2.0
 49
1.25
 49
-0.25
 49
0.25
 49
-0.25
  0
LTYPE
  5
411
  2
DASHED
 70
0
  3
Dashed __ __ __ __ __
 72
65
 73
2
 40
0.75
 49
0.5
 49
-0.25
  0
LTYPE
  5
43B
  2
DOTTED
 70
0
  3
Dotted .  .  .  .
 72
65
 73
2
 40
0.2
 49
0.0
 49
-0.2
  0
ENDTAB
  0
TABLE
  2
STYLE
  70
4
  0
STYLE
  2
KICAD
  70
0
  40
0
  41
1
  42
1
  50
0
  71
0
  3
isocp.shx
  0
STYLE
  2
KICADB
  70
0
  40
0
  41
1
  42
1
  50
0
  71
0
  3
isocp.shx
  0
STYLE
  2
KICADI
  70
0
  40
0
  41
1
  42
1
  50
15
  71
0
  3
isocp.shx
  0
STYLE
  2
KICADBI
  70
0
  40
0
  41
1
  42
1
  50
15
  71
0
  3
isocp.shx
  0
ENDTAB
  0
TABLE
  2
LAYER
  70
1
  0
LAYER
  2
BLACK
  70
0
  62
7
  6
CONTINUOUS
  0
ENDTAB
  0
ENDSEC
  0
SECTION
  2
ENTITIES
0
LINE
8
BLACK
6
CONTINUOUS
10
-0.3241732283464567
20
0.3816929133858268
11
-0.3234772440944882
21
0.3814046456692913
0
LINE
8
BLACK
6
CONTINUOUS
10
-0.3234772440944882
20
0.3814046456692913
11
-0.3231889763779527
21
0.3807086614173228
0
LINE
8
BLACK
6
CONTINUOUS
10
-0.3231889763779527
20
0.3807086614173228
11
-0.3231889763779527
21
0.3059055118110236
0
LINE
8
BLACK
6
CONTINUOUS
10
-0.3231889763779527
20
0.3059055118110236
11
-0.3234772440944882
21
0.3052095275590551
0
LINE
8
BLACK
6
CONTINUOUS
10
-0.3234772440944882
20
0.3052095275590551
11
-0.3241732283464567
21
0.3049212598425197
0
LINE
8
BLACK
6
CONTINUOUS
10
-0.3241732283464567
20
0.3049212598425197
11
-0.4564566929133858
21
0.3049212598425197
0
LINE
8
BLACK
6
CONTINUOUS
10
-0.4564566929133858
20
0.3049212598425197
11
-0.4571526771653543
21
0.3052095275590551
0
LINE
8
BLACK
6
CONTINUOUS
10
-0.4571526771653543
20
0.3052095275590551
11
-0.4574409448818897
21
0.3059055118110236
0
LINE
8
BLACK
6
CONTINUOUS
10
-0.4574409448818897
20
0.3059055118110236
11
-0.4574409448818897
21
0.3807086614173228
0
LINE
8
BLACK
6
CONTINUOUS
10
-0.4574409448818897
20
0.3807086614173228
11
-0.4571526771653543
21
0.3814046456692913
0
LINE
8
BLACK
6
CONTINUOUS
10
-0.4571526771653543
20
0.3814046456692913
11
-0.4564566929133858
21
0.3816929133858268
0
LINE
8
BLACK
6
CONTINUOUS
10
-0.4564566929133858
20
0.3816929133858268
11
-0.3241732283464567
21
0.3816929133858268
0
LINE
8
BLACK
6
CONTINUOUS
10
-0.4554724409448819
20
0.3797244094488189
11
-0.4554724409448819
21
0.3068897637795275
0
LINE
8
BLACK
6
CONTINUOUS
10
-0.4554724409448819
20
0.3068897637795275
11
-0.3251574803149606
21
0.3068897637795275
0
LINE
8
BLACK
6
CONTINUOUS
10
-0.3251574803149606
20
0.3068897637795275
11
-0.3251574803149606
21
0.3797244094488189
0
LINE
8
BLACK
6
CONTINUOUS
10
-0.3251574803149606
20
0.3797244094488189
11
-0.4554724409448819
21
0.3797244094488189
0
LINE
8
BLACK
6
CONTINUOUS
10
-0.1868700787401575
20
0.3830708661417323
11
-0.186174094488189
21
0.3827825984251969
0
LINE
8
BLACK
6
CONTINUOUS
10
-0.186174094488189
20
0.3827825984251969
11
-0.1858858267716536
21
0.3820866141732283
0
LINE
8
BLACK
6
CONTINUOUS
10
-0.1858858267716536
20
0.3820866141732283
11
-0.1858858267716536
21
0.3072834645669291
0
LINE
8
BLACK
6
CONTINUOUS
10
-0.1858858267716536
20
0.3072834645669291
11
-0.186174094488189
21
0.3065874803149606
0
LINE
8
BLACK
6
CONTINUOUS
10
-0.186174094488189
20
0.3065874803149606
11
-0.1868700787401575
21
0.3062992125984252
0
LINE
8
BLACK
6
CONTINUOUS
10
-0.1868700787401575
20
0.3062992125984252
11
-0.3191535433070866
21
0.3062992125984252
0
LINE
8
BLACK
6
CONTINUOUS
10
-0.3191535433070866
20
0.3062992125984252
11
-0.3198495275590551
21
0.3065874803149606
0
LINE
8
BLACK
6
CONTINUOUS
10
-0.3198495275590551
20
0.3065874803149606
11
-0.3201377952755906
21
0.3072834645669291
0
LINE
8
BLACK
6
CONTINUOUS
10
-0.3201377952755906
20
0.3072834645669291
11
-0.3201377952755906
21
0.3820866141732283
0
LINE
8
BLACK
6
CONTINUOUS
10
-0.3201377952755906
20
0.3820866141732283
11
-0.3198495275590551
21
0.3827825984251969
0
LINE
8
BLACK
6
CONTINUOUS
10
-0.3198495275590551
20
0.3827825984251969
11
-0.3191535433070866
21
0.3830708661417323
0
LINE
8
BLACK
6
CONTINUOUS
10
-0.3191535433070866
20
0.3830708661417323
11
-0.1868700787401575
21
0.3830708661417323
0
LINE
8
BLACK
6
CONTINUOUS
10
-0.3181692913385827
20
0.3811023622047244
11
-0.3181692913385827
21
0.3082677165354331
0
LINE
8
BLACK
6
CONTINUOUS
10
-0.3181692913385827
20
0.3082677165354331
11
-0.1878543307086614
21
0.3082677165354331
0
LINE
8
BLACK
6
CONTINUOUS
10
-0.1878543307086614
20
0.3082677165354331
11
-0.1878543307086614
21
0.3811023622047244
0
LINE
8
BLACK
6
CONTINUOUS
10
-0.1878543307086614
20
0.3811023622047244
11
-0.3181692913385827
21
0.3811023622047244
0
LINE
8
BLACK
6
CONTINUOUS
10
-0.3241732283464567
20
0.5013779527559055
11
-0.3234772440944882
21
0.50108968503937
0
LINE
8
BLACK
6
CONTINUOUS
10
-0.3234772440944882
20
0.50108968503937
11
-0.3231889763779527
21
0.5003937007874015
0
LINE
8
BLACK
6
CONTINUOUS
10
-0.3231889763779527
20
0.5003937007874015
11
-0.3231889763779527
21
0.4255905511811023
0
LINE
8
BLACK
6
CONTINUOUS
10
-0.3231889763779527
20
0.4255905511811023
11
-0.3234772440944882
21
0.4248945669291339
0
LINE
8
BLACK
6
CONTINUOUS
10
-0.3234772440944882
20
0.4248945669291339
11
-0.3241732283464567
21
0.4246062992125984
0
LINE
8
BLACK
6
CONTINUOUS
10
-0.3241732283464567
20
0.4246062992125984
11
-0.4564566929133858
21
0.4246062992125984
0
LINE
8
BLACK
6
CONTINUOUS
10
-0.4564566929133858
20
0.4246062992125984
11
-0.4571526771653543
21
0.4248945669291339
0
LINE
8
BLACK
6
CONTINUOUS
10
-0.4571526771653543
20
0.4248945669291339
11
-0.4574409448818897
21
0.4255905511811023
0
LINE
8
BLACK
6
CONTINUOUS
10
-0.4574409448818897
20
0.4255905511811023
11
-0.4574409448818897
21
0.5003937007874015
0
LINE
8
BLACK
6
CONTINUOUS
10
-0.4574409448818897
20
0.5003937007874015
11
-0.4571526771653543
21
0.50108968503937
0
LINE
8
BLACK
6
CONTINUOUS
10
-0.4571526771653543
20
0.50108968503937
11
-0.4564566929133858
21
0.5013779527559055
0
LINE
8
BLACK
6
CONTINUOUS
10
-0.4564566929133858
20
0.5013779527559055
11
-0.3241732283464567
21
0.5013779527559055
0
LINE
8
BLACK
6
CONTINUOUS
10
-0.4554724409448819
20
0.4994094488188976
11
-0.4554724409448819
21
0.4265748031496063
0
LINE
8
BLACK
6
CONTINUOUS
10
-0.4554724409448819
20
0.4265748031496063
11
-0.3251574803149606
21
0.4265748031496063
0
LINE
8
BLACK
6
CONTINUOUS
10
-0.3251574803149606
20
0.4265748031496063
11
-0.3251574803149606
21
0.4994094488188976
0
LINE
8
BLACK
6
CONTINUOUS
10
-0.3251574803149606
20
0.4994094488188976
11
-0.4554724409448819
21
0.4994094488188976
0
LINE
8
BLACK
6
CONTINUOUS
10
-0.1868700787401575
20
0.5031496062992126
11
-0.186174094488189
21
0.5028613385826771
0
LINE
8
BLACK
6
CONTINUOUS
10
-0.186174094488189
20
0.5028613385826771
11
-0.1858858267716536
21
0.5021653543307086
0
LINE
8
BLACK
6
CONTINUOUS
10
-0.1858858267716536
20
0.5021653543307086
11
-0.1858858267716536
21
0.4273622047244094
0
LINE
8
BLACK
6
CONTINUOUS
10
-0.1858858267716536
20
0.4273622047244094
11
-0.186174094488189
21
0.426666220472441
0
LINE
8
BLACK
6
CONTINUOUS
10
-0.186174094488189
20
0.426666220472441
11
-0.1868700787401575
21
0.4263779527559055
0
LINE
8
BLACK
6
CONTINUOUS
10
-0.1868700787401575
20
0.4263779527559055
11
-0.3191535433070866
21
0.4263779527559055
0
LINE
8
BLACK
6
CONTINUOUS
10
-0.3191535433070866
20
0.4263779527559055
11
-0.3198495275590551
21
0.426666220472441
0
LINE
8
BLACK
6
CONTINUOUS
10
-0.3198495275590551
20
0.426666220472441
11
-0.3201377952755906
21
0.4273622047244094
0
LINE
8
BLACK
6
CONTINUOUS
10
-0.3201377952755906
20
0.4273622047244094
11
-0.3201377952755906
21
0.5021653543307086
0
LINE
8
BLACK
6
CONTINUOUS
10
-0.3201377952755906
20
0.5021653543307086
11
-0.3198495275590551
21
0.5028613385826771
0
LINE
8
BLACK
6
CONTINUOUS
10
-0.3198495275590551
20
0.5028613385826771
11
-0.3191535433070866
21
0.5031496062992126
0
LINE
8
BLACK
6
CONTINUOUS
10
-0.3191535433070866
20
0.5031496062992126
11
-0.1868700787401575
21
0.5031496062992126
0
LINE
8
BLACK
6
CONTINUOUS
10
-0.3181692913385827
20
0.5011811023622047
11
-0.3181692913385827
21
0.4283464566929134
0
LINE
8
BLACK
6
CONTINUOUS
10
-0.3181692913385827
20
0.4283464566929134
11
-0.1878543307086614
21
0.4283464566929134
0
LINE
8
BLACK
6
CONTINUOUS
10
-0.1878543307086614
20
0.4283464566929134
11
-0.1878543307086614
21
0.5011811023622047
0
LINE
8
BLACK
6
CONTINUOUS
10
-0.1878543307086614
20
0.5011811023622047
11
-0.3181692913385827
21
0.5011811023622047
0
LINE
8
BLACK
6
CONTINUOUS
10
-0.7165354330708661
20
2.5954724409448819
11
-0.7158394488188976
21
2.5951841732283465
0
LINE
8
BLACK
6
CONTINUOUS
10
-0.7158394488188976
20
2.5951841732283465
11
-0.7155511811023622
21
2.5944881889763778
0
LINE
8
BLACK
6
CONTINUOUS
10
-0.7155511811023622
20
2.5944881889763778
11
-0.7155511811023622
21
2.4960629921259843
0
LINE
8
BLACK
6
CONTINUOUS
10
-0.7155511811023622
20
2.4960629921259843
11
-0.7158394488188976
21
2.4953670078740156
0
LINE
8
BLACK
6
CONTINUOUS
10
-0.7158394488188976
20
2.4953670078740156
11
-0.7165354330708661
21
2.4950787401574801
0
LINE
8
BLACK
6
CONTINUOUS
10
-0.7165354330708661
20
2.4950787401574801
11
-0.8976377952755905
21
2.4950787401574801
0
LINE
8
BLACK
6
CONTINUOUS
10
-0.8976377952755905
20
2.4950787401574801
11
-0.898333779527559
21
2.4953670078740156
0
LINE
8
BLACK
6
CONTINUOUS
10
-0.898333779527559
20
2.4953670078740156
11
-0.8986220472440944
21
2.4960629921259843
0
LINE
8
BLACK
6
CONTINUOUS
10
-0.8986220472440944
20
2.4960629921259843
11
-0.8986220472440944
21
2.5944881889763778
0
LINE
8
BLACK
6
CONTINUOUS
10
-0.8986220472440944
20
2.5944881889763778
11
-0.898333779527559
21
2.5951841732283465
0
LINE
8
BLACK
6
CONTINUOUS
10
-0.898333779527559
20
2.5951841732283465
11
-0.8976377952755905
21
2.5954724409448819
0
LINE
8
BLACK
6
CONTINUOUS
10
-0.8976377952755905
20
2.5954724409448819
11
-0.7165354330708661
21
2.5954724409448819
0
LINE
8
BLACK
6
CONTINUOUS
10
-0.8966535433070866
20
2.5935039370078741
11
-0.8966535433070866
21
2.497047244094488
0
LINE
8
BLACK
6
CONTINUOUS
10
-0.8966535433070866
20
2.497047244094488
11
-0.71751968503937
21
2.497047244094488
0
LINE
8
BLACK
6
CONTINUOUS
10
-0.71751968503937
20
2.497047244094488
11
-0.71751968503937
21
2.5935039370078741
0
LINE
8
BLACK
6
CONTINUOUS
10
-0.71751968503937
20
2.5935039370078741
11
-0.8966535433070866
21
2.5935039370078741
0
LINE
8
BLACK
6
CONTINUOUS
10
-0.3076377952755905
20
2.946062992125984
11
-0.3069418110236221
21
2.9457747244094485
0
LINE
8
BLACK
6
CONTINUOUS
10
-0.3069418110236221
20
2.9457747244094485
11
-0.3066535433070866
21
2.9450787401574803
0
LINE
8
BLACK
6
CONTINUOUS
10
-0.3066535433070866
20
2.9450787401574803
11
-0.3066535433070866
21
2.8466535433070868
0
LINE
8
BLACK
6
CONTINUOUS
10
-0.3066535433070866
20
2.8466535433070868
11
-0.3069418110236221
21
2.845957559055118
0
LINE
8
BLACK
6
CONTINUOUS
10
-0.3069418110236221
20
2.845957559055118
11
-0.3076377952755905
21
2.8456692913385826
0
LINE
8
BLACK
6
CONTINUOUS
10
-0.3076377952755905
20
2.8456692913385826
11
-0.4375590551181102
21
2.8456692913385826
0
LINE
8
BLACK
6
CONTINUOUS
10
-0.4375590551181102
20
2.8456692913385826
11
-0.4382550393700787
21
2.845957559055118
0
LINE
8
BLACK
6
CONTINUOUS
10
-0.4382550393700787
20
2.845957559055118
11
-0.4385433070866142
21
2.8466535433070868
0
LINE
8
BLACK
6
CONTINUOUS
10
-0.4385433070866142
20
2.8466535433070868
11
-0.4385433070866142
21
2.9450787401574803
0
LINE
8
BLACK
6
CONTINUOUS
10
-0.4385433070866142
20
2.9450787401574803
11
-0.4382550393700787
21
2.9457747244094485
0
LINE
8
BLACK
6
CONTINUOUS
10
-0.4382550393700787
20
2.9457747244094485
11
-0.4375590551181102
21
2.946062992125984
0
LINE
8
BLACK
6
CONTINUOUS
10
-0.4375590551181102
20
2.946062992125984
11
-0.3076377952755905
21
2.946062992125984
0
LINE
8
BLACK
6
CONTINUOUS
10
-0.4365748031496063
20
2.9440944881889761
11
-0.4365748031496063
21
2.8476377952755905
0
LINE
8
BLACK
6
CONTINUOUS
10
-0.4365748031496063
20
2.8476377952755905
11
-0.3086220472440945
21
2.8476377952755905
0
LINE
8
BLACK
6
CONTINUOUS
10
-0.3086220472440945
20
2.8476377952755905
11
-0.3086220472440945
21
2.9440944881889761
0
LINE
8
BLACK
6
CONTINUOUS
10
-0.3086220472440945
20
2.9440944881889761
11
-0.4365748031496063
21
2.9440944881889761
  0
ENDSEC
  0
EOF
