  0
SECTION
  2
HEADER
  9
$ANGBASE
  50
0.0
  9
$ANGDIR
  70
1
  9
$MEASUREMENT
  70
0
  0
ENDSEC
  0
SECTION
  2
TABLES
  0
TABLE
  2
LTYPE
  70
4
  0
LTYPE
  5
40F
  2
CONTINUOUS
  70
0
  3
Solid line
  72
65
  73
0
  40
0.0
  0
LTYPE
  5
410
  2
DASHDOT
 70
0
  3
Dash Dot ____ _ ____ _
 72
65
 73
4
 40
2.0
 49
1.25
 49
-0.25
 49
0.25
 49
-0.25
  0
LTYPE
  5
411
  2
DASHED
 70
0
  3
Dashed __ __ __ __ __
 72
65
 73
2
 40
0.75
 49
0.5
 49
-0.25
  0
LTYPE
  5
43B
  2
DOTTED
 70
0
  3
Dotted .  .  .  .
 72
65
 73
2
 40
0.2
 49
0.0
 49
-0.2
  0
ENDTAB
  0
TABLE
  2
STYLE
  70
4
  0
STYLE
  2
KICAD
  70
0
  40
0
  41
1
  42
1
  50
0
  71
0
  3
isocp.shx
  0
STYLE
  2
KICADB
  70
0
  40
0
  41
1
  42
1
  50
0
  71
0
  3
isocp.shx
  0
STYLE
  2
KICADI
  70
0
  40
0
  41
1
  42
1
  50
15
  71
0
  3
isocp.shx
  0
STYLE
  2
KICADBI
  70
0
  40
0
  41
1
  42
1
  50
15
  71
0
  3
isocp.shx
  0
ENDTAB
  0
TABLE
  2
LAYER
  70
1
  0
LAYER
  2
BLACK
  70
0
  62
7
  6
CONTINUOUS
  0
ENDTAB
  0
ENDSEC
  0
SECTION
  2
ENTITIES
0
LINE
8
BLACK
6
CONTINUOUS
10
-0.830315
20
2.44547
11
-0.828645
21
2.44478
0
LINE
8
BLACK
6
CONTINUOUS
10
-0.828645
20
2.44478
11
-0.827953
21
2.44311
0
LINE
8
BLACK
6
CONTINUOUS
10
-0.827953
20
2.44311
11
-0.827953
21
2.34311
0
LINE
8
BLACK
6
CONTINUOUS
10
-0.827953
20
2.34311
11
-0.727953
21
2.34311
0
LINE
8
BLACK
6
CONTINUOUS
10
-0.727953
20
2.34311
11
-0.726282
21
2.34242
0
LINE
8
BLACK
6
CONTINUOUS
10
-0.726282
20
2.34242
11
-0.725591
21
2.34075
0
LINE
8
BLACK
6
CONTINUOUS
10
-0.725591
20
2.34075
11
-0.725591
21
0.938386
0
LINE
8
BLACK
6
CONTINUOUS
10
-0.725591
20
0.938386
11
-0.726282
21
0.936716
0
LINE
8
BLACK
6
CONTINUOUS
10
-0.726282
20
0.936716
11
-0.727953
21
0.936024
0
LINE
8
BLACK
6
CONTINUOUS
10
-0.727953
20
0.936024
11
-0.932677
21
0.936024
0
LINE
8
BLACK
6
CONTINUOUS
10
-0.932677
20
0.936024
11
-0.934347
21
0.936716
0
LINE
8
BLACK
6
CONTINUOUS
10
-0.934347
20
0.936716
11
-0.935039
21
0.938386
0
LINE
8
BLACK
6
CONTINUOUS
10
-0.935039
20
0.938386
11
-0.935039
21
2.44311
0
LINE
8
BLACK
6
CONTINUOUS
10
-0.935039
20
2.44311
11
-0.934347
21
2.44478
0
LINE
8
BLACK
6
CONTINUOUS
10
-0.934347
20
2.44478
11
-0.932677
21
2.44547
0
LINE
8
BLACK
6
CONTINUOUS
10
-0.932677
20
2.44547
11
-0.830315
21
2.44547
0
LINE
8
BLACK
6
CONTINUOUS
10
-0.930315
20
2.44075
11
-0.930315
21
0.940748
0
LINE
8
BLACK
6
CONTINUOUS
10
-0.930315
20
0.940748
11
-0.730315
21
0.940748
0
LINE
8
BLACK
6
CONTINUOUS
10
-0.730315
20
0.940748
11
-0.730315
21
2.33839
0
LINE
8
BLACK
6
CONTINUOUS
10
-0.730315
20
2.33839
11
-0.830315
21
2.33839
0
LINE
8
BLACK
6
CONTINUOUS
10
-0.830315
20
2.33839
11
-0.831985
21
2.33908
0
LINE
8
BLACK
6
CONTINUOUS
10
-0.831985
20
2.33908
11
-0.832677
21
2.34075
0
LINE
8
BLACK
6
CONTINUOUS
10
-0.832677
20
2.34075
11
-0.832677
21
2.44075
0
LINE
8
BLACK
6
CONTINUOUS
10
-0.832677
20
2.44075
11
-0.930315
21
2.44075
0
LINE
8
BLACK
6
CONTINUOUS
10
-0.727953
20
2.44547
11
-0.726282
21
2.44478
0
LINE
8
BLACK
6
CONTINUOUS
10
-0.726282
20
2.44478
11
-0.725591
21
2.44311
0
LINE
8
BLACK
6
CONTINUOUS
10
-0.725591
20
2.44311
11
-0.725591
21
2.39075
0
LINE
8
BLACK
6
CONTINUOUS
10
-0.725591
20
2.39075
11
-0.726282
21
2.38908
0
LINE
8
BLACK
6
CONTINUOUS
10
-0.726282
20
2.38908
11
-0.727953
21
2.38839
0
LINE
8
BLACK
6
CONTINUOUS
10
-0.727953
20
2.38839
11
-0.729623
21
2.38908
0
LINE
8
BLACK
6
CONTINUOUS
10
-0.729623
20
2.38908
11
-0.730315
21
2.39075
0
LINE
8
BLACK
6
CONTINUOUS
10
-0.730315
20
2.39075
11
-0.730315
21
2.44075
0
LINE
8
BLACK
6
CONTINUOUS
10
-0.730315
20
2.44075
11
-0.780315
21
2.44075
0
LINE
8
BLACK
6
CONTINUOUS
10
-0.780315
20
2.44075
11
-0.781985
21
2.44144
0
LINE
8
BLACK
6
CONTINUOUS
10
-0.781985
20
2.44144
11
-0.782677
21
2.44311
0
LINE
8
BLACK
6
CONTINUOUS
10
-0.782677
20
2.44311
11
-0.781985
21
2.44478
0
LINE
8
BLACK
6
CONTINUOUS
10
-0.781985
20
2.44478
11
-0.780315
21
2.44547
0
LINE
8
BLACK
6
CONTINUOUS
10
-0.780315
20
2.44547
11
-0.727953
21
2.44547
0
CIRCLE
8
BLACK
10
-0.380315
20
3.28848
40
0.00688976
0
CIRCLE
8
BLACK
10
-0.366142
20
0.741929
40
0.00688976
0
CIRCLE
8
BLACK
10
-0.366142
20
2.63996
40
0.00688976
0
CIRCLE
8
BLACK
10
-0.169291
20
1.51516
40
0.00688976
0
CIRCLE
8
BLACK
10
-0.169291
20
1.5939
40
0.00688976
0
CIRCLE
8
BLACK
10
-0.169291
20
1.67264
40
0.00688976
0
CIRCLE
8
BLACK
10
-0.169291
20
1.75138
40
0.00688976
0
CIRCLE
8
BLACK
10
-0.169291
20
1.83012
40
0.00688976
0
CIRCLE
8
BLACK
10
-0.169291
20
1.90886
40
0.00688976
0
CIRCLE
8
BLACK
10
-0.248031
20
1.51516
40
0.00688976
0
CIRCLE
8
BLACK
10
-0.248031
20
1.5939
40
0.00688976
0
CIRCLE
8
BLACK
10
-0.248031
20
1.67264
40
0.00688976
0
CIRCLE
8
BLACK
10
-0.248031
20
1.75138
40
0.00688976
0
CIRCLE
8
BLACK
10
-0.248031
20
1.83012
40
0.00688976
0
CIRCLE
8
BLACK
10
-0.248031
20
1.90886
40
0.00688976
0
CIRCLE
8
BLACK
10
-0.326772
20
1.51516
40
0.00688976
0
CIRCLE
8
BLACK
10
-0.326772
20
1.5939
40
0.00688976
0
CIRCLE
8
BLACK
10
-0.326772
20
1.67264
40
0.00688976
0
CIRCLE
8
BLACK
10
-0.326772
20
1.75138
40
0.00688976
0
CIRCLE
8
BLACK
10
-0.326772
20
1.83012
40
0.00688976
0
CIRCLE
8
BLACK
10
-0.326772
20
1.90886
40
0.00688976
0
CIRCLE
8
BLACK
10
-0.405512
20
1.51516
40
0.00688976
0
CIRCLE
8
BLACK
10
-0.405512
20
1.5939
40
0.00688976
0
CIRCLE
8
BLACK
10
-0.405512
20
1.67264
40
0.00688976
0
CIRCLE
8
BLACK
10
-0.405512
20
1.75138
40
0.00688976
0
CIRCLE
8
BLACK
10
-0.405512
20
1.83012
40
0.00688976
0
CIRCLE
8
BLACK
10
-0.405512
20
1.90886
40
0.00688976
0
CIRCLE
8
BLACK
10
-0.484252
20
1.51516
40
0.00688976
0
CIRCLE
8
BLACK
10
-0.484252
20
1.5939
40
0.00688976
0
CIRCLE
8
BLACK
10
-0.484252
20
1.67264
40
0.00688976
0
CIRCLE
8
BLACK
10
-0.484252
20
1.75138
40
0.00688976
0
CIRCLE
8
BLACK
10
-0.484252
20
1.83012
40
0.00688976
0
CIRCLE
8
BLACK
10
-0.484252
20
1.90886
40
0.00688976
0
CIRCLE
8
BLACK
10
-0.562992
20
0.958465
40
0.00688976
0
CIRCLE
8
BLACK
10
-0.464567
20
0.958465
40
0.00688976
0
CIRCLE
8
BLACK
10
-0.366142
20
0.958465
40
0.00688976
0
CIRCLE
8
BLACK
10
-0.267717
20
0.958465
40
0.00688976
0
CIRCLE
8
BLACK
10
-0.169291
20
0.958465
40
0.00688976
0
CIRCLE
8
BLACK
10
-0.562992
20
1.07657
40
0.00688976
0
CIRCLE
8
BLACK
10
-0.464567
20
1.07657
40
0.00688976
0
CIRCLE
8
BLACK
10
-0.366142
20
1.07657
40
0.00688976
0
CIRCLE
8
BLACK
10
-0.267717
20
1.07657
40
0.00688976
0
CIRCLE
8
BLACK
10
-0.169291
20
1.07657
40
0.00688976
0
CIRCLE
8
BLACK
10
-0.562992
20
1.175
40
0.00688976
0
CIRCLE
8
BLACK
10
-0.464567
20
1.175
40
0.00688976
0
CIRCLE
8
BLACK
10
-0.366142
20
1.175
40
0.00688976
0
CIRCLE
8
BLACK
10
-0.267717
20
1.175
40
0.00688976
0
CIRCLE
8
BLACK
10
-0.169291
20
1.175
40
0.00688976
0
CIRCLE
8
BLACK
10
-0.562992
20
1.29311
40
0.00688976
0
CIRCLE
8
BLACK
10
-0.464567
20
1.29311
40
0.00688976
0
CIRCLE
8
BLACK
10
-0.366142
20
1.29311
40
0.00688976
0
CIRCLE
8
BLACK
10
-0.267717
20
1.29311
40
0.00688976
0
CIRCLE
8
BLACK
10
-0.169291
20
1.29311
40
0.00688976
0
CIRCLE
8
BLACK
10
-0.562992
20
2.08878
40
0.00688976
0
CIRCLE
8
BLACK
10
-0.464567
20
2.08878
40
0.00688976
0
CIRCLE
8
BLACK
10
-0.366142
20
2.08878
40
0.00688976
0
CIRCLE
8
BLACK
10
-0.267717
20
2.08878
40
0.00688976
0
CIRCLE
8
BLACK
10
-0.169291
20
2.08878
40
0.00688976
0
CIRCLE
8
BLACK
10
-0.562992
20
2.20689
40
0.00688976
0
CIRCLE
8
BLACK
10
-0.464567
20
2.20689
40
0.00688976
0
CIRCLE
8
BLACK
10
-0.366142
20
2.20689
40
0.00688976
0
CIRCLE
8
BLACK
10
-0.267717
20
2.20689
40
0.00688976
0
CIRCLE
8
BLACK
10
-0.169291
20
2.20689
40
0.00688976
0
CIRCLE
8
BLACK
10
-0.562992
20
2.30531
40
0.00688976
0
CIRCLE
8
BLACK
10
-0.464567
20
2.30531
40
0.00688976
0
CIRCLE
8
BLACK
10
-0.366142
20
2.30531
40
0.00688976
0
CIRCLE
8
BLACK
10
-0.267717
20
2.30531
40
0.00688976
0
CIRCLE
8
BLACK
10
-0.169291
20
2.30531
40
0.00688976
0
CIRCLE
8
BLACK
10
-0.562992
20
2.42343
40
0.00688976
0
CIRCLE
8
BLACK
10
-0.464567
20
2.42343
40
0.00688976
0
CIRCLE
8
BLACK
10
-0.366142
20
2.42343
40
0.00688976
0
CIRCLE
8
BLACK
10
-0.267717
20
2.42343
40
0.00688976
0
CIRCLE
8
BLACK
10
-0.169291
20
2.42343
40
0.00688976
0
CIRCLE
8
BLACK
10
-0.780315
20
2.88848
40
0.00688976
0
CIRCLE
8
BLACK
10
-0.380315
20
0.0884843
40
0.00688976
0
CIRCLE
8
BLACK
10
-0.780315
20
0.488484
40
0.00688976
0
CIRCLE
8
BLACK
10
-0.780315
20
2.39075
40
0.00688976
0
CIRCLE
8
BLACK
10
-0.880315
20
2.39075
40
0.00688976
0
CIRCLE
8
BLACK
10
-0.780315
20
2.29075
40
0.00688976
0
CIRCLE
8
BLACK
10
-0.880315
20
2.29075
40
0.00688976
0
CIRCLE
8
BLACK
10
-0.780315
20
2.19075
40
0.00688976
0
CIRCLE
8
BLACK
10
-0.880315
20
2.19075
40
0.00688976
0
CIRCLE
8
BLACK
10
-0.780315
20
2.09075
40
0.00688976
0
CIRCLE
8
BLACK
10
-0.880315
20
2.09075
40
0.00688976
0
CIRCLE
8
BLACK
10
-0.780315
20
1.99075
40
0.00688976
0
CIRCLE
8
BLACK
10
-0.880315
20
1.99075
40
0.00688976
0
CIRCLE
8
BLACK
10
-0.780315
20
1.89075
40
0.00688976
0
CIRCLE
8
BLACK
10
-0.880315
20
1.89075
40
0.00688976
0
CIRCLE
8
BLACK
10
-0.780315
20
1.79075
40
0.00688976
0
CIRCLE
8
BLACK
10
-0.880315
20
1.79075
40
0.00688976
0
CIRCLE
8
BLACK
10
-0.780315
20
1.69075
40
0.00688976
0
CIRCLE
8
BLACK
10
-0.880315
20
1.69075
40
0.00688976
0
CIRCLE
8
BLACK
10
-0.780315
20
1.59075
40
0.00688976
0
CIRCLE
8
BLACK
10
-0.880315
20
1.59075
40
0.00688976
0
CIRCLE
8
BLACK
10
-0.780315
20
1.49075
40
0.00688976
0
CIRCLE
8
BLACK
10
-0.880315
20
1.49075
40
0.00688976
0
CIRCLE
8
BLACK
10
-0.780315
20
1.39075
40
0.00688976
0
CIRCLE
8
BLACK
10
-0.880315
20
1.39075
40
0.00688976
0
CIRCLE
8
BLACK
10
-0.780315
20
1.29075
40
0.00688976
0
CIRCLE
8
BLACK
10
-0.880315
20
1.29075
40
0.00688976
0
CIRCLE
8
BLACK
10
-0.780315
20
1.19075
40
0.00688976
0
CIRCLE
8
BLACK
10
-0.880315
20
1.19075
40
0.00688976
0
CIRCLE
8
BLACK
10
-0.780315
20
1.09075
40
0.00688976
0
CIRCLE
8
BLACK
10
-0.880315
20
1.09075
40
0.00688976
0
CIRCLE
8
BLACK
10
-0.780315
20
0.990748
40
0.00688976
0
CIRCLE
8
BLACK
10
-0.880315
20
0.990748
40
0.00688976
  0
ENDSEC
  0
EOF
