  0
SECTION
  2
HEADER
  9
$ANGBASE
  50
0.0
  9
$ANGDIR
  70
1
  9
$MEASUREMENT
  70
0
  0
ENDSEC
  0
SECTION
  2
TABLES
  0
TABLE
  2
LTYPE
  70
4
  0
LTYPE
  5
40F
  2
CONTINUOUS
  70
0
  3
Solid line
  72
65
  73
0
  40
0.0
  0
LTYPE
  5
410
  2
DASHDOT
 70
0
  3
Dash Dot ____ _ ____ _
 72
65
 73
4
 40
2.0
 49
1.25
 49
-0.25
 49
0.25
 49
-0.25
  0
LTYPE
  5
411
  2
DASHED
 70
0
  3
Dashed __ __ __ __ __
 72
65
 73
2
 40
0.75
 49
0.5
 49
-0.25
  0
LTYPE
  5
43B
  2
DOTTED
 70
0
  3
Dotted .  .  .  .
 72
65
 73
2
 40
0.2
 49
0.0
 49
-0.2
  0
ENDTAB
  0
TABLE
  2
STYLE
  70
4
  0
STYLE
  2
KICAD
  70
0
  40
0
  41
1
  42
1
  50
0
  71
0
  3
isocp.shx
  0
STYLE
  2
KICADB
  70
0
  40
0
  41
1
  42
1
  50
0
  71
0
  3
isocp.shx
  0
STYLE
  2
KICADI
  70
0
  40
0
  41
1
  42
1
  50
15
  71
0
  3
isocp.shx
  0
STYLE
  2
KICADBI
  70
0
  40
0
  41
1
  42
1
  50
15
  71
0
  3
isocp.shx
  0
ENDTAB
  0
TABLE
  2
LAYER
  70
1
  0
LAYER
  2
BLACK
  70
0
  62
7
  6
CONTINUOUS
  0
ENDTAB
  0
ENDSEC
  0
SECTION
  2
ENTITIES
0
LINE
8
BLACK
6
CONTINUOUS
10
-0.7270487795275591
20
2.4452926377952755
11
-0.7257703543307087
21
2.4440142125984252
0
LINE
8
BLACK
6
CONTINUOUS
10
-0.7257703543307087
20
2.4440142125984252
11
-0.7255905511811024
21
2.4431102362204724
0
LINE
8
BLACK
6
CONTINUOUS
10
-0.7255905511811024
20
2.4431102362204724
11
-0.7255905511811024
21
0.9383858267716535
0
LINE
8
BLACK
6
CONTINUOUS
10
-0.7255905511811024
20
0.9383858267716535
11
-0.7257703543307087
21
0.9374818503937008
0
LINE
8
BLACK
6
CONTINUOUS
10
-0.7257703543307087
20
0.9374818503937008
11
-0.7270487795275591
21
0.9362034251968504
0
LINE
8
BLACK
6
CONTINUOUS
10
-0.7270487795275591
20
0.9362034251968504
11
-0.7279527559055118
21
0.9360236220472441
0
LINE
8
BLACK
6
CONTINUOUS
10
-0.7279527559055118
20
0.9360236220472441
11
-0.9326771653543307
21
0.9360236220472441
0
LINE
8
BLACK
6
CONTINUOUS
10
-0.9326771653543307
20
0.9360236220472441
11
-0.9335811417322835
21
0.9362034251968504
0
LINE
8
BLACK
6
CONTINUOUS
10
-0.9335811417322835
20
0.9362034251968504
11
-0.9348595669291339
21
0.9374818503937008
0
LINE
8
BLACK
6
CONTINUOUS
10
-0.9348595669291339
20
0.9374818503937008
11
-0.9350393700787402
21
0.9383858267716535
0
LINE
8
BLACK
6
CONTINUOUS
10
-0.9350393700787402
20
0.9383858267716535
11
-0.9350393700787402
21
2.3407480314960631
0
LINE
8
BLACK
6
CONTINUOUS
10
-0.9350393700787402
20
2.3407480314960631
11
-0.9348595669291339
21
2.3416520078740155
0
LINE
8
BLACK
6
CONTINUOUS
10
-0.9348595669291339
20
2.3416520078740155
11
-0.9335811417322835
21
2.3429304330708662
0
LINE
8
BLACK
6
CONTINUOUS
10
-0.9335811417322835
20
2.3429304330708662
11
-0.9326771653543307
21
2.3431102362204723
0
LINE
8
BLACK
6
CONTINUOUS
10
-0.9326771653543307
20
2.3431102362204723
11
-0.8326771653543307
21
2.3431102362204723
0
LINE
8
BLACK
6
CONTINUOUS
10
-0.8326771653543307
20
2.3431102362204723
11
-0.8326771653543307
21
2.4431102362204724
0
LINE
8
BLACK
6
CONTINUOUS
10
-0.8326771653543307
20
2.4431102362204724
11
-0.8324973622047244
21
2.4440142125984252
0
LINE
8
BLACK
6
CONTINUOUS
10
-0.8324973622047244
20
2.4440142125984252
11
-0.831218937007874
21
2.4452926377952755
0
LINE
8
BLACK
6
CONTINUOUS
10
-0.831218937007874
20
2.4452926377952755
11
-0.8303149606299213
21
2.445472440944882
0
LINE
8
BLACK
6
CONTINUOUS
10
-0.8303149606299213
20
2.445472440944882
11
-0.7279527559055118
21
2.445472440944882
0
LINE
8
BLACK
6
CONTINUOUS
10
-0.7279527559055118
20
2.445472440944882
11
-0.7270487795275591
21
2.4452926377952755
0
LINE
8
BLACK
6
CONTINUOUS
10
-0.8279527559055118
20
2.4407480314960628
11
-0.8279527559055118
21
2.3407480314960631
0
LINE
8
BLACK
6
CONTINUOUS
10
-0.8279527559055118
20
2.3407480314960631
11
-0.8281325590551181
21
2.3398440551181103
0
LINE
8
BLACK
6
CONTINUOUS
10
-0.8281325590551181
20
2.3398440551181103
11
-0.8294109842519685
21
2.3385656299212596
0
LINE
8
BLACK
6
CONTINUOUS
10
-0.8294109842519685
20
2.3385656299212596
11
-0.8303149606299213
21
2.3383858267716535
0
LINE
8
BLACK
6
CONTINUOUS
10
-0.8303149606299213
20
2.3383858267716535
11
-0.9303149606299213
21
2.3383858267716535
0
LINE
8
BLACK
6
CONTINUOUS
10
-0.9303149606299213
20
2.3383858267716535
11
-0.9303149606299213
21
0.940748031496063
0
LINE
8
BLACK
6
CONTINUOUS
10
-0.9303149606299213
20
0.940748031496063
11
-0.7303149606299213
21
0.940748031496063
0
LINE
8
BLACK
6
CONTINUOUS
10
-0.7303149606299213
20
0.940748031496063
11
-0.7303149606299213
21
2.4407480314960628
0
LINE
8
BLACK
6
CONTINUOUS
10
-0.7303149606299213
20
2.4407480314960628
11
-0.8279527559055118
21
2.4407480314960628
0
LINE
8
BLACK
6
CONTINUOUS
10
-0.8794109842519685
20
2.4452926377952755
11
-0.8781325590551181
21
2.4440142125984252
0
LINE
8
BLACK
6
CONTINUOUS
10
-0.8781325590551181
20
2.4440142125984252
11
-0.8781325590551181
21
2.4422062598425196
0
LINE
8
BLACK
6
CONTINUOUS
10
-0.8781325590551181
20
2.4422062598425196
11
-0.8794109842519685
21
2.4409278346456693
0
LINE
8
BLACK
6
CONTINUOUS
10
-0.8794109842519685
20
2.4409278346456693
11
-0.8803149606299212
21
2.4407480314960628
0
LINE
8
BLACK
6
CONTINUOUS
10
-0.8803149606299212
20
2.4407480314960628
11
-0.9303149606299213
21
2.4407480314960628
0
LINE
8
BLACK
6
CONTINUOUS
10
-0.9303149606299213
20
2.4407480314960628
11
-0.9303149606299213
21
2.390748031496063
0
LINE
8
BLACK
6
CONTINUOUS
10
-0.9303149606299213
20
2.390748031496063
11
-0.9304947637795276
21
2.3898440551181102
0
LINE
8
BLACK
6
CONTINUOUS
10
-0.9304947637795276
20
2.3898440551181102
11
-0.931773188976378
21
2.3885656299212599
0
LINE
8
BLACK
6
CONTINUOUS
10
-0.931773188976378
20
2.3885656299212599
11
-0.9335811417322835
21
2.3885656299212599
0
LINE
8
BLACK
6
CONTINUOUS
10
-0.9335811417322835
20
2.3885656299212599
11
-0.9348595669291339
21
2.3898440551181102
0
LINE
8
BLACK
6
CONTINUOUS
10
-0.9348595669291339
20
2.3898440551181102
11
-0.9350393700787402
21
2.390748031496063
0
LINE
8
BLACK
6
CONTINUOUS
10
-0.9350393700787402
20
2.390748031496063
11
-0.9350393700787402
21
2.4431102362204724
0
LINE
8
BLACK
6
CONTINUOUS
10
-0.9350393700787402
20
2.4431102362204724
11
-0.9348595669291339
21
2.4440142125984252
0
LINE
8
BLACK
6
CONTINUOUS
10
-0.9348595669291339
20
2.4440142125984252
11
-0.9335811417322835
21
2.4452926377952755
0
LINE
8
BLACK
6
CONTINUOUS
10
-0.9335811417322835
20
2.4452926377952755
11
-0.9326771653543307
21
2.445472440944882
0
LINE
8
BLACK
6
CONTINUOUS
10
-0.9326771653543307
20
2.445472440944882
11
-0.8803149606299212
21
2.445472440944882
0
LINE
8
BLACK
6
CONTINUOUS
10
-0.8803149606299212
20
2.445472440944882
11
-0.8794109842519685
21
2.4452926377952755
0
LINE
8
BLACK
6
CONTINUOUS
10
-0.8391127559055118
20
2.5241629921259841
11
-0.8390147637795276
21
2.5241224015748029
0
LINE
8
BLACK
6
CONTINUOUS
10
-0.8390147637795276
20
2.5241224015748029
11
-0.8389089370078739
21
2.5241148818897639
0
LINE
8
BLACK
6
CONTINUOUS
10
-0.8389089370078739
20
2.5241148818897639
11
-0.8383683070866141
21
2.5239079921259844
0
LINE
8
BLACK
6
CONTINUOUS
10
-0.8383683070866141
20
2.5239079921259844
11
-0.834618779527559
21
2.5220332283464568
0
LINE
8
BLACK
6
CONTINUOUS
10
-0.834618779527559
20
2.5220332283464568
11
-0.8343707874015748
21
2.5218771653543306
0
LINE
8
BLACK
6
CONTINUOUS
10
-0.8343707874015748
20
2.5218771653543306
11
-0.8342988188976378
21
2.5218473228346454
0
LINE
8
BLACK
6
CONTINUOUS
10
-0.8342988188976378
20
2.5218473228346454
11
-0.834217874015748
21
2.5217808661417322
0
LINE
8
BLACK
6
CONTINUOUS
10
-0.834217874015748
20
2.5217808661417322
11
-0.8341288976377953
21
2.5217248818897637
0
LINE
8
BLACK
6
CONTINUOUS
10
-0.8341288976377953
20
2.5217248818897637
11
-0.8340777559055118
21
2.5216659055118109
0
LINE
8
BLACK
6
CONTINUOUS
10
-0.8340777559055118
20
2.5216659055118109
11
-0.8338513779527559
21
2.5214801181102362
0
LINE
8
BLACK
6
CONTINUOUS
10
-0.8338513779527559
20
2.5214801181102362
11
-0.8319766141732283
21
2.5196053543307086
0
LINE
8
BLACK
6
CONTINUOUS
10
-0.8319766141732283
20
2.5196053543307086
11
-0.8316094094488189
21
2.5191579133858268
0
LINE
8
BLACK
6
CONTINUOUS
10
-0.8316094094488189
20
2.5191579133858268
11
-0.8311685039370078
21
2.518093503937008
0
LINE
8
BLACK
6
CONTINUOUS
10
-0.8311685039370078
20
2.518093503937008
11
-0.8311685039370078
21
2.5169414173228346
0
LINE
8
BLACK
6
CONTINUOUS
10
-0.8311685039370078
20
2.5169414173228346
11
-0.8316094094488189
21
2.5158770078740158
0
LINE
8
BLACK
6
CONTINUOUS
10
-0.8316094094488189
20
2.5158770078740158
11
-0.832424094488189
21
2.5150623228346456
0
LINE
8
BLACK
6
CONTINUOUS
10
-0.832424094488189
20
2.5150623228346456
11
-0.8334885039370079
21
2.5146214173228345
0
LINE
8
BLACK
6
CONTINUOUS
10
-0.8334885039370079
20
2.5146214173228345
11
-0.8346405905511811
21
2.5146214173228345
0
LINE
8
BLACK
6
CONTINUOUS
10
-0.8346405905511811
20
2.5146214173228345
11
-0.835705
21
2.5150623228346456
0
LINE
8
BLACK
6
CONTINUOUS
10
-0.835705
20
2.5150623228346456
11
-0.8361524409448818
21
2.5154295275590552
0
LINE
8
BLACK
6
CONTINUOUS
10
-0.8361524409448818
20
2.5154295275590552
11
-0.8376883858267716
21
2.5169654724409449
0
LINE
8
BLACK
6
CONTINUOUS
10
-0.8376883858267716
20
2.5169654724409449
11
-0.8403858661417323
21
2.5183142125984253
0
LINE
8
BLACK
6
CONTINUOUS
10
-0.8403858661417323
20
2.5183142125984253
11
-0.8483655905511811
21
2.5183142125984253
0
LINE
8
BLACK
6
CONTINUOUS
10
-0.8483655905511811
20
2.5183142125984253
11
-0.8510630708661417
21
2.5169654724409449
0
LINE
8
BLACK
6
CONTINUOUS
10
-0.8510630708661417
20
2.5169654724409449
11
-0.8522601968503937
21
2.5157683464566927
0
LINE
8
BLACK
6
CONTINUOUS
10
-0.8522601968503937
20
2.5157683464566927
11
-0.853608937007874
21
2.513070866141732
0
LINE
8
BLACK
6
CONTINUOUS
10
-0.853608937007874
20
2.513070866141732
11
-0.853608937007874
21
2.5104975590551182
0
LINE
8
BLACK
6
CONTINUOUS
10
-0.853608937007874
20
2.5104975590551182
11
-0.8521061417322835
21
2.5059891338582676
0
LINE
8
BLACK
6
CONTINUOUS
10
-0.8521061417322835
20
2.5059891338582676
11
-0.8301018503937008
21
2.4839848031496063
0
LINE
8
BLACK
6
CONTINUOUS
10
-0.8301018503937008
20
2.4839848031496063
11
-0.8297346062992126
21
2.4835373622047245
0
LINE
8
BLACK
6
CONTINUOUS
10
-0.8297346062992126
20
2.4835373622047245
11
-0.8292937401574803
21
2.4824729133858265
0
LINE
8
BLACK
6
CONTINUOUS
10
-0.8292937401574803
20
2.4824729133858265
11
-0.8292937401574803
21
2.4813208267716536
0
LINE
8
BLACK
6
CONTINUOUS
10
-0.8292937401574803
20
2.4813208267716536
11
-0.8297346456692913
21
2.4802564173228347
0
LINE
8
BLACK
6
CONTINUOUS
10
-0.8297346456692913
20
2.4802564173228347
11
-0.8305492913385827
21
2.4794417322834645
0
LINE
8
BLACK
6
CONTINUOUS
10
-0.8305492913385827
20
2.4794417322834645
11
-0.831301968503937
21
2.4791300000000001
0
LINE
8
BLACK
6
CONTINUOUS
10
-0.831301968503937
20
2.4791300000000001
11
-0.8316137007874016
21
2.4790008661417322
0
LINE
8
BLACK
6
CONTINUOUS
10
-0.8316137007874016
20
2.4790008661417322
11
-0.8321897637795276
21
2.4789441338582678
0
LINE
8
BLACK
6
CONTINUOUS
10
-0.8321897637795276
20
2.4789441338582678
11
-0.8565616929133858
21
2.4789441338582678
0
LINE
8
BLACK
6
CONTINUOUS
10
-0.8565616929133858
20
2.4789441338582678
11
-0.8571377559055118
21
2.4790008661417322
0
LINE
8
BLACK
6
CONTINUOUS
10
-0.8571377559055118
20
2.4790008661417322
11
-0.8582021653543307
21
2.4794417716535433
0
LINE
8
BLACK
6
CONTINUOUS
10
-0.8582021653543307
20
2.4794417716535433
11
-0.859016811023622
21
2.4802564173228347
0
LINE
8
BLACK
6
CONTINUOUS
10
-0.859016811023622
20
2.4802564173228347
11
-0.859457716535433
21
2.4813208267716536
0
LINE
8
BLACK
6
CONTINUOUS
10
-0.859457716535433
20
2.4813208267716536
11
-0.859457716535433
21
2.4824729527559053
0
LINE
8
BLACK
6
CONTINUOUS
10
-0.859457716535433
20
2.4824729527559053
11
-0.859016811023622
21
2.4835373622047245
0
LINE
8
BLACK
6
CONTINUOUS
10
-0.859016811023622
20
2.4835373622047245
11
-0.8582021653543307
21
2.4843520078740156
0
LINE
8
BLACK
6
CONTINUOUS
10
-0.8582021653543307
20
2.4843520078740156
11
-0.8571377559055118
21
2.4847929133858266
0
LINE
8
BLACK
6
CONTINUOUS
10
-0.8571377559055118
20
2.4847929133858266
11
-0.8565616929133858
21
2.4848496456692915
0
LINE
8
BLACK
6
CONTINUOUS
10
-0.8565616929133858
20
2.4848496456692915
11
-0.8393183464566929
21
2.4848496456692915
0
LINE
8
BLACK
6
CONTINUOUS
10
-0.8393183464566929
20
2.4848496456692915
11
-0.8567748425196851
21
2.5023061811023624
0
LINE
8
BLACK
6
CONTINUOUS
10
-0.8567748425196851
20
2.5023061811023624
11
-0.8571420472440945
21
2.5027536220472442
0
LINE
8
BLACK
6
CONTINUOUS
10
-0.8571420472440945
20
2.5027536220472442
11
-0.8571826771653543
21
2.5028516929133859
0
LINE
8
BLACK
6
CONTINUOUS
10
-0.8571826771653543
20
2.5028516929133859
11
-0.8572521653543307
21
2.5029318110236218
0
LINE
8
BLACK
6
CONTINUOUS
10
-0.8572521653543307
20
2.5029318110236218
11
-0.8574881496062992
21
2.5034603543307088
0
LINE
8
BLACK
6
CONTINUOUS
10
-0.8574881496062992
20
2.5034603543307088
11
-0.8593629133858267
21
2.5090846456692915
0
LINE
8
BLACK
6
CONTINUOUS
10
-0.8593629133858267
20
2.5090846456692915
11
-0.8594278740157481
21
2.5093702362204722
0
LINE
8
BLACK
6
CONTINUOUS
10
-0.8594278740157481
20
2.5093702362204722
11
-0.859457716535433
21
2.5094423228346456
0
LINE
8
BLACK
6
CONTINUOUS
10
-0.859457716535433
20
2.5094423228346456
11
-0.859468031496063
21
2.5095468503937006
0
LINE
8
BLACK
6
CONTINUOUS
10
-0.859468031496063
20
2.5095468503937006
11
-0.8594912598425196
21
2.5096490944881888
0
LINE
8
BLACK
6
CONTINUOUS
10
-0.8594912598425196
20
2.5096490944881888
11
-0.859485748031496
21
2.5097268503937009
0
LINE
8
BLACK
6
CONTINUOUS
10
-0.859485748031496
20
2.5097268503937009
11
-0.8595144488188976
21
2.5100183858267715
0
LINE
8
BLACK
6
CONTINUOUS
10
-0.8595144488188976
20
2.5100183858267715
11
-0.8595144488188976
21
2.5137679133858266
0
LINE
8
BLACK
6
CONTINUOUS
10
-0.8595144488188976
20
2.5137679133858266
11
-0.859457716535433
21
2.5143439763779525
0
LINE
8
BLACK
6
CONTINUOUS
10
-0.859457716535433
20
2.5143439763779525
11
-0.8594171259842519
21
2.5144420078740155
0
LINE
8
BLACK
6
CONTINUOUS
10
-0.8594171259842519
20
2.5144420078740155
11
-0.8594096062992126
21
2.5145477952755906
0
LINE
8
BLACK
6
CONTINUOUS
10
-0.8594096062992126
20
2.5145477952755906
11
-0.859202716535433
21
2.5150884251968502
0
LINE
8
BLACK
6
CONTINUOUS
10
-0.859202716535433
20
2.5150884251968502
11
-0.8573279527559055
21
2.5188379527559053
0
LINE
8
BLACK
6
CONTINUOUS
10
-0.8573279527559055
20
2.5188379527559053
11
-0.8571718897637796
21
2.5190859842519684
0
LINE
8
BLACK
6
CONTINUOUS
10
-0.8571718897637796
20
2.5190859842519684
11
-0.8571420472440945
21
2.5191579133858268
0
LINE
8
BLACK
6
CONTINUOUS
10
-0.8571420472440945
20
2.5191579133858268
11
-0.8570755905511811
21
2.5192388976377953
0
LINE
8
BLACK
6
CONTINUOUS
10
-0.8570755905511811
20
2.5192388976377953
11
-0.8570196062992126
21
2.5193278346456691
0
LINE
8
BLACK
6
CONTINUOUS
10
-0.8570196062992126
20
2.5193278346456691
11
-0.8569606299212599
21
2.5193790157480316
0
LINE
8
BLACK
6
CONTINUOUS
10
-0.8569606299212599
20
2.5193790157480316
11
-0.8567748425196851
21
2.5196053543307086
0
LINE
8
BLACK
6
CONTINUOUS
10
-0.8567748425196851
20
2.5196053543307086
11
-0.8549000787401575
21
2.5214801181102362
0
LINE
8
BLACK
6
CONTINUOUS
10
-0.8549000787401575
20
2.5214801181102362
11
-0.8546737401574803
21
2.5216659055118109
0
LINE
8
BLACK
6
CONTINUOUS
10
-0.8546737401574803
20
2.5216659055118109
11
-0.8546225590551181
21
2.5217248818897637
0
LINE
8
BLACK
6
CONTINUOUS
10
-0.8546225590551181
20
2.5217248818897637
11
-0.854533622047244
21
2.5217808661417322
0
LINE
8
BLACK
6
CONTINUOUS
10
-0.854533622047244
20
2.5217808661417322
11
-0.8544526377952756
21
2.5218473228346454
0
LINE
8
BLACK
6
CONTINUOUS
10
-0.8544526377952756
20
2.5218473228346454
11
-0.8543807086614174
21
2.5218771653543306
0
LINE
8
BLACK
6
CONTINUOUS
10
-0.8543807086614174
20
2.5218771653543306
11
-0.8541326771653543
21
2.5220332283464568
0
LINE
8
BLACK
6
CONTINUOUS
10
-0.8541326771653543
20
2.5220332283464568
11
-0.8503831496062992
21
2.5239079921259844
0
LINE
8
BLACK
6
CONTINUOUS
10
-0.8503831496062992
20
2.5239079921259844
11
-0.8498425590551181
21
2.5241148818897639
0
LINE
8
BLACK
6
CONTINUOUS
10
-0.8498425590551181
20
2.5241148818897639
11
-0.8497366929133858
21
2.5241224409448817
0
LINE
8
BLACK
6
CONTINUOUS
10
-0.8497366929133858
20
2.5241224409448817
11
-0.8496387007874016
21
2.5241629921259841
0
LINE
8
BLACK
6
CONTINUOUS
10
-0.8496387007874016
20
2.5241629921259841
11
-0.8490626377952756
21
2.5242197244094489
0
LINE
8
BLACK
6
CONTINUOUS
10
-0.8490626377952756
20
2.5242197244094489
11
-0.8396888188976378
21
2.5242197244094489
0
LINE
8
BLACK
6
CONTINUOUS
10
-0.8396888188976378
20
2.5242197244094489
11
-0.8391127559055118
21
2.5241629921259841
0
LINE
8
BLACK
6
CONTINUOUS
10
-0.8155511417322835
20
2.523722086614173
11
-0.8147364960629921
21
2.522907440944882
0
LINE
8
BLACK
6
CONTINUOUS
10
-0.8147364960629921
20
2.522907440944882
11
-0.8142955905511811
21
2.5218430314960631
0
LINE
8
BLACK
6
CONTINUOUS
10
-0.8142955905511811
20
2.5218430314960631
11
-0.8142388582677165
21
2.5212669685039368
0
LINE
8
BLACK
6
CONTINUOUS
10
-0.8142388582677165
20
2.5212669685039368
11
-0.8142388582677165
21
2.4936246850393702
0
LINE
8
BLACK
6
CONTINUOUS
10
-0.8142388582677165
20
2.4936246850393702
11
-0.812736062992126
21
2.4891162598425196
0
LINE
8
BLACK
6
CONTINUOUS
10
-0.812736062992126
20
2.4891162598425196
11
-0.809972283464567
21
2.4863524409448816
0
LINE
8
BLACK
6
CONTINUOUS
10
-0.809972283464567
20
2.4863524409448816
11
-0.8054638976377952
21
2.4848496456692915
0
LINE
8
BLACK
6
CONTINUOUS
10
-0.8054638976377952
20
2.4848496456692915
11
-0.8021935039370078
21
2.4848496456692915
0
LINE
8
BLACK
6
CONTINUOUS
10
-0.8021935039370078
20
2.4848496456692915
11
-0.8016174409448819
21
2.4847929133858266
0
LINE
8
BLACK
6
CONTINUOUS
10
-0.8016174409448819
20
2.4847929133858266
11
-0.8005530314960629
21
2.4843520078740156
0
LINE
8
BLACK
6
CONTINUOUS
10
-0.8005530314960629
20
2.4843520078740156
11
-0.7997383858267716
21
2.4835373622047245
0
LINE
8
BLACK
6
CONTINUOUS
10
-0.7997383858267716
20
2.4835373622047245
11
-0.7992974803149606
21
2.4824729527559053
0
LINE
8
BLACK
6
CONTINUOUS
10
-0.7992974803149606
20
2.4824729527559053
11
-0.7992974803149606
21
2.4813208267716536
0
LINE
8
BLACK
6
CONTINUOUS
10
-0.7992974803149606
20
2.4813208267716536
11
-0.7997383858267716
21
2.4802564173228347
0
LINE
8
BLACK
6
CONTINUOUS
10
-0.7997383858267716
20
2.4802564173228347
11
-0.8005530314960629
21
2.4794417716535433
0
LINE
8
BLACK
6
CONTINUOUS
10
-0.8005530314960629
20
2.4794417716535433
11
-0.8016174409448819
21
2.4790008661417322
0
LINE
8
BLACK
6
CONTINUOUS
10
-0.8016174409448819
20
2.4790008661417322
11
-0.8021935039370078
21
2.4789441338582678
0
LINE
8
BLACK
6
CONTINUOUS
10
-0.8021935039370078
20
2.4789441338582678
11
-0.8059430314960629
21
2.4789441338582678
0
LINE
8
BLACK
6
CONTINUOUS
10
-0.8059430314960629
20
2.4789441338582678
11
-0.8062346456692914
21
2.478972874015748
0
LINE
8
BLACK
6
CONTINUOUS
10
-0.8062346456692914
20
2.478972874015748
11
-0.8063123622047244
21
2.4789673228346456
0
LINE
8
BLACK
6
CONTINUOUS
10
-0.8063123622047244
20
2.4789673228346456
11
-0.8064146456692913
21
2.4789905905511809
0
LINE
8
BLACK
6
CONTINUOUS
10
-0.8064146456692913
20
2.4789905905511809
11
-0.8065190944881889
21
2.4790008661417322
0
LINE
8
BLACK
6
CONTINUOUS
10
-0.8065190944881889
20
2.4790008661417322
11
-0.8065911811023622
21
2.4790307480314961
0
LINE
8
BLACK
6
CONTINUOUS
10
-0.8065911811023622
20
2.4790307480314961
11
-0.8068768110236221
21
2.4790956692913384
0
LINE
8
BLACK
6
CONTINUOUS
10
-0.8068768110236221
20
2.4790956692913384
11
-0.812501062992126
21
2.480970433070866
0
LINE
8
BLACK
6
CONTINUOUS
10
-0.812501062992126
20
2.480970433070866
11
-0.8130296456692914
21
2.4812064173228348
0
LINE
8
BLACK
6
CONTINUOUS
10
-0.8130296456692914
20
2.4812064173228348
11
-0.8131097637795276
21
2.481275905511811
0
LINE
8
BLACK
6
CONTINUOUS
10
-0.8131097637795276
20
2.481275905511811
11
-0.8132077952755905
21
2.4813164960629921
0
LINE
8
BLACK
6
CONTINUOUS
10
-0.8132077952755905
20
2.4813164960629921
11
-0.8136552362204724
21
2.4816837401574801
0
LINE
8
BLACK
6
CONTINUOUS
10
-0.8136552362204724
20
2.4816837401574801
11
-0.8174047637795275
21
2.4854333070866139
0
LINE
8
BLACK
6
CONTINUOUS
10
-0.8174047637795275
20
2.4854333070866139
11
-0.8177720078740157
21
2.4858807874015749
0
LINE
8
BLACK
6
CONTINUOUS
10
-0.8177720078740157
20
2.4858807874015749
11
-0.8178126377952756
21
2.4859788582677167
0
LINE
8
BLACK
6
CONTINUOUS
10
-0.8178126377952756
20
2.4859788582677167
11
-0.8178820866141732
21
2.4860589370078738
0
LINE
8
BLACK
6
CONTINUOUS
10
-0.8178820866141732
20
2.4860589370078738
11
-0.8181180708661417
21
2.4865874803149604
0
LINE
8
BLACK
6
CONTINUOUS
10
-0.8181180708661417
20
2.4865874803149604
11
-0.8199928346456693
21
2.4922117716535435
0
LINE
8
BLACK
6
CONTINUOUS
10
-0.8199928346456693
20
2.4922117716535435
11
-0.8200577952755905
21
2.4924973622047242
0
LINE
8
BLACK
6
CONTINUOUS
10
-0.8200577952755905
20
2.4924973622047242
11
-0.8200876377952756
21
2.4925694488188976
0
LINE
8
BLACK
6
CONTINUOUS
10
-0.8200876377952756
20
2.4925694488188976
11
-0.8200979527559055
21
2.4926739763779526
0
LINE
8
BLACK
6
CONTINUOUS
10
-0.8200979527559055
20
2.4926739763779526
11
-0.8201211811023622
21
2.4927762204724409
0
LINE
8
BLACK
6
CONTINUOUS
10
-0.8201211811023622
20
2.4927762204724409
11
-0.8201156692913386
21
2.4928539763779529
0
LINE
8
BLACK
6
CONTINUOUS
10
-0.8201156692913386
20
2.4928539763779529
11
-0.8201443700787402
21
2.4931455118110235
0
LINE
8
BLACK
6
CONTINUOUS
10
-0.8201443700787402
20
2.4931455118110235
11
-0.8201443700787402
21
2.5212669685039368
0
LINE
8
BLACK
6
CONTINUOUS
10
-0.8201443700787402
20
2.5212669685039368
11
-0.8200876377952756
21
2.5218430314960631
0
LINE
8
BLACK
6
CONTINUOUS
10
-0.8200876377952756
20
2.5218430314960631
11
-0.8196467322834645
21
2.522907440944882
0
LINE
8
BLACK
6
CONTINUOUS
10
-0.8196467322834645
20
2.522907440944882
11
-0.8188320866141732
21
2.523722086614173
0
LINE
8
BLACK
6
CONTINUOUS
10
-0.8188320866141732
20
2.523722086614173
11
-0.8177676771653544
21
2.5241629921259841
0
LINE
8
BLACK
6
CONTINUOUS
10
-0.8177676771653544
20
2.5241629921259841
11
-0.8166155511811023
21
2.5241629921259841
0
LINE
8
BLACK
6
CONTINUOUS
10
-0.8166155511811023
20
2.5241629921259841
11
-0.8155511417322835
21
2.523722086614173
0
CIRCLE
8
BLACK
10
-0.3803149606299213
20
3.2884842519685038
40
0.0068897637795276
0
CIRCLE
8
BLACK
10
-0.3661417322834646
20
0.7419291338582678
40
0.0068897637795276
0
CIRCLE
8
BLACK
10
-0.3661417322834646
20
2.6399606299212599
40
0.0068897637795276
0
CIRCLE
8
BLACK
10
-0.1692913385826772
20
1.5151574803149606
40
0.0068897637795276
0
CIRCLE
8
BLACK
10
-0.1692913385826772
20
1.5938976377952756
40
0.0068897637795276
0
CIRCLE
8
BLACK
10
-0.1692913385826772
20
1.6726377952755904
40
0.0068897637795276
0
CIRCLE
8
BLACK
10
-0.1692913385826772
20
1.7513779527559055
40
0.0068897637795276
0
CIRCLE
8
BLACK
10
-0.1692913385826772
20
1.8301181102362205
40
0.0068897637795276
0
CIRCLE
8
BLACK
10
-0.1692913385826772
20
1.9088582677165353
40
0.0068897637795276
0
CIRCLE
8
BLACK
10
-0.2480314960629921
20
1.5151574803149606
40
0.0068897637795276
0
CIRCLE
8
BLACK
10
-0.2480314960629921
20
1.5938976377952756
40
0.0068897637795276
0
CIRCLE
8
BLACK
10
-0.2480314960629921
20
1.6726377952755904
40
0.0068897637795276
0
CIRCLE
8
BLACK
10
-0.2480314960629921
20
1.7513779527559055
40
0.0068897637795276
0
CIRCLE
8
BLACK
10
-0.2480314960629921
20
1.8301181102362205
40
0.0068897637795276
0
CIRCLE
8
BLACK
10
-0.2480314960629921
20
1.9088582677165353
40
0.0068897637795276
0
CIRCLE
8
BLACK
10
-0.3267716535433071
20
1.5151574803149606
40
0.0068897637795276
0
CIRCLE
8
BLACK
10
-0.3267716535433071
20
1.5938976377952756
40
0.0068897637795276
0
CIRCLE
8
BLACK
10
-0.3267716535433071
20
1.6726377952755904
40
0.0068897637795276
0
CIRCLE
8
BLACK
10
-0.3267716535433071
20
1.7513779527559055
40
0.0068897637795276
0
CIRCLE
8
BLACK
10
-0.3267716535433071
20
1.8301181102362205
40
0.0068897637795276
0
CIRCLE
8
BLACK
10
-0.3267716535433071
20
1.9088582677165353
40
0.0068897637795276
0
CIRCLE
8
BLACK
10
-0.405511811023622
20
1.5151574803149606
40
0.0068897637795276
0
CIRCLE
8
BLACK
10
-0.405511811023622
20
1.5938976377952756
40
0.0068897637795276
0
CIRCLE
8
BLACK
10
-0.405511811023622
20
1.6726377952755904
40
0.0068897637795276
0
CIRCLE
8
BLACK
10
-0.405511811023622
20
1.7513779527559055
40
0.0068897637795276
0
CIRCLE
8
BLACK
10
-0.405511811023622
20
1.8301181102362205
40
0.0068897637795276
0
CIRCLE
8
BLACK
10
-0.405511811023622
20
1.9088582677165353
40
0.0068897637795276
0
CIRCLE
8
BLACK
10
-0.484251968503937
20
1.5151574803149606
40
0.0068897637795276
0
CIRCLE
8
BLACK
10
-0.484251968503937
20
1.5938976377952756
40
0.0068897637795276
0
CIRCLE
8
BLACK
10
-0.484251968503937
20
1.6726377952755904
40
0.0068897637795276
0
CIRCLE
8
BLACK
10
-0.484251968503937
20
1.7513779527559055
40
0.0068897637795276
0
CIRCLE
8
BLACK
10
-0.484251968503937
20
1.8301181102362205
40
0.0068897637795276
0
CIRCLE
8
BLACK
10
-0.484251968503937
20
1.9088582677165353
40
0.0068897637795276
0
CIRCLE
8
BLACK
10
-0.562992125984252
20
0.9584645669291338
40
0.0068897637795276
0
CIRCLE
8
BLACK
10
-0.4645669291338583
20
0.9584645669291338
40
0.0068897637795276
0
CIRCLE
8
BLACK
10
-0.3661417322834646
20
0.9584645669291338
40
0.0068897637795276
0
CIRCLE
8
BLACK
10
-0.2677165354330708
20
0.9584645669291338
40
0.0068897637795276
0
CIRCLE
8
BLACK
10
-0.1692913385826772
20
0.9584645669291338
40
0.0068897637795276
0
CIRCLE
8
BLACK
10
-0.562992125984252
20
1.0765748031496063
40
0.0068897637795276
0
CIRCLE
8
BLACK
10
-0.4645669291338583
20
1.0765748031496063
40
0.0068897637795276
0
CIRCLE
8
BLACK
10
-0.3661417322834646
20
1.0765748031496063
40
0.0068897637795276
0
CIRCLE
8
BLACK
10
-0.2677165354330708
20
1.0765748031496063
40
0.0068897637795276
0
CIRCLE
8
BLACK
10
-0.1692913385826772
20
1.0765748031496063
40
0.0068897637795276
0
CIRCLE
8
BLACK
10
-0.562992125984252
20
1.175
40
0.0068897637795276
0
CIRCLE
8
BLACK
10
-0.4645669291338583
20
1.175
40
0.0068897637795276
0
CIRCLE
8
BLACK
10
-0.3661417322834646
20
1.175
40
0.0068897637795276
0
CIRCLE
8
BLACK
10
-0.2677165354330708
20
1.175
40
0.0068897637795276
0
CIRCLE
8
BLACK
10
-0.1692913385826772
20
1.175
40
0.0068897637795276
0
CIRCLE
8
BLACK
10
-0.562992125984252
20
1.2931102362204725
40
0.0068897637795276
0
CIRCLE
8
BLACK
10
-0.4645669291338583
20
1.2931102362204725
40
0.0068897637795276
0
CIRCLE
8
BLACK
10
-0.3661417322834646
20
1.2931102362204725
40
0.0068897637795276
0
CIRCLE
8
BLACK
10
-0.2677165354330708
20
1.2931102362204725
40
0.0068897637795276
0
CIRCLE
8
BLACK
10
-0.1692913385826772
20
1.2931102362204725
40
0.0068897637795276
0
CIRCLE
8
BLACK
10
-0.562992125984252
20
2.0887795275590553
40
0.0068897637795276
0
CIRCLE
8
BLACK
10
-0.4645669291338583
20
2.0887795275590553
40
0.0068897637795276
0
CIRCLE
8
BLACK
10
-0.3661417322834646
20
2.0887795275590553
40
0.0068897637795276
0
CIRCLE
8
BLACK
10
-0.2677165354330708
20
2.0887795275590553
40
0.0068897637795276
0
CIRCLE
8
BLACK
10
-0.1692913385826772
20
2.0887795275590553
40
0.0068897637795276
0
CIRCLE
8
BLACK
10
-0.562992125984252
20
2.2068897637795275
40
0.0068897637795276
0
CIRCLE
8
BLACK
10
-0.4645669291338583
20
2.2068897637795275
40
0.0068897637795276
0
CIRCLE
8
BLACK
10
-0.3661417322834646
20
2.2068897637795275
40
0.0068897637795276
0
CIRCLE
8
BLACK
10
-0.2677165354330708
20
2.2068897637795275
40
0.0068897637795276
0
CIRCLE
8
BLACK
10
-0.1692913385826772
20
2.2068897637795275
40
0.0068897637795276
0
CIRCLE
8
BLACK
10
-0.562992125984252
20
2.305314960629921
40
0.0068897637795276
0
CIRCLE
8
BLACK
10
-0.4645669291338583
20
2.305314960629921
40
0.0068897637795276
0
CIRCLE
8
BLACK
10
-0.3661417322834646
20
2.305314960629921
40
0.0068897637795276
0
CIRCLE
8
BLACK
10
-0.2677165354330708
20
2.305314960629921
40
0.0068897637795276
0
CIRCLE
8
BLACK
10
-0.1692913385826772
20
2.305314960629921
40
0.0068897637795276
0
CIRCLE
8
BLACK
10
-0.562992125984252
20
2.4234251968503937
40
0.0068897637795276
0
CIRCLE
8
BLACK
10
-0.4645669291338583
20
2.4234251968503937
40
0.0068897637795276
0
CIRCLE
8
BLACK
10
-0.3661417322834646
20
2.4234251968503937
40
0.0068897637795276
0
CIRCLE
8
BLACK
10
-0.2677165354330708
20
2.4234251968503937
40
0.0068897637795276
0
CIRCLE
8
BLACK
10
-0.1692913385826772
20
2.4234251968503937
40
0.0068897637795276
0
CIRCLE
8
BLACK
10
-0.7803149606299212
20
2.8884842519685039
40
0.0068897637795276
0
CIRCLE
8
BLACK
10
-0.3803149606299213
20
0.0884842519685039
40
0.0068897637795276
0
CIRCLE
8
BLACK
10
-0.7803149606299212
20
0.4884842519685039
40
0.0068897637795276
0
CIRCLE
8
BLACK
10
-0.8803149606299212
20
2.390748031496063
40
0.0068897637795276
0
CIRCLE
8
BLACK
10
-0.7803149606299212
20
2.390748031496063
40
0.0068897637795276
0
CIRCLE
8
BLACK
10
-0.8803149606299212
20
2.2907480314960629
40
0.0068897637795276
0
CIRCLE
8
BLACK
10
-0.7803149606299212
20
2.2907480314960629
40
0.0068897637795276
0
CIRCLE
8
BLACK
10
-0.8803149606299212
20
2.1907480314960628
40
0.0068897637795276
0
CIRCLE
8
BLACK
10
-0.7803149606299212
20
2.1907480314960628
40
0.0068897637795276
0
CIRCLE
8
BLACK
10
-0.8803149606299212
20
2.0907480314960631
40
0.0068897637795276
0
CIRCLE
8
BLACK
10
-0.7803149606299212
20
2.0907480314960631
40
0.0068897637795276
0
CIRCLE
8
BLACK
10
-0.8803149606299212
20
1.9907480314960631
40
0.0068897637795276
0
CIRCLE
8
BLACK
10
-0.7803149606299212
20
1.9907480314960631
40
0.0068897637795276
0
CIRCLE
8
BLACK
10
-0.8803149606299212
20
1.890748031496063
40
0.0068897637795276
0
CIRCLE
8
BLACK
10
-0.7803149606299212
20
1.890748031496063
40
0.0068897637795276
0
CIRCLE
8
BLACK
10
-0.8803149606299212
20
1.7907480314960629
40
0.0068897637795276
0
CIRCLE
8
BLACK
10
-0.7803149606299212
20
1.7907480314960629
40
0.0068897637795276
0
CIRCLE
8
BLACK
10
-0.8803149606299212
20
1.690748031496063
40
0.0068897637795276
0
CIRCLE
8
BLACK
10
-0.7803149606299212
20
1.690748031496063
40
0.0068897637795276
0
CIRCLE
8
BLACK
10
-0.8803149606299212
20
1.5907480314960629
40
0.0068897637795276
0
CIRCLE
8
BLACK
10
-0.7803149606299212
20
1.5907480314960629
40
0.0068897637795276
0
CIRCLE
8
BLACK
10
-0.8803149606299212
20
1.4907480314960631
40
0.0068897637795276
0
CIRCLE
8
BLACK
10
-0.7803149606299212
20
1.4907480314960631
40
0.0068897637795276
0
CIRCLE
8
BLACK
10
-0.8803149606299212
20
1.390748031496063
40
0.0068897637795276
0
CIRCLE
8
BLACK
10
-0.7803149606299212
20
1.390748031496063
40
0.0068897637795276
0
CIRCLE
8
BLACK
10
-0.8803149606299212
20
1.2907480314960629
40
0.0068897637795276
0
CIRCLE
8
BLACK
10
-0.7803149606299212
20
1.2907480314960629
40
0.0068897637795276
0
CIRCLE
8
BLACK
10
-0.8803149606299212
20
1.190748031496063
40
0.0068897637795276
0
CIRCLE
8
BLACK
10
-0.7803149606299212
20
1.190748031496063
40
0.0068897637795276
0
CIRCLE
8
BLACK
10
-0.8803149606299212
20
1.0907480314960629
40
0.0068897637795276
0
CIRCLE
8
BLACK
10
-0.7803149606299212
20
1.0907480314960629
40
0.0068897637795276
0
CIRCLE
8
BLACK
10
-0.8803149606299212
20
0.9907480314960629
40
0.0068897637795276
0
CIRCLE
8
BLACK
10
-0.7803149606299212
20
0.9907480314960629
40
0.0068897637795276
  0
ENDSEC
  0
EOF
