  0
SECTION
  2
HEADER
  9
$ANGBASE
  50
0.0
  9
$ANGDIR
  70
1
  9
$MEASUREMENT
  70
0
  0
ENDSEC
  0
SECTION
  2
TABLES
  0
TABLE
  2
LTYPE
  70
4
  0
LTYPE
  5
40F
  2
CONTINUOUS
  70
0
  3
Solid line
  72
65
  73
0
  40
0.0
  0
LTYPE
  5
410
  2
DASHDOT
 70
0
  3
Dash Dot ____ _ ____ _
 72
65
 73
4
 40
2.0
 49
1.25
 49
-0.25
 49
0.25
 49
-0.25
  0
LTYPE
  5
411
  2
DASHED
 70
0
  3
Dashed __ __ __ __ __
 72
65
 73
2
 40
0.75
 49
0.5
 49
-0.25
  0
LTYPE
  5
43B
  2
DOTTED
 70
0
  3
Dotted .  .  .  .
 72
65
 73
2
 40
0.2
 49
0.0
 49
-0.2
  0
ENDTAB
  0
TABLE
  2
STYLE
  70
4
  0
STYLE
  2
KICAD
  70
0
  40
0
  41
1
  42
1
  50
0
  71
0
  3
isocp.shx
  0
STYLE
  2
KICADB
  70
0
  40
0
  41
1
  42
1
  50
0
  71
0
  3
isocp.shx
  0
STYLE
  2
KICADI
  70
0
  40
0
  41
1
  42
1
  50
15
  71
0
  3
isocp.shx
  0
STYLE
  2
KICADBI
  70
0
  40
0
  41
1
  42
1
  50
15
  71
0
  3
isocp.shx
  0
ENDTAB
  0
TABLE
  2
LAYER
  70
1
  0
LAYER
  2
BLACK
  70
0
  62
7
  6
CONTINUOUS
  0
ENDTAB
  0
ENDSEC
  0
SECTION
  2
ENTITIES
0
LINE
8
BLACK
6
CONTINUOUS
10
-0.3237965748031496
20
0.3816179921259842
11
-0.3232638976377953
21
0.3810853149606299
0
LINE
8
BLACK
6
CONTINUOUS
10
-0.3232638976377953
20
0.3810853149606299
11
-0.3231889763779527
21
0.3807086614173228
0
LINE
8
BLACK
6
CONTINUOUS
10
-0.3231889763779527
20
0.3807086614173228
11
-0.3231889763779527
21
0.3059055118110236
0
LINE
8
BLACK
6
CONTINUOUS
10
-0.3231889763779527
20
0.3059055118110236
11
-0.3232638976377953
21
0.3055288582677165
0
LINE
8
BLACK
6
CONTINUOUS
10
-0.3232638976377953
20
0.3055288582677165
11
-0.3237965748031496
21
0.3049961811023622
0
LINE
8
BLACK
6
CONTINUOUS
10
-0.3237965748031496
20
0.3049961811023622
11
-0.3241732283464567
21
0.3049212598425197
0
LINE
8
BLACK
6
CONTINUOUS
10
-0.3241732283464567
20
0.3049212598425197
11
-0.4564566929133858
21
0.3049212598425197
0
LINE
8
BLACK
6
CONTINUOUS
10
-0.4564566929133858
20
0.3049212598425197
11
-0.4568333464566929
21
0.3049961811023622
0
LINE
8
BLACK
6
CONTINUOUS
10
-0.4568333464566929
20
0.3049961811023622
11
-0.4573660236220473
21
0.3055288582677165
0
LINE
8
BLACK
6
CONTINUOUS
10
-0.4573660236220473
20
0.3055288582677165
11
-0.4574409448818897
21
0.3059055118110236
0
LINE
8
BLACK
6
CONTINUOUS
10
-0.4574409448818897
20
0.3059055118110236
11
-0.4574409448818897
21
0.3807086614173228
0
LINE
8
BLACK
6
CONTINUOUS
10
-0.4574409448818897
20
0.3807086614173228
11
-0.4573660236220473
21
0.3810853149606299
0
LINE
8
BLACK
6
CONTINUOUS
10
-0.4573660236220473
20
0.3810853149606299
11
-0.4568333464566929
21
0.3816179921259842
0
LINE
8
BLACK
6
CONTINUOUS
10
-0.4568333464566929
20
0.3816179921259842
11
-0.4564566929133858
21
0.3816929133858268
0
LINE
8
BLACK
6
CONTINUOUS
10
-0.4564566929133858
20
0.3816929133858268
11
-0.3241732283464567
21
0.3816929133858268
0
LINE
8
BLACK
6
CONTINUOUS
10
-0.3241732283464567
20
0.3816929133858268
11
-0.3237965748031496
21
0.3816179921259842
0
LINE
8
BLACK
6
CONTINUOUS
10
-0.4554724409448819
20
0.3797244094488189
11
-0.4554724409448819
21
0.3068897637795275
0
LINE
8
BLACK
6
CONTINUOUS
10
-0.4554724409448819
20
0.3068897637795275
11
-0.3251574803149606
21
0.3068897637795275
0
LINE
8
BLACK
6
CONTINUOUS
10
-0.3251574803149606
20
0.3068897637795275
11
-0.3251574803149606
21
0.3797244094488189
0
LINE
8
BLACK
6
CONTINUOUS
10
-0.3251574803149606
20
0.3797244094488189
11
-0.4554724409448819
21
0.3797244094488189
0
LINE
8
BLACK
6
CONTINUOUS
10
-0.1864934251968504
20
0.3829959448818898
11
-0.1859607480314961
21
0.3824632677165354
0
LINE
8
BLACK
6
CONTINUOUS
10
-0.1859607480314961
20
0.3824632677165354
11
-0.1858858267716536
21
0.3820866141732283
0
LINE
8
BLACK
6
CONTINUOUS
10
-0.1858858267716536
20
0.3820866141732283
11
-0.1858858267716536
21
0.3072834645669291
0
LINE
8
BLACK
6
CONTINUOUS
10
-0.1858858267716536
20
0.3072834645669291
11
-0.1859607480314961
21
0.3069068110236221
0
LINE
8
BLACK
6
CONTINUOUS
10
-0.1859607480314961
20
0.3069068110236221
11
-0.1864934251968504
21
0.3063741338582677
0
LINE
8
BLACK
6
CONTINUOUS
10
-0.1864934251968504
20
0.3063741338582677
11
-0.1868700787401575
21
0.3062992125984252
0
LINE
8
BLACK
6
CONTINUOUS
10
-0.1868700787401575
20
0.3062992125984252
11
-0.3191535433070866
21
0.3062992125984252
0
LINE
8
BLACK
6
CONTINUOUS
10
-0.3191535433070866
20
0.3062992125984252
11
-0.3195301968503937
21
0.3063741338582677
0
LINE
8
BLACK
6
CONTINUOUS
10
-0.3195301968503937
20
0.3063741338582677
11
-0.320062874015748
21
0.3069068110236221
0
LINE
8
BLACK
6
CONTINUOUS
10
-0.320062874015748
20
0.3069068110236221
11
-0.3201377952755906
21
0.3072834645669291
0
LINE
8
BLACK
6
CONTINUOUS
10
-0.3201377952755906
20
0.3072834645669291
11
-0.3201377952755906
21
0.3820866141732283
0
LINE
8
BLACK
6
CONTINUOUS
10
-0.3201377952755906
20
0.3820866141732283
11
-0.320062874015748
21
0.3824632677165354
0
LINE
8
BLACK
6
CONTINUOUS
10
-0.320062874015748
20
0.3824632677165354
11
-0.3195301968503937
21
0.3829959448818898
0
LINE
8
BLACK
6
CONTINUOUS
10
-0.3195301968503937
20
0.3829959448818898
11
-0.3191535433070866
21
0.3830708661417323
0
LINE
8
BLACK
6
CONTINUOUS
10
-0.3191535433070866
20
0.3830708661417323
11
-0.1868700787401575
21
0.3830708661417323
0
LINE
8
BLACK
6
CONTINUOUS
10
-0.1868700787401575
20
0.3830708661417323
11
-0.1864934251968504
21
0.3829959448818898
0
LINE
8
BLACK
6
CONTINUOUS
10
-0.3181692913385827
20
0.3811023622047244
11
-0.3181692913385827
21
0.3082677165354331
0
LINE
8
BLACK
6
CONTINUOUS
10
-0.3181692913385827
20
0.3082677165354331
11
-0.1878543307086614
21
0.3082677165354331
0
LINE
8
BLACK
6
CONTINUOUS
10
-0.1878543307086614
20
0.3082677165354331
11
-0.1878543307086614
21
0.3811023622047244
0
LINE
8
BLACK
6
CONTINUOUS
10
-0.1878543307086614
20
0.3811023622047244
11
-0.3181692913385827
21
0.3811023622047244
0
LINE
8
BLACK
6
CONTINUOUS
10
-0.3237965748031496
20
0.501303031496063
11
-0.3232638976377953
21
0.5007703543307086
0
LINE
8
BLACK
6
CONTINUOUS
10
-0.3232638976377953
20
0.5007703543307086
11
-0.3231889763779527
21
0.5003937007874015
0
LINE
8
BLACK
6
CONTINUOUS
10
-0.3231889763779527
20
0.5003937007874015
11
-0.3231889763779527
21
0.4255905511811023
0
LINE
8
BLACK
6
CONTINUOUS
10
-0.3231889763779527
20
0.4255905511811023
11
-0.3232638976377953
21
0.4252138976377953
0
LINE
8
BLACK
6
CONTINUOUS
10
-0.3232638976377953
20
0.4252138976377953
11
-0.3237965748031496
21
0.4246812204724409
0
LINE
8
BLACK
6
CONTINUOUS
10
-0.3237965748031496
20
0.4246812204724409
11
-0.3241732283464567
21
0.4246062992125984
0
LINE
8
BLACK
6
CONTINUOUS
10
-0.3241732283464567
20
0.4246062992125984
11
-0.4564566929133858
21
0.4246062992125984
0
LINE
8
BLACK
6
CONTINUOUS
10
-0.4564566929133858
20
0.4246062992125984
11
-0.4568333464566929
21
0.4246812204724409
0
LINE
8
BLACK
6
CONTINUOUS
10
-0.4568333464566929
20
0.4246812204724409
11
-0.4573660236220473
21
0.4252138976377953
0
LINE
8
BLACK
6
CONTINUOUS
10
-0.4573660236220473
20
0.4252138976377953
11
-0.4574409448818897
21
0.4255905511811023
0
LINE
8
BLACK
6
CONTINUOUS
10
-0.4574409448818897
20
0.4255905511811023
11
-0.4574409448818897
21
0.5003937007874015
0
LINE
8
BLACK
6
CONTINUOUS
10
-0.4574409448818897
20
0.5003937007874015
11
-0.4573660236220473
21
0.5007703543307086
0
LINE
8
BLACK
6
CONTINUOUS
10
-0.4573660236220473
20
0.5007703543307086
11
-0.4568333464566929
21
0.501303031496063
0
LINE
8
BLACK
6
CONTINUOUS
10
-0.4568333464566929
20
0.501303031496063
11
-0.4564566929133858
21
0.5013779527559055
0
LINE
8
BLACK
6
CONTINUOUS
10
-0.4564566929133858
20
0.5013779527559055
11
-0.3241732283464567
21
0.5013779527559055
0
LINE
8
BLACK
6
CONTINUOUS
10
-0.3241732283464567
20
0.5013779527559055
11
-0.3237965748031496
21
0.501303031496063
0
LINE
8
BLACK
6
CONTINUOUS
10
-0.4554724409448819
20
0.4994094488188976
11
-0.4554724409448819
21
0.4265748031496063
0
LINE
8
BLACK
6
CONTINUOUS
10
-0.4554724409448819
20
0.4265748031496063
11
-0.3251574803149606
21
0.4265748031496063
0
LINE
8
BLACK
6
CONTINUOUS
10
-0.3251574803149606
20
0.4265748031496063
11
-0.3251574803149606
21
0.4994094488188976
0
LINE
8
BLACK
6
CONTINUOUS
10
-0.3251574803149606
20
0.4994094488188976
11
-0.4554724409448819
21
0.4994094488188976
0
LINE
8
BLACK
6
CONTINUOUS
10
-0.1864934251968504
20
0.50307468503937
11
-0.1859607480314961
21
0.5025420078740157
0
LINE
8
BLACK
6
CONTINUOUS
10
-0.1859607480314961
20
0.5025420078740157
11
-0.1858858267716536
21
0.5021653543307086
0
LINE
8
BLACK
6
CONTINUOUS
10
-0.1858858267716536
20
0.5021653543307086
11
-0.1858858267716536
21
0.4273622047244094
0
LINE
8
BLACK
6
CONTINUOUS
10
-0.1858858267716536
20
0.4273622047244094
11
-0.1859607480314961
21
0.4269855511811024
0
LINE
8
BLACK
6
CONTINUOUS
10
-0.1859607480314961
20
0.4269855511811024
11
-0.1864934251968504
21
0.426452874015748
0
LINE
8
BLACK
6
CONTINUOUS
10
-0.1864934251968504
20
0.426452874015748
11
-0.1868700787401575
21
0.4263779527559055
0
LINE
8
BLACK
6
CONTINUOUS
10
-0.1868700787401575
20
0.4263779527559055
11
-0.3191535433070866
21
0.4263779527559055
0
LINE
8
BLACK
6
CONTINUOUS
10
-0.3191535433070866
20
0.4263779527559055
11
-0.3195301968503937
21
0.426452874015748
0
LINE
8
BLACK
6
CONTINUOUS
10
-0.3195301968503937
20
0.426452874015748
11
-0.320062874015748
21
0.4269855511811024
0
LINE
8
BLACK
6
CONTINUOUS
10
-0.320062874015748
20
0.4269855511811024
11
-0.3201377952755906
21
0.4273622047244094
0
LINE
8
BLACK
6
CONTINUOUS
10
-0.3201377952755906
20
0.4273622047244094
11
-0.3201377952755906
21
0.5021653543307086
0
LINE
8
BLACK
6
CONTINUOUS
10
-0.3201377952755906
20
0.5021653543307086
11
-0.320062874015748
21
0.5025420078740157
0
LINE
8
BLACK
6
CONTINUOUS
10
-0.320062874015748
20
0.5025420078740157
11
-0.3195301968503937
21
0.50307468503937
0
LINE
8
BLACK
6
CONTINUOUS
10
-0.3195301968503937
20
0.50307468503937
11
-0.3191535433070866
21
0.5031496062992126
0
LINE
8
BLACK
6
CONTINUOUS
10
-0.3191535433070866
20
0.5031496062992126
11
-0.1868700787401575
21
0.5031496062992126
0
LINE
8
BLACK
6
CONTINUOUS
10
-0.1868700787401575
20
0.5031496062992126
11
-0.1864934251968504
21
0.50307468503937
0
LINE
8
BLACK
6
CONTINUOUS
10
-0.3181692913385827
20
0.5011811023622047
11
-0.3181692913385827
21
0.4283464566929134
0
LINE
8
BLACK
6
CONTINUOUS
10
-0.3181692913385827
20
0.4283464566929134
11
-0.1878543307086614
21
0.4283464566929134
0
LINE
8
BLACK
6
CONTINUOUS
10
-0.1878543307086614
20
0.4283464566929134
11
-0.1878543307086614
21
0.5011811023622047
0
LINE
8
BLACK
6
CONTINUOUS
10
-0.1878543307086614
20
0.5011811023622047
11
-0.3181692913385827
21
0.5011811023622047
0
LINE
8
BLACK
6
CONTINUOUS
10
-0.716158779527559
20
2.5953975196850392
11
-0.7156261023622047
21
2.594864842519685
0
LINE
8
BLACK
6
CONTINUOUS
10
-0.7156261023622047
20
2.594864842519685
11
-0.7155511811023622
21
2.5944881889763778
0
LINE
8
BLACK
6
CONTINUOUS
10
-0.7155511811023622
20
2.5944881889763778
11
-0.7155511811023622
21
2.4960629921259843
0
LINE
8
BLACK
6
CONTINUOUS
10
-0.7155511811023622
20
2.4960629921259843
11
-0.7156261023622047
21
2.4956863385826771
0
LINE
8
BLACK
6
CONTINUOUS
10
-0.7156261023622047
20
2.4956863385826771
11
-0.716158779527559
21
2.4951536614173229
0
LINE
8
BLACK
6
CONTINUOUS
10
-0.716158779527559
20
2.4951536614173229
11
-0.7165354330708661
21
2.4950787401574801
0
LINE
8
BLACK
6
CONTINUOUS
10
-0.7165354330708661
20
2.4950787401574801
11
-0.8976377952755905
21
2.4950787401574801
0
LINE
8
BLACK
6
CONTINUOUS
10
-0.8976377952755905
20
2.4950787401574801
11
-0.8980144488188976
21
2.4951536614173229
0
LINE
8
BLACK
6
CONTINUOUS
10
-0.8980144488188976
20
2.4951536614173229
11
-0.8985471259842519
21
2.4956863385826771
0
LINE
8
BLACK
6
CONTINUOUS
10
-0.8985471259842519
20
2.4956863385826771
11
-0.8986220472440944
21
2.4960629921259843
0
LINE
8
BLACK
6
CONTINUOUS
10
-0.8986220472440944
20
2.4960629921259843
11
-0.8986220472440944
21
2.5944881889763778
0
LINE
8
BLACK
6
CONTINUOUS
10
-0.8986220472440944
20
2.5944881889763778
11
-0.8985471259842519
21
2.594864842519685
0
LINE
8
BLACK
6
CONTINUOUS
10
-0.8985471259842519
20
2.594864842519685
11
-0.8980144488188976
21
2.5953975196850392
0
LINE
8
BLACK
6
CONTINUOUS
10
-0.8980144488188976
20
2.5953975196850392
11
-0.8976377952755905
21
2.5954724409448819
0
LINE
8
BLACK
6
CONTINUOUS
10
-0.8976377952755905
20
2.5954724409448819
11
-0.7165354330708661
21
2.5954724409448819
0
LINE
8
BLACK
6
CONTINUOUS
10
-0.7165354330708661
20
2.5954724409448819
11
-0.716158779527559
21
2.5953975196850392
0
LINE
8
BLACK
6
CONTINUOUS
10
-0.8966535433070866
20
2.5935039370078741
11
-0.8966535433070866
21
2.497047244094488
0
LINE
8
BLACK
6
CONTINUOUS
10
-0.8966535433070866
20
2.497047244094488
11
-0.71751968503937
21
2.497047244094488
0
LINE
8
BLACK
6
CONTINUOUS
10
-0.71751968503937
20
2.497047244094488
11
-0.71751968503937
21
2.5935039370078741
0
LINE
8
BLACK
6
CONTINUOUS
10
-0.71751968503937
20
2.5935039370078741
11
-0.8966535433070866
21
2.5935039370078741
0
LINE
8
BLACK
6
CONTINUOUS
10
-0.3072611417322835
20
2.9459880708661417
11
-0.3067284645669291
21
2.9454553937007875
0
LINE
8
BLACK
6
CONTINUOUS
10
-0.3067284645669291
20
2.9454553937007875
11
-0.3066535433070866
21
2.9450787401574803
0
LINE
8
BLACK
6
CONTINUOUS
10
-0.3066535433070866
20
2.9450787401574803
11
-0.3066535433070866
21
2.8466535433070868
0
LINE
8
BLACK
6
CONTINUOUS
10
-0.3066535433070866
20
2.8466535433070868
11
-0.3067284645669291
21
2.8462768897637796
0
LINE
8
BLACK
6
CONTINUOUS
10
-0.3067284645669291
20
2.8462768897637796
11
-0.3072611417322835
21
2.8457442125984249
0
LINE
8
BLACK
6
CONTINUOUS
10
-0.3072611417322835
20
2.8457442125984249
11
-0.3076377952755905
21
2.8456692913385826
0
LINE
8
BLACK
6
CONTINUOUS
10
-0.3076377952755905
20
2.8456692913385826
11
-0.4375590551181102
21
2.8456692913385826
0
LINE
8
BLACK
6
CONTINUOUS
10
-0.4375590551181102
20
2.8456692913385826
11
-0.4379357086614173
21
2.8457442125984249
0
LINE
8
BLACK
6
CONTINUOUS
10
-0.4379357086614173
20
2.8457442125984249
11
-0.4384683858267717
21
2.8462768897637796
0
LINE
8
BLACK
6
CONTINUOUS
10
-0.4384683858267717
20
2.8462768897637796
11
-0.4385433070866142
21
2.8466535433070868
0
LINE
8
BLACK
6
CONTINUOUS
10
-0.4385433070866142
20
2.8466535433070868
11
-0.4385433070866142
21
2.9450787401574803
0
LINE
8
BLACK
6
CONTINUOUS
10
-0.4385433070866142
20
2.9450787401574803
11
-0.4384683858267717
21
2.9454553937007875
0
LINE
8
BLACK
6
CONTINUOUS
10
-0.4384683858267717
20
2.9454553937007875
11
-0.4379357086614173
21
2.9459880708661417
0
LINE
8
BLACK
6
CONTINUOUS
10
-0.4379357086614173
20
2.9459880708661417
11
-0.4375590551181102
21
2.946062992125984
0
LINE
8
BLACK
6
CONTINUOUS
10
-0.4375590551181102
20
2.946062992125984
11
-0.3076377952755905
21
2.946062992125984
0
LINE
8
BLACK
6
CONTINUOUS
10
-0.3076377952755905
20
2.946062992125984
11
-0.3072611417322835
21
2.9459880708661417
0
LINE
8
BLACK
6
CONTINUOUS
10
-0.4365748031496063
20
2.9440944881889761
11
-0.4365748031496063
21
2.8476377952755905
0
LINE
8
BLACK
6
CONTINUOUS
10
-0.4365748031496063
20
2.8476377952755905
11
-0.3086220472440945
21
2.8476377952755905
0
LINE
8
BLACK
6
CONTINUOUS
10
-0.3086220472440945
20
2.8476377952755905
11
-0.3086220472440945
21
2.9440944881889761
0
LINE
8
BLACK
6
CONTINUOUS
10
-0.3086220472440945
20
2.9440944881889761
11
-0.4365748031496063
21
2.9440944881889761
0
CIRCLE
8
BLACK
10
-0.3803149606299213
20
3.2884842519685038
40
0.0068897637795276
0
CIRCLE
8
BLACK
10
-0.3661417322834646
20
0.7419291338582678
40
0.0068897637795276
0
CIRCLE
8
BLACK
10
-0.3661417322834646
20
2.6399606299212599
40
0.0068897637795276
0
CIRCLE
8
BLACK
10
-0.1692913385826772
20
1.5151574803149606
40
0.0068897637795276
0
CIRCLE
8
BLACK
10
-0.1692913385826772
20
1.5938976377952756
40
0.0068897637795276
0
CIRCLE
8
BLACK
10
-0.1692913385826772
20
1.6726377952755904
40
0.0068897637795276
0
CIRCLE
8
BLACK
10
-0.1692913385826772
20
1.7513779527559055
40
0.0068897637795276
0
CIRCLE
8
BLACK
10
-0.1692913385826772
20
1.8301181102362205
40
0.0068897637795276
0
CIRCLE
8
BLACK
10
-0.1692913385826772
20
1.9088582677165353
40
0.0068897637795276
0
CIRCLE
8
BLACK
10
-0.2480314960629921
20
1.5151574803149606
40
0.0068897637795276
0
CIRCLE
8
BLACK
10
-0.2480314960629921
20
1.5938976377952756
40
0.0068897637795276
0
CIRCLE
8
BLACK
10
-0.2480314960629921
20
1.6726377952755904
40
0.0068897637795276
0
CIRCLE
8
BLACK
10
-0.2480314960629921
20
1.7513779527559055
40
0.0068897637795276
0
CIRCLE
8
BLACK
10
-0.2480314960629921
20
1.8301181102362205
40
0.0068897637795276
0
CIRCLE
8
BLACK
10
-0.2480314960629921
20
1.9088582677165353
40
0.0068897637795276
0
CIRCLE
8
BLACK
10
-0.3267716535433071
20
1.5151574803149606
40
0.0068897637795276
0
CIRCLE
8
BLACK
10
-0.3267716535433071
20
1.5938976377952756
40
0.0068897637795276
0
CIRCLE
8
BLACK
10
-0.3267716535433071
20
1.6726377952755904
40
0.0068897637795276
0
CIRCLE
8
BLACK
10
-0.3267716535433071
20
1.7513779527559055
40
0.0068897637795276
0
CIRCLE
8
BLACK
10
-0.3267716535433071
20
1.8301181102362205
40
0.0068897637795276
0
CIRCLE
8
BLACK
10
-0.3267716535433071
20
1.9088582677165353
40
0.0068897637795276
0
CIRCLE
8
BLACK
10
-0.405511811023622
20
1.5151574803149606
40
0.0068897637795276
0
CIRCLE
8
BLACK
10
-0.405511811023622
20
1.5938976377952756
40
0.0068897637795276
0
CIRCLE
8
BLACK
10
-0.405511811023622
20
1.6726377952755904
40
0.0068897637795276
0
CIRCLE
8
BLACK
10
-0.405511811023622
20
1.7513779527559055
40
0.0068897637795276
0
CIRCLE
8
BLACK
10
-0.405511811023622
20
1.8301181102362205
40
0.0068897637795276
0
CIRCLE
8
BLACK
10
-0.405511811023622
20
1.9088582677165353
40
0.0068897637795276
0
CIRCLE
8
BLACK
10
-0.484251968503937
20
1.5151574803149606
40
0.0068897637795276
0
CIRCLE
8
BLACK
10
-0.484251968503937
20
1.5938976377952756
40
0.0068897637795276
0
CIRCLE
8
BLACK
10
-0.484251968503937
20
1.6726377952755904
40
0.0068897637795276
0
CIRCLE
8
BLACK
10
-0.484251968503937
20
1.7513779527559055
40
0.0068897637795276
0
CIRCLE
8
BLACK
10
-0.484251968503937
20
1.8301181102362205
40
0.0068897637795276
0
CIRCLE
8
BLACK
10
-0.484251968503937
20
1.9088582677165353
40
0.0068897637795276
0
CIRCLE
8
BLACK
10
-0.562992125984252
20
0.9584645669291338
40
0.0068897637795276
0
CIRCLE
8
BLACK
10
-0.4645669291338583
20
0.9584645669291338
40
0.0068897637795276
0
CIRCLE
8
BLACK
10
-0.3661417322834646
20
0.9584645669291338
40
0.0068897637795276
0
CIRCLE
8
BLACK
10
-0.2677165354330708
20
0.9584645669291338
40
0.0068897637795276
0
CIRCLE
8
BLACK
10
-0.1692913385826772
20
0.9584645669291338
40
0.0068897637795276
0
CIRCLE
8
BLACK
10
-0.562992125984252
20
1.0765748031496063
40
0.0068897637795276
0
CIRCLE
8
BLACK
10
-0.4645669291338583
20
1.0765748031496063
40
0.0068897637795276
0
CIRCLE
8
BLACK
10
-0.3661417322834646
20
1.0765748031496063
40
0.0068897637795276
0
CIRCLE
8
BLACK
10
-0.2677165354330708
20
1.0765748031496063
40
0.0068897637795276
0
CIRCLE
8
BLACK
10
-0.1692913385826772
20
1.0765748031496063
40
0.0068897637795276
0
CIRCLE
8
BLACK
10
-0.562992125984252
20
1.175
40
0.0068897637795276
0
CIRCLE
8
BLACK
10
-0.4645669291338583
20
1.175
40
0.0068897637795276
0
CIRCLE
8
BLACK
10
-0.3661417322834646
20
1.175
40
0.0068897637795276
0
CIRCLE
8
BLACK
10
-0.2677165354330708
20
1.175
40
0.0068897637795276
0
CIRCLE
8
BLACK
10
-0.1692913385826772
20
1.175
40
0.0068897637795276
0
CIRCLE
8
BLACK
10
-0.562992125984252
20
1.2931102362204725
40
0.0068897637795276
0
CIRCLE
8
BLACK
10
-0.4645669291338583
20
1.2931102362204725
40
0.0068897637795276
0
CIRCLE
8
BLACK
10
-0.3661417322834646
20
1.2931102362204725
40
0.0068897637795276
0
CIRCLE
8
BLACK
10
-0.2677165354330708
20
1.2931102362204725
40
0.0068897637795276
0
CIRCLE
8
BLACK
10
-0.1692913385826772
20
1.2931102362204725
40
0.0068897637795276
0
CIRCLE
8
BLACK
10
-0.562992125984252
20
2.0887795275590553
40
0.0068897637795276
0
CIRCLE
8
BLACK
10
-0.4645669291338583
20
2.0887795275590553
40
0.0068897637795276
0
CIRCLE
8
BLACK
10
-0.3661417322834646
20
2.0887795275590553
40
0.0068897637795276
0
CIRCLE
8
BLACK
10
-0.2677165354330708
20
2.0887795275590553
40
0.0068897637795276
0
CIRCLE
8
BLACK
10
-0.1692913385826772
20
2.0887795275590553
40
0.0068897637795276
0
CIRCLE
8
BLACK
10
-0.562992125984252
20
2.2068897637795275
40
0.0068897637795276
0
CIRCLE
8
BLACK
10
-0.4645669291338583
20
2.2068897637795275
40
0.0068897637795276
0
CIRCLE
8
BLACK
10
-0.3661417322834646
20
2.2068897637795275
40
0.0068897637795276
0
CIRCLE
8
BLACK
10
-0.2677165354330708
20
2.2068897637795275
40
0.0068897637795276
0
CIRCLE
8
BLACK
10
-0.1692913385826772
20
2.2068897637795275
40
0.0068897637795276
0
CIRCLE
8
BLACK
10
-0.562992125984252
20
2.305314960629921
40
0.0068897637795276
0
CIRCLE
8
BLACK
10
-0.4645669291338583
20
2.305314960629921
40
0.0068897637795276
0
CIRCLE
8
BLACK
10
-0.3661417322834646
20
2.305314960629921
40
0.0068897637795276
0
CIRCLE
8
BLACK
10
-0.2677165354330708
20
2.305314960629921
40
0.0068897637795276
0
CIRCLE
8
BLACK
10
-0.1692913385826772
20
2.305314960629921
40
0.0068897637795276
0
CIRCLE
8
BLACK
10
-0.562992125984252
20
2.4234251968503937
40
0.0068897637795276
0
CIRCLE
8
BLACK
10
-0.4645669291338583
20
2.4234251968503937
40
0.0068897637795276
0
CIRCLE
8
BLACK
10
-0.3661417322834646
20
2.4234251968503937
40
0.0068897637795276
0
CIRCLE
8
BLACK
10
-0.2677165354330708
20
2.4234251968503937
40
0.0068897637795276
0
CIRCLE
8
BLACK
10
-0.1692913385826772
20
2.4234251968503937
40
0.0068897637795276
0
CIRCLE
8
BLACK
10
-0.7803149606299212
20
2.8884842519685039
40
0.0068897637795276
0
CIRCLE
8
BLACK
10
-0.3803149606299213
20
0.0884842519685039
40
0.0068897637795276
0
CIRCLE
8
BLACK
10
-0.7803149606299212
20
0.4884842519685039
40
0.0068897637795276
0
CIRCLE
8
BLACK
10
-0.713511811023622
20
0.7243464566929134
40
0.0068897637795276
0
CIRCLE
8
BLACK
10
-0.713511811023622
20
0.8243464566929134
40
0.0068897637795276
0
CIRCLE
8
BLACK
10
-0.813511811023622
20
0.7243464173228347
40
0.0068897637795276
0
CIRCLE
8
BLACK
10
-0.813511811023622
20
0.8243464960629922
40
0.0068897637795276
0
CIRCLE
8
BLACK
10
-0.913511811023622
20
0.7243464566929134
40
0.0068897637795276
0
CIRCLE
8
BLACK
10
-0.913511811023622
20
0.8243464566929134
40
0.0068897637795276
0
CIRCLE
8
BLACK
10
-0.8803149606299212
20
2.390748031496063
40
0.0068897637795276
0
CIRCLE
8
BLACK
10
-0.7803149606299212
20
2.390748031496063
40
0.0068897637795276
0
CIRCLE
8
BLACK
10
-0.8803149606299212
20
2.2907480314960629
40
0.0068897637795276
0
CIRCLE
8
BLACK
10
-0.7803149606299212
20
2.2907480314960629
40
0.0068897637795276
0
CIRCLE
8
BLACK
10
-0.8803149606299212
20
2.1907480314960628
40
0.0068897637795276
0
CIRCLE
8
BLACK
10
-0.7803149606299212
20
2.1907480314960628
40
0.0068897637795276
0
CIRCLE
8
BLACK
10
-0.8803149606299212
20
2.0907480314960631
40
0.0068897637795276
0
CIRCLE
8
BLACK
10
-0.7803149606299212
20
2.0907480314960631
40
0.0068897637795276
0
CIRCLE
8
BLACK
10
-0.8803149606299212
20
1.9907480314960631
40
0.0068897637795276
0
CIRCLE
8
BLACK
10
-0.7803149606299212
20
1.9907480314960631
40
0.0068897637795276
0
CIRCLE
8
BLACK
10
-0.8803149606299212
20
1.890748031496063
40
0.0068897637795276
0
CIRCLE
8
BLACK
10
-0.7803149606299212
20
1.890748031496063
40
0.0068897637795276
0
CIRCLE
8
BLACK
10
-0.8803149606299212
20
1.7907480314960629
40
0.0068897637795276
0
CIRCLE
8
BLACK
10
-0.7803149606299212
20
1.7907480314960629
40
0.0068897637795276
0
CIRCLE
8
BLACK
10
-0.8803149606299212
20
1.690748031496063
40
0.0068897637795276
0
CIRCLE
8
BLACK
10
-0.7803149606299212
20
1.690748031496063
40
0.0068897637795276
0
CIRCLE
8
BLACK
10
-0.8803149606299212
20
1.5907480314960629
40
0.0068897637795276
0
CIRCLE
8
BLACK
10
-0.7803149606299212
20
1.5907480314960629
40
0.0068897637795276
0
CIRCLE
8
BLACK
10
-0.8803149606299212
20
1.4907480314960631
40
0.0068897637795276
0
CIRCLE
8
BLACK
10
-0.7803149606299212
20
1.4907480314960631
40
0.0068897637795276
0
CIRCLE
8
BLACK
10
-0.8803149606299212
20
1.390748031496063
40
0.0068897637795276
0
CIRCLE
8
BLACK
10
-0.7803149606299212
20
1.390748031496063
40
0.0068897637795276
0
CIRCLE
8
BLACK
10
-0.8803149606299212
20
1.2907480314960629
40
0.0068897637795276
0
CIRCLE
8
BLACK
10
-0.7803149606299212
20
1.2907480314960629
40
0.0068897637795276
0
CIRCLE
8
BLACK
10
-0.8803149606299212
20
1.190748031496063
40
0.0068897637795276
0
CIRCLE
8
BLACK
10
-0.7803149606299212
20
1.190748031496063
40
0.0068897637795276
0
CIRCLE
8
BLACK
10
-0.8803149606299212
20
1.0907480314960629
40
0.0068897637795276
0
CIRCLE
8
BLACK
10
-0.7803149606299212
20
1.0907480314960629
40
0.0068897637795276
0
CIRCLE
8
BLACK
10
-0.8803149606299212
20
0.9907480314960629
40
0.0068897637795276
0
CIRCLE
8
BLACK
10
-0.7803149606299212
20
0.9907480314960629
40
0.0068897637795276
  0
ENDSEC
  0
EOF
