  0
SECTION
  2
HEADER
  9
$ANGBASE
  50
0.0
  9
$ANGDIR
  70
1
  9
$MEASUREMENT
  70
0
  0
ENDSEC
  0
SECTION
  2
TABLES
  0
TABLE
  2
LTYPE
  70
4
  0
LTYPE
  5
40F
  2
CONTINUOUS
  70
0
  3
Solid line
  72
65
  73
0
  40
0.0
  0
LTYPE
  5
410
  2
DASHDOT
 70
0
  3
Dash Dot ____ _ ____ _
 72
65
 73
4
 40
2.0
 49
1.25
 49
-0.25
 49
0.25
 49
-0.25
  0
LTYPE
  5
411
  2
DASHED
 70
0
  3
Dashed __ __ __ __ __
 72
65
 73
2
 40
0.75
 49
0.5
 49
-0.25
  0
LTYPE
  5
43B
  2
DOTTED
 70
0
  3
Dotted .  .  .  .
 72
65
 73
2
 40
0.2
 49
0.0
 49
-0.2
  0
ENDTAB
  0
TABLE
  2
STYLE
  70
4
  0
STYLE
  2
KICAD
  70
0
  40
0
  41
1
  42
1
  50
0
  71
0
  3
isocp.shx
  0
STYLE
  2
KICADB
  70
0
  40
0
  41
1
  42
1
  50
0
  71
0
  3
isocp.shx
  0
STYLE
  2
KICADI
  70
0
  40
0
  41
1
  42
1
  50
15
  71
0
  3
isocp.shx
  0
STYLE
  2
KICADBI
  70
0
  40
0
  41
1
  42
1
  50
15
  71
0
  3
isocp.shx
  0
ENDTAB
  0
TABLE
  2
LAYER
  70
1
  0
LAYER
  2
BLACK
  70
0
  62
7
  6
CONTINUOUS
  0
ENDTAB
  0
ENDSEC
  0
SECTION
  2
ENTITIES
0
LINE
8
BLACK
6
CONTINUOUS
10
-0.324173
20
0.381693
11
-0.323477
21
0.381405
0
LINE
8
BLACK
6
CONTINUOUS
10
-0.323477
20
0.381405
11
-0.323189
21
0.380709
0
LINE
8
BLACK
6
CONTINUOUS
10
-0.323189
20
0.380709
11
-0.323189
21
0.305906
0
LINE
8
BLACK
6
CONTINUOUS
10
-0.323189
20
0.305906
11
-0.323477
21
0.30521
0
LINE
8
BLACK
6
CONTINUOUS
10
-0.323477
20
0.30521
11
-0.324173
21
0.304921
0
LINE
8
BLACK
6
CONTINUOUS
10
-0.324173
20
0.304921
11
-0.456457
21
0.304921
0
LINE
8
BLACK
6
CONTINUOUS
10
-0.456457
20
0.304921
11
-0.457153
21
0.30521
0
LINE
8
BLACK
6
CONTINUOUS
10
-0.457153
20
0.30521
11
-0.457441
21
0.305906
0
LINE
8
BLACK
6
CONTINUOUS
10
-0.457441
20
0.305906
11
-0.457441
21
0.380709
0
LINE
8
BLACK
6
CONTINUOUS
10
-0.457441
20
0.380709
11
-0.457153
21
0.381405
0
LINE
8
BLACK
6
CONTINUOUS
10
-0.457153
20
0.381405
11
-0.456457
21
0.381693
0
LINE
8
BLACK
6
CONTINUOUS
10
-0.456457
20
0.381693
11
-0.324173
21
0.381693
0
LINE
8
BLACK
6
CONTINUOUS
10
-0.455472
20
0.379724
11
-0.455472
21
0.30689
0
LINE
8
BLACK
6
CONTINUOUS
10
-0.455472
20
0.30689
11
-0.325157
21
0.30689
0
LINE
8
BLACK
6
CONTINUOUS
10
-0.325157
20
0.30689
11
-0.325157
21
0.379724
0
LINE
8
BLACK
6
CONTINUOUS
10
-0.325157
20
0.379724
11
-0.455472
21
0.379724
0
LINE
8
BLACK
6
CONTINUOUS
10
-0.18687
20
0.383071
11
-0.186174
21
0.382783
0
LINE
8
BLACK
6
CONTINUOUS
10
-0.186174
20
0.382783
11
-0.185886
21
0.382087
0
LINE
8
BLACK
6
CONTINUOUS
10
-0.185886
20
0.382087
11
-0.185886
21
0.307283
0
LINE
8
BLACK
6
CONTINUOUS
10
-0.185886
20
0.307283
11
-0.186174
21
0.306587
0
LINE
8
BLACK
6
CONTINUOUS
10
-0.186174
20
0.306587
11
-0.18687
21
0.306299
0
LINE
8
BLACK
6
CONTINUOUS
10
-0.18687
20
0.306299
11
-0.319154
21
0.306299
0
LINE
8
BLACK
6
CONTINUOUS
10
-0.319154
20
0.306299
11
-0.31985
21
0.306587
0
LINE
8
BLACK
6
CONTINUOUS
10
-0.31985
20
0.306587
11
-0.320138
21
0.307283
0
LINE
8
BLACK
6
CONTINUOUS
10
-0.320138
20
0.307283
11
-0.320138
21
0.382087
0
LINE
8
BLACK
6
CONTINUOUS
10
-0.320138
20
0.382087
11
-0.31985
21
0.382783
0
LINE
8
BLACK
6
CONTINUOUS
10
-0.31985
20
0.382783
11
-0.319154
21
0.383071
0
LINE
8
BLACK
6
CONTINUOUS
10
-0.319154
20
0.383071
11
-0.18687
21
0.383071
0
LINE
8
BLACK
6
CONTINUOUS
10
-0.318169
20
0.381102
11
-0.318169
21
0.308268
0
LINE
8
BLACK
6
CONTINUOUS
10
-0.318169
20
0.308268
11
-0.187854
21
0.308268
0
LINE
8
BLACK
6
CONTINUOUS
10
-0.187854
20
0.308268
11
-0.187854
21
0.381102
0
LINE
8
BLACK
6
CONTINUOUS
10
-0.187854
20
0.381102
11
-0.318169
21
0.381102
0
LINE
8
BLACK
6
CONTINUOUS
10
-0.324173
20
0.501378
11
-0.323477
21
0.50109
0
LINE
8
BLACK
6
CONTINUOUS
10
-0.323477
20
0.50109
11
-0.323189
21
0.500394
0
LINE
8
BLACK
6
CONTINUOUS
10
-0.323189
20
0.500394
11
-0.323189
21
0.425591
0
LINE
8
BLACK
6
CONTINUOUS
10
-0.323189
20
0.425591
11
-0.323477
21
0.424895
0
LINE
8
BLACK
6
CONTINUOUS
10
-0.323477
20
0.424895
11
-0.324173
21
0.424606
0
LINE
8
BLACK
6
CONTINUOUS
10
-0.324173
20
0.424606
11
-0.456457
21
0.424606
0
LINE
8
BLACK
6
CONTINUOUS
10
-0.456457
20
0.424606
11
-0.457153
21
0.424895
0
LINE
8
BLACK
6
CONTINUOUS
10
-0.457153
20
0.424895
11
-0.457441
21
0.425591
0
LINE
8
BLACK
6
CONTINUOUS
10
-0.457441
20
0.425591
11
-0.457441
21
0.500394
0
LINE
8
BLACK
6
CONTINUOUS
10
-0.457441
20
0.500394
11
-0.457153
21
0.50109
0
LINE
8
BLACK
6
CONTINUOUS
10
-0.457153
20
0.50109
11
-0.456457
21
0.501378
0
LINE
8
BLACK
6
CONTINUOUS
10
-0.456457
20
0.501378
11
-0.324173
21
0.501378
0
LINE
8
BLACK
6
CONTINUOUS
10
-0.455472
20
0.499409
11
-0.455472
21
0.426575
0
LINE
8
BLACK
6
CONTINUOUS
10
-0.455472
20
0.426575
11
-0.325157
21
0.426575
0
LINE
8
BLACK
6
CONTINUOUS
10
-0.325157
20
0.426575
11
-0.325157
21
0.499409
0
LINE
8
BLACK
6
CONTINUOUS
10
-0.325157
20
0.499409
11
-0.455472
21
0.499409
0
LINE
8
BLACK
6
CONTINUOUS
10
-0.18687
20
0.50315
11
-0.186174
21
0.502861
0
LINE
8
BLACK
6
CONTINUOUS
10
-0.186174
20
0.502861
11
-0.185886
21
0.502165
0
LINE
8
BLACK
6
CONTINUOUS
10
-0.185886
20
0.502165
11
-0.185886
21
0.427362
0
LINE
8
BLACK
6
CONTINUOUS
10
-0.185886
20
0.427362
11
-0.186174
21
0.426666
0
LINE
8
BLACK
6
CONTINUOUS
10
-0.186174
20
0.426666
11
-0.18687
21
0.426378
0
LINE
8
BLACK
6
CONTINUOUS
10
-0.18687
20
0.426378
11
-0.319154
21
0.426378
0
LINE
8
BLACK
6
CONTINUOUS
10
-0.319154
20
0.426378
11
-0.31985
21
0.426666
0
LINE
8
BLACK
6
CONTINUOUS
10
-0.31985
20
0.426666
11
-0.320138
21
0.427362
0
LINE
8
BLACK
6
CONTINUOUS
10
-0.320138
20
0.427362
11
-0.320138
21
0.502165
0
LINE
8
BLACK
6
CONTINUOUS
10
-0.320138
20
0.502165
11
-0.31985
21
0.502861
0
LINE
8
BLACK
6
CONTINUOUS
10
-0.31985
20
0.502861
11
-0.319154
21
0.50315
0
LINE
8
BLACK
6
CONTINUOUS
10
-0.319154
20
0.50315
11
-0.18687
21
0.50315
0
LINE
8
BLACK
6
CONTINUOUS
10
-0.318169
20
0.501181
11
-0.318169
21
0.428346
0
LINE
8
BLACK
6
CONTINUOUS
10
-0.318169
20
0.428346
11
-0.187854
21
0.428346
0
LINE
8
BLACK
6
CONTINUOUS
10
-0.187854
20
0.428346
11
-0.187854
21
0.501181
0
LINE
8
BLACK
6
CONTINUOUS
10
-0.187854
20
0.501181
11
-0.318169
21
0.501181
0
LINE
8
BLACK
6
CONTINUOUS
10
-0.716535
20
2.59547
11
-0.715839
21
2.59518
0
LINE
8
BLACK
6
CONTINUOUS
10
-0.715839
20
2.59518
11
-0.715551
21
2.59449
0
LINE
8
BLACK
6
CONTINUOUS
10
-0.715551
20
2.59449
11
-0.715551
21
2.49606
0
LINE
8
BLACK
6
CONTINUOUS
10
-0.715551
20
2.49606
11
-0.715839
21
2.49537
0
LINE
8
BLACK
6
CONTINUOUS
10
-0.715839
20
2.49537
11
-0.716535
21
2.49508
0
LINE
8
BLACK
6
CONTINUOUS
10
-0.716535
20
2.49508
11
-0.897638
21
2.49508
0
LINE
8
BLACK
6
CONTINUOUS
10
-0.897638
20
2.49508
11
-0.898334
21
2.49537
0
LINE
8
BLACK
6
CONTINUOUS
10
-0.898334
20
2.49537
11
-0.898622
21
2.49606
0
LINE
8
BLACK
6
CONTINUOUS
10
-0.898622
20
2.49606
11
-0.898622
21
2.59449
0
LINE
8
BLACK
6
CONTINUOUS
10
-0.898622
20
2.59449
11
-0.898334
21
2.59518
0
LINE
8
BLACK
6
CONTINUOUS
10
-0.898334
20
2.59518
11
-0.897638
21
2.59547
0
LINE
8
BLACK
6
CONTINUOUS
10
-0.897638
20
2.59547
11
-0.716535
21
2.59547
0
LINE
8
BLACK
6
CONTINUOUS
10
-0.896654
20
2.5935
11
-0.896654
21
2.49705
0
LINE
8
BLACK
6
CONTINUOUS
10
-0.896654
20
2.49705
11
-0.71752
21
2.49705
0
LINE
8
BLACK
6
CONTINUOUS
10
-0.71752
20
2.49705
11
-0.71752
21
2.5935
0
LINE
8
BLACK
6
CONTINUOUS
10
-0.71752
20
2.5935
11
-0.896654
21
2.5935
0
LINE
8
BLACK
6
CONTINUOUS
10
-0.307638
20
2.94606
11
-0.306942
21
2.94577
0
LINE
8
BLACK
6
CONTINUOUS
10
-0.306942
20
2.94577
11
-0.306654
21
2.94508
0
LINE
8
BLACK
6
CONTINUOUS
10
-0.306654
20
2.94508
11
-0.306654
21
2.84665
0
LINE
8
BLACK
6
CONTINUOUS
10
-0.306654
20
2.84665
11
-0.306942
21
2.84596
0
LINE
8
BLACK
6
CONTINUOUS
10
-0.306942
20
2.84596
11
-0.307638
21
2.84567
0
LINE
8
BLACK
6
CONTINUOUS
10
-0.307638
20
2.84567
11
-0.437559
21
2.84567
0
LINE
8
BLACK
6
CONTINUOUS
10
-0.437559
20
2.84567
11
-0.438255
21
2.84596
0
LINE
8
BLACK
6
CONTINUOUS
10
-0.438255
20
2.84596
11
-0.438543
21
2.84665
0
LINE
8
BLACK
6
CONTINUOUS
10
-0.438543
20
2.84665
11
-0.438543
21
2.94508
0
LINE
8
BLACK
6
CONTINUOUS
10
-0.438543
20
2.94508
11
-0.438255
21
2.94577
0
LINE
8
BLACK
6
CONTINUOUS
10
-0.438255
20
2.94577
11
-0.437559
21
2.94606
0
LINE
8
BLACK
6
CONTINUOUS
10
-0.437559
20
2.94606
11
-0.307638
21
2.94606
0
LINE
8
BLACK
6
CONTINUOUS
10
-0.436575
20
2.94409
11
-0.436575
21
2.84764
0
LINE
8
BLACK
6
CONTINUOUS
10
-0.436575
20
2.84764
11
-0.308622
21
2.84764
0
LINE
8
BLACK
6
CONTINUOUS
10
-0.308622
20
2.84764
11
-0.308622
21
2.94409
0
LINE
8
BLACK
6
CONTINUOUS
10
-0.308622
20
2.94409
11
-0.436575
21
2.94409
  0
ENDSEC
  0
EOF
