<?xml version='1.0' encoding='ASCII' standalone='yes'?>
<svg xmlns:svg="http://www.w3.org/2000/svg" xmlns="http://www.w3.org/2000/svg" xmlns:xlink="http://www.w3.org/1999/xlink" version="1.1" width="297.0022mm" height="210.0072mm" viewBox="0.0000 0.0000 297.0022 210.0072">
<title>SVG Image created as BATDATSOCKET01-F_Fab.svg date 2023/11/07 17:32:51 </title>
  <desc>Image generated by PCBNEW </desc>
<g style="fill:#848484; fill-opacity:1.0000;stroke:#848484; stroke-opacity:1.0000; stroke-linecap:round; stroke-linejoin:round;" transform="translate(0 0) scale(1 1)">
</g>
<g style="fill:#848484; fill-opacity:0.0;  stroke:#848484; stroke-width:0.0000; stroke-opacity:1;  stroke-linecap:round; stroke-linejoin:round;">
</g>
<g style="fill:#848484; fill-opacity:0.01;  stroke:#848484; stroke-width:0.3665; stroke-opacity:1;  stroke-linecap:round; stroke-linejoin:round;">
<text x="157.4020" y="36.0420" textLength="28.8831" font-size="3.2577" lengthAdjust="spacingAndGlyphs" text-anchor="middle" opacity="0.01" style="font-family:monospace">Jumper_2_Open</text>
<g class="stroked-text"><desc>Jumper_2_Open</desc>
<path d="M144.5457 33.4883 L144.5457 35.2335 "/>
<path d="M144.5457 35.2335 L144.4293 35.5826 "/>
<path d="M144.4293 35.5826 L144.1966 35.8153 "/>
<path d="M144.1966 35.8153 L143.8476 35.9316 "/>
<path d="M143.8476 35.9316 L143.6149 35.9316 "/>
<path d="M146.7562 34.3027 L146.7562 35.9316 "/>
<path d="M145.7091 34.3027 L145.7091 35.5826 "/>
<path d="M145.7091 35.5826 L145.8255 35.8153 "/>
<path d="M145.8255 35.8153 L146.0582 35.9316 "/>
<path d="M146.0582 35.9316 L146.4072 35.9316 "/>
<path d="M146.4072 35.9316 L146.6399 35.8153 "/>
<path d="M146.6399 35.8153 L146.7562 35.6989 "/>
<path d="M147.9197 35.9316 L147.9197 34.3027 "/>
<path d="M147.9197 34.5354 L148.0361 34.4191 "/>
<path d="M148.0361 34.4191 L148.2688 34.3027 "/>
<path d="M148.2688 34.3027 L148.6178 34.3027 "/>
<path d="M148.6178 34.3027 L148.8505 34.4191 "/>
<path d="M148.8505 34.4191 L148.9668 34.6518 "/>
<path d="M148.9668 34.6518 L148.9668 35.9316 "/>
<path d="M148.9668 34.6518 L149.0832 34.4191 "/>
<path d="M149.0832 34.4191 L149.3159 34.3027 "/>
<path d="M149.3159 34.3027 L149.6649 34.3027 "/>
<path d="M149.6649 34.3027 L149.8976 34.4191 "/>
<path d="M149.8976 34.4191 L150.0140 34.6518 "/>
<path d="M150.0140 34.6518 L150.0140 35.9316 "/>
<path d="M151.1774 34.3027 L151.1774 36.7460 "/>
<path d="M151.1774 34.4191 L151.4101 34.3027 "/>
<path d="M151.4101 34.3027 L151.8755 34.3027 "/>
<path d="M151.8755 34.3027 L152.1082 34.4191 "/>
<path d="M152.1082 34.4191 L152.2245 34.5354 "/>
<path d="M152.2245 34.5354 L152.3409 34.7681 "/>
<path d="M152.3409 34.7681 L152.3409 35.4662 "/>
<path d="M152.3409 35.4662 L152.2245 35.6989 "/>
<path d="M152.2245 35.6989 L152.1082 35.8153 "/>
<path d="M152.1082 35.8153 L151.8755 35.9316 "/>
<path d="M151.8755 35.9316 L151.4101 35.9316 "/>
<path d="M151.4101 35.9316 L151.1774 35.8153 "/>
<path d="M154.3188 35.8153 L154.0861 35.9316 "/>
<path d="M154.0861 35.9316 L153.6207 35.9316 "/>
<path d="M153.6207 35.9316 L153.3880 35.8153 "/>
<path d="M153.3880 35.8153 L153.2717 35.5826 "/>
<path d="M153.2717 35.5826 L153.2717 34.6518 "/>
<path d="M153.2717 34.6518 L153.3880 34.4191 "/>
<path d="M153.3880 34.4191 L153.6207 34.3027 "/>
<path d="M153.6207 34.3027 L154.0861 34.3027 "/>
<path d="M154.0861 34.3027 L154.3188 34.4191 "/>
<path d="M154.3188 34.4191 L154.4351 34.6518 "/>
<path d="M154.4351 34.6518 L154.4351 34.8845 "/>
<path d="M154.4351 34.8845 L153.2717 35.1172 "/>
<path d="M155.4823 35.9316 L155.4823 34.3027 "/>
<path d="M155.4823 34.7681 L155.5986 34.5354 "/>
<path d="M155.5986 34.5354 L155.7149 34.4191 "/>
<path d="M155.7149 34.4191 L155.9476 34.3027 "/>
<path d="M155.9476 34.3027 L156.1803 34.3027 "/>
<path d="M156.4130 36.1643 L158.2746 36.1643 "/>
<path d="M158.7400 33.7210 L158.8563 33.6047 "/>
<path d="M158.8563 33.6047 L159.0890 33.4883 "/>
<path d="M159.0890 33.4883 L159.6707 33.4883 "/>
<path d="M159.6707 33.4883 L159.9034 33.6047 "/>
<path d="M159.9034 33.6047 L160.0198 33.7210 "/>
<path d="M160.0198 33.7210 L160.1361 33.9537 "/>
<path d="M160.1361 33.9537 L160.1361 34.1864 "/>
<path d="M160.1361 34.1864 L160.0198 34.5354 "/>
<path d="M160.0198 34.5354 L158.6236 35.9316 "/>
<path d="M158.6236 35.9316 L160.1361 35.9316 "/>
<path d="M160.6015 36.1643 L162.4631 36.1643 "/>
<path d="M163.5102 33.4883 L163.9756 33.4883 "/>
<path d="M163.9756 33.4883 L164.2083 33.6047 "/>
<path d="M164.2083 33.6047 L164.4409 33.8374 "/>
<path d="M164.4409 33.8374 L164.5573 34.3027 "/>
<path d="M164.5573 34.3027 L164.5573 35.1172 "/>
<path d="M164.5573 35.1172 L164.4409 35.5826 "/>
<path d="M164.4409 35.5826 L164.2083 35.8153 "/>
<path d="M164.2083 35.8153 L163.9756 35.9316 "/>
<path d="M163.9756 35.9316 L163.5102 35.9316 "/>
<path d="M163.5102 35.9316 L163.2775 35.8153 "/>
<path d="M163.2775 35.8153 L163.0448 35.5826 "/>
<path d="M163.0448 35.5826 L162.9284 35.1172 "/>
<path d="M162.9284 35.1172 L162.9284 34.3027 "/>
<path d="M162.9284 34.3027 L163.0448 33.8374 "/>
<path d="M163.0448 33.8374 L163.2775 33.6047 "/>
<path d="M163.2775 33.6047 L163.5102 33.4883 "/>
<path d="M165.6044 34.3027 L165.6044 36.7460 "/>
<path d="M165.6044 34.4191 L165.8371 34.3027 "/>
<path d="M165.8371 34.3027 L166.3025 34.3027 "/>
<path d="M166.3025 34.3027 L166.5352 34.4191 "/>
<path d="M166.5352 34.4191 L166.6515 34.5354 "/>
<path d="M166.6515 34.5354 L166.7679 34.7681 "/>
<path d="M166.7679 34.7681 L166.7679 35.4662 "/>
<path d="M166.7679 35.4662 L166.6515 35.6989 "/>
<path d="M166.6515 35.6989 L166.5352 35.8153 "/>
<path d="M166.5352 35.8153 L166.3025 35.9316 "/>
<path d="M166.3025 35.9316 L165.8371 35.9316 "/>
<path d="M165.8371 35.9316 L165.6044 35.8153 "/>
<path d="M168.7458 35.8153 L168.5131 35.9316 "/>
<path d="M168.5131 35.9316 L168.0477 35.9316 "/>
<path d="M168.0477 35.9316 L167.8150 35.8153 "/>
<path d="M167.8150 35.8153 L167.6987 35.5826 "/>
<path d="M167.6987 35.5826 L167.6987 34.6518 "/>
<path d="M167.6987 34.6518 L167.8150 34.4191 "/>
<path d="M167.8150 34.4191 L168.0477 34.3027 "/>
<path d="M168.0477 34.3027 L168.5131 34.3027 "/>
<path d="M168.5131 34.3027 L168.7458 34.4191 "/>
<path d="M168.7458 34.4191 L168.8621 34.6518 "/>
<path d="M168.8621 34.6518 L168.8621 34.8845 "/>
<path d="M168.8621 34.8845 L167.6987 35.1172 "/>
<path d="M169.9092 34.3027 L169.9092 35.9316 "/>
<path d="M169.9092 34.5354 L170.0256 34.4191 "/>
<path d="M170.0256 34.4191 L170.2583 34.3027 "/>
<path d="M170.2583 34.3027 L170.6073 34.3027 "/>
<path d="M170.6073 34.3027 L170.8400 34.4191 "/>
<path d="M170.8400 34.4191 L170.9564 34.6518 "/>
<path d="M170.9564 34.6518 L170.9564 35.9316 "/>
</g><g transform="rotate(-90.000000 172.4624 59.4975)">
<text x="172.4624" y="60.7191" textLength="24.5782" font-size="3.2577" lengthAdjust="spacingAndGlyphs" text-anchor="middle" opacity="0.01" style="font-family:monospace">46436-9327</text>
</g>
<g class="stroked-text"><desc>46436-9327</desc>
<path d="M171.9448 69.8523 L173.5736 69.8523 "/>
<path d="M171.0140 70.4341 L172.7592 71.0158 "/>
<path d="M172.7592 71.0158 L172.7592 69.5033 "/>
<path d="M171.1303 67.5254 L171.1303 67.9908 "/>
<path d="M171.1303 67.9908 L171.2467 68.2235 "/>
<path d="M171.2467 68.2235 L171.3630 68.3398 "/>
<path d="M171.3630 68.3398 L171.7121 68.5725 "/>
<path d="M171.7121 68.5725 L172.1774 68.6889 "/>
<path d="M172.1774 68.6889 L173.1082 68.6889 "/>
<path d="M173.1082 68.6889 L173.3409 68.5725 "/>
<path d="M173.3409 68.5725 L173.4573 68.4562 "/>
<path d="M173.4573 68.4562 L173.5736 68.2235 "/>
<path d="M173.5736 68.2235 L173.5736 67.7581 "/>
<path d="M173.5736 67.7581 L173.4573 67.5254 "/>
<path d="M173.4573 67.5254 L173.3409 67.4091 "/>
<path d="M173.3409 67.4091 L173.1082 67.2927 "/>
<path d="M173.1082 67.2927 L172.5265 67.2927 "/>
<path d="M172.5265 67.2927 L172.2938 67.4091 "/>
<path d="M172.2938 67.4091 L172.1774 67.5254 "/>
<path d="M172.1774 67.5254 L172.0611 67.7581 "/>
<path d="M172.0611 67.7581 L172.0611 68.2235 "/>
<path d="M172.0611 68.2235 L172.1774 68.4562 "/>
<path d="M172.1774 68.4562 L172.2938 68.5725 "/>
<path d="M172.2938 68.5725 L172.5265 68.6889 "/>
<path d="M171.9448 65.1985 L173.5736 65.1985 "/>
<path d="M171.0140 65.7802 L172.7592 66.3619 "/>
<path d="M172.7592 66.3619 L172.7592 64.8494 "/>
<path d="M171.1303 64.1514 L171.1303 62.6389 "/>
<path d="M171.1303 62.6389 L172.0611 63.4533 "/>
<path d="M172.0611 63.4533 L172.0611 63.1042 "/>
<path d="M172.0611 63.1042 L172.1774 62.8715 "/>
<path d="M172.1774 62.8715 L172.2938 62.7552 "/>
<path d="M172.2938 62.7552 L172.5265 62.6389 "/>
<path d="M172.5265 62.6389 L173.1082 62.6389 "/>
<path d="M173.1082 62.6389 L173.3409 62.7552 "/>
<path d="M173.3409 62.7552 L173.4573 62.8715 "/>
<path d="M173.4573 62.8715 L173.5736 63.1042 "/>
<path d="M173.5736 63.1042 L173.5736 63.8023 "/>
<path d="M173.5736 63.8023 L173.4573 64.0350 "/>
<path d="M173.4573 64.0350 L173.3409 64.1514 "/>
<path d="M171.1303 60.5446 L171.1303 61.0100 "/>
<path d="M171.1303 61.0100 L171.2467 61.2427 "/>
<path d="M171.2467 61.2427 L171.3630 61.3590 "/>
<path d="M171.3630 61.3590 L171.7121 61.5917 "/>
<path d="M171.7121 61.5917 L172.1774 61.7081 "/>
<path d="M172.1774 61.7081 L173.1082 61.7081 "/>
<path d="M173.1082 61.7081 L173.3409 61.5917 "/>
<path d="M173.3409 61.5917 L173.4573 61.4754 "/>
<path d="M173.4573 61.4754 L173.5736 61.2427 "/>
<path d="M173.5736 61.2427 L173.5736 60.7773 "/>
<path d="M173.5736 60.7773 L173.4573 60.5446 "/>
<path d="M173.4573 60.5446 L173.3409 60.4283 "/>
<path d="M173.3409 60.4283 L173.1082 60.3119 "/>
<path d="M173.1082 60.3119 L172.5265 60.3119 "/>
<path d="M172.5265 60.3119 L172.2938 60.4283 "/>
<path d="M172.2938 60.4283 L172.1774 60.5446 "/>
<path d="M172.1774 60.5446 L172.0611 60.7773 "/>
<path d="M172.0611 60.7773 L172.0611 61.2427 "/>
<path d="M172.0611 61.2427 L172.1774 61.4754 "/>
<path d="M172.1774 61.4754 L172.2938 61.5917 "/>
<path d="M172.2938 61.5917 L172.5265 61.7081 "/>
<path d="M172.6428 59.2648 L172.6428 57.4032 "/>
<path d="M173.5736 56.1234 L173.5736 55.6580 "/>
<path d="M173.5736 55.6580 L173.4573 55.4254 "/>
<path d="M173.4573 55.4254 L173.3409 55.3090 "/>
<path d="M173.3409 55.3090 L172.9919 55.0763 "/>
<path d="M172.9919 55.0763 L172.5265 54.9600 "/>
<path d="M172.5265 54.9600 L171.5957 54.9600 "/>
<path d="M171.5957 54.9600 L171.3630 55.0763 "/>
<path d="M171.3630 55.0763 L171.2467 55.1927 "/>
<path d="M171.2467 55.1927 L171.1303 55.4254 "/>
<path d="M171.1303 55.4254 L171.1303 55.8907 "/>
<path d="M171.1303 55.8907 L171.2467 56.1234 "/>
<path d="M171.2467 56.1234 L171.3630 56.2398 "/>
<path d="M171.3630 56.2398 L171.5957 56.3561 "/>
<path d="M171.5957 56.3561 L172.1774 56.3561 "/>
<path d="M172.1774 56.3561 L172.4101 56.2398 "/>
<path d="M172.4101 56.2398 L172.5265 56.1234 "/>
<path d="M172.5265 56.1234 L172.6428 55.8907 "/>
<path d="M172.6428 55.8907 L172.6428 55.4254 "/>
<path d="M172.6428 55.4254 L172.5265 55.1927 "/>
<path d="M172.5265 55.1927 L172.4101 55.0763 "/>
<path d="M172.4101 55.0763 L172.1774 54.9600 "/>
<path d="M171.1303 54.1455 L171.1303 52.6330 "/>
<path d="M171.1303 52.6330 L172.0611 53.4475 "/>
<path d="M172.0611 53.4475 L172.0611 53.0984 "/>
<path d="M172.0611 53.0984 L172.1774 52.8657 "/>
<path d="M172.1774 52.8657 L172.2938 52.7494 "/>
<path d="M172.2938 52.7494 L172.5265 52.6330 "/>
<path d="M172.5265 52.6330 L173.1082 52.6330 "/>
<path d="M173.1082 52.6330 L173.3409 52.7494 "/>
<path d="M173.3409 52.7494 L173.4573 52.8657 "/>
<path d="M173.4573 52.8657 L173.5736 53.0984 "/>
<path d="M173.5736 53.0984 L173.5736 53.7965 "/>
<path d="M173.5736 53.7965 L173.4573 54.0292 "/>
<path d="M173.4573 54.0292 L173.3409 54.1455 "/>
<path d="M171.3630 51.7023 L171.2467 51.5859 "/>
<path d="M171.2467 51.5859 L171.1303 51.3532 "/>
<path d="M171.1303 51.3532 L171.1303 50.7715 "/>
<path d="M171.1303 50.7715 L171.2467 50.5388 "/>
<path d="M171.2467 50.5388 L171.3630 50.4224 "/>
<path d="M171.3630 50.4224 L171.5957 50.3061 "/>
<path d="M171.5957 50.3061 L171.8284 50.3061 "/>
<path d="M171.8284 50.3061 L172.1774 50.4224 "/>
<path d="M172.1774 50.4224 L173.5736 51.8186 "/>
<path d="M173.5736 51.8186 L173.5736 50.3061 "/>
<path d="M171.1303 49.4917 L171.1303 47.8628 "/>
<path d="M171.1303 47.8628 L173.5736 48.9099 "/>
</g><g transform="rotate(-90.000000 176.1273 59.4975)">
<text x="176.1273" y="60.7191" textLength="4.7993" font-size="3.2577" lengthAdjust="spacingAndGlyphs" text-anchor="middle" opacity="0.01" style="font-family:monospace">J1</text>
</g>
<g class="stroked-text"><desc>J1</desc>
<path d="M174.7952 60.3119 L176.5404 60.3119 "/>
<path d="M176.5404 60.3119 L176.8895 60.4283 "/>
<path d="M176.8895 60.4283 L177.1222 60.6610 "/>
<path d="M177.1222 60.6610 L177.2385 61.0100 "/>
<path d="M177.2385 61.0100 L177.2385 61.2427 "/>
<path d="M177.2385 57.8686 L177.2385 59.2648 "/>
<path d="M177.2385 58.5667 L174.7952 58.5667 "/>
<path d="M174.7952 58.5667 L175.1443 58.7994 "/>
<path d="M175.1443 58.7994 L175.3770 59.0321 "/>
<path d="M175.3770 59.0321 L175.4933 59.2648 "/>
</g><text x="164.8234" y="178.2409" textLength="10.0349" font-size="3.2577" lengthAdjust="spacingAndGlyphs" text-anchor="middle" opacity="0.01" style="font-family:monospace">270R</text>
<g class="stroked-text"><desc>270R</desc>
<path d="M160.5768 175.9200 L160.6931 175.8036 "/>
<path d="M160.6931 175.8036 L160.9258 175.6873 "/>
<path d="M160.9258 175.6873 L161.5076 175.6873 "/>
<path d="M161.5076 175.6873 L161.7403 175.8036 "/>
<path d="M161.7403 175.8036 L161.8566 175.9200 "/>
<path d="M161.8566 175.9200 L161.9729 176.1527 "/>
<path d="M161.9729 176.1527 L161.9729 176.3854 "/>
<path d="M161.9729 176.3854 L161.8566 176.7344 "/>
<path d="M161.8566 176.7344 L160.4604 178.1306 "/>
<path d="M160.4604 178.1306 L161.9729 178.1306 "/>
<path d="M162.7874 175.6873 L164.4162 175.6873 "/>
<path d="M164.4162 175.6873 L163.3691 178.1306 "/>
<path d="M165.8124 175.6873 L166.0451 175.6873 "/>
<path d="M166.0451 175.6873 L166.2778 175.8036 "/>
<path d="M166.2778 175.8036 L166.3941 175.9200 "/>
<path d="M166.3941 175.9200 L166.5105 176.1527 "/>
<path d="M166.5105 176.1527 L166.6268 176.6180 "/>
<path d="M166.6268 176.6180 L166.6268 177.1998 "/>
<path d="M166.6268 177.1998 L166.5105 177.6652 "/>
<path d="M166.5105 177.6652 L166.3941 177.8979 "/>
<path d="M166.3941 177.8979 L166.2778 178.0142 "/>
<path d="M166.2778 178.0142 L166.0451 178.1306 "/>
<path d="M166.0451 178.1306 L165.8124 178.1306 "/>
<path d="M165.8124 178.1306 L165.5797 178.0142 "/>
<path d="M165.5797 178.0142 L165.4633 177.8979 "/>
<path d="M165.4633 177.8979 L165.3470 177.6652 "/>
<path d="M165.3470 177.6652 L165.2307 177.1998 "/>
<path d="M165.2307 177.1998 L165.2307 176.6180 "/>
<path d="M165.2307 176.6180 L165.3470 176.1527 "/>
<path d="M165.3470 176.1527 L165.4633 175.9200 "/>
<path d="M165.4633 175.9200 L165.5797 175.8036 "/>
<path d="M165.5797 175.8036 L165.8124 175.6873 "/>
<path d="M169.0701 178.1306 L168.2557 176.9671 "/>
<path d="M167.6739 178.1306 L167.6739 175.6873 "/>
<path d="M167.6739 175.6873 L168.6047 175.6873 "/>
<path d="M168.6047 175.6873 L168.8374 175.8036 "/>
<path d="M168.8374 175.8036 L168.9537 175.9200 "/>
<path d="M168.9537 175.9200 L169.0701 176.1527 "/>
<path d="M169.0701 176.1527 L169.0701 176.5017 "/>
<path d="M169.0701 176.5017 L168.9537 176.7344 "/>
<path d="M168.9537 176.7344 L168.8374 176.8507 "/>
<path d="M168.8374 176.8507 L168.6047 176.9671 "/>
<path d="M168.6047 176.9671 L167.6739 176.9671 "/>
</g></g>
<g style="fill:#848484; fill-opacity:0.01;  stroke:#848484; stroke-width:0.1955; stroke-opacity:1;  stroke-linecap:round; stroke-linejoin:round;">
<text x="164.8234" y="181.6615" textLength="2.7272" font-size="1.6289" lengthAdjust="spacingAndGlyphs" text-anchor="middle" opacity="0.01" style="font-family:monospace">R1</text>
<g class="stroked-text"><desc>R1</desc>
<path d="M164.6198 181.6057 L164.2126 181.0240 "/>
<path d="M163.9218 181.6057 L163.9218 180.3841 "/>
<path d="M163.9218 180.3841 L164.3871 180.3841 "/>
<path d="M164.3871 180.3841 L164.5035 180.4422 "/>
<path d="M164.5035 180.4422 L164.5617 180.5004 "/>
<path d="M164.5617 180.5004 L164.6198 180.6168 "/>
<path d="M164.6198 180.6168 L164.6198 180.7913 "/>
<path d="M164.6198 180.7913 L164.5617 180.9076 "/>
<path d="M164.5617 180.9076 L164.5035 180.9658 "/>
<path d="M164.5035 180.9658 L164.3871 181.0240 "/>
<path d="M164.3871 181.0240 L163.9218 181.0240 "/>
<path d="M165.7833 181.6057 L165.0852 181.6057 "/>
<path d="M165.4343 181.6057 L165.4343 180.3841 "/>
<path d="M165.4343 180.3841 L165.3179 180.5586 "/>
<path d="M165.3179 180.5586 L165.2016 180.6749 "/>
<path d="M165.2016 180.6749 L165.0852 180.7331 "/>
</g></g>
<g style="fill:#848484; fill-opacity:0.01;  stroke:#848484; stroke-width:0.3665; stroke-opacity:1;  stroke-linecap:round; stroke-linejoin:round;">
<text x="164.8234" y="194.3666" textLength="10.0349" font-size="3.2577" lengthAdjust="spacingAndGlyphs" text-anchor="middle" opacity="0.01" style="font-family:monospace">270R</text>
<g class="stroked-text"><desc>270R</desc>
<path d="M160.5768 192.0456 L160.6931 191.9293 "/>
<path d="M160.6931 191.9293 L160.9258 191.8129 "/>
<path d="M160.9258 191.8129 L161.5076 191.8129 "/>
<path d="M161.5076 191.8129 L161.7403 191.9293 "/>
<path d="M161.7403 191.9293 L161.8566 192.0456 "/>
<path d="M161.8566 192.0456 L161.9729 192.2783 "/>
<path d="M161.9729 192.2783 L161.9729 192.5110 "/>
<path d="M161.9729 192.5110 L161.8566 192.8600 "/>
<path d="M161.8566 192.8600 L160.4604 194.2562 "/>
<path d="M160.4604 194.2562 L161.9729 194.2562 "/>
<path d="M162.7874 191.8129 L164.4162 191.8129 "/>
<path d="M164.4162 191.8129 L163.3691 194.2562 "/>
<path d="M165.8124 191.8129 L166.0451 191.8129 "/>
<path d="M166.0451 191.8129 L166.2778 191.9293 "/>
<path d="M166.2778 191.9293 L166.3941 192.0456 "/>
<path d="M166.3941 192.0456 L166.5105 192.2783 "/>
<path d="M166.5105 192.2783 L166.6268 192.7437 "/>
<path d="M166.6268 192.7437 L166.6268 193.3254 "/>
<path d="M166.6268 193.3254 L166.5105 193.7908 "/>
<path d="M166.5105 193.7908 L166.3941 194.0235 "/>
<path d="M166.3941 194.0235 L166.2778 194.1399 "/>
<path d="M166.2778 194.1399 L166.0451 194.2562 "/>
<path d="M166.0451 194.2562 L165.8124 194.2562 "/>
<path d="M165.8124 194.2562 L165.5797 194.1399 "/>
<path d="M165.5797 194.1399 L165.4633 194.0235 "/>
<path d="M165.4633 194.0235 L165.3470 193.7908 "/>
<path d="M165.3470 193.7908 L165.2307 193.3254 "/>
<path d="M165.2307 193.3254 L165.2307 192.7437 "/>
<path d="M165.2307 192.7437 L165.3470 192.2783 "/>
<path d="M165.3470 192.2783 L165.4633 192.0456 "/>
<path d="M165.4633 192.0456 L165.5797 191.9293 "/>
<path d="M165.5797 191.9293 L165.8124 191.8129 "/>
<path d="M169.0701 194.2562 L168.2557 193.0927 "/>
<path d="M167.6739 194.2562 L167.6739 191.8129 "/>
<path d="M167.6739 191.8129 L168.6047 191.8129 "/>
<path d="M168.6047 191.8129 L168.8374 191.9293 "/>
<path d="M168.8374 191.9293 L168.9537 192.0456 "/>
<path d="M168.9537 192.0456 L169.0701 192.2783 "/>
<path d="M169.0701 192.2783 L169.0701 192.6274 "/>
<path d="M169.0701 192.6274 L168.9537 192.8600 "/>
<path d="M168.9537 192.8600 L168.8374 192.9764 "/>
<path d="M168.8374 192.9764 L168.6047 193.0927 "/>
<path d="M168.6047 193.0927 L167.6739 193.0927 "/>
</g></g>
<g style="fill:#848484; fill-opacity:0.01;  stroke:#848484; stroke-width:0.1955; stroke-opacity:1;  stroke-linecap:round; stroke-linejoin:round;">
<text x="164.8234" y="189.1135" textLength="2.7272" font-size="1.6289" lengthAdjust="spacingAndGlyphs" text-anchor="middle" opacity="0.01" style="font-family:monospace">R2</text>
<g class="stroked-text"><desc>R2</desc>
<path d="M164.6198 189.0577 L164.2126 188.4760 "/>
<path d="M163.9218 189.0577 L163.9218 187.8361 "/>
<path d="M163.9218 187.8361 L164.3871 187.8361 "/>
<path d="M164.3871 187.8361 L164.5035 187.8942 "/>
<path d="M164.5035 187.8942 L164.5617 187.9524 "/>
<path d="M164.5617 187.9524 L164.6198 188.0688 "/>
<path d="M164.6198 188.0688 L164.6198 188.2433 "/>
<path d="M164.6198 188.2433 L164.5617 188.3596 "/>
<path d="M164.5617 188.3596 L164.5035 188.4178 "/>
<path d="M164.5035 188.4178 L164.3871 188.4760 "/>
<path d="M164.3871 188.4760 L163.9218 188.4760 "/>
<path d="M165.0852 187.9524 L165.1434 187.8942 "/>
<path d="M165.1434 187.8942 L165.2597 187.8361 "/>
<path d="M165.2597 187.8361 L165.5506 187.8361 "/>
<path d="M165.5506 187.8361 L165.6670 187.8942 "/>
<path d="M165.6670 187.8942 L165.7251 187.9524 "/>
<path d="M165.7251 187.9524 L165.7833 188.0688 "/>
<path d="M165.7833 188.0688 L165.7833 188.1851 "/>
<path d="M165.7833 188.1851 L165.7251 188.3596 "/>
<path d="M165.7251 188.3596 L165.0270 189.0577 "/>
<path d="M165.0270 189.0577 L165.7833 189.0577 "/>
</g></g>
<g style="fill:#848484; fill-opacity:0.01;  stroke:#848484; stroke-width:0.3665; stroke-opacity:1;  stroke-linecap:round; stroke-linejoin:round;">
<text x="156.3025" y="186.4137" textLength="18.4119" font-size="3.2577" lengthAdjust="spacingAndGlyphs" text-anchor="middle" opacity="0.01" style="font-family:monospace">LED 0805</text>
<g class="stroked-text"><desc>LED 0805</desc>
<path d="M149.1472 186.3033 L147.9837 186.3033 "/>
<path d="M147.9837 186.3033 L147.9837 183.8601 "/>
<path d="M149.9616 185.0235 L150.7760 185.0235 "/>
<path d="M151.1251 186.3033 L149.9616 186.3033 "/>
<path d="M149.9616 186.3033 L149.9616 183.8601 "/>
<path d="M149.9616 183.8601 L151.1251 183.8601 "/>
<path d="M152.1722 186.3033 L152.1722 183.8601 "/>
<path d="M152.1722 183.8601 L152.7539 183.8601 "/>
<path d="M152.7539 183.8601 L153.1030 183.9764 "/>
<path d="M153.1030 183.9764 L153.3357 184.2091 "/>
<path d="M153.3357 184.2091 L153.4520 184.4418 "/>
<path d="M153.4520 184.4418 L153.5683 184.9072 "/>
<path d="M153.5683 184.9072 L153.5683 185.2562 "/>
<path d="M153.5683 185.2562 L153.4520 185.7216 "/>
<path d="M153.4520 185.7216 L153.3357 185.9543 "/>
<path d="M153.3357 185.9543 L153.1030 186.1870 "/>
<path d="M153.1030 186.1870 L152.7539 186.3033 "/>
<path d="M152.7539 186.3033 L152.1722 186.3033 "/>
<path d="M156.9424 183.8601 L157.1751 183.8601 "/>
<path d="M157.1751 183.8601 L157.4078 183.9764 "/>
<path d="M157.4078 183.9764 L157.5241 184.0927 "/>
<path d="M157.5241 184.0927 L157.6405 184.3254 "/>
<path d="M157.6405 184.3254 L157.7568 184.7908 "/>
<path d="M157.7568 184.7908 L157.7568 185.3726 "/>
<path d="M157.7568 185.3726 L157.6405 185.8379 "/>
<path d="M157.6405 185.8379 L157.5241 186.0706 "/>
<path d="M157.5241 186.0706 L157.4078 186.1870 "/>
<path d="M157.4078 186.1870 L157.1751 186.3033 "/>
<path d="M157.1751 186.3033 L156.9424 186.3033 "/>
<path d="M156.9424 186.3033 L156.7097 186.1870 "/>
<path d="M156.7097 186.1870 L156.5934 186.0706 "/>
<path d="M156.5934 186.0706 L156.4770 185.8379 "/>
<path d="M156.4770 185.8379 L156.3607 185.3726 "/>
<path d="M156.3607 185.3726 L156.3607 184.7908 "/>
<path d="M156.3607 184.7908 L156.4770 184.3254 "/>
<path d="M156.4770 184.3254 L156.5934 184.0927 "/>
<path d="M156.5934 184.0927 L156.7097 183.9764 "/>
<path d="M156.7097 183.9764 L156.9424 183.8601 "/>
<path d="M159.1530 184.9072 L158.9203 184.7908 "/>
<path d="M158.9203 184.7908 L158.8040 184.6745 "/>
<path d="M158.8040 184.6745 L158.6876 184.4418 "/>
<path d="M158.6876 184.4418 L158.6876 184.3254 "/>
<path d="M158.6876 184.3254 L158.8040 184.0927 "/>
<path d="M158.8040 184.0927 L158.9203 183.9764 "/>
<path d="M158.9203 183.9764 L159.1530 183.8601 "/>
<path d="M159.1530 183.8601 L159.6184 183.8601 "/>
<path d="M159.6184 183.8601 L159.8511 183.9764 "/>
<path d="M159.8511 183.9764 L159.9674 184.0927 "/>
<path d="M159.9674 184.0927 L160.0838 184.3254 "/>
<path d="M160.0838 184.3254 L160.0838 184.4418 "/>
<path d="M160.0838 184.4418 L159.9674 184.6745 "/>
<path d="M159.9674 184.6745 L159.8511 184.7908 "/>
<path d="M159.8511 184.7908 L159.6184 184.9072 "/>
<path d="M159.6184 184.9072 L159.1530 184.9072 "/>
<path d="M159.1530 184.9072 L158.9203 185.0235 "/>
<path d="M158.9203 185.0235 L158.8040 185.1399 "/>
<path d="M158.8040 185.1399 L158.6876 185.3726 "/>
<path d="M158.6876 185.3726 L158.6876 185.8379 "/>
<path d="M158.6876 185.8379 L158.8040 186.0706 "/>
<path d="M158.8040 186.0706 L158.9203 186.1870 "/>
<path d="M158.9203 186.1870 L159.1530 186.3033 "/>
<path d="M159.1530 186.3033 L159.6184 186.3033 "/>
<path d="M159.6184 186.3033 L159.8511 186.1870 "/>
<path d="M159.8511 186.1870 L159.9674 186.0706 "/>
<path d="M159.9674 186.0706 L160.0838 185.8379 "/>
<path d="M160.0838 185.8379 L160.0838 185.3726 "/>
<path d="M160.0838 185.3726 L159.9674 185.1399 "/>
<path d="M159.9674 185.1399 L159.8511 185.0235 "/>
<path d="M159.8511 185.0235 L159.6184 184.9072 "/>
<path d="M161.5963 183.8601 L161.8290 183.8601 "/>
<path d="M161.8290 183.8601 L162.0617 183.9764 "/>
<path d="M162.0617 183.9764 L162.1780 184.0927 "/>
<path d="M162.1780 184.0927 L162.2944 184.3254 "/>
<path d="M162.2944 184.3254 L162.4107 184.7908 "/>
<path d="M162.4107 184.7908 L162.4107 185.3726 "/>
<path d="M162.4107 185.3726 L162.2944 185.8379 "/>
<path d="M162.2944 185.8379 L162.1780 186.0706 "/>
<path d="M162.1780 186.0706 L162.0617 186.1870 "/>
<path d="M162.0617 186.1870 L161.8290 186.3033 "/>
<path d="M161.8290 186.3033 L161.5963 186.3033 "/>
<path d="M161.5963 186.3033 L161.3636 186.1870 "/>
<path d="M161.3636 186.1870 L161.2472 186.0706 "/>
<path d="M161.2472 186.0706 L161.1309 185.8379 "/>
<path d="M161.1309 185.8379 L161.0145 185.3726 "/>
<path d="M161.0145 185.3726 L161.0145 184.7908 "/>
<path d="M161.0145 184.7908 L161.1309 184.3254 "/>
<path d="M161.1309 184.3254 L161.2472 184.0927 "/>
<path d="M161.2472 184.0927 L161.3636 183.9764 "/>
<path d="M161.3636 183.9764 L161.5963 183.8601 "/>
<path d="M164.6213 183.8601 L163.4578 183.8601 "/>
<path d="M163.4578 183.8601 L163.3415 185.0235 "/>
<path d="M163.3415 185.0235 L163.4578 184.9072 "/>
<path d="M163.4578 184.9072 L163.6905 184.7908 "/>
<path d="M163.6905 184.7908 L164.2722 184.7908 "/>
<path d="M164.2722 184.7908 L164.5049 184.9072 "/>
<path d="M164.5049 184.9072 L164.6213 185.0235 "/>
<path d="M164.6213 185.0235 L164.7376 185.2562 "/>
<path d="M164.7376 185.2562 L164.7376 185.8379 "/>
<path d="M164.7376 185.8379 L164.6213 186.0706 "/>
<path d="M164.6213 186.0706 L164.5049 186.1870 "/>
<path d="M164.5049 186.1870 L164.2722 186.3033 "/>
<path d="M164.2722 186.3033 L163.6905 186.3033 "/>
<path d="M163.6905 186.3033 L163.4578 186.1870 "/>
<path d="M163.4578 186.1870 L163.3415 186.0706 "/>
</g></g>
<g style="fill:#848484; fill-opacity:0.01;  stroke:#848484; stroke-width:0.1955; stroke-opacity:1;  stroke-linecap:round; stroke-linejoin:round;">
<text x="156.3025" y="181.7715" textLength="2.7272" font-size="1.6289" lengthAdjust="spacingAndGlyphs" text-anchor="middle" opacity="0.01" style="font-family:monospace">D1</text>
<g class="stroked-text"><desc>D1</desc>
<path d="M155.4008 181.7157 L155.4008 180.4940 "/>
<path d="M155.4008 180.4940 L155.6917 180.4940 "/>
<path d="M155.6917 180.4940 L155.8662 180.5522 "/>
<path d="M155.8662 180.5522 L155.9825 180.6685 "/>
<path d="M155.9825 180.6685 L156.0407 180.7849 "/>
<path d="M156.0407 180.7849 L156.0989 181.0176 "/>
<path d="M156.0989 181.0176 L156.0989 181.1921 "/>
<path d="M156.0989 181.1921 L156.0407 181.4248 "/>
<path d="M156.0407 181.4248 L155.9825 181.5411 "/>
<path d="M155.9825 181.5411 L155.8662 181.6575 "/>
<path d="M155.8662 181.6575 L155.6917 181.7157 "/>
<path d="M155.6917 181.7157 L155.4008 181.7157 "/>
<path d="M157.2624 181.7157 L156.5643 181.7157 "/>
<path d="M156.9133 181.7157 L156.9133 180.4940 "/>
<path d="M156.9133 180.4940 L156.7970 180.6685 "/>
<path d="M156.7970 180.6685 L156.6806 180.7849 "/>
<path d="M156.6806 180.7849 L156.5643 180.8431 "/>
</g></g>
<g style="fill:#848484; fill-opacity:0.01;  stroke:#848484; stroke-width:0.3665; stroke-opacity:1;  stroke-linecap:round; stroke-linejoin:round;">
<text x="156.3025" y="193.8413" textLength="18.4119" font-size="3.2577" lengthAdjust="spacingAndGlyphs" text-anchor="middle" opacity="0.01" style="font-family:monospace">LED 0805</text>
<g class="stroked-text"><desc>LED 0805</desc>
<path d="M149.1472 193.7309 L147.9837 193.7309 "/>
<path d="M147.9837 193.7309 L147.9837 191.2876 "/>
<path d="M149.9616 192.4511 L150.7760 192.4511 "/>
<path d="M151.1251 193.7309 L149.9616 193.7309 "/>
<path d="M149.9616 193.7309 L149.9616 191.2876 "/>
<path d="M149.9616 191.2876 L151.1251 191.2876 "/>
<path d="M152.1722 193.7309 L152.1722 191.2876 "/>
<path d="M152.1722 191.2876 L152.7539 191.2876 "/>
<path d="M152.7539 191.2876 L153.1030 191.4040 "/>
<path d="M153.1030 191.4040 L153.3357 191.6367 "/>
<path d="M153.3357 191.6367 L153.4520 191.8694 "/>
<path d="M153.4520 191.8694 L153.5683 192.3347 "/>
<path d="M153.5683 192.3347 L153.5683 192.6838 "/>
<path d="M153.5683 192.6838 L153.4520 193.1492 "/>
<path d="M153.4520 193.1492 L153.3357 193.3819 "/>
<path d="M153.3357 193.3819 L153.1030 193.6146 "/>
<path d="M153.1030 193.6146 L152.7539 193.7309 "/>
<path d="M152.7539 193.7309 L152.1722 193.7309 "/>
<path d="M156.9424 191.2876 L157.1751 191.2876 "/>
<path d="M157.1751 191.2876 L157.4078 191.4040 "/>
<path d="M157.4078 191.4040 L157.5241 191.5203 "/>
<path d="M157.5241 191.5203 L157.6405 191.7530 "/>
<path d="M157.6405 191.7530 L157.7568 192.2184 "/>
<path d="M157.7568 192.2184 L157.7568 192.8001 "/>
<path d="M157.7568 192.8001 L157.6405 193.2655 "/>
<path d="M157.6405 193.2655 L157.5241 193.4982 "/>
<path d="M157.5241 193.4982 L157.4078 193.6146 "/>
<path d="M157.4078 193.6146 L157.1751 193.7309 "/>
<path d="M157.1751 193.7309 L156.9424 193.7309 "/>
<path d="M156.9424 193.7309 L156.7097 193.6146 "/>
<path d="M156.7097 193.6146 L156.5934 193.4982 "/>
<path d="M156.5934 193.4982 L156.4770 193.2655 "/>
<path d="M156.4770 193.2655 L156.3607 192.8001 "/>
<path d="M156.3607 192.8001 L156.3607 192.2184 "/>
<path d="M156.3607 192.2184 L156.4770 191.7530 "/>
<path d="M156.4770 191.7530 L156.5934 191.5203 "/>
<path d="M156.5934 191.5203 L156.7097 191.4040 "/>
<path d="M156.7097 191.4040 L156.9424 191.2876 "/>
<path d="M159.1530 192.3347 L158.9203 192.2184 "/>
<path d="M158.9203 192.2184 L158.8040 192.1021 "/>
<path d="M158.8040 192.1021 L158.6876 191.8694 "/>
<path d="M158.6876 191.8694 L158.6876 191.7530 "/>
<path d="M158.6876 191.7530 L158.8040 191.5203 "/>
<path d="M158.8040 191.5203 L158.9203 191.4040 "/>
<path d="M158.9203 191.4040 L159.1530 191.2876 "/>
<path d="M159.1530 191.2876 L159.6184 191.2876 "/>
<path d="M159.6184 191.2876 L159.8511 191.4040 "/>
<path d="M159.8511 191.4040 L159.9674 191.5203 "/>
<path d="M159.9674 191.5203 L160.0838 191.7530 "/>
<path d="M160.0838 191.7530 L160.0838 191.8694 "/>
<path d="M160.0838 191.8694 L159.9674 192.1021 "/>
<path d="M159.9674 192.1021 L159.8511 192.2184 "/>
<path d="M159.8511 192.2184 L159.6184 192.3347 "/>
<path d="M159.6184 192.3347 L159.1530 192.3347 "/>
<path d="M159.1530 192.3347 L158.9203 192.4511 "/>
<path d="M158.9203 192.4511 L158.8040 192.5674 "/>
<path d="M158.8040 192.5674 L158.6876 192.8001 "/>
<path d="M158.6876 192.8001 L158.6876 193.2655 "/>
<path d="M158.6876 193.2655 L158.8040 193.4982 "/>
<path d="M158.8040 193.4982 L158.9203 193.6146 "/>
<path d="M158.9203 193.6146 L159.1530 193.7309 "/>
<path d="M159.1530 193.7309 L159.6184 193.7309 "/>
<path d="M159.6184 193.7309 L159.8511 193.6146 "/>
<path d="M159.8511 193.6146 L159.9674 193.4982 "/>
<path d="M159.9674 193.4982 L160.0838 193.2655 "/>
<path d="M160.0838 193.2655 L160.0838 192.8001 "/>
<path d="M160.0838 192.8001 L159.9674 192.5674 "/>
<path d="M159.9674 192.5674 L159.8511 192.4511 "/>
<path d="M159.8511 192.4511 L159.6184 192.3347 "/>
<path d="M161.5963 191.2876 L161.8290 191.2876 "/>
<path d="M161.8290 191.2876 L162.0617 191.4040 "/>
<path d="M162.0617 191.4040 L162.1780 191.5203 "/>
<path d="M162.1780 191.5203 L162.2944 191.7530 "/>
<path d="M162.2944 191.7530 L162.4107 192.2184 "/>
<path d="M162.4107 192.2184 L162.4107 192.8001 "/>
<path d="M162.4107 192.8001 L162.2944 193.2655 "/>
<path d="M162.2944 193.2655 L162.1780 193.4982 "/>
<path d="M162.1780 193.4982 L162.0617 193.6146 "/>
<path d="M162.0617 193.6146 L161.8290 193.7309 "/>
<path d="M161.8290 193.7309 L161.5963 193.7309 "/>
<path d="M161.5963 193.7309 L161.3636 193.6146 "/>
<path d="M161.3636 193.6146 L161.2472 193.4982 "/>
<path d="M161.2472 193.4982 L161.1309 193.2655 "/>
<path d="M161.1309 193.2655 L161.0145 192.8001 "/>
<path d="M161.0145 192.8001 L161.0145 192.2184 "/>
<path d="M161.0145 192.2184 L161.1309 191.7530 "/>
<path d="M161.1309 191.7530 L161.2472 191.5203 "/>
<path d="M161.2472 191.5203 L161.3636 191.4040 "/>
<path d="M161.3636 191.4040 L161.5963 191.2876 "/>
<path d="M164.6213 191.2876 L163.4578 191.2876 "/>
<path d="M163.4578 191.2876 L163.3415 192.4511 "/>
<path d="M163.3415 192.4511 L163.4578 192.3347 "/>
<path d="M163.4578 192.3347 L163.6905 192.2184 "/>
<path d="M163.6905 192.2184 L164.2722 192.2184 "/>
<path d="M164.2722 192.2184 L164.5049 192.3347 "/>
<path d="M164.5049 192.3347 L164.6213 192.4511 "/>
<path d="M164.6213 192.4511 L164.7376 192.6838 "/>
<path d="M164.7376 192.6838 L164.7376 193.2655 "/>
<path d="M164.7376 193.2655 L164.6213 193.4982 "/>
<path d="M164.6213 193.4982 L164.5049 193.6146 "/>
<path d="M164.5049 193.6146 L164.2722 193.7309 "/>
<path d="M164.2722 193.7309 L163.6905 193.7309 "/>
<path d="M163.6905 193.7309 L163.4578 193.6146 "/>
<path d="M163.4578 193.6146 L163.3415 193.4982 "/>
</g></g>
<g style="fill:#848484; fill-opacity:0.01;  stroke:#848484; stroke-width:0.1955; stroke-opacity:1;  stroke-linecap:round; stroke-linejoin:round;">
<text x="156.3025" y="189.1991" textLength="2.7272" font-size="1.6289" lengthAdjust="spacingAndGlyphs" text-anchor="middle" opacity="0.01" style="font-family:monospace">D2</text>
<g class="stroked-text"><desc>D2</desc>
<path d="M155.4008 189.1432 L155.4008 187.9216 "/>
<path d="M155.4008 187.9216 L155.6917 187.9216 "/>
<path d="M155.6917 187.9216 L155.8662 187.9798 "/>
<path d="M155.8662 187.9798 L155.9825 188.0961 "/>
<path d="M155.9825 188.0961 L156.0407 188.2125 "/>
<path d="M156.0407 188.2125 L156.0989 188.4452 "/>
<path d="M156.0989 188.4452 L156.0989 188.6197 "/>
<path d="M156.0989 188.6197 L156.0407 188.8524 "/>
<path d="M156.0407 188.8524 L155.9825 188.9687 "/>
<path d="M155.9825 188.9687 L155.8662 189.0851 "/>
<path d="M155.8662 189.0851 L155.6917 189.1432 "/>
<path d="M155.6917 189.1432 L155.4008 189.1432 "/>
<path d="M156.5643 188.0379 L156.6224 187.9798 "/>
<path d="M156.6224 187.9798 L156.7388 187.9216 "/>
<path d="M156.7388 187.9216 L157.0297 187.9216 "/>
<path d="M157.0297 187.9216 L157.1460 187.9798 "/>
<path d="M157.1460 187.9798 L157.2042 188.0379 "/>
<path d="M157.2042 188.0379 L157.2624 188.1543 "/>
<path d="M157.2624 188.1543 L157.2624 188.2706 "/>
<path d="M157.2624 188.2706 L157.2042 188.4452 "/>
<path d="M157.2042 188.4452 L156.5061 189.1432 "/>
<path d="M156.5061 189.1432 L157.2624 189.1432 "/>
</g></g>
<g style="fill:#848484; fill-opacity:0.0;  stroke:#848484; stroke-width:0.2443; stroke-opacity:1;  stroke-linecap:round; stroke-linejoin:round;">
<path d="M167.2667 182.5778 L162.3802 182.5778 "/>
<path d="M167.2667 179.5237 L167.2667 182.5778 "/>
<path d="M162.3802 182.5778 L162.3802 179.5237 "/>
<path d="M162.3802 179.5237 L167.2667 179.5237 "/>
<path d="M167.2667 190.0298 L162.3802 190.0298 "/>
<path d="M167.2667 186.9757 L167.2667 190.0298 "/>
<path d="M162.3802 190.0298 L162.3802 186.9757 "/>
<path d="M162.3802 186.9757 L167.2667 186.9757 "/>
</g>
<g style="fill:#848484; fill-opacity:0.0;  stroke:#848484; stroke-width:0.9309; stroke-opacity:1;  stroke-linecap:round; stroke-linejoin:round;">
<circle cx="132.0994" cy="30.6362" r="7.3292"/> 
<circle cx="132.0994" cy="179.5786" r="7.3292"/> 
</g>
<g style="fill:#848484; fill-opacity:0.0;  stroke:#848484; stroke-width:0.2443; stroke-opacity:1;  stroke-linecap:round; stroke-linejoin:round;">
<path d="M153.8592 180.4277 L153.8592 182.6266 "/>
<path d="M153.8592 182.6266 L158.7458 182.6266 "/>
<path d="M154.5922 179.6947 L153.8592 180.4277 "/>
<path d="M158.7458 179.6947 L154.5922 179.6947 "/>
<path d="M158.7458 182.6266 L158.7458 179.6947 "/>
<path d="M153.8592 187.8553 L153.8592 190.0542 "/>
<path d="M153.8592 190.0542 L158.7458 190.0542 "/>
<path d="M154.5922 187.1223 L153.8592 187.8553 "/>
<path d="M158.7458 187.1223 L154.5922 187.1223 "/>
<path d="M158.7458 190.0542 L158.7458 187.1223 "/>
<g>
</g>
<g>
</g>
<g>
</g>
<g>
</g>
<g>
</g>
<g>
</g>
<g>
</g>
<g>
</g>
<g>
</g>
<g>
</g>
<g>
</g>
<g>
</g>
<g>
</g>
<g>
</g>
<g>
</g>
</g> 
<svg:g><svg:g><svg:title>SVG Image created as BATDATSOCKET01-Edge_Cuts.svg date 2023/11/07 17:32:51 </svg:title>
  <svg:desc>Image generated by PCBNEW </svg:desc>
<svg:g style="fill:#C2C200; fill-opacity:1.0000;stroke:#C2C200; stroke-opacity:1.0000; stroke-linecap:round; stroke-linejoin:round;" transform="translate(0 0) scale(1 1)">
</svg:g>
<svg:g style="fill:#C2C200; fill-opacity:0.0;  stroke:#C2C200; stroke-width:0.0000; stroke-opacity:1;  stroke-linecap:round; stroke-linejoin:round;">
</svg:g>
<svg:g style="fill:#C2C200; fill-opacity:0.0;  stroke:#C2C200; stroke-width:0.2443; stroke-opacity:1;  stroke-linecap:round; stroke-linejoin:round;">
<svg:path style="fill:#C2C200; fill-opacity:0.0;  stroke:#C2C200; stroke-width:0.2443; stroke-opacity:1;  stroke-linecap:round; stroke-linejoin:round;fill:none" d="M 119.6533,0.1258 177.3489,0.1258 177.3489,209.8814 119.6533,209.8814 Z"/> 
<svg:g>
</svg:g>
<svg:g>
</svg:g>
<svg:g>
</svg:g>
<svg:g>
</svg:g>
<svg:g>
</svg:g>
<svg:g>
</svg:g>
<svg:g>
</svg:g>
<svg:g>
</svg:g>
<svg:g>
</svg:g>
<svg:g>
</svg:g>
<svg:g>
</svg:g>
<svg:g>
</svg:g>
<svg:g>
</svg:g>
<svg:g>
</svg:g>
<svg:g>
</svg:g>
</svg:g> 
</svg:g></svg:g></svg>
