<?xml version='1.0' encoding='ASCII' standalone='yes'?>
<svg xmlns:svg="http://www.w3.org/2000/svg" xmlns="http://www.w3.org/2000/svg" xmlns:xlink="http://www.w3.org/1999/xlink" version="1.1" width="297.0022mm" height="210.0072mm" viewBox="0.0000 0.0000 297.0022 210.0072">
<title>SVG Image created as BATDATSOCKET01-B_Fab.svg date 2023/11/06 23:54:30 </title>
  <desc>Image generated by PCBNEW </desc>
<g style="fill:#000084; fill-opacity:1.0000;stroke:#000084; stroke-opacity:1.0000; stroke-linecap:round; stroke-linejoin:round;" transform="translate(0 0) scale(1 1)">
</g>
<g style="fill:#000084; fill-opacity:0.0;  stroke:#000084; stroke-width:0.0000; stroke-opacity:1;  stroke-linecap:round; stroke-linejoin:round;">
</g>
<g style="fill:#000084; fill-opacity:0.01;  stroke:#000084; stroke-width:0.3665; stroke-opacity:1;  stroke-linecap:round; stroke-linejoin:round;">
<text x="168.0058" y="155.3230" transform="scale(-1 1) translate(-336.011623 0)" textLength="25.3927" font-size="3.2577" lengthAdjust="spacingAndGlyphs" text-anchor="middle" opacity="0.01" style="font-family:monospace">HEADER_2x15</text>
<g class="stroked-text"><desc>HEADER_2x15</desc>
<path d="M156.1966 155.2126 L156.1966 152.7693 "/>
<path d="M156.1966 153.9328 L157.5928 153.9328 "/>
<path d="M157.5928 155.2126 L157.5928 152.7693 "/>
<path d="M158.7562 153.9328 L159.5707 153.9328 "/>
<path d="M159.9197 155.2126 L158.7562 155.2126 "/>
<path d="M158.7562 155.2126 L158.7562 152.7693 "/>
<path d="M158.7562 152.7693 L159.9197 152.7693 "/>
<path d="M160.8505 154.5145 L162.0140 154.5145 "/>
<path d="M160.6178 155.2126 L161.4322 152.7693 "/>
<path d="M161.4322 152.7693 L162.2466 155.2126 "/>
<path d="M163.0611 155.2126 L163.0611 152.7693 "/>
<path d="M163.0611 152.7693 L163.6428 152.7693 "/>
<path d="M163.6428 152.7693 L163.9919 152.8856 "/>
<path d="M163.9919 152.8856 L164.2245 153.1183 "/>
<path d="M164.2245 153.1183 L164.3409 153.3510 "/>
<path d="M164.3409 153.3510 L164.4572 153.8164 "/>
<path d="M164.4572 153.8164 L164.4572 154.1655 "/>
<path d="M164.4572 154.1655 L164.3409 154.6308 "/>
<path d="M164.3409 154.6308 L164.2245 154.8635 "/>
<path d="M164.2245 154.8635 L163.9919 155.0962 "/>
<path d="M163.9919 155.0962 L163.6428 155.2126 "/>
<path d="M163.6428 155.2126 L163.0611 155.2126 "/>
<path d="M165.5044 153.9328 L166.3188 153.9328 "/>
<path d="M166.6678 155.2126 L165.5044 155.2126 "/>
<path d="M165.5044 155.2126 L165.5044 152.7693 "/>
<path d="M165.5044 152.7693 L166.6678 152.7693 "/>
<path d="M169.1111 155.2126 L168.2967 154.0491 "/>
<path d="M167.7149 155.2126 L167.7149 152.7693 "/>
<path d="M167.7149 152.7693 L168.6457 152.7693 "/>
<path d="M168.6457 152.7693 L168.8784 152.8856 "/>
<path d="M168.8784 152.8856 L168.9948 153.0020 "/>
<path d="M168.9948 153.0020 L169.1111 153.2347 "/>
<path d="M169.1111 153.2347 L169.1111 153.5837 "/>
<path d="M169.1111 153.5837 L168.9948 153.8164 "/>
<path d="M168.9948 153.8164 L168.8784 153.9328 "/>
<path d="M168.8784 153.9328 L168.6457 154.0491 "/>
<path d="M168.6457 154.0491 L167.7149 154.0491 "/>
<path d="M169.5765 155.4453 L171.4380 155.4453 "/>
<path d="M171.9034 153.0020 L172.0198 152.8856 "/>
<path d="M172.0198 152.8856 L172.2525 152.7693 "/>
<path d="M172.2525 152.7693 L172.8342 152.7693 "/>
<path d="M172.8342 152.7693 L173.0669 152.8856 "/>
<path d="M173.0669 152.8856 L173.1832 153.0020 "/>
<path d="M173.1832 153.0020 L173.2996 153.2347 "/>
<path d="M173.2996 153.2347 L173.2996 153.4674 "/>
<path d="M173.2996 153.4674 L173.1832 153.8164 "/>
<path d="M173.1832 153.8164 L171.7871 155.2126 "/>
<path d="M171.7871 155.2126 L173.2996 155.2126 "/>
<path d="M174.1140 155.2126 L175.3938 153.5837 "/>
<path d="M174.1140 153.5837 L175.3938 155.2126 "/>
<path d="M177.6044 155.2126 L176.2083 155.2126 "/>
<path d="M176.9063 155.2126 L176.9063 152.7693 "/>
<path d="M176.9063 152.7693 L176.6736 153.1183 "/>
<path d="M176.6736 153.1183 L176.4410 153.3510 "/>
<path d="M176.4410 153.3510 L176.2083 153.4674 "/>
<path d="M179.8150 152.7693 L178.6515 152.7693 "/>
<path d="M178.6515 152.7693 L178.5352 153.9328 "/>
<path d="M178.5352 153.9328 L178.6515 153.8164 "/>
<path d="M178.6515 153.8164 L178.8842 153.7001 "/>
<path d="M178.8842 153.7001 L179.4660 153.7001 "/>
<path d="M179.4660 153.7001 L179.6987 153.8164 "/>
<path d="M179.6987 153.8164 L179.8150 153.9328 "/>
<path d="M179.8150 153.9328 L179.9314 154.1655 "/>
<path d="M179.9314 154.1655 L179.9314 154.7472 "/>
<path d="M179.9314 154.7472 L179.8150 154.9799 "/>
<path d="M179.8150 154.9799 L179.6987 155.0962 "/>
<path d="M179.6987 155.0962 L179.4660 155.2126 "/>
<path d="M179.4660 155.2126 L178.8842 155.2126 "/>
<path d="M178.8842 155.2126 L178.6515 155.0962 "/>
<path d="M178.6515 155.0962 L178.5352 154.9799 "/>
</g><g transform="rotate(-90.000000 168.0058 104.9669)">
<text x="168.0058" y="106.1886" transform="scale(-1 1) translate(-336.011623 0)" textLength="4.7993" font-size="3.2577" lengthAdjust="spacingAndGlyphs" text-anchor="middle" opacity="0.01" style="font-family:monospace">J2</text>
</g>
<g class="stroked-text"><desc>J2</desc>
<path d="M169.3378 104.1525 L167.5926 104.1525 "/>
<path d="M167.5926 104.1525 L167.2436 104.0362 "/>
<path d="M167.2436 104.0362 L167.0109 103.8035 "/>
<path d="M167.0109 103.8035 L166.8946 103.4544 "/>
<path d="M166.8946 103.4544 L166.8946 103.2217 "/>
<path d="M169.1051 105.1996 L169.2215 105.3160 "/>
<path d="M169.2215 105.3160 L169.3378 105.5487 "/>
<path d="M169.3378 105.5487 L169.3378 106.1304 "/>
<path d="M169.3378 106.1304 L169.2215 106.3631 "/>
<path d="M169.2215 106.3631 L169.1051 106.4795 "/>
<path d="M169.1051 106.4795 L168.8725 106.5958 "/>
<path d="M168.8725 106.5958 L168.6398 106.5958 "/>
<path d="M168.6398 106.5958 L168.2907 106.4795 "/>
<path d="M168.2907 106.4795 L166.8946 105.0833 "/>
<path d="M166.8946 105.0833 L166.8946 106.5958 "/>
</g></g>
<g style="fill:#000084; fill-opacity:0.0;  stroke:#000084; stroke-width:0.2443; stroke-opacity:1;  stroke-linecap:round; stroke-linejoin:round;">
<path d="M161.7999 151.5115 L161.7999 61.5254 "/>
<path d="M161.7999 61.5254 L164.9028 58.4224 "/>
<path d="M164.9028 58.4224 L174.2117 58.4224 "/>
<path d="M174.2117 151.5115 L161.7999 151.5115 "/>
<path d="M174.2117 58.4224 L174.2117 151.5115 "/>
<g>
</g>
<g>
</g>
<g>
</g>
<g>
</g>
<g>
</g>
<g>
</g>
<g>
</g>
<g>
</g>
<g>
</g>
<g>
</g>
<g>
</g>
<g>
</g>
<g>
</g>
<g>
</g>
<g>
</g>
</g> 
<svg:g><svg:g><svg:title>SVG Image created as BATDATSOCKET01-Edge_Cuts.svg date 2023/11/06 23:54:30 </svg:title>
  <svg:desc>Image generated by PCBNEW </svg:desc>
<svg:g style="fill:#C2C200; fill-opacity:1.0000;stroke:#C2C200; stroke-opacity:1.0000; stroke-linecap:round; stroke-linejoin:round;" transform="translate(0 0) scale(1 1)">
</svg:g>
<svg:g style="fill:#C2C200; fill-opacity:0.0;  stroke:#C2C200; stroke-width:0.0000; stroke-opacity:1;  stroke-linecap:round; stroke-linejoin:round;">
</svg:g>
<svg:g style="fill:#C2C200; fill-opacity:0.0;  stroke:#C2C200; stroke-width:0.2443; stroke-opacity:1;  stroke-linecap:round; stroke-linejoin:round;">
<svg:path style="fill:#C2C200; fill-opacity:0.0;  stroke:#C2C200; stroke-width:0.2443; stroke-opacity:1;  stroke-linecap:round; stroke-linejoin:round;fill:none" d="M 177.3489,0.1258 119.6533,0.1258 119.6533,209.8814 177.3489,209.8814 Z"/> 
<svg:g>
</svg:g>
<svg:g>
</svg:g>
<svg:g>
</svg:g>
<svg:g>
</svg:g>
<svg:g>
</svg:g>
<svg:g>
</svg:g>
<svg:g>
</svg:g>
<svg:g>
</svg:g>
<svg:g>
</svg:g>
<svg:g>
</svg:g>
<svg:g>
</svg:g>
<svg:g>
</svg:g>
<svg:g>
</svg:g>
<svg:g>
</svg:g>
<svg:g>
</svg:g>
</svg:g> 
</svg:g></svg:g></svg>
