<?xml version='1.0' encoding='ASCII' standalone='yes'?>
<svg xmlns:svg="http://www.w3.org/2000/svg" xmlns="http://www.w3.org/2000/svg" xmlns:xlink="http://www.w3.org/1999/xlink" version="1.1" width="297.0022mm" height="210.0072mm" viewBox="0.0000 0.0000 297.0022 210.0072">
<title>SVG Image created as BATDATSOCKET01-B_Fab.svg date 2023/11/27 22:13:31 </title>
  <desc>Image generated by PCBNEW </desc>
<g style="fill:#000084; fill-opacity:1.0000;stroke:#000084; stroke-opacity:1.0000; stroke-linecap:round; stroke-linejoin:round;" transform="translate(0 0) scale(1 1)">
</g>
<g style="fill:#000084; fill-opacity:0.0;  stroke:#000084; stroke-width:0.0000; stroke-opacity:1;  stroke-linecap:round; stroke-linejoin:round;">
</g>
<g style="fill:#000084; fill-opacity:0.01;  stroke:#000084; stroke-width:0.3665; stroke-opacity:1;  stroke-linecap:round; stroke-linejoin:round;">
<text x="168.0058" y="156.3980" transform="scale(-1 1) translate(-336.011623 0)" textLength="25.3927" font-size="3.2577" lengthAdjust="spacingAndGlyphs" text-anchor="middle" opacity="0.01" style="font-family:monospace">HEADER_2x15</text>
<g class="stroked-text"><desc>HEADER_2x15</desc>
<path d="M156.1966 156.2876 L156.1966 153.8443 "/>
<path d="M156.1966 155.0078 L157.5928 155.0078 "/>
<path d="M157.5928 156.2876 L157.5928 153.8443 "/>
<path d="M158.7562 155.0078 L159.5707 155.0078 "/>
<path d="M159.9197 156.2876 L158.7562 156.2876 "/>
<path d="M158.7562 156.2876 L158.7562 153.8443 "/>
<path d="M158.7562 153.8443 L159.9197 153.8443 "/>
<path d="M160.8505 155.5895 L162.0140 155.5895 "/>
<path d="M160.6178 156.2876 L161.4322 153.8443 "/>
<path d="M161.4322 153.8443 L162.2466 156.2876 "/>
<path d="M163.0611 156.2876 L163.0611 153.8443 "/>
<path d="M163.0611 153.8443 L163.6428 153.8443 "/>
<path d="M163.6428 153.8443 L163.9919 153.9607 "/>
<path d="M163.9919 153.9607 L164.2245 154.1934 "/>
<path d="M164.2245 154.1934 L164.3409 154.4261 "/>
<path d="M164.3409 154.4261 L164.4572 154.8915 "/>
<path d="M164.4572 154.8915 L164.4572 155.2405 "/>
<path d="M164.4572 155.2405 L164.3409 155.7059 "/>
<path d="M164.3409 155.7059 L164.2245 155.9386 "/>
<path d="M164.2245 155.9386 L163.9919 156.1713 "/>
<path d="M163.9919 156.1713 L163.6428 156.2876 "/>
<path d="M163.6428 156.2876 L163.0611 156.2876 "/>
<path d="M165.5044 155.0078 L166.3188 155.0078 "/>
<path d="M166.6678 156.2876 L165.5044 156.2876 "/>
<path d="M165.5044 156.2876 L165.5044 153.8443 "/>
<path d="M165.5044 153.8443 L166.6678 153.8443 "/>
<path d="M169.1111 156.2876 L168.2967 155.1242 "/>
<path d="M167.7149 156.2876 L167.7149 153.8443 "/>
<path d="M167.7149 153.8443 L168.6457 153.8443 "/>
<path d="M168.6457 153.8443 L168.8784 153.9607 "/>
<path d="M168.8784 153.9607 L168.9948 154.0770 "/>
<path d="M168.9948 154.0770 L169.1111 154.3097 "/>
<path d="M169.1111 154.3097 L169.1111 154.6588 "/>
<path d="M169.1111 154.6588 L168.9948 154.8915 "/>
<path d="M168.9948 154.8915 L168.8784 155.0078 "/>
<path d="M168.8784 155.0078 L168.6457 155.1242 "/>
<path d="M168.6457 155.1242 L167.7149 155.1242 "/>
<path d="M169.5765 156.5203 L171.4380 156.5203 "/>
<path d="M171.9034 154.0770 L172.0198 153.9607 "/>
<path d="M172.0198 153.9607 L172.2525 153.8443 "/>
<path d="M172.2525 153.8443 L172.8342 153.8443 "/>
<path d="M172.8342 153.8443 L173.0669 153.9607 "/>
<path d="M173.0669 153.9607 L173.1832 154.0770 "/>
<path d="M173.1832 154.0770 L173.2996 154.3097 "/>
<path d="M173.2996 154.3097 L173.2996 154.5424 "/>
<path d="M173.2996 154.5424 L173.1832 154.8915 "/>
<path d="M173.1832 154.8915 L171.7871 156.2876 "/>
<path d="M171.7871 156.2876 L173.2996 156.2876 "/>
<path d="M174.1140 156.2876 L175.3938 154.6588 "/>
<path d="M174.1140 154.6588 L175.3938 156.2876 "/>
<path d="M177.6044 156.2876 L176.2083 156.2876 "/>
<path d="M176.9063 156.2876 L176.9063 153.8443 "/>
<path d="M176.9063 153.8443 L176.6736 154.1934 "/>
<path d="M176.6736 154.1934 L176.4410 154.4261 "/>
<path d="M176.4410 154.4261 L176.2083 154.5424 "/>
<path d="M179.8150 153.8443 L178.6515 153.8443 "/>
<path d="M178.6515 153.8443 L178.5352 155.0078 "/>
<path d="M178.5352 155.0078 L178.6515 154.8915 "/>
<path d="M178.6515 154.8915 L178.8842 154.7751 "/>
<path d="M178.8842 154.7751 L179.4660 154.7751 "/>
<path d="M179.4660 154.7751 L179.6987 154.8915 "/>
<path d="M179.6987 154.8915 L179.8150 155.0078 "/>
<path d="M179.8150 155.0078 L179.9314 155.2405 "/>
<path d="M179.9314 155.2405 L179.9314 155.8222 "/>
<path d="M179.9314 155.8222 L179.8150 156.0549 "/>
<path d="M179.8150 156.0549 L179.6987 156.1713 "/>
<path d="M179.6987 156.1713 L179.4660 156.2876 "/>
<path d="M179.4660 156.2876 L178.8842 156.2876 "/>
<path d="M178.8842 156.2876 L178.6515 156.1713 "/>
<path d="M178.6515 156.1713 L178.5352 156.0549 "/>
</g><g transform="rotate(-90.000000 168.0058 104.9669)">
<text x="168.0058" y="106.1886" transform="scale(-1 1) translate(-336.011623 0)" textLength="4.7993" font-size="3.2577" lengthAdjust="spacingAndGlyphs" text-anchor="middle" opacity="0.01" style="font-family:monospace">J2</text>
</g>
<g class="stroked-text"><desc>J2</desc>
<path d="M169.3378 104.1525 L167.5926 104.1525 "/>
<path d="M167.5926 104.1525 L167.2436 104.0362 "/>
<path d="M167.2436 104.0362 L167.0109 103.8035 "/>
<path d="M167.0109 103.8035 L166.8946 103.4544 "/>
<path d="M166.8946 103.4544 L166.8946 103.2217 "/>
<path d="M169.1051 105.1996 L169.2215 105.3160 "/>
<path d="M169.2215 105.3160 L169.3378 105.5487 "/>
<path d="M169.3378 105.5487 L169.3378 106.1304 "/>
<path d="M169.3378 106.1304 L169.2215 106.3631 "/>
<path d="M169.2215 106.3631 L169.1051 106.4795 "/>
<path d="M169.1051 106.4795 L168.8725 106.5958 "/>
<path d="M168.8725 106.5958 L168.6398 106.5958 "/>
<path d="M168.6398 106.5958 L168.2907 106.4795 "/>
<path d="M168.2907 106.4795 L166.8946 105.0833 "/>
<path d="M166.8946 105.0833 L166.8946 106.5958 "/>
</g></g>
<g style="fill:#000084; fill-opacity:0.0;  stroke:#000084; stroke-width:0.2443; stroke-opacity:1;  stroke-linecap:round; stroke-linejoin:round;">
<path d="M161.7999 151.5115 L161.7999 58.4224 "/>
<path d="M161.7999 58.4224 L171.7685 58.4224 "/>
<path d="M171.7685 58.4224 L174.2117 60.8657 "/>
<path d="M174.2117 151.5115 L161.7999 151.5115 "/>
<path d="M174.2117 60.8657 L174.2117 151.5115 "/>
<g>
</g>
<g>
</g>
<g>
</g>
<g>
</g>
<g>
</g>
<g>
</g>
<g>
</g>
<g>
</g>
<g>
</g>
<g>
</g>
<g>
</g>
<g>
</g>
<g>
</g>
<g>
</g>
<g>
</g>
</g> 
<svg:g><svg:g><svg:title>SVG Image created as BATDATSOCKET01-Edge_Cuts.svg date 2023/11/27 22:13:31 </svg:title>
  <svg:desc>Image generated by PCBNEW </svg:desc>
<svg:g style="fill:#C2C200; fill-opacity:1.0000;stroke:#C2C200; stroke-opacity:1.0000; stroke-linecap:round; stroke-linejoin:round;" transform="translate(0 0) scale(1 1)">
</svg:g>
<svg:g style="fill:#C2C200; fill-opacity:0.0;  stroke:#C2C200; stroke-width:0.0000; stroke-opacity:1;  stroke-linecap:round; stroke-linejoin:round;">
</svg:g>
<svg:g style="fill:#C2C200; fill-opacity:0.0;  stroke:#C2C200; stroke-width:0.2443; stroke-opacity:1;  stroke-linecap:round; stroke-linejoin:round;">
<svg:path style="fill:#C2C200; fill-opacity:0.0;  stroke:#C2C200; stroke-width:0.2443; stroke-opacity:1;  stroke-linecap:round; stroke-linejoin:round;fill:none" d="M 177.3489,0.1258 119.6533,0.1258 119.6533,209.8814 177.3489,209.8814 Z"/> 
<svg:g>
</svg:g>
<svg:g>
</svg:g>
<svg:g>
</svg:g>
<svg:g>
</svg:g>
<svg:g>
</svg:g>
<svg:g>
</svg:g>
<svg:g>
</svg:g>
<svg:g>
</svg:g>
<svg:g>
</svg:g>
<svg:g>
</svg:g>
<svg:g>
</svg:g>
<svg:g>
</svg:g>
<svg:g>
</svg:g>
<svg:g>
</svg:g>
<svg:g>
</svg:g>
</svg:g> 
</svg:g></svg:g></svg>
