%TF.GenerationSoftware,KiCad,Pcbnew,8.0.8+1*%
%TF.CreationDate,2025-05-12T22:43:10+00:00*%
%TF.ProjectId,BATDATSOCKET01,42415444-4154-4534-9f43-4b455430312e,rev?*%
%TF.SameCoordinates,Original*%
%TF.FileFunction,Copper,L2,Bot*%
%TF.FilePolarity,Positive*%
%FSLAX46Y46*%
G04 Gerber Fmt 4.6, Leading zero omitted, Abs format (unit mm)*
G04 Created by KiCad (PCBNEW 8.0.8+1) date 2025-05-12 22:43:10*
%MOMM*%
%LPD*%
G01*
G04 APERTURE LIST*
%ADD10C,0.300000*%
%TA.AperFunction,ComponentPad*%
%ADD11C,1.300000*%
%TD*%
%TA.AperFunction,ComponentPad*%
%ADD12C,1.620000*%
%TD*%
%TA.AperFunction,ComponentPad*%
%ADD13C,6.000000*%
%TD*%
%TA.AperFunction,ComponentPad*%
%ADD14R,1.700000X1.700000*%
%TD*%
%TA.AperFunction,ComponentPad*%
%ADD15O,1.700000X1.700000*%
%TD*%
%TA.AperFunction,ViaPad*%
%ADD16C,0.800000*%
%TD*%
%TA.AperFunction,Conductor*%
%ADD17C,0.500000*%
%TD*%
%TA.AperFunction,Conductor*%
%ADD18C,0.300000*%
%TD*%
G04 APERTURE END LIST*
D10*
G36*
X-18432993Y4154865D02*
G01*
X-18395989Y4117861D01*
X-18342810Y4011502D01*
X-18279854Y3759680D01*
X-18279854Y3439464D01*
X-18342810Y3187643D01*
X-18395990Y3081283D01*
X-18432993Y3044279D01*
X-18522406Y2999572D01*
X-18594444Y2999572D01*
X-18683857Y3044278D01*
X-18720861Y3081282D01*
X-18774041Y3187642D01*
X-18836997Y3439466D01*
X-18836997Y3759679D01*
X-18774041Y4011503D01*
X-18720861Y4117862D01*
X-18683857Y4154866D01*
X-18594444Y4199572D01*
X-18522407Y4199572D01*
X-18432993Y4154865D01*
G37*
G36*
X-16316069Y2532905D02*
G01*
X-22160806Y2532905D01*
X-22160806Y3492429D01*
X-21994139Y3492429D01*
X-21994139Y3135286D01*
X-21991257Y3106022D01*
X-21989194Y3101042D01*
X-21988812Y3095667D01*
X-21978303Y3068204D01*
X-21906874Y2925347D01*
X-21898947Y2912754D01*
X-21897431Y2909094D01*
X-21894050Y2904975D01*
X-21891209Y2900461D01*
X-21888216Y2897865D01*
X-21878776Y2886363D01*
X-21807347Y2814934D01*
X-21795843Y2805493D01*
X-21793248Y2802501D01*
X-21788739Y2799663D01*
X-21784616Y2796279D01*
X-21780955Y2794763D01*
X-21768363Y2786836D01*
X-21625505Y2715408D01*
X-21598042Y2704898D01*
X-21592667Y2704517D01*
X-21587688Y2702454D01*
X-21558424Y2699572D01*
X-21129853Y2699572D01*
X-21100589Y2702454D01*
X-21095611Y2704517D01*
X-21090235Y2704898D01*
X-21062771Y2715408D01*
X-20919914Y2786836D01*
X-20907321Y2794764D01*
X-20903661Y2796279D01*
X-20899542Y2799661D01*
X-20895028Y2802501D01*
X-20892432Y2805495D01*
X-20880930Y2814934D01*
X-20809501Y2886363D01*
X-20790846Y2909094D01*
X-20768449Y2963166D01*
X-20768449Y3021692D01*
X-20790846Y3075764D01*
X-20832232Y3117150D01*
X-20886304Y3139547D01*
X-20944830Y3139547D01*
X-20998902Y3117150D01*
X-21021633Y3098495D01*
X-21075851Y3044278D01*
X-21165263Y2999572D01*
X-21523014Y2999572D01*
X-21612428Y3044279D01*
X-21649432Y3081283D01*
X-21694139Y3170697D01*
X-21694139Y3457019D01*
X-21649432Y3546433D01*
X-21612428Y3583437D01*
X-21523014Y3628143D01*
X-21344139Y3628143D01*
X-21328662Y3629668D01*
X-21324727Y3629405D01*
X-21322017Y3630322D01*
X-21314875Y3631025D01*
X-21292361Y3640352D01*
X-21269285Y3648155D01*
X-21265478Y3651487D01*
X-21260803Y3653423D01*
X-21243574Y3670653D01*
X-21225238Y3686696D01*
X-21222996Y3691231D01*
X-21219419Y3694807D01*
X-21210093Y3717324D01*
X-21199294Y3739159D01*
X-21198958Y3744204D01*
X-21197021Y3748879D01*
X-21197021Y3773255D01*
X-21195401Y3797555D01*
X-21197021Y3802346D01*
X-21197021Y3807407D01*
X-21206346Y3829919D01*
X-21214151Y3852998D01*
X-21218324Y3858835D01*
X-21219419Y3861479D01*
X-21222210Y3864270D01*
X-21231253Y3876919D01*
X-21394824Y4063858D01*
X-20565568Y4063858D01*
X-20565568Y3921000D01*
X-20564110Y3906189D01*
X-20564390Y3902239D01*
X-20563209Y3897045D01*
X-20562686Y3891736D01*
X-20561170Y3888075D01*
X-20557870Y3873565D01*
X-20486441Y3659281D01*
X-20474453Y3632430D01*
X-20470923Y3628360D01*
X-20468860Y3623380D01*
X-20450205Y3600649D01*
X-19849128Y2999572D01*
X-20415568Y2999572D01*
X-20444832Y2996690D01*
X-20498904Y2974292D01*
X-20540288Y2932908D01*
X-20562686Y2878836D01*
X-20562686Y2820308D01*
X-20540288Y2766236D01*
X-20498904Y2724852D01*
X-20444832Y2702454D01*
X-20415568Y2699572D01*
X-19486996Y2699572D01*
X-19457732Y2702454D01*
X-19426459Y2715408D01*
X-19403661Y2724851D01*
X-19362275Y2766237D01*
X-19339878Y2820309D01*
X-19339878Y2878835D01*
X-19342997Y2886364D01*
X-19346439Y2894673D01*
X-19362275Y2932908D01*
X-19380930Y2955638D01*
X-20203435Y3778143D01*
X-19136997Y3778143D01*
X-19136997Y3421000D01*
X-19136495Y3415897D01*
X-19136820Y3413709D01*
X-19135201Y3402758D01*
X-19134115Y3391736D01*
X-19133269Y3389692D01*
X-19132518Y3384619D01*
X-19061089Y3098906D01*
X-19060318Y3096748D01*
X-19060241Y3095667D01*
X-19055583Y3083493D01*
X-19051196Y3071215D01*
X-19050552Y3070345D01*
X-19049732Y3068204D01*
X-18978303Y2925347D01*
X-18970375Y2912752D01*
X-18968860Y2909095D01*
X-18965481Y2904978D01*
X-18962638Y2900461D01*
X-18959644Y2897864D01*
X-18950206Y2886364D01*
X-18878778Y2814935D01*
X-18867273Y2805493D01*
X-18864678Y2802501D01*
X-18860168Y2799662D01*
X-18856047Y2796280D01*
X-18852388Y2794765D01*
X-18839793Y2786836D01*
X-18696935Y2715408D01*
X-18669472Y2704898D01*
X-18664097Y2704517D01*
X-18659118Y2702454D01*
X-18629854Y2699572D01*
X-18486997Y2699572D01*
X-18457733Y2702454D01*
X-18452755Y2704517D01*
X-18447379Y2704898D01*
X-18419916Y2715408D01*
X-18277057Y2786836D01*
X-18264463Y2794765D01*
X-18260803Y2796280D01*
X-18256683Y2799662D01*
X-18252172Y2802501D01*
X-18249578Y2805493D01*
X-18238072Y2814935D01*
X-18166644Y2886364D01*
X-18157206Y2897865D01*
X-18154212Y2900461D01*
X-18151372Y2904974D01*
X-18147990Y2909094D01*
X-18146475Y2912754D01*
X-18138547Y2925347D01*
X-18067118Y3068203D01*
X-18066299Y3070346D01*
X-18065654Y3071215D01*
X-18061270Y3083487D01*
X-18056609Y3095667D01*
X-18056533Y3096748D01*
X-18055761Y3098906D01*
X-17984333Y3384620D01*
X-17983584Y3389692D01*
X-17982736Y3391736D01*
X-17981651Y3402759D01*
X-17980031Y3413709D01*
X-17980357Y3415897D01*
X-17979854Y3421000D01*
X-17979854Y3778143D01*
X-17980357Y3783247D01*
X-17980031Y3785434D01*
X-17981651Y3796385D01*
X-17982736Y3807407D01*
X-17983584Y3809452D01*
X-17984333Y3814523D01*
X-18046666Y4063858D01*
X-17708426Y4063858D01*
X-17708426Y3921000D01*
X-17706968Y3906189D01*
X-17707248Y3902239D01*
X-17706067Y3897045D01*
X-17705544Y3891736D01*
X-17704028Y3888075D01*
X-17700728Y3873565D01*
X-17629299Y3659281D01*
X-17617311Y3632430D01*
X-17613781Y3628360D01*
X-17611718Y3623380D01*
X-17593063Y3600649D01*
X-16991986Y2999572D01*
X-17558426Y2999572D01*
X-17587690Y2996690D01*
X-17641762Y2974292D01*
X-17683146Y2932908D01*
X-17705544Y2878836D01*
X-17705544Y2820308D01*
X-17683146Y2766236D01*
X-17641762Y2724852D01*
X-17587690Y2702454D01*
X-17558426Y2699572D01*
X-16629854Y2699572D01*
X-16600590Y2702454D01*
X-16569317Y2715408D01*
X-16546519Y2724851D01*
X-16505133Y2766237D01*
X-16482736Y2820309D01*
X-16482736Y2878835D01*
X-16485855Y2886364D01*
X-16489297Y2894673D01*
X-16505133Y2932908D01*
X-16523788Y2955638D01*
X-17355893Y3787743D01*
X-17408426Y3945342D01*
X-17408426Y4028448D01*
X-17363719Y4117862D01*
X-17326715Y4154865D01*
X-17237301Y4199572D01*
X-16950978Y4199572D01*
X-16861565Y4154865D01*
X-16807349Y4100649D01*
X-16784619Y4081994D01*
X-16730546Y4059598D01*
X-16672020Y4059598D01*
X-16617948Y4081994D01*
X-16576562Y4123380D01*
X-16554166Y4177452D01*
X-16554166Y4235978D01*
X-16576562Y4290051D01*
X-16595217Y4312781D01*
X-16666645Y4384209D01*
X-16678147Y4393649D01*
X-16680743Y4396642D01*
X-16685257Y4399483D01*
X-16689376Y4402864D01*
X-16693036Y4404380D01*
X-16705629Y4412307D01*
X-16848486Y4483736D01*
X-16875949Y4494245D01*
X-16881324Y4494627D01*
X-16886304Y4496690D01*
X-16915568Y4499572D01*
X-17272711Y4499572D01*
X-17301975Y4496690D01*
X-17306956Y4494627D01*
X-17312330Y4494245D01*
X-17339794Y4483736D01*
X-17482650Y4412307D01*
X-17495244Y4404380D01*
X-17498903Y4402864D01*
X-17503024Y4399483D01*
X-17507536Y4396642D01*
X-17510133Y4393649D01*
X-17521633Y4384210D01*
X-17593062Y4312782D01*
X-17602502Y4301280D01*
X-17605496Y4298683D01*
X-17608338Y4294169D01*
X-17611717Y4290051D01*
X-17613233Y4286393D01*
X-17621161Y4273797D01*
X-17692590Y4130940D01*
X-17703099Y4103477D01*
X-17703481Y4098103D01*
X-17705544Y4093122D01*
X-17708426Y4063858D01*
X-18046666Y4063858D01*
X-18055761Y4100238D01*
X-18056533Y4102397D01*
X-18056609Y4103477D01*
X-18061270Y4115658D01*
X-18065654Y4127929D01*
X-18066299Y4128799D01*
X-18067118Y4130941D01*
X-18138547Y4273797D01*
X-18146474Y4286389D01*
X-18147990Y4290051D01*
X-18151374Y4294174D01*
X-18154212Y4298683D01*
X-18157205Y4301279D01*
X-18166645Y4312781D01*
X-18238073Y4384209D01*
X-18249575Y4393649D01*
X-18252171Y4396642D01*
X-18256685Y4399483D01*
X-18260804Y4402864D01*
X-18264464Y4404380D01*
X-18277057Y4412307D01*
X-18419915Y4483736D01*
X-18447378Y4494246D01*
X-18452756Y4494629D01*
X-18457733Y4496690D01*
X-18486997Y4499572D01*
X-18629854Y4499572D01*
X-18659118Y4496690D01*
X-18664099Y4494627D01*
X-18669473Y4494245D01*
X-18696937Y4483736D01*
X-18839793Y4412307D01*
X-18852385Y4404381D01*
X-18856047Y4402864D01*
X-18860170Y4399481D01*
X-18864679Y4396642D01*
X-18867275Y4393650D01*
X-18878777Y4384209D01*
X-18950205Y4312781D01*
X-18959645Y4301280D01*
X-18962638Y4298683D01*
X-18965479Y4294170D01*
X-18968860Y4290050D01*
X-18970376Y4286391D01*
X-18978303Y4273797D01*
X-19049732Y4130940D01*
X-19050552Y4128800D01*
X-19051196Y4127929D01*
X-19055583Y4115652D01*
X-19060241Y4103477D01*
X-19060318Y4102397D01*
X-19061089Y4100238D01*
X-19132518Y3814523D01*
X-19133268Y3809452D01*
X-19134115Y3807407D01*
X-19135201Y3796385D01*
X-19136820Y3785434D01*
X-19136495Y3783247D01*
X-19136997Y3778143D01*
X-20203435Y3778143D01*
X-20213035Y3787743D01*
X-20265568Y3945342D01*
X-20265568Y4028448D01*
X-20220861Y4117862D01*
X-20183857Y4154865D01*
X-20094443Y4199572D01*
X-19808120Y4199572D01*
X-19718707Y4154865D01*
X-19664491Y4100649D01*
X-19641761Y4081994D01*
X-19587688Y4059598D01*
X-19529162Y4059598D01*
X-19475090Y4081994D01*
X-19433704Y4123380D01*
X-19411308Y4177452D01*
X-19411308Y4235978D01*
X-19433704Y4290051D01*
X-19452359Y4312781D01*
X-19523787Y4384209D01*
X-19535289Y4393649D01*
X-19537885Y4396642D01*
X-19542399Y4399483D01*
X-19546518Y4402864D01*
X-19550178Y4404380D01*
X-19562771Y4412307D01*
X-19705628Y4483736D01*
X-19733091Y4494245D01*
X-19738466Y4494627D01*
X-19743446Y4496690D01*
X-19772710Y4499572D01*
X-20129853Y4499572D01*
X-20159117Y4496690D01*
X-20164098Y4494627D01*
X-20169472Y4494245D01*
X-20196936Y4483736D01*
X-20339792Y4412307D01*
X-20352386Y4404380D01*
X-20356045Y4402864D01*
X-20360166Y4399483D01*
X-20364678Y4396642D01*
X-20367275Y4393649D01*
X-20378775Y4384210D01*
X-20450204Y4312782D01*
X-20459644Y4301280D01*
X-20462638Y4298683D01*
X-20465480Y4294169D01*
X-20468859Y4290051D01*
X-20470375Y4286393D01*
X-20478303Y4273797D01*
X-20549732Y4130940D01*
X-20560241Y4103477D01*
X-20560623Y4098103D01*
X-20562686Y4093122D01*
X-20565568Y4063858D01*
X-21394824Y4063858D01*
X-21513574Y4199572D01*
X-20915567Y4199572D01*
X-20886303Y4202454D01*
X-20832231Y4224852D01*
X-20790847Y4266236D01*
X-20768449Y4320308D01*
X-20768449Y4378836D01*
X-20790847Y4432908D01*
X-20832231Y4474292D01*
X-20886303Y4496690D01*
X-20915567Y4499572D01*
X-21844139Y4499572D01*
X-21859612Y4498049D01*
X-21863551Y4498311D01*
X-21866266Y4497393D01*
X-21873403Y4496690D01*
X-21895912Y4487367D01*
X-21918993Y4479560D01*
X-21922801Y4476229D01*
X-21927475Y4474292D01*
X-21944705Y4457063D01*
X-21963040Y4441019D01*
X-21965283Y4436485D01*
X-21968859Y4432908D01*
X-21978186Y4410392D01*
X-21988984Y4388556D01*
X-21989321Y4383512D01*
X-21991257Y4378836D01*
X-21991257Y4354470D01*
X-21992878Y4330160D01*
X-21991257Y4325368D01*
X-21991257Y4320308D01*
X-21981934Y4297800D01*
X-21974127Y4274718D01*
X-21969956Y4268882D01*
X-21968859Y4266236D01*
X-21966070Y4263447D01*
X-21957026Y4250796D01*
X-21650092Y3900014D01*
X-21768363Y3840879D01*
X-21780955Y3832953D01*
X-21784616Y3831436D01*
X-21788739Y3828053D01*
X-21793248Y3825214D01*
X-21795843Y3822223D01*
X-21807347Y3812781D01*
X-21878776Y3741352D01*
X-21888216Y3729851D01*
X-21891209Y3727254D01*
X-21894050Y3722741D01*
X-21897431Y3718621D01*
X-21898947Y3714962D01*
X-21906874Y3702368D01*
X-21978303Y3559511D01*
X-21988812Y3532048D01*
X-21989194Y3526674D01*
X-21991257Y3521693D01*
X-21994139Y3492429D01*
X-22160806Y3492429D01*
X-22160806Y4666239D01*
X-16316069Y4666239D01*
X-16316069Y2532905D01*
G37*
D11*
%TO.P,J1,A1*%
%TO.N,unconnected-(J1-PadA1)*%
X-4300000Y38485000D03*
%TO.P,J1,A2*%
%TO.N,GND*%
X-4300000Y40485000D03*
%TO.P,J1,A3*%
%TO.N,/3v3*%
X-4300000Y42485000D03*
%TO.P,J1,A4*%
%TO.N,/5v*%
X-4300000Y44485000D03*
%TO.P,J1,A5*%
%TO.N,GND*%
X-4300000Y46485000D03*
%TO.P,J1,A6*%
%TO.N,unconnected-(J1-PadA6)*%
X-4300000Y48485000D03*
%TO.P,J1,B1*%
%TO.N,unconnected-(J1-PadB1)*%
X-6300000Y38485000D03*
%TO.P,J1,B2*%
%TO.N,GND*%
X-6300000Y40485000D03*
%TO.P,J1,B3*%
%TO.N,/3v3*%
X-6300000Y42485000D03*
%TO.P,J1,B4*%
%TO.N,/5v*%
X-6300000Y44485000D03*
%TO.P,J1,B5*%
%TO.N,GND*%
X-6300000Y46485000D03*
%TO.P,J1,B6*%
%TO.N,unconnected-(J1-PadB6)*%
X-6300000Y48485000D03*
%TO.P,J1,C1*%
%TO.N,/SCL*%
X-8300000Y38485000D03*
%TO.P,J1,C2*%
%TO.N,/SDA*%
X-8300000Y40485000D03*
%TO.P,J1,C3*%
%TO.N,unconnected-(J1-PadC3)*%
X-8300000Y42485000D03*
%TO.P,J1,C4*%
%TO.N,/RST*%
X-8300000Y44485000D03*
%TO.P,J1,C5*%
%TO.N,unconnected-(J1-PadC5)*%
X-8300000Y46485000D03*
%TO.P,J1,C6*%
%TO.N,unconnected-(J1-PadC6)*%
X-8300000Y48485000D03*
%TO.P,J1,D1*%
%TO.N,/SCLK*%
X-10300000Y38485000D03*
%TO.P,J1,D2*%
%TO.N,/MISO*%
X-10300000Y40485000D03*
%TO.P,J1,D3*%
%TO.N,/MOSI*%
X-10300000Y42485000D03*
%TO.P,J1,D4*%
%TO.N,/A0*%
X-10300000Y44485000D03*
%TO.P,J1,D5*%
%TO.N,/A1*%
X-10300000Y46485000D03*
%TO.P,J1,D6*%
%TO.N,/connection_detector*%
X-10300000Y48485000D03*
%TO.P,J1,E1*%
%TO.N,/C0*%
X-12300000Y38485000D03*
%TO.P,J1,E2*%
%TO.N,/C1*%
X-12300000Y40485000D03*
%TO.P,J1,E3*%
%TO.N,/TX*%
X-12300000Y42485000D03*
%TO.P,J1,E4*%
%TO.N,/RX*%
X-12300000Y44485000D03*
%TO.P,J1,E5*%
%TO.N,/B0*%
X-12300000Y46485000D03*
%TO.P,J1,E6*%
%TO.N,/B1*%
X-12300000Y48485000D03*
D12*
%TO.P,J1,P1*%
%TO.N,/BATT_B*%
X-14300000Y24345000D03*
X-11800000Y24345000D03*
X-9300000Y24345000D03*
X-6800000Y24345000D03*
X-4300000Y24345000D03*
X-14300000Y27345000D03*
X-11800000Y27345000D03*
X-9300000Y27345000D03*
X-6800000Y27345000D03*
X-4300000Y27345000D03*
%TO.P,J1,P2*%
%TO.N,GND*%
X-14300000Y29845000D03*
X-11800000Y29845000D03*
X-9300000Y29845000D03*
X-6800000Y29845000D03*
X-4300000Y29845000D03*
X-14300000Y32845000D03*
X-11800000Y32845000D03*
X-9300000Y32845000D03*
X-6800000Y32845000D03*
X-4300000Y32845000D03*
%TO.P,J1,P3*%
X-14300000Y53055000D03*
X-11800000Y53055000D03*
X-9300000Y53055000D03*
X-6800000Y53055000D03*
X-4300000Y53055000D03*
X-14300000Y56055000D03*
X-11800000Y56055000D03*
X-9300000Y56055000D03*
X-6800000Y56055000D03*
X-4300000Y56055000D03*
%TO.P,J1,P4*%
%TO.N,/BATT_A*%
X-14300000Y58555000D03*
X-11800000Y58555000D03*
X-9300000Y58555000D03*
X-6800000Y58555000D03*
X-4300000Y58555000D03*
X-14300000Y61555000D03*
X-11800000Y61555000D03*
X-9300000Y61555000D03*
X-6800000Y61555000D03*
X-4300000Y61555000D03*
%TD*%
D13*
%TO.P,H3,1,1*%
%TO.N,GND*%
X-19820000Y73367500D03*
%TD*%
%TO.P,H4,1,1*%
%TO.N,GND*%
X-19820000Y12407500D03*
%TD*%
D14*
%TO.P,J2,1*%
%TO.N,GND*%
X-22360000Y60725000D03*
D15*
%TO.P,J2,2*%
X-19820000Y60725000D03*
%TO.P,J2,3*%
%TO.N,/5v*%
X-22360000Y58185000D03*
%TO.P,J2,4*%
X-19820000Y58185000D03*
%TO.P,J2,5*%
%TO.N,/3v3*%
X-22360000Y55645000D03*
%TO.P,J2,6*%
X-19820000Y55645000D03*
%TO.P,J2,7*%
%TO.N,GND*%
X-22360000Y53105000D03*
%TO.P,J2,8*%
%TO.N,/connection_detector*%
X-19820000Y53105000D03*
%TO.P,J2,9*%
%TO.N,/A0*%
X-22360000Y50565000D03*
%TO.P,J2,10*%
%TO.N,/RST*%
X-19820000Y50565000D03*
%TO.P,J2,11*%
%TO.N,/A1*%
X-22360000Y48025000D03*
%TO.P,J2,12*%
%TO.N,/RX*%
X-19820000Y48025000D03*
%TO.P,J2,13*%
%TO.N,/B1*%
X-22360000Y45485000D03*
%TO.P,J2,14*%
%TO.N,/TX*%
X-19820000Y45485000D03*
%TO.P,J2,15*%
%TO.N,/B0*%
X-22360000Y42945000D03*
%TO.P,J2,16*%
%TO.N,/MOSI*%
X-19820000Y42945000D03*
%TO.P,J2,17*%
%TO.N,/C1*%
X-22360000Y40405000D03*
%TO.P,J2,18*%
%TO.N,/MISO*%
X-19820000Y40405000D03*
%TO.P,J2,19*%
%TO.N,/C0*%
X-22360000Y37865000D03*
%TO.P,J2,20*%
%TO.N,/SCLK*%
X-19820000Y37865000D03*
%TO.P,J2,21*%
%TO.N,GND*%
X-22360000Y35325000D03*
%TO.P,J2,22*%
X-19820000Y35325000D03*
%TO.P,J2,23*%
%TO.N,/SCL*%
X-22360000Y32785000D03*
%TO.P,J2,24*%
X-19820000Y32785000D03*
%TO.P,J2,25*%
%TO.N,/I2C_PWR*%
X-22360000Y30245000D03*
%TO.P,J2,26*%
X-19820000Y30245000D03*
%TO.P,J2,27*%
%TO.N,/SDA*%
X-22360000Y27705000D03*
%TO.P,J2,28*%
X-19820000Y27705000D03*
%TO.P,J2,29*%
%TO.N,GND*%
X-22360000Y25165000D03*
%TO.P,J2,30*%
X-19820000Y25165000D03*
%TD*%
D16*
%TO.N,/5v*%
X-18450000Y64625000D03*
X-4914000Y11805000D03*
%TO.N,/connection_detector*%
X-19814000Y68155000D03*
%TD*%
D17*
%TO.N,/5v*%
X-2114000Y13255000D02*
X-3514000Y11855000D01*
X-14714000Y50625000D02*
X-17714000Y53625000D01*
X-2824000Y45065000D02*
X-3410700Y44478300D01*
X-2114000Y43181600D02*
X-2114000Y13255000D01*
X-17714000Y53625000D02*
X-17714000Y58160000D01*
X-2414000Y45475000D02*
X-2414000Y49825000D01*
X-17714000Y63889000D02*
X-17714000Y58160000D01*
X-21670000Y58160000D02*
X-19130000Y58160000D01*
X-18450000Y64625000D02*
X-17714000Y63889000D01*
X-3514000Y11855000D02*
X-4864000Y11855000D01*
X-3455600Y44433400D02*
X-2824000Y45065000D01*
X-6314000Y44635000D02*
X-6112400Y44433400D01*
X-2414000Y49825000D02*
X-3214000Y50625000D01*
X-3410700Y44478300D02*
X-2114000Y43181600D01*
X-6112400Y44433400D02*
X-3455600Y44433400D01*
X-4864000Y11855000D02*
X-4914000Y11805000D01*
X-3214000Y50625000D02*
X-14714000Y50625000D01*
X-2824000Y45065000D02*
X-2414000Y45475000D01*
X-17714000Y58160000D02*
X-19130000Y58160000D01*
D18*
%TO.N,/SCL*%
X-9289000Y36650000D02*
X-14289000Y36650000D01*
X-8314000Y38635000D02*
X-8314000Y37625000D01*
X-14289000Y36650000D02*
X-18179000Y32760000D01*
X-18179000Y32760000D02*
X-19130000Y32760000D01*
X-8314000Y37625000D02*
X-9289000Y36650000D01*
%TO.N,/SDA*%
X-16014000Y33425000D02*
X-14364000Y35075000D01*
D17*
X-19845000Y27680000D02*
X-19820000Y27705000D01*
D18*
X-19820000Y27705000D02*
X-16014000Y31511000D01*
X-9664000Y35075000D02*
X-7300000Y37439000D01*
X-14364000Y35075000D02*
X-9664000Y35075000D01*
D17*
X-21670000Y27680000D02*
X-19845000Y27680000D01*
D18*
X-7300000Y37439000D02*
X-7300000Y39621000D01*
X-16014000Y31511000D02*
X-16014000Y33425000D01*
X-7300000Y39621000D02*
X-8314000Y40635000D01*
%TO.N,/A1*%
X-18006893Y49275000D02*
X-21110000Y49275000D01*
X-14212154Y45480261D02*
X-18006893Y49275000D01*
X-21110000Y49275000D02*
X-22360000Y48025000D01*
X-10314000Y46635000D02*
X-11468739Y45480261D01*
X-11468739Y45480261D02*
X-14212154Y45480261D01*
%TO.N,/connection_detector*%
X-22614000Y68155000D02*
X-19814000Y68155000D01*
X-11370000Y49555000D02*
X-10300000Y48485000D01*
X-23814000Y54855000D02*
X-23814000Y66955000D01*
X-23314000Y54355000D02*
X-23814000Y54855000D01*
X-21070000Y54355000D02*
X-23314000Y54355000D01*
X-23814000Y66955000D02*
X-22614000Y68155000D01*
X-19759000Y53105000D02*
X-16209000Y49555000D01*
X-19820000Y53105000D02*
X-19759000Y53105000D01*
X-19820000Y53105000D02*
X-21070000Y54355000D01*
X-16209000Y49555000D02*
X-11370000Y49555000D01*
%TO.N,/C1*%
X-16237238Y36644656D02*
X-20344656Y36644656D01*
X-12314000Y40567894D02*
X-16237238Y36644656D01*
X-21125000Y39170000D02*
X-22360000Y40405000D01*
X-20344656Y36644656D02*
X-21125000Y37425000D01*
X-21125000Y37425000D02*
X-21125000Y39170000D01*
X-12314000Y40635000D02*
X-12314000Y40567894D01*
%TO.N,/TX*%
X-13974000Y42635000D02*
X-16799000Y45460000D01*
X-12314000Y42635000D02*
X-13974000Y42635000D01*
X-16799000Y45460000D02*
X-19130000Y45460000D01*
%TO.N,/RX*%
X-13914000Y44475000D02*
X-17439000Y48000000D01*
X-12314000Y44635000D02*
X-12474000Y44475000D01*
X-12474000Y44475000D02*
X-13914000Y44475000D01*
X-17439000Y48000000D02*
X-19130000Y48000000D01*
%TD*%
%TA.AperFunction,Conductor*%
%TO.N,GND*%
G36*
X-2564500Y29083444D02*
G01*
X-2584185Y29016405D01*
X-2636989Y28970650D01*
X-2706147Y28960706D01*
X-2751529Y28976658D01*
X-2785437Y28996672D01*
X-2921235Y29044234D01*
X-3016550Y29062970D01*
X-3016559Y29062971D01*
X-3115204Y29072463D01*
X-3244473Y29072171D01*
X-3284032Y29083691D01*
X-2564500Y29524694D01*
X-2564500Y29083444D01*
G37*
%TD.AperFunction*%
%TA.AperFunction,Conductor*%
G36*
X-1437870Y85800129D02*
G01*
X-1370852Y85780375D01*
X-1325152Y85727523D01*
X-1314000Y85676129D01*
X-1314000Y129000D01*
X-1333685Y61961D01*
X-1386489Y16206D01*
X-1438000Y5000D01*
X-18950601Y5000D01*
X-18950988Y5001D01*
X-24790387Y23212D01*
X-24857364Y43105D01*
X-24902954Y96052D01*
X-24914000Y147211D01*
X-24914000Y2362242D01*
X-11410500Y2362242D01*
X-11410500Y2132759D01*
X-11385554Y1943285D01*
X-11380548Y1905262D01*
X-11380547Y1905260D01*
X-11321158Y1683613D01*
X-11233350Y1471624D01*
X-11233343Y1471610D01*
X-11118608Y1272883D01*
X-10978919Y1090839D01*
X-10978911Y1090830D01*
X-10816670Y928589D01*
X-10816662Y928582D01*
X-10634618Y788893D01*
X-10634615Y788892D01*
X-10634612Y788889D01*
X-10435888Y674156D01*
X-10435883Y674154D01*
X-10435877Y674151D01*
X-10344520Y636310D01*
X-10223887Y586342D01*
X-10002238Y526952D01*
X-9774734Y497000D01*
X-9774727Y497000D01*
X-9545273Y497000D01*
X-9545266Y497000D01*
X-9317762Y526952D01*
X-9096113Y586342D01*
X-8884112Y674156D01*
X-8685388Y788889D01*
X-8503339Y928581D01*
X-8503335Y928586D01*
X-8503330Y928589D01*
X-8341089Y1090830D01*
X-8341086Y1090835D01*
X-8341081Y1090839D01*
X-8201389Y1272888D01*
X-8086656Y1471612D01*
X-7998842Y1683613D01*
X-7939452Y1905262D01*
X-7909500Y2132766D01*
X-7909500Y2362234D01*
X-7939452Y2589738D01*
X-7998842Y2811387D01*
X-8086656Y3023388D01*
X-8201389Y3222112D01*
X-8201392Y3222115D01*
X-8201393Y3222118D01*
X-8341082Y3404162D01*
X-8341089Y3404170D01*
X-8503330Y3566411D01*
X-8503339Y3566419D01*
X-8685383Y3706108D01*
X-8884110Y3820843D01*
X-8884124Y3820850D01*
X-9096113Y3908658D01*
X-9317762Y3968048D01*
X-9355785Y3973054D01*
X-9545259Y3998000D01*
X-9545266Y3998000D01*
X-9774734Y3998000D01*
X-9774742Y3998000D01*
X-9991285Y3969491D01*
X-10002238Y3968048D01*
X-10095924Y3942946D01*
X-10223888Y3908658D01*
X-10435877Y3820850D01*
X-10435891Y3820843D01*
X-10634618Y3706108D01*
X-10816662Y3566419D01*
X-10978919Y3404162D01*
X-11118608Y3222118D01*
X-11233343Y3023391D01*
X-11233350Y3023377D01*
X-11321158Y2811388D01*
X-11380547Y2589741D01*
X-11380549Y2589730D01*
X-11410500Y2362242D01*
X-24914000Y2362242D01*
X-24914000Y2692847D01*
X-22000864Y2692847D01*
X-16474854Y2692847D01*
X-16474854Y4506297D01*
X-22000864Y4506297D01*
X-22000864Y2692847D01*
X-24914000Y2692847D01*
X-24914000Y18966289D01*
X-11150500Y18966289D01*
X-11150500Y18723712D01*
X-11118839Y18483215D01*
X-11056053Y18248896D01*
X-10963227Y18024795D01*
X-10963224Y18024788D01*
X-10841936Y17814711D01*
X-10841934Y17814708D01*
X-10841933Y17814707D01*
X-10694267Y17622264D01*
X-10694261Y17622257D01*
X-10522744Y17450740D01*
X-10522738Y17450735D01*
X-10330289Y17303064D01*
X-10120212Y17181776D01*
X-9896100Y17088946D01*
X-9661789Y17026162D01*
X-9481414Y17002416D01*
X-9421289Y16994500D01*
X-9421288Y16994500D01*
X-9178711Y16994500D01*
X-9130612Y17000833D01*
X-8938211Y17026162D01*
X-8703900Y17088946D01*
X-8479788Y17181776D01*
X-8269711Y17303064D01*
X-8077262Y17450735D01*
X-7905735Y17622262D01*
X-7758064Y17814711D01*
X-7636776Y18024788D01*
X-7543946Y18248900D01*
X-7481162Y18483211D01*
X-7449500Y18723712D01*
X-7449500Y18966288D01*
X-7481162Y19206789D01*
X-7543946Y19441100D01*
X-7636776Y19665212D01*
X-7758064Y19875289D01*
X-7905735Y20067738D01*
X-7905740Y20067744D01*
X-8077257Y20239261D01*
X-8077264Y20239267D01*
X-8269707Y20386933D01*
X-8269708Y20386934D01*
X-8269711Y20386936D01*
X-8479788Y20508224D01*
X-8479795Y20508227D01*
X-8703896Y20601053D01*
X-8938215Y20663839D01*
X-9178711Y20695500D01*
X-9178712Y20695500D01*
X-9421288Y20695500D01*
X-9421289Y20695500D01*
X-9661786Y20663839D01*
X-9896105Y20601053D01*
X-10120206Y20508227D01*
X-10120215Y20508223D01*
X-10330294Y20386933D01*
X-10522737Y20239267D01*
X-10522744Y20239261D01*
X-10694261Y20067744D01*
X-10694267Y20067737D01*
X-10841933Y19875294D01*
X-10963223Y19665215D01*
X-10963227Y19665206D01*
X-11056053Y19441105D01*
X-11118839Y19206786D01*
X-11150500Y18966289D01*
X-24914000Y18966289D01*
X-24914000Y25415001D01*
X-23484513Y25415001D01*
X-23484512Y25415000D01*
X-22793012Y25415000D01*
X-22825925Y25357993D01*
X-22860000Y25230826D01*
X-22860000Y25099174D01*
X-22825925Y24972007D01*
X-22793012Y24915000D01*
X-23484512Y24915000D01*
X-23436938Y24747795D01*
X-23436933Y24747782D01*
X-23341939Y24557009D01*
X-23213500Y24386929D01*
X-23056000Y24243349D01*
X-23055998Y24243347D01*
X-22874799Y24131154D01*
X-22874793Y24131151D01*
X-22676059Y24054162D01*
X-22610000Y24041814D01*
X-22610000Y24731988D01*
X-22552993Y24699075D01*
X-22425826Y24665000D01*
X-22294174Y24665000D01*
X-22167007Y24699075D01*
X-22110000Y24731988D01*
X-22110000Y24041815D01*
X-22043942Y24054162D01*
X-21845208Y24131151D01*
X-21845202Y24131154D01*
X-21664003Y24243347D01*
X-21664001Y24243349D01*
X-21506501Y24386929D01*
X-21378062Y24557009D01*
X-21283068Y24747782D01*
X-21283063Y24747795D01*
X-21235488Y24915000D01*
X-21926988Y24915000D01*
X-21894075Y24972007D01*
X-21860000Y25099174D01*
X-21860000Y25230826D01*
X-21894075Y25357993D01*
X-21926988Y25415000D01*
X-21235488Y25415000D01*
X-21235488Y25415001D01*
X-20944513Y25415001D01*
X-20944512Y25415000D01*
X-20253012Y25415000D01*
X-20285925Y25357993D01*
X-20320000Y25230826D01*
X-20320000Y25099174D01*
X-20285925Y24972007D01*
X-20253012Y24915000D01*
X-20944512Y24915000D01*
X-20896938Y24747795D01*
X-20896933Y24747782D01*
X-20801939Y24557009D01*
X-20673500Y24386929D01*
X-20516000Y24243349D01*
X-20515998Y24243347D01*
X-20334799Y24131154D01*
X-20334793Y24131151D01*
X-20136059Y24054162D01*
X-20070000Y24041814D01*
X-20070000Y24731988D01*
X-20012993Y24699075D01*
X-19885826Y24665000D01*
X-19754174Y24665000D01*
X-19627007Y24699075D01*
X-19570000Y24731988D01*
X-19570000Y24041815D01*
X-19503942Y24054162D01*
X-19305208Y24131151D01*
X-19305202Y24131154D01*
X-19124003Y24243347D01*
X-19124001Y24243349D01*
X-18966501Y24386929D01*
X-18838062Y24557009D01*
X-18743068Y24747782D01*
X-18743063Y24747795D01*
X-18695488Y24915000D01*
X-19386988Y24915000D01*
X-19354075Y24972007D01*
X-19320000Y25099174D01*
X-19320000Y25230826D01*
X-19354075Y25357993D01*
X-19386988Y25415000D01*
X-18695488Y25415000D01*
X-18695488Y25415001D01*
X-18743063Y25582206D01*
X-18743068Y25582219D01*
X-18838062Y25772992D01*
X-18966501Y25943072D01*
X-19124001Y26086652D01*
X-19124003Y26086654D01*
X-19305202Y26198847D01*
X-19305211Y26198851D01*
X-19503937Y26275837D01*
X-19503942Y26275838D01*
X-19570000Y26288187D01*
X-19570000Y25598012D01*
X-19627007Y25630925D01*
X-19754174Y25665000D01*
X-19885826Y25665000D01*
X-20012993Y25630925D01*
X-20070000Y25598012D01*
X-20070000Y26288187D01*
X-20136059Y26275838D01*
X-20136064Y26275837D01*
X-20334790Y26198851D01*
X-20334799Y26198847D01*
X-20515998Y26086654D01*
X-20516000Y26086652D01*
X-20673500Y25943072D01*
X-20801939Y25772992D01*
X-20896933Y25582219D01*
X-20896938Y25582206D01*
X-20944513Y25415001D01*
X-21235488Y25415001D01*
X-21283063Y25582206D01*
X-21283068Y25582219D01*
X-21378062Y25772992D01*
X-21506501Y25943072D01*
X-21664001Y26086652D01*
X-21664003Y26086654D01*
X-21845202Y26198847D01*
X-21845211Y26198851D01*
X-22043937Y26275837D01*
X-22043942Y26275838D01*
X-22110000Y26288187D01*
X-22110000Y25598012D01*
X-22167007Y25630925D01*
X-22294174Y25665000D01*
X-22425826Y25665000D01*
X-22552993Y25630925D01*
X-22610000Y25598012D01*
X-22610000Y26288187D01*
X-22676059Y26275838D01*
X-22676064Y26275837D01*
X-22874790Y26198851D01*
X-22874799Y26198847D01*
X-23055998Y26086654D01*
X-23056000Y26086652D01*
X-23213500Y25943072D01*
X-23341939Y25772992D01*
X-23436933Y25582219D01*
X-23436938Y25582206D01*
X-23484513Y25415001D01*
X-24914000Y25415001D01*
X-24914000Y30245000D01*
X-23415583Y30245000D01*
X-23395301Y30039068D01*
X-23395300Y30039066D01*
X-23335232Y29841046D01*
X-23237685Y29658550D01*
X-23222597Y29640165D01*
X-23106411Y29498590D01*
X-23037831Y29442309D01*
X-22946450Y29367315D01*
X-22763954Y29269768D01*
X-22565934Y29209700D01*
X-22565935Y29209700D01*
X-22547598Y29207894D01*
X-22360000Y29189417D01*
X-22154066Y29209700D01*
X-21956046Y29269768D01*
X-21773550Y29367315D01*
X-21613590Y29498590D01*
X-21482315Y29658550D01*
X-21384768Y29841046D01*
X-21324700Y30039066D01*
X-21304417Y30245000D01*
X-20875583Y30245000D01*
X-20855301Y30039068D01*
X-20855300Y30039066D01*
X-20795232Y29841046D01*
X-20697685Y29658550D01*
X-20682597Y29640165D01*
X-20566411Y29498590D01*
X-20497831Y29442309D01*
X-20406450Y29367315D01*
X-20223954Y29269768D01*
X-20025934Y29209700D01*
X-20025935Y29209700D01*
X-20007598Y29207894D01*
X-19820000Y29189417D01*
X-19614066Y29209700D01*
X-19416046Y29269768D01*
X-19233550Y29367315D01*
X-19073590Y29498590D01*
X-18942315Y29658550D01*
X-18844768Y29841046D01*
X-18784700Y30039066D01*
X-18764417Y30245000D01*
X-18784700Y30450934D01*
X-18844768Y30648954D01*
X-18942315Y30831450D01*
X-19043709Y30955000D01*
X-19073590Y30991411D01*
X-19233548Y31122683D01*
X-19233547Y31122683D01*
X-19233550Y31122685D01*
X-19416046Y31220232D01*
X-19614066Y31280300D01*
X-19614068Y31280301D01*
X-19614066Y31280301D01*
X-19820000Y31300583D01*
X-20025933Y31280301D01*
X-20223957Y31220231D01*
X-20334102Y31161357D01*
X-20406450Y31122685D01*
X-20406452Y31122684D01*
X-20406453Y31122683D01*
X-20566411Y30991411D01*
X-20697683Y30831453D01*
X-20795231Y30648957D01*
X-20855301Y30450933D01*
X-20875583Y30245000D01*
X-21304417Y30245000D01*
X-21324700Y30450934D01*
X-21384768Y30648954D01*
X-21482315Y30831450D01*
X-21583709Y30955000D01*
X-21613590Y30991411D01*
X-21773548Y31122683D01*
X-21773547Y31122683D01*
X-21773550Y31122685D01*
X-21956046Y31220232D01*
X-22154066Y31280300D01*
X-22154068Y31280301D01*
X-22154066Y31280301D01*
X-22360000Y31300583D01*
X-22565933Y31280301D01*
X-22763957Y31220231D01*
X-22874102Y31161357D01*
X-22946450Y31122685D01*
X-22946452Y31122684D01*
X-22946453Y31122683D01*
X-23106411Y30991411D01*
X-23237683Y30831453D01*
X-23335231Y30648957D01*
X-23395301Y30450933D01*
X-23415583Y30245000D01*
X-24914000Y30245000D01*
X-24914000Y32785000D01*
X-23415583Y32785000D01*
X-23395301Y32579068D01*
X-23395300Y32579066D01*
X-23335232Y32381046D01*
X-23237685Y32198550D01*
X-23237683Y32198548D01*
X-23106411Y32038590D01*
X-23009791Y31959298D01*
X-22946450Y31907315D01*
X-22763954Y31809768D01*
X-22565934Y31749700D01*
X-22565935Y31749700D01*
X-22547471Y31747882D01*
X-22360000Y31729417D01*
X-22154066Y31749700D01*
X-21956046Y31809768D01*
X-21773550Y31907315D01*
X-21613590Y32038590D01*
X-21482315Y32198550D01*
X-21384768Y32381046D01*
X-21324700Y32579066D01*
X-21304417Y32785000D01*
X-21324700Y32990934D01*
X-21384768Y33188954D01*
X-21482315Y33371450D01*
X-21545180Y33448052D01*
X-21613590Y33531411D01*
X-21746163Y33640209D01*
X-21773550Y33662685D01*
X-21956046Y33760232D01*
X-22154066Y33820300D01*
X-22154068Y33820301D01*
X-22154066Y33820301D01*
X-22360000Y33840583D01*
X-22565933Y33820301D01*
X-22763957Y33760231D01*
X-22874102Y33701357D01*
X-22946450Y33662685D01*
X-22946452Y33662684D01*
X-22946453Y33662683D01*
X-23106411Y33531411D01*
X-23237683Y33371453D01*
X-23237685Y33371450D01*
X-23254112Y33340717D01*
X-23335231Y33188957D01*
X-23395301Y32990933D01*
X-23415583Y32785000D01*
X-24914000Y32785000D01*
X-24914000Y35575001D01*
X-23484513Y35575001D01*
X-23484512Y35575000D01*
X-22793012Y35575000D01*
X-22825925Y35517993D01*
X-22860000Y35390826D01*
X-22860000Y35259174D01*
X-22825925Y35132007D01*
X-22793012Y35075000D01*
X-23484512Y35075000D01*
X-23436938Y34907795D01*
X-23436933Y34907782D01*
X-23341939Y34717009D01*
X-23213500Y34546929D01*
X-23056000Y34403349D01*
X-23055998Y34403347D01*
X-22874799Y34291154D01*
X-22874793Y34291151D01*
X-22676059Y34214162D01*
X-22610000Y34201814D01*
X-22610000Y34891988D01*
X-22552993Y34859075D01*
X-22425826Y34825000D01*
X-22294174Y34825000D01*
X-22167007Y34859075D01*
X-22110000Y34891988D01*
X-22110000Y34201815D01*
X-22043942Y34214162D01*
X-21845208Y34291151D01*
X-21845202Y34291154D01*
X-21664003Y34403347D01*
X-21664001Y34403349D01*
X-21506501Y34546929D01*
X-21378062Y34717009D01*
X-21283068Y34907782D01*
X-21283063Y34907795D01*
X-21235488Y35075000D01*
X-21926988Y35075000D01*
X-21894075Y35132007D01*
X-21860000Y35259174D01*
X-21860000Y35390826D01*
X-21894075Y35517993D01*
X-21926988Y35575000D01*
X-21235488Y35575000D01*
X-21235488Y35575001D01*
X-21283063Y35742206D01*
X-21283068Y35742219D01*
X-21378062Y35932992D01*
X-21506501Y36103072D01*
X-21664001Y36246652D01*
X-21664003Y36246654D01*
X-21845202Y36358847D01*
X-21845211Y36358851D01*
X-22043937Y36435837D01*
X-22043942Y36435838D01*
X-22110000Y36448187D01*
X-22110000Y35758012D01*
X-22167007Y35790925D01*
X-22294174Y35825000D01*
X-22425826Y35825000D01*
X-22552993Y35790925D01*
X-22610000Y35758012D01*
X-22610000Y36448187D01*
X-22676059Y36435838D01*
X-22676064Y36435837D01*
X-22874790Y36358851D01*
X-22874799Y36358847D01*
X-23055998Y36246654D01*
X-23056000Y36246652D01*
X-23213500Y36103072D01*
X-23341939Y35932992D01*
X-23436933Y35742219D01*
X-23436938Y35742206D01*
X-23484513Y35575001D01*
X-24914000Y35575001D01*
X-24914000Y40405000D01*
X-23415583Y40405000D01*
X-23395301Y40199068D01*
X-23371224Y40119698D01*
X-23335232Y40001046D01*
X-23237685Y39818550D01*
X-23237683Y39818548D01*
X-23106411Y39658590D01*
X-23038757Y39603069D01*
X-22946450Y39527315D01*
X-22763954Y39429768D01*
X-22565934Y39369700D01*
X-22565935Y39369700D01*
X-22547471Y39367882D01*
X-22360000Y39349417D01*
X-22154066Y39369700D01*
X-21969164Y39425790D01*
X-21899301Y39426412D01*
X-21845491Y39394809D01*
X-21511819Y39061137D01*
X-21478334Y38999814D01*
X-21475500Y38973456D01*
X-21475500Y38760259D01*
X-21495185Y38693220D01*
X-21547989Y38647465D01*
X-21617147Y38637521D01*
X-21678164Y38664405D01*
X-21773548Y38742683D01*
X-21773547Y38742683D01*
X-21773550Y38742685D01*
X-21956046Y38840232D01*
X-22154066Y38900300D01*
X-22154068Y38900301D01*
X-22154066Y38900301D01*
X-22360000Y38920583D01*
X-22565933Y38900301D01*
X-22763957Y38840231D01*
X-22874102Y38781357D01*
X-22946450Y38742685D01*
X-22946452Y38742684D01*
X-22946453Y38742683D01*
X-23106411Y38611411D01*
X-23237683Y38451453D01*
X-23237685Y38451450D01*
X-23276357Y38379102D01*
X-23335231Y38268957D01*
X-23395301Y38070933D01*
X-23415583Y37865000D01*
X-23395301Y37659068D01*
X-23370969Y37578856D01*
X-23335232Y37461046D01*
X-23237685Y37278550D01*
X-23203031Y37236323D01*
X-23106411Y37118590D01*
X-23044333Y37067645D01*
X-22946450Y36987315D01*
X-22763954Y36889768D01*
X-22565934Y36829700D01*
X-22565935Y36829700D01*
X-22547471Y36827882D01*
X-22360000Y36809417D01*
X-22154066Y36829700D01*
X-21956046Y36889768D01*
X-21773550Y36987315D01*
X-21613590Y37118590D01*
X-21565465Y37177232D01*
X-21507719Y37216566D01*
X-21437875Y37218437D01*
X-21381930Y37186248D01*
X-20569293Y36373611D01*
X-20535808Y36312288D01*
X-20540792Y36242596D01*
X-20573435Y36194294D01*
X-20673499Y36103072D01*
X-20801939Y35932992D01*
X-20896933Y35742219D01*
X-20896938Y35742206D01*
X-20944513Y35575001D01*
X-20944512Y35575000D01*
X-20253012Y35575000D01*
X-20285925Y35517993D01*
X-20320000Y35390826D01*
X-20320000Y35259174D01*
X-20285925Y35132007D01*
X-20253012Y35075000D01*
X-20944512Y35075000D01*
X-20896938Y34907795D01*
X-20896933Y34907782D01*
X-20801939Y34717009D01*
X-20673500Y34546929D01*
X-20516000Y34403349D01*
X-20515998Y34403347D01*
X-20334799Y34291154D01*
X-20334793Y34291151D01*
X-20136059Y34214162D01*
X-20070000Y34201814D01*
X-20070000Y34891988D01*
X-20012993Y34859075D01*
X-19885826Y34825000D01*
X-19754174Y34825000D01*
X-19627007Y34859075D01*
X-19570000Y34891988D01*
X-19570000Y34201815D01*
X-19503942Y34214162D01*
X-19305208Y34291151D01*
X-19305202Y34291154D01*
X-19124003Y34403347D01*
X-19124001Y34403349D01*
X-18966501Y34546929D01*
X-18838062Y34717009D01*
X-18743068Y34907782D01*
X-18743063Y34907795D01*
X-18695488Y35075000D01*
X-19386988Y35075000D01*
X-19354075Y35132007D01*
X-19320000Y35259174D01*
X-19320000Y35390826D01*
X-19354075Y35517993D01*
X-19386988Y35575000D01*
X-18695488Y35575000D01*
X-18695488Y35575001D01*
X-18743063Y35742206D01*
X-18743068Y35742219D01*
X-18838062Y35932992D01*
X-18960730Y36095429D01*
X-18985422Y36160790D01*
X-18970857Y36229125D01*
X-18921660Y36278737D01*
X-18861776Y36294156D01*
X-16191096Y36294156D01*
X-16191094Y36294156D01*
X-16101950Y36318042D01*
X-16092697Y36323384D01*
X-16092693Y36323386D01*
X-16022033Y36364182D01*
X-16022034Y36364182D01*
X-16022026Y36364186D01*
X-13901210Y38485004D01*
X-13105565Y38485004D01*
X-13105565Y38484997D01*
X-13085370Y38305751D01*
X-13085369Y38305746D01*
X-13025789Y38135477D01*
X-12985233Y38070933D01*
X-12929816Y37982738D01*
X-12802262Y37855184D01*
X-12649522Y37759211D01*
X-12479255Y37699632D01*
X-12479250Y37699631D01*
X-12300004Y37679435D01*
X-12300000Y37679435D01*
X-12299996Y37679435D01*
X-12120751Y37699631D01*
X-12120748Y37699632D01*
X-12120745Y37699632D01*
X-11950478Y37759211D01*
X-11797738Y37855184D01*
X-11670184Y37982738D01*
X-11574211Y38135478D01*
X-11514632Y38305745D01*
X-11514407Y38307741D01*
X-11494435Y38484997D01*
X-11494435Y38485004D01*
X-11105565Y38485004D01*
X-11105565Y38484997D01*
X-11085370Y38305751D01*
X-11085369Y38305746D01*
X-11025789Y38135477D01*
X-10985233Y38070933D01*
X-10929816Y37982738D01*
X-10802262Y37855184D01*
X-10649522Y37759211D01*
X-10479255Y37699632D01*
X-10479250Y37699631D01*
X-10300004Y37679435D01*
X-10300000Y37679435D01*
X-10299996Y37679435D01*
X-10120751Y37699631D01*
X-10120748Y37699632D01*
X-10120745Y37699632D01*
X-9950478Y37759211D01*
X-9797738Y37855184D01*
X-9670184Y37982738D01*
X-9574211Y38135478D01*
X-9514632Y38305745D01*
X-9514407Y38307741D01*
X-9494435Y38484997D01*
X-9494435Y38485004D01*
X-9514631Y38664250D01*
X-9514632Y38664255D01*
X-9574212Y38834524D01*
X-9670185Y38987263D01*
X-9797738Y39114816D01*
X-9950477Y39210789D01*
X-10120746Y39270369D01*
X-10120751Y39270370D01*
X-10299996Y39290565D01*
X-10300004Y39290565D01*
X-10479250Y39270370D01*
X-10479255Y39270369D01*
X-10649524Y39210789D01*
X-10802263Y39114816D01*
X-10929816Y38987263D01*
X-11025789Y38834524D01*
X-11085369Y38664255D01*
X-11085370Y38664250D01*
X-11105565Y38485004D01*
X-11494435Y38485004D01*
X-11514631Y38664250D01*
X-11514632Y38664255D01*
X-11574212Y38834524D01*
X-11670185Y38987263D01*
X-11797738Y39114816D01*
X-11950477Y39210789D01*
X-12120746Y39270369D01*
X-12120751Y39270370D01*
X-12299996Y39290565D01*
X-12300004Y39290565D01*
X-12479250Y39270370D01*
X-12479255Y39270369D01*
X-12649524Y39210789D01*
X-12802263Y39114816D01*
X-12929816Y38987263D01*
X-13025789Y38834524D01*
X-13085369Y38664255D01*
X-13085370Y38664250D01*
X-13105565Y38485004D01*
X-13901210Y38485004D01*
X-12687932Y39698283D01*
X-12626611Y39731766D01*
X-12559301Y39727642D01*
X-12479255Y39699632D01*
X-12479251Y39699632D01*
X-12479247Y39699631D01*
X-12300004Y39679435D01*
X-12300000Y39679435D01*
X-12299996Y39679435D01*
X-12120751Y39699631D01*
X-12120748Y39699632D01*
X-12120745Y39699632D01*
X-11950478Y39759211D01*
X-11797738Y39855184D01*
X-11670184Y39982738D01*
X-11574211Y40135478D01*
X-11514632Y40305745D01*
X-11514631Y40305751D01*
X-11494435Y40484997D01*
X-11494435Y40485004D01*
X-11105565Y40485004D01*
X-11105565Y40484997D01*
X-11085370Y40305751D01*
X-11085369Y40305746D01*
X-11025789Y40135477D01*
X-10929816Y39982738D01*
X-10802262Y39855184D01*
X-10649522Y39759211D01*
X-10559300Y39727641D01*
X-10479255Y39699632D01*
X-10479250Y39699631D01*
X-10300004Y39679435D01*
X-10300000Y39679435D01*
X-10299996Y39679435D01*
X-10120751Y39699631D01*
X-10120748Y39699632D01*
X-10120745Y39699632D01*
X-9950478Y39759211D01*
X-9797738Y39855184D01*
X-9670184Y39982738D01*
X-9574211Y40135478D01*
X-9514632Y40305745D01*
X-9514631Y40305751D01*
X-9494435Y40484997D01*
X-9494435Y40485004D01*
X-9514631Y40664250D01*
X-9514632Y40664255D01*
X-9550013Y40765369D01*
X-9574211Y40834522D01*
X-9580594Y40844680D01*
X-9670185Y40987263D01*
X-9797738Y41114816D01*
X-9950477Y41210789D01*
X-10120746Y41270369D01*
X-10120751Y41270370D01*
X-10299996Y41290565D01*
X-10300004Y41290565D01*
X-10479250Y41270370D01*
X-10479255Y41270369D01*
X-10649524Y41210789D01*
X-10802263Y41114816D01*
X-10929816Y40987263D01*
X-11025789Y40834524D01*
X-11085369Y40664255D01*
X-11085370Y40664250D01*
X-11105565Y40485004D01*
X-11494435Y40485004D01*
X-11514631Y40664250D01*
X-11514632Y40664255D01*
X-11550013Y40765369D01*
X-11574211Y40834522D01*
X-11580594Y40844680D01*
X-11670185Y40987263D01*
X-11797738Y41114816D01*
X-11950477Y41210789D01*
X-12120746Y41270369D01*
X-12120751Y41270370D01*
X-12299996Y41290565D01*
X-12300004Y41290565D01*
X-12479250Y41270370D01*
X-12479255Y41270369D01*
X-12649524Y41210789D01*
X-12802263Y41114816D01*
X-12929816Y40987263D01*
X-13025789Y40834524D01*
X-13085369Y40664255D01*
X-13085370Y40664250D01*
X-13105565Y40485004D01*
X-13105565Y40484997D01*
X-13090684Y40352918D01*
X-13102739Y40284096D01*
X-13126223Y40251354D01*
X-16346101Y37031475D01*
X-16407424Y36997990D01*
X-16433782Y36995156D01*
X-18912714Y36995156D01*
X-18979753Y37014841D01*
X-19025508Y37067645D01*
X-19035452Y37136803D01*
X-19008567Y37197821D01*
X-18987257Y37223788D01*
X-18942315Y37278550D01*
X-18844768Y37461046D01*
X-18784700Y37659066D01*
X-18764417Y37865000D01*
X-18784700Y38070934D01*
X-18844768Y38268954D01*
X-18942315Y38451450D01*
X-18994298Y38514791D01*
X-19073590Y38611411D01*
X-19233548Y38742683D01*
X-19233547Y38742683D01*
X-19233550Y38742685D01*
X-19416046Y38840232D01*
X-19614066Y38900300D01*
X-19614068Y38900301D01*
X-19614066Y38900301D01*
X-19820000Y38920583D01*
X-20025933Y38900301D01*
X-20223957Y38840231D01*
X-20334102Y38781357D01*
X-20406450Y38742685D01*
X-20406452Y38742684D01*
X-20406453Y38742683D01*
X-20571120Y38607545D01*
X-20572778Y38609565D01*
X-20624142Y38581517D01*
X-20693834Y38586501D01*
X-20749767Y38628373D01*
X-20774184Y38693837D01*
X-20774500Y38702683D01*
X-20774500Y39216142D01*
X-20774500Y39216144D01*
X-20798386Y39305288D01*
X-20823864Y39349417D01*
X-20844530Y39385212D01*
X-21349809Y39890491D01*
X-21383294Y39951814D01*
X-21380790Y40014163D01*
X-21324700Y40199066D01*
X-21304417Y40405000D01*
X-20875583Y40405000D01*
X-20855301Y40199068D01*
X-20831224Y40119698D01*
X-20795232Y40001046D01*
X-20697685Y39818550D01*
X-20697683Y39818548D01*
X-20566411Y39658590D01*
X-20498757Y39603069D01*
X-20406450Y39527315D01*
X-20223954Y39429768D01*
X-20025934Y39369700D01*
X-20025935Y39369700D01*
X-20007471Y39367882D01*
X-19820000Y39349417D01*
X-19614066Y39369700D01*
X-19416046Y39429768D01*
X-19233550Y39527315D01*
X-19073590Y39658590D01*
X-18942315Y39818550D01*
X-18844768Y40001046D01*
X-18784700Y40199066D01*
X-18764417Y40405000D01*
X-18784700Y40610934D01*
X-18844768Y40808954D01*
X-18942315Y40991450D01*
X-19043558Y41114816D01*
X-19073590Y41151411D01*
X-19233548Y41282683D01*
X-19233547Y41282683D01*
X-19233550Y41282685D01*
X-19416046Y41380232D01*
X-19614066Y41440300D01*
X-19614068Y41440301D01*
X-19614066Y41440301D01*
X-19820000Y41460583D01*
X-20025933Y41440301D01*
X-20223957Y41380231D01*
X-20334102Y41321357D01*
X-20406450Y41282685D01*
X-20406452Y41282684D01*
X-20406453Y41282683D01*
X-20566411Y41151411D01*
X-20697683Y40991453D01*
X-20697685Y40991450D01*
X-20736357Y40919102D01*
X-20795231Y40808957D01*
X-20855301Y40610933D01*
X-20875583Y40405000D01*
X-21304417Y40405000D01*
X-21324700Y40610934D01*
X-21384768Y40808954D01*
X-21482315Y40991450D01*
X-21583558Y41114816D01*
X-21613590Y41151411D01*
X-21773548Y41282683D01*
X-21773547Y41282683D01*
X-21773550Y41282685D01*
X-21956046Y41380232D01*
X-22154066Y41440300D01*
X-22154068Y41440301D01*
X-22154066Y41440301D01*
X-22360000Y41460583D01*
X-22565933Y41440301D01*
X-22763957Y41380231D01*
X-22874102Y41321357D01*
X-22946450Y41282685D01*
X-22946452Y41282684D01*
X-22946453Y41282683D01*
X-23106411Y41151411D01*
X-23237683Y40991453D01*
X-23237685Y40991450D01*
X-23276357Y40919102D01*
X-23335231Y40808957D01*
X-23395301Y40610933D01*
X-23415583Y40405000D01*
X-24914000Y40405000D01*
X-24914000Y42945000D01*
X-23415583Y42945000D01*
X-23395301Y42739068D01*
X-23395300Y42739066D01*
X-23335232Y42541046D01*
X-23237685Y42358550D01*
X-23234383Y42354527D01*
X-23106411Y42198590D01*
X-23029506Y42135477D01*
X-22946450Y42067315D01*
X-22763954Y41969768D01*
X-22565934Y41909700D01*
X-22565935Y41909700D01*
X-22547471Y41907882D01*
X-22360000Y41889417D01*
X-22154066Y41909700D01*
X-21956046Y41969768D01*
X-21773550Y42067315D01*
X-21613590Y42198590D01*
X-21482315Y42358550D01*
X-21384768Y42541046D01*
X-21324700Y42739066D01*
X-21304417Y42945000D01*
X-20875583Y42945000D01*
X-20855301Y42739068D01*
X-20855300Y42739066D01*
X-20795232Y42541046D01*
X-20697685Y42358550D01*
X-20694383Y42354527D01*
X-20566411Y42198590D01*
X-20489506Y42135477D01*
X-20406450Y42067315D01*
X-20223954Y41969768D01*
X-20025934Y41909700D01*
X-20025935Y41909700D01*
X-20007471Y41907882D01*
X-19820000Y41889417D01*
X-19614066Y41909700D01*
X-19416046Y41969768D01*
X-19233550Y42067315D01*
X-19073590Y42198590D01*
X-18942315Y42358550D01*
X-18844768Y42541046D01*
X-18784700Y42739066D01*
X-18764417Y42945000D01*
X-18784700Y43150934D01*
X-18844768Y43348954D01*
X-18942315Y43531450D01*
X-19063762Y43679435D01*
X-19073590Y43691411D01*
X-19233548Y43822683D01*
X-19233547Y43822683D01*
X-19233550Y43822685D01*
X-19416046Y43920232D01*
X-19614066Y43980300D01*
X-19614068Y43980301D01*
X-19614066Y43980301D01*
X-19820000Y44000583D01*
X-20025933Y43980301D01*
X-20223957Y43920231D01*
X-20334102Y43861357D01*
X-20406450Y43822685D01*
X-20406452Y43822684D01*
X-20406453Y43822683D01*
X-20566411Y43691411D01*
X-20697683Y43531453D01*
X-20795231Y43348957D01*
X-20855301Y43150933D01*
X-20875583Y42945000D01*
X-21304417Y42945000D01*
X-21324700Y43150934D01*
X-21384768Y43348954D01*
X-21482315Y43531450D01*
X-21603762Y43679435D01*
X-21613590Y43691411D01*
X-21773548Y43822683D01*
X-21773547Y43822683D01*
X-21773550Y43822685D01*
X-21956046Y43920232D01*
X-22154066Y43980300D01*
X-22154068Y43980301D01*
X-22154066Y43980301D01*
X-22360000Y44000583D01*
X-22565933Y43980301D01*
X-22763957Y43920231D01*
X-22874102Y43861357D01*
X-22946450Y43822685D01*
X-22946452Y43822684D01*
X-22946453Y43822683D01*
X-23106411Y43691411D01*
X-23237683Y43531453D01*
X-23335231Y43348957D01*
X-23395301Y43150933D01*
X-23415583Y42945000D01*
X-24914000Y42945000D01*
X-24914000Y45485000D01*
X-23415583Y45485000D01*
X-23395301Y45279068D01*
X-23371252Y45199789D01*
X-23335232Y45081046D01*
X-23237685Y44898550D01*
X-23237683Y44898548D01*
X-23106411Y44738590D01*
X-23015832Y44664255D01*
X-22946450Y44607315D01*
X-22763954Y44509768D01*
X-22565934Y44449700D01*
X-22565935Y44449700D01*
X-22547471Y44447882D01*
X-22360000Y44429417D01*
X-22154066Y44449700D01*
X-21956046Y44509768D01*
X-21773550Y44607315D01*
X-21613590Y44738590D01*
X-21482315Y44898550D01*
X-21384768Y45081046D01*
X-21324700Y45279066D01*
X-21304417Y45485000D01*
X-20875583Y45485000D01*
X-20855301Y45279068D01*
X-20831252Y45199789D01*
X-20795232Y45081046D01*
X-20697685Y44898550D01*
X-20697683Y44898548D01*
X-20566411Y44738590D01*
X-20475832Y44664255D01*
X-20406450Y44607315D01*
X-20223954Y44509768D01*
X-20025934Y44449700D01*
X-20025935Y44449700D01*
X-20007471Y44447882D01*
X-19820000Y44429417D01*
X-19614066Y44449700D01*
X-19416046Y44509768D01*
X-19233550Y44607315D01*
X-19073590Y44738590D01*
X-18942315Y44898550D01*
X-18864594Y45043954D01*
X-18815631Y45093798D01*
X-18755236Y45109500D01*
X-16995544Y45109500D01*
X-16928505Y45089815D01*
X-16907863Y45073181D01*
X-15534313Y43699632D01*
X-14254469Y42419788D01*
X-14189212Y42354531D01*
X-14189209Y42354530D01*
X-14189206Y42354527D01*
X-14109294Y42308389D01*
X-14109293Y42308389D01*
X-14109288Y42308386D01*
X-14020144Y42284500D01*
X-13165917Y42284500D01*
X-13098878Y42264815D01*
X-13053123Y42212011D01*
X-13048875Y42201454D01*
X-13025790Y42135479D01*
X-12929816Y41982738D01*
X-12802262Y41855184D01*
X-12649522Y41759211D01*
X-12479255Y41699632D01*
X-12479250Y41699631D01*
X-12300004Y41679435D01*
X-12300000Y41679435D01*
X-12299996Y41679435D01*
X-12120751Y41699631D01*
X-12120748Y41699632D01*
X-12120745Y41699632D01*
X-11950478Y41759211D01*
X-11797738Y41855184D01*
X-11670184Y41982738D01*
X-11574211Y42135478D01*
X-11514632Y42305745D01*
X-11514334Y42308389D01*
X-11494435Y42484997D01*
X-11494435Y42485004D01*
X-11105565Y42485004D01*
X-11105565Y42484997D01*
X-11085370Y42305751D01*
X-11085369Y42305746D01*
X-11025789Y42135477D01*
X-10929816Y41982738D01*
X-10802262Y41855184D01*
X-10649522Y41759211D01*
X-10479255Y41699632D01*
X-10479250Y41699631D01*
X-10300004Y41679435D01*
X-10300000Y41679435D01*
X-10299996Y41679435D01*
X-10120751Y41699631D01*
X-10120748Y41699632D01*
X-10120745Y41699632D01*
X-9950478Y41759211D01*
X-9797738Y41855184D01*
X-9670184Y41982738D01*
X-9574211Y42135478D01*
X-9514632Y42305745D01*
X-9514334Y42308389D01*
X-9494435Y42484997D01*
X-9494435Y42485004D01*
X-9105565Y42485004D01*
X-9105565Y42484997D01*
X-9085370Y42305751D01*
X-9085369Y42305746D01*
X-9025789Y42135477D01*
X-8929816Y41982738D01*
X-8802262Y41855184D01*
X-8649522Y41759211D01*
X-8479255Y41699632D01*
X-8479250Y41699631D01*
X-8300004Y41679435D01*
X-8300000Y41679435D01*
X-8299996Y41679435D01*
X-8120751Y41699631D01*
X-8120748Y41699632D01*
X-8120745Y41699632D01*
X-7950478Y41759211D01*
X-7797738Y41855184D01*
X-7670184Y41982738D01*
X-7574211Y42135478D01*
X-7514632Y42305745D01*
X-7514334Y42308389D01*
X-7494435Y42484997D01*
X-7494435Y42485004D01*
X-7105565Y42485004D01*
X-7105565Y42484997D01*
X-7085370Y42305751D01*
X-7085369Y42305746D01*
X-7025789Y42135477D01*
X-6929816Y41982738D01*
X-6802262Y41855184D01*
X-6649522Y41759211D01*
X-6479255Y41699632D01*
X-6479250Y41699631D01*
X-6380128Y41688464D01*
X-6331328Y41682965D01*
X-6300493Y41670009D01*
X-6277895Y41681573D01*
X-6268682Y41682964D01*
X-6205260Y41690110D01*
X-6120750Y41699631D01*
X-6120747Y41699632D01*
X-6120745Y41699632D01*
X-5950478Y41759211D01*
X-5797738Y41855184D01*
X-5670184Y41982738D01*
X-5574211Y42135478D01*
X-5514632Y42305745D01*
X-5514334Y42308389D01*
X-5494435Y42484997D01*
X-5494435Y42485004D01*
X-5105565Y42485004D01*
X-5105565Y42484997D01*
X-5085370Y42305751D01*
X-5085369Y42305746D01*
X-5025789Y42135477D01*
X-4929816Y41982738D01*
X-4802262Y41855184D01*
X-4649522Y41759211D01*
X-4479255Y41699632D01*
X-4479250Y41699631D01*
X-4380128Y41688464D01*
X-4331328Y41682965D01*
X-4300493Y41670009D01*
X-4277895Y41681573D01*
X-4268682Y41682964D01*
X-4205260Y41690110D01*
X-4120750Y41699631D01*
X-4120747Y41699632D01*
X-4120745Y41699632D01*
X-3950478Y41759211D01*
X-3797738Y41855184D01*
X-3670184Y41982738D01*
X-3574211Y42135478D01*
X-3514632Y42305745D01*
X-3514334Y42308389D01*
X-3494435Y42484997D01*
X-3494435Y42485004D01*
X-3514631Y42664250D01*
X-3514632Y42664255D01*
X-3574212Y42834524D01*
X-3613418Y42896920D01*
X-3670184Y42987262D01*
X-3797738Y43114816D01*
X-3797740Y43114817D01*
X-3950477Y43210789D01*
X-4120746Y43270369D01*
X-4120751Y43270370D01*
X-4299996Y43290565D01*
X-4300004Y43290565D01*
X-4479250Y43270370D01*
X-4479255Y43270369D01*
X-4649524Y43210789D01*
X-4802263Y43114816D01*
X-4929816Y42987263D01*
X-5025789Y42834524D01*
X-5085369Y42664255D01*
X-5085370Y42664250D01*
X-5105565Y42485004D01*
X-5494435Y42485004D01*
X-5514631Y42664250D01*
X-5514632Y42664255D01*
X-5574212Y42834524D01*
X-5613418Y42896920D01*
X-5670184Y42987262D01*
X-5797738Y43114816D01*
X-5797740Y43114817D01*
X-5950477Y43210789D01*
X-6120746Y43270369D01*
X-6120751Y43270370D01*
X-6299996Y43290565D01*
X-6300004Y43290565D01*
X-6479250Y43270370D01*
X-6479255Y43270369D01*
X-6649524Y43210789D01*
X-6802263Y43114816D01*
X-6929816Y42987263D01*
X-7025789Y42834524D01*
X-7085369Y42664255D01*
X-7085370Y42664250D01*
X-7105565Y42485004D01*
X-7494435Y42485004D01*
X-7514631Y42664250D01*
X-7514632Y42664255D01*
X-7574212Y42834524D01*
X-7613418Y42896920D01*
X-7670184Y42987262D01*
X-7797738Y43114816D01*
X-7797740Y43114817D01*
X-7950477Y43210789D01*
X-8120746Y43270369D01*
X-8120751Y43270370D01*
X-8299996Y43290565D01*
X-8300004Y43290565D01*
X-8479250Y43270370D01*
X-8479255Y43270369D01*
X-8649524Y43210789D01*
X-8802263Y43114816D01*
X-8929816Y42987263D01*
X-9025789Y42834524D01*
X-9085369Y42664255D01*
X-9085370Y42664250D01*
X-9105565Y42485004D01*
X-9494435Y42485004D01*
X-9514631Y42664250D01*
X-9514632Y42664255D01*
X-9574212Y42834524D01*
X-9613418Y42896920D01*
X-9670184Y42987262D01*
X-9797738Y43114816D01*
X-9797740Y43114817D01*
X-9950477Y43210789D01*
X-10120746Y43270369D01*
X-10120751Y43270370D01*
X-10299996Y43290565D01*
X-10300004Y43290565D01*
X-10479250Y43270370D01*
X-10479255Y43270369D01*
X-10649524Y43210789D01*
X-10802263Y43114816D01*
X-10929816Y42987263D01*
X-11025789Y42834524D01*
X-11085369Y42664255D01*
X-11085370Y42664250D01*
X-11105565Y42485004D01*
X-11494435Y42485004D01*
X-11514631Y42664250D01*
X-11514632Y42664255D01*
X-11574212Y42834524D01*
X-11613418Y42896920D01*
X-11670184Y42987262D01*
X-11797738Y43114816D01*
X-11797740Y43114817D01*
X-11950477Y43210789D01*
X-12120746Y43270369D01*
X-12120751Y43270370D01*
X-12299996Y43290565D01*
X-12300004Y43290565D01*
X-12479250Y43270370D01*
X-12479255Y43270369D01*
X-12649524Y43210789D01*
X-12802261Y43114817D01*
X-12895260Y43021818D01*
X-12956584Y42988334D01*
X-12982941Y42985500D01*
X-13777457Y42985500D01*
X-13844496Y43005185D01*
X-13865138Y43021819D01*
X-16583787Y45740469D01*
X-16583792Y45740473D01*
X-16663710Y45786613D01*
X-16663711Y45786614D01*
X-16663712Y45786614D01*
X-16752856Y45810500D01*
X-16752857Y45810500D01*
X-18729417Y45810500D01*
X-18796456Y45830185D01*
X-18842211Y45882989D01*
X-18843979Y45887049D01*
X-18844767Y45888949D01*
X-18844768Y45888954D01*
X-18942315Y46071450D01*
X-19005015Y46147851D01*
X-19073590Y46231411D01*
X-19211279Y46344408D01*
X-19233550Y46362685D01*
X-19416046Y46460232D01*
X-19614066Y46520300D01*
X-19614068Y46520301D01*
X-19614066Y46520301D01*
X-19820000Y46540583D01*
X-20025933Y46520301D01*
X-20223957Y46460231D01*
X-20269981Y46435630D01*
X-20406450Y46362685D01*
X-20406452Y46362684D01*
X-20406453Y46362683D01*
X-20566411Y46231411D01*
X-20697683Y46071453D01*
X-20795231Y45888957D01*
X-20795232Y45888955D01*
X-20795232Y45888954D01*
X-20797041Y45882989D01*
X-20855301Y45690933D01*
X-20875583Y45485000D01*
X-21304417Y45485000D01*
X-21324700Y45690934D01*
X-21384768Y45888954D01*
X-21482315Y46071450D01*
X-21545015Y46147851D01*
X-21613590Y46231411D01*
X-21751279Y46344408D01*
X-21773550Y46362685D01*
X-21956046Y46460232D01*
X-22154066Y46520300D01*
X-22154068Y46520301D01*
X-22154066Y46520301D01*
X-22360000Y46540583D01*
X-22565933Y46520301D01*
X-22763957Y46460231D01*
X-22809981Y46435630D01*
X-22946450Y46362685D01*
X-22946452Y46362684D01*
X-22946453Y46362683D01*
X-23106411Y46231411D01*
X-23237683Y46071453D01*
X-23335231Y45888957D01*
X-23335232Y45888955D01*
X-23335232Y45888954D01*
X-23337041Y45882989D01*
X-23395301Y45690933D01*
X-23415583Y45485000D01*
X-24914000Y45485000D01*
X-24914000Y48025000D01*
X-23415583Y48025000D01*
X-23395301Y47819068D01*
X-23365266Y47720056D01*
X-23335232Y47621046D01*
X-23237685Y47438550D01*
X-23237683Y47438548D01*
X-23106411Y47278590D01*
X-23023794Y47210789D01*
X-22946450Y47147315D01*
X-22763954Y47049768D01*
X-22565934Y46989700D01*
X-22565935Y46989700D01*
X-22547471Y46987882D01*
X-22360000Y46969417D01*
X-22154066Y46989700D01*
X-21956046Y47049768D01*
X-21773550Y47147315D01*
X-21613590Y47278590D01*
X-21482315Y47438550D01*
X-21384768Y47621046D01*
X-21324700Y47819066D01*
X-21304417Y48025000D01*
X-21324700Y48230934D01*
X-21380790Y48415837D01*
X-21381412Y48485702D01*
X-21349811Y48539509D01*
X-21001137Y48888181D01*
X-20939814Y48921666D01*
X-20913456Y48924500D01*
X-20702948Y48924500D01*
X-20635909Y48904815D01*
X-20590154Y48852011D01*
X-20580210Y48782853D01*
X-20607095Y48721835D01*
X-20697683Y48611454D01*
X-20795231Y48428957D01*
X-20855301Y48230933D01*
X-20875583Y48025000D01*
X-20855301Y47819068D01*
X-20825266Y47720056D01*
X-20795232Y47621046D01*
X-20697685Y47438550D01*
X-20697683Y47438548D01*
X-20566411Y47278590D01*
X-20483794Y47210789D01*
X-20406450Y47147315D01*
X-20223954Y47049768D01*
X-20025934Y46989700D01*
X-20025935Y46989700D01*
X-20007471Y46987882D01*
X-19820000Y46969417D01*
X-19614066Y46989700D01*
X-19416046Y47049768D01*
X-19233550Y47147315D01*
X-19073590Y47278590D01*
X-18942315Y47438550D01*
X-18864594Y47583954D01*
X-18815631Y47633798D01*
X-18755236Y47649500D01*
X-17635544Y47649500D01*
X-17568505Y47629815D01*
X-17547863Y47613181D01*
X-14129212Y44194530D01*
X-14129210Y44194529D01*
X-14129206Y44194526D01*
X-14063840Y44156787D01*
X-14063839Y44156787D01*
X-14049288Y44148386D01*
X-13960144Y44124500D01*
X-13087423Y44124500D01*
X-13020384Y44104815D01*
X-12982431Y44066474D01*
X-12929816Y43982738D01*
X-12802262Y43855184D01*
X-12649522Y43759211D01*
X-12479255Y43699632D01*
X-12479250Y43699631D01*
X-12300004Y43679435D01*
X-12300000Y43679435D01*
X-12299996Y43679435D01*
X-12120751Y43699631D01*
X-12120748Y43699632D01*
X-12120745Y43699632D01*
X-11950478Y43759211D01*
X-11797738Y43855184D01*
X-11670184Y43982738D01*
X-11574211Y44135478D01*
X-11514632Y44305745D01*
X-11505069Y44390620D01*
X-11494435Y44484997D01*
X-11494435Y44485004D01*
X-11105565Y44485004D01*
X-11105565Y44484997D01*
X-11085370Y44305751D01*
X-11085369Y44305746D01*
X-11025789Y44135477D01*
X-10982430Y44066472D01*
X-10929816Y43982738D01*
X-10802262Y43855184D01*
X-10649522Y43759211D01*
X-10479255Y43699632D01*
X-10479250Y43699631D01*
X-10300004Y43679435D01*
X-10300000Y43679435D01*
X-10299996Y43679435D01*
X-10120751Y43699631D01*
X-10120748Y43699632D01*
X-10120745Y43699632D01*
X-9950478Y43759211D01*
X-9797738Y43855184D01*
X-9670184Y43982738D01*
X-9574211Y44135478D01*
X-9514632Y44305745D01*
X-9505069Y44390620D01*
X-9494435Y44484997D01*
X-9494435Y44485004D01*
X-9105565Y44485004D01*
X-9105565Y44484997D01*
X-9085370Y44305751D01*
X-9085369Y44305746D01*
X-9025789Y44135477D01*
X-8982430Y44066472D01*
X-8929816Y43982738D01*
X-8802262Y43855184D01*
X-8649522Y43759211D01*
X-8479255Y43699632D01*
X-8479250Y43699631D01*
X-8300004Y43679435D01*
X-8300000Y43679435D01*
X-8299996Y43679435D01*
X-8120751Y43699631D01*
X-8120748Y43699632D01*
X-8120745Y43699632D01*
X-7950478Y43759211D01*
X-7797738Y43855184D01*
X-7670184Y43982738D01*
X-7574211Y44135478D01*
X-7514632Y44305745D01*
X-7505069Y44390620D01*
X-7494435Y44484997D01*
X-7494435Y44485004D01*
X-7514631Y44664250D01*
X-7514632Y44664255D01*
X-7540643Y44738590D01*
X-7574211Y44834522D01*
X-7670184Y44987262D01*
X-7797738Y45114816D01*
X-7859537Y45153647D01*
X-7950477Y45210789D01*
X-8120746Y45270369D01*
X-8120751Y45270370D01*
X-8299996Y45290565D01*
X-8300004Y45290565D01*
X-8479250Y45270370D01*
X-8479255Y45270369D01*
X-8649524Y45210789D01*
X-8802263Y45114816D01*
X-8929816Y44987263D01*
X-9025789Y44834524D01*
X-9085369Y44664255D01*
X-9085370Y44664250D01*
X-9105565Y44485004D01*
X-9494435Y44485004D01*
X-9514631Y44664250D01*
X-9514632Y44664255D01*
X-9540643Y44738590D01*
X-9574211Y44834522D01*
X-9670184Y44987262D01*
X-9797738Y45114816D01*
X-9859537Y45153647D01*
X-9950477Y45210789D01*
X-10120746Y45270369D01*
X-10120751Y45270370D01*
X-10299996Y45290565D01*
X-10300004Y45290565D01*
X-10479250Y45270370D01*
X-10479255Y45270369D01*
X-10649524Y45210789D01*
X-10802263Y45114816D01*
X-10929816Y44987263D01*
X-11025789Y44834524D01*
X-11085369Y44664255D01*
X-11085370Y44664250D01*
X-11105565Y44485004D01*
X-11494435Y44485004D01*
X-11514631Y44664250D01*
X-11514632Y44664255D01*
X-11540643Y44738590D01*
X-11574211Y44834522D01*
X-11640356Y44939790D01*
X-11659355Y45007025D01*
X-11638988Y45073861D01*
X-11585720Y45119075D01*
X-11535361Y45129761D01*
X-11422597Y45129761D01*
X-11422595Y45129761D01*
X-11333451Y45153647D01*
X-11253527Y45199791D01*
X-10737643Y45715677D01*
X-10676322Y45749160D01*
X-10609009Y45745035D01*
X-10479263Y45699634D01*
X-10479257Y45699633D01*
X-10479255Y45699632D01*
X-10479254Y45699632D01*
X-10479250Y45699631D01*
X-10300004Y45679435D01*
X-10300000Y45679435D01*
X-10299996Y45679435D01*
X-10120751Y45699631D01*
X-10120748Y45699632D01*
X-10120745Y45699632D01*
X-9950478Y45759211D01*
X-9797738Y45855184D01*
X-9670184Y45982738D01*
X-9574211Y46135478D01*
X-9514632Y46305745D01*
X-9513965Y46311666D01*
X-9494435Y46484997D01*
X-9494435Y46485004D01*
X-9105565Y46485004D01*
X-9105565Y46484997D01*
X-9085370Y46305751D01*
X-9085369Y46305746D01*
X-9025789Y46135477D01*
X-8985558Y46071450D01*
X-8929816Y45982738D01*
X-8802262Y45855184D01*
X-8649522Y45759211D01*
X-8479261Y45699634D01*
X-8479255Y45699632D01*
X-8479250Y45699631D01*
X-8300004Y45679435D01*
X-8300000Y45679435D01*
X-8299996Y45679435D01*
X-8120751Y45699631D01*
X-8120748Y45699632D01*
X-8120745Y45699632D01*
X-7950478Y45759211D01*
X-7797738Y45855184D01*
X-7670184Y45982738D01*
X-7574211Y46135478D01*
X-7514632Y46305745D01*
X-7513964Y46311666D01*
X-7505110Y46390260D01*
X-7497965Y46453675D01*
X-7485009Y46484510D01*
X-7485440Y46485352D01*
X-7264549Y46485352D01*
X-7252605Y46461185D01*
X-7251342Y46451944D01*
X-7236256Y46298770D01*
X-7181931Y46119687D01*
X-7125132Y46013423D01*
X-7125131Y46013423D01*
X-6675000Y46463554D01*
X-6675000Y46435630D01*
X-6649444Y46340255D01*
X-6600075Y46254745D01*
X-6530255Y46184925D01*
X-6444745Y46135556D01*
X-6349370Y46110000D01*
X-6321447Y46110000D01*
X-6771578Y45659870D01*
X-6665312Y45603069D01*
X-6486231Y45548745D01*
X-6333057Y45533659D01*
X-6300352Y45520453D01*
X-6276184Y45532396D01*
X-6266944Y45533659D01*
X-6113770Y45548745D01*
X-5934689Y45603069D01*
X-5828423Y45659870D01*
X-5828423Y45659871D01*
X-6278552Y46110000D01*
X-6250630Y46110000D01*
X-6155255Y46135556D01*
X-6069745Y46184925D01*
X-5999925Y46254745D01*
X-5950556Y46340255D01*
X-5925000Y46435630D01*
X-5925000Y46463553D01*
X-5474871Y46013423D01*
X-5474870Y46013423D01*
X-5418065Y46119698D01*
X-5415737Y46125316D01*
X-5414129Y46124650D01*
X-5380367Y46176172D01*
X-5316556Y46204631D01*
X-5247488Y46194073D01*
X-5195093Y46147851D01*
X-5184716Y46125129D01*
X-5184263Y46125316D01*
X-5181934Y46119693D01*
X-5125132Y46013423D01*
X-5125131Y46013423D01*
X-4675000Y46463554D01*
X-4675000Y46435630D01*
X-4649444Y46340255D01*
X-4600075Y46254745D01*
X-4530255Y46184925D01*
X-4444745Y46135556D01*
X-4349370Y46110000D01*
X-4321447Y46110000D01*
X-4771578Y45659870D01*
X-4665312Y45603069D01*
X-4486231Y45548745D01*
X-4333057Y45533659D01*
X-4300352Y45520453D01*
X-4276184Y45532396D01*
X-4266944Y45533659D01*
X-4113770Y45548745D01*
X-3934689Y45603069D01*
X-3828423Y45659870D01*
X-3828423Y45659871D01*
X-4278552Y46110000D01*
X-4250630Y46110000D01*
X-4155255Y46135556D01*
X-4069745Y46184925D01*
X-3999925Y46254745D01*
X-3950556Y46340255D01*
X-3925000Y46435630D01*
X-3925000Y46463553D01*
X-3474871Y46013423D01*
X-3474870Y46013423D01*
X-3418069Y46119689D01*
X-3363745Y46298770D01*
X-3345404Y46485000D01*
X-3363745Y46671231D01*
X-3418069Y46850312D01*
X-3474870Y46956578D01*
X-3925000Y46506448D01*
X-3925000Y46534370D01*
X-3950556Y46629745D01*
X-3999925Y46715255D01*
X-4069745Y46785075D01*
X-4155255Y46834444D01*
X-4250630Y46860000D01*
X-4278553Y46860000D01*
X-3828423Y47310131D01*
X-3828423Y47310132D01*
X-3934687Y47366931D01*
X-4113770Y47421256D01*
X-4266944Y47436342D01*
X-4299650Y47449549D01*
X-4323816Y47437605D01*
X-4333057Y47436342D01*
X-4486231Y47421256D01*
X-4665308Y47366933D01*
X-4771578Y47310131D01*
X-4321446Y46860000D01*
X-4349370Y46860000D01*
X-4444745Y46834444D01*
X-4530255Y46785075D01*
X-4600075Y46715255D01*
X-4649444Y46629745D01*
X-4675000Y46534370D01*
X-4675000Y46506447D01*
X-5125131Y46956578D01*
X-5181936Y46850303D01*
X-5184264Y46844680D01*
X-5185873Y46845347D01*
X-5219640Y46793823D01*
X-5283453Y46765369D01*
X-5352520Y46775932D01*
X-5404912Y46822158D01*
X-5415285Y46844872D01*
X-5415737Y46844684D01*
X-5418065Y46850303D01*
X-5474870Y46956578D01*
X-5925000Y46506448D01*
X-5925000Y46534370D01*
X-5950556Y46629745D01*
X-5999925Y46715255D01*
X-6069745Y46785075D01*
X-6155255Y46834444D01*
X-6250630Y46860000D01*
X-6278553Y46860000D01*
X-5828423Y47310131D01*
X-5828423Y47310132D01*
X-5934687Y47366931D01*
X-6113770Y47421256D01*
X-6266944Y47436342D01*
X-6299650Y47449549D01*
X-6323816Y47437605D01*
X-6333057Y47436342D01*
X-6486231Y47421256D01*
X-6665308Y47366933D01*
X-6771578Y47310131D01*
X-6321446Y46860000D01*
X-6349370Y46860000D01*
X-6444745Y46834444D01*
X-6530255Y46785075D01*
X-6600075Y46715255D01*
X-6649444Y46629745D01*
X-6675000Y46534370D01*
X-6675000Y46506447D01*
X-7125131Y46956578D01*
X-7181933Y46850308D01*
X-7236256Y46671231D01*
X-7251342Y46518057D01*
X-7264549Y46485352D01*
X-7485440Y46485352D01*
X-7496573Y46507107D01*
X-7497965Y46516328D01*
X-7498413Y46520300D01*
X-7503464Y46565128D01*
X-7514631Y46664250D01*
X-7514632Y46664255D01*
X-7550013Y46765369D01*
X-7574211Y46834522D01*
X-7580594Y46844680D01*
X-7650904Y46956578D01*
X-7670184Y46987262D01*
X-7797738Y47114816D01*
X-7950477Y47210789D01*
X-8120746Y47270369D01*
X-8120751Y47270370D01*
X-8299996Y47290565D01*
X-8300004Y47290565D01*
X-8479250Y47270370D01*
X-8479255Y47270369D01*
X-8649524Y47210789D01*
X-8802263Y47114816D01*
X-8929816Y46987263D01*
X-9025789Y46834524D01*
X-9085369Y46664255D01*
X-9085370Y46664250D01*
X-9105565Y46485004D01*
X-9494435Y46485004D01*
X-9514631Y46664250D01*
X-9514632Y46664255D01*
X-9550013Y46765369D01*
X-9574211Y46834522D01*
X-9580594Y46844680D01*
X-9650904Y46956578D01*
X-9670184Y46987262D01*
X-9797738Y47114816D01*
X-9950477Y47210789D01*
X-10120746Y47270369D01*
X-10120751Y47270370D01*
X-10299996Y47290565D01*
X-10300004Y47290565D01*
X-10479250Y47270370D01*
X-10479255Y47270369D01*
X-10649524Y47210789D01*
X-10802263Y47114816D01*
X-10929816Y46987263D01*
X-11025789Y46834524D01*
X-11085369Y46664255D01*
X-11085370Y46664250D01*
X-11105565Y46485004D01*
X-11105565Y46484998D01*
X-11097479Y46413230D01*
X-11109534Y46344408D01*
X-11133018Y46311666D01*
X-11332697Y46111987D01*
X-11394020Y46078502D01*
X-11463712Y46083486D01*
X-11519645Y46125358D01*
X-11544062Y46190822D01*
X-11537419Y46240624D01*
X-11514633Y46305741D01*
X-11514631Y46305751D01*
X-11494435Y46484997D01*
X-11494435Y46485004D01*
X-11514631Y46664250D01*
X-11514632Y46664255D01*
X-11550013Y46765369D01*
X-11574211Y46834522D01*
X-11580594Y46844680D01*
X-11650904Y46956578D01*
X-11670184Y46987262D01*
X-11797738Y47114816D01*
X-11950477Y47210789D01*
X-12120746Y47270369D01*
X-12120751Y47270370D01*
X-12299996Y47290565D01*
X-12300004Y47290565D01*
X-12479250Y47270370D01*
X-12479255Y47270369D01*
X-12649524Y47210789D01*
X-12802263Y47114816D01*
X-12929816Y46987263D01*
X-13025789Y46834524D01*
X-13085369Y46664255D01*
X-13085370Y46664250D01*
X-13105565Y46485004D01*
X-13105565Y46484997D01*
X-13085370Y46305751D01*
X-13085369Y46305746D01*
X-13025789Y46135477D01*
X-12953690Y46020733D01*
X-12934690Y45953496D01*
X-12955058Y45886661D01*
X-13008326Y45841447D01*
X-13058684Y45830761D01*
X-14015611Y45830761D01*
X-14082650Y45850446D01*
X-14103292Y45867080D01*
X-15935843Y47699631D01*
X-17791681Y49555470D01*
X-17791682Y49555471D01*
X-17791685Y49555473D01*
X-17871603Y49601613D01*
X-17871604Y49601614D01*
X-17871605Y49601614D01*
X-17960749Y49625500D01*
X-17960750Y49625500D01*
X-18969879Y49625500D01*
X-19036918Y49645185D01*
X-19082673Y49697989D01*
X-19092617Y49767147D01*
X-19065732Y49828165D01*
X-19002265Y49905500D01*
X-18942315Y49978550D01*
X-18844768Y50161046D01*
X-18784700Y50359066D01*
X-18764417Y50565000D01*
X-18784700Y50770934D01*
X-18844768Y50968954D01*
X-18942315Y51151450D01*
X-18994298Y51214791D01*
X-19073590Y51311411D01*
X-19233548Y51442683D01*
X-19233547Y51442683D01*
X-19233550Y51442685D01*
X-19416046Y51540232D01*
X-19614066Y51600300D01*
X-19614068Y51600301D01*
X-19614066Y51600301D01*
X-19820000Y51620583D01*
X-20025933Y51600301D01*
X-20223957Y51540231D01*
X-20334102Y51481357D01*
X-20406450Y51442685D01*
X-20406452Y51442684D01*
X-20406453Y51442683D01*
X-20566411Y51311411D01*
X-20697683Y51151453D01*
X-20697685Y51151450D01*
X-20736357Y51079102D01*
X-20795231Y50968957D01*
X-20855301Y50770933D01*
X-20875583Y50565000D01*
X-20855301Y50359068D01*
X-20855300Y50359066D01*
X-20795232Y50161046D01*
X-20697686Y49978551D01*
X-20697683Y49978547D01*
X-20574268Y49828165D01*
X-20546955Y49763855D01*
X-20558746Y49694987D01*
X-20605898Y49643427D01*
X-20670121Y49625500D01*
X-21156144Y49625500D01*
X-21245288Y49601614D01*
X-21245291Y49601613D01*
X-21325209Y49555473D01*
X-21325214Y49555469D01*
X-21845492Y49035192D01*
X-21906815Y49001707D01*
X-21969167Y49004212D01*
X-22154066Y49060300D01*
X-22154068Y49060301D01*
X-22154066Y49060301D01*
X-22360000Y49080583D01*
X-22565933Y49060301D01*
X-22741308Y49007102D01*
X-22759091Y49001707D01*
X-22763957Y49000231D01*
X-22874102Y48941357D01*
X-22946450Y48902685D01*
X-22946452Y48902684D01*
X-22946453Y48902683D01*
X-23106411Y48771411D01*
X-23237683Y48611453D01*
X-23335231Y48428957D01*
X-23395301Y48230933D01*
X-23415583Y48025000D01*
X-24914000Y48025000D01*
X-24914000Y50565000D01*
X-23415583Y50565000D01*
X-23395301Y50359068D01*
X-23395300Y50359066D01*
X-23335232Y50161046D01*
X-23237685Y49978550D01*
X-23207541Y49941819D01*
X-23106411Y49818590D01*
X-23039715Y49763855D01*
X-22946450Y49687315D01*
X-22763954Y49589768D01*
X-22565934Y49529700D01*
X-22565935Y49529700D01*
X-22547471Y49527882D01*
X-22360000Y49509417D01*
X-22154066Y49529700D01*
X-21956046Y49589768D01*
X-21773550Y49687315D01*
X-21613590Y49818590D01*
X-21482315Y49978550D01*
X-21384768Y50161046D01*
X-21324700Y50359066D01*
X-21304417Y50565000D01*
X-21324700Y50770934D01*
X-21384768Y50968954D01*
X-21482315Y51151450D01*
X-21534298Y51214791D01*
X-21613590Y51311411D01*
X-21773548Y51442683D01*
X-21773547Y51442683D01*
X-21773550Y51442685D01*
X-21956046Y51540232D01*
X-22154066Y51600300D01*
X-22154068Y51600301D01*
X-22154066Y51600301D01*
X-22360000Y51620583D01*
X-22565933Y51600301D01*
X-22763957Y51540231D01*
X-22874102Y51481357D01*
X-22946450Y51442685D01*
X-22946452Y51442684D01*
X-22946453Y51442683D01*
X-23106411Y51311411D01*
X-23237683Y51151453D01*
X-23237685Y51151450D01*
X-23276357Y51079102D01*
X-23335231Y50968957D01*
X-23395301Y50770933D01*
X-23415583Y50565000D01*
X-24914000Y50565000D01*
X-24914000Y67001144D01*
X-24164500Y67001144D01*
X-24164500Y54808855D01*
X-24153370Y54767315D01*
X-24153369Y54767315D01*
X-24140614Y54719711D01*
X-24140613Y54719710D01*
X-24094473Y54639792D01*
X-24094471Y54639789D01*
X-24094470Y54639788D01*
X-23529212Y54074530D01*
X-23477716Y54044799D01*
X-23477714Y54044798D01*
X-23449291Y54028387D01*
X-23449289Y54028387D01*
X-23449288Y54028386D01*
X-23360144Y54004500D01*
X-23360133Y54004500D01*
X-23354416Y54003747D01*
X-23290518Y53975483D01*
X-23252045Y53917160D01*
X-23251210Y53847296D01*
X-23271642Y53806081D01*
X-23341938Y53712995D01*
X-23436933Y53522219D01*
X-23436938Y53522206D01*
X-23484513Y53355001D01*
X-23484512Y53355000D01*
X-22793012Y53355000D01*
X-22825925Y53297993D01*
X-22860000Y53170826D01*
X-22860000Y53039174D01*
X-22825925Y52912007D01*
X-22793012Y52855000D01*
X-23484512Y52855000D01*
X-23436938Y52687795D01*
X-23436933Y52687782D01*
X-23341939Y52497009D01*
X-23213500Y52326929D01*
X-23056000Y52183349D01*
X-23055998Y52183347D01*
X-22874799Y52071154D01*
X-22874793Y52071151D01*
X-22676059Y51994162D01*
X-22610000Y51981814D01*
X-22610000Y52671988D01*
X-22552993Y52639075D01*
X-22425826Y52605000D01*
X-22294174Y52605000D01*
X-22167007Y52639075D01*
X-22110000Y52671988D01*
X-22110000Y51981815D01*
X-22043942Y51994162D01*
X-21845208Y52071151D01*
X-21845202Y52071154D01*
X-21664003Y52183347D01*
X-21664001Y52183349D01*
X-21506501Y52326929D01*
X-21378062Y52497009D01*
X-21283068Y52687782D01*
X-21283063Y52687795D01*
X-21235488Y52855000D01*
X-21926988Y52855000D01*
X-21894075Y52912007D01*
X-21860000Y53039174D01*
X-21860000Y53170826D01*
X-21894075Y53297993D01*
X-21926988Y53355000D01*
X-21235488Y53355000D01*
X-21235488Y53355001D01*
X-21283063Y53522206D01*
X-21283068Y53522219D01*
X-21378062Y53712992D01*
X-21448127Y53805773D01*
X-21472819Y53871134D01*
X-21458254Y53939469D01*
X-21409057Y53989081D01*
X-21349173Y54004500D01*
X-21266544Y54004500D01*
X-21199505Y53984815D01*
X-21178863Y53968181D01*
X-20830192Y53619510D01*
X-20796707Y53558187D01*
X-20799212Y53495834D01*
X-20855301Y53310933D01*
X-20875583Y53105000D01*
X-20855301Y52899068D01*
X-20825266Y52800056D01*
X-20795232Y52701046D01*
X-20697685Y52518550D01*
X-20697683Y52518548D01*
X-20566411Y52358590D01*
X-20527831Y52326929D01*
X-20406450Y52227315D01*
X-20223954Y52129768D01*
X-20025934Y52069700D01*
X-20025935Y52069700D01*
X-20007471Y52067882D01*
X-19820000Y52049417D01*
X-19614066Y52069700D01*
X-19416046Y52129768D01*
X-19408141Y52133994D01*
X-19339742Y52148240D01*
X-19274496Y52123244D01*
X-19262002Y52112320D01*
X-16424212Y49274530D01*
X-16345105Y49228858D01*
X-16345102Y49228855D01*
X-16345101Y49228855D01*
X-16344290Y49228387D01*
X-16344288Y49228386D01*
X-16255144Y49204500D01*
X-13011940Y49204500D01*
X-12944901Y49184815D01*
X-12899146Y49132011D01*
X-12889202Y49062853D01*
X-12918227Y48999297D01*
X-12924259Y48992819D01*
X-12929816Y48987263D01*
X-13025789Y48834524D01*
X-13085369Y48664255D01*
X-13085370Y48664250D01*
X-13105565Y48485004D01*
X-13105565Y48484997D01*
X-13085370Y48305751D01*
X-13085369Y48305746D01*
X-13025789Y48135477D01*
X-12956371Y48025000D01*
X-12929816Y47982738D01*
X-12802262Y47855184D01*
X-12649522Y47759211D01*
X-12479255Y47699632D01*
X-12479250Y47699631D01*
X-12300004Y47679435D01*
X-12300000Y47679435D01*
X-12299996Y47679435D01*
X-12120751Y47699631D01*
X-12120748Y47699632D01*
X-12120745Y47699632D01*
X-11950478Y47759211D01*
X-11797738Y47855184D01*
X-11670184Y47982738D01*
X-11574211Y48135478D01*
X-11514632Y48305745D01*
X-11509589Y48350500D01*
X-11494435Y48484997D01*
X-11494435Y48485004D01*
X-11514631Y48664250D01*
X-11514632Y48664255D01*
X-11574212Y48834524D01*
X-11670185Y48987263D01*
X-11675741Y48992819D01*
X-11709226Y49054142D01*
X-11704242Y49123834D01*
X-11662370Y49179767D01*
X-11596906Y49204184D01*
X-11588060Y49204500D01*
X-11566544Y49204500D01*
X-11499505Y49184815D01*
X-11478863Y49168181D01*
X-11111838Y48801156D01*
X-11078353Y48739833D01*
X-11082475Y48672528D01*
X-11085366Y48664265D01*
X-11085370Y48664250D01*
X-11105565Y48485004D01*
X-11105565Y48484997D01*
X-11085370Y48305751D01*
X-11085369Y48305746D01*
X-11025789Y48135477D01*
X-10956371Y48025000D01*
X-10929816Y47982738D01*
X-10802262Y47855184D01*
X-10649522Y47759211D01*
X-10479255Y47699632D01*
X-10479250Y47699631D01*
X-10300004Y47679435D01*
X-10300000Y47679435D01*
X-10299996Y47679435D01*
X-10120751Y47699631D01*
X-10120748Y47699632D01*
X-10120745Y47699632D01*
X-9950478Y47759211D01*
X-9797738Y47855184D01*
X-9670184Y47982738D01*
X-9574211Y48135478D01*
X-9514632Y48305745D01*
X-9509589Y48350500D01*
X-9494435Y48484997D01*
X-9494435Y48485004D01*
X-9105565Y48485004D01*
X-9105565Y48484997D01*
X-9085370Y48305751D01*
X-9085369Y48305746D01*
X-9025789Y48135477D01*
X-8956371Y48025000D01*
X-8929816Y47982738D01*
X-8802262Y47855184D01*
X-8649522Y47759211D01*
X-8479255Y47699632D01*
X-8479250Y47699631D01*
X-8300004Y47679435D01*
X-8300000Y47679435D01*
X-8299996Y47679435D01*
X-8120751Y47699631D01*
X-8120748Y47699632D01*
X-8120745Y47699632D01*
X-7950478Y47759211D01*
X-7797738Y47855184D01*
X-7670184Y47982738D01*
X-7574211Y48135478D01*
X-7514632Y48305745D01*
X-7509589Y48350500D01*
X-7494435Y48484997D01*
X-7494435Y48485004D01*
X-7105565Y48485004D01*
X-7105565Y48484997D01*
X-7085370Y48305751D01*
X-7085369Y48305746D01*
X-7025789Y48135477D01*
X-6956371Y48025000D01*
X-6929816Y47982738D01*
X-6802262Y47855184D01*
X-6649522Y47759211D01*
X-6479255Y47699632D01*
X-6479250Y47699631D01*
X-6380128Y47688464D01*
X-6331328Y47682965D01*
X-6300493Y47670009D01*
X-6277895Y47681573D01*
X-6268682Y47682964D01*
X-6205260Y47690110D01*
X-6120750Y47699631D01*
X-6120747Y47699632D01*
X-6120745Y47699632D01*
X-5950478Y47759211D01*
X-5797738Y47855184D01*
X-5670184Y47982738D01*
X-5574211Y48135478D01*
X-5514632Y48305745D01*
X-5509589Y48350500D01*
X-5494435Y48484997D01*
X-5494435Y48485004D01*
X-5105565Y48485004D01*
X-5105565Y48484997D01*
X-5085370Y48305751D01*
X-5085369Y48305746D01*
X-5025789Y48135477D01*
X-4956371Y48025000D01*
X-4929816Y47982738D01*
X-4802262Y47855184D01*
X-4649522Y47759211D01*
X-4479255Y47699632D01*
X-4479250Y47699631D01*
X-4380128Y47688464D01*
X-4331328Y47682965D01*
X-4300493Y47670009D01*
X-4277895Y47681573D01*
X-4268682Y47682964D01*
X-4205260Y47690110D01*
X-4120750Y47699631D01*
X-4120747Y47699632D01*
X-4120745Y47699632D01*
X-3950478Y47759211D01*
X-3797738Y47855184D01*
X-3670184Y47982738D01*
X-3574211Y48135478D01*
X-3514632Y48305745D01*
X-3509589Y48350500D01*
X-3494435Y48484997D01*
X-3494435Y48485004D01*
X-3514631Y48664250D01*
X-3514632Y48664255D01*
X-3574212Y48834524D01*
X-3670185Y48987263D01*
X-3797738Y49114816D01*
X-3950477Y49210789D01*
X-4120746Y49270369D01*
X-4120751Y49270370D01*
X-4299996Y49290565D01*
X-4300004Y49290565D01*
X-4479250Y49270370D01*
X-4479255Y49270369D01*
X-4649524Y49210789D01*
X-4802263Y49114816D01*
X-4929816Y48987263D01*
X-5025789Y48834524D01*
X-5085369Y48664255D01*
X-5085370Y48664250D01*
X-5105565Y48485004D01*
X-5494435Y48485004D01*
X-5514631Y48664250D01*
X-5514632Y48664255D01*
X-5574212Y48834524D01*
X-5670185Y48987263D01*
X-5797738Y49114816D01*
X-5950477Y49210789D01*
X-6120746Y49270369D01*
X-6120751Y49270370D01*
X-6299996Y49290565D01*
X-6300004Y49290565D01*
X-6479250Y49270370D01*
X-6479255Y49270369D01*
X-6649524Y49210789D01*
X-6802263Y49114816D01*
X-6929816Y48987263D01*
X-7025789Y48834524D01*
X-7085369Y48664255D01*
X-7085370Y48664250D01*
X-7105565Y48485004D01*
X-7494435Y48485004D01*
X-7514631Y48664250D01*
X-7514632Y48664255D01*
X-7574212Y48834524D01*
X-7670185Y48987263D01*
X-7797738Y49114816D01*
X-7950477Y49210789D01*
X-8120746Y49270369D01*
X-8120751Y49270370D01*
X-8299996Y49290565D01*
X-8300004Y49290565D01*
X-8479250Y49270370D01*
X-8479255Y49270369D01*
X-8649524Y49210789D01*
X-8802263Y49114816D01*
X-8929816Y48987263D01*
X-9025789Y48834524D01*
X-9085369Y48664255D01*
X-9085370Y48664250D01*
X-9105565Y48485004D01*
X-9494435Y48485004D01*
X-9514631Y48664250D01*
X-9514632Y48664255D01*
X-9574212Y48834524D01*
X-9670185Y48987263D01*
X-9797738Y49114816D01*
X-9950477Y49210789D01*
X-10120746Y49270369D01*
X-10120751Y49270370D01*
X-10299996Y49290565D01*
X-10300004Y49290565D01*
X-10479250Y49270370D01*
X-10479265Y49270366D01*
X-10487528Y49267475D01*
X-10557307Y49263917D01*
X-10616156Y49296838D01*
X-11154787Y49835469D01*
X-11154792Y49835473D01*
X-11234710Y49881613D01*
X-11234717Y49881616D01*
X-11244769Y49884310D01*
X-11244769Y49884309D01*
X-11284313Y49894905D01*
X-11323856Y49905500D01*
X-11323857Y49905500D01*
X-16012456Y49905500D01*
X-16079495Y49925185D01*
X-16100137Y49941819D01*
X-18795612Y52637294D01*
X-18829097Y52698617D01*
X-18826592Y52760968D01*
X-18784700Y52899066D01*
X-18764417Y53105000D01*
X-18784700Y53310934D01*
X-18844768Y53508954D01*
X-18942315Y53691450D01*
X-19011116Y53775285D01*
X-19073590Y53851411D01*
X-19215877Y53968181D01*
X-19233550Y53982685D01*
X-19416046Y54080232D01*
X-19614066Y54140300D01*
X-19614068Y54140301D01*
X-19614066Y54140301D01*
X-19820000Y54160583D01*
X-20025933Y54140301D01*
X-20210834Y54084212D01*
X-20280701Y54083589D01*
X-20334510Y54115192D01*
X-20854787Y54635469D01*
X-20854792Y54635473D01*
X-20934710Y54681613D01*
X-20934711Y54681614D01*
X-20934712Y54681614D01*
X-21023856Y54705500D01*
X-21023857Y54705500D01*
X-21509879Y54705500D01*
X-21576918Y54725185D01*
X-21622673Y54777989D01*
X-21632617Y54847147D01*
X-21605732Y54908165D01*
X-21575503Y54945000D01*
X-21482315Y55058550D01*
X-21384768Y55241046D01*
X-21324700Y55439066D01*
X-21304417Y55645000D01*
X-20875583Y55645000D01*
X-20855301Y55439068D01*
X-20855300Y55439066D01*
X-20795232Y55241046D01*
X-20697685Y55058550D01*
X-20696505Y55057112D01*
X-20566411Y54898590D01*
X-20469791Y54819298D01*
X-20406450Y54767315D01*
X-20223954Y54669768D01*
X-20025934Y54609700D01*
X-20025935Y54609700D01*
X-20007471Y54607882D01*
X-19820000Y54589417D01*
X-19614066Y54609700D01*
X-19416046Y54669768D01*
X-19233550Y54767315D01*
X-19073590Y54898590D01*
X-18942315Y55058550D01*
X-18844768Y55241046D01*
X-18784700Y55439066D01*
X-18764417Y55645000D01*
X-18784700Y55850934D01*
X-18844768Y56048954D01*
X-18942315Y56231450D01*
X-19000433Y56302268D01*
X-19073590Y56391411D01*
X-19233548Y56522683D01*
X-19233547Y56522683D01*
X-19233550Y56522685D01*
X-19416046Y56620232D01*
X-19614066Y56680300D01*
X-19614068Y56680301D01*
X-19614066Y56680301D01*
X-19820000Y56700583D01*
X-20025933Y56680301D01*
X-20223957Y56620231D01*
X-20327285Y56565000D01*
X-20406450Y56522685D01*
X-20406452Y56522684D01*
X-20406453Y56522683D01*
X-20566411Y56391411D01*
X-20680941Y56251853D01*
X-20697685Y56231450D01*
X-20725257Y56179866D01*
X-20795231Y56048957D01*
X-20855301Y55850933D01*
X-20875583Y55645000D01*
X-21304417Y55645000D01*
X-21324700Y55850934D01*
X-21384768Y56048954D01*
X-21482315Y56231450D01*
X-21540433Y56302268D01*
X-21613590Y56391411D01*
X-21773548Y56522683D01*
X-21773547Y56522683D01*
X-21773550Y56522685D01*
X-21956046Y56620232D01*
X-22154066Y56680300D01*
X-22154068Y56680301D01*
X-22154066Y56680301D01*
X-22360000Y56700583D01*
X-22565933Y56680301D01*
X-22763957Y56620231D01*
X-22867285Y56565000D01*
X-22946450Y56522685D01*
X-22946452Y56522684D01*
X-22946453Y56522683D01*
X-23106411Y56391411D01*
X-23241549Y56226742D01*
X-23242955Y56227896D01*
X-23290016Y56188569D01*
X-23359342Y56179866D01*
X-23422368Y56210024D01*
X-23459084Y56269469D01*
X-23463500Y56302268D01*
X-23463500Y57527733D01*
X-23443815Y57594772D01*
X-23391011Y57640527D01*
X-23321853Y57650471D01*
X-23258297Y57621446D01*
X-23241958Y57602923D01*
X-23241549Y57603258D01*
X-23106411Y57438590D01*
X-23049502Y57391887D01*
X-22946450Y57307315D01*
X-22763954Y57209768D01*
X-22565934Y57149700D01*
X-22565935Y57149700D01*
X-22547471Y57147882D01*
X-22360000Y57129417D01*
X-22154066Y57149700D01*
X-21956046Y57209768D01*
X-21773550Y57307315D01*
X-21613590Y57438590D01*
X-21482315Y57598550D01*
X-21458046Y57643955D01*
X-21409083Y57693798D01*
X-21348688Y57709500D01*
X-20831312Y57709500D01*
X-20764273Y57689815D01*
X-20721955Y57643955D01*
X-20697685Y57598550D01*
X-20697683Y57598548D01*
X-20566411Y57438590D01*
X-20509502Y57391887D01*
X-20406450Y57307315D01*
X-20223954Y57209768D01*
X-20025934Y57149700D01*
X-20025935Y57149700D01*
X-20007471Y57147882D01*
X-19820000Y57129417D01*
X-19614066Y57149700D01*
X-19416046Y57209768D01*
X-19233550Y57307315D01*
X-19073590Y57438590D01*
X-18942315Y57598550D01*
X-18918046Y57643955D01*
X-18869083Y57693798D01*
X-18808688Y57709500D01*
X-18288500Y57709500D01*
X-18221461Y57689815D01*
X-18175706Y57637011D01*
X-18164500Y57585500D01*
X-18164500Y53565691D01*
X-18149297Y53508954D01*
X-18133799Y53451113D01*
X-18074489Y53348386D01*
X-14990614Y50264510D01*
X-14887887Y50205201D01*
X-14863679Y50198716D01*
X-14863676Y50198714D01*
X-14863675Y50198714D01*
X-14833553Y50190643D01*
X-14773309Y50174500D01*
X-3451965Y50174500D01*
X-3384926Y50154815D01*
X-3364284Y50138181D01*
X-2900819Y49674716D01*
X-2867334Y49613393D01*
X-2864500Y49587035D01*
X-2864500Y45712965D01*
X-2884185Y45645926D01*
X-2900819Y45625284D01*
X-3100614Y45425489D01*
X-3516832Y45009272D01*
X-3578155Y44975787D01*
X-3647847Y44980771D01*
X-3692194Y45009272D01*
X-3797738Y45114816D01*
X-3950477Y45210789D01*
X-4120746Y45270369D01*
X-4120751Y45270370D01*
X-4268673Y45287036D01*
X-4299509Y45299993D01*
X-4322106Y45288428D01*
X-4331327Y45287036D01*
X-4479251Y45270370D01*
X-4479255Y45270369D01*
X-4649524Y45210789D01*
X-4802263Y45114816D01*
X-4929816Y44987263D01*
X-4958301Y44941928D01*
X-5010636Y44895637D01*
X-5063295Y44883900D01*
X-5536705Y44883900D01*
X-5603744Y44903585D01*
X-5641699Y44941928D01*
X-5666106Y44980771D01*
X-5670184Y44987262D01*
X-5797738Y45114816D01*
X-5859537Y45153647D01*
X-5950477Y45210789D01*
X-6120746Y45270369D01*
X-6120751Y45270370D01*
X-6268673Y45287036D01*
X-6299509Y45299993D01*
X-6322106Y45288428D01*
X-6331327Y45287036D01*
X-6479251Y45270370D01*
X-6479255Y45270369D01*
X-6649524Y45210789D01*
X-6802263Y45114816D01*
X-6929816Y44987263D01*
X-7025789Y44834524D01*
X-7085369Y44664255D01*
X-7085370Y44664250D01*
X-7105565Y44485004D01*
X-7105565Y44484997D01*
X-7085370Y44305751D01*
X-7085369Y44305746D01*
X-7025789Y44135477D01*
X-6982430Y44066472D01*
X-6929816Y43982738D01*
X-6802262Y43855184D01*
X-6649522Y43759211D01*
X-6479255Y43699632D01*
X-6479250Y43699631D01*
X-6300004Y43679435D01*
X-6300000Y43679435D01*
X-6299996Y43679435D01*
X-6120751Y43699631D01*
X-6120748Y43699632D01*
X-6120745Y43699632D01*
X-5950478Y43759211D01*
X-5797738Y43855184D01*
X-5706341Y43946581D01*
X-5645018Y43980066D01*
X-5618660Y43982900D01*
X-4981340Y43982900D01*
X-4914301Y43963215D01*
X-4893659Y43946581D01*
X-4802262Y43855184D01*
X-4649522Y43759211D01*
X-4479255Y43699632D01*
X-4479250Y43699631D01*
X-4300004Y43679435D01*
X-4300000Y43679435D01*
X-4299996Y43679435D01*
X-4120751Y43699631D01*
X-4120748Y43699632D01*
X-4120745Y43699632D01*
X-3950478Y43759211D01*
X-3797738Y43855184D01*
X-3706341Y43946581D01*
X-3645018Y43980066D01*
X-3618660Y43982900D01*
X-3603765Y43982900D01*
X-3536726Y43963215D01*
X-3516084Y43946581D01*
X-2600819Y43031316D01*
X-2567334Y42969993D01*
X-2564500Y42943635D01*
X-2564500Y33510936D01*
X-3964000Y34775000D01*
X-9416635Y34826684D01*
X-7019530Y37223788D01*
X-6973386Y37303712D01*
X-6962449Y37344531D01*
X-6949500Y37392856D01*
X-6949500Y37723339D01*
X-6929815Y37790378D01*
X-6877011Y37836133D01*
X-6807853Y37846077D01*
X-6759527Y37828332D01*
X-6649525Y37759212D01*
X-6479255Y37699632D01*
X-6479250Y37699631D01*
X-6300004Y37679435D01*
X-6300000Y37679435D01*
X-6299996Y37679435D01*
X-6120751Y37699631D01*
X-6120748Y37699632D01*
X-6120745Y37699632D01*
X-5950478Y37759211D01*
X-5797738Y37855184D01*
X-5670184Y37982738D01*
X-5574211Y38135478D01*
X-5514632Y38305745D01*
X-5514407Y38307741D01*
X-5494435Y38484997D01*
X-5494435Y38485004D01*
X-5105565Y38485004D01*
X-5105565Y38484997D01*
X-5085370Y38305751D01*
X-5085369Y38305746D01*
X-5025789Y38135477D01*
X-4985233Y38070933D01*
X-4929816Y37982738D01*
X-4802262Y37855184D01*
X-4649522Y37759211D01*
X-4479255Y37699632D01*
X-4479250Y37699631D01*
X-4300004Y37679435D01*
X-4300000Y37679435D01*
X-4299996Y37679435D01*
X-4120751Y37699631D01*
X-4120748Y37699632D01*
X-4120745Y37699632D01*
X-3950478Y37759211D01*
X-3797738Y37855184D01*
X-3670184Y37982738D01*
X-3574211Y38135478D01*
X-3514632Y38305745D01*
X-3514407Y38307741D01*
X-3494435Y38484997D01*
X-3494435Y38485004D01*
X-3514631Y38664250D01*
X-3514632Y38664255D01*
X-3574212Y38834524D01*
X-3670185Y38987263D01*
X-3797738Y39114816D01*
X-3950477Y39210789D01*
X-4120746Y39270369D01*
X-4120751Y39270370D01*
X-4268673Y39287036D01*
X-4299509Y39299993D01*
X-4322106Y39288428D01*
X-4331327Y39287036D01*
X-4479251Y39270370D01*
X-4479255Y39270369D01*
X-4649524Y39210789D01*
X-4802263Y39114816D01*
X-4929816Y38987263D01*
X-5025789Y38834524D01*
X-5085369Y38664255D01*
X-5085370Y38664250D01*
X-5105565Y38485004D01*
X-5494435Y38485004D01*
X-5514631Y38664250D01*
X-5514632Y38664255D01*
X-5574212Y38834524D01*
X-5670185Y38987263D01*
X-5797738Y39114816D01*
X-5950477Y39210789D01*
X-6120746Y39270369D01*
X-6120751Y39270370D01*
X-6268673Y39287036D01*
X-6299509Y39299993D01*
X-6322106Y39288428D01*
X-6331327Y39287036D01*
X-6479251Y39270370D01*
X-6479255Y39270369D01*
X-6649524Y39210789D01*
X-6759528Y39141668D01*
X-6826765Y39122668D01*
X-6893600Y39143036D01*
X-6938814Y39196304D01*
X-6949500Y39246662D01*
X-6949500Y39548090D01*
X-6929815Y39615129D01*
X-6877011Y39660884D01*
X-6807853Y39670828D01*
X-6767046Y39657448D01*
X-6665312Y39603069D01*
X-6486231Y39548745D01*
X-6333057Y39533659D01*
X-6300352Y39520453D01*
X-6276184Y39532396D01*
X-6266944Y39533659D01*
X-6113770Y39548745D01*
X-5934689Y39603069D01*
X-5828424Y39659870D01*
X-5828423Y39659871D01*
X-6278553Y40110000D01*
X-6250630Y40110000D01*
X-6155255Y40135556D01*
X-6069745Y40184925D01*
X-5999925Y40254745D01*
X-5950556Y40340255D01*
X-5925000Y40435630D01*
X-5925000Y40463553D01*
X-5474871Y40013423D01*
X-5474870Y40013423D01*
X-5418065Y40119698D01*
X-5415737Y40125316D01*
X-5414129Y40124650D01*
X-5380367Y40176172D01*
X-5316556Y40204631D01*
X-5247488Y40194073D01*
X-5195093Y40147851D01*
X-5184716Y40125129D01*
X-5184263Y40125316D01*
X-5181934Y40119693D01*
X-5125132Y40013423D01*
X-5125131Y40013423D01*
X-4675000Y40463554D01*
X-4675000Y40435630D01*
X-4649444Y40340255D01*
X-4600075Y40254745D01*
X-4530255Y40184925D01*
X-4444745Y40135556D01*
X-4349370Y40110000D01*
X-4321447Y40110000D01*
X-4771578Y39659870D01*
X-4665312Y39603069D01*
X-4486231Y39548745D01*
X-4333057Y39533659D01*
X-4300352Y39520453D01*
X-4276184Y39532396D01*
X-4266944Y39533659D01*
X-4113770Y39548745D01*
X-3934689Y39603069D01*
X-3828423Y39659870D01*
X-3828423Y39659871D01*
X-4278552Y40110000D01*
X-4250630Y40110000D01*
X-4155255Y40135556D01*
X-4069745Y40184925D01*
X-3999925Y40254745D01*
X-3950556Y40340255D01*
X-3925000Y40435630D01*
X-3925000Y40463553D01*
X-3474871Y40013423D01*
X-3474870Y40013423D01*
X-3418069Y40119689D01*
X-3363745Y40298770D01*
X-3345404Y40485000D01*
X-3363745Y40671231D01*
X-3418069Y40850312D01*
X-3474870Y40956578D01*
X-3925000Y40506448D01*
X-3925000Y40534370D01*
X-3950556Y40629745D01*
X-3999925Y40715255D01*
X-4069745Y40785075D01*
X-4155255Y40834444D01*
X-4250630Y40860000D01*
X-4278553Y40860000D01*
X-3828423Y41310131D01*
X-3828423Y41310132D01*
X-3934687Y41366931D01*
X-4113770Y41421256D01*
X-4266944Y41436342D01*
X-4299650Y41449549D01*
X-4323816Y41437605D01*
X-4333057Y41436342D01*
X-4486231Y41421256D01*
X-4665308Y41366933D01*
X-4771578Y41310131D01*
X-4321446Y40860000D01*
X-4349370Y40860000D01*
X-4444745Y40834444D01*
X-4530255Y40785075D01*
X-4600075Y40715255D01*
X-4649444Y40629745D01*
X-4675000Y40534370D01*
X-4675000Y40506447D01*
X-5125131Y40956578D01*
X-5181936Y40850303D01*
X-5184264Y40844680D01*
X-5185873Y40845347D01*
X-5219640Y40793823D01*
X-5283453Y40765369D01*
X-5352520Y40775932D01*
X-5404912Y40822158D01*
X-5415285Y40844872D01*
X-5415737Y40844684D01*
X-5418065Y40850303D01*
X-5474870Y40956578D01*
X-5925000Y40506448D01*
X-5925000Y40534370D01*
X-5950556Y40629745D01*
X-5999925Y40715255D01*
X-6069745Y40785075D01*
X-6155255Y40834444D01*
X-6250630Y40860000D01*
X-6278553Y40860000D01*
X-5828423Y41310131D01*
X-5828423Y41310132D01*
X-5934687Y41366931D01*
X-6113770Y41421256D01*
X-6266944Y41436342D01*
X-6299650Y41449549D01*
X-6323816Y41437605D01*
X-6333057Y41436342D01*
X-6486231Y41421256D01*
X-6665308Y41366933D01*
X-6771578Y41310131D01*
X-6321446Y40860000D01*
X-6349370Y40860000D01*
X-6444745Y40834444D01*
X-6530255Y40785075D01*
X-6600075Y40715255D01*
X-6649444Y40629745D01*
X-6675000Y40534370D01*
X-6675000Y40506447D01*
X-7125131Y40956578D01*
X-7181933Y40850308D01*
X-7236256Y40671231D01*
X-7251342Y40518057D01*
X-7277503Y40453269D01*
X-7334538Y40412911D01*
X-7404338Y40409794D01*
X-7464742Y40444909D01*
X-7496573Y40507107D01*
X-7497965Y40516328D01*
X-7514631Y40664250D01*
X-7514632Y40664255D01*
X-7550013Y40765369D01*
X-7574211Y40834522D01*
X-7580594Y40844680D01*
X-7670185Y40987263D01*
X-7797738Y41114816D01*
X-7950477Y41210789D01*
X-8120746Y41270369D01*
X-8120751Y41270370D01*
X-8299996Y41290565D01*
X-8300004Y41290565D01*
X-8479250Y41270370D01*
X-8479255Y41270369D01*
X-8649524Y41210789D01*
X-8802263Y41114816D01*
X-8929816Y40987263D01*
X-9025789Y40834524D01*
X-9085369Y40664255D01*
X-9085370Y40664250D01*
X-9105565Y40485004D01*
X-9105565Y40484997D01*
X-9085370Y40305751D01*
X-9085369Y40305746D01*
X-9025789Y40135477D01*
X-8929816Y39982738D01*
X-8802262Y39855184D01*
X-8649522Y39759211D01*
X-8559300Y39727641D01*
X-8479255Y39699632D01*
X-8479250Y39699631D01*
X-8300004Y39679435D01*
X-8300000Y39679435D01*
X-8299996Y39679435D01*
X-8120751Y39699631D01*
X-8120748Y39699632D01*
X-8120745Y39699632D01*
X-8120744Y39699633D01*
X-8120741Y39699633D01*
X-8091716Y39709791D01*
X-8011733Y39737778D01*
X-7941957Y39741340D01*
X-7883099Y39708417D01*
X-7686819Y39512137D01*
X-7653334Y39450814D01*
X-7650500Y39424456D01*
X-7650500Y39246662D01*
X-7670185Y39179623D01*
X-7722989Y39133868D01*
X-7792147Y39123924D01*
X-7840472Y39141668D01*
X-7950477Y39210789D01*
X-8120746Y39270369D01*
X-8120751Y39270370D01*
X-8299996Y39290565D01*
X-8300004Y39290565D01*
X-8479250Y39270370D01*
X-8479255Y39270369D01*
X-8649524Y39210789D01*
X-8802263Y39114816D01*
X-8929816Y38987263D01*
X-9025789Y38834524D01*
X-9085369Y38664255D01*
X-9085370Y38664250D01*
X-9105565Y38485004D01*
X-9105565Y38484997D01*
X-9085370Y38305751D01*
X-9085369Y38305746D01*
X-9025789Y38135477D01*
X-8929816Y37982738D01*
X-8802263Y37855185D01*
X-8802260Y37855183D01*
X-8797117Y37851951D01*
X-8750825Y37799617D01*
X-8740176Y37730564D01*
X-8768551Y37666715D01*
X-8775407Y37659276D01*
X-9397863Y37036819D01*
X-9459186Y37003334D01*
X-9485544Y37000500D01*
X-14335146Y37000500D01*
X-14384353Y36987315D01*
X-14384354Y36987316D01*
X-14424284Y36976616D01*
X-14424291Y36976613D01*
X-14504209Y36930473D01*
X-14504214Y36930469D01*
X-18287863Y33146819D01*
X-18349186Y33113334D01*
X-18375544Y33110500D01*
X-18729417Y33110500D01*
X-18796456Y33130185D01*
X-18842211Y33182989D01*
X-18843979Y33187049D01*
X-18844767Y33188949D01*
X-18844768Y33188954D01*
X-18942315Y33371450D01*
X-19005180Y33448052D01*
X-19073590Y33531411D01*
X-19206163Y33640209D01*
X-19233550Y33662685D01*
X-19416046Y33760232D01*
X-19614066Y33820300D01*
X-19614068Y33820301D01*
X-19614066Y33820301D01*
X-19820000Y33840583D01*
X-20025933Y33820301D01*
X-20223957Y33760231D01*
X-20334102Y33701357D01*
X-20406450Y33662685D01*
X-20406452Y33662684D01*
X-20406453Y33662683D01*
X-20566411Y33531411D01*
X-20697683Y33371453D01*
X-20697685Y33371450D01*
X-20714112Y33340717D01*
X-20795231Y33188957D01*
X-20855301Y32990933D01*
X-20875583Y32785000D01*
X-20855301Y32579068D01*
X-20855300Y32579066D01*
X-20795232Y32381046D01*
X-20697685Y32198550D01*
X-20697683Y32198548D01*
X-20566411Y32038590D01*
X-20469791Y31959298D01*
X-20406450Y31907315D01*
X-20223954Y31809768D01*
X-20025934Y31749700D01*
X-20025935Y31749700D01*
X-20007471Y31747882D01*
X-19820000Y31729417D01*
X-19614066Y31749700D01*
X-19416046Y31809768D01*
X-19233550Y31907315D01*
X-19073590Y32038590D01*
X-18942315Y32198550D01*
X-18864594Y32343954D01*
X-18815631Y32393798D01*
X-18755236Y32409500D01*
X-18132858Y32409500D01*
X-18132856Y32409500D01*
X-18043712Y32433386D01*
X-17963788Y32479530D01*
X-14180137Y36263181D01*
X-14118814Y36296666D01*
X-14092456Y36299500D01*
X-9234729Y36299500D01*
X-9234729Y36295895D01*
X-9182162Y36287935D01*
X-9129702Y36241786D01*
X-9110519Y36174601D01*
X-9130705Y36107711D01*
X-9146835Y36087848D01*
X-9772863Y35461819D01*
X-9834186Y35428334D01*
X-9860544Y35425500D01*
X-14410144Y35425500D01*
X-14499288Y35401614D01*
X-14499289Y35401614D01*
X-14499291Y35401613D01*
X-14499294Y35401612D01*
X-14579206Y35355474D01*
X-14579215Y35355467D01*
X-16294469Y33640214D01*
X-16294473Y33640209D01*
X-16340613Y33560291D01*
X-16340614Y33560288D01*
X-16364500Y33471144D01*
X-16364500Y31707545D01*
X-16384185Y31640506D01*
X-16400819Y31619864D01*
X-19305492Y28715192D01*
X-19366815Y28681707D01*
X-19429167Y28684212D01*
X-19614066Y28740300D01*
X-19614068Y28740301D01*
X-19614066Y28740301D01*
X-19820000Y28760583D01*
X-20025933Y28740301D01*
X-20187853Y28691183D01*
X-20219981Y28681437D01*
X-20223957Y28680231D01*
X-20334102Y28621357D01*
X-20406450Y28582685D01*
X-20406452Y28582684D01*
X-20406453Y28582683D01*
X-20566411Y28451411D01*
X-20697685Y28291451D01*
X-20697690Y28291445D01*
X-20748680Y28196047D01*
X-20797642Y28146202D01*
X-20858038Y28130500D01*
X-21321962Y28130500D01*
X-21389001Y28150185D01*
X-21431320Y28196047D01*
X-21482311Y28291445D01*
X-21482316Y28291451D01*
X-21482318Y28291453D01*
X-21561771Y28388268D01*
X-21613590Y28451411D01*
X-21734029Y28550251D01*
X-21773550Y28582685D01*
X-21956046Y28680232D01*
X-22154066Y28740300D01*
X-22154068Y28740301D01*
X-22154066Y28740301D01*
X-22360000Y28760583D01*
X-22565933Y28740301D01*
X-22727853Y28691183D01*
X-22759981Y28681437D01*
X-22763957Y28680231D01*
X-22874102Y28621357D01*
X-22946450Y28582685D01*
X-22946452Y28582684D01*
X-22946453Y28582683D01*
X-23106411Y28451411D01*
X-23237683Y28291453D01*
X-23237685Y28291450D01*
X-23238646Y28289652D01*
X-23335231Y28108957D01*
X-23395301Y27910933D01*
X-23415583Y27705000D01*
X-23395301Y27499068D01*
X-23395300Y27499066D01*
X-23335232Y27301046D01*
X-23237685Y27118550D01*
X-23237683Y27118548D01*
X-23106411Y26958590D01*
X-23009791Y26879298D01*
X-22946450Y26827315D01*
X-22763954Y26729768D01*
X-22565934Y26669700D01*
X-22565935Y26669700D01*
X-22547471Y26667882D01*
X-22360000Y26649417D01*
X-22154066Y26669700D01*
X-21956046Y26729768D01*
X-21773550Y26827315D01*
X-21613590Y26958590D01*
X-21482315Y27118550D01*
X-21458046Y27163955D01*
X-21409083Y27213798D01*
X-21348688Y27229500D01*
X-20831312Y27229500D01*
X-20764273Y27209815D01*
X-20721955Y27163955D01*
X-20697685Y27118550D01*
X-20697683Y27118548D01*
X-20566411Y26958590D01*
X-20469791Y26879298D01*
X-20406450Y26827315D01*
X-20223954Y26729768D01*
X-20025934Y26669700D01*
X-20025935Y26669700D01*
X-20007471Y26667882D01*
X-19820000Y26649417D01*
X-19614066Y26669700D01*
X-19416046Y26729768D01*
X-19233550Y26827315D01*
X-19073590Y26958590D01*
X-18942315Y27118550D01*
X-18844768Y27301046D01*
X-18784700Y27499066D01*
X-18764417Y27705000D01*
X-18784700Y27910934D01*
X-18840790Y28095837D01*
X-18841412Y28165702D01*
X-18809811Y28219509D01*
X-15945242Y31084077D01*
X-15914000Y29975000D01*
X-15464845Y29044606D01*
X-15666710Y29044150D01*
X-15764748Y29034326D01*
X-15764753Y29034325D01*
X-15859462Y29015375D01*
X-15859478Y29015371D01*
X-15911333Y29002104D01*
X-15911338Y29002102D01*
X-16041121Y28940011D01*
X-16041131Y28940005D01*
X-16121913Y28886029D01*
X-16165229Y28853602D01*
X-16165233Y28853599D01*
X-16165235Y28853598D01*
X-16165236Y28853596D01*
X-16261375Y28746566D01*
X-16261380Y28746560D01*
X-16315354Y28665783D01*
X-16315357Y28665778D01*
X-16342963Y28619251D01*
X-16342964Y28619249D01*
X-16390834Y28483557D01*
X-16390834Y28483556D01*
X-16409788Y28388269D01*
X-16409788Y28388268D01*
X-16417587Y28309076D01*
X-16419322Y28291453D01*
X-16419500Y28289650D01*
X-16419500Y22969942D01*
X-16419492Y22967300D01*
X-16419473Y22964097D01*
X-16419473Y22964086D01*
X-16408537Y22862485D01*
X-16388433Y22767448D01*
X-16374414Y22715176D01*
X-16374413Y22715174D01*
X-16310750Y22586146D01*
X-16310748Y22586144D01*
X-16255822Y22506057D01*
X-16255788Y22506010D01*
X-16222845Y22463098D01*
X-16222843Y22463096D01*
X-16114647Y22368254D01*
X-16033217Y22315261D01*
X-15986351Y22288217D01*
X-15850096Y22241997D01*
X-15754585Y22224199D01*
X-15754571Y22224198D01*
X-15754566Y22224197D01*
X-15726615Y22221787D01*
X-15655855Y22215682D01*
X-15029163Y22223279D01*
X-15029164Y22223280D01*
X-14946862Y22224277D01*
X-14946860Y22224278D01*
X-14261670Y22232582D01*
X-14260167Y22232590D01*
X-4267835Y22232590D01*
X-4266333Y22232581D01*
X-3983275Y22229150D01*
X-3983274Y22229150D01*
X-3122644Y22218719D01*
X-3119533Y22218691D01*
X-3118024Y22218682D01*
X-3116519Y22218673D01*
X-3116519Y22218674D01*
X-3116515Y22218673D01*
X-3014882Y22228377D01*
X-2919594Y22247331D01*
X-2867165Y22260713D01*
X-2742014Y22320589D01*
X-2673046Y22331764D01*
X-2608982Y22303878D01*
X-2570165Y22245783D01*
X-2564500Y22208731D01*
X-2564500Y13492965D01*
X-2584185Y13425926D01*
X-2600819Y13405284D01*
X-3664284Y12341819D01*
X-3725607Y12308334D01*
X-3751965Y12305500D01*
X-4537743Y12305500D01*
X-4604782Y12325185D01*
X-4610100Y12328925D01*
X-4611164Y12329539D01*
X-4757235Y12390043D01*
X-4757240Y12390045D01*
X-4913999Y12410682D01*
X-4914001Y12410682D01*
X-5070761Y12390045D01*
X-5070763Y12390044D01*
X-5216840Y12329537D01*
X-5342282Y12233282D01*
X-5438537Y12107840D01*
X-5499044Y11961763D01*
X-5499045Y11961761D01*
X-5519682Y11805002D01*
X-5519682Y11804999D01*
X-5499045Y11648240D01*
X-5499044Y11648238D01*
X-5438536Y11502159D01*
X-5342282Y11376718D01*
X-5216841Y11280464D01*
X-5070762Y11219956D01*
X-4992381Y11209637D01*
X-4914001Y11199318D01*
X-4914000Y11199318D01*
X-4913999Y11199318D01*
X-4861746Y11206198D01*
X-4757238Y11219956D01*
X-4611159Y11280464D01*
X-4485718Y11376718D01*
X-4485717Y11376721D01*
X-4482907Y11378876D01*
X-4417737Y11404070D01*
X-4407420Y11404500D01*
X-3454692Y11404500D01*
X-3454691Y11404500D01*
X-3364327Y11428714D01*
X-3340113Y11435201D01*
X-3237386Y11494511D01*
X-1753511Y12978386D01*
X-1694201Y13081113D01*
X-1687715Y13105325D01*
X-1687714Y13105325D01*
X-1687714Y13105329D01*
X-1663500Y13195691D01*
X-1663500Y43240909D01*
X-1692451Y43348954D01*
X-1694201Y43355487D01*
X-1694201Y43355488D01*
X-1753508Y43458211D01*
X-1753512Y43458216D01*
X-2685916Y44390620D01*
X-2719401Y44451943D01*
X-2714417Y44521635D01*
X-2685916Y44565982D01*
X-2587647Y44664250D01*
X-2463511Y44788386D01*
X-2053510Y45198387D01*
X-1994201Y45301114D01*
X-1990475Y45315021D01*
X-1982448Y45344974D01*
X-1975513Y45370859D01*
X-1963500Y45415691D01*
X-1963500Y49884309D01*
X-1988752Y49978550D01*
X-1994201Y49998887D01*
X-1994202Y49998890D01*
X-2053506Y50101608D01*
X-2053512Y50101616D01*
X-2937384Y50985487D01*
X-2937386Y50985489D01*
X-2988750Y51015144D01*
X-3040112Y51044799D01*
X-3052220Y51048043D01*
X-3064327Y51051287D01*
X-3064330Y51051288D01*
X-3102522Y51061522D01*
X-3154691Y51075500D01*
X-3154692Y51075500D01*
X-14476034Y51075500D01*
X-14543073Y51095185D01*
X-14563715Y51111819D01*
X-17227181Y53775285D01*
X-17260666Y53836608D01*
X-17263500Y53862966D01*
X-17263500Y63041008D01*
X-16469500Y63041008D01*
X-16469500Y57721300D01*
X-16469492Y57718658D01*
X-16469473Y57715455D01*
X-16469473Y57715444D01*
X-16458537Y57613843D01*
X-16438433Y57518806D01*
X-16424414Y57466534D01*
X-16424413Y57466532D01*
X-16360750Y57337504D01*
X-16360748Y57337502D01*
X-16305822Y57257415D01*
X-16305788Y57257368D01*
X-16272845Y57214456D01*
X-16272843Y57214454D01*
X-16164647Y57119612D01*
X-16083217Y57066619D01*
X-16036351Y57039575D01*
X-15900096Y56993355D01*
X-15804585Y56975557D01*
X-15804571Y56975556D01*
X-15804566Y56975555D01*
X-15776615Y56973145D01*
X-15705855Y56967040D01*
X-15554013Y56968881D01*
X-16011503Y56688483D01*
X-16161503Y52838483D01*
X-14611503Y51438483D01*
X-4061503Y51338483D01*
X-2561503Y52688483D01*
X-2661503Y56238483D01*
X-3013757Y56968151D01*
X-2922145Y56967040D01*
X-2919033Y56967012D01*
X-2917524Y56967003D01*
X-2916019Y56966994D01*
X-2916019Y56966995D01*
X-2916015Y56966994D01*
X-2814382Y56976698D01*
X-2719094Y56995652D01*
X-2666665Y57009034D01*
X-2536874Y57071129D01*
X-2456092Y57125105D01*
X-2412767Y57157538D01*
X-2316620Y57264577D01*
X-2262644Y57345359D01*
X-2235034Y57391894D01*
X-2187167Y57527579D01*
X-2168213Y57622867D01*
X-2158500Y57721485D01*
X-2158500Y63069887D01*
X-2158501Y63070786D01*
X-2158502Y63071348D01*
X-2168438Y63170186D01*
X-2168439Y63170188D01*
X-2168440Y63170200D01*
X-2187605Y63265423D01*
X-2187607Y63265431D01*
X-2201107Y63317831D01*
X-2263496Y63447481D01*
X-2317654Y63528140D01*
X-2317673Y63528165D01*
X-2317679Y63528174D01*
X-2350181Y63571389D01*
X-2439253Y63651035D01*
X-2457436Y63667294D01*
X-2457439Y63667296D01*
X-2457442Y63667299D01*
X-2538330Y63721082D01*
X-2538356Y63721099D01*
X-2584939Y63748595D01*
X-2720717Y63796151D01*
X-2720738Y63796157D01*
X-2816033Y63814890D01*
X-2816053Y63814893D01*
X-2851240Y63818279D01*
X-2914698Y63824385D01*
X-2914702Y63824385D01*
X-2914712Y63824386D01*
X-15716710Y63795508D01*
X-15814748Y63785684D01*
X-15814753Y63785683D01*
X-15909462Y63766733D01*
X-15909478Y63766729D01*
X-15961333Y63753462D01*
X-15961338Y63753460D01*
X-16091121Y63691369D01*
X-16091131Y63691363D01*
X-16171913Y63637387D01*
X-16215229Y63604960D01*
X-16215233Y63604957D01*
X-16215235Y63604956D01*
X-16215236Y63604954D01*
X-16311375Y63497924D01*
X-16311380Y63497918D01*
X-16365354Y63417141D01*
X-16365357Y63417136D01*
X-16392963Y63370609D01*
X-16392964Y63370607D01*
X-16440834Y63234915D01*
X-16440834Y63234914D01*
X-16459788Y63139627D01*
X-16459788Y63139626D01*
X-16469500Y63041008D01*
X-17263500Y63041008D01*
X-17263500Y63948307D01*
X-17263500Y63948309D01*
X-17294201Y64062886D01*
X-17294201Y64062887D01*
X-17353511Y64165614D01*
X-17819319Y64631422D01*
X-17852804Y64692745D01*
X-17854575Y64702903D01*
X-17864956Y64781762D01*
X-17925464Y64927841D01*
X-18021718Y65053282D01*
X-18147159Y65149536D01*
X-18293238Y65210044D01*
X-18293240Y65210045D01*
X-18449999Y65230682D01*
X-18450001Y65230682D01*
X-18606761Y65210045D01*
X-18606763Y65210044D01*
X-18752840Y65149537D01*
X-18878282Y65053282D01*
X-18974537Y64927840D01*
X-19035044Y64781763D01*
X-19035045Y64781761D01*
X-19055682Y64625002D01*
X-19055682Y64624999D01*
X-19035045Y64468240D01*
X-19035044Y64468238D01*
X-18974536Y64322159D01*
X-18878282Y64196718D01*
X-18752841Y64100464D01*
X-18606762Y64039956D01*
X-18527917Y64029576D01*
X-18464022Y64001311D01*
X-18456422Y63994319D01*
X-18200819Y63738716D01*
X-18167334Y63677393D01*
X-18164500Y63651035D01*
X-18164500Y58734500D01*
X-18184185Y58667461D01*
X-18236989Y58621706D01*
X-18288500Y58610500D01*
X-18781962Y58610500D01*
X-18849001Y58630185D01*
X-18891320Y58676047D01*
X-18942311Y58771445D01*
X-18942316Y58771451D01*
X-19073590Y58931411D01*
X-19233548Y59062683D01*
X-19233547Y59062683D01*
X-19233550Y59062685D01*
X-19416046Y59160232D01*
X-19614066Y59220300D01*
X-19614068Y59220301D01*
X-19614066Y59220301D01*
X-19820000Y59240583D01*
X-20025933Y59220301D01*
X-20223957Y59160231D01*
X-20334102Y59101357D01*
X-20406450Y59062685D01*
X-20406452Y59062684D01*
X-20406453Y59062683D01*
X-20566411Y58931411D01*
X-20697685Y58771451D01*
X-20697690Y58771445D01*
X-20748680Y58676047D01*
X-20797642Y58626202D01*
X-20858038Y58610500D01*
X-21321962Y58610500D01*
X-21389001Y58630185D01*
X-21431320Y58676047D01*
X-21482311Y58771445D01*
X-21482316Y58771451D01*
X-21613590Y58931411D01*
X-21773548Y59062683D01*
X-21773547Y59062683D01*
X-21773550Y59062685D01*
X-21956046Y59160232D01*
X-22154066Y59220300D01*
X-22154068Y59220301D01*
X-22154066Y59220301D01*
X-22360000Y59240583D01*
X-22565933Y59220301D01*
X-22763957Y59160231D01*
X-22874102Y59101357D01*
X-22946450Y59062685D01*
X-22946452Y59062684D01*
X-22946453Y59062683D01*
X-23106411Y58931411D01*
X-23241549Y58766742D01*
X-23242955Y58767896D01*
X-23290016Y58728569D01*
X-23359342Y58719866D01*
X-23422368Y58750024D01*
X-23459084Y58809469D01*
X-23463500Y58842268D01*
X-23463500Y59468687D01*
X-23443815Y59535726D01*
X-23391011Y59581481D01*
X-23321853Y59591425D01*
X-23289414Y59582122D01*
X-23279876Y59577911D01*
X-23254794Y59575001D01*
X-22610001Y59575001D01*
X-22610000Y59575002D01*
X-22610000Y60291988D01*
X-22552993Y60259075D01*
X-22425826Y60225000D01*
X-22294174Y60225000D01*
X-22167007Y60259075D01*
X-22110000Y60291988D01*
X-22110000Y59575001D01*
X-21465214Y59575001D01*
X-21465192Y59575003D01*
X-21440131Y59577909D01*
X-21440127Y59577910D01*
X-21337526Y59623212D01*
X-21337521Y59623215D01*
X-21258215Y59702521D01*
X-21258212Y59702526D01*
X-21212911Y59805123D01*
X-21212911Y59805125D01*
X-21210001Y59830206D01*
X-21210000Y59830209D01*
X-21210000Y60475000D01*
X-21926988Y60475000D01*
X-21894075Y60532007D01*
X-21860000Y60659174D01*
X-21860000Y60790826D01*
X-21894075Y60917993D01*
X-21926988Y60975000D01*
X-21210001Y60975000D01*
X-21210001Y60975001D01*
X-20944513Y60975001D01*
X-20944512Y60975000D01*
X-20253012Y60975000D01*
X-20285925Y60917993D01*
X-20320000Y60790826D01*
X-20320000Y60659174D01*
X-20285925Y60532007D01*
X-20253012Y60475000D01*
X-20944512Y60475000D01*
X-20896938Y60307795D01*
X-20896933Y60307782D01*
X-20801939Y60117009D01*
X-20673500Y59946929D01*
X-20516000Y59803349D01*
X-20515998Y59803347D01*
X-20334799Y59691154D01*
X-20334793Y59691151D01*
X-20136059Y59614162D01*
X-20070000Y59601814D01*
X-20070000Y60291988D01*
X-20012993Y60259075D01*
X-19885826Y60225000D01*
X-19754174Y60225000D01*
X-19627007Y60259075D01*
X-19570000Y60291988D01*
X-19570000Y59601815D01*
X-19503942Y59614162D01*
X-19305208Y59691151D01*
X-19305202Y59691154D01*
X-19124003Y59803347D01*
X-19124001Y59803349D01*
X-18966501Y59946929D01*
X-18838062Y60117009D01*
X-18743068Y60307782D01*
X-18743063Y60307795D01*
X-18695488Y60475000D01*
X-19386988Y60475000D01*
X-19354075Y60532007D01*
X-19320000Y60659174D01*
X-19320000Y60790826D01*
X-19354075Y60917993D01*
X-19386988Y60975000D01*
X-18695488Y60975000D01*
X-18695488Y60975001D01*
X-18743063Y61142206D01*
X-18743068Y61142219D01*
X-18838062Y61332992D01*
X-18966501Y61503072D01*
X-19124001Y61646652D01*
X-19124003Y61646654D01*
X-19305202Y61758847D01*
X-19305211Y61758851D01*
X-19503937Y61835837D01*
X-19503942Y61835838D01*
X-19570000Y61848187D01*
X-19570000Y61158012D01*
X-19627007Y61190925D01*
X-19754174Y61225000D01*
X-19885826Y61225000D01*
X-20012993Y61190925D01*
X-20070000Y61158012D01*
X-20070000Y61848187D01*
X-20136059Y61835838D01*
X-20136064Y61835837D01*
X-20334790Y61758851D01*
X-20334799Y61758847D01*
X-20515998Y61646654D01*
X-20516000Y61646652D01*
X-20673500Y61503072D01*
X-20801939Y61332992D01*
X-20896933Y61142219D01*
X-20896938Y61142206D01*
X-20944513Y60975001D01*
X-21210001Y60975001D01*
X-21210001Y61619786D01*
X-21210003Y61619809D01*
X-21212909Y61644870D01*
X-21212910Y61644874D01*
X-21258212Y61747475D01*
X-21258215Y61747480D01*
X-21337521Y61826786D01*
X-21337526Y61826789D01*
X-21440124Y61872090D01*
X-21465206Y61875000D01*
X-22110000Y61875000D01*
X-22110000Y61158012D01*
X-22167007Y61190925D01*
X-22294174Y61225000D01*
X-22425826Y61225000D01*
X-22552993Y61190925D01*
X-22610000Y61158012D01*
X-22610000Y61875000D01*
X-23254786Y61875000D01*
X-23254809Y61874998D01*
X-23279870Y61872092D01*
X-23279874Y61872091D01*
X-23289419Y61867876D01*
X-23358698Y61858808D01*
X-23421881Y61888634D01*
X-23458909Y61947886D01*
X-23463500Y61981313D01*
X-23463500Y66758457D01*
X-23443815Y66825496D01*
X-23427181Y66846138D01*
X-23097030Y67176289D01*
X-11150500Y67176289D01*
X-11150500Y66933712D01*
X-11118839Y66693215D01*
X-11056053Y66458896D01*
X-10963227Y66234795D01*
X-10963224Y66234788D01*
X-10841936Y66024711D01*
X-10841934Y66024708D01*
X-10841933Y66024707D01*
X-10694267Y65832264D01*
X-10694261Y65832257D01*
X-10522744Y65660740D01*
X-10522738Y65660735D01*
X-10330289Y65513064D01*
X-10120212Y65391776D01*
X-9896100Y65298946D01*
X-9661789Y65236162D01*
X-9481414Y65212416D01*
X-9421289Y65204500D01*
X-9421288Y65204500D01*
X-9178711Y65204500D01*
X-9130612Y65210833D01*
X-8938211Y65236162D01*
X-8703900Y65298946D01*
X-8479788Y65391776D01*
X-8269711Y65513064D01*
X-8077262Y65660735D01*
X-7905735Y65832262D01*
X-7758064Y66024711D01*
X-7636776Y66234788D01*
X-7543946Y66458900D01*
X-7481162Y66693211D01*
X-7449500Y66933712D01*
X-7449500Y67176288D01*
X-7481162Y67416789D01*
X-7543946Y67651100D01*
X-7636776Y67875212D01*
X-7758064Y68085289D01*
X-7905735Y68277738D01*
X-7905740Y68277744D01*
X-8077257Y68449261D01*
X-8077264Y68449267D01*
X-8269707Y68596933D01*
X-8269708Y68596934D01*
X-8269711Y68596936D01*
X-8479788Y68718224D01*
X-8532466Y68740044D01*
X-8703896Y68811053D01*
X-8938215Y68873839D01*
X-9178711Y68905500D01*
X-9178712Y68905500D01*
X-9421288Y68905500D01*
X-9421289Y68905500D01*
X-9661786Y68873839D01*
X-9896105Y68811053D01*
X-10120206Y68718227D01*
X-10120215Y68718223D01*
X-10330294Y68596933D01*
X-10522737Y68449267D01*
X-10522744Y68449261D01*
X-10694261Y68277744D01*
X-10694267Y68277737D01*
X-10841933Y68085294D01*
X-10963223Y67875215D01*
X-10963227Y67875206D01*
X-11056053Y67651105D01*
X-11118839Y67416786D01*
X-11150500Y67176289D01*
X-23097030Y67176289D01*
X-22505138Y67768181D01*
X-22443815Y67801666D01*
X-22417457Y67804500D01*
X-20363116Y67804500D01*
X-20296077Y67784815D01*
X-20264743Y67755990D01*
X-20242282Y67726718D01*
X-20116841Y67630464D01*
X-19970762Y67569956D01*
X-19892381Y67559637D01*
X-19814001Y67549318D01*
X-19814000Y67549318D01*
X-19813999Y67549318D01*
X-19761746Y67556198D01*
X-19657238Y67569956D01*
X-19511159Y67630464D01*
X-19385718Y67726718D01*
X-19289464Y67852159D01*
X-19228956Y67998238D01*
X-19208318Y68155000D01*
X-19228956Y68311762D01*
X-19289464Y68457841D01*
X-19385718Y68583282D01*
X-19511159Y68679536D01*
X-19604558Y68718223D01*
X-19657238Y68740044D01*
X-19657240Y68740045D01*
X-19813999Y68760682D01*
X-19814001Y68760682D01*
X-19970761Y68740045D01*
X-19970763Y68740044D01*
X-20116840Y68679537D01*
X-20116841Y68679536D01*
X-20242282Y68583282D01*
X-20264742Y68554012D01*
X-20321168Y68512811D01*
X-20363116Y68505500D01*
X-22660144Y68505500D01*
X-22749288Y68481614D01*
X-22749289Y68481614D01*
X-22749291Y68481613D01*
X-22749294Y68481612D01*
X-22829206Y68435474D01*
X-22829215Y68435467D01*
X-24094469Y67170214D01*
X-24094473Y67170209D01*
X-24140613Y67090291D01*
X-24140614Y67090288D01*
X-24164500Y67001144D01*
X-24914000Y67001144D01*
X-24914000Y83642242D01*
X-11410500Y83642242D01*
X-11410500Y83412759D01*
X-11385554Y83223285D01*
X-11380548Y83185262D01*
X-11380547Y83185260D01*
X-11321158Y82963613D01*
X-11233350Y82751624D01*
X-11233343Y82751610D01*
X-11118608Y82552883D01*
X-10978919Y82370839D01*
X-10978911Y82370830D01*
X-10816670Y82208589D01*
X-10816662Y82208582D01*
X-10634618Y82068893D01*
X-10634615Y82068892D01*
X-10634612Y82068889D01*
X-10435888Y81954156D01*
X-10435883Y81954154D01*
X-10435877Y81954151D01*
X-10344520Y81916310D01*
X-10223887Y81866342D01*
X-10002238Y81806952D01*
X-9774734Y81777000D01*
X-9774727Y81777000D01*
X-9545273Y81777000D01*
X-9545266Y81777000D01*
X-9317762Y81806952D01*
X-9096113Y81866342D01*
X-8884112Y81954156D01*
X-8685388Y82068889D01*
X-8503339Y82208581D01*
X-8503335Y82208586D01*
X-8503330Y82208589D01*
X-8341089Y82370830D01*
X-8341086Y82370835D01*
X-8341081Y82370839D01*
X-8201389Y82552888D01*
X-8086656Y82751612D01*
X-7998842Y82963613D01*
X-7939452Y83185262D01*
X-7909500Y83412766D01*
X-7909500Y83642234D01*
X-7939452Y83869738D01*
X-7998842Y84091387D01*
X-8086656Y84303388D01*
X-8201389Y84502112D01*
X-8201392Y84502115D01*
X-8201393Y84502118D01*
X-8341082Y84684162D01*
X-8341089Y84684170D01*
X-8503330Y84846411D01*
X-8503339Y84846419D01*
X-8685383Y84986108D01*
X-8884110Y85100843D01*
X-8884124Y85100850D01*
X-9096113Y85188658D01*
X-9317762Y85248048D01*
X-9355785Y85253054D01*
X-9545259Y85278000D01*
X-9545266Y85278000D01*
X-9774734Y85278000D01*
X-9774742Y85278000D01*
X-9991285Y85249491D01*
X-10002238Y85248048D01*
X-10095924Y85222946D01*
X-10223888Y85188658D01*
X-10435877Y85100850D01*
X-10435891Y85100843D01*
X-10634618Y84986108D01*
X-10816662Y84846419D01*
X-10978919Y84684162D01*
X-11118608Y84502118D01*
X-11233343Y84303391D01*
X-11233350Y84303377D01*
X-11321158Y84091388D01*
X-11380547Y83869741D01*
X-11380549Y83869730D01*
X-11410500Y83642242D01*
X-24914000Y83642242D01*
X-24914000Y85700354D01*
X-24894315Y85767393D01*
X-24841511Y85813148D01*
X-24789875Y85824354D01*
X-1437870Y85800129D01*
G37*
%TD.AperFunction*%
%TD*%
%TA.AperFunction,Conductor*%
%TO.N,GND*%
G36*
X-6123132Y56993661D02*
G01*
X-6123127Y56993661D01*
X-6123124Y56993660D01*
X-6072000Y56988625D01*
X-6024514Y56983948D01*
X-6024512Y56983948D01*
X-5075489Y56983948D01*
X-5075487Y56983948D01*
X-5038301Y56985318D01*
X-5001765Y56988013D01*
X-4966630Y56995451D01*
X-4896968Y56990078D01*
X-4853268Y56961821D01*
X-4437575Y56546129D01*
X-4496853Y56530245D01*
X-4613147Y56463102D01*
X-4708102Y56368147D01*
X-4775245Y56251853D01*
X-4791129Y56192576D01*
X-5169466Y56570913D01*
X-5237633Y56443380D01*
X-5295387Y56252992D01*
X-5314887Y56055000D01*
X-5295387Y55857009D01*
X-5237631Y55666614D01*
X-5169467Y55539089D01*
X-5169466Y55539089D01*
X-4791129Y55917426D01*
X-4775245Y55858147D01*
X-4708102Y55741853D01*
X-4613147Y55646898D01*
X-4496853Y55579755D01*
X-4437576Y55563872D01*
X-4815914Y55185535D01*
X-4688386Y55117370D01*
X-4497992Y55059614D01*
X-4300000Y55040114D01*
X-4102009Y55059614D01*
X-3911617Y55117369D01*
X-3784088Y55185536D01*
X-4162425Y55563873D01*
X-4103147Y55579755D01*
X-3986853Y55646898D01*
X-3891898Y55741853D01*
X-3824755Y55858147D01*
X-3808872Y55917425D01*
X-3430535Y55539088D01*
X-3362369Y55666617D01*
X-3304614Y55857009D01*
X-3285114Y56055000D01*
X-3304614Y56252992D01*
X-3362370Y56443386D01*
X-3430535Y56570914D01*
X-3808873Y56192577D01*
X-3824755Y56251853D01*
X-3891898Y56368147D01*
X-3986853Y56463102D01*
X-4103147Y56530245D01*
X-4162426Y56546129D01*
X-3755083Y56953472D01*
X-3693760Y56986957D01*
X-3641739Y56987106D01*
X-3637443Y56986198D01*
X-3633569Y56985378D01*
X-3559154Y56977137D01*
X-3535084Y56974471D01*
X-3535083Y56974471D01*
X-3535074Y56974470D01*
X-3013757Y56968151D01*
X-2661503Y56238483D01*
X-2561503Y52688483D01*
X-4061503Y51338483D01*
X-14611503Y51438483D01*
X-16161503Y52838483D01*
X-16153067Y53055000D01*
X-15314887Y53055000D01*
X-15295387Y52857009D01*
X-15237631Y52666614D01*
X-15169467Y52539089D01*
X-15169466Y52539089D01*
X-14791129Y52917426D01*
X-14775245Y52858147D01*
X-14708102Y52741853D01*
X-14613147Y52646898D01*
X-14496853Y52579755D01*
X-14437576Y52563872D01*
X-14815914Y52185535D01*
X-14688386Y52117370D01*
X-14497992Y52059614D01*
X-14300000Y52040114D01*
X-14102009Y52059614D01*
X-13911617Y52117369D01*
X-13784088Y52185536D01*
X-14162425Y52563873D01*
X-14103147Y52579755D01*
X-13986853Y52646898D01*
X-13891898Y52741853D01*
X-13824755Y52858147D01*
X-13808872Y52917425D01*
X-13430536Y52539089D01*
X-13362369Y52666617D01*
X-13304614Y52857009D01*
X-13285114Y53055000D01*
X-12814887Y53055000D01*
X-12795387Y52857009D01*
X-12737631Y52666614D01*
X-12669467Y52539089D01*
X-12669466Y52539089D01*
X-12291129Y52917426D01*
X-12275245Y52858147D01*
X-12208102Y52741853D01*
X-12113147Y52646898D01*
X-11996853Y52579755D01*
X-11937576Y52563872D01*
X-12315914Y52185535D01*
X-12188386Y52117370D01*
X-11997992Y52059614D01*
X-11800000Y52040114D01*
X-11602009Y52059614D01*
X-11411617Y52117369D01*
X-11284088Y52185536D01*
X-11662425Y52563873D01*
X-11603147Y52579755D01*
X-11486853Y52646898D01*
X-11391898Y52741853D01*
X-11324755Y52858147D01*
X-11308872Y52917425D01*
X-10930536Y52539089D01*
X-10862369Y52666617D01*
X-10804614Y52857009D01*
X-10785114Y53055000D01*
X-10314887Y53055000D01*
X-10295387Y52857009D01*
X-10237631Y52666614D01*
X-10169467Y52539089D01*
X-10169466Y52539089D01*
X-9791129Y52917426D01*
X-9775245Y52858147D01*
X-9708102Y52741853D01*
X-9613147Y52646898D01*
X-9496853Y52579755D01*
X-9437576Y52563872D01*
X-9815914Y52185535D01*
X-9688386Y52117370D01*
X-9497992Y52059614D01*
X-9300000Y52040114D01*
X-9102009Y52059614D01*
X-8911617Y52117369D01*
X-8784088Y52185536D01*
X-9162425Y52563873D01*
X-9103147Y52579755D01*
X-8986853Y52646898D01*
X-8891898Y52741853D01*
X-8824755Y52858147D01*
X-8808872Y52917425D01*
X-8430536Y52539089D01*
X-8362369Y52666617D01*
X-8304614Y52857009D01*
X-8285114Y53055000D01*
X-7814887Y53055000D01*
X-7795387Y52857009D01*
X-7737631Y52666614D01*
X-7669467Y52539089D01*
X-7669466Y52539089D01*
X-7291129Y52917426D01*
X-7275245Y52858147D01*
X-7208102Y52741853D01*
X-7113147Y52646898D01*
X-6996853Y52579755D01*
X-6937576Y52563872D01*
X-7315914Y52185535D01*
X-7188386Y52117370D01*
X-6997992Y52059614D01*
X-6800000Y52040114D01*
X-6602009Y52059614D01*
X-6411617Y52117369D01*
X-6284088Y52185536D01*
X-6662425Y52563873D01*
X-6603147Y52579755D01*
X-6486853Y52646898D01*
X-6391898Y52741853D01*
X-6324755Y52858147D01*
X-6308872Y52917425D01*
X-5930536Y52539089D01*
X-5862369Y52666617D01*
X-5804614Y52857009D01*
X-5785114Y53055000D01*
X-5314887Y53055000D01*
X-5295387Y52857009D01*
X-5237631Y52666614D01*
X-5169467Y52539089D01*
X-5169466Y52539089D01*
X-4791129Y52917426D01*
X-4775245Y52858147D01*
X-4708102Y52741853D01*
X-4613147Y52646898D01*
X-4496853Y52579755D01*
X-4437576Y52563872D01*
X-4815914Y52185535D01*
X-4688386Y52117370D01*
X-4497992Y52059614D01*
X-4300000Y52040114D01*
X-4102009Y52059614D01*
X-3911617Y52117369D01*
X-3784088Y52185536D01*
X-4162425Y52563873D01*
X-4103147Y52579755D01*
X-3986853Y52646898D01*
X-3891898Y52741853D01*
X-3824755Y52858147D01*
X-3808872Y52917425D01*
X-3430535Y52539088D01*
X-3362369Y52666617D01*
X-3304614Y52857009D01*
X-3285114Y53055000D01*
X-3304614Y53252992D01*
X-3362370Y53443386D01*
X-3430535Y53570914D01*
X-3808873Y53192577D01*
X-3824755Y53251853D01*
X-3891898Y53368147D01*
X-3986853Y53463102D01*
X-4103147Y53530245D01*
X-4162426Y53546129D01*
X-3784089Y53924466D01*
X-3784089Y53924467D01*
X-3911614Y53992631D01*
X-4102009Y54050387D01*
X-4300000Y54069887D01*
X-4497992Y54050387D01*
X-4688380Y53992633D01*
X-4815913Y53924466D01*
X-4437575Y53546129D01*
X-4496853Y53530245D01*
X-4613147Y53463102D01*
X-4708102Y53368147D01*
X-4775245Y53251853D01*
X-4791129Y53192576D01*
X-5169466Y53570913D01*
X-5237633Y53443380D01*
X-5295387Y53252992D01*
X-5314887Y53055000D01*
X-5785114Y53055000D01*
X-5804614Y53252992D01*
X-5862370Y53443386D01*
X-5930535Y53570914D01*
X-6308873Y53192577D01*
X-6324755Y53251853D01*
X-6391898Y53368147D01*
X-6486853Y53463102D01*
X-6603147Y53530245D01*
X-6662426Y53546129D01*
X-6284089Y53924466D01*
X-6284089Y53924467D01*
X-6411614Y53992631D01*
X-6602009Y54050387D01*
X-6800000Y54069887D01*
X-6997992Y54050387D01*
X-7188380Y53992633D01*
X-7315913Y53924466D01*
X-6937575Y53546129D01*
X-6996853Y53530245D01*
X-7113147Y53463102D01*
X-7208102Y53368147D01*
X-7275245Y53251853D01*
X-7291129Y53192576D01*
X-7669466Y53570913D01*
X-7737633Y53443380D01*
X-7795387Y53252992D01*
X-7814887Y53055000D01*
X-8285114Y53055000D01*
X-8304614Y53252992D01*
X-8362370Y53443386D01*
X-8430535Y53570914D01*
X-8808873Y53192577D01*
X-8824755Y53251853D01*
X-8891898Y53368147D01*
X-8986853Y53463102D01*
X-9103147Y53530245D01*
X-9162426Y53546129D01*
X-8784089Y53924466D01*
X-8784089Y53924467D01*
X-8911614Y53992631D01*
X-9102009Y54050387D01*
X-9300000Y54069887D01*
X-9497992Y54050387D01*
X-9688380Y53992633D01*
X-9815913Y53924466D01*
X-9437575Y53546129D01*
X-9496853Y53530245D01*
X-9613147Y53463102D01*
X-9708102Y53368147D01*
X-9775245Y53251853D01*
X-9791129Y53192576D01*
X-10169466Y53570913D01*
X-10237633Y53443380D01*
X-10295387Y53252992D01*
X-10314887Y53055000D01*
X-10785114Y53055000D01*
X-10804614Y53252992D01*
X-10862370Y53443386D01*
X-10930535Y53570914D01*
X-11308873Y53192577D01*
X-11324755Y53251853D01*
X-11391898Y53368147D01*
X-11486853Y53463102D01*
X-11603147Y53530245D01*
X-11662426Y53546129D01*
X-11284089Y53924466D01*
X-11284089Y53924467D01*
X-11411614Y53992631D01*
X-11602009Y54050387D01*
X-11800000Y54069887D01*
X-11997992Y54050387D01*
X-12188380Y53992633D01*
X-12315913Y53924466D01*
X-11937575Y53546129D01*
X-11996853Y53530245D01*
X-12113147Y53463102D01*
X-12208102Y53368147D01*
X-12275245Y53251853D01*
X-12291129Y53192576D01*
X-12669466Y53570913D01*
X-12737633Y53443380D01*
X-12795387Y53252992D01*
X-12814887Y53055000D01*
X-13285114Y53055000D01*
X-13304614Y53252992D01*
X-13362370Y53443386D01*
X-13430535Y53570914D01*
X-13808873Y53192577D01*
X-13824755Y53251853D01*
X-13891898Y53368147D01*
X-13986853Y53463102D01*
X-14103147Y53530245D01*
X-14162426Y53546129D01*
X-13784089Y53924466D01*
X-13784089Y53924467D01*
X-13911614Y53992631D01*
X-14102009Y54050387D01*
X-14300000Y54069887D01*
X-14497992Y54050387D01*
X-14688380Y53992633D01*
X-14815913Y53924466D01*
X-14437575Y53546129D01*
X-14496853Y53530245D01*
X-14613147Y53463102D01*
X-14708102Y53368147D01*
X-14775245Y53251853D01*
X-14791129Y53192576D01*
X-15169466Y53570913D01*
X-15237633Y53443380D01*
X-15295387Y53252992D01*
X-15314887Y53055000D01*
X-16153067Y53055000D01*
X-16011503Y56688483D01*
X-15554014Y56968881D01*
X-15064978Y56974808D01*
X-15030860Y56976376D01*
X-14997342Y56979053D01*
X-14958934Y56987306D01*
X-14889257Y56982146D01*
X-14845202Y56953755D01*
X-14437575Y56546129D01*
X-14496853Y56530245D01*
X-14613147Y56463102D01*
X-14708102Y56368147D01*
X-14775245Y56251853D01*
X-14791129Y56192576D01*
X-15169466Y56570913D01*
X-15237633Y56443380D01*
X-15295387Y56252992D01*
X-15314887Y56055000D01*
X-15295387Y55857009D01*
X-15237631Y55666614D01*
X-15169467Y55539089D01*
X-15169466Y55539089D01*
X-14791129Y55917426D01*
X-14775245Y55858147D01*
X-14708102Y55741853D01*
X-14613147Y55646898D01*
X-14496853Y55579755D01*
X-14437576Y55563872D01*
X-14815914Y55185535D01*
X-14688386Y55117370D01*
X-14497992Y55059614D01*
X-14300000Y55040114D01*
X-14102009Y55059614D01*
X-13911617Y55117369D01*
X-13784088Y55185536D01*
X-14162425Y55563873D01*
X-14103147Y55579755D01*
X-13986853Y55646898D01*
X-13891898Y55741853D01*
X-13824755Y55858147D01*
X-13808872Y55917425D01*
X-13430536Y55539089D01*
X-13362369Y55666617D01*
X-13304614Y55857009D01*
X-13285114Y56055000D01*
X-13304614Y56252992D01*
X-13362370Y56443386D01*
X-13430535Y56570914D01*
X-13808873Y56192577D01*
X-13824755Y56251853D01*
X-13891898Y56368147D01*
X-13986853Y56463102D01*
X-14103147Y56530245D01*
X-14162426Y56546129D01*
X-13746536Y56962019D01*
X-13685213Y56995504D01*
X-13634665Y56995955D01*
X-13623132Y56993661D01*
X-13623127Y56993661D01*
X-13623124Y56993660D01*
X-13572000Y56988625D01*
X-13524514Y56983948D01*
X-13524512Y56983948D01*
X-12575489Y56983948D01*
X-12575487Y56983948D01*
X-12538301Y56985318D01*
X-12501765Y56988013D01*
X-12466630Y56995451D01*
X-12396968Y56990078D01*
X-12353268Y56961821D01*
X-11937575Y56546129D01*
X-11996853Y56530245D01*
X-12113147Y56463102D01*
X-12208102Y56368147D01*
X-12275245Y56251853D01*
X-12291129Y56192576D01*
X-12669466Y56570913D01*
X-12737633Y56443380D01*
X-12795387Y56252992D01*
X-12814887Y56055000D01*
X-12795387Y55857009D01*
X-12737631Y55666614D01*
X-12669467Y55539089D01*
X-12669466Y55539089D01*
X-12291129Y55917426D01*
X-12275245Y55858147D01*
X-12208102Y55741853D01*
X-12113147Y55646898D01*
X-11996853Y55579755D01*
X-11937576Y55563872D01*
X-12315914Y55185535D01*
X-12188386Y55117370D01*
X-11997992Y55059614D01*
X-11800000Y55040114D01*
X-11602009Y55059614D01*
X-11411617Y55117369D01*
X-11284088Y55185536D01*
X-11662425Y55563873D01*
X-11603147Y55579755D01*
X-11486853Y55646898D01*
X-11391898Y55741853D01*
X-11324755Y55858147D01*
X-11308872Y55917425D01*
X-10930536Y55539089D01*
X-10862369Y55666617D01*
X-10804614Y55857009D01*
X-10785114Y56055000D01*
X-10804614Y56252992D01*
X-10862370Y56443386D01*
X-10930535Y56570914D01*
X-11308873Y56192577D01*
X-11324755Y56251853D01*
X-11391898Y56368147D01*
X-11486853Y56463102D01*
X-11603147Y56530245D01*
X-11662426Y56546129D01*
X-11246536Y56962019D01*
X-11185213Y56995504D01*
X-11134665Y56995955D01*
X-11123132Y56993661D01*
X-11123127Y56993661D01*
X-11123124Y56993660D01*
X-11072000Y56988625D01*
X-11024514Y56983948D01*
X-11024512Y56983948D01*
X-10075489Y56983948D01*
X-10075487Y56983948D01*
X-10038301Y56985318D01*
X-10001765Y56988013D01*
X-9966630Y56995451D01*
X-9896968Y56990078D01*
X-9853268Y56961821D01*
X-9437575Y56546129D01*
X-9496853Y56530245D01*
X-9613147Y56463102D01*
X-9708102Y56368147D01*
X-9775245Y56251853D01*
X-9791129Y56192576D01*
X-10169466Y56570913D01*
X-10237633Y56443380D01*
X-10295387Y56252992D01*
X-10314887Y56055000D01*
X-10295387Y55857009D01*
X-10237631Y55666614D01*
X-10169467Y55539089D01*
X-10169466Y55539089D01*
X-9791129Y55917426D01*
X-9775245Y55858147D01*
X-9708102Y55741853D01*
X-9613147Y55646898D01*
X-9496853Y55579755D01*
X-9437576Y55563872D01*
X-9815914Y55185535D01*
X-9688386Y55117370D01*
X-9497992Y55059614D01*
X-9300000Y55040114D01*
X-9102009Y55059614D01*
X-8911617Y55117369D01*
X-8784088Y55185536D01*
X-9162425Y55563873D01*
X-9103147Y55579755D01*
X-8986853Y55646898D01*
X-8891898Y55741853D01*
X-8824755Y55858147D01*
X-8808872Y55917425D01*
X-8430536Y55539089D01*
X-8362369Y55666617D01*
X-8304614Y55857009D01*
X-8285114Y56055000D01*
X-8304614Y56252992D01*
X-8362370Y56443386D01*
X-8430535Y56570914D01*
X-8808873Y56192577D01*
X-8824755Y56251853D01*
X-8891898Y56368147D01*
X-8986853Y56463102D01*
X-9103147Y56530245D01*
X-9162426Y56546129D01*
X-8746536Y56962019D01*
X-8685213Y56995504D01*
X-8634665Y56995955D01*
X-8623132Y56993661D01*
X-8623127Y56993661D01*
X-8623124Y56993660D01*
X-8572000Y56988625D01*
X-8524514Y56983948D01*
X-8524512Y56983948D01*
X-7575489Y56983948D01*
X-7575487Y56983948D01*
X-7538301Y56985318D01*
X-7501765Y56988013D01*
X-7466630Y56995451D01*
X-7396968Y56990078D01*
X-7353268Y56961821D01*
X-6937575Y56546129D01*
X-6996853Y56530245D01*
X-7113147Y56463102D01*
X-7208102Y56368147D01*
X-7275245Y56251853D01*
X-7291129Y56192576D01*
X-7669466Y56570913D01*
X-7737633Y56443380D01*
X-7795387Y56252992D01*
X-7814887Y56055000D01*
X-7795387Y55857009D01*
X-7737631Y55666614D01*
X-7669467Y55539089D01*
X-7669466Y55539089D01*
X-7291129Y55917426D01*
X-7275245Y55858147D01*
X-7208102Y55741853D01*
X-7113147Y55646898D01*
X-6996853Y55579755D01*
X-6937576Y55563872D01*
X-7315914Y55185535D01*
X-7188386Y55117370D01*
X-6997992Y55059614D01*
X-6800000Y55040114D01*
X-6602009Y55059614D01*
X-6411617Y55117369D01*
X-6284088Y55185536D01*
X-6662425Y55563873D01*
X-6603147Y55579755D01*
X-6486853Y55646898D01*
X-6391898Y55741853D01*
X-6324755Y55858147D01*
X-6308872Y55917425D01*
X-5930536Y55539089D01*
X-5862369Y55666617D01*
X-5804614Y55857009D01*
X-5785114Y56055000D01*
X-5804614Y56252992D01*
X-5862370Y56443386D01*
X-5930535Y56570914D01*
X-6308873Y56192577D01*
X-6324755Y56251853D01*
X-6391898Y56368147D01*
X-6486853Y56463102D01*
X-6603147Y56530245D01*
X-6662426Y56546129D01*
X-6246536Y56962019D01*
X-6185213Y56995504D01*
X-6134665Y56995955D01*
X-6123132Y56993661D01*
G37*
%TD.AperFunction*%
%TD*%
%TA.AperFunction,Conductor*%
%TO.N,GND*%
G36*
X-3964000Y34775000D02*
G01*
X-2564500Y33510936D01*
X-2564500Y29524694D01*
X-3303042Y29072039D01*
X-3365433Y29071898D01*
X-3432517Y29091432D01*
X-3478391Y29144132D01*
X-3488490Y29213268D01*
X-3461561Y29274569D01*
X-3456154Y29281157D01*
X-3362368Y29456621D01*
X-3304614Y29647009D01*
X-3285114Y29845000D01*
X-3304614Y30042992D01*
X-3362370Y30233386D01*
X-3430535Y30360914D01*
X-3808873Y29982577D01*
X-3824755Y30041853D01*
X-3891898Y30158147D01*
X-3986853Y30253102D01*
X-4103147Y30320245D01*
X-4162426Y30336129D01*
X-3784089Y30714466D01*
X-3784089Y30714467D01*
X-3911614Y30782631D01*
X-4102009Y30840387D01*
X-4300000Y30859887D01*
X-4497992Y30840387D01*
X-4688380Y30782633D01*
X-4815913Y30714466D01*
X-4437575Y30336129D01*
X-4496853Y30320245D01*
X-4613147Y30253102D01*
X-4708102Y30158147D01*
X-4775245Y30041853D01*
X-4791129Y29982576D01*
X-5169466Y30360913D01*
X-5237633Y30233380D01*
X-5295387Y30042992D01*
X-5314887Y29845000D01*
X-5295387Y29647009D01*
X-5237633Y29456621D01*
X-5143846Y29281155D01*
X-5134984Y29270358D01*
X-5107669Y29206049D01*
X-5119459Y29137181D01*
X-5166610Y29085620D01*
X-5230555Y29067691D01*
X-5870070Y29066248D01*
X-5937154Y29085782D01*
X-5983028Y29138482D01*
X-5993127Y29207618D01*
X-5966199Y29268917D01*
X-5956156Y29281155D01*
X-5862368Y29456621D01*
X-5804614Y29647009D01*
X-5785114Y29845000D01*
X-5804614Y30042992D01*
X-5862370Y30233386D01*
X-5930535Y30360914D01*
X-6308873Y29982577D01*
X-6324755Y30041853D01*
X-6391898Y30158147D01*
X-6486853Y30253102D01*
X-6603147Y30320245D01*
X-6662426Y30336129D01*
X-6284089Y30714466D01*
X-6284089Y30714467D01*
X-6411614Y30782631D01*
X-6602009Y30840387D01*
X-6800000Y30859887D01*
X-6997992Y30840387D01*
X-7188380Y30782633D01*
X-7315913Y30714466D01*
X-6937575Y30336129D01*
X-6996853Y30320245D01*
X-7113147Y30253102D01*
X-7208102Y30158147D01*
X-7275245Y30041853D01*
X-7291129Y29982576D01*
X-7669466Y30360913D01*
X-7737633Y30233380D01*
X-7795387Y30042992D01*
X-7814887Y29845000D01*
X-7795387Y29647009D01*
X-7737633Y29456621D01*
X-7643846Y29281156D01*
X-7630363Y29264727D01*
X-7603050Y29200417D01*
X-7614841Y29131549D01*
X-7661993Y29079989D01*
X-7725936Y29062062D01*
X-8374706Y29060599D01*
X-8441790Y29080133D01*
X-8487664Y29132833D01*
X-8497763Y29201969D01*
X-8470836Y29263267D01*
X-8456156Y29281155D01*
X-8362368Y29456621D01*
X-8304614Y29647009D01*
X-8285114Y29845000D01*
X-8304614Y30042992D01*
X-8362370Y30233386D01*
X-8430535Y30360914D01*
X-8808873Y29982577D01*
X-8824755Y30041853D01*
X-8891898Y30158147D01*
X-8986853Y30253102D01*
X-9103147Y30320245D01*
X-9162426Y30336129D01*
X-8784089Y30714466D01*
X-8784089Y30714467D01*
X-8911614Y30782631D01*
X-9102009Y30840387D01*
X-9300000Y30859887D01*
X-9497992Y30840387D01*
X-9688380Y30782633D01*
X-9815913Y30714466D01*
X-9437575Y30336129D01*
X-9496853Y30320245D01*
X-9613147Y30253102D01*
X-9708102Y30158147D01*
X-9775245Y30041853D01*
X-9791129Y29982576D01*
X-10169466Y30360913D01*
X-10237633Y30233380D01*
X-10295387Y30042992D01*
X-10314887Y29845000D01*
X-10295387Y29647009D01*
X-10237633Y29456621D01*
X-10143846Y29281156D01*
X-10125743Y29259097D01*
X-10098431Y29194786D01*
X-10110223Y29125919D01*
X-10157376Y29074359D01*
X-10221317Y29056433D01*
X-10879343Y29054949D01*
X-10946427Y29074483D01*
X-10992301Y29127183D01*
X-11002400Y29196319D01*
X-10975474Y29257617D01*
X-10956154Y29281158D01*
X-10862368Y29456621D01*
X-10804614Y29647009D01*
X-10785114Y29845000D01*
X-10804614Y30042992D01*
X-10862370Y30233386D01*
X-10930535Y30360914D01*
X-11308873Y29982577D01*
X-11324755Y30041853D01*
X-11391898Y30158147D01*
X-11486853Y30253102D01*
X-11603147Y30320245D01*
X-11662426Y30336129D01*
X-11284089Y30714466D01*
X-11284089Y30714467D01*
X-11411614Y30782631D01*
X-11602009Y30840387D01*
X-11800000Y30859887D01*
X-11997992Y30840387D01*
X-12188380Y30782633D01*
X-12315913Y30714466D01*
X-11937575Y30336129D01*
X-11996853Y30320245D01*
X-12113147Y30253102D01*
X-12208102Y30158147D01*
X-12275245Y30041853D01*
X-12291129Y29982576D01*
X-12669466Y30360913D01*
X-12737633Y30233380D01*
X-12795387Y30042992D01*
X-12814887Y29845000D01*
X-12795387Y29647009D01*
X-12737633Y29456621D01*
X-12643846Y29281155D01*
X-12621125Y29253471D01*
X-12593811Y29189161D01*
X-12605601Y29120294D01*
X-12652753Y29068733D01*
X-12716697Y29050805D01*
X-13383979Y29049300D01*
X-13451063Y29068834D01*
X-13496937Y29121534D01*
X-13507036Y29190670D01*
X-13480110Y29251967D01*
X-13456155Y29281155D01*
X-13362368Y29456621D01*
X-13304614Y29647009D01*
X-13285114Y29845000D01*
X-13304614Y30042992D01*
X-13362370Y30233386D01*
X-13430535Y30360914D01*
X-13808873Y29982577D01*
X-13824755Y30041853D01*
X-13891898Y30158147D01*
X-13986853Y30253102D01*
X-14103147Y30320245D01*
X-14162426Y30336129D01*
X-13784089Y30714466D01*
X-13784089Y30714467D01*
X-13911614Y30782631D01*
X-14102009Y30840387D01*
X-14300000Y30859887D01*
X-14497992Y30840387D01*
X-14688380Y30782633D01*
X-14815913Y30714466D01*
X-14437575Y30336129D01*
X-14496853Y30320245D01*
X-14613147Y30253102D01*
X-14708102Y30158147D01*
X-14775245Y30041853D01*
X-14791129Y29982576D01*
X-15169466Y30360913D01*
X-15237633Y30233380D01*
X-15295387Y30042992D01*
X-15314887Y29845000D01*
X-15295387Y29647009D01*
X-15237633Y29456621D01*
X-15143846Y29281156D01*
X-15116505Y29247841D01*
X-15089192Y29183531D01*
X-15100983Y29114663D01*
X-15148135Y29063103D01*
X-15212078Y29045176D01*
X-15464845Y29044606D01*
X-15914000Y29975000D01*
X-15945242Y31084077D01*
X-15733530Y31295788D01*
X-15687386Y31375712D01*
X-15663500Y31464856D01*
X-15663500Y31557144D01*
X-15663500Y32845000D01*
X-15314887Y32845000D01*
X-15295387Y32647009D01*
X-15237631Y32456614D01*
X-15169467Y32329089D01*
X-15169466Y32329089D01*
X-14791129Y32707426D01*
X-14775245Y32648147D01*
X-14708102Y32531853D01*
X-14613147Y32436898D01*
X-14496853Y32369755D01*
X-14437576Y32353872D01*
X-14815914Y31975535D01*
X-14688386Y31907370D01*
X-14497992Y31849614D01*
X-14300000Y31830114D01*
X-14102009Y31849614D01*
X-13911617Y31907369D01*
X-13784088Y31975536D01*
X-14162425Y32353873D01*
X-14103147Y32369755D01*
X-13986853Y32436898D01*
X-13891898Y32531853D01*
X-13824755Y32648147D01*
X-13808872Y32707425D01*
X-13430536Y32329089D01*
X-13362369Y32456617D01*
X-13304614Y32647009D01*
X-13285114Y32845000D01*
X-12814887Y32845000D01*
X-12795387Y32647009D01*
X-12737631Y32456614D01*
X-12669467Y32329089D01*
X-12669466Y32329089D01*
X-12291129Y32707426D01*
X-12275245Y32648147D01*
X-12208102Y32531853D01*
X-12113147Y32436898D01*
X-11996853Y32369755D01*
X-11937576Y32353872D01*
X-12315914Y31975535D01*
X-12188386Y31907370D01*
X-11997992Y31849614D01*
X-11800000Y31830114D01*
X-11602009Y31849614D01*
X-11411617Y31907369D01*
X-11284088Y31975536D01*
X-11662425Y32353873D01*
X-11603147Y32369755D01*
X-11486853Y32436898D01*
X-11391898Y32531853D01*
X-11324755Y32648147D01*
X-11308872Y32707425D01*
X-10930536Y32329089D01*
X-10862369Y32456617D01*
X-10804614Y32647009D01*
X-10785114Y32845000D01*
X-10314887Y32845000D01*
X-10295387Y32647009D01*
X-10237631Y32456614D01*
X-10169467Y32329089D01*
X-10169466Y32329089D01*
X-9791129Y32707426D01*
X-9775245Y32648147D01*
X-9708102Y32531853D01*
X-9613147Y32436898D01*
X-9496853Y32369755D01*
X-9437576Y32353872D01*
X-9815914Y31975535D01*
X-9688386Y31907370D01*
X-9497992Y31849614D01*
X-9300000Y31830114D01*
X-9102009Y31849614D01*
X-8911617Y31907369D01*
X-8784088Y31975536D01*
X-9162425Y32353873D01*
X-9103147Y32369755D01*
X-8986853Y32436898D01*
X-8891898Y32531853D01*
X-8824755Y32648147D01*
X-8808872Y32707425D01*
X-8430536Y32329089D01*
X-8362369Y32456617D01*
X-8304614Y32647009D01*
X-8285114Y32845000D01*
X-7814887Y32845000D01*
X-7795387Y32647009D01*
X-7737631Y32456614D01*
X-7669467Y32329089D01*
X-7669466Y32329089D01*
X-7291129Y32707426D01*
X-7275245Y32648147D01*
X-7208102Y32531853D01*
X-7113147Y32436898D01*
X-6996853Y32369755D01*
X-6937576Y32353872D01*
X-7315914Y31975535D01*
X-7188386Y31907370D01*
X-6997992Y31849614D01*
X-6800000Y31830114D01*
X-6602009Y31849614D01*
X-6411617Y31907369D01*
X-6284088Y31975536D01*
X-6662425Y32353873D01*
X-6603147Y32369755D01*
X-6486853Y32436898D01*
X-6391898Y32531853D01*
X-6324755Y32648147D01*
X-6308872Y32707425D01*
X-5930536Y32329089D01*
X-5862369Y32456617D01*
X-5804614Y32647009D01*
X-5785114Y32845000D01*
X-5314887Y32845000D01*
X-5295387Y32647009D01*
X-5237631Y32456614D01*
X-5169467Y32329089D01*
X-5169466Y32329089D01*
X-4791129Y32707426D01*
X-4775245Y32648147D01*
X-4708102Y32531853D01*
X-4613147Y32436898D01*
X-4496853Y32369755D01*
X-4437576Y32353872D01*
X-4815914Y31975535D01*
X-4688386Y31907370D01*
X-4497992Y31849614D01*
X-4300000Y31830114D01*
X-4102009Y31849614D01*
X-3911617Y31907369D01*
X-3784088Y31975536D01*
X-4162425Y32353873D01*
X-4103147Y32369755D01*
X-3986853Y32436898D01*
X-3891898Y32531853D01*
X-3824755Y32648147D01*
X-3808872Y32707425D01*
X-3430535Y32329088D01*
X-3362369Y32456617D01*
X-3304614Y32647009D01*
X-3285114Y32845000D01*
X-3304614Y33042992D01*
X-3362370Y33233386D01*
X-3430535Y33360914D01*
X-3808873Y32982577D01*
X-3824755Y33041853D01*
X-3891898Y33158147D01*
X-3986853Y33253102D01*
X-4103147Y33320245D01*
X-4162426Y33336129D01*
X-3784089Y33714466D01*
X-3784089Y33714467D01*
X-3911614Y33782631D01*
X-4102009Y33840387D01*
X-4300000Y33859887D01*
X-4497992Y33840387D01*
X-4688380Y33782633D01*
X-4815913Y33714466D01*
X-4437575Y33336129D01*
X-4496853Y33320245D01*
X-4613147Y33253102D01*
X-4708102Y33158147D01*
X-4775245Y33041853D01*
X-4791129Y32982576D01*
X-5169466Y33360913D01*
X-5237633Y33233380D01*
X-5295387Y33042992D01*
X-5314887Y32845000D01*
X-5785114Y32845000D01*
X-5804614Y33042992D01*
X-5862370Y33233386D01*
X-5930535Y33360914D01*
X-6308873Y32982577D01*
X-6324755Y33041853D01*
X-6391898Y33158147D01*
X-6486853Y33253102D01*
X-6603147Y33320245D01*
X-6662426Y33336129D01*
X-6284089Y33714466D01*
X-6284089Y33714467D01*
X-6411614Y33782631D01*
X-6602009Y33840387D01*
X-6800000Y33859887D01*
X-6997992Y33840387D01*
X-7188380Y33782633D01*
X-7315913Y33714466D01*
X-6937575Y33336129D01*
X-6996853Y33320245D01*
X-7113147Y33253102D01*
X-7208102Y33158147D01*
X-7275245Y33041853D01*
X-7291129Y32982576D01*
X-7669466Y33360913D01*
X-7737633Y33233380D01*
X-7795387Y33042992D01*
X-7814887Y32845000D01*
X-8285114Y32845000D01*
X-8304614Y33042992D01*
X-8362370Y33233386D01*
X-8430535Y33360914D01*
X-8808873Y32982577D01*
X-8824755Y33041853D01*
X-8891898Y33158147D01*
X-8986853Y33253102D01*
X-9103147Y33320245D01*
X-9162426Y33336129D01*
X-8784089Y33714466D01*
X-8784089Y33714467D01*
X-8911614Y33782631D01*
X-9102009Y33840387D01*
X-9300000Y33859887D01*
X-9497992Y33840387D01*
X-9688380Y33782633D01*
X-9815913Y33714466D01*
X-9437575Y33336129D01*
X-9496853Y33320245D01*
X-9613147Y33253102D01*
X-9708102Y33158147D01*
X-9775245Y33041853D01*
X-9791129Y32982576D01*
X-10169466Y33360913D01*
X-10237633Y33233380D01*
X-10295387Y33042992D01*
X-10314887Y32845000D01*
X-10785114Y32845000D01*
X-10804614Y33042992D01*
X-10862370Y33233386D01*
X-10930535Y33360914D01*
X-11308873Y32982577D01*
X-11324755Y33041853D01*
X-11391898Y33158147D01*
X-11486853Y33253102D01*
X-11603147Y33320245D01*
X-11662426Y33336129D01*
X-11284089Y33714466D01*
X-11284089Y33714467D01*
X-11411614Y33782631D01*
X-11602009Y33840387D01*
X-11800000Y33859887D01*
X-11997992Y33840387D01*
X-12188380Y33782633D01*
X-12315913Y33714466D01*
X-11937575Y33336129D01*
X-11996853Y33320245D01*
X-12113147Y33253102D01*
X-12208102Y33158147D01*
X-12275245Y33041853D01*
X-12291129Y32982576D01*
X-12669466Y33360913D01*
X-12737633Y33233380D01*
X-12795387Y33042992D01*
X-12814887Y32845000D01*
X-13285114Y32845000D01*
X-13304614Y33042992D01*
X-13362370Y33233386D01*
X-13430535Y33360914D01*
X-13808873Y32982577D01*
X-13824755Y33041853D01*
X-13891898Y33158147D01*
X-13986853Y33253102D01*
X-14103147Y33320245D01*
X-14162426Y33336129D01*
X-13784089Y33714466D01*
X-13784089Y33714467D01*
X-13911614Y33782631D01*
X-14102009Y33840387D01*
X-14300000Y33859887D01*
X-14497992Y33840387D01*
X-14688380Y33782633D01*
X-14815913Y33714466D01*
X-14437575Y33336129D01*
X-14496853Y33320245D01*
X-14613147Y33253102D01*
X-14708102Y33158147D01*
X-14775245Y33041853D01*
X-14791129Y32982576D01*
X-15169466Y33360913D01*
X-15237633Y33233380D01*
X-15295387Y33042992D01*
X-15314887Y32845000D01*
X-15663500Y32845000D01*
X-15663500Y33228457D01*
X-15643815Y33295496D01*
X-15627181Y33316138D01*
X-14255138Y34688181D01*
X-14193815Y34721666D01*
X-14167457Y34724500D01*
X-9617858Y34724500D01*
X-9617856Y34724500D01*
X-9528712Y34748386D01*
X-9448788Y34794530D01*
X-9416635Y34826684D01*
X-3964000Y34775000D01*
G37*
%TD.AperFunction*%
%TD*%
%TA.AperFunction,Conductor*%
%TO.N,/BATT_B*%
G36*
X-4958165Y28543849D02*
G01*
X-4877262Y28490055D01*
X-4823104Y28409396D01*
X-4803935Y28314151D01*
X-4806629Y28277052D01*
X-4815913Y28214468D01*
X-4437574Y27836129D01*
X-4496853Y27820245D01*
X-4613147Y27753102D01*
X-4708102Y27658147D01*
X-4775245Y27541853D01*
X-4791129Y27482574D01*
X-5169468Y27860913D01*
X-5237630Y27733389D01*
X-5237632Y27733384D01*
X-5295387Y27542994D01*
X-5302199Y27473822D01*
X-5330402Y27380851D01*
X-5356896Y27348569D01*
X-5311722Y27264053D01*
X-5302199Y27216178D01*
X-5295387Y27147006D01*
X-5237635Y26956625D01*
X-5237634Y26956622D01*
X-5169467Y26829089D01*
X-4791129Y27207427D01*
X-4775245Y27148147D01*
X-4708102Y27031853D01*
X-4613147Y26936898D01*
X-4496853Y26869755D01*
X-4437575Y26853872D01*
X-4815914Y26475535D01*
X-4688379Y26407367D01*
X-4497996Y26349615D01*
X-4300000Y26330114D01*
X-4102005Y26349615D01*
X-3911622Y26407367D01*
X-3784088Y26475535D01*
X-4162426Y26853872D01*
X-4103147Y26869755D01*
X-3986853Y26936898D01*
X-3891898Y27031853D01*
X-3824755Y27148147D01*
X-3808872Y27207426D01*
X-3430535Y26829088D01*
X-3362367Y26956623D01*
X-3351778Y26991527D01*
X-3305980Y27077210D01*
X-3230879Y27138845D01*
X-3137907Y27167048D01*
X-3041220Y27157525D01*
X-2955537Y27111727D01*
X-2893902Y27036626D01*
X-2865699Y26943654D01*
X-2864500Y26919247D01*
X-2864500Y24770754D01*
X-2883454Y24675466D01*
X-2937430Y24594684D01*
X-3018212Y24540708D01*
X-3113500Y24521754D01*
X-3208788Y24540708D01*
X-3289570Y24594684D01*
X-3343546Y24675466D01*
X-3351778Y24698473D01*
X-3362367Y24733379D01*
X-3430535Y24860914D01*
X-3808872Y24482576D01*
X-3824755Y24541853D01*
X-3891898Y24658147D01*
X-3986853Y24753102D01*
X-4103147Y24820245D01*
X-4162427Y24836129D01*
X-3784089Y25214467D01*
X-3911622Y25282634D01*
X-3911625Y25282635D01*
X-4102005Y25340386D01*
X-4300000Y25359887D01*
X-4497994Y25340387D01*
X-4688384Y25282632D01*
X-4688389Y25282630D01*
X-4815913Y25214468D01*
X-4437574Y24836129D01*
X-4496853Y24820245D01*
X-4613147Y24753102D01*
X-4708102Y24658147D01*
X-4775245Y24541853D01*
X-4791129Y24482574D01*
X-5169468Y24860913D01*
X-5237630Y24733389D01*
X-5237632Y24733384D01*
X-5295387Y24542994D01*
X-5302199Y24473822D01*
X-5330402Y24380851D01*
X-5356896Y24348569D01*
X-5311722Y24264053D01*
X-5302199Y24216178D01*
X-5295387Y24147006D01*
X-5237635Y23956625D01*
X-5237634Y23956622D01*
X-5169467Y23829089D01*
X-4791129Y24207427D01*
X-4775245Y24148147D01*
X-4708102Y24031853D01*
X-4613147Y23936898D01*
X-4496853Y23869755D01*
X-4437575Y23853872D01*
X-4815914Y23475535D01*
X-4688379Y23407367D01*
X-4497996Y23349615D01*
X-4300000Y23330114D01*
X-4102005Y23349615D01*
X-3911622Y23407367D01*
X-3784088Y23475535D01*
X-4162426Y23853872D01*
X-4103147Y23869755D01*
X-3986853Y23936898D01*
X-3891898Y24031853D01*
X-3824755Y24148147D01*
X-3808872Y24207426D01*
X-3430535Y23829088D01*
X-3362367Y23956623D01*
X-3351778Y23991527D01*
X-3305980Y24077210D01*
X-3230879Y24138845D01*
X-3137907Y24167048D01*
X-3041220Y24157525D01*
X-2955537Y24111727D01*
X-2893902Y24036626D01*
X-2865699Y23943654D01*
X-2864500Y23919247D01*
X-2864500Y22973164D01*
X-2883454Y22877876D01*
X-2937430Y22797094D01*
X-3018212Y22743118D01*
X-3113500Y22724164D01*
X-3116518Y22724182D01*
X-3977148Y22734613D01*
X-4264000Y22738090D01*
X-4264024Y22738090D01*
X-14263976Y22738090D01*
X-14264000Y22738090D01*
X-15035290Y22728742D01*
X-15661982Y22721145D01*
X-15757493Y22738943D01*
X-15838923Y22791936D01*
X-15893874Y22872058D01*
X-15913982Y22967109D01*
X-15914000Y22970127D01*
X-15914000Y24345000D01*
X-15314887Y24345000D01*
X-15295386Y24147005D01*
X-15237635Y23956625D01*
X-15237634Y23956622D01*
X-15169467Y23829089D01*
X-14791129Y24207427D01*
X-14775245Y24148147D01*
X-14708102Y24031853D01*
X-14613147Y23936898D01*
X-14496853Y23869755D01*
X-14437575Y23853872D01*
X-14815914Y23475535D01*
X-14688379Y23407367D01*
X-14497996Y23349615D01*
X-14300000Y23330114D01*
X-14102005Y23349615D01*
X-13911622Y23407367D01*
X-13784088Y23475535D01*
X-14162426Y23853872D01*
X-14103147Y23869755D01*
X-13986853Y23936898D01*
X-13891898Y24031853D01*
X-13824755Y24148147D01*
X-13808872Y24207426D01*
X-13430535Y23829088D01*
X-13362367Y23956622D01*
X-13304614Y24147006D01*
X-13297801Y24216178D01*
X-13269598Y24309150D01*
X-13243105Y24341433D01*
X-13246919Y24348569D01*
X-12856896Y24348569D01*
X-12811722Y24264053D01*
X-12802199Y24216178D01*
X-12795387Y24147006D01*
X-12737635Y23956625D01*
X-12737634Y23956622D01*
X-12669467Y23829089D01*
X-12291129Y24207427D01*
X-12275245Y24148147D01*
X-12208102Y24031853D01*
X-12113147Y23936898D01*
X-11996853Y23869755D01*
X-11937575Y23853872D01*
X-12315914Y23475535D01*
X-12188379Y23407367D01*
X-11997996Y23349615D01*
X-11800000Y23330114D01*
X-11602005Y23349615D01*
X-11411622Y23407367D01*
X-11284088Y23475535D01*
X-11662426Y23853872D01*
X-11603147Y23869755D01*
X-11486853Y23936898D01*
X-11391898Y24031853D01*
X-11324755Y24148147D01*
X-11308872Y24207426D01*
X-10930535Y23829088D01*
X-10862367Y23956622D01*
X-10804614Y24147006D01*
X-10797801Y24216178D01*
X-10769598Y24309150D01*
X-10743105Y24341433D01*
X-10746919Y24348569D01*
X-10356896Y24348569D01*
X-10311722Y24264053D01*
X-10302199Y24216178D01*
X-10295387Y24147006D01*
X-10237635Y23956625D01*
X-10237634Y23956622D01*
X-10169467Y23829089D01*
X-9791129Y24207427D01*
X-9775245Y24148147D01*
X-9708102Y24031853D01*
X-9613147Y23936898D01*
X-9496853Y23869755D01*
X-9437575Y23853872D01*
X-9815914Y23475535D01*
X-9688379Y23407367D01*
X-9497996Y23349615D01*
X-9300000Y23330114D01*
X-9102005Y23349615D01*
X-8911622Y23407367D01*
X-8784088Y23475535D01*
X-9162426Y23853872D01*
X-9103147Y23869755D01*
X-8986853Y23936898D01*
X-8891898Y24031853D01*
X-8824755Y24148147D01*
X-8808872Y24207426D01*
X-8430535Y23829088D01*
X-8362367Y23956622D01*
X-8304614Y24147006D01*
X-8297801Y24216178D01*
X-8269598Y24309150D01*
X-8243105Y24341433D01*
X-8246919Y24348569D01*
X-7856896Y24348569D01*
X-7811722Y24264053D01*
X-7802199Y24216178D01*
X-7795387Y24147006D01*
X-7737635Y23956625D01*
X-7737634Y23956622D01*
X-7669467Y23829089D01*
X-7291129Y24207427D01*
X-7275245Y24148147D01*
X-7208102Y24031853D01*
X-7113147Y23936898D01*
X-6996853Y23869755D01*
X-6937575Y23853872D01*
X-7315914Y23475535D01*
X-7188379Y23407367D01*
X-6997996Y23349615D01*
X-6800000Y23330114D01*
X-6602005Y23349615D01*
X-6411622Y23407367D01*
X-6284088Y23475535D01*
X-6662426Y23853872D01*
X-6603147Y23869755D01*
X-6486853Y23936898D01*
X-6391898Y24031853D01*
X-6324755Y24148147D01*
X-6308872Y24207426D01*
X-5930535Y23829088D01*
X-5862367Y23956622D01*
X-5804614Y24147006D01*
X-5797801Y24216178D01*
X-5769598Y24309150D01*
X-5743105Y24341433D01*
X-5788278Y24425948D01*
X-5797801Y24473822D01*
X-5804615Y24542996D01*
X-5862367Y24733379D01*
X-5930535Y24860914D01*
X-6308872Y24482576D01*
X-6324755Y24541853D01*
X-6391898Y24658147D01*
X-6486853Y24753102D01*
X-6603147Y24820245D01*
X-6662427Y24836129D01*
X-6284089Y25214467D01*
X-6411622Y25282634D01*
X-6411625Y25282635D01*
X-6602005Y25340386D01*
X-6800000Y25359887D01*
X-6997994Y25340387D01*
X-7188384Y25282632D01*
X-7188389Y25282630D01*
X-7315913Y25214468D01*
X-6937574Y24836129D01*
X-6996853Y24820245D01*
X-7113147Y24753102D01*
X-7208102Y24658147D01*
X-7275245Y24541853D01*
X-7291129Y24482574D01*
X-7669468Y24860913D01*
X-7737630Y24733389D01*
X-7737632Y24733384D01*
X-7795387Y24542994D01*
X-7802199Y24473822D01*
X-7830402Y24380851D01*
X-7856896Y24348569D01*
X-8246919Y24348569D01*
X-8288278Y24425948D01*
X-8297801Y24473822D01*
X-8304615Y24542996D01*
X-8362367Y24733379D01*
X-8430535Y24860914D01*
X-8808872Y24482576D01*
X-8824755Y24541853D01*
X-8891898Y24658147D01*
X-8986853Y24753102D01*
X-9103147Y24820245D01*
X-9162427Y24836129D01*
X-8784089Y25214467D01*
X-8911622Y25282634D01*
X-8911625Y25282635D01*
X-9102005Y25340386D01*
X-9300000Y25359887D01*
X-9497994Y25340387D01*
X-9688384Y25282632D01*
X-9688389Y25282630D01*
X-9815913Y25214468D01*
X-9437574Y24836129D01*
X-9496853Y24820245D01*
X-9613147Y24753102D01*
X-9708102Y24658147D01*
X-9775245Y24541853D01*
X-9791129Y24482574D01*
X-10169468Y24860913D01*
X-10237630Y24733389D01*
X-10237632Y24733384D01*
X-10295387Y24542994D01*
X-10302199Y24473822D01*
X-10330402Y24380851D01*
X-10356896Y24348569D01*
X-10746919Y24348569D01*
X-10788278Y24425948D01*
X-10797801Y24473822D01*
X-10804615Y24542996D01*
X-10862367Y24733379D01*
X-10930535Y24860914D01*
X-11308872Y24482576D01*
X-11324755Y24541853D01*
X-11391898Y24658147D01*
X-11486853Y24753102D01*
X-11603147Y24820245D01*
X-11662427Y24836129D01*
X-11284089Y25214467D01*
X-11411622Y25282634D01*
X-11411625Y25282635D01*
X-11602005Y25340386D01*
X-11800000Y25359887D01*
X-11997994Y25340387D01*
X-12188384Y25282632D01*
X-12188389Y25282630D01*
X-12315913Y25214468D01*
X-11937574Y24836129D01*
X-11996853Y24820245D01*
X-12113147Y24753102D01*
X-12208102Y24658147D01*
X-12275245Y24541853D01*
X-12291129Y24482574D01*
X-12669468Y24860913D01*
X-12737630Y24733389D01*
X-12737632Y24733384D01*
X-12795387Y24542994D01*
X-12802199Y24473822D01*
X-12830402Y24380851D01*
X-12856896Y24348569D01*
X-13246919Y24348569D01*
X-13288278Y24425948D01*
X-13297801Y24473822D01*
X-13304615Y24542996D01*
X-13362367Y24733379D01*
X-13430535Y24860914D01*
X-13808872Y24482576D01*
X-13824755Y24541853D01*
X-13891898Y24658147D01*
X-13986853Y24753102D01*
X-14103147Y24820245D01*
X-14162427Y24836129D01*
X-13784089Y25214467D01*
X-13911622Y25282634D01*
X-13911625Y25282635D01*
X-14102005Y25340386D01*
X-14300000Y25359887D01*
X-14497994Y25340387D01*
X-14688384Y25282632D01*
X-14688389Y25282630D01*
X-14815913Y25214468D01*
X-14437574Y24836129D01*
X-14496853Y24820245D01*
X-14613147Y24753102D01*
X-14708102Y24658147D01*
X-14775245Y24541853D01*
X-14791129Y24482574D01*
X-15169468Y24860913D01*
X-15237630Y24733389D01*
X-15237632Y24733384D01*
X-15295387Y24542994D01*
X-15314887Y24345000D01*
X-15914000Y24345000D01*
X-15914000Y28289652D01*
X-15895046Y28384940D01*
X-15841070Y28465722D01*
X-15760288Y28519698D01*
X-15665566Y28538651D01*
X-15056841Y28540024D01*
X-14961512Y28521285D01*
X-14880609Y28467491D01*
X-14826451Y28386832D01*
X-14807282Y28291587D01*
X-14809976Y28254488D01*
X-14815913Y28214468D01*
X-14437574Y27836129D01*
X-14496853Y27820245D01*
X-14613147Y27753102D01*
X-14708102Y27658147D01*
X-14775245Y27541853D01*
X-14791129Y27482574D01*
X-15169468Y27860913D01*
X-15237630Y27733389D01*
X-15237632Y27733384D01*
X-15295387Y27542994D01*
X-15314887Y27345000D01*
X-15295386Y27147005D01*
X-15237635Y26956625D01*
X-15237634Y26956622D01*
X-15169467Y26829089D01*
X-14791129Y27207427D01*
X-14775245Y27148147D01*
X-14708102Y27031853D01*
X-14613147Y26936898D01*
X-14496853Y26869755D01*
X-14437575Y26853872D01*
X-14815914Y26475535D01*
X-14688379Y26407367D01*
X-14497996Y26349615D01*
X-14300000Y26330114D01*
X-14102005Y26349615D01*
X-13911622Y26407367D01*
X-13784088Y26475535D01*
X-14162426Y26853872D01*
X-14103147Y26869755D01*
X-13986853Y26936898D01*
X-13891898Y27031853D01*
X-13824755Y27148147D01*
X-13808872Y27207426D01*
X-13430535Y26829088D01*
X-13362367Y26956622D01*
X-13304614Y27147006D01*
X-13297801Y27216178D01*
X-13269598Y27309150D01*
X-13243105Y27341433D01*
X-13288278Y27425948D01*
X-13297801Y27473822D01*
X-13304615Y27542996D01*
X-13362367Y27733379D01*
X-13430535Y27860914D01*
X-13808872Y27482576D01*
X-13824755Y27541853D01*
X-13891898Y27658147D01*
X-13986853Y27753102D01*
X-14103147Y27820245D01*
X-14162427Y27836129D01*
X-13784089Y28214467D01*
X-13790531Y28257899D01*
X-13785764Y28354937D01*
X-13744225Y28442764D01*
X-13672239Y28508010D01*
X-13580763Y28540741D01*
X-13544801Y28543435D01*
X-12556004Y28545665D01*
X-12460675Y28526926D01*
X-12379772Y28473132D01*
X-12325613Y28392473D01*
X-12306445Y28297228D01*
X-12309139Y28260129D01*
X-12315913Y28214468D01*
X-11937574Y27836129D01*
X-11996853Y27820245D01*
X-12113147Y27753102D01*
X-12208102Y27658147D01*
X-12275245Y27541853D01*
X-12291129Y27482574D01*
X-12669468Y27860913D01*
X-12737630Y27733389D01*
X-12737632Y27733384D01*
X-12795387Y27542994D01*
X-12802199Y27473822D01*
X-12830402Y27380851D01*
X-12856896Y27348569D01*
X-12811722Y27264053D01*
X-12802199Y27216178D01*
X-12795387Y27147006D01*
X-12737635Y26956625D01*
X-12737634Y26956622D01*
X-12669467Y26829089D01*
X-12291129Y27207427D01*
X-12275245Y27148147D01*
X-12208102Y27031853D01*
X-12113147Y26936898D01*
X-11996853Y26869755D01*
X-11937575Y26853872D01*
X-12315914Y26475535D01*
X-12188379Y26407367D01*
X-11997996Y26349615D01*
X-11800000Y26330114D01*
X-11602005Y26349615D01*
X-11411622Y26407367D01*
X-11284088Y26475535D01*
X-11662426Y26853872D01*
X-11603147Y26869755D01*
X-11486853Y26936898D01*
X-11391898Y27031853D01*
X-11324755Y27148147D01*
X-11308872Y27207426D01*
X-10930535Y26829088D01*
X-10862367Y26956622D01*
X-10804614Y27147006D01*
X-10797801Y27216178D01*
X-10769598Y27309150D01*
X-10743105Y27341433D01*
X-10788278Y27425948D01*
X-10797801Y27473822D01*
X-10804615Y27542996D01*
X-10862367Y27733379D01*
X-10930535Y27860914D01*
X-11308872Y27482576D01*
X-11324755Y27541853D01*
X-11391898Y27658147D01*
X-11486853Y27753102D01*
X-11603147Y27820245D01*
X-11662427Y27836129D01*
X-11284089Y28214467D01*
X-11291367Y28263536D01*
X-11286600Y28360574D01*
X-11245061Y28448401D01*
X-11173074Y28513647D01*
X-11081599Y28546378D01*
X-11045634Y28549072D01*
X-10055168Y28551306D01*
X-9959839Y28532567D01*
X-9878936Y28478773D01*
X-9824778Y28398114D01*
X-9805609Y28302869D01*
X-9808303Y28265771D01*
X-9815914Y28214469D01*
X-9437574Y27836129D01*
X-9496853Y27820245D01*
X-9613147Y27753102D01*
X-9708102Y27658147D01*
X-9775245Y27541853D01*
X-9791129Y27482574D01*
X-10169468Y27860913D01*
X-10237630Y27733389D01*
X-10237632Y27733384D01*
X-10295387Y27542994D01*
X-10302199Y27473822D01*
X-10330402Y27380851D01*
X-10356896Y27348569D01*
X-10311722Y27264053D01*
X-10302199Y27216178D01*
X-10295387Y27147006D01*
X-10237635Y26956625D01*
X-10237634Y26956622D01*
X-10169467Y26829089D01*
X-9791129Y27207427D01*
X-9775245Y27148147D01*
X-9708102Y27031853D01*
X-9613147Y26936898D01*
X-9496853Y26869755D01*
X-9437575Y26853872D01*
X-9815914Y26475535D01*
X-9688379Y26407367D01*
X-9497996Y26349615D01*
X-9300000Y26330114D01*
X-9102005Y26349615D01*
X-8911622Y26407367D01*
X-8784088Y26475535D01*
X-9162426Y26853872D01*
X-9103147Y26869755D01*
X-8986853Y26936898D01*
X-8891898Y27031853D01*
X-8824755Y27148147D01*
X-8808872Y27207426D01*
X-8430535Y26829088D01*
X-8362367Y26956622D01*
X-8304614Y27147006D01*
X-8297801Y27216178D01*
X-8269598Y27309150D01*
X-8243105Y27341433D01*
X-8288278Y27425948D01*
X-8297801Y27473822D01*
X-8304615Y27542996D01*
X-8362367Y27733379D01*
X-8430535Y27860914D01*
X-8808872Y27482576D01*
X-8824755Y27541853D01*
X-8891898Y27658147D01*
X-8986853Y27753102D01*
X-9103147Y27820245D01*
X-9162427Y27836129D01*
X-8784088Y28214468D01*
X-8792203Y28269174D01*
X-8787436Y28366211D01*
X-8745897Y28454039D01*
X-8673910Y28519284D01*
X-8582434Y28552015D01*
X-8546467Y28554709D01*
X-7554330Y28556947D01*
X-7459002Y28538208D01*
X-7378099Y28484414D01*
X-7323941Y28403755D01*
X-7304772Y28308510D01*
X-7307466Y28271411D01*
X-7315913Y28214468D01*
X-6937574Y27836129D01*
X-6996853Y27820245D01*
X-7113147Y27753102D01*
X-7208102Y27658147D01*
X-7275245Y27541853D01*
X-7291129Y27482574D01*
X-7669468Y27860913D01*
X-7737630Y27733389D01*
X-7737632Y27733384D01*
X-7795387Y27542994D01*
X-7802199Y27473822D01*
X-7830402Y27380851D01*
X-7856896Y27348569D01*
X-7811722Y27264053D01*
X-7802199Y27216178D01*
X-7795387Y27147006D01*
X-7737635Y26956625D01*
X-7737634Y26956622D01*
X-7669467Y26829089D01*
X-7291129Y27207427D01*
X-7275245Y27148147D01*
X-7208102Y27031853D01*
X-7113147Y26936898D01*
X-6996853Y26869755D01*
X-6937575Y26853872D01*
X-7315914Y26475535D01*
X-7188379Y26407367D01*
X-6997996Y26349615D01*
X-6800000Y26330114D01*
X-6602005Y26349615D01*
X-6411622Y26407367D01*
X-6284088Y26475535D01*
X-6662426Y26853872D01*
X-6603147Y26869755D01*
X-6486853Y26936898D01*
X-6391898Y27031853D01*
X-6324755Y27148147D01*
X-6308872Y27207426D01*
X-5930535Y26829088D01*
X-5862367Y26956622D01*
X-5804614Y27147006D01*
X-5797801Y27216178D01*
X-5769598Y27309150D01*
X-5743105Y27341433D01*
X-5788278Y27425948D01*
X-5797801Y27473822D01*
X-5804615Y27542996D01*
X-5862367Y27733379D01*
X-5930535Y27860914D01*
X-6308872Y27482576D01*
X-6324755Y27541853D01*
X-6391898Y27658147D01*
X-6486853Y27753102D01*
X-6603147Y27820245D01*
X-6662427Y27836129D01*
X-6284089Y28214467D01*
X-6293040Y28274809D01*
X-6288273Y28371847D01*
X-6246735Y28459675D01*
X-6174748Y28524921D01*
X-6083273Y28557652D01*
X-6047301Y28560346D01*
X-5053493Y28562588D01*
X-4958165Y28543849D01*
G37*
%TD.AperFunction*%
%TA.AperFunction,Conductor*%
G36*
X-3018731Y28548225D02*
G01*
X-2937828Y28494431D01*
X-2883670Y28413771D01*
X-2864501Y28318526D01*
X-2864500Y28317964D01*
X-2864500Y27770754D01*
X-2883454Y27675466D01*
X-2937430Y27594684D01*
X-3018212Y27540708D01*
X-3113500Y27521754D01*
X-3208788Y27540708D01*
X-3289570Y27594684D01*
X-3343546Y27675466D01*
X-3351778Y27698473D01*
X-3362367Y27733379D01*
X-3430535Y27860914D01*
X-3808872Y27482576D01*
X-3824755Y27541853D01*
X-3891898Y27658147D01*
X-3986853Y27753102D01*
X-4103147Y27820245D01*
X-4162427Y27836129D01*
X-3784089Y28214467D01*
X-3793876Y28280447D01*
X-3789109Y28377485D01*
X-3747571Y28465312D01*
X-3675584Y28530558D01*
X-3584108Y28563289D01*
X-3548134Y28565983D01*
X-3114058Y28566963D01*
X-3018731Y28548225D01*
G37*
%TD.AperFunction*%
%TD*%
%TA.AperFunction,Conductor*%
%TO.N,/BATT_A*%
G36*
X-2818231Y63300147D02*
G01*
X-2737328Y63246353D01*
X-2683170Y63165694D01*
X-2664001Y63070449D01*
X-2664000Y63069887D01*
X-2664000Y57721485D01*
X-2682954Y57626197D01*
X-2736930Y57545415D01*
X-2817712Y57491439D01*
X-2913000Y57472485D01*
X-2916018Y57472503D01*
X-3528947Y57479933D01*
X-3623999Y57500041D01*
X-3704120Y57554993D01*
X-3757113Y57636422D01*
X-3762184Y57663630D01*
X-4162426Y58063872D01*
X-4103147Y58079755D01*
X-3986853Y58146898D01*
X-3891898Y58241853D01*
X-3824755Y58358147D01*
X-3808872Y58417426D01*
X-3430535Y58039088D01*
X-3362367Y58166622D01*
X-3304615Y58357005D01*
X-3285114Y58555000D01*
X-3304615Y58752996D01*
X-3362367Y58943379D01*
X-3430535Y59070914D01*
X-3808872Y58692576D01*
X-3824755Y58751853D01*
X-3891898Y58868147D01*
X-3986853Y58963102D01*
X-4103147Y59030245D01*
X-4162427Y59046129D01*
X-3784089Y59424467D01*
X-3911622Y59492634D01*
X-3911625Y59492635D01*
X-4102005Y59550386D01*
X-4300000Y59569887D01*
X-4497994Y59550387D01*
X-4688384Y59492632D01*
X-4688389Y59492630D01*
X-4815913Y59424468D01*
X-4437574Y59046129D01*
X-4496853Y59030245D01*
X-4613147Y58963102D01*
X-4708102Y58868147D01*
X-4775245Y58751853D01*
X-4791129Y58692574D01*
X-5169468Y59070913D01*
X-5237630Y58943389D01*
X-5237632Y58943384D01*
X-5295387Y58752994D01*
X-5302199Y58683822D01*
X-5330402Y58590851D01*
X-5356896Y58558569D01*
X-5311722Y58474053D01*
X-5302199Y58426178D01*
X-5295387Y58357006D01*
X-5237635Y58166625D01*
X-5237634Y58166622D01*
X-5169467Y58039089D01*
X-4791129Y58417427D01*
X-4775245Y58358147D01*
X-4708102Y58241853D01*
X-4613147Y58146898D01*
X-4496853Y58079755D01*
X-4437575Y58063872D01*
X-4843325Y57658124D01*
X-4875488Y57590119D01*
X-4947476Y57524873D01*
X-5038951Y57492143D01*
X-5075487Y57489448D01*
X-6024514Y57489448D01*
X-6119802Y57508402D01*
X-6200584Y57562378D01*
X-6254560Y57643160D01*
X-6257750Y57659197D01*
X-6662426Y58063872D01*
X-6603147Y58079755D01*
X-6486853Y58146898D01*
X-6391898Y58241853D01*
X-6324755Y58358147D01*
X-6308872Y58417426D01*
X-5930535Y58039088D01*
X-5862367Y58166622D01*
X-5804614Y58357006D01*
X-5797801Y58426178D01*
X-5769598Y58519150D01*
X-5743105Y58551433D01*
X-5788278Y58635948D01*
X-5797801Y58683822D01*
X-5804615Y58752996D01*
X-5862367Y58943379D01*
X-5930535Y59070914D01*
X-6308872Y58692576D01*
X-6324755Y58751853D01*
X-6391898Y58868147D01*
X-6486853Y58963102D01*
X-6603147Y59030245D01*
X-6662427Y59046129D01*
X-6284089Y59424467D01*
X-6411622Y59492634D01*
X-6411625Y59492635D01*
X-6602005Y59550386D01*
X-6800000Y59569887D01*
X-6997994Y59550387D01*
X-7188384Y59492632D01*
X-7188389Y59492630D01*
X-7315913Y59424468D01*
X-6937574Y59046129D01*
X-6996853Y59030245D01*
X-7113147Y58963102D01*
X-7208102Y58868147D01*
X-7275245Y58751853D01*
X-7291129Y58692574D01*
X-7669468Y59070913D01*
X-7737630Y58943389D01*
X-7737632Y58943384D01*
X-7795387Y58752994D01*
X-7802199Y58683822D01*
X-7830402Y58590851D01*
X-7856896Y58558569D01*
X-7811722Y58474053D01*
X-7802199Y58426178D01*
X-7795387Y58357006D01*
X-7737635Y58166625D01*
X-7737634Y58166622D01*
X-7669467Y58039089D01*
X-7291129Y58417427D01*
X-7275245Y58358147D01*
X-7208102Y58241853D01*
X-7113147Y58146898D01*
X-6996853Y58079755D01*
X-6937575Y58063872D01*
X-7343325Y57658124D01*
X-7375488Y57590119D01*
X-7447476Y57524873D01*
X-7538951Y57492143D01*
X-7575487Y57489448D01*
X-8524514Y57489448D01*
X-8619802Y57508402D01*
X-8700584Y57562378D01*
X-8754560Y57643160D01*
X-8757750Y57659197D01*
X-9162426Y58063872D01*
X-9103147Y58079755D01*
X-8986853Y58146898D01*
X-8891898Y58241853D01*
X-8824755Y58358147D01*
X-8808872Y58417426D01*
X-8430535Y58039088D01*
X-8362367Y58166622D01*
X-8304614Y58357006D01*
X-8297801Y58426178D01*
X-8269598Y58519150D01*
X-8243105Y58551433D01*
X-8288278Y58635948D01*
X-8297801Y58683822D01*
X-8304615Y58752996D01*
X-8362367Y58943379D01*
X-8430535Y59070914D01*
X-8808872Y58692576D01*
X-8824755Y58751853D01*
X-8891898Y58868147D01*
X-8986853Y58963102D01*
X-9103147Y59030245D01*
X-9162427Y59046129D01*
X-8784089Y59424467D01*
X-8911622Y59492634D01*
X-8911625Y59492635D01*
X-9102005Y59550386D01*
X-9300000Y59569887D01*
X-9497994Y59550387D01*
X-9688384Y59492632D01*
X-9688389Y59492630D01*
X-9815913Y59424468D01*
X-9437574Y59046129D01*
X-9496853Y59030245D01*
X-9613147Y58963102D01*
X-9708102Y58868147D01*
X-9775245Y58751853D01*
X-9791129Y58692574D01*
X-10169468Y59070913D01*
X-10237630Y58943389D01*
X-10237632Y58943384D01*
X-10295387Y58752994D01*
X-10302199Y58683822D01*
X-10330402Y58590851D01*
X-10356896Y58558569D01*
X-10311722Y58474053D01*
X-10302199Y58426178D01*
X-10295387Y58357006D01*
X-10237635Y58166625D01*
X-10237634Y58166622D01*
X-10169467Y58039089D01*
X-9791129Y58417427D01*
X-9775245Y58358147D01*
X-9708102Y58241853D01*
X-9613147Y58146898D01*
X-9496853Y58079755D01*
X-9437575Y58063872D01*
X-9843325Y57658124D01*
X-9875488Y57590119D01*
X-9947476Y57524873D01*
X-10038951Y57492143D01*
X-10075487Y57489448D01*
X-11024514Y57489448D01*
X-11119802Y57508402D01*
X-11200584Y57562378D01*
X-11254560Y57643160D01*
X-11257750Y57659197D01*
X-11662426Y58063872D01*
X-11603147Y58079755D01*
X-11486853Y58146898D01*
X-11391898Y58241853D01*
X-11324755Y58358147D01*
X-11308872Y58417426D01*
X-10930535Y58039088D01*
X-10862367Y58166622D01*
X-10804614Y58357006D01*
X-10797801Y58426178D01*
X-10769598Y58519150D01*
X-10743105Y58551433D01*
X-10788278Y58635948D01*
X-10797801Y58683822D01*
X-10804615Y58752996D01*
X-10862367Y58943379D01*
X-10930535Y59070914D01*
X-11308872Y58692576D01*
X-11324755Y58751853D01*
X-11391898Y58868147D01*
X-11486853Y58963102D01*
X-11603147Y59030245D01*
X-11662427Y59046129D01*
X-11284089Y59424467D01*
X-11411622Y59492634D01*
X-11411625Y59492635D01*
X-11602005Y59550386D01*
X-11800000Y59569887D01*
X-11997994Y59550387D01*
X-12188384Y59492632D01*
X-12188389Y59492630D01*
X-12315913Y59424468D01*
X-11937574Y59046129D01*
X-11996853Y59030245D01*
X-12113147Y58963102D01*
X-12208102Y58868147D01*
X-12275245Y58751853D01*
X-12291129Y58692574D01*
X-12669468Y59070913D01*
X-12737630Y58943389D01*
X-12737632Y58943384D01*
X-12795387Y58752994D01*
X-12802199Y58683822D01*
X-12830402Y58590851D01*
X-12856896Y58558569D01*
X-12811722Y58474053D01*
X-12802199Y58426178D01*
X-12795387Y58357006D01*
X-12737635Y58166625D01*
X-12737634Y58166622D01*
X-12669467Y58039089D01*
X-12291129Y58417427D01*
X-12275245Y58358147D01*
X-12208102Y58241853D01*
X-12113147Y58146898D01*
X-11996853Y58079755D01*
X-11937575Y58063872D01*
X-12343325Y57658124D01*
X-12375488Y57590119D01*
X-12447476Y57524873D01*
X-12538951Y57492143D01*
X-12575487Y57489448D01*
X-13524514Y57489448D01*
X-13619802Y57508402D01*
X-13700584Y57562378D01*
X-13754560Y57643160D01*
X-13757750Y57659197D01*
X-14162426Y58063872D01*
X-14103147Y58079755D01*
X-13986853Y58146898D01*
X-13891898Y58241853D01*
X-13824755Y58358147D01*
X-13808872Y58417426D01*
X-13430535Y58039088D01*
X-13362367Y58166622D01*
X-13304614Y58357006D01*
X-13297801Y58426178D01*
X-13269598Y58519150D01*
X-13243105Y58551433D01*
X-13288278Y58635948D01*
X-13297801Y58683822D01*
X-13304615Y58752996D01*
X-13362367Y58943379D01*
X-13430535Y59070914D01*
X-13808872Y58692576D01*
X-13824755Y58751853D01*
X-13891898Y58868147D01*
X-13986853Y58963102D01*
X-14103147Y59030245D01*
X-14162427Y59046129D01*
X-13784089Y59424467D01*
X-13911622Y59492634D01*
X-13911625Y59492635D01*
X-14102005Y59550386D01*
X-14300000Y59569887D01*
X-14497994Y59550387D01*
X-14688384Y59492632D01*
X-14688389Y59492630D01*
X-14815913Y59424468D01*
X-14437574Y59046129D01*
X-14496853Y59030245D01*
X-14613147Y58963102D01*
X-14708102Y58868147D01*
X-14775245Y58751853D01*
X-14791129Y58692574D01*
X-15169468Y59070913D01*
X-15237630Y58943389D01*
X-15237632Y58943384D01*
X-15295387Y58752994D01*
X-15314887Y58555000D01*
X-15295386Y58357005D01*
X-15237635Y58166625D01*
X-15237634Y58166622D01*
X-15169467Y58039089D01*
X-14791129Y58417427D01*
X-14775245Y58358147D01*
X-14708102Y58241853D01*
X-14613147Y58146898D01*
X-14496853Y58079755D01*
X-14437575Y58063872D01*
X-14832580Y57668869D01*
X-14832585Y57668751D01*
X-14874124Y57580924D01*
X-14946111Y57515679D01*
X-15037587Y57482948D01*
X-15071105Y57480271D01*
X-15711982Y57472503D01*
X-15807493Y57490301D01*
X-15888923Y57543294D01*
X-15943874Y57623416D01*
X-15963982Y57718467D01*
X-15964000Y57721485D01*
X-15964000Y61555000D01*
X-15314887Y61555000D01*
X-15295386Y61357005D01*
X-15237635Y61166625D01*
X-15237634Y61166622D01*
X-15169467Y61039089D01*
X-14791129Y61417427D01*
X-14775245Y61358147D01*
X-14708102Y61241853D01*
X-14613147Y61146898D01*
X-14496853Y61079755D01*
X-14437575Y61063872D01*
X-14815914Y60685535D01*
X-14688379Y60617367D01*
X-14497996Y60559615D01*
X-14300000Y60540114D01*
X-14102005Y60559615D01*
X-13911622Y60617367D01*
X-13784088Y60685535D01*
X-14162426Y61063872D01*
X-14103147Y61079755D01*
X-13986853Y61146898D01*
X-13891898Y61241853D01*
X-13824755Y61358147D01*
X-13808872Y61417426D01*
X-13430535Y61039088D01*
X-13362367Y61166622D01*
X-13304614Y61357006D01*
X-13297801Y61426178D01*
X-13269598Y61519150D01*
X-13243105Y61551433D01*
X-13246919Y61558569D01*
X-12856896Y61558569D01*
X-12811722Y61474053D01*
X-12802199Y61426178D01*
X-12795387Y61357006D01*
X-12737635Y61166625D01*
X-12737634Y61166622D01*
X-12669467Y61039089D01*
X-12291129Y61417427D01*
X-12275245Y61358147D01*
X-12208102Y61241853D01*
X-12113147Y61146898D01*
X-11996853Y61079755D01*
X-11937575Y61063872D01*
X-12315914Y60685535D01*
X-12188379Y60617367D01*
X-11997996Y60559615D01*
X-11800000Y60540114D01*
X-11602005Y60559615D01*
X-11411622Y60617367D01*
X-11284088Y60685535D01*
X-11662426Y61063872D01*
X-11603147Y61079755D01*
X-11486853Y61146898D01*
X-11391898Y61241853D01*
X-11324755Y61358147D01*
X-11308872Y61417426D01*
X-10930535Y61039088D01*
X-10862367Y61166622D01*
X-10804614Y61357006D01*
X-10797801Y61426178D01*
X-10769598Y61519150D01*
X-10743105Y61551433D01*
X-10746919Y61558569D01*
X-10356896Y61558569D01*
X-10311722Y61474053D01*
X-10302199Y61426178D01*
X-10295387Y61357006D01*
X-10237635Y61166625D01*
X-10237634Y61166622D01*
X-10169467Y61039089D01*
X-9791129Y61417427D01*
X-9775245Y61358147D01*
X-9708102Y61241853D01*
X-9613147Y61146898D01*
X-9496853Y61079755D01*
X-9437575Y61063872D01*
X-9815914Y60685535D01*
X-9688379Y60617367D01*
X-9497996Y60559615D01*
X-9300000Y60540114D01*
X-9102005Y60559615D01*
X-8911622Y60617367D01*
X-8784088Y60685535D01*
X-9162426Y61063872D01*
X-9103147Y61079755D01*
X-8986853Y61146898D01*
X-8891898Y61241853D01*
X-8824755Y61358147D01*
X-8808872Y61417426D01*
X-8430535Y61039088D01*
X-8362367Y61166622D01*
X-8304614Y61357006D01*
X-8297801Y61426178D01*
X-8269598Y61519150D01*
X-8243105Y61551433D01*
X-8246919Y61558569D01*
X-7856896Y61558569D01*
X-7811722Y61474053D01*
X-7802199Y61426178D01*
X-7795387Y61357006D01*
X-7737635Y61166625D01*
X-7737634Y61166622D01*
X-7669467Y61039089D01*
X-7291129Y61417427D01*
X-7275245Y61358147D01*
X-7208102Y61241853D01*
X-7113147Y61146898D01*
X-6996853Y61079755D01*
X-6937575Y61063872D01*
X-7315914Y60685535D01*
X-7188379Y60617367D01*
X-6997996Y60559615D01*
X-6800000Y60540114D01*
X-6602005Y60559615D01*
X-6411622Y60617367D01*
X-6284088Y60685535D01*
X-6662426Y61063872D01*
X-6603147Y61079755D01*
X-6486853Y61146898D01*
X-6391898Y61241853D01*
X-6324755Y61358147D01*
X-6308872Y61417426D01*
X-5930535Y61039088D01*
X-5862367Y61166622D01*
X-5804614Y61357006D01*
X-5797801Y61426178D01*
X-5769598Y61519150D01*
X-5743105Y61551433D01*
X-5746919Y61558569D01*
X-5356896Y61558569D01*
X-5311722Y61474053D01*
X-5302199Y61426178D01*
X-5295387Y61357006D01*
X-5237635Y61166625D01*
X-5237634Y61166622D01*
X-5169467Y61039089D01*
X-4791129Y61417427D01*
X-4775245Y61358147D01*
X-4708102Y61241853D01*
X-4613147Y61146898D01*
X-4496853Y61079755D01*
X-4437575Y61063872D01*
X-4815914Y60685535D01*
X-4688379Y60617367D01*
X-4497996Y60559615D01*
X-4300000Y60540114D01*
X-4102005Y60559615D01*
X-3911622Y60617367D01*
X-3784088Y60685535D01*
X-4162426Y61063872D01*
X-4103147Y61079755D01*
X-3986853Y61146898D01*
X-3891898Y61241853D01*
X-3824755Y61358147D01*
X-3808872Y61417426D01*
X-3430535Y61039088D01*
X-3362367Y61166622D01*
X-3304615Y61357005D01*
X-3285114Y61555000D01*
X-3304615Y61752996D01*
X-3362367Y61943379D01*
X-3430535Y62070914D01*
X-3808872Y61692576D01*
X-3824755Y61751853D01*
X-3891898Y61868147D01*
X-3986853Y61963102D01*
X-4103147Y62030245D01*
X-4162427Y62046129D01*
X-3784089Y62424467D01*
X-3911622Y62492634D01*
X-3911625Y62492635D01*
X-4102005Y62550386D01*
X-4300000Y62569887D01*
X-4497994Y62550387D01*
X-4688384Y62492632D01*
X-4688389Y62492630D01*
X-4815913Y62424468D01*
X-4437574Y62046129D01*
X-4496853Y62030245D01*
X-4613147Y61963102D01*
X-4708102Y61868147D01*
X-4775245Y61751853D01*
X-4791129Y61692574D01*
X-5169468Y62070913D01*
X-5237630Y61943389D01*
X-5237632Y61943384D01*
X-5295387Y61752994D01*
X-5302199Y61683822D01*
X-5330402Y61590851D01*
X-5356896Y61558569D01*
X-5746919Y61558569D01*
X-5788278Y61635948D01*
X-5797801Y61683822D01*
X-5804615Y61752996D01*
X-5862367Y61943379D01*
X-5930535Y62070914D01*
X-6308872Y61692576D01*
X-6324755Y61751853D01*
X-6391898Y61868147D01*
X-6486853Y61963102D01*
X-6603147Y62030245D01*
X-6662427Y62046129D01*
X-6284089Y62424467D01*
X-6411622Y62492634D01*
X-6411625Y62492635D01*
X-6602005Y62550386D01*
X-6800000Y62569887D01*
X-6997994Y62550387D01*
X-7188384Y62492632D01*
X-7188389Y62492630D01*
X-7315913Y62424468D01*
X-6937574Y62046129D01*
X-6996853Y62030245D01*
X-7113147Y61963102D01*
X-7208102Y61868147D01*
X-7275245Y61751853D01*
X-7291129Y61692574D01*
X-7669468Y62070913D01*
X-7737630Y61943389D01*
X-7737632Y61943384D01*
X-7795387Y61752994D01*
X-7802199Y61683822D01*
X-7830402Y61590851D01*
X-7856896Y61558569D01*
X-8246919Y61558569D01*
X-8288278Y61635948D01*
X-8297801Y61683822D01*
X-8304615Y61752996D01*
X-8362367Y61943379D01*
X-8430535Y62070914D01*
X-8808872Y61692576D01*
X-8824755Y61751853D01*
X-8891898Y61868147D01*
X-8986853Y61963102D01*
X-9103147Y62030245D01*
X-9162427Y62046129D01*
X-8784089Y62424467D01*
X-8911622Y62492634D01*
X-8911625Y62492635D01*
X-9102005Y62550386D01*
X-9300000Y62569887D01*
X-9497994Y62550387D01*
X-9688384Y62492632D01*
X-9688389Y62492630D01*
X-9815913Y62424468D01*
X-9437574Y62046129D01*
X-9496853Y62030245D01*
X-9613147Y61963102D01*
X-9708102Y61868147D01*
X-9775245Y61751853D01*
X-9791129Y61692574D01*
X-10169468Y62070913D01*
X-10237630Y61943389D01*
X-10237632Y61943384D01*
X-10295387Y61752994D01*
X-10302199Y61683822D01*
X-10330402Y61590851D01*
X-10356896Y61558569D01*
X-10746919Y61558569D01*
X-10788278Y61635948D01*
X-10797801Y61683822D01*
X-10804615Y61752996D01*
X-10862367Y61943379D01*
X-10930535Y62070914D01*
X-11308872Y61692576D01*
X-11324755Y61751853D01*
X-11391898Y61868147D01*
X-11486853Y61963102D01*
X-11603147Y62030245D01*
X-11662427Y62046129D01*
X-11284089Y62424467D01*
X-11411622Y62492634D01*
X-11411625Y62492635D01*
X-11602005Y62550386D01*
X-11800000Y62569887D01*
X-11997994Y62550387D01*
X-12188384Y62492632D01*
X-12188389Y62492630D01*
X-12315913Y62424468D01*
X-11937574Y62046129D01*
X-11996853Y62030245D01*
X-12113147Y61963102D01*
X-12208102Y61868147D01*
X-12275245Y61751853D01*
X-12291129Y61692574D01*
X-12669468Y62070913D01*
X-12737630Y61943389D01*
X-12737632Y61943384D01*
X-12795387Y61752994D01*
X-12802199Y61683822D01*
X-12830402Y61590851D01*
X-12856896Y61558569D01*
X-13246919Y61558569D01*
X-13288278Y61635948D01*
X-13297801Y61683822D01*
X-13304615Y61752996D01*
X-13362367Y61943379D01*
X-13430535Y62070914D01*
X-13808872Y61692576D01*
X-13824755Y61751853D01*
X-13891898Y61868147D01*
X-13986853Y61963102D01*
X-14103147Y62030245D01*
X-14162427Y62046129D01*
X-13784089Y62424467D01*
X-13911622Y62492634D01*
X-13911625Y62492635D01*
X-14102005Y62550386D01*
X-14300000Y62569887D01*
X-14497994Y62550387D01*
X-14688384Y62492632D01*
X-14688389Y62492630D01*
X-14815913Y62424468D01*
X-14437574Y62046129D01*
X-14496853Y62030245D01*
X-14613147Y61963102D01*
X-14708102Y61868147D01*
X-14775245Y61751853D01*
X-14791129Y61692574D01*
X-15169468Y62070913D01*
X-15237630Y61943389D01*
X-15237632Y61943384D01*
X-15295387Y61752994D01*
X-15314887Y61555000D01*
X-15964000Y61555000D01*
X-15964000Y63041010D01*
X-15945046Y63136298D01*
X-15891070Y63217080D01*
X-15810288Y63271056D01*
X-15715566Y63290009D01*
X-2913558Y63318886D01*
X-2818231Y63300147D01*
G37*
%TD.AperFunction*%
%TD*%
M02*
