%TF.GenerationSoftware,KiCad,Pcbnew,8.0.8+1*%
%TF.CreationDate,2025-05-12T22:43:10+00:00*%
%TF.ProjectId,BATDATSOCKET01,42415444-4154-4534-9f43-4b455430312e,rev?*%
%TF.SameCoordinates,Original*%
%TF.FileFunction,Copper,L1,Top*%
%TF.FilePolarity,Positive*%
%FSLAX46Y46*%
G04 Gerber Fmt 4.6, Leading zero omitted, Abs format (unit mm)*
G04 Created by KiCad (PCBNEW 8.0.8+1) date 2025-05-12 22:43:10*
%MOMM*%
%LPD*%
G01*
G04 APERTURE LIST*
G04 Aperture macros list*
%AMRoundRect*
0 Rectangle with rounded corners*
0 $1 Rounding radius*
0 $2 $3 $4 $5 $6 $7 $8 $9 X,Y pos of 4 corners*
0 Add a 4 corners polygon primitive as box body*
4,1,4,$2,$3,$4,$5,$6,$7,$8,$9,$2,$3,0*
0 Add four circle primitives for the rounded corners*
1,1,$1+$1,$2,$3*
1,1,$1+$1,$4,$5*
1,1,$1+$1,$6,$7*
1,1,$1+$1,$8,$9*
0 Add four rect primitives between the rounded corners*
20,1,$1+$1,$2,$3,$4,$5,0*
20,1,$1+$1,$4,$5,$6,$7,0*
20,1,$1+$1,$6,$7,$8,$9,0*
20,1,$1+$1,$8,$9,$2,$3,0*%
%AMFreePoly0*
4,1,19,0.500000,-0.750000,0.000000,-0.750000,0.000000,-0.744911,-0.071157,-0.744911,-0.207708,-0.704816,-0.327430,-0.627875,-0.420627,-0.520320,-0.479746,-0.390866,-0.500000,-0.250000,-0.500000,0.250000,-0.479746,0.390866,-0.420627,0.520320,-0.327430,0.627875,-0.207708,0.704816,-0.071157,0.744911,0.000000,0.744911,0.000000,0.750000,0.500000,0.750000,0.500000,-0.750000,0.500000,-0.750000,
$1*%
%AMFreePoly1*
4,1,19,0.000000,0.744911,0.071157,0.744911,0.207708,0.704816,0.327430,0.627875,0.420627,0.520320,0.479746,0.390866,0.500000,0.250000,0.500000,-0.250000,0.479746,-0.390866,0.420627,-0.520320,0.327430,-0.627875,0.207708,-0.704816,0.071157,-0.744911,0.000000,-0.744911,0.000000,-0.750000,-0.500000,-0.750000,-0.500000,0.750000,0.000000,0.750000,0.000000,0.744911,0.000000,0.744911,
$1*%
%AMFreePoly2*
4,1,19,0.550000,-0.750000,0.000000,-0.750000,0.000000,-0.744911,-0.071157,-0.744911,-0.207708,-0.704816,-0.327430,-0.627875,-0.420627,-0.520320,-0.479746,-0.390866,-0.500000,-0.250000,-0.500000,0.250000,-0.479746,0.390866,-0.420627,0.520320,-0.327430,0.627875,-0.207708,0.704816,-0.071157,0.744911,0.000000,0.744911,0.000000,0.750000,0.550000,0.750000,0.550000,-0.750000,0.550000,-0.750000,
$1*%
%AMFreePoly3*
4,1,19,0.000000,0.744911,0.071157,0.744911,0.207708,0.704816,0.327430,0.627875,0.420627,0.520320,0.479746,0.390866,0.500000,0.250000,0.500000,-0.250000,0.479746,-0.390866,0.420627,-0.520320,0.327430,-0.627875,0.207708,-0.704816,0.071157,-0.744911,0.000000,-0.744911,0.000000,-0.750000,-0.550000,-0.750000,-0.550000,0.750000,0.000000,0.750000,0.000000,0.744911,0.000000,0.744911,
$1*%
G04 Aperture macros list end*
%TA.AperFunction,EtchedComponent*%
%ADD10C,0.000000*%
%TD*%
%TA.AperFunction,SMDPad,CuDef*%
%ADD11FreePoly0,0.000000*%
%TD*%
%TA.AperFunction,SMDPad,CuDef*%
%ADD12FreePoly1,0.000000*%
%TD*%
%TA.AperFunction,ComponentPad*%
%ADD13C,1.300000*%
%TD*%
%TA.AperFunction,ComponentPad*%
%ADD14C,1.620000*%
%TD*%
%TA.AperFunction,SMDPad,CuDef*%
%ADD15RoundRect,0.250000X0.262500X0.450000X-0.262500X0.450000X-0.262500X-0.450000X0.262500X-0.450000X0*%
%TD*%
%TA.AperFunction,ComponentPad*%
%ADD16C,6.000000*%
%TD*%
%TA.AperFunction,SMDPad,CuDef*%
%ADD17FreePoly2,0.000000*%
%TD*%
%TA.AperFunction,SMDPad,CuDef*%
%ADD18R,1.000000X1.500000*%
%TD*%
%TA.AperFunction,SMDPad,CuDef*%
%ADD19FreePoly3,0.000000*%
%TD*%
%TA.AperFunction,SMDPad,CuDef*%
%ADD20RoundRect,0.243750X-0.243750X-0.456250X0.243750X-0.456250X0.243750X0.456250X-0.243750X0.456250X0*%
%TD*%
%TA.AperFunction,ComponentPad*%
%ADD21R,1.700000X1.700000*%
%TD*%
%TA.AperFunction,ComponentPad*%
%ADD22O,1.700000X1.700000*%
%TD*%
%TA.AperFunction,ViaPad*%
%ADD23C,0.800000*%
%TD*%
%TA.AperFunction,Conductor*%
%ADD24C,0.500000*%
%TD*%
%TA.AperFunction,Conductor*%
%ADD25C,0.400000*%
%TD*%
%TA.AperFunction,Conductor*%
%ADD26C,0.250000*%
%TD*%
%TA.AperFunction,Conductor*%
%ADD27C,0.300000*%
%TD*%
G04 APERTURE END LIST*
D10*
%TA.AperFunction,EtchedComponent*%
%TO.C,JP1*%
G36*
X-20900000Y64350000D02*
G01*
X-21400000Y64350000D01*
X-21400000Y64950000D01*
X-20900000Y64950000D01*
X-20900000Y64350000D01*
G37*
%TD.AperFunction*%
%TD*%
D11*
%TO.P,JP2,1,A*%
%TO.N,/connection_detector*%
X-10114000Y73555000D03*
D12*
%TO.P,JP2,2,B*%
%TO.N,GND*%
X-8814000Y73555000D03*
%TD*%
D13*
%TO.P,J1,A1*%
%TO.N,unconnected-(J1-PadA1)*%
X-4300000Y38485000D03*
%TO.P,J1,A2*%
%TO.N,GND*%
X-4300000Y40485000D03*
%TO.P,J1,A3*%
%TO.N,/3v3*%
X-4300000Y42485000D03*
%TO.P,J1,A4*%
%TO.N,/5v*%
X-4300000Y44485000D03*
%TO.P,J1,A5*%
%TO.N,GND*%
X-4300000Y46485000D03*
%TO.P,J1,A6*%
%TO.N,unconnected-(J1-PadA6)*%
X-4300000Y48485000D03*
%TO.P,J1,B1*%
%TO.N,unconnected-(J1-PadB1)*%
X-6300000Y38485000D03*
%TO.P,J1,B2*%
%TO.N,GND*%
X-6300000Y40485000D03*
%TO.P,J1,B3*%
%TO.N,/3v3*%
X-6300000Y42485000D03*
%TO.P,J1,B4*%
%TO.N,/5v*%
X-6300000Y44485000D03*
%TO.P,J1,B5*%
%TO.N,GND*%
X-6300000Y46485000D03*
%TO.P,J1,B6*%
%TO.N,unconnected-(J1-PadB6)*%
X-6300000Y48485000D03*
%TO.P,J1,C1*%
%TO.N,/SCL*%
X-8300000Y38485000D03*
%TO.P,J1,C2*%
%TO.N,/SDA*%
X-8300000Y40485000D03*
%TO.P,J1,C3*%
%TO.N,unconnected-(J1-PadC3)*%
X-8300000Y42485000D03*
%TO.P,J1,C4*%
%TO.N,/RST*%
X-8300000Y44485000D03*
%TO.P,J1,C5*%
%TO.N,unconnected-(J1-PadC5)*%
X-8300000Y46485000D03*
%TO.P,J1,C6*%
%TO.N,unconnected-(J1-PadC6)*%
X-8300000Y48485000D03*
%TO.P,J1,D1*%
%TO.N,/SCLK*%
X-10300000Y38485000D03*
%TO.P,J1,D2*%
%TO.N,/MISO*%
X-10300000Y40485000D03*
%TO.P,J1,D3*%
%TO.N,/MOSI*%
X-10300000Y42485000D03*
%TO.P,J1,D4*%
%TO.N,/A0*%
X-10300000Y44485000D03*
%TO.P,J1,D5*%
%TO.N,/A1*%
X-10300000Y46485000D03*
%TO.P,J1,D6*%
%TO.N,/connection_detector*%
X-10300000Y48485000D03*
%TO.P,J1,E1*%
%TO.N,/C0*%
X-12300000Y38485000D03*
%TO.P,J1,E2*%
%TO.N,/C1*%
X-12300000Y40485000D03*
%TO.P,J1,E3*%
%TO.N,/TX*%
X-12300000Y42485000D03*
%TO.P,J1,E4*%
%TO.N,/RX*%
X-12300000Y44485000D03*
%TO.P,J1,E5*%
%TO.N,/B0*%
X-12300000Y46485000D03*
%TO.P,J1,E6*%
%TO.N,/B1*%
X-12300000Y48485000D03*
D14*
%TO.P,J1,P1*%
%TO.N,/BATT_B*%
X-14300000Y24345000D03*
X-11800000Y24345000D03*
X-9300000Y24345000D03*
X-6800000Y24345000D03*
X-4300000Y24345000D03*
X-14300000Y27345000D03*
X-11800000Y27345000D03*
X-9300000Y27345000D03*
X-6800000Y27345000D03*
X-4300000Y27345000D03*
%TO.P,J1,P2*%
%TO.N,GND*%
X-14300000Y29845000D03*
X-11800000Y29845000D03*
X-9300000Y29845000D03*
X-6800000Y29845000D03*
X-4300000Y29845000D03*
X-14300000Y32845000D03*
X-11800000Y32845000D03*
X-9300000Y32845000D03*
X-6800000Y32845000D03*
X-4300000Y32845000D03*
%TO.P,J1,P3*%
X-14300000Y53055000D03*
X-11800000Y53055000D03*
X-9300000Y53055000D03*
X-6800000Y53055000D03*
X-4300000Y53055000D03*
X-14300000Y56055000D03*
X-11800000Y56055000D03*
X-9300000Y56055000D03*
X-6800000Y56055000D03*
X-4300000Y56055000D03*
%TO.P,J1,P4*%
%TO.N,/BATT_A*%
X-14300000Y58555000D03*
X-11800000Y58555000D03*
X-9300000Y58555000D03*
X-6800000Y58555000D03*
X-4300000Y58555000D03*
X-14300000Y61555000D03*
X-11800000Y61555000D03*
X-9300000Y61555000D03*
X-6800000Y61555000D03*
X-4300000Y61555000D03*
%TD*%
D15*
%TO.P,R1,1*%
%TO.N,/5v*%
X-5514000Y11805000D03*
%TO.P,R1,2*%
%TO.N,Net-(D1-A)*%
X-7339000Y11805000D03*
%TD*%
%TO.P,R2,1*%
%TO.N,/3v3*%
X-5514000Y8755000D03*
%TO.P,R2,2*%
%TO.N,Net-(D2-A)*%
X-7339000Y8755000D03*
%TD*%
D16*
%TO.P,H3,1,1*%
%TO.N,GND*%
X-19820000Y73367500D03*
%TD*%
D17*
%TO.P,JP1,1,A*%
%TO.N,/3v3*%
X-21800000Y64650000D03*
D18*
%TO.P,JP1,2,C*%
%TO.N,/I2C_PWR*%
X-20500000Y64650000D03*
D19*
%TO.P,JP1,3,B*%
%TO.N,/5v*%
X-19200000Y64650000D03*
%TD*%
D16*
%TO.P,H4,1,1*%
%TO.N,GND*%
X-19820000Y12407500D03*
%TD*%
D20*
%TO.P,D1,1,K*%
%TO.N,GND*%
X-10851500Y11760000D03*
%TO.P,D1,2,A*%
%TO.N,Net-(D1-A)*%
X-8976500Y11760000D03*
%TD*%
%TO.P,D2,1,K*%
%TO.N,GND*%
X-10851500Y8720000D03*
%TO.P,D2,2,A*%
%TO.N,Net-(D2-A)*%
X-8976500Y8720000D03*
%TD*%
D21*
%TO.P,J2,1*%
%TO.N,GND*%
X-22360000Y60725000D03*
D22*
%TO.P,J2,2*%
X-19820000Y60725000D03*
%TO.P,J2,3*%
%TO.N,/5v*%
X-22360000Y58185000D03*
%TO.P,J2,4*%
X-19820000Y58185000D03*
%TO.P,J2,5*%
%TO.N,/3v3*%
X-22360000Y55645000D03*
%TO.P,J2,6*%
X-19820000Y55645000D03*
%TO.P,J2,7*%
%TO.N,GND*%
X-22360000Y53105000D03*
%TO.P,J2,8*%
%TO.N,/connection_detector*%
X-19820000Y53105000D03*
%TO.P,J2,9*%
%TO.N,/A0*%
X-22360000Y50565000D03*
%TO.P,J2,10*%
%TO.N,/RST*%
X-19820000Y50565000D03*
%TO.P,J2,11*%
%TO.N,/A1*%
X-22360000Y48025000D03*
%TO.P,J2,12*%
%TO.N,/RX*%
X-19820000Y48025000D03*
%TO.P,J2,13*%
%TO.N,/B1*%
X-22360000Y45485000D03*
%TO.P,J2,14*%
%TO.N,/TX*%
X-19820000Y45485000D03*
%TO.P,J2,15*%
%TO.N,/B0*%
X-22360000Y42945000D03*
%TO.P,J2,16*%
%TO.N,/MOSI*%
X-19820000Y42945000D03*
%TO.P,J2,17*%
%TO.N,/C1*%
X-22360000Y40405000D03*
%TO.P,J2,18*%
%TO.N,/MISO*%
X-19820000Y40405000D03*
%TO.P,J2,19*%
%TO.N,/C0*%
X-22360000Y37865000D03*
%TO.P,J2,20*%
%TO.N,/SCLK*%
X-19820000Y37865000D03*
%TO.P,J2,21*%
%TO.N,GND*%
X-22360000Y35325000D03*
%TO.P,J2,22*%
X-19820000Y35325000D03*
%TO.P,J2,23*%
%TO.N,/SCL*%
X-22360000Y32785000D03*
%TO.P,J2,24*%
X-19820000Y32785000D03*
%TO.P,J2,25*%
%TO.N,/I2C_PWR*%
X-22360000Y30245000D03*
%TO.P,J2,26*%
X-19820000Y30245000D03*
%TO.P,J2,27*%
%TO.N,/SDA*%
X-22360000Y27705000D03*
%TO.P,J2,28*%
X-19820000Y27705000D03*
%TO.P,J2,29*%
%TO.N,GND*%
X-22360000Y25165000D03*
%TO.P,J2,30*%
X-19820000Y25165000D03*
%TD*%
D23*
%TO.N,/5v*%
X-18450000Y64625000D03*
X-4914000Y11805000D03*
%TO.N,/connection_detector*%
X-19814000Y68155000D03*
%TD*%
D24*
%TO.N,/3v3*%
X-17370000Y55645000D02*
X-17345000Y55620000D01*
X-4014000Y8755000D02*
X-5514000Y8755000D01*
D25*
X-21814000Y65686000D02*
X-21250000Y66250000D01*
D24*
X-3584000Y42485000D02*
X-4300000Y42485000D01*
X-16414000Y54689000D02*
X-16414000Y52575000D01*
D25*
X-21250000Y66250000D02*
X-18675000Y66250000D01*
X-18675000Y66250000D02*
X-17361200Y64936200D01*
D24*
X-21695000Y55645000D02*
X-17370000Y55645000D01*
X-17345000Y55620000D02*
X-16414000Y54689000D01*
X-2464000Y43605000D02*
X-2964000Y43105000D01*
D25*
X-17361200Y64936200D02*
X-17361200Y55822800D01*
D24*
X-16414000Y52575000D02*
X-15014000Y51175000D01*
X-4300000Y42485000D02*
X-6164000Y42485000D01*
D25*
X-21814000Y64375000D02*
X-21814000Y65686000D01*
D24*
X-3714000Y51175000D02*
X-2464000Y49925000D01*
X-2964000Y43105000D02*
X-3584000Y42485000D01*
X-15014000Y51175000D02*
X-3714000Y51175000D01*
X-2464000Y49925000D02*
X-2464000Y43605000D01*
X-2114000Y10655000D02*
X-4014000Y8755000D01*
X-6164000Y42485000D02*
X-6314000Y42635000D01*
X-2114000Y42255000D02*
X-2114000Y10655000D01*
X-2964000Y43105000D02*
X-2114000Y42255000D01*
D26*
%TO.N,/5v*%
X-5514000Y11805000D02*
X-4914000Y11805000D01*
D24*
X-18450000Y64625000D02*
X-19175000Y64625000D01*
D26*
%TO.N,/SCL*%
X-19820000Y32785000D02*
X-22360000Y32785000D01*
%TO.N,/RST*%
X-9314000Y45499000D02*
X-8300000Y44485000D01*
X-19820000Y50565000D02*
X-19010000Y49755000D01*
X-18309000Y49750000D02*
X-13690752Y49750000D01*
X-13690752Y49750000D02*
X-13310751Y50130000D01*
X-19010000Y49755000D02*
X-18314000Y49755000D01*
X-13310751Y50130000D02*
X-10389000Y50130000D01*
X-10389000Y50130000D02*
X-9314000Y49055000D01*
X-18314000Y49755000D02*
X-18309000Y49750000D01*
X-9314000Y49055000D02*
X-9314000Y45499000D01*
D27*
%TO.N,/SCLK*%
X-11882724Y39480261D02*
X-18204739Y39480261D01*
X-10314000Y38635000D02*
X-11134261Y39455261D01*
X-11857724Y39455261D02*
X-11882724Y39480261D01*
X-18204739Y39480261D02*
X-19820000Y37865000D01*
X-11134261Y39455261D02*
X-11857724Y39455261D01*
%TO.N,/MISO*%
X-14159000Y40380000D02*
X-19130000Y40380000D01*
X-13064000Y41475000D02*
X-14159000Y40380000D01*
X-11154000Y41475000D02*
X-13064000Y41475000D01*
X-10314000Y40635000D02*
X-11154000Y41475000D01*
%TO.N,/MOSI*%
X-19284739Y43480261D02*
X-19820000Y42945000D01*
X-11159261Y43480261D02*
X-19284739Y43480261D01*
X-10314000Y42635000D02*
X-11159261Y43480261D01*
%TO.N,/A0*%
X-11264000Y49205000D02*
X-11714000Y49655000D01*
X-13114000Y49655000D02*
X-13494000Y49275000D01*
X-11264000Y45585000D02*
X-11264000Y49205000D01*
X-10314000Y44635000D02*
X-11264000Y45585000D01*
X-11714000Y49655000D02*
X-13114000Y49655000D01*
X-13494000Y49275000D02*
X-21070000Y49275000D01*
X-21070000Y49275000D02*
X-22360000Y50565000D01*
%TO.N,/connection_detector*%
X-11614000Y73555000D02*
X-10114000Y73555000D01*
X-19814000Y68155000D02*
X-17014000Y68155000D01*
X-17014000Y68155000D02*
X-11614000Y73555000D01*
%TO.N,/C0*%
X-18199344Y36639656D02*
X-21134656Y36639656D01*
X-21134656Y36639656D02*
X-22360000Y37865000D01*
X-12314000Y38635000D02*
X-16204000Y38635000D01*
X-16204000Y38635000D02*
X-18199344Y36639656D01*
%TO.N,/B0*%
X-12314000Y46255500D02*
X-14344500Y44225000D01*
X-14344500Y44225000D02*
X-21080000Y44225000D01*
X-21080000Y44225000D02*
X-22360000Y42945000D01*
%TO.N,/B1*%
X-12314000Y48635000D02*
X-12489000Y48460000D01*
X-17309000Y48460000D02*
X-18994000Y46775000D01*
X-18994000Y46775000D02*
X-21070000Y46775000D01*
X-12489000Y48460000D02*
X-17309000Y48460000D01*
X-21070000Y46775000D02*
X-22360000Y45485000D01*
D24*
%TO.N,/I2C_PWR*%
X-20964000Y62925000D02*
X-22664000Y62925000D01*
X-19845000Y30220000D02*
X-19820000Y30245000D01*
X-20514000Y64375000D02*
X-20514000Y63375000D01*
X-24025000Y30950000D02*
X-23295000Y30220000D01*
X-20514000Y63375000D02*
X-20964000Y62925000D01*
X-23295000Y30220000D02*
X-19845000Y30220000D01*
X-22664000Y62925000D02*
X-24025000Y61564000D01*
X-24025000Y61564000D02*
X-24025000Y30950000D01*
D26*
%TO.N,Net-(D1-A)*%
X-8976500Y11760000D02*
X-7384000Y11760000D01*
X-7384000Y11760000D02*
X-7339000Y11805000D01*
%TO.N,Net-(D2-A)*%
X-8976500Y8720000D02*
X-7374000Y8720000D01*
X-7374000Y8720000D02*
X-7339000Y8755000D01*
%TD*%
%TA.AperFunction,Conductor*%
%TO.N,GND*%
G36*
X-2564500Y29083444D02*
G01*
X-2584185Y29016405D01*
X-2636989Y28970650D01*
X-2706147Y28960706D01*
X-2751529Y28976658D01*
X-2785437Y28996672D01*
X-2921235Y29044234D01*
X-3016550Y29062970D01*
X-3016559Y29062971D01*
X-3115204Y29072463D01*
X-3244473Y29072171D01*
X-3284032Y29083691D01*
X-2564500Y29524694D01*
X-2564500Y29083444D01*
G37*
%TD.AperFunction*%
%TA.AperFunction,Conductor*%
G36*
X-14839041Y51644001D02*
G01*
X-14843074Y51645185D01*
X-14863716Y51661819D01*
X-14909899Y51708002D01*
X-14839041Y51644001D01*
G37*
%TD.AperFunction*%
%TA.AperFunction,Conductor*%
G36*
X-17796982Y64256921D02*
G01*
X-17764229Y64195204D01*
X-17761700Y64170289D01*
X-17761700Y56219500D01*
X-17781385Y56152461D01*
X-17834189Y56106706D01*
X-17885700Y56095500D01*
X-18795325Y56095500D01*
X-18862364Y56115185D01*
X-18904683Y56161047D01*
X-18942312Y56231445D01*
X-18942316Y56231451D01*
X-18942318Y56231453D01*
X-18965857Y56260136D01*
X-19073590Y56391411D01*
X-19233548Y56522683D01*
X-19233547Y56522683D01*
X-19233550Y56522685D01*
X-19416046Y56620232D01*
X-19614066Y56680300D01*
X-19614068Y56680301D01*
X-19614066Y56680301D01*
X-19820000Y56700583D01*
X-20025933Y56680301D01*
X-20223957Y56620231D01*
X-20327285Y56565000D01*
X-20406450Y56522685D01*
X-20406452Y56522684D01*
X-20406453Y56522683D01*
X-20566411Y56391411D01*
X-20697685Y56231451D01*
X-20697689Y56231445D01*
X-20735317Y56161047D01*
X-20784279Y56111203D01*
X-20844675Y56095500D01*
X-21335325Y56095500D01*
X-21402364Y56115185D01*
X-21444683Y56161047D01*
X-21482312Y56231445D01*
X-21482316Y56231451D01*
X-21482318Y56231453D01*
X-21505857Y56260136D01*
X-21613590Y56391411D01*
X-21773548Y56522683D01*
X-21773547Y56522683D01*
X-21773550Y56522685D01*
X-21956046Y56620232D01*
X-22154066Y56680300D01*
X-22154068Y56680301D01*
X-22154066Y56680301D01*
X-22360000Y56700583D01*
X-22565933Y56680301D01*
X-22763957Y56620231D01*
X-22867285Y56565000D01*
X-22946450Y56522685D01*
X-22946452Y56522684D01*
X-22946453Y56522683D01*
X-23106411Y56391411D01*
X-23220941Y56251853D01*
X-23237685Y56231450D01*
X-23244072Y56219500D01*
X-23335235Y56048951D01*
X-23335940Y56047246D01*
X-23336549Y56046491D01*
X-23338104Y56043581D01*
X-23338656Y56043876D01*
X-23379782Y55992844D01*
X-23446076Y55970780D01*
X-23513775Y55988060D01*
X-23561385Y56039199D01*
X-23574500Y56094701D01*
X-23574500Y57735300D01*
X-23554815Y57802339D01*
X-23502011Y57848094D01*
X-23432853Y57858038D01*
X-23369297Y57829013D01*
X-23338451Y57786234D01*
X-23338104Y57786419D01*
X-23336728Y57783845D01*
X-23335938Y57782749D01*
X-23335235Y57781052D01*
X-23335233Y57781047D01*
X-23335232Y57781046D01*
X-23237685Y57598550D01*
X-23237683Y57598548D01*
X-23106411Y57438590D01*
X-23049502Y57391887D01*
X-22946450Y57307315D01*
X-22763954Y57209768D01*
X-22565934Y57149700D01*
X-22565935Y57149700D01*
X-22547471Y57147882D01*
X-22360000Y57129417D01*
X-22154066Y57149700D01*
X-21956046Y57209768D01*
X-21773550Y57307315D01*
X-21613590Y57438590D01*
X-21482315Y57598550D01*
X-21384768Y57781046D01*
X-21324700Y57979066D01*
X-21304417Y58185000D01*
X-20875583Y58185000D01*
X-20855301Y57979068D01*
X-20855300Y57979066D01*
X-20795232Y57781046D01*
X-20697685Y57598550D01*
X-20697683Y57598548D01*
X-20566411Y57438590D01*
X-20509502Y57391887D01*
X-20406450Y57307315D01*
X-20223954Y57209768D01*
X-20025934Y57149700D01*
X-20025935Y57149700D01*
X-20007471Y57147882D01*
X-19820000Y57129417D01*
X-19614066Y57149700D01*
X-19416046Y57209768D01*
X-19233550Y57307315D01*
X-19073590Y57438590D01*
X-18942315Y57598550D01*
X-18844768Y57781046D01*
X-18784700Y57979066D01*
X-18764417Y58185000D01*
X-18784700Y58390934D01*
X-18844768Y58588954D01*
X-18942315Y58771450D01*
X-18994298Y58834791D01*
X-19073590Y58931411D01*
X-19233548Y59062683D01*
X-19233547Y59062683D01*
X-19233550Y59062685D01*
X-19416046Y59160232D01*
X-19614066Y59220300D01*
X-19614068Y59220301D01*
X-19614066Y59220301D01*
X-19820000Y59240583D01*
X-20025933Y59220301D01*
X-20223957Y59160231D01*
X-20334102Y59101357D01*
X-20406450Y59062685D01*
X-20406452Y59062684D01*
X-20406453Y59062683D01*
X-20566411Y58931411D01*
X-20697683Y58771453D01*
X-20795231Y58588957D01*
X-20855301Y58390933D01*
X-20875583Y58185000D01*
X-21304417Y58185000D01*
X-21324700Y58390934D01*
X-21384768Y58588954D01*
X-21482315Y58771450D01*
X-21534298Y58834791D01*
X-21613590Y58931411D01*
X-21773548Y59062683D01*
X-21773547Y59062683D01*
X-21773550Y59062685D01*
X-21956046Y59160232D01*
X-22154066Y59220300D01*
X-22154068Y59220301D01*
X-22154066Y59220301D01*
X-22360000Y59240583D01*
X-22565933Y59220301D01*
X-22763957Y59160231D01*
X-22874102Y59101357D01*
X-22946450Y59062685D01*
X-22946452Y59062684D01*
X-22946453Y59062683D01*
X-23106411Y58931411D01*
X-23237683Y58771453D01*
X-23335235Y58588951D01*
X-23335940Y58587246D01*
X-23336549Y58586491D01*
X-23338104Y58583581D01*
X-23338656Y58583876D01*
X-23379782Y58532844D01*
X-23446076Y58510780D01*
X-23513775Y58528060D01*
X-23561385Y58579199D01*
X-23574500Y58634701D01*
X-23574500Y59519506D01*
X-23554815Y59586545D01*
X-23502011Y59632300D01*
X-23432853Y59642244D01*
X-23393424Y59626873D01*
X-23392990Y59627854D01*
X-23279877Y59577911D01*
X-23254794Y59575001D01*
X-22610001Y59575001D01*
X-22610000Y59575002D01*
X-22610000Y60291988D01*
X-22552993Y60259075D01*
X-22425826Y60225000D01*
X-22294174Y60225000D01*
X-22167007Y60259075D01*
X-22110000Y60291988D01*
X-22110000Y59575001D01*
X-21465214Y59575001D01*
X-21465192Y59575003D01*
X-21440131Y59577909D01*
X-21440127Y59577910D01*
X-21337526Y59623212D01*
X-21337521Y59623215D01*
X-21258215Y59702521D01*
X-21258212Y59702526D01*
X-21212911Y59805123D01*
X-21212911Y59805125D01*
X-21210001Y59830206D01*
X-21210000Y59830209D01*
X-21210000Y60475000D01*
X-21926988Y60475000D01*
X-21894075Y60532007D01*
X-21860000Y60659174D01*
X-21860000Y60790826D01*
X-21894075Y60917993D01*
X-21926988Y60975000D01*
X-21210001Y60975000D01*
X-21210001Y60975001D01*
X-20944513Y60975001D01*
X-20944512Y60975000D01*
X-20253012Y60975000D01*
X-20285925Y60917993D01*
X-20320000Y60790826D01*
X-20320000Y60659174D01*
X-20285925Y60532007D01*
X-20253012Y60475000D01*
X-20944512Y60475000D01*
X-20896938Y60307795D01*
X-20896933Y60307782D01*
X-20801939Y60117009D01*
X-20673500Y59946929D01*
X-20516000Y59803349D01*
X-20515998Y59803347D01*
X-20334799Y59691154D01*
X-20334793Y59691151D01*
X-20136059Y59614162D01*
X-20070000Y59601814D01*
X-20070000Y60291988D01*
X-20012993Y60259075D01*
X-19885826Y60225000D01*
X-19754174Y60225000D01*
X-19627007Y60259075D01*
X-19570000Y60291988D01*
X-19570000Y59601815D01*
X-19503942Y59614162D01*
X-19305208Y59691151D01*
X-19305202Y59691154D01*
X-19124003Y59803347D01*
X-19124001Y59803349D01*
X-18966501Y59946929D01*
X-18838062Y60117009D01*
X-18743068Y60307782D01*
X-18743063Y60307795D01*
X-18695488Y60475000D01*
X-19386988Y60475000D01*
X-19354075Y60532007D01*
X-19320000Y60659174D01*
X-19320000Y60790826D01*
X-19354075Y60917993D01*
X-19386988Y60975000D01*
X-18695488Y60975000D01*
X-18695488Y60975001D01*
X-18743063Y61142206D01*
X-18743068Y61142219D01*
X-18838062Y61332992D01*
X-18966501Y61503072D01*
X-19124001Y61646652D01*
X-19124003Y61646654D01*
X-19305202Y61758847D01*
X-19305211Y61758851D01*
X-19503937Y61835837D01*
X-19503942Y61835838D01*
X-19570000Y61848187D01*
X-19570000Y61158012D01*
X-19627007Y61190925D01*
X-19754174Y61225000D01*
X-19885826Y61225000D01*
X-20012993Y61190925D01*
X-20070000Y61158012D01*
X-20070000Y61848187D01*
X-20136059Y61835838D01*
X-20136064Y61835837D01*
X-20334790Y61758851D01*
X-20334799Y61758847D01*
X-20515998Y61646654D01*
X-20516000Y61646652D01*
X-20673500Y61503072D01*
X-20801939Y61332992D01*
X-20896933Y61142219D01*
X-20896938Y61142206D01*
X-20944513Y60975001D01*
X-21210001Y60975001D01*
X-21210001Y61619786D01*
X-21210003Y61619809D01*
X-21212909Y61644870D01*
X-21212910Y61644874D01*
X-21258212Y61747475D01*
X-21258215Y61747480D01*
X-21337521Y61826786D01*
X-21337526Y61826789D01*
X-21440124Y61872090D01*
X-21465206Y61875000D01*
X-22110000Y61875000D01*
X-22110000Y61158012D01*
X-22167007Y61190925D01*
X-22294174Y61225000D01*
X-22425826Y61225000D01*
X-22552993Y61190925D01*
X-22610000Y61158012D01*
X-22610000Y61875000D01*
X-22777535Y61875000D01*
X-22844574Y61894685D01*
X-22890329Y61947489D01*
X-22900273Y62016647D01*
X-22871248Y62080203D01*
X-22865225Y62086672D01*
X-22513715Y62438181D01*
X-22452392Y62471666D01*
X-22426034Y62474500D01*
X-20904692Y62474500D01*
X-20904691Y62474500D01*
X-20814327Y62498714D01*
X-20790113Y62505201D01*
X-20687386Y62564511D01*
X-20153511Y63098386D01*
X-20094201Y63201113D01*
X-20085144Y63234916D01*
X-20063500Y63315691D01*
X-20063500Y63581177D01*
X-20043815Y63648216D01*
X-19991011Y63693971D01*
X-19963695Y63702794D01*
X-19921769Y63711133D01*
X-19921769Y63711134D01*
X-19909789Y63713516D01*
X-19909494Y63712029D01*
X-19853690Y63718033D01*
X-19848102Y63716892D01*
X-19839165Y63714852D01*
X-19839163Y63714851D01*
X-19750000Y63694500D01*
X-19128114Y63694500D01*
X-19128111Y63694500D01*
X-19070215Y63702824D01*
X-18932260Y63743331D01*
X-18879055Y63767629D01*
X-18758101Y63845361D01*
X-18713895Y63883666D01*
X-18625081Y63986165D01*
X-18566305Y64023938D01*
X-18515184Y64027900D01*
X-18485091Y64023938D01*
X-18450001Y64019318D01*
X-18450000Y64019318D01*
X-18449999Y64019318D01*
X-18384813Y64027900D01*
X-18293238Y64039956D01*
X-18147159Y64100464D01*
X-18021718Y64196718D01*
X-17984075Y64245777D01*
X-17927649Y64286978D01*
X-17857903Y64291133D01*
X-17796982Y64256921D01*
G37*
%TD.AperFunction*%
%TA.AperFunction,Conductor*%
G36*
X-1437870Y85800129D02*
G01*
X-1370852Y85780375D01*
X-1325152Y85727523D01*
X-1314000Y85676129D01*
X-1314000Y129000D01*
X-1333685Y61961D01*
X-1386489Y16206D01*
X-1438000Y5000D01*
X-18950601Y5000D01*
X-18950988Y5001D01*
X-24790387Y23212D01*
X-24857364Y43105D01*
X-24902954Y96052D01*
X-24914000Y147211D01*
X-24914000Y2362242D01*
X-11410500Y2362242D01*
X-11410500Y2132759D01*
X-11385554Y1943285D01*
X-11380548Y1905262D01*
X-11380547Y1905260D01*
X-11321158Y1683613D01*
X-11233350Y1471624D01*
X-11233343Y1471610D01*
X-11118608Y1272883D01*
X-10978919Y1090839D01*
X-10978911Y1090830D01*
X-10816670Y928589D01*
X-10816662Y928582D01*
X-10634618Y788893D01*
X-10634615Y788892D01*
X-10634612Y788889D01*
X-10435888Y674156D01*
X-10435883Y674154D01*
X-10435877Y674151D01*
X-10344520Y636310D01*
X-10223887Y586342D01*
X-10002238Y526952D01*
X-9774734Y497000D01*
X-9774727Y497000D01*
X-9545273Y497000D01*
X-9545266Y497000D01*
X-9317762Y526952D01*
X-9096113Y586342D01*
X-8884112Y674156D01*
X-8685388Y788889D01*
X-8503339Y928581D01*
X-8503335Y928586D01*
X-8503330Y928589D01*
X-8341089Y1090830D01*
X-8341086Y1090835D01*
X-8341081Y1090839D01*
X-8201389Y1272888D01*
X-8086656Y1471612D01*
X-7998842Y1683613D01*
X-7939452Y1905262D01*
X-7909500Y2132766D01*
X-7909500Y2362234D01*
X-7939452Y2589738D01*
X-7998842Y2811387D01*
X-8086656Y3023388D01*
X-8201389Y3222112D01*
X-8201392Y3222115D01*
X-8201393Y3222118D01*
X-8341082Y3404162D01*
X-8341089Y3404170D01*
X-8503330Y3566411D01*
X-8503339Y3566419D01*
X-8685383Y3706108D01*
X-8884110Y3820843D01*
X-8884124Y3820850D01*
X-9096113Y3908658D01*
X-9317762Y3968048D01*
X-9355785Y3973054D01*
X-9545259Y3998000D01*
X-9545266Y3998000D01*
X-9774734Y3998000D01*
X-9774742Y3998000D01*
X-9991285Y3969491D01*
X-10002238Y3968048D01*
X-10095924Y3942946D01*
X-10223888Y3908658D01*
X-10435877Y3820850D01*
X-10435891Y3820843D01*
X-10634618Y3706108D01*
X-10816662Y3566419D01*
X-10978919Y3404162D01*
X-11118608Y3222118D01*
X-11233343Y3023391D01*
X-11233350Y3023377D01*
X-11321158Y2811388D01*
X-11380547Y2589741D01*
X-11380549Y2589730D01*
X-11410500Y2362242D01*
X-24914000Y2362242D01*
X-24914000Y8221182D01*
X-11639000Y8221182D01*
X-11628507Y8133802D01*
X-11628507Y8133801D01*
X-11573670Y7994745D01*
X-11483355Y7875646D01*
X-11364256Y7785331D01*
X-11225199Y7730494D01*
X-11137818Y7720000D01*
X-11101500Y7720000D01*
X-10601500Y7720000D01*
X-10565182Y7720000D01*
X-10477802Y7730494D01*
X-10477801Y7730494D01*
X-10338745Y7785331D01*
X-10219646Y7875646D01*
X-10129331Y7994745D01*
X-10074494Y8133801D01*
X-10074494Y8133802D01*
X-10064000Y8221182D01*
X-10064000Y8470000D01*
X-10601500Y8470000D01*
X-10601500Y7720000D01*
X-11101500Y7720000D01*
X-11101500Y8470000D01*
X-11639000Y8470000D01*
X-11639000Y8221182D01*
X-24914000Y8221182D01*
X-24914000Y9218819D01*
X-11639000Y9218819D01*
X-11639000Y8970000D01*
X-11101500Y8970000D01*
X-10601500Y8970000D01*
X-10064000Y8970000D01*
X-10064000Y9218819D01*
X-10065315Y9229769D01*
X-9664500Y9229769D01*
X-9664500Y8210232D01*
X-9661687Y8180231D01*
X-9661685Y8180219D01*
X-9617456Y8053822D01*
X-9617455Y8053820D01*
X-9537931Y7946070D01*
X-9430181Y7866546D01*
X-9430179Y7866545D01*
X-9303782Y7822316D01*
X-9303778Y7822316D01*
X-9303774Y7822314D01*
X-9288769Y7820907D01*
X-9273768Y7819500D01*
X-9273764Y7819500D01*
X-8679232Y7819500D01*
X-8665899Y7820751D01*
X-8649226Y7822314D01*
X-8649222Y7822316D01*
X-8649219Y7822316D01*
X-8557244Y7854500D01*
X-8522821Y7866545D01*
X-8415070Y7946070D01*
X-8335545Y8053821D01*
X-8291314Y8180226D01*
X-8290171Y8192419D01*
X-8264318Y8257326D01*
X-8207475Y8297954D01*
X-8137690Y8301401D01*
X-8077120Y8266572D01*
X-8049672Y8221801D01*
X-8004294Y8092120D01*
X-8004293Y8092118D01*
X-7923650Y7982850D01*
X-7814382Y7902207D01*
X-7771655Y7887256D01*
X-7686201Y7857354D01*
X-7655770Y7854500D01*
X-7655766Y7854500D01*
X-7022230Y7854500D01*
X-6991801Y7857354D01*
X-6991799Y7857354D01*
X-6927710Y7879781D01*
X-6863618Y7902207D01*
X-6754350Y7982850D01*
X-6673707Y8092118D01*
X-6642875Y8180231D01*
X-6628854Y8220299D01*
X-6628854Y8220301D01*
X-6626000Y8250731D01*
X-6626000Y9259270D01*
X-6628854Y9289700D01*
X-6628854Y9289702D01*
X-6673707Y9417881D01*
X-6673708Y9417883D01*
X-6729833Y9493930D01*
X-6754350Y9527150D01*
X-6863618Y9607793D01*
X-6863620Y9607794D01*
X-6991800Y9652647D01*
X-7022230Y9655500D01*
X-7022234Y9655500D01*
X-7655766Y9655500D01*
X-7655770Y9655500D01*
X-7686200Y9652647D01*
X-7686202Y9652647D01*
X-7814381Y9607794D01*
X-7814383Y9607793D01*
X-7923650Y9527150D01*
X-8004293Y9417883D01*
X-8004294Y9417881D01*
X-8049147Y9289702D01*
X-8049540Y9285503D01*
X-8050698Y9282599D01*
X-8050756Y9282330D01*
X-8050801Y9282340D01*
X-8075402Y9220596D01*
X-8132249Y9179974D01*
X-8202034Y9176534D01*
X-8262600Y9211370D01*
X-8290039Y9256132D01*
X-8335545Y9386179D01*
X-8335546Y9386181D01*
X-8415070Y9493931D01*
X-8522820Y9573455D01*
X-8522822Y9573456D01*
X-8649219Y9617685D01*
X-8649231Y9617687D01*
X-8679232Y9620500D01*
X-8679236Y9620500D01*
X-9273764Y9620500D01*
X-9273768Y9620500D01*
X-9303770Y9617687D01*
X-9303782Y9617685D01*
X-9430179Y9573456D01*
X-9430181Y9573455D01*
X-9537931Y9493931D01*
X-9617455Y9386181D01*
X-9617456Y9386179D01*
X-9661685Y9259782D01*
X-9661687Y9259770D01*
X-9664500Y9229769D01*
X-10065315Y9229769D01*
X-10074494Y9306199D01*
X-10074494Y9306200D01*
X-10129331Y9445256D01*
X-10219646Y9564355D01*
X-10338745Y9654670D01*
X-10477802Y9709507D01*
X-10565182Y9720000D01*
X-10601500Y9720000D01*
X-10601500Y8970000D01*
X-11101500Y8970000D01*
X-11101500Y9720000D01*
X-11137818Y9720000D01*
X-11225199Y9709507D01*
X-11225200Y9709507D01*
X-11364256Y9654670D01*
X-11483355Y9564355D01*
X-11573670Y9445256D01*
X-11628507Y9306200D01*
X-11628507Y9306199D01*
X-11639000Y9218819D01*
X-24914000Y9218819D01*
X-24914000Y11261182D01*
X-11639000Y11261182D01*
X-11628507Y11173802D01*
X-11628507Y11173801D01*
X-11573670Y11034745D01*
X-11483355Y10915646D01*
X-11364256Y10825331D01*
X-11225199Y10770494D01*
X-11137818Y10760000D01*
X-11101500Y10760000D01*
X-10601500Y10760000D01*
X-10565182Y10760000D01*
X-10477802Y10770494D01*
X-10477801Y10770494D01*
X-10338745Y10825331D01*
X-10219646Y10915646D01*
X-10129331Y11034745D01*
X-10074494Y11173801D01*
X-10074494Y11173802D01*
X-10064000Y11261182D01*
X-10064000Y11510000D01*
X-10601500Y11510000D01*
X-10601500Y10760000D01*
X-11101500Y10760000D01*
X-11101500Y11510000D01*
X-11639000Y11510000D01*
X-11639000Y11261182D01*
X-24914000Y11261182D01*
X-24914000Y12258819D01*
X-11639000Y12258819D01*
X-11639000Y12010000D01*
X-11101500Y12010000D01*
X-10601500Y12010000D01*
X-10064000Y12010000D01*
X-10064000Y12258819D01*
X-10065315Y12269769D01*
X-9664500Y12269769D01*
X-9664500Y11250232D01*
X-9661687Y11220231D01*
X-9661685Y11220219D01*
X-9617456Y11093822D01*
X-9617455Y11093820D01*
X-9537931Y10986070D01*
X-9430181Y10906546D01*
X-9430179Y10906545D01*
X-9303782Y10862316D01*
X-9303778Y10862316D01*
X-9303774Y10862314D01*
X-9288769Y10860907D01*
X-9273768Y10859500D01*
X-9273764Y10859500D01*
X-8679232Y10859500D01*
X-8665899Y10860751D01*
X-8649226Y10862314D01*
X-8649222Y10862316D01*
X-8649219Y10862316D01*
X-8561628Y10892966D01*
X-8522821Y10906545D01*
X-8415070Y10986070D01*
X-8335545Y11093821D01*
X-8291314Y11220226D01*
X-8289431Y11240309D01*
X-8263575Y11305215D01*
X-8206731Y11345841D01*
X-8136946Y11349286D01*
X-8076377Y11314455D01*
X-8048932Y11269687D01*
X-8007167Y11150332D01*
X-8004293Y11142118D01*
X-7923650Y11032850D01*
X-7814382Y10952207D01*
X-7771655Y10937256D01*
X-7686201Y10907354D01*
X-7655770Y10904500D01*
X-7655766Y10904500D01*
X-7022230Y10904500D01*
X-6991801Y10907354D01*
X-6991799Y10907354D01*
X-6927710Y10929781D01*
X-6863618Y10952207D01*
X-6754350Y11032850D01*
X-6673707Y11142118D01*
X-6646374Y11220231D01*
X-6628854Y11270299D01*
X-6628854Y11270301D01*
X-6626000Y11300731D01*
X-6626000Y12309270D01*
X-6227000Y12309270D01*
X-6227000Y11300731D01*
X-6224147Y11270301D01*
X-6224147Y11270299D01*
X-6181811Y11149314D01*
X-6179293Y11142118D01*
X-6098650Y11032850D01*
X-5989382Y10952207D01*
X-5946655Y10937256D01*
X-5861201Y10907354D01*
X-5830770Y10904500D01*
X-5830766Y10904500D01*
X-5197230Y10904500D01*
X-5166801Y10907354D01*
X-5166799Y10907354D01*
X-5102710Y10929781D01*
X-5038618Y10952207D01*
X-4929350Y11032850D01*
X-4848707Y11142118D01*
X-4848706Y11142121D01*
X-4844366Y11150332D01*
X-4842438Y11149314D01*
X-4809052Y11195873D01*
X-4764811Y11217928D01*
X-4757253Y11219955D01*
X-4757238Y11219956D01*
X-4611159Y11280464D01*
X-4485718Y11376718D01*
X-4389464Y11502159D01*
X-4328956Y11648238D01*
X-4308318Y11805000D01*
X-4328956Y11961762D01*
X-4389464Y12107841D01*
X-4485718Y12233282D01*
X-4611159Y12329536D01*
X-4611161Y12329537D01*
X-4757242Y12390046D01*
X-4764819Y12392076D01*
X-4824477Y12428444D01*
X-4843385Y12460188D01*
X-4844366Y12459669D01*
X-4848707Y12467883D01*
X-4882952Y12514282D01*
X-4929350Y12577150D01*
X-5038618Y12657793D01*
X-5038620Y12657794D01*
X-5166800Y12702647D01*
X-5197230Y12705500D01*
X-5197234Y12705500D01*
X-5830766Y12705500D01*
X-5830770Y12705500D01*
X-5861200Y12702647D01*
X-5861202Y12702647D01*
X-5989381Y12657794D01*
X-5989383Y12657793D01*
X-6098650Y12577150D01*
X-6179293Y12467883D01*
X-6179294Y12467881D01*
X-6224147Y12339702D01*
X-6224147Y12339700D01*
X-6227000Y12309270D01*
X-6626000Y12309270D01*
X-6628854Y12339700D01*
X-6628854Y12339702D01*
X-6673707Y12467881D01*
X-6673708Y12467883D01*
X-6686530Y12485256D01*
X-6754350Y12577150D01*
X-6863618Y12657793D01*
X-6863620Y12657794D01*
X-6991800Y12702647D01*
X-7022230Y12705500D01*
X-7022234Y12705500D01*
X-7655766Y12705500D01*
X-7655770Y12705500D01*
X-7686200Y12702647D01*
X-7686202Y12702647D01*
X-7814381Y12657794D01*
X-7814383Y12657793D01*
X-7923650Y12577150D01*
X-8004293Y12467883D01*
X-8004294Y12467881D01*
X-8049147Y12339702D01*
X-8049147Y12339700D01*
X-8050279Y12327622D01*
X-8076137Y12262714D01*
X-8132982Y12222089D01*
X-8202767Y12218646D01*
X-8263335Y12253478D01*
X-8290778Y12298245D01*
X-8335545Y12426179D01*
X-8335546Y12426181D01*
X-8415070Y12533931D01*
X-8522820Y12613455D01*
X-8522822Y12613456D01*
X-8649219Y12657685D01*
X-8649231Y12657687D01*
X-8679232Y12660500D01*
X-8679236Y12660500D01*
X-9273764Y12660500D01*
X-9273768Y12660500D01*
X-9303770Y12657687D01*
X-9303782Y12657685D01*
X-9430179Y12613456D01*
X-9430181Y12613455D01*
X-9537931Y12533931D01*
X-9617455Y12426181D01*
X-9617456Y12426179D01*
X-9661685Y12299782D01*
X-9661687Y12299770D01*
X-9664500Y12269769D01*
X-10065315Y12269769D01*
X-10074494Y12346199D01*
X-10074494Y12346200D01*
X-10129331Y12485256D01*
X-10219646Y12604355D01*
X-10338745Y12694670D01*
X-10477802Y12749507D01*
X-10565182Y12760000D01*
X-10601500Y12760000D01*
X-10601500Y12010000D01*
X-11101500Y12010000D01*
X-11101500Y12760000D01*
X-11137818Y12760000D01*
X-11225199Y12749507D01*
X-11225200Y12749507D01*
X-11364256Y12694670D01*
X-11483355Y12604355D01*
X-11573670Y12485256D01*
X-11628507Y12346200D01*
X-11628507Y12346199D01*
X-11639000Y12258819D01*
X-24914000Y12258819D01*
X-24914000Y18966289D01*
X-11150500Y18966289D01*
X-11150500Y18723712D01*
X-11118839Y18483215D01*
X-11056053Y18248896D01*
X-10963227Y18024795D01*
X-10963224Y18024788D01*
X-10841936Y17814711D01*
X-10841934Y17814708D01*
X-10841933Y17814707D01*
X-10694267Y17622264D01*
X-10694261Y17622257D01*
X-10522744Y17450740D01*
X-10522738Y17450735D01*
X-10330289Y17303064D01*
X-10120212Y17181776D01*
X-9896100Y17088946D01*
X-9661789Y17026162D01*
X-9481414Y17002416D01*
X-9421289Y16994500D01*
X-9421288Y16994500D01*
X-9178711Y16994500D01*
X-9130612Y17000833D01*
X-8938211Y17026162D01*
X-8703900Y17088946D01*
X-8479788Y17181776D01*
X-8269711Y17303064D01*
X-8077262Y17450735D01*
X-7905735Y17622262D01*
X-7758064Y17814711D01*
X-7636776Y18024788D01*
X-7543946Y18248900D01*
X-7481162Y18483211D01*
X-7449500Y18723712D01*
X-7449500Y18966288D01*
X-7481162Y19206789D01*
X-7543946Y19441100D01*
X-7636776Y19665212D01*
X-7758064Y19875289D01*
X-7905735Y20067738D01*
X-7905740Y20067744D01*
X-8077257Y20239261D01*
X-8077264Y20239267D01*
X-8269707Y20386933D01*
X-8269708Y20386934D01*
X-8269711Y20386936D01*
X-8479788Y20508224D01*
X-8479795Y20508227D01*
X-8703896Y20601053D01*
X-8938215Y20663839D01*
X-9178711Y20695500D01*
X-9178712Y20695500D01*
X-9421288Y20695500D01*
X-9421289Y20695500D01*
X-9661786Y20663839D01*
X-9896105Y20601053D01*
X-10120206Y20508227D01*
X-10120215Y20508223D01*
X-10330294Y20386933D01*
X-10522737Y20239267D01*
X-10522744Y20239261D01*
X-10694261Y20067744D01*
X-10694267Y20067737D01*
X-10841933Y19875294D01*
X-10963223Y19665215D01*
X-10963227Y19665206D01*
X-11056053Y19441105D01*
X-11118839Y19206786D01*
X-11150500Y18966289D01*
X-24914000Y18966289D01*
X-24914000Y25415001D01*
X-23484513Y25415001D01*
X-23484512Y25415000D01*
X-22793012Y25415000D01*
X-22825925Y25357993D01*
X-22860000Y25230826D01*
X-22860000Y25099174D01*
X-22825925Y24972007D01*
X-22793012Y24915000D01*
X-23484512Y24915000D01*
X-23436938Y24747795D01*
X-23436933Y24747782D01*
X-23341939Y24557009D01*
X-23213500Y24386929D01*
X-23056000Y24243349D01*
X-23055998Y24243347D01*
X-22874799Y24131154D01*
X-22874793Y24131151D01*
X-22676059Y24054162D01*
X-22610000Y24041814D01*
X-22610000Y24731988D01*
X-22552993Y24699075D01*
X-22425826Y24665000D01*
X-22294174Y24665000D01*
X-22167007Y24699075D01*
X-22110000Y24731988D01*
X-22110000Y24041815D01*
X-22043942Y24054162D01*
X-21845208Y24131151D01*
X-21845202Y24131154D01*
X-21664003Y24243347D01*
X-21664001Y24243349D01*
X-21506501Y24386929D01*
X-21378062Y24557009D01*
X-21283068Y24747782D01*
X-21283063Y24747795D01*
X-21235488Y24915000D01*
X-21926988Y24915000D01*
X-21894075Y24972007D01*
X-21860000Y25099174D01*
X-21860000Y25230826D01*
X-21894075Y25357993D01*
X-21926988Y25415000D01*
X-21235488Y25415000D01*
X-21235488Y25415001D01*
X-20944513Y25415001D01*
X-20944512Y25415000D01*
X-20253012Y25415000D01*
X-20285925Y25357993D01*
X-20320000Y25230826D01*
X-20320000Y25099174D01*
X-20285925Y24972007D01*
X-20253012Y24915000D01*
X-20944512Y24915000D01*
X-20896938Y24747795D01*
X-20896933Y24747782D01*
X-20801939Y24557009D01*
X-20673500Y24386929D01*
X-20516000Y24243349D01*
X-20515998Y24243347D01*
X-20334799Y24131154D01*
X-20334793Y24131151D01*
X-20136059Y24054162D01*
X-20070000Y24041814D01*
X-20070000Y24731988D01*
X-20012993Y24699075D01*
X-19885826Y24665000D01*
X-19754174Y24665000D01*
X-19627007Y24699075D01*
X-19570000Y24731988D01*
X-19570000Y24041815D01*
X-19503942Y24054162D01*
X-19305208Y24131151D01*
X-19305202Y24131154D01*
X-19124003Y24243347D01*
X-19124001Y24243349D01*
X-18966501Y24386929D01*
X-18838062Y24557009D01*
X-18743068Y24747782D01*
X-18743063Y24747795D01*
X-18695488Y24915000D01*
X-19386988Y24915000D01*
X-19354075Y24972007D01*
X-19320000Y25099174D01*
X-19320000Y25230826D01*
X-19354075Y25357993D01*
X-19386988Y25415000D01*
X-18695488Y25415000D01*
X-18695488Y25415001D01*
X-18743063Y25582206D01*
X-18743068Y25582219D01*
X-18838062Y25772992D01*
X-18966501Y25943072D01*
X-19124001Y26086652D01*
X-19124003Y26086654D01*
X-19305202Y26198847D01*
X-19305211Y26198851D01*
X-19503937Y26275837D01*
X-19503942Y26275838D01*
X-19570000Y26288187D01*
X-19570000Y25598012D01*
X-19627007Y25630925D01*
X-19754174Y25665000D01*
X-19885826Y25665000D01*
X-20012993Y25630925D01*
X-20070000Y25598012D01*
X-20070000Y26288187D01*
X-20136059Y26275838D01*
X-20136064Y26275837D01*
X-20334790Y26198851D01*
X-20334799Y26198847D01*
X-20515998Y26086654D01*
X-20516000Y26086652D01*
X-20673500Y25943072D01*
X-20801939Y25772992D01*
X-20896933Y25582219D01*
X-20896938Y25582206D01*
X-20944513Y25415001D01*
X-21235488Y25415001D01*
X-21283063Y25582206D01*
X-21283068Y25582219D01*
X-21378062Y25772992D01*
X-21506501Y25943072D01*
X-21664001Y26086652D01*
X-21664003Y26086654D01*
X-21845202Y26198847D01*
X-21845211Y26198851D01*
X-22043937Y26275837D01*
X-22043942Y26275838D01*
X-22110000Y26288187D01*
X-22110000Y25598012D01*
X-22167007Y25630925D01*
X-22294174Y25665000D01*
X-22425826Y25665000D01*
X-22552993Y25630925D01*
X-22610000Y25598012D01*
X-22610000Y26288187D01*
X-22676059Y26275838D01*
X-22676064Y26275837D01*
X-22874790Y26198851D01*
X-22874799Y26198847D01*
X-23055998Y26086654D01*
X-23056000Y26086652D01*
X-23213500Y25943072D01*
X-23341939Y25772992D01*
X-23436933Y25582219D01*
X-23436938Y25582206D01*
X-23484513Y25415001D01*
X-24914000Y25415001D01*
X-24914000Y27705000D01*
X-23415583Y27705000D01*
X-23395301Y27499068D01*
X-23395300Y27499066D01*
X-23335232Y27301046D01*
X-23237685Y27118550D01*
X-23237683Y27118548D01*
X-23106411Y26958590D01*
X-23009791Y26879298D01*
X-22946450Y26827315D01*
X-22763954Y26729768D01*
X-22565934Y26669700D01*
X-22565935Y26669700D01*
X-22547471Y26667882D01*
X-22360000Y26649417D01*
X-22154066Y26669700D01*
X-21956046Y26729768D01*
X-21773550Y26827315D01*
X-21613590Y26958590D01*
X-21482315Y27118550D01*
X-21384768Y27301046D01*
X-21324700Y27499066D01*
X-21304417Y27705000D01*
X-20875583Y27705000D01*
X-20855301Y27499068D01*
X-20855300Y27499066D01*
X-20795232Y27301046D01*
X-20697685Y27118550D01*
X-20697683Y27118548D01*
X-20566411Y26958590D01*
X-20469791Y26879298D01*
X-20406450Y26827315D01*
X-20223954Y26729768D01*
X-20025934Y26669700D01*
X-20025935Y26669700D01*
X-20007471Y26667882D01*
X-19820000Y26649417D01*
X-19614066Y26669700D01*
X-19416046Y26729768D01*
X-19233550Y26827315D01*
X-19073590Y26958590D01*
X-18942315Y27118550D01*
X-18844768Y27301046D01*
X-18784700Y27499066D01*
X-18764417Y27705000D01*
X-18784700Y27910934D01*
X-18844768Y28108954D01*
X-18942315Y28291450D01*
X-19021772Y28388269D01*
X-19073590Y28451411D01*
X-19194029Y28550251D01*
X-19233550Y28582685D01*
X-19416046Y28680232D01*
X-19614066Y28740300D01*
X-19614068Y28740301D01*
X-19614066Y28740301D01*
X-19820000Y28760583D01*
X-20025933Y28740301D01*
X-20187853Y28691183D01*
X-20219981Y28681437D01*
X-20223957Y28680231D01*
X-20334102Y28621357D01*
X-20406450Y28582685D01*
X-20406452Y28582684D01*
X-20406453Y28582683D01*
X-20566411Y28451411D01*
X-20697683Y28291453D01*
X-20795231Y28108957D01*
X-20855301Y27910933D01*
X-20875583Y27705000D01*
X-21304417Y27705000D01*
X-21324700Y27910934D01*
X-21384768Y28108954D01*
X-21482315Y28291450D01*
X-21561772Y28388269D01*
X-21613590Y28451411D01*
X-21734029Y28550251D01*
X-21773550Y28582685D01*
X-21956046Y28680232D01*
X-22154066Y28740300D01*
X-22154068Y28740301D01*
X-22154066Y28740301D01*
X-22360000Y28760583D01*
X-22565933Y28740301D01*
X-22727853Y28691183D01*
X-22759981Y28681437D01*
X-22763957Y28680231D01*
X-22874102Y28621357D01*
X-22946450Y28582685D01*
X-22946452Y28582684D01*
X-22946453Y28582683D01*
X-23106411Y28451411D01*
X-23237683Y28291453D01*
X-23335231Y28108957D01*
X-23395301Y27910933D01*
X-23415583Y27705000D01*
X-24914000Y27705000D01*
X-24914000Y61623309D01*
X-24475500Y61623309D01*
X-24475500Y30890692D01*
X-24451288Y30800328D01*
X-24444800Y30776115D01*
X-24444800Y30776114D01*
X-24444799Y30776113D01*
X-24385489Y30673386D01*
X-23571614Y29859511D01*
X-23468887Y29800201D01*
X-23444679Y29793716D01*
X-23444676Y29793714D01*
X-23444675Y29793714D01*
X-23408923Y29784135D01*
X-23354309Y29769500D01*
X-23354307Y29769500D01*
X-23346459Y29767397D01*
X-23346899Y29765757D01*
X-23291914Y29741440D01*
X-23262629Y29705215D01*
X-23237685Y29658550D01*
X-23222597Y29640165D01*
X-23106411Y29498590D01*
X-23037831Y29442309D01*
X-22946450Y29367315D01*
X-22763954Y29269768D01*
X-22565934Y29209700D01*
X-22565935Y29209700D01*
X-22547598Y29207894D01*
X-22360000Y29189417D01*
X-22154066Y29209700D01*
X-21956046Y29269768D01*
X-21773550Y29367315D01*
X-21613590Y29498590D01*
X-21482315Y29658550D01*
X-21458046Y29703955D01*
X-21409083Y29753798D01*
X-21348688Y29769500D01*
X-20831312Y29769500D01*
X-20764273Y29749815D01*
X-20721955Y29703955D01*
X-20697685Y29658550D01*
X-20682597Y29640165D01*
X-20566411Y29498590D01*
X-20497831Y29442309D01*
X-20406450Y29367315D01*
X-20223954Y29269768D01*
X-20025934Y29209700D01*
X-20025935Y29209700D01*
X-20007598Y29207894D01*
X-19820000Y29189417D01*
X-19614066Y29209700D01*
X-19416046Y29269768D01*
X-19233550Y29367315D01*
X-19073590Y29498590D01*
X-18942315Y29658550D01*
X-18844768Y29841046D01*
X-18784700Y30039066D01*
X-18764417Y30245000D01*
X-18784700Y30450934D01*
X-18844768Y30648954D01*
X-18942315Y30831450D01*
X-19043709Y30955000D01*
X-19073590Y30991411D01*
X-19233548Y31122683D01*
X-19233547Y31122683D01*
X-19233550Y31122685D01*
X-19416046Y31220232D01*
X-19614066Y31280300D01*
X-19614068Y31280301D01*
X-19614066Y31280301D01*
X-19820000Y31300583D01*
X-20025933Y31280301D01*
X-20223957Y31220231D01*
X-20284321Y31187965D01*
X-20406450Y31122685D01*
X-20406452Y31122684D01*
X-20406453Y31122683D01*
X-20566411Y30991411D01*
X-20697685Y30831451D01*
X-20697690Y30831445D01*
X-20748680Y30736047D01*
X-20797642Y30686202D01*
X-20858038Y30670500D01*
X-21321962Y30670500D01*
X-21389001Y30690185D01*
X-21431320Y30736047D01*
X-21482311Y30831445D01*
X-21482316Y30831451D01*
X-21482318Y30831453D01*
X-21522556Y30880484D01*
X-21613590Y30991411D01*
X-21773548Y31122683D01*
X-21773547Y31122683D01*
X-21773550Y31122685D01*
X-21956046Y31220232D01*
X-22154066Y31280300D01*
X-22154068Y31280301D01*
X-22154066Y31280301D01*
X-22360000Y31300583D01*
X-22565933Y31280301D01*
X-22763957Y31220231D01*
X-22824321Y31187965D01*
X-22946450Y31122685D01*
X-22946452Y31122684D01*
X-22946453Y31122683D01*
X-23106411Y30991410D01*
X-23165165Y30919818D01*
X-23222911Y30880484D01*
X-23292755Y30878613D01*
X-23348699Y30910802D01*
X-23538181Y31100284D01*
X-23571666Y31161607D01*
X-23574500Y31187965D01*
X-23574500Y32335300D01*
X-23554815Y32402339D01*
X-23502011Y32448094D01*
X-23432853Y32458038D01*
X-23369297Y32429013D01*
X-23338451Y32386234D01*
X-23338104Y32386419D01*
X-23336728Y32383845D01*
X-23335938Y32382749D01*
X-23335235Y32381052D01*
X-23335233Y32381047D01*
X-23335232Y32381046D01*
X-23237685Y32198550D01*
X-23237683Y32198548D01*
X-23106411Y32038590D01*
X-23009791Y31959298D01*
X-22946450Y31907315D01*
X-22763954Y31809768D01*
X-22565934Y31749700D01*
X-22565935Y31749700D01*
X-22547471Y31747882D01*
X-22360000Y31729417D01*
X-22154066Y31749700D01*
X-21956046Y31809768D01*
X-21773550Y31907315D01*
X-21613590Y32038590D01*
X-21482315Y32198550D01*
X-21384768Y32381046D01*
X-21384766Y32381055D01*
X-21383979Y32382951D01*
X-21383299Y32383797D01*
X-21381896Y32386419D01*
X-21381399Y32386154D01*
X-21340138Y32437355D01*
X-21273844Y32459421D01*
X-21269417Y32459500D01*
X-20910583Y32459500D01*
X-20843544Y32439815D01*
X-20797789Y32387011D01*
X-20796021Y32382951D01*
X-20795234Y32381052D01*
X-20795232Y32381046D01*
X-20697685Y32198550D01*
X-20697683Y32198548D01*
X-20566411Y32038590D01*
X-20469791Y31959298D01*
X-20406450Y31907315D01*
X-20223954Y31809768D01*
X-20025934Y31749700D01*
X-20025935Y31749700D01*
X-20007471Y31747882D01*
X-19820000Y31729417D01*
X-19614066Y31749700D01*
X-19416046Y31809768D01*
X-19233550Y31907315D01*
X-19073590Y32038590D01*
X-18942315Y32198550D01*
X-18844768Y32381046D01*
X-18784700Y32579066D01*
X-18764417Y32785000D01*
X-18784700Y32990934D01*
X-18844768Y33188954D01*
X-18942315Y33371450D01*
X-18995334Y33436054D01*
X-19073590Y33531411D01*
X-19233548Y33662683D01*
X-19233547Y33662683D01*
X-19233550Y33662685D01*
X-19416046Y33760232D01*
X-19614066Y33820300D01*
X-19614068Y33820301D01*
X-19614066Y33820301D01*
X-19820000Y33840583D01*
X-20025933Y33820301D01*
X-20223957Y33760231D01*
X-20334102Y33701357D01*
X-20406450Y33662685D01*
X-20406452Y33662684D01*
X-20406453Y33662683D01*
X-20566411Y33531411D01*
X-20648125Y33431840D01*
X-20697685Y33371450D01*
X-20725055Y33320245D01*
X-20795232Y33188955D01*
X-20796021Y33187049D01*
X-20796702Y33186204D01*
X-20798104Y33183581D01*
X-20798602Y33183847D01*
X-20839862Y33132645D01*
X-20906156Y33110579D01*
X-20910583Y33110500D01*
X-21269417Y33110500D01*
X-21336456Y33130185D01*
X-21382211Y33182989D01*
X-21383979Y33187049D01*
X-21384767Y33188951D01*
X-21384768Y33188954D01*
X-21482315Y33371450D01*
X-21535334Y33436054D01*
X-21613590Y33531411D01*
X-21773548Y33662683D01*
X-21773547Y33662683D01*
X-21773550Y33662685D01*
X-21956046Y33760232D01*
X-22154066Y33820300D01*
X-22154068Y33820301D01*
X-22154066Y33820301D01*
X-22360000Y33840583D01*
X-22565933Y33820301D01*
X-22763957Y33760231D01*
X-22874102Y33701357D01*
X-22946450Y33662685D01*
X-22946452Y33662684D01*
X-22946453Y33662683D01*
X-23106411Y33531411D01*
X-23237683Y33371453D01*
X-23335235Y33188951D01*
X-23335940Y33187246D01*
X-23336549Y33186491D01*
X-23338104Y33183581D01*
X-23338656Y33183876D01*
X-23379782Y33132844D01*
X-23446076Y33110780D01*
X-23513775Y33128060D01*
X-23561385Y33179199D01*
X-23574500Y33234701D01*
X-23574500Y34656839D01*
X-23554815Y34723878D01*
X-23502011Y34769633D01*
X-23432853Y34779577D01*
X-23369297Y34750552D01*
X-23346388Y34720995D01*
X-23344956Y34721881D01*
X-23341942Y34717013D01*
X-23213500Y34546929D01*
X-23056000Y34403349D01*
X-23055998Y34403347D01*
X-22874799Y34291154D01*
X-22874793Y34291151D01*
X-22676059Y34214162D01*
X-22610000Y34201814D01*
X-22610000Y34891988D01*
X-22552993Y34859075D01*
X-22425826Y34825000D01*
X-22294174Y34825000D01*
X-22167007Y34859075D01*
X-22110000Y34891988D01*
X-22110000Y34201815D01*
X-22043942Y34214162D01*
X-21845208Y34291151D01*
X-21845202Y34291154D01*
X-21664003Y34403347D01*
X-21664001Y34403349D01*
X-21506501Y34546929D01*
X-21378062Y34717009D01*
X-21283068Y34907782D01*
X-21283063Y34907795D01*
X-21235488Y35075000D01*
X-21926988Y35075000D01*
X-21894075Y35132007D01*
X-21860000Y35259174D01*
X-21860000Y35390826D01*
X-21894075Y35517993D01*
X-21926988Y35575000D01*
X-21235488Y35575000D01*
X-21235488Y35575001D01*
X-21283063Y35742206D01*
X-21283068Y35742219D01*
X-21378062Y35932992D01*
X-21506501Y36103072D01*
X-21664001Y36246652D01*
X-21664003Y36246654D01*
X-21845202Y36358847D01*
X-21845211Y36358851D01*
X-22043937Y36435837D01*
X-22043942Y36435838D01*
X-22110000Y36448187D01*
X-22110000Y35758012D01*
X-22167007Y35790925D01*
X-22294174Y35825000D01*
X-22425826Y35825000D01*
X-22552993Y35790925D01*
X-22610000Y35758012D01*
X-22610000Y36448187D01*
X-22676059Y36435838D01*
X-22676064Y36435837D01*
X-22874790Y36358851D01*
X-22874799Y36358847D01*
X-23055998Y36246654D01*
X-23056000Y36246652D01*
X-23213500Y36103072D01*
X-23341942Y35932988D01*
X-23344956Y35928119D01*
X-23347212Y35929516D01*
X-23387178Y35886549D01*
X-23454870Y35869239D01*
X-23521174Y35891274D01*
X-23565040Y35945658D01*
X-23574500Y35993162D01*
X-23574500Y37415300D01*
X-23554815Y37482339D01*
X-23502011Y37528094D01*
X-23432853Y37538038D01*
X-23369297Y37509013D01*
X-23338451Y37466234D01*
X-23338104Y37466419D01*
X-23336728Y37463845D01*
X-23335938Y37462749D01*
X-23335235Y37461052D01*
X-23335233Y37461047D01*
X-23335232Y37461046D01*
X-23237685Y37278550D01*
X-23237683Y37278548D01*
X-23106411Y37118590D01*
X-23009791Y37039298D01*
X-22946450Y36987315D01*
X-22763954Y36889768D01*
X-22565934Y36829700D01*
X-22565935Y36829700D01*
X-22547471Y36827882D01*
X-22360000Y36809417D01*
X-22154066Y36829700D01*
X-21969164Y36885790D01*
X-21899301Y36886412D01*
X-21845491Y36854809D01*
X-21349868Y36359186D01*
X-21269944Y36313042D01*
X-21180800Y36289156D01*
X-21180798Y36289156D01*
X-20782000Y36289156D01*
X-20714961Y36269471D01*
X-20669206Y36216667D01*
X-20659262Y36147509D01*
X-20683046Y36090429D01*
X-20801939Y35932992D01*
X-20896933Y35742219D01*
X-20896938Y35742206D01*
X-20944513Y35575001D01*
X-20944512Y35575000D01*
X-20253012Y35575000D01*
X-20285925Y35517993D01*
X-20320000Y35390826D01*
X-20320000Y35259174D01*
X-20285925Y35132007D01*
X-20253012Y35075000D01*
X-20944512Y35075000D01*
X-20896938Y34907795D01*
X-20896933Y34907782D01*
X-20801939Y34717009D01*
X-20673500Y34546929D01*
X-20516000Y34403349D01*
X-20515998Y34403347D01*
X-20334799Y34291154D01*
X-20334793Y34291151D01*
X-20136059Y34214162D01*
X-20070000Y34201814D01*
X-20070000Y34891988D01*
X-20012993Y34859075D01*
X-19885826Y34825000D01*
X-19754174Y34825000D01*
X-19627007Y34859075D01*
X-19570000Y34891988D01*
X-19570000Y34201815D01*
X-19503942Y34214162D01*
X-19305208Y34291151D01*
X-19305202Y34291154D01*
X-19124003Y34403347D01*
X-19124001Y34403349D01*
X-18966501Y34546929D01*
X-18838062Y34717009D01*
X-18743068Y34907782D01*
X-18743063Y34907795D01*
X-18695488Y35075000D01*
X-19386988Y35075000D01*
X-19354075Y35132007D01*
X-19320000Y35259174D01*
X-19320000Y35390826D01*
X-19354075Y35517993D01*
X-19386988Y35575000D01*
X-18695488Y35575000D01*
X-18695488Y35575001D01*
X-18743063Y35742206D01*
X-18743068Y35742219D01*
X-18838062Y35932992D01*
X-18956954Y36090429D01*
X-18981646Y36155790D01*
X-18967081Y36224125D01*
X-18917884Y36273737D01*
X-18858000Y36289156D01*
X-18153202Y36289156D01*
X-18153200Y36289156D01*
X-18064056Y36313042D01*
X-17984132Y36359186D01*
X-16095137Y38248181D01*
X-16033814Y38281666D01*
X-16007456Y38284500D01*
X-13165917Y38284500D01*
X-13098878Y38264815D01*
X-13053123Y38212011D01*
X-13048875Y38201454D01*
X-13025790Y38135479D01*
X-12985233Y38070934D01*
X-12929816Y37982738D01*
X-12802262Y37855184D01*
X-12649522Y37759211D01*
X-12479255Y37699632D01*
X-12479250Y37699631D01*
X-12300004Y37679435D01*
X-12300000Y37679435D01*
X-12299996Y37679435D01*
X-12120751Y37699631D01*
X-12120748Y37699632D01*
X-12120745Y37699632D01*
X-11950478Y37759211D01*
X-11797738Y37855184D01*
X-11670184Y37982738D01*
X-11574211Y38135478D01*
X-11514632Y38305745D01*
X-11513623Y38314701D01*
X-11494435Y38484997D01*
X-11494435Y38485004D01*
X-11514631Y38664250D01*
X-11514632Y38664255D01*
X-11574212Y38834524D01*
X-11624646Y38914789D01*
X-11643646Y38982026D01*
X-11623278Y39048861D01*
X-11570010Y39094075D01*
X-11519652Y39104761D01*
X-11330805Y39104761D01*
X-11263766Y39085076D01*
X-11243124Y39068442D01*
X-11076585Y38901903D01*
X-11043100Y38840580D01*
X-11047224Y38773268D01*
X-11085368Y38664258D01*
X-11085370Y38664250D01*
X-11105565Y38485004D01*
X-11105565Y38484997D01*
X-11085370Y38305751D01*
X-11085369Y38305746D01*
X-11025789Y38135477D01*
X-10985233Y38070933D01*
X-10929816Y37982738D01*
X-10802262Y37855184D01*
X-10649522Y37759211D01*
X-10479255Y37699632D01*
X-10479250Y37699631D01*
X-10300004Y37679435D01*
X-10300000Y37679435D01*
X-10299996Y37679435D01*
X-10120751Y37699631D01*
X-10120748Y37699632D01*
X-10120745Y37699632D01*
X-9950478Y37759211D01*
X-9797738Y37855184D01*
X-9670184Y37982738D01*
X-9574211Y38135478D01*
X-9514632Y38305745D01*
X-9513623Y38314701D01*
X-9494435Y38484997D01*
X-9494435Y38485004D01*
X-9105565Y38485004D01*
X-9105565Y38484997D01*
X-9085370Y38305751D01*
X-9085369Y38305746D01*
X-9025789Y38135477D01*
X-8985233Y38070933D01*
X-8929816Y37982738D01*
X-8802262Y37855184D01*
X-8649522Y37759211D01*
X-8479255Y37699632D01*
X-8479250Y37699631D01*
X-8300004Y37679435D01*
X-8300000Y37679435D01*
X-8299996Y37679435D01*
X-8120751Y37699631D01*
X-8120748Y37699632D01*
X-8120745Y37699632D01*
X-7950478Y37759211D01*
X-7797738Y37855184D01*
X-7670184Y37982738D01*
X-7574211Y38135478D01*
X-7514632Y38305745D01*
X-7513623Y38314701D01*
X-7494435Y38484997D01*
X-7494435Y38485004D01*
X-7105565Y38485004D01*
X-7105565Y38484997D01*
X-7085370Y38305751D01*
X-7085369Y38305746D01*
X-7025789Y38135477D01*
X-6985233Y38070933D01*
X-6929816Y37982738D01*
X-6802262Y37855184D01*
X-6649522Y37759211D01*
X-6479255Y37699632D01*
X-6479250Y37699631D01*
X-6300004Y37679435D01*
X-6300000Y37679435D01*
X-6299996Y37679435D01*
X-6120751Y37699631D01*
X-6120748Y37699632D01*
X-6120745Y37699632D01*
X-5950478Y37759211D01*
X-5797738Y37855184D01*
X-5670184Y37982738D01*
X-5574211Y38135478D01*
X-5514632Y38305745D01*
X-5513623Y38314701D01*
X-5494435Y38484997D01*
X-5494435Y38485004D01*
X-5105565Y38485004D01*
X-5105565Y38484997D01*
X-5085370Y38305751D01*
X-5085369Y38305746D01*
X-5025789Y38135477D01*
X-4985233Y38070933D01*
X-4929816Y37982738D01*
X-4802262Y37855184D01*
X-4649522Y37759211D01*
X-4479255Y37699632D01*
X-4479250Y37699631D01*
X-4300004Y37679435D01*
X-4300000Y37679435D01*
X-4299996Y37679435D01*
X-4120751Y37699631D01*
X-4120748Y37699632D01*
X-4120745Y37699632D01*
X-3950478Y37759211D01*
X-3797738Y37855184D01*
X-3670184Y37982738D01*
X-3574211Y38135478D01*
X-3514632Y38305745D01*
X-3513623Y38314701D01*
X-3494435Y38484997D01*
X-3494435Y38485004D01*
X-3514631Y38664250D01*
X-3514632Y38664255D01*
X-3574212Y38834524D01*
X-3628287Y38920583D01*
X-3670184Y38987262D01*
X-3797738Y39114816D01*
X-3950477Y39210789D01*
X-4120746Y39270369D01*
X-4120751Y39270370D01*
X-4268673Y39287036D01*
X-4299509Y39299993D01*
X-4322106Y39288428D01*
X-4331327Y39287036D01*
X-4479251Y39270370D01*
X-4479255Y39270369D01*
X-4649524Y39210789D01*
X-4802263Y39114816D01*
X-4929816Y38987263D01*
X-5025789Y38834524D01*
X-5085369Y38664255D01*
X-5085370Y38664250D01*
X-5105565Y38485004D01*
X-5494435Y38485004D01*
X-5514631Y38664250D01*
X-5514632Y38664255D01*
X-5574212Y38834524D01*
X-5628287Y38920583D01*
X-5670184Y38987262D01*
X-5797738Y39114816D01*
X-5950477Y39210789D01*
X-6120746Y39270369D01*
X-6120751Y39270370D01*
X-6268673Y39287036D01*
X-6299509Y39299993D01*
X-6322106Y39288428D01*
X-6331327Y39287036D01*
X-6479251Y39270370D01*
X-6479255Y39270369D01*
X-6649524Y39210789D01*
X-6802263Y39114816D01*
X-6929816Y38987263D01*
X-7025789Y38834524D01*
X-7085369Y38664255D01*
X-7085370Y38664250D01*
X-7105565Y38485004D01*
X-7494435Y38485004D01*
X-7514631Y38664250D01*
X-7514632Y38664255D01*
X-7574212Y38834524D01*
X-7628287Y38920583D01*
X-7670184Y38987262D01*
X-7797738Y39114816D01*
X-7950477Y39210789D01*
X-8120746Y39270369D01*
X-8120751Y39270370D01*
X-8299996Y39290565D01*
X-8300004Y39290565D01*
X-8479250Y39270370D01*
X-8479255Y39270369D01*
X-8649524Y39210789D01*
X-8802263Y39114816D01*
X-8929816Y38987263D01*
X-9025789Y38834524D01*
X-9085369Y38664255D01*
X-9085370Y38664250D01*
X-9105565Y38485004D01*
X-9494435Y38485004D01*
X-9514631Y38664250D01*
X-9514632Y38664255D01*
X-9574212Y38834524D01*
X-9628287Y38920583D01*
X-9670184Y38987262D01*
X-9797738Y39114816D01*
X-9950477Y39210789D01*
X-10120746Y39270369D01*
X-10120751Y39270370D01*
X-10299996Y39290565D01*
X-10300003Y39290565D01*
X-10396937Y39279644D01*
X-10465759Y39291699D01*
X-10498501Y39315183D01*
X-10716087Y39532769D01*
X-10749572Y39594092D01*
X-10744588Y39663784D01*
X-10702716Y39719717D01*
X-10637252Y39744134D01*
X-10587451Y39737491D01*
X-10479263Y39699634D01*
X-10479257Y39699633D01*
X-10479255Y39699632D01*
X-10479254Y39699632D01*
X-10479250Y39699631D01*
X-10300004Y39679435D01*
X-10300000Y39679435D01*
X-10299996Y39679435D01*
X-10120751Y39699631D01*
X-10120748Y39699632D01*
X-10120745Y39699632D01*
X-9950478Y39759211D01*
X-9797738Y39855184D01*
X-9670184Y39982738D01*
X-9574211Y40135478D01*
X-9514632Y40305745D01*
X-9514631Y40305751D01*
X-9494435Y40484997D01*
X-9494435Y40485004D01*
X-9105565Y40485004D01*
X-9105565Y40484997D01*
X-9085370Y40305751D01*
X-9085369Y40305746D01*
X-9025789Y40135477D01*
X-8937981Y39995733D01*
X-8929816Y39982738D01*
X-8802262Y39855184D01*
X-8725379Y39806875D01*
X-8651940Y39760730D01*
X-8649522Y39759211D01*
X-8479261Y39699634D01*
X-8479255Y39699632D01*
X-8479250Y39699631D01*
X-8300004Y39679435D01*
X-8300000Y39679435D01*
X-8299996Y39679435D01*
X-8120751Y39699631D01*
X-8120748Y39699632D01*
X-8120745Y39699632D01*
X-7950478Y39759211D01*
X-7797738Y39855184D01*
X-7670184Y39982738D01*
X-7574211Y40135478D01*
X-7514632Y40305745D01*
X-7510743Y40340255D01*
X-7499998Y40435630D01*
X-7497965Y40453675D01*
X-7485009Y40484510D01*
X-7485440Y40485352D01*
X-7264549Y40485352D01*
X-7252605Y40461185D01*
X-7251342Y40451944D01*
X-7236256Y40298770D01*
X-7181931Y40119687D01*
X-7125132Y40013423D01*
X-7125131Y40013423D01*
X-6675000Y40463554D01*
X-6675000Y40435630D01*
X-6649444Y40340255D01*
X-6600075Y40254745D01*
X-6530255Y40184925D01*
X-6444745Y40135556D01*
X-6349370Y40110000D01*
X-6321447Y40110000D01*
X-6771578Y39659870D01*
X-6665312Y39603069D01*
X-6486231Y39548745D01*
X-6333057Y39533659D01*
X-6300352Y39520453D01*
X-6276184Y39532396D01*
X-6266944Y39533659D01*
X-6113770Y39548745D01*
X-5934689Y39603069D01*
X-5828423Y39659870D01*
X-5828423Y39659871D01*
X-6278552Y40110000D01*
X-6250630Y40110000D01*
X-6155255Y40135556D01*
X-6069745Y40184925D01*
X-5999925Y40254745D01*
X-5950556Y40340255D01*
X-5925000Y40435630D01*
X-5925000Y40463553D01*
X-5474871Y40013423D01*
X-5474870Y40013423D01*
X-5418065Y40119698D01*
X-5415737Y40125316D01*
X-5414129Y40124650D01*
X-5380367Y40176172D01*
X-5316556Y40204631D01*
X-5247488Y40194073D01*
X-5195093Y40147851D01*
X-5184716Y40125129D01*
X-5184263Y40125316D01*
X-5181934Y40119693D01*
X-5125132Y40013423D01*
X-5125131Y40013423D01*
X-4675000Y40463554D01*
X-4675000Y40435630D01*
X-4649444Y40340255D01*
X-4600075Y40254745D01*
X-4530255Y40184925D01*
X-4444745Y40135556D01*
X-4349370Y40110000D01*
X-4321447Y40110000D01*
X-4771578Y39659870D01*
X-4665312Y39603069D01*
X-4486231Y39548745D01*
X-4333057Y39533659D01*
X-4300352Y39520453D01*
X-4276184Y39532396D01*
X-4266944Y39533659D01*
X-4113770Y39548745D01*
X-3934689Y39603069D01*
X-3828423Y39659870D01*
X-3828423Y39659871D01*
X-4278552Y40110000D01*
X-4250630Y40110000D01*
X-4155255Y40135556D01*
X-4069745Y40184925D01*
X-3999925Y40254745D01*
X-3950556Y40340255D01*
X-3925000Y40435630D01*
X-3925000Y40463553D01*
X-3474871Y40013423D01*
X-3474870Y40013423D01*
X-3418069Y40119689D01*
X-3363745Y40298770D01*
X-3345404Y40485000D01*
X-3363745Y40671231D01*
X-3418069Y40850312D01*
X-3474870Y40956578D01*
X-3925000Y40506448D01*
X-3925000Y40534370D01*
X-3950556Y40629745D01*
X-3999925Y40715255D01*
X-4069745Y40785075D01*
X-4155255Y40834444D01*
X-4250630Y40860000D01*
X-4278553Y40860000D01*
X-3828423Y41310131D01*
X-3828423Y41310132D01*
X-3934687Y41366931D01*
X-4113770Y41421256D01*
X-4266944Y41436342D01*
X-4299650Y41449549D01*
X-4323816Y41437605D01*
X-4333057Y41436342D01*
X-4486231Y41421256D01*
X-4665308Y41366933D01*
X-4771578Y41310131D01*
X-4321446Y40860000D01*
X-4349370Y40860000D01*
X-4444745Y40834444D01*
X-4530255Y40785075D01*
X-4600075Y40715255D01*
X-4649444Y40629745D01*
X-4675000Y40534370D01*
X-4675000Y40506447D01*
X-5125131Y40956578D01*
X-5181936Y40850303D01*
X-5184264Y40844680D01*
X-5185873Y40845347D01*
X-5219640Y40793823D01*
X-5283453Y40765369D01*
X-5352520Y40775932D01*
X-5404912Y40822158D01*
X-5415285Y40844872D01*
X-5415737Y40844684D01*
X-5418065Y40850303D01*
X-5474870Y40956578D01*
X-5925000Y40506448D01*
X-5925000Y40534370D01*
X-5950556Y40629745D01*
X-5999925Y40715255D01*
X-6069745Y40785075D01*
X-6155255Y40834444D01*
X-6250630Y40860000D01*
X-6278553Y40860000D01*
X-5828423Y41310131D01*
X-5828423Y41310132D01*
X-5934687Y41366931D01*
X-6113770Y41421256D01*
X-6266944Y41436342D01*
X-6299650Y41449549D01*
X-6323816Y41437605D01*
X-6333057Y41436342D01*
X-6486231Y41421256D01*
X-6665308Y41366933D01*
X-6771578Y41310131D01*
X-6321446Y40860000D01*
X-6349370Y40860000D01*
X-6444745Y40834444D01*
X-6530255Y40785075D01*
X-6600075Y40715255D01*
X-6649444Y40629745D01*
X-6675000Y40534370D01*
X-6675000Y40506447D01*
X-7125131Y40956578D01*
X-7181933Y40850308D01*
X-7236256Y40671231D01*
X-7251342Y40518057D01*
X-7264549Y40485352D01*
X-7485440Y40485352D01*
X-7496573Y40507107D01*
X-7497965Y40516328D01*
X-7514631Y40664250D01*
X-7514632Y40664255D01*
X-7552777Y40773268D01*
X-7574211Y40834522D01*
X-7580594Y40844680D01*
X-7670185Y40987263D01*
X-7797738Y41114816D01*
X-7950477Y41210789D01*
X-8120746Y41270369D01*
X-8120751Y41270370D01*
X-8299996Y41290565D01*
X-8300004Y41290565D01*
X-8479250Y41270370D01*
X-8479255Y41270369D01*
X-8649524Y41210789D01*
X-8802263Y41114816D01*
X-8929816Y40987263D01*
X-9025789Y40834524D01*
X-9085369Y40664255D01*
X-9085370Y40664250D01*
X-9105565Y40485004D01*
X-9494435Y40485004D01*
X-9514631Y40664250D01*
X-9514632Y40664255D01*
X-9552777Y40773268D01*
X-9574211Y40834522D01*
X-9580594Y40844680D01*
X-9670185Y40987263D01*
X-9797738Y41114816D01*
X-9950477Y41210789D01*
X-10120746Y41270369D01*
X-10120751Y41270370D01*
X-10299996Y41290565D01*
X-10300003Y41290565D01*
X-10396937Y41279644D01*
X-10465759Y41291699D01*
X-10498501Y41315183D01*
X-10716087Y41532769D01*
X-10749572Y41594092D01*
X-10744588Y41663784D01*
X-10702716Y41719717D01*
X-10637252Y41744134D01*
X-10587451Y41737491D01*
X-10479263Y41699634D01*
X-10479257Y41699633D01*
X-10479255Y41699632D01*
X-10479254Y41699632D01*
X-10479250Y41699631D01*
X-10300004Y41679435D01*
X-10300000Y41679435D01*
X-10299996Y41679435D01*
X-10120751Y41699631D01*
X-10120748Y41699632D01*
X-10120745Y41699632D01*
X-9950478Y41759211D01*
X-9797738Y41855184D01*
X-9670184Y41982738D01*
X-9574211Y42135478D01*
X-9514632Y42305745D01*
X-9513667Y42314309D01*
X-9494435Y42484997D01*
X-9494435Y42485004D01*
X-9105565Y42485004D01*
X-9105565Y42484997D01*
X-9085370Y42305751D01*
X-9085369Y42305746D01*
X-9025789Y42135477D01*
X-8981632Y42065202D01*
X-8929816Y41982738D01*
X-8802262Y41855184D01*
X-8649522Y41759211D01*
X-8479261Y41699634D01*
X-8479255Y41699632D01*
X-8479250Y41699631D01*
X-8300004Y41679435D01*
X-8300000Y41679435D01*
X-8299996Y41679435D01*
X-8120751Y41699631D01*
X-8120748Y41699632D01*
X-8120745Y41699632D01*
X-7950478Y41759211D01*
X-7797738Y41855184D01*
X-7670184Y41982738D01*
X-7574211Y42135478D01*
X-7514632Y42305745D01*
X-7513667Y42314309D01*
X-7494435Y42484997D01*
X-7494435Y42485004D01*
X-7514631Y42664250D01*
X-7514632Y42664255D01*
X-7574212Y42834524D01*
X-7670185Y42987263D01*
X-7797738Y43114816D01*
X-7950477Y43210789D01*
X-8120746Y43270369D01*
X-8120751Y43270370D01*
X-8299996Y43290565D01*
X-8300004Y43290565D01*
X-8479250Y43270370D01*
X-8479255Y43270369D01*
X-8649524Y43210789D01*
X-8802263Y43114816D01*
X-8929816Y42987263D01*
X-9025789Y42834524D01*
X-9085369Y42664255D01*
X-9085370Y42664250D01*
X-9105565Y42485004D01*
X-9494435Y42485004D01*
X-9514631Y42664250D01*
X-9514632Y42664255D01*
X-9574212Y42834524D01*
X-9670185Y42987263D01*
X-9797738Y43114816D01*
X-9950477Y43210789D01*
X-10120746Y43270369D01*
X-10120751Y43270370D01*
X-10299996Y43290565D01*
X-10300003Y43290565D01*
X-10396937Y43279644D01*
X-10465759Y43291699D01*
X-10498501Y43315183D01*
X-10716087Y43532769D01*
X-10749572Y43594092D01*
X-10744588Y43663784D01*
X-10702716Y43719717D01*
X-10637252Y43744134D01*
X-10587451Y43737491D01*
X-10479263Y43699634D01*
X-10479257Y43699633D01*
X-10479255Y43699632D01*
X-10479254Y43699632D01*
X-10479250Y43699631D01*
X-10300004Y43679435D01*
X-10300000Y43679435D01*
X-10299996Y43679435D01*
X-10120751Y43699631D01*
X-10120748Y43699632D01*
X-10120745Y43699632D01*
X-9950478Y43759211D01*
X-9797738Y43855184D01*
X-9670184Y43982738D01*
X-9574211Y44135478D01*
X-9514632Y44305745D01*
X-9514631Y44305751D01*
X-9494435Y44484997D01*
X-9494435Y44485004D01*
X-9514631Y44664250D01*
X-9514632Y44664255D01*
X-9527541Y44701147D01*
X-9574211Y44834522D01*
X-9670184Y44987262D01*
X-9797738Y45114816D01*
X-9820332Y45129013D01*
X-9950477Y45210789D01*
X-10120746Y45270369D01*
X-10120751Y45270370D01*
X-10299996Y45290565D01*
X-10300003Y45290565D01*
X-10396937Y45279644D01*
X-10465759Y45291699D01*
X-10498501Y45315183D01*
X-10716087Y45532769D01*
X-10749572Y45594092D01*
X-10744588Y45663784D01*
X-10702716Y45719717D01*
X-10637252Y45744134D01*
X-10587451Y45737491D01*
X-10479263Y45699634D01*
X-10479257Y45699633D01*
X-10479255Y45699632D01*
X-10479254Y45699632D01*
X-10479250Y45699631D01*
X-10300004Y45679435D01*
X-10300000Y45679435D01*
X-10299996Y45679435D01*
X-10120751Y45699631D01*
X-10120748Y45699632D01*
X-10120745Y45699632D01*
X-9950478Y45759211D01*
X-9829472Y45835245D01*
X-9762236Y45854245D01*
X-9695401Y45833878D01*
X-9650186Y45780610D01*
X-9639500Y45730251D01*
X-9639500Y45456148D01*
X-9617318Y45373360D01*
X-9615255Y45369787D01*
X-9574465Y45299138D01*
X-9574463Y45299136D01*
X-9102673Y44827346D01*
X-9069188Y44766023D01*
X-9073312Y44698712D01*
X-9085369Y44664255D01*
X-9085369Y44664254D01*
X-9105565Y44485004D01*
X-9105565Y44484997D01*
X-9085370Y44305751D01*
X-9085369Y44305746D01*
X-9025789Y44135477D01*
X-8967331Y44042442D01*
X-8929816Y43982738D01*
X-8802262Y43855184D01*
X-8763393Y43830761D01*
X-8676126Y43775927D01*
X-8649522Y43759211D01*
X-8479261Y43699634D01*
X-8479255Y43699632D01*
X-8479250Y43699631D01*
X-8300004Y43679435D01*
X-8300000Y43679435D01*
X-8299996Y43679435D01*
X-8120751Y43699631D01*
X-8120748Y43699632D01*
X-8120745Y43699632D01*
X-7950478Y43759211D01*
X-7797738Y43855184D01*
X-7670184Y43982738D01*
X-7574211Y44135478D01*
X-7514632Y44305745D01*
X-7514631Y44305751D01*
X-7494435Y44484997D01*
X-7494435Y44485004D01*
X-7105565Y44485004D01*
X-7105565Y44484997D01*
X-7085370Y44305751D01*
X-7085369Y44305746D01*
X-7025789Y44135477D01*
X-6967331Y44042442D01*
X-6929816Y43982738D01*
X-6802262Y43855184D01*
X-6763393Y43830761D01*
X-6676126Y43775927D01*
X-6649522Y43759211D01*
X-6479261Y43699634D01*
X-6479255Y43699632D01*
X-6479250Y43699631D01*
X-6300004Y43679435D01*
X-6300000Y43679435D01*
X-6299996Y43679435D01*
X-6120751Y43699631D01*
X-6120748Y43699632D01*
X-6120745Y43699632D01*
X-5950478Y43759211D01*
X-5797738Y43855184D01*
X-5670184Y43982738D01*
X-5574211Y44135478D01*
X-5514632Y44305745D01*
X-5514631Y44305751D01*
X-5494435Y44484997D01*
X-5494435Y44485004D01*
X-5105565Y44485004D01*
X-5105565Y44484997D01*
X-5085370Y44305751D01*
X-5085369Y44305746D01*
X-5025789Y44135477D01*
X-4967331Y44042442D01*
X-4929816Y43982738D01*
X-4802262Y43855184D01*
X-4763393Y43830761D01*
X-4676126Y43775927D01*
X-4649522Y43759211D01*
X-4479261Y43699634D01*
X-4479255Y43699632D01*
X-4479250Y43699631D01*
X-4300004Y43679435D01*
X-4300000Y43679435D01*
X-4299996Y43679435D01*
X-4120751Y43699631D01*
X-4120748Y43699632D01*
X-4120745Y43699632D01*
X-3950478Y43759211D01*
X-3797738Y43855184D01*
X-3670184Y43982738D01*
X-3574211Y44135478D01*
X-3514632Y44305745D01*
X-3514631Y44305751D01*
X-3494435Y44484997D01*
X-3494435Y44485004D01*
X-3514631Y44664250D01*
X-3514632Y44664255D01*
X-3527541Y44701147D01*
X-3574211Y44834522D01*
X-3670184Y44987262D01*
X-3797738Y45114816D01*
X-3820332Y45129013D01*
X-3950477Y45210789D01*
X-4120746Y45270369D01*
X-4120751Y45270370D01*
X-4268673Y45287036D01*
X-4299509Y45299993D01*
X-4322106Y45288428D01*
X-4331327Y45287036D01*
X-4479251Y45270370D01*
X-4479255Y45270369D01*
X-4649524Y45210789D01*
X-4802263Y45114816D01*
X-4929816Y44987263D01*
X-5025789Y44834524D01*
X-5085369Y44664255D01*
X-5085370Y44664250D01*
X-5105565Y44485004D01*
X-5494435Y44485004D01*
X-5514631Y44664250D01*
X-5514632Y44664255D01*
X-5527541Y44701147D01*
X-5574211Y44834522D01*
X-5670184Y44987262D01*
X-5797738Y45114816D01*
X-5820332Y45129013D01*
X-5950477Y45210789D01*
X-6120746Y45270369D01*
X-6120751Y45270370D01*
X-6268673Y45287036D01*
X-6299509Y45299993D01*
X-6322106Y45288428D01*
X-6331327Y45287036D01*
X-6479251Y45270370D01*
X-6479255Y45270369D01*
X-6649524Y45210789D01*
X-6802263Y45114816D01*
X-6929816Y44987263D01*
X-7025789Y44834524D01*
X-7085369Y44664255D01*
X-7085370Y44664250D01*
X-7105565Y44485004D01*
X-7494435Y44485004D01*
X-7514631Y44664250D01*
X-7514632Y44664255D01*
X-7527541Y44701147D01*
X-7574211Y44834522D01*
X-7670184Y44987262D01*
X-7797738Y45114816D01*
X-7820332Y45129013D01*
X-7950477Y45210789D01*
X-8120746Y45270369D01*
X-8120751Y45270370D01*
X-8299996Y45290565D01*
X-8300004Y45290565D01*
X-8479254Y45270369D01*
X-8479255Y45270369D01*
X-8513712Y45258312D01*
X-8583491Y45254751D01*
X-8642346Y45287673D01*
X-8952181Y45597508D01*
X-8985666Y45658831D01*
X-8988500Y45685189D01*
X-8988500Y45747845D01*
X-8968815Y45814884D01*
X-8916011Y45860639D01*
X-8846853Y45870583D01*
X-8798531Y45852840D01*
X-8725163Y45806740D01*
X-8649525Y45759212D01*
X-8479255Y45699632D01*
X-8479250Y45699631D01*
X-8300004Y45679435D01*
X-8300000Y45679435D01*
X-8299996Y45679435D01*
X-8120751Y45699631D01*
X-8120748Y45699632D01*
X-8120745Y45699632D01*
X-7950478Y45759211D01*
X-7797738Y45855184D01*
X-7670184Y45982738D01*
X-7574211Y46135478D01*
X-7514632Y46305745D01*
X-7510743Y46340255D01*
X-7499998Y46435630D01*
X-7497965Y46453675D01*
X-7485009Y46484510D01*
X-7485440Y46485352D01*
X-7264549Y46485352D01*
X-7252605Y46461185D01*
X-7251342Y46451944D01*
X-7236256Y46298770D01*
X-7181931Y46119687D01*
X-7125132Y46013423D01*
X-7125131Y46013423D01*
X-6675000Y46463554D01*
X-6675000Y46435630D01*
X-6649444Y46340255D01*
X-6600075Y46254745D01*
X-6530255Y46184925D01*
X-6444745Y46135556D01*
X-6349370Y46110000D01*
X-6321447Y46110000D01*
X-6771578Y45659870D01*
X-6665312Y45603069D01*
X-6486231Y45548745D01*
X-6333057Y45533659D01*
X-6300352Y45520453D01*
X-6276184Y45532396D01*
X-6266944Y45533659D01*
X-6113770Y45548745D01*
X-5934689Y45603069D01*
X-5828423Y45659870D01*
X-5828423Y45659871D01*
X-6278552Y46110000D01*
X-6250630Y46110000D01*
X-6155255Y46135556D01*
X-6069745Y46184925D01*
X-5999925Y46254745D01*
X-5950556Y46340255D01*
X-5925000Y46435630D01*
X-5925000Y46463553D01*
X-5474871Y46013423D01*
X-5474870Y46013423D01*
X-5418065Y46119698D01*
X-5415737Y46125316D01*
X-5414129Y46124650D01*
X-5380367Y46176172D01*
X-5316556Y46204631D01*
X-5247488Y46194073D01*
X-5195093Y46147851D01*
X-5184716Y46125129D01*
X-5184263Y46125316D01*
X-5181934Y46119693D01*
X-5125132Y46013423D01*
X-5125131Y46013423D01*
X-4675000Y46463554D01*
X-4675000Y46435630D01*
X-4649444Y46340255D01*
X-4600075Y46254745D01*
X-4530255Y46184925D01*
X-4444745Y46135556D01*
X-4349370Y46110000D01*
X-4321447Y46110000D01*
X-4771578Y45659870D01*
X-4665312Y45603069D01*
X-4486231Y45548745D01*
X-4333057Y45533659D01*
X-4300352Y45520453D01*
X-4276184Y45532396D01*
X-4266944Y45533659D01*
X-4113770Y45548745D01*
X-3934689Y45603069D01*
X-3828423Y45659870D01*
X-3828423Y45659871D01*
X-4278552Y46110000D01*
X-4250630Y46110000D01*
X-4155255Y46135556D01*
X-4069745Y46184925D01*
X-3999925Y46254745D01*
X-3950556Y46340255D01*
X-3925000Y46435630D01*
X-3925000Y46463553D01*
X-3474871Y46013423D01*
X-3474870Y46013423D01*
X-3418069Y46119689D01*
X-3363745Y46298770D01*
X-3345404Y46485000D01*
X-3363745Y46671231D01*
X-3418069Y46850312D01*
X-3474870Y46956578D01*
X-3925000Y46506448D01*
X-3925000Y46534370D01*
X-3950556Y46629745D01*
X-3999925Y46715255D01*
X-4069745Y46785075D01*
X-4155255Y46834444D01*
X-4250630Y46860000D01*
X-4278553Y46860000D01*
X-3828423Y47310131D01*
X-3828423Y47310132D01*
X-3934687Y47366931D01*
X-4113770Y47421256D01*
X-4266944Y47436342D01*
X-4299650Y47449549D01*
X-4323816Y47437605D01*
X-4333057Y47436342D01*
X-4486231Y47421256D01*
X-4665308Y47366933D01*
X-4771578Y47310131D01*
X-4321446Y46860000D01*
X-4349370Y46860000D01*
X-4444745Y46834444D01*
X-4530255Y46785075D01*
X-4600075Y46715255D01*
X-4649444Y46629745D01*
X-4675000Y46534370D01*
X-4675000Y46506447D01*
X-5125131Y46956578D01*
X-5181936Y46850303D01*
X-5184264Y46844680D01*
X-5185873Y46845347D01*
X-5219640Y46793823D01*
X-5283453Y46765369D01*
X-5352520Y46775932D01*
X-5404912Y46822158D01*
X-5415285Y46844872D01*
X-5415737Y46844684D01*
X-5418065Y46850303D01*
X-5474870Y46956578D01*
X-5925000Y46506448D01*
X-5925000Y46534370D01*
X-5950556Y46629745D01*
X-5999925Y46715255D01*
X-6069745Y46785075D01*
X-6155255Y46834444D01*
X-6250630Y46860000D01*
X-6278553Y46860000D01*
X-5828423Y47310131D01*
X-5828423Y47310132D01*
X-5934687Y47366931D01*
X-6113770Y47421256D01*
X-6266944Y47436342D01*
X-6299650Y47449549D01*
X-6323816Y47437605D01*
X-6333057Y47436342D01*
X-6486231Y47421256D01*
X-6665308Y47366933D01*
X-6771578Y47310131D01*
X-6321446Y46860000D01*
X-6349370Y46860000D01*
X-6444745Y46834444D01*
X-6530255Y46785075D01*
X-6600075Y46715255D01*
X-6649444Y46629745D01*
X-6675000Y46534370D01*
X-6675000Y46506447D01*
X-7125131Y46956578D01*
X-7181933Y46850308D01*
X-7236256Y46671231D01*
X-7251342Y46518057D01*
X-7264549Y46485352D01*
X-7485440Y46485352D01*
X-7496573Y46507107D01*
X-7497965Y46516328D01*
X-7498413Y46520300D01*
X-7503464Y46565128D01*
X-7514631Y46664250D01*
X-7514632Y46664255D01*
X-7550013Y46765369D01*
X-7574211Y46834522D01*
X-7580594Y46844680D01*
X-7650904Y46956578D01*
X-7670184Y46987262D01*
X-7797738Y47114816D01*
X-7846234Y47145288D01*
X-7950477Y47210789D01*
X-8120746Y47270369D01*
X-8120751Y47270370D01*
X-8299996Y47290565D01*
X-8300004Y47290565D01*
X-8479250Y47270370D01*
X-8479255Y47270369D01*
X-8649524Y47210789D01*
X-8753766Y47145288D01*
X-8795526Y47119048D01*
X-8798528Y47117162D01*
X-8865764Y47098162D01*
X-8932600Y47118530D01*
X-8977814Y47171797D01*
X-8988500Y47222156D01*
X-8988500Y47747845D01*
X-8968815Y47814884D01*
X-8916011Y47860639D01*
X-8846853Y47870583D01*
X-8798531Y47852840D01*
X-8738125Y47814884D01*
X-8649525Y47759212D01*
X-8479255Y47699632D01*
X-8479250Y47699631D01*
X-8300004Y47679435D01*
X-8300000Y47679435D01*
X-8299996Y47679435D01*
X-8120751Y47699631D01*
X-8120748Y47699632D01*
X-8120745Y47699632D01*
X-7950478Y47759211D01*
X-7797738Y47855184D01*
X-7670184Y47982738D01*
X-7574211Y48135478D01*
X-7514632Y48305745D01*
X-7514631Y48305751D01*
X-7494435Y48484997D01*
X-7494435Y48485004D01*
X-7105565Y48485004D01*
X-7105565Y48484997D01*
X-7085370Y48305751D01*
X-7085369Y48305746D01*
X-7025789Y48135477D01*
X-6956371Y48025000D01*
X-6929816Y47982738D01*
X-6802262Y47855184D01*
X-6738125Y47814884D01*
X-6663125Y47767758D01*
X-6649522Y47759211D01*
X-6566759Y47730251D01*
X-6479255Y47699632D01*
X-6479250Y47699631D01*
X-6380128Y47688464D01*
X-6331328Y47682965D01*
X-6300493Y47670009D01*
X-6277895Y47681573D01*
X-6268682Y47682964D01*
X-6205260Y47690110D01*
X-6120750Y47699631D01*
X-6120747Y47699632D01*
X-6120745Y47699632D01*
X-5950478Y47759211D01*
X-5797738Y47855184D01*
X-5670184Y47982738D01*
X-5574211Y48135478D01*
X-5514632Y48305745D01*
X-5514631Y48305751D01*
X-5494435Y48484997D01*
X-5494435Y48485004D01*
X-5105565Y48485004D01*
X-5105565Y48484997D01*
X-5085370Y48305751D01*
X-5085369Y48305746D01*
X-5025789Y48135477D01*
X-4956371Y48025000D01*
X-4929816Y47982738D01*
X-4802262Y47855184D01*
X-4738125Y47814884D01*
X-4663125Y47767758D01*
X-4649522Y47759211D01*
X-4566759Y47730251D01*
X-4479255Y47699632D01*
X-4479250Y47699631D01*
X-4380128Y47688464D01*
X-4331328Y47682965D01*
X-4300493Y47670009D01*
X-4277895Y47681573D01*
X-4268682Y47682964D01*
X-4205260Y47690110D01*
X-4120750Y47699631D01*
X-4120747Y47699632D01*
X-4120745Y47699632D01*
X-3950478Y47759211D01*
X-3797738Y47855184D01*
X-3670184Y47982738D01*
X-3574211Y48135478D01*
X-3514632Y48305745D01*
X-3514631Y48305751D01*
X-3494435Y48484997D01*
X-3494435Y48485004D01*
X-3514631Y48664250D01*
X-3514632Y48664255D01*
X-3557447Y48786614D01*
X-3574211Y48834522D01*
X-3670184Y48987262D01*
X-3797738Y49114816D01*
X-3874188Y49162853D01*
X-3950477Y49210789D01*
X-4120746Y49270369D01*
X-4120751Y49270370D01*
X-4299996Y49290565D01*
X-4300004Y49290565D01*
X-4479250Y49270370D01*
X-4479255Y49270369D01*
X-4649524Y49210789D01*
X-4802263Y49114816D01*
X-4929816Y48987263D01*
X-5025789Y48834524D01*
X-5085369Y48664255D01*
X-5085370Y48664250D01*
X-5105565Y48485004D01*
X-5494435Y48485004D01*
X-5514631Y48664250D01*
X-5514632Y48664255D01*
X-5557447Y48786614D01*
X-5574211Y48834522D01*
X-5670184Y48987262D01*
X-5797738Y49114816D01*
X-5874188Y49162853D01*
X-5950477Y49210789D01*
X-6120746Y49270369D01*
X-6120751Y49270370D01*
X-6299996Y49290565D01*
X-6300004Y49290565D01*
X-6479250Y49270370D01*
X-6479255Y49270369D01*
X-6649524Y49210789D01*
X-6802263Y49114816D01*
X-6929816Y48987263D01*
X-7025789Y48834524D01*
X-7085369Y48664255D01*
X-7085370Y48664250D01*
X-7105565Y48485004D01*
X-7494435Y48485004D01*
X-7514631Y48664250D01*
X-7514632Y48664255D01*
X-7557447Y48786614D01*
X-7574211Y48834522D01*
X-7670184Y48987262D01*
X-7797738Y49114816D01*
X-7874188Y49162853D01*
X-7950477Y49210789D01*
X-8120746Y49270369D01*
X-8120751Y49270370D01*
X-8299996Y49290565D01*
X-8300004Y49290565D01*
X-8479250Y49270370D01*
X-8479255Y49270369D01*
X-8649524Y49210789D01*
X-8802263Y49114816D01*
X-8807705Y49110475D01*
X-8808817Y49111870D01*
X-8862200Y49082730D01*
X-8931891Y49087724D01*
X-8987819Y49129604D01*
X-9008315Y49171804D01*
X-9010682Y49180638D01*
X-9038521Y49228857D01*
X-9053535Y49254862D01*
X-9114138Y49315465D01*
X-9114139Y49315466D01*
X-9118469Y49319796D01*
X-9118480Y49319806D01*
X-10189136Y50390463D01*
X-10189137Y50390464D01*
X-10189138Y50390465D01*
X-10226250Y50411892D01*
X-10263360Y50433318D01*
X-10304754Y50444409D01*
X-10346147Y50455500D01*
X-13353604Y50455500D01*
X-13436389Y50433318D01*
X-13436396Y50433315D01*
X-13510607Y50390470D01*
X-13510615Y50390464D01*
X-13789259Y50111819D01*
X-13850582Y50078334D01*
X-13876940Y50075500D01*
X-18236163Y50075500D01*
X-18268249Y50079724D01*
X-18271147Y50080500D01*
X-18271149Y50080500D01*
X-18702007Y50080500D01*
X-18769046Y50100185D01*
X-18814801Y50152989D01*
X-18824745Y50222147D01*
X-18820668Y50240495D01*
X-18784700Y50359066D01*
X-18764417Y50565000D01*
X-18784700Y50770934D01*
X-18844768Y50968954D01*
X-18942315Y51151450D01*
X-18994298Y51214791D01*
X-19073590Y51311411D01*
X-19233548Y51442683D01*
X-19233547Y51442683D01*
X-19233550Y51442685D01*
X-19416046Y51540232D01*
X-19614066Y51600300D01*
X-19614068Y51600301D01*
X-19614066Y51600301D01*
X-19820000Y51620583D01*
X-20025933Y51600301D01*
X-20223957Y51540231D01*
X-20334102Y51481357D01*
X-20406450Y51442685D01*
X-20406452Y51442684D01*
X-20406453Y51442683D01*
X-20566411Y51311411D01*
X-20697683Y51151453D01*
X-20795231Y50968957D01*
X-20855301Y50770933D01*
X-20875583Y50565000D01*
X-20855301Y50359068D01*
X-20855300Y50359066D01*
X-20795232Y50161046D01*
X-20700763Y49984308D01*
X-20697683Y49978547D01*
X-20574268Y49828165D01*
X-20546955Y49763855D01*
X-20558746Y49694987D01*
X-20605898Y49643427D01*
X-20670121Y49625500D01*
X-20873456Y49625500D01*
X-20940495Y49645185D01*
X-20961137Y49661819D01*
X-21349809Y50050491D01*
X-21383294Y50111814D01*
X-21380790Y50174163D01*
X-21324700Y50359066D01*
X-21304417Y50565000D01*
X-21324700Y50770934D01*
X-21384768Y50968954D01*
X-21482315Y51151450D01*
X-21534298Y51214791D01*
X-21613590Y51311411D01*
X-21773548Y51442683D01*
X-21773547Y51442683D01*
X-21773550Y51442685D01*
X-21956046Y51540232D01*
X-22154066Y51600300D01*
X-22154068Y51600301D01*
X-22154066Y51600301D01*
X-22360000Y51620583D01*
X-22565933Y51600301D01*
X-22763957Y51540231D01*
X-22874102Y51481357D01*
X-22946450Y51442685D01*
X-22946452Y51442684D01*
X-22946453Y51442683D01*
X-23106411Y51311411D01*
X-23237683Y51151453D01*
X-23335235Y50968951D01*
X-23335940Y50967246D01*
X-23336549Y50966491D01*
X-23338104Y50963581D01*
X-23338656Y50963876D01*
X-23379782Y50912844D01*
X-23446076Y50890780D01*
X-23513775Y50908060D01*
X-23561385Y50959199D01*
X-23574500Y51014701D01*
X-23574500Y52436839D01*
X-23554815Y52503878D01*
X-23502011Y52549633D01*
X-23432853Y52559577D01*
X-23369297Y52530552D01*
X-23346388Y52500995D01*
X-23344956Y52501881D01*
X-23341942Y52497013D01*
X-23213500Y52326929D01*
X-23056000Y52183349D01*
X-23055998Y52183347D01*
X-22874799Y52071154D01*
X-22874793Y52071151D01*
X-22676059Y51994162D01*
X-22610000Y51981814D01*
X-22610000Y52671988D01*
X-22552993Y52639075D01*
X-22425826Y52605000D01*
X-22294174Y52605000D01*
X-22167007Y52639075D01*
X-22110000Y52671988D01*
X-22110000Y51981815D01*
X-22043942Y51994162D01*
X-21845208Y52071151D01*
X-21845202Y52071154D01*
X-21664003Y52183347D01*
X-21664001Y52183349D01*
X-21506501Y52326929D01*
X-21378062Y52497009D01*
X-21283068Y52687782D01*
X-21283063Y52687795D01*
X-21235488Y52855000D01*
X-21926988Y52855000D01*
X-21894075Y52912007D01*
X-21860000Y53039174D01*
X-21860000Y53105000D01*
X-20875583Y53105000D01*
X-20855301Y52899068D01*
X-20829182Y52812965D01*
X-20795232Y52701046D01*
X-20697685Y52518550D01*
X-20685644Y52503878D01*
X-20566411Y52358590D01*
X-20469791Y52279298D01*
X-20406450Y52227315D01*
X-20223954Y52129768D01*
X-20025934Y52069700D01*
X-20025935Y52069700D01*
X-20007471Y52067882D01*
X-19820000Y52049417D01*
X-19614066Y52069700D01*
X-19416046Y52129768D01*
X-19233550Y52227315D01*
X-19073590Y52358590D01*
X-18942315Y52518550D01*
X-18844768Y52701046D01*
X-18784700Y52899066D01*
X-18764417Y53105000D01*
X-18784700Y53310934D01*
X-18844768Y53508954D01*
X-18942315Y53691450D01*
X-19009374Y53773162D01*
X-19073590Y53851411D01*
X-19233548Y53982683D01*
X-19233547Y53982683D01*
X-19233550Y53982685D01*
X-19416046Y54080232D01*
X-19614066Y54140300D01*
X-19614068Y54140301D01*
X-19614066Y54140301D01*
X-19820000Y54160583D01*
X-20025933Y54140301D01*
X-20223957Y54080231D01*
X-20324191Y54026654D01*
X-20406450Y53982685D01*
X-20406452Y53982684D01*
X-20406453Y53982683D01*
X-20566411Y53851411D01*
X-20697683Y53691453D01*
X-20795231Y53508957D01*
X-20855301Y53310933D01*
X-20875583Y53105000D01*
X-21860000Y53105000D01*
X-21860000Y53170826D01*
X-21894075Y53297993D01*
X-21926988Y53355000D01*
X-21235488Y53355000D01*
X-21235488Y53355001D01*
X-21283063Y53522206D01*
X-21283068Y53522219D01*
X-21378062Y53712992D01*
X-21506501Y53883072D01*
X-21664001Y54026652D01*
X-21664003Y54026654D01*
X-21845202Y54138847D01*
X-21845211Y54138851D01*
X-22043937Y54215837D01*
X-22043942Y54215838D01*
X-22110000Y54228187D01*
X-22110000Y53538012D01*
X-22167007Y53570925D01*
X-22294174Y53605000D01*
X-22425826Y53605000D01*
X-22552993Y53570925D01*
X-22610000Y53538012D01*
X-22610000Y54228187D01*
X-22676059Y54215838D01*
X-22676064Y54215837D01*
X-22874790Y54138851D01*
X-22874799Y54138847D01*
X-23055998Y54026654D01*
X-23056000Y54026652D01*
X-23213500Y53883072D01*
X-23341942Y53712988D01*
X-23344956Y53708119D01*
X-23347212Y53709516D01*
X-23387178Y53666549D01*
X-23454870Y53649239D01*
X-23521174Y53671274D01*
X-23565040Y53725658D01*
X-23574500Y53773162D01*
X-23574500Y55195300D01*
X-23554815Y55262339D01*
X-23502011Y55308094D01*
X-23432853Y55318038D01*
X-23369297Y55289013D01*
X-23338451Y55246234D01*
X-23338104Y55246419D01*
X-23336728Y55243845D01*
X-23335938Y55242749D01*
X-23335235Y55241052D01*
X-23335233Y55241047D01*
X-23335232Y55241046D01*
X-23237685Y55058550D01*
X-23236505Y55057112D01*
X-23106411Y54898590D01*
X-23009791Y54819298D01*
X-22946450Y54767315D01*
X-22763954Y54669768D01*
X-22565934Y54609700D01*
X-22565935Y54609700D01*
X-22547471Y54607882D01*
X-22360000Y54589417D01*
X-22154066Y54609700D01*
X-21956046Y54669768D01*
X-21773550Y54767315D01*
X-21613590Y54898590D01*
X-21482315Y55058550D01*
X-21473752Y55074571D01*
X-21444683Y55128953D01*
X-21395721Y55178797D01*
X-21335325Y55194500D01*
X-20844675Y55194500D01*
X-20777636Y55174815D01*
X-20735317Y55128953D01*
X-20697689Y55058556D01*
X-20697685Y55058550D01*
X-20566411Y54898590D01*
X-20469791Y54819298D01*
X-20406450Y54767315D01*
X-20223954Y54669768D01*
X-20025934Y54609700D01*
X-20025935Y54609700D01*
X-20007471Y54607882D01*
X-19820000Y54589417D01*
X-19614066Y54609700D01*
X-19416046Y54669768D01*
X-19233550Y54767315D01*
X-19073590Y54898590D01*
X-18942315Y55058550D01*
X-18933752Y55074571D01*
X-18904683Y55128953D01*
X-18855721Y55178797D01*
X-18795325Y55194500D01*
X-17607965Y55194500D01*
X-17540926Y55174815D01*
X-17520284Y55158181D01*
X-16900819Y54538716D01*
X-16867334Y54477393D01*
X-16864500Y54451035D01*
X-16864500Y52515691D01*
X-16860562Y52500995D01*
X-16844196Y52439916D01*
X-16833799Y52401112D01*
X-16809248Y52358590D01*
X-16774489Y52298386D01*
X-15290614Y50814511D01*
X-15187887Y50755201D01*
X-15163679Y50748716D01*
X-15163676Y50748714D01*
X-15163675Y50748714D01*
X-15133553Y50740643D01*
X-15073309Y50724500D01*
X-3951965Y50724500D01*
X-3884926Y50704815D01*
X-3864284Y50688181D01*
X-2950819Y49774716D01*
X-2917334Y49713393D01*
X-2914500Y49687035D01*
X-2914500Y43842966D01*
X-2934185Y43775927D01*
X-2950819Y43755285D01*
X-3240614Y43465489D01*
X-3606832Y43099272D01*
X-3668155Y43065787D01*
X-3737847Y43070771D01*
X-3782194Y43099272D01*
X-3797738Y43114816D01*
X-3950477Y43210789D01*
X-4120746Y43270369D01*
X-4120751Y43270370D01*
X-4299996Y43290565D01*
X-4300004Y43290565D01*
X-4479250Y43270370D01*
X-4479255Y43270369D01*
X-4649524Y43210789D01*
X-4802263Y43114816D01*
X-4929817Y42987262D01*
X-4933865Y42982185D01*
X-4991054Y42942046D01*
X-5030810Y42935500D01*
X-5569190Y42935500D01*
X-5636229Y42955185D01*
X-5666135Y42982185D01*
X-5670184Y42987262D01*
X-5797738Y43114816D01*
X-5950477Y43210789D01*
X-6120746Y43270369D01*
X-6120751Y43270370D01*
X-6299996Y43290565D01*
X-6300004Y43290565D01*
X-6479250Y43270370D01*
X-6479255Y43270369D01*
X-6649524Y43210789D01*
X-6802263Y43114816D01*
X-6929816Y42987263D01*
X-7025789Y42834524D01*
X-7085369Y42664255D01*
X-7085370Y42664250D01*
X-7105565Y42485004D01*
X-7105565Y42484997D01*
X-7085370Y42305751D01*
X-7085369Y42305746D01*
X-7025789Y42135477D01*
X-6981632Y42065202D01*
X-6929816Y41982738D01*
X-6802262Y41855184D01*
X-6649522Y41759211D01*
X-6479261Y41699634D01*
X-6479255Y41699632D01*
X-6479250Y41699631D01*
X-6380128Y41688464D01*
X-6331328Y41682965D01*
X-6300493Y41670009D01*
X-6277895Y41681573D01*
X-6268682Y41682964D01*
X-6205260Y41690110D01*
X-6120750Y41699631D01*
X-6120747Y41699632D01*
X-6120745Y41699632D01*
X-5950478Y41759211D01*
X-5797738Y41855184D01*
X-5670184Y41982738D01*
X-5670182Y41982743D01*
X-5666135Y41987815D01*
X-5608946Y42027954D01*
X-5569190Y42034500D01*
X-5030810Y42034500D01*
X-4963771Y42014815D01*
X-4933865Y41987815D01*
X-4929817Y41982739D01*
X-4929816Y41982738D01*
X-4802262Y41855184D01*
X-4649522Y41759211D01*
X-4479261Y41699634D01*
X-4479255Y41699632D01*
X-4479250Y41699631D01*
X-4380128Y41688464D01*
X-4331328Y41682965D01*
X-4300493Y41670009D01*
X-4277895Y41681573D01*
X-4268682Y41682964D01*
X-4205260Y41690110D01*
X-4120750Y41699631D01*
X-4120747Y41699632D01*
X-4120745Y41699632D01*
X-3950478Y41759211D01*
X-3797738Y41855184D01*
X-3670184Y41982738D01*
X-3670182Y41982743D01*
X-3666135Y41987815D01*
X-3608946Y42027954D01*
X-3569190Y42034500D01*
X-3524692Y42034500D01*
X-3524691Y42034500D01*
X-3434327Y42058714D01*
X-3410113Y42065201D01*
X-3307386Y42124511D01*
X-3051681Y42380216D01*
X-2990358Y42413701D01*
X-2920666Y42408717D01*
X-2876319Y42380216D01*
X-2600819Y42104716D01*
X-2567334Y42043393D01*
X-2564500Y42017035D01*
X-2564500Y33510936D01*
X-3964000Y34775000D01*
X-14514000Y34875000D01*
X-16014000Y33525000D01*
X-15914000Y29975000D01*
X-15464845Y29044606D01*
X-15666710Y29044150D01*
X-15764748Y29034326D01*
X-15764753Y29034325D01*
X-15859462Y29015375D01*
X-15859478Y29015371D01*
X-15911333Y29002104D01*
X-15911338Y29002102D01*
X-16041121Y28940011D01*
X-16041131Y28940005D01*
X-16121913Y28886029D01*
X-16165229Y28853602D01*
X-16165233Y28853599D01*
X-16165235Y28853598D01*
X-16165236Y28853596D01*
X-16261375Y28746566D01*
X-16261380Y28746560D01*
X-16315354Y28665783D01*
X-16315357Y28665778D01*
X-16342963Y28619251D01*
X-16342964Y28619249D01*
X-16390834Y28483557D01*
X-16390834Y28483556D01*
X-16409788Y28388269D01*
X-16409788Y28388268D01*
X-16417587Y28309076D01*
X-16419322Y28291453D01*
X-16419500Y28289650D01*
X-16419500Y22969942D01*
X-16419492Y22967300D01*
X-16419473Y22964097D01*
X-16419473Y22964086D01*
X-16408537Y22862485D01*
X-16388433Y22767448D01*
X-16374414Y22715176D01*
X-16374413Y22715174D01*
X-16310750Y22586146D01*
X-16310748Y22586144D01*
X-16255822Y22506057D01*
X-16255788Y22506010D01*
X-16222845Y22463098D01*
X-16222843Y22463096D01*
X-16114647Y22368254D01*
X-16033217Y22315261D01*
X-15986351Y22288217D01*
X-15850096Y22241997D01*
X-15754585Y22224199D01*
X-15754571Y22224198D01*
X-15754566Y22224197D01*
X-15726615Y22221787D01*
X-15655855Y22215682D01*
X-15029163Y22223279D01*
X-15029164Y22223280D01*
X-14946862Y22224277D01*
X-14946860Y22224278D01*
X-14261670Y22232582D01*
X-14260167Y22232590D01*
X-4267835Y22232590D01*
X-4266333Y22232581D01*
X-3983275Y22229150D01*
X-3983274Y22229150D01*
X-3122644Y22218719D01*
X-3119533Y22218691D01*
X-3118024Y22218682D01*
X-3116519Y22218673D01*
X-3116519Y22218674D01*
X-3116515Y22218673D01*
X-3014882Y22228377D01*
X-2919594Y22247331D01*
X-2867165Y22260713D01*
X-2742014Y22320589D01*
X-2673046Y22331764D01*
X-2608982Y22303878D01*
X-2570165Y22245783D01*
X-2564500Y22208731D01*
X-2564500Y10892966D01*
X-2584185Y10825927D01*
X-2600819Y10805285D01*
X-4164284Y9241819D01*
X-4225607Y9208334D01*
X-4251965Y9205500D01*
X-4686408Y9205500D01*
X-4753447Y9225185D01*
X-4799202Y9277989D01*
X-4803449Y9288544D01*
X-4837614Y9386179D01*
X-4848707Y9417882D01*
X-4929350Y9527150D01*
X-5038618Y9607793D01*
X-5038620Y9607794D01*
X-5166800Y9652647D01*
X-5197230Y9655500D01*
X-5197234Y9655500D01*
X-5830766Y9655500D01*
X-5830770Y9655500D01*
X-5861200Y9652647D01*
X-5861202Y9652647D01*
X-5989381Y9607794D01*
X-5989383Y9607793D01*
X-6098650Y9527150D01*
X-6179293Y9417883D01*
X-6179294Y9417881D01*
X-6224147Y9289702D01*
X-6224147Y9289700D01*
X-6227000Y9259270D01*
X-6227000Y8250731D01*
X-6224147Y8220301D01*
X-6224147Y8220299D01*
X-6179294Y8092120D01*
X-6179293Y8092118D01*
X-6098650Y7982850D01*
X-5989382Y7902207D01*
X-5946655Y7887256D01*
X-5861201Y7857354D01*
X-5830770Y7854500D01*
X-5830766Y7854500D01*
X-5197230Y7854500D01*
X-5166801Y7857354D01*
X-5166799Y7857354D01*
X-5102710Y7879781D01*
X-5038618Y7902207D01*
X-4929350Y7982850D01*
X-4848707Y8092118D01*
X-4817875Y8180231D01*
X-4803449Y8221456D01*
X-4762727Y8278231D01*
X-4697774Y8303978D01*
X-4686408Y8304500D01*
X-3954692Y8304500D01*
X-3954691Y8304500D01*
X-3864327Y8328714D01*
X-3840113Y8335201D01*
X-3737386Y8394511D01*
X-1753510Y10378386D01*
X-1694201Y10481113D01*
X-1687715Y10505325D01*
X-1687714Y10505325D01*
X-1687714Y10505329D01*
X-1663500Y10595691D01*
X-1663500Y42314309D01*
X-1694201Y42428886D01*
X-1694203Y42428889D01*
X-1694203Y42428891D01*
X-1694204Y42428892D01*
X-1715965Y42466583D01*
X-1715967Y42466585D01*
X-1726599Y42485000D01*
X-1753510Y42531613D01*
X-2239216Y43017319D01*
X-2272701Y43078642D01*
X-2267717Y43148334D01*
X-2239219Y43192679D01*
X-2103510Y43328386D01*
X-2044201Y43431113D01*
X-2034990Y43465489D01*
X-2013500Y43545691D01*
X-2013500Y49984309D01*
X-2040905Y50086584D01*
X-2044201Y50098887D01*
X-2103511Y50201614D01*
X-3437386Y51535489D01*
X-3488750Y51565144D01*
X-3540112Y51594799D01*
X-3552220Y51598043D01*
X-3564327Y51601287D01*
X-3564330Y51601288D01*
X-3636341Y51620583D01*
X-3654691Y51625500D01*
X-3654692Y51625500D01*
X-3742595Y51625500D01*
X-2561503Y52688483D01*
X-2661503Y56238483D01*
X-3013757Y56968151D01*
X-2922145Y56967040D01*
X-2919033Y56967012D01*
X-2917524Y56967003D01*
X-2916019Y56966994D01*
X-2916019Y56966995D01*
X-2916015Y56966994D01*
X-2814382Y56976698D01*
X-2719094Y56995652D01*
X-2666665Y57009034D01*
X-2536874Y57071129D01*
X-2456092Y57125105D01*
X-2412767Y57157538D01*
X-2316620Y57264577D01*
X-2262644Y57345359D01*
X-2235034Y57391894D01*
X-2187167Y57527579D01*
X-2168213Y57622867D01*
X-2158500Y57721485D01*
X-2158500Y63069887D01*
X-2158501Y63070786D01*
X-2158502Y63071348D01*
X-2168438Y63170186D01*
X-2168439Y63170188D01*
X-2168440Y63170200D01*
X-2187605Y63265423D01*
X-2200556Y63315691D01*
X-2201107Y63317831D01*
X-2263496Y63447481D01*
X-2317654Y63528140D01*
X-2317673Y63528165D01*
X-2317679Y63528174D01*
X-2350181Y63571389D01*
X-2423993Y63637390D01*
X-2457436Y63667294D01*
X-2457439Y63667296D01*
X-2457442Y63667299D01*
X-2538330Y63721082D01*
X-2538356Y63721099D01*
X-2584939Y63748595D01*
X-2720717Y63796151D01*
X-2720738Y63796157D01*
X-2816033Y63814890D01*
X-2816053Y63814893D01*
X-2851240Y63818279D01*
X-2914698Y63824385D01*
X-2914702Y63824385D01*
X-2914712Y63824386D01*
X-15716710Y63795508D01*
X-15814748Y63785684D01*
X-15814753Y63785683D01*
X-15909462Y63766733D01*
X-15909478Y63766729D01*
X-15961333Y63753462D01*
X-15961338Y63753460D01*
X-16091121Y63691369D01*
X-16091131Y63691363D01*
X-16171913Y63637387D01*
X-16215229Y63604960D01*
X-16215233Y63604957D01*
X-16215235Y63604956D01*
X-16215236Y63604954D01*
X-16311375Y63497924D01*
X-16311380Y63497918D01*
X-16365354Y63417141D01*
X-16365357Y63417136D01*
X-16392963Y63370609D01*
X-16392964Y63370607D01*
X-16440833Y63234916D01*
X-16459788Y63139627D01*
X-16459788Y63139626D01*
X-16469500Y63041008D01*
X-16469500Y57721300D01*
X-16469492Y57718658D01*
X-16469473Y57715455D01*
X-16469473Y57715444D01*
X-16458537Y57613843D01*
X-16438433Y57518806D01*
X-16424414Y57466534D01*
X-16424413Y57466532D01*
X-16360750Y57337504D01*
X-16360748Y57337502D01*
X-16305822Y57257415D01*
X-16305788Y57257368D01*
X-16272845Y57214456D01*
X-16272843Y57214454D01*
X-16164647Y57119612D01*
X-16083217Y57066619D01*
X-16036351Y57039575D01*
X-15900096Y56993355D01*
X-15804585Y56975557D01*
X-15804571Y56975556D01*
X-15804566Y56975555D01*
X-15776615Y56973145D01*
X-15705855Y56967040D01*
X-15554013Y56968881D01*
X-16011503Y56688483D01*
X-16077686Y54989790D01*
X-16924381Y55836485D01*
X-16957866Y55897808D01*
X-16960700Y55924166D01*
X-16960700Y64988925D01*
X-16960700Y64988927D01*
X-16974118Y65039004D01*
X-16982841Y65071561D01*
X-16987992Y65090787D01*
X-17025355Y65155500D01*
X-17025356Y65155501D01*
X-17040720Y65182113D01*
X-17115287Y65256680D01*
X-17115288Y65256681D01*
X-17119618Y65261011D01*
X-17119629Y65261021D01*
X-18429085Y66570478D01*
X-18429086Y66570479D01*
X-18429087Y66570480D01*
X-18474750Y66596844D01*
X-18520411Y66623207D01*
X-18571343Y66636854D01*
X-18622273Y66650500D01*
X-21302727Y66650500D01*
X-21404587Y66623207D01*
X-21404590Y66623206D01*
X-21495915Y66570479D01*
X-22134478Y65931916D01*
X-22134482Y65931910D01*
X-22187208Y65840588D01*
X-22187207Y65840587D01*
X-22214500Y65738727D01*
X-22214500Y65535010D01*
X-22234185Y65467971D01*
X-22257295Y65441299D01*
X-22286108Y65416332D01*
X-22380251Y65307685D01*
X-22380262Y65307669D01*
X-22411879Y65258473D01*
X-22411888Y65258457D01*
X-22471607Y65127690D01*
X-22488088Y65071562D01*
X-22488090Y65071557D01*
X-22508550Y64929246D01*
X-22508550Y64870756D01*
X-22506762Y64858320D01*
X-22505500Y64840673D01*
X-22505500Y64459327D01*
X-22506762Y64441681D01*
X-22508550Y64429247D01*
X-22508550Y64370755D01*
X-22488090Y64228444D01*
X-22488088Y64228439D01*
X-22471607Y64172311D01*
X-22411888Y64041544D01*
X-22411879Y64041528D01*
X-22380262Y63992332D01*
X-22380251Y63992316D01*
X-22308071Y63909017D01*
X-22286105Y63883666D01*
X-22241900Y63845362D01*
X-22241899Y63845361D01*
X-22120951Y63767632D01*
X-22120949Y63767632D01*
X-22120945Y63767629D01*
X-22067740Y63743331D01*
X-21929785Y63702824D01*
X-21871889Y63694500D01*
X-21871886Y63694500D01*
X-21249997Y63694500D01*
X-21249997Y63694501D01*
X-21204272Y63699652D01*
X-21183168Y63709816D01*
X-21114230Y63721170D01*
X-21081908Y63712656D01*
X-21066944Y63706457D01*
X-21068240Y63703331D01*
X-21024264Y63680325D01*
X-20989692Y63619607D01*
X-20993435Y63549838D01*
X-21022688Y63503415D01*
X-21114286Y63411818D01*
X-21175606Y63378334D01*
X-21201965Y63375500D01*
X-22723309Y63375500D01*
X-22813675Y63351287D01*
X-22813676Y63351288D01*
X-22837885Y63344800D01*
X-22837894Y63344796D01*
X-22940608Y63285495D01*
X-22940616Y63285489D01*
X-24385487Y61840617D01*
X-24385491Y61840611D01*
X-24444799Y61737888D01*
X-24444800Y61737883D01*
X-24475500Y61623309D01*
X-24914000Y61623309D01*
X-24914000Y67176289D01*
X-11150500Y67176289D01*
X-11150500Y67176288D01*
X-11150500Y66933712D01*
X-11118838Y66693211D01*
X-11100080Y66623207D01*
X-11056053Y66458896D01*
X-10963227Y66234795D01*
X-10963224Y66234788D01*
X-10841936Y66024711D01*
X-10841934Y66024708D01*
X-10841933Y66024707D01*
X-10694267Y65832264D01*
X-10694261Y65832257D01*
X-10522744Y65660740D01*
X-10522737Y65660734D01*
X-10424232Y65585149D01*
X-10330289Y65513064D01*
X-10120212Y65391776D01*
X-9896100Y65298946D01*
X-9661789Y65236162D01*
X-9501850Y65215106D01*
X-9421289Y65204500D01*
X-9421288Y65204500D01*
X-9178711Y65204500D01*
X-9130612Y65210833D01*
X-8938211Y65236162D01*
X-8703900Y65298946D01*
X-8479788Y65391776D01*
X-8269711Y65513064D01*
X-8077262Y65660735D01*
X-7905735Y65832262D01*
X-7758064Y66024711D01*
X-7636776Y66234788D01*
X-7543946Y66458900D01*
X-7481162Y66693211D01*
X-7449500Y66933712D01*
X-7449500Y67176288D01*
X-7481162Y67416789D01*
X-7543946Y67651100D01*
X-7636776Y67875212D01*
X-7758064Y68085289D01*
X-7905735Y68277738D01*
X-7905740Y68277744D01*
X-8077257Y68449261D01*
X-8077264Y68449267D01*
X-8269707Y68596933D01*
X-8269708Y68596934D01*
X-8269711Y68596936D01*
X-8479788Y68718224D01*
X-8532466Y68740044D01*
X-8703896Y68811053D01*
X-8938215Y68873839D01*
X-9178711Y68905500D01*
X-9178712Y68905500D01*
X-9421288Y68905500D01*
X-9421289Y68905500D01*
X-9661786Y68873839D01*
X-9896105Y68811053D01*
X-10120206Y68718227D01*
X-10120215Y68718223D01*
X-10330294Y68596933D01*
X-10522737Y68449267D01*
X-10522744Y68449261D01*
X-10694261Y68277744D01*
X-10694267Y68277737D01*
X-10841933Y68085294D01*
X-10963223Y67875215D01*
X-10963227Y67875206D01*
X-11056053Y67651105D01*
X-11118839Y67416786D01*
X-11150500Y67176289D01*
X-24914000Y67176289D01*
X-24914000Y68155002D01*
X-20419682Y68155002D01*
X-20419682Y68154999D01*
X-20399045Y67998240D01*
X-20399044Y67998238D01*
X-20347803Y67874530D01*
X-20338536Y67852159D01*
X-20242282Y67726718D01*
X-20116841Y67630464D01*
X-19970762Y67569956D01*
X-19892381Y67559637D01*
X-19814001Y67549318D01*
X-19814000Y67549318D01*
X-19813999Y67549318D01*
X-19761746Y67556198D01*
X-19657238Y67569956D01*
X-19511159Y67630464D01*
X-19385718Y67726718D01*
X-19363259Y67755989D01*
X-19306832Y67797189D01*
X-19264884Y67804500D01*
X-16967858Y67804500D01*
X-16967856Y67804500D01*
X-16878712Y67828386D01*
X-16798788Y67874530D01*
X-11505138Y73168182D01*
X-11443815Y73201666D01*
X-11417457Y73204500D01*
X-10915779Y73204500D01*
X-10848740Y73184815D01*
X-10802985Y73132011D01*
X-10796803Y73115437D01*
X-10785609Y73077317D01*
X-10785608Y73077314D01*
X-10725888Y72946544D01*
X-10725879Y72946528D01*
X-10694262Y72897332D01*
X-10694251Y72897316D01*
X-10622071Y72814017D01*
X-10600105Y72788666D01*
X-10555900Y72750362D01*
X-10555899Y72750361D01*
X-10434951Y72672632D01*
X-10434949Y72672632D01*
X-10434945Y72672629D01*
X-10381740Y72648331D01*
X-10243785Y72607824D01*
X-10185889Y72599500D01*
X-10185886Y72599500D01*
X-9613997Y72599500D01*
X-9613997Y72599501D01*
X-9568272Y72604652D01*
X-9485873Y72644334D01*
X-9428851Y72715837D01*
X-9408500Y72805000D01*
X-9408500Y73245672D01*
X-9407238Y73263319D01*
X-9405450Y73275754D01*
X-9405450Y73334245D01*
X-9407239Y73346682D01*
X-9408500Y73364327D01*
X-9408500Y73745673D01*
X-9407238Y73763320D01*
X-9405450Y73775755D01*
X-9405450Y73834246D01*
X-9407238Y73846683D01*
X-9408500Y73864329D01*
X-9408500Y74305003D01*
X-9408501Y74305005D01*
X-9410341Y74321334D01*
X-9413652Y74350728D01*
X-9417944Y74359640D01*
X-9453334Y74433127D01*
X-9524837Y74490149D01*
X-9613996Y74510500D01*
X-9614000Y74510500D01*
X-10185889Y74510500D01*
X-10185891Y74510500D01*
X-10243778Y74502178D01*
X-10243790Y74502175D01*
X-10381740Y74461669D01*
X-10434945Y74437371D01*
X-10434951Y74437369D01*
X-10555899Y74359640D01*
X-10555900Y74359639D01*
X-10600108Y74321331D01*
X-10694251Y74212685D01*
X-10694262Y74212669D01*
X-10725879Y74163473D01*
X-10725888Y74163457D01*
X-10785608Y74032687D01*
X-10785609Y74032684D01*
X-10796803Y73994563D01*
X-10834578Y73935785D01*
X-10898134Y73906762D01*
X-10915779Y73905500D01*
X-11660144Y73905500D01*
X-11749288Y73881614D01*
X-11749289Y73881614D01*
X-11749291Y73881613D01*
X-11749294Y73881612D01*
X-11829206Y73835474D01*
X-11829215Y73835467D01*
X-17122863Y68541819D01*
X-17184186Y68508334D01*
X-17210544Y68505500D01*
X-19264884Y68505500D01*
X-19331923Y68525185D01*
X-19363258Y68554011D01*
X-19385718Y68583282D01*
X-19511159Y68679536D01*
X-19604558Y68718223D01*
X-19657238Y68740044D01*
X-19657240Y68740045D01*
X-19813999Y68760682D01*
X-19814001Y68760682D01*
X-19970761Y68740045D01*
X-19970763Y68740044D01*
X-20116840Y68679537D01*
X-20242282Y68583282D01*
X-20338537Y68457840D01*
X-20399044Y68311763D01*
X-20399045Y68311761D01*
X-20419682Y68155002D01*
X-24914000Y68155002D01*
X-24914000Y83642242D01*
X-11410500Y83642242D01*
X-11410500Y83412759D01*
X-11385554Y83223285D01*
X-11380548Y83185262D01*
X-11380547Y83185260D01*
X-11321158Y82963613D01*
X-11233350Y82751624D01*
X-11233343Y82751610D01*
X-11118608Y82552883D01*
X-10978919Y82370839D01*
X-10978911Y82370830D01*
X-10816670Y82208589D01*
X-10816662Y82208582D01*
X-10634618Y82068893D01*
X-10634615Y82068892D01*
X-10634612Y82068889D01*
X-10435888Y81954156D01*
X-10435883Y81954154D01*
X-10435877Y81954151D01*
X-10344520Y81916310D01*
X-10223887Y81866342D01*
X-10002238Y81806952D01*
X-9774734Y81777000D01*
X-9774727Y81777000D01*
X-9545273Y81777000D01*
X-9545266Y81777000D01*
X-9317762Y81806952D01*
X-9096113Y81866342D01*
X-8884112Y81954156D01*
X-8685388Y82068889D01*
X-8503339Y82208581D01*
X-8503335Y82208586D01*
X-8503330Y82208589D01*
X-8341089Y82370830D01*
X-8341086Y82370835D01*
X-8341081Y82370839D01*
X-8201389Y82552888D01*
X-8086656Y82751612D01*
X-7998842Y82963613D01*
X-7939452Y83185262D01*
X-7909500Y83412766D01*
X-7909500Y83642234D01*
X-7939452Y83869738D01*
X-7998842Y84091387D01*
X-8086656Y84303388D01*
X-8201389Y84502112D01*
X-8201392Y84502115D01*
X-8201393Y84502118D01*
X-8341082Y84684162D01*
X-8341089Y84684170D01*
X-8503330Y84846411D01*
X-8503339Y84846419D01*
X-8685383Y84986108D01*
X-8884110Y85100843D01*
X-8884124Y85100850D01*
X-9096113Y85188658D01*
X-9317762Y85248048D01*
X-9355785Y85253054D01*
X-9545259Y85278000D01*
X-9545266Y85278000D01*
X-9774734Y85278000D01*
X-9774742Y85278000D01*
X-9991285Y85249491D01*
X-10002238Y85248048D01*
X-10095924Y85222946D01*
X-10223888Y85188658D01*
X-10435877Y85100850D01*
X-10435891Y85100843D01*
X-10634618Y84986108D01*
X-10816662Y84846419D01*
X-10978919Y84684162D01*
X-11118608Y84502118D01*
X-11233343Y84303391D01*
X-11233350Y84303377D01*
X-11321158Y84091388D01*
X-11380547Y83869741D01*
X-11380549Y83869730D01*
X-11410500Y83642242D01*
X-24914000Y83642242D01*
X-24914000Y85700354D01*
X-24894315Y85767393D01*
X-24841511Y85813148D01*
X-24789875Y85824354D01*
X-1437870Y85800129D01*
G37*
%TD.AperFunction*%
%TD*%
%TA.AperFunction,Conductor*%
%TO.N,GND*%
G36*
X-6123132Y56993661D02*
G01*
X-6123127Y56993661D01*
X-6123124Y56993660D01*
X-6072000Y56988625D01*
X-6024514Y56983948D01*
X-6024512Y56983948D01*
X-5075489Y56983948D01*
X-5075487Y56983948D01*
X-5038301Y56985318D01*
X-5001765Y56988013D01*
X-4966630Y56995451D01*
X-4896968Y56990078D01*
X-4853268Y56961821D01*
X-4437575Y56546129D01*
X-4496853Y56530245D01*
X-4613147Y56463102D01*
X-4708102Y56368147D01*
X-4775245Y56251853D01*
X-4791129Y56192576D01*
X-5169466Y56570913D01*
X-5237633Y56443380D01*
X-5295387Y56252992D01*
X-5314887Y56055000D01*
X-5295387Y55857009D01*
X-5237631Y55666614D01*
X-5169467Y55539089D01*
X-5169466Y55539089D01*
X-4791129Y55917426D01*
X-4775245Y55858147D01*
X-4708102Y55741853D01*
X-4613147Y55646898D01*
X-4496853Y55579755D01*
X-4437576Y55563872D01*
X-4815914Y55185535D01*
X-4688386Y55117370D01*
X-4497992Y55059614D01*
X-4300000Y55040114D01*
X-4102009Y55059614D01*
X-3911617Y55117369D01*
X-3784088Y55185536D01*
X-4162425Y55563873D01*
X-4103147Y55579755D01*
X-3986853Y55646898D01*
X-3891898Y55741853D01*
X-3824755Y55858147D01*
X-3808872Y55917425D01*
X-3430535Y55539088D01*
X-3362369Y55666617D01*
X-3304614Y55857009D01*
X-3285114Y56055000D01*
X-3304614Y56252992D01*
X-3362370Y56443386D01*
X-3430535Y56570914D01*
X-3808873Y56192577D01*
X-3824755Y56251853D01*
X-3891898Y56368147D01*
X-3986853Y56463102D01*
X-4103147Y56530245D01*
X-4162426Y56546129D01*
X-3755083Y56953472D01*
X-3693760Y56986957D01*
X-3641739Y56987106D01*
X-3637443Y56986198D01*
X-3633569Y56985378D01*
X-3559154Y56977137D01*
X-3535084Y56974471D01*
X-3535083Y56974471D01*
X-3535074Y56974470D01*
X-3013757Y56968151D01*
X-2661503Y56238483D01*
X-2561503Y52688483D01*
X-3742595Y51625500D01*
X-14776035Y51625500D01*
X-14839041Y51644001D01*
X-14909899Y51708002D01*
X-15927181Y52725284D01*
X-15960666Y52786607D01*
X-15963500Y52812965D01*
X-15963500Y53055000D01*
X-15314887Y53055000D01*
X-15295387Y52857009D01*
X-15237631Y52666614D01*
X-15169467Y52539089D01*
X-15169466Y52539089D01*
X-14791129Y52917426D01*
X-14775245Y52858147D01*
X-14708102Y52741853D01*
X-14613147Y52646898D01*
X-14496853Y52579755D01*
X-14437576Y52563872D01*
X-14815914Y52185535D01*
X-14688386Y52117370D01*
X-14497992Y52059614D01*
X-14300000Y52040114D01*
X-14102009Y52059614D01*
X-13911617Y52117369D01*
X-13784088Y52185536D01*
X-14162425Y52563873D01*
X-14103147Y52579755D01*
X-13986853Y52646898D01*
X-13891898Y52741853D01*
X-13824755Y52858147D01*
X-13808872Y52917425D01*
X-13430536Y52539089D01*
X-13362369Y52666617D01*
X-13304614Y52857009D01*
X-13285114Y53055000D01*
X-12814887Y53055000D01*
X-12795387Y52857009D01*
X-12737631Y52666614D01*
X-12669467Y52539089D01*
X-12669466Y52539089D01*
X-12291129Y52917426D01*
X-12275245Y52858147D01*
X-12208102Y52741853D01*
X-12113147Y52646898D01*
X-11996853Y52579755D01*
X-11937576Y52563872D01*
X-12315914Y52185535D01*
X-12188386Y52117370D01*
X-11997992Y52059614D01*
X-11800000Y52040114D01*
X-11602009Y52059614D01*
X-11411617Y52117369D01*
X-11284088Y52185536D01*
X-11662425Y52563873D01*
X-11603147Y52579755D01*
X-11486853Y52646898D01*
X-11391898Y52741853D01*
X-11324755Y52858147D01*
X-11308872Y52917425D01*
X-10930536Y52539089D01*
X-10862369Y52666617D01*
X-10804614Y52857009D01*
X-10785114Y53055000D01*
X-10314887Y53055000D01*
X-10295387Y52857009D01*
X-10237631Y52666614D01*
X-10169467Y52539089D01*
X-10169466Y52539089D01*
X-9791129Y52917426D01*
X-9775245Y52858147D01*
X-9708102Y52741853D01*
X-9613147Y52646898D01*
X-9496853Y52579755D01*
X-9437576Y52563872D01*
X-9815914Y52185535D01*
X-9688386Y52117370D01*
X-9497992Y52059614D01*
X-9300000Y52040114D01*
X-9102009Y52059614D01*
X-8911617Y52117369D01*
X-8784088Y52185536D01*
X-9162425Y52563873D01*
X-9103147Y52579755D01*
X-8986853Y52646898D01*
X-8891898Y52741853D01*
X-8824755Y52858147D01*
X-8808872Y52917425D01*
X-8430536Y52539089D01*
X-8362369Y52666617D01*
X-8304614Y52857009D01*
X-8285114Y53055000D01*
X-7814887Y53055000D01*
X-7795387Y52857009D01*
X-7737631Y52666614D01*
X-7669467Y52539089D01*
X-7669466Y52539089D01*
X-7291129Y52917426D01*
X-7275245Y52858147D01*
X-7208102Y52741853D01*
X-7113147Y52646898D01*
X-6996853Y52579755D01*
X-6937576Y52563872D01*
X-7315914Y52185535D01*
X-7188386Y52117370D01*
X-6997992Y52059614D01*
X-6800000Y52040114D01*
X-6602009Y52059614D01*
X-6411617Y52117369D01*
X-6284088Y52185536D01*
X-6662425Y52563873D01*
X-6603147Y52579755D01*
X-6486853Y52646898D01*
X-6391898Y52741853D01*
X-6324755Y52858147D01*
X-6308872Y52917425D01*
X-5930536Y52539089D01*
X-5862369Y52666617D01*
X-5804614Y52857009D01*
X-5785114Y53055000D01*
X-5314887Y53055000D01*
X-5295387Y52857009D01*
X-5237631Y52666614D01*
X-5169467Y52539089D01*
X-5169466Y52539089D01*
X-4791129Y52917426D01*
X-4775245Y52858147D01*
X-4708102Y52741853D01*
X-4613147Y52646898D01*
X-4496853Y52579755D01*
X-4437576Y52563872D01*
X-4815914Y52185535D01*
X-4688386Y52117370D01*
X-4497992Y52059614D01*
X-4300000Y52040114D01*
X-4102009Y52059614D01*
X-3911617Y52117369D01*
X-3784088Y52185536D01*
X-4162425Y52563873D01*
X-4103147Y52579755D01*
X-3986853Y52646898D01*
X-3891898Y52741853D01*
X-3824755Y52858147D01*
X-3808872Y52917425D01*
X-3430535Y52539088D01*
X-3362369Y52666617D01*
X-3304614Y52857009D01*
X-3285114Y53055000D01*
X-3304614Y53252992D01*
X-3362370Y53443386D01*
X-3430535Y53570914D01*
X-3808873Y53192577D01*
X-3824755Y53251853D01*
X-3891898Y53368147D01*
X-3986853Y53463102D01*
X-4103147Y53530245D01*
X-4162426Y53546129D01*
X-3784089Y53924466D01*
X-3784089Y53924467D01*
X-3911614Y53992631D01*
X-4102009Y54050387D01*
X-4300000Y54069887D01*
X-4497992Y54050387D01*
X-4688380Y53992633D01*
X-4815913Y53924466D01*
X-4437575Y53546129D01*
X-4496853Y53530245D01*
X-4613147Y53463102D01*
X-4708102Y53368147D01*
X-4775245Y53251853D01*
X-4791129Y53192576D01*
X-5169466Y53570913D01*
X-5237633Y53443380D01*
X-5295387Y53252992D01*
X-5314887Y53055000D01*
X-5785114Y53055000D01*
X-5804614Y53252992D01*
X-5862370Y53443386D01*
X-5930535Y53570914D01*
X-6308873Y53192577D01*
X-6324755Y53251853D01*
X-6391898Y53368147D01*
X-6486853Y53463102D01*
X-6603147Y53530245D01*
X-6662426Y53546129D01*
X-6284089Y53924466D01*
X-6284089Y53924467D01*
X-6411614Y53992631D01*
X-6602009Y54050387D01*
X-6800000Y54069887D01*
X-6997992Y54050387D01*
X-7188380Y53992633D01*
X-7315913Y53924466D01*
X-6937575Y53546129D01*
X-6996853Y53530245D01*
X-7113147Y53463102D01*
X-7208102Y53368147D01*
X-7275245Y53251853D01*
X-7291129Y53192576D01*
X-7669466Y53570913D01*
X-7737633Y53443380D01*
X-7795387Y53252992D01*
X-7814887Y53055000D01*
X-8285114Y53055000D01*
X-8304614Y53252992D01*
X-8362370Y53443386D01*
X-8430535Y53570914D01*
X-8808873Y53192577D01*
X-8824755Y53251853D01*
X-8891898Y53368147D01*
X-8986853Y53463102D01*
X-9103147Y53530245D01*
X-9162426Y53546129D01*
X-8784089Y53924466D01*
X-8784089Y53924467D01*
X-8911614Y53992631D01*
X-9102009Y54050387D01*
X-9300000Y54069887D01*
X-9497992Y54050387D01*
X-9688380Y53992633D01*
X-9815913Y53924466D01*
X-9437575Y53546129D01*
X-9496853Y53530245D01*
X-9613147Y53463102D01*
X-9708102Y53368147D01*
X-9775245Y53251853D01*
X-9791129Y53192576D01*
X-10169466Y53570913D01*
X-10237633Y53443380D01*
X-10295387Y53252992D01*
X-10314887Y53055000D01*
X-10785114Y53055000D01*
X-10804614Y53252992D01*
X-10862370Y53443386D01*
X-10930535Y53570914D01*
X-11308873Y53192577D01*
X-11324755Y53251853D01*
X-11391898Y53368147D01*
X-11486853Y53463102D01*
X-11603147Y53530245D01*
X-11662426Y53546129D01*
X-11284089Y53924466D01*
X-11284089Y53924467D01*
X-11411614Y53992631D01*
X-11602009Y54050387D01*
X-11800000Y54069887D01*
X-11997992Y54050387D01*
X-12188380Y53992633D01*
X-12315913Y53924466D01*
X-11937575Y53546129D01*
X-11996853Y53530245D01*
X-12113147Y53463102D01*
X-12208102Y53368147D01*
X-12275245Y53251853D01*
X-12291129Y53192576D01*
X-12669466Y53570913D01*
X-12737633Y53443380D01*
X-12795387Y53252992D01*
X-12814887Y53055000D01*
X-13285114Y53055000D01*
X-13304614Y53252992D01*
X-13362370Y53443386D01*
X-13430535Y53570914D01*
X-13808873Y53192577D01*
X-13824755Y53251853D01*
X-13891898Y53368147D01*
X-13986853Y53463102D01*
X-14103147Y53530245D01*
X-14162426Y53546129D01*
X-13784089Y53924466D01*
X-13784089Y53924467D01*
X-13911614Y53992631D01*
X-14102009Y54050387D01*
X-14300000Y54069887D01*
X-14497992Y54050387D01*
X-14688380Y53992633D01*
X-14815913Y53924466D01*
X-14437575Y53546129D01*
X-14496853Y53530245D01*
X-14613147Y53463102D01*
X-14708102Y53368147D01*
X-14775245Y53251853D01*
X-14791129Y53192576D01*
X-15169466Y53570913D01*
X-15237633Y53443380D01*
X-15295387Y53252992D01*
X-15314887Y53055000D01*
X-15963500Y53055000D01*
X-15963500Y54748307D01*
X-15963500Y54748309D01*
X-15994201Y54862886D01*
X-15994201Y54862887D01*
X-15994201Y54862888D01*
X-16053508Y54965611D01*
X-16053512Y54965616D01*
X-16077686Y54989790D01*
X-16011503Y56688483D01*
X-15554014Y56968881D01*
X-15064978Y56974808D01*
X-15030860Y56976376D01*
X-14997342Y56979053D01*
X-14958934Y56987306D01*
X-14889257Y56982146D01*
X-14845202Y56953755D01*
X-14437575Y56546129D01*
X-14496853Y56530245D01*
X-14613147Y56463102D01*
X-14708102Y56368147D01*
X-14775245Y56251853D01*
X-14791129Y56192576D01*
X-15169466Y56570913D01*
X-15237633Y56443380D01*
X-15295387Y56252992D01*
X-15314887Y56055000D01*
X-15295387Y55857009D01*
X-15237631Y55666614D01*
X-15169467Y55539089D01*
X-15169466Y55539089D01*
X-14791129Y55917426D01*
X-14775245Y55858147D01*
X-14708102Y55741853D01*
X-14613147Y55646898D01*
X-14496853Y55579755D01*
X-14437576Y55563872D01*
X-14815914Y55185535D01*
X-14688386Y55117370D01*
X-14497992Y55059614D01*
X-14300000Y55040114D01*
X-14102009Y55059614D01*
X-13911617Y55117369D01*
X-13784088Y55185536D01*
X-14162425Y55563873D01*
X-14103147Y55579755D01*
X-13986853Y55646898D01*
X-13891898Y55741853D01*
X-13824755Y55858147D01*
X-13808872Y55917425D01*
X-13430536Y55539089D01*
X-13362369Y55666617D01*
X-13304614Y55857009D01*
X-13285114Y56055000D01*
X-13304614Y56252992D01*
X-13362370Y56443386D01*
X-13430535Y56570914D01*
X-13808873Y56192577D01*
X-13824755Y56251853D01*
X-13891898Y56368147D01*
X-13986853Y56463102D01*
X-14103147Y56530245D01*
X-14162426Y56546129D01*
X-13746536Y56962019D01*
X-13685213Y56995504D01*
X-13634665Y56995955D01*
X-13623132Y56993661D01*
X-13623127Y56993661D01*
X-13623124Y56993660D01*
X-13572000Y56988625D01*
X-13524514Y56983948D01*
X-13524512Y56983948D01*
X-12575489Y56983948D01*
X-12575487Y56983948D01*
X-12538301Y56985318D01*
X-12501765Y56988013D01*
X-12466630Y56995451D01*
X-12396968Y56990078D01*
X-12353268Y56961821D01*
X-11937575Y56546129D01*
X-11996853Y56530245D01*
X-12113147Y56463102D01*
X-12208102Y56368147D01*
X-12275245Y56251853D01*
X-12291129Y56192576D01*
X-12669466Y56570913D01*
X-12737633Y56443380D01*
X-12795387Y56252992D01*
X-12814887Y56055000D01*
X-12795387Y55857009D01*
X-12737631Y55666614D01*
X-12669467Y55539089D01*
X-12669466Y55539089D01*
X-12291129Y55917426D01*
X-12275245Y55858147D01*
X-12208102Y55741853D01*
X-12113147Y55646898D01*
X-11996853Y55579755D01*
X-11937576Y55563872D01*
X-12315914Y55185535D01*
X-12188386Y55117370D01*
X-11997992Y55059614D01*
X-11800000Y55040114D01*
X-11602009Y55059614D01*
X-11411617Y55117369D01*
X-11284088Y55185536D01*
X-11662425Y55563873D01*
X-11603147Y55579755D01*
X-11486853Y55646898D01*
X-11391898Y55741853D01*
X-11324755Y55858147D01*
X-11308872Y55917425D01*
X-10930536Y55539089D01*
X-10862369Y55666617D01*
X-10804614Y55857009D01*
X-10785114Y56055000D01*
X-10804614Y56252992D01*
X-10862370Y56443386D01*
X-10930535Y56570914D01*
X-11308873Y56192577D01*
X-11324755Y56251853D01*
X-11391898Y56368147D01*
X-11486853Y56463102D01*
X-11603147Y56530245D01*
X-11662426Y56546129D01*
X-11246536Y56962019D01*
X-11185213Y56995504D01*
X-11134665Y56995955D01*
X-11123132Y56993661D01*
X-11123127Y56993661D01*
X-11123124Y56993660D01*
X-11072000Y56988625D01*
X-11024514Y56983948D01*
X-11024512Y56983948D01*
X-10075489Y56983948D01*
X-10075487Y56983948D01*
X-10038301Y56985318D01*
X-10001765Y56988013D01*
X-9966630Y56995451D01*
X-9896968Y56990078D01*
X-9853268Y56961821D01*
X-9437575Y56546129D01*
X-9496853Y56530245D01*
X-9613147Y56463102D01*
X-9708102Y56368147D01*
X-9775245Y56251853D01*
X-9791129Y56192576D01*
X-10169466Y56570913D01*
X-10237633Y56443380D01*
X-10295387Y56252992D01*
X-10314887Y56055000D01*
X-10295387Y55857009D01*
X-10237631Y55666614D01*
X-10169467Y55539089D01*
X-10169466Y55539089D01*
X-9791129Y55917426D01*
X-9775245Y55858147D01*
X-9708102Y55741853D01*
X-9613147Y55646898D01*
X-9496853Y55579755D01*
X-9437576Y55563872D01*
X-9815914Y55185535D01*
X-9688386Y55117370D01*
X-9497992Y55059614D01*
X-9300000Y55040114D01*
X-9102009Y55059614D01*
X-8911617Y55117369D01*
X-8784088Y55185536D01*
X-9162425Y55563873D01*
X-9103147Y55579755D01*
X-8986853Y55646898D01*
X-8891898Y55741853D01*
X-8824755Y55858147D01*
X-8808872Y55917425D01*
X-8430536Y55539089D01*
X-8362369Y55666617D01*
X-8304614Y55857009D01*
X-8285114Y56055000D01*
X-8304614Y56252992D01*
X-8362370Y56443386D01*
X-8430535Y56570914D01*
X-8808873Y56192577D01*
X-8824755Y56251853D01*
X-8891898Y56368147D01*
X-8986853Y56463102D01*
X-9103147Y56530245D01*
X-9162426Y56546129D01*
X-8746536Y56962019D01*
X-8685213Y56995504D01*
X-8634665Y56995955D01*
X-8623132Y56993661D01*
X-8623127Y56993661D01*
X-8623124Y56993660D01*
X-8572000Y56988625D01*
X-8524514Y56983948D01*
X-8524512Y56983948D01*
X-7575489Y56983948D01*
X-7575487Y56983948D01*
X-7538301Y56985318D01*
X-7501765Y56988013D01*
X-7466630Y56995451D01*
X-7396968Y56990078D01*
X-7353268Y56961821D01*
X-6937575Y56546129D01*
X-6996853Y56530245D01*
X-7113147Y56463102D01*
X-7208102Y56368147D01*
X-7275245Y56251853D01*
X-7291129Y56192576D01*
X-7669466Y56570913D01*
X-7737633Y56443380D01*
X-7795387Y56252992D01*
X-7814887Y56055000D01*
X-7795387Y55857009D01*
X-7737631Y55666614D01*
X-7669467Y55539089D01*
X-7669466Y55539089D01*
X-7291129Y55917426D01*
X-7275245Y55858147D01*
X-7208102Y55741853D01*
X-7113147Y55646898D01*
X-6996853Y55579755D01*
X-6937576Y55563872D01*
X-7315914Y55185535D01*
X-7188386Y55117370D01*
X-6997992Y55059614D01*
X-6800000Y55040114D01*
X-6602009Y55059614D01*
X-6411617Y55117369D01*
X-6284088Y55185536D01*
X-6662425Y55563873D01*
X-6603147Y55579755D01*
X-6486853Y55646898D01*
X-6391898Y55741853D01*
X-6324755Y55858147D01*
X-6308872Y55917425D01*
X-5930536Y55539089D01*
X-5862369Y55666617D01*
X-5804614Y55857009D01*
X-5785114Y56055000D01*
X-5804614Y56252992D01*
X-5862370Y56443386D01*
X-5930535Y56570914D01*
X-6308873Y56192577D01*
X-6324755Y56251853D01*
X-6391898Y56368147D01*
X-6486853Y56463102D01*
X-6603147Y56530245D01*
X-6662426Y56546129D01*
X-6246536Y56962019D01*
X-6185213Y56995504D01*
X-6134665Y56995955D01*
X-6123132Y56993661D01*
G37*
%TD.AperFunction*%
%TD*%
%TA.AperFunction,Conductor*%
%TO.N,GND*%
G36*
X-3964000Y34775000D02*
G01*
X-2564500Y33510936D01*
X-2564500Y29524694D01*
X-3303042Y29072039D01*
X-3365433Y29071898D01*
X-3432517Y29091432D01*
X-3478391Y29144132D01*
X-3488490Y29213268D01*
X-3461561Y29274569D01*
X-3456154Y29281157D01*
X-3362368Y29456621D01*
X-3304614Y29647009D01*
X-3285114Y29845000D01*
X-3304614Y30042992D01*
X-3362370Y30233386D01*
X-3430535Y30360914D01*
X-3808873Y29982577D01*
X-3824755Y30041853D01*
X-3891898Y30158147D01*
X-3986853Y30253102D01*
X-4103147Y30320245D01*
X-4162426Y30336129D01*
X-3784089Y30714466D01*
X-3784089Y30714467D01*
X-3911614Y30782631D01*
X-4102009Y30840387D01*
X-4300000Y30859887D01*
X-4497992Y30840387D01*
X-4688380Y30782633D01*
X-4815913Y30714466D01*
X-4437575Y30336129D01*
X-4496853Y30320245D01*
X-4613147Y30253102D01*
X-4708102Y30158147D01*
X-4775245Y30041853D01*
X-4791129Y29982576D01*
X-5169466Y30360913D01*
X-5237633Y30233380D01*
X-5295387Y30042992D01*
X-5314887Y29845000D01*
X-5295387Y29647009D01*
X-5237633Y29456621D01*
X-5143846Y29281155D01*
X-5134984Y29270358D01*
X-5107669Y29206049D01*
X-5119459Y29137181D01*
X-5166610Y29085620D01*
X-5230555Y29067691D01*
X-5870070Y29066248D01*
X-5937154Y29085782D01*
X-5983028Y29138482D01*
X-5993127Y29207618D01*
X-5966199Y29268917D01*
X-5956156Y29281155D01*
X-5862368Y29456621D01*
X-5804614Y29647009D01*
X-5785114Y29845000D01*
X-5804614Y30042992D01*
X-5862370Y30233386D01*
X-5930535Y30360914D01*
X-6308873Y29982577D01*
X-6324755Y30041853D01*
X-6391898Y30158147D01*
X-6486853Y30253102D01*
X-6603147Y30320245D01*
X-6662426Y30336129D01*
X-6284089Y30714466D01*
X-6284089Y30714467D01*
X-6411614Y30782631D01*
X-6602009Y30840387D01*
X-6800000Y30859887D01*
X-6997992Y30840387D01*
X-7188380Y30782633D01*
X-7315913Y30714466D01*
X-6937575Y30336129D01*
X-6996853Y30320245D01*
X-7113147Y30253102D01*
X-7208102Y30158147D01*
X-7275245Y30041853D01*
X-7291129Y29982576D01*
X-7669466Y30360913D01*
X-7737633Y30233380D01*
X-7795387Y30042992D01*
X-7814887Y29845000D01*
X-7795387Y29647009D01*
X-7737633Y29456621D01*
X-7643846Y29281156D01*
X-7630363Y29264727D01*
X-7603050Y29200417D01*
X-7614841Y29131549D01*
X-7661993Y29079989D01*
X-7725936Y29062062D01*
X-8374706Y29060599D01*
X-8441790Y29080133D01*
X-8487664Y29132833D01*
X-8497763Y29201969D01*
X-8470836Y29263267D01*
X-8456156Y29281155D01*
X-8362368Y29456621D01*
X-8304614Y29647009D01*
X-8285114Y29845000D01*
X-8304614Y30042992D01*
X-8362370Y30233386D01*
X-8430535Y30360914D01*
X-8808873Y29982577D01*
X-8824755Y30041853D01*
X-8891898Y30158147D01*
X-8986853Y30253102D01*
X-9103147Y30320245D01*
X-9162426Y30336129D01*
X-8784089Y30714466D01*
X-8784089Y30714467D01*
X-8911614Y30782631D01*
X-9102009Y30840387D01*
X-9300000Y30859887D01*
X-9497992Y30840387D01*
X-9688380Y30782633D01*
X-9815913Y30714466D01*
X-9437575Y30336129D01*
X-9496853Y30320245D01*
X-9613147Y30253102D01*
X-9708102Y30158147D01*
X-9775245Y30041853D01*
X-9791129Y29982576D01*
X-10169466Y30360913D01*
X-10237633Y30233380D01*
X-10295387Y30042992D01*
X-10314887Y29845000D01*
X-10295387Y29647009D01*
X-10237633Y29456621D01*
X-10143846Y29281156D01*
X-10125743Y29259097D01*
X-10098431Y29194786D01*
X-10110223Y29125919D01*
X-10157376Y29074359D01*
X-10221317Y29056433D01*
X-10879343Y29054949D01*
X-10946427Y29074483D01*
X-10992301Y29127183D01*
X-11002400Y29196319D01*
X-10975474Y29257617D01*
X-10956154Y29281158D01*
X-10862368Y29456621D01*
X-10804614Y29647009D01*
X-10785114Y29845000D01*
X-10804614Y30042992D01*
X-10862370Y30233386D01*
X-10930535Y30360914D01*
X-11308873Y29982577D01*
X-11324755Y30041853D01*
X-11391898Y30158147D01*
X-11486853Y30253102D01*
X-11603147Y30320245D01*
X-11662426Y30336129D01*
X-11284089Y30714466D01*
X-11284089Y30714467D01*
X-11411614Y30782631D01*
X-11602009Y30840387D01*
X-11800000Y30859887D01*
X-11997992Y30840387D01*
X-12188380Y30782633D01*
X-12315913Y30714466D01*
X-11937575Y30336129D01*
X-11996853Y30320245D01*
X-12113147Y30253102D01*
X-12208102Y30158147D01*
X-12275245Y30041853D01*
X-12291129Y29982576D01*
X-12669466Y30360913D01*
X-12737633Y30233380D01*
X-12795387Y30042992D01*
X-12814887Y29845000D01*
X-12795387Y29647009D01*
X-12737633Y29456621D01*
X-12643846Y29281155D01*
X-12621125Y29253471D01*
X-12593811Y29189161D01*
X-12605601Y29120294D01*
X-12652753Y29068733D01*
X-12716697Y29050805D01*
X-13383979Y29049300D01*
X-13451063Y29068834D01*
X-13496937Y29121534D01*
X-13507036Y29190670D01*
X-13480110Y29251967D01*
X-13456155Y29281155D01*
X-13362368Y29456621D01*
X-13304614Y29647009D01*
X-13285114Y29845000D01*
X-13304614Y30042992D01*
X-13362370Y30233386D01*
X-13430535Y30360914D01*
X-13808873Y29982577D01*
X-13824755Y30041853D01*
X-13891898Y30158147D01*
X-13986853Y30253102D01*
X-14103147Y30320245D01*
X-14162426Y30336129D01*
X-13784089Y30714466D01*
X-13784089Y30714467D01*
X-13911614Y30782631D01*
X-14102009Y30840387D01*
X-14300000Y30859887D01*
X-14497992Y30840387D01*
X-14688380Y30782633D01*
X-14815913Y30714466D01*
X-14437575Y30336129D01*
X-14496853Y30320245D01*
X-14613147Y30253102D01*
X-14708102Y30158147D01*
X-14775245Y30041853D01*
X-14791129Y29982576D01*
X-15169466Y30360913D01*
X-15237633Y30233380D01*
X-15295387Y30042992D01*
X-15314887Y29845000D01*
X-15295387Y29647009D01*
X-15237633Y29456621D01*
X-15143846Y29281156D01*
X-15116505Y29247841D01*
X-15089192Y29183531D01*
X-15100983Y29114663D01*
X-15148135Y29063103D01*
X-15212078Y29045176D01*
X-15464845Y29044606D01*
X-15914000Y29975000D01*
X-15994845Y32845000D01*
X-15314887Y32845000D01*
X-15295387Y32647009D01*
X-15237631Y32456614D01*
X-15169467Y32329089D01*
X-15169466Y32329089D01*
X-14791129Y32707426D01*
X-14775245Y32648147D01*
X-14708102Y32531853D01*
X-14613147Y32436898D01*
X-14496853Y32369755D01*
X-14437576Y32353872D01*
X-14815914Y31975535D01*
X-14688386Y31907370D01*
X-14497992Y31849614D01*
X-14300000Y31830114D01*
X-14102009Y31849614D01*
X-13911617Y31907369D01*
X-13784088Y31975536D01*
X-14162425Y32353873D01*
X-14103147Y32369755D01*
X-13986853Y32436898D01*
X-13891898Y32531853D01*
X-13824755Y32648147D01*
X-13808872Y32707425D01*
X-13430536Y32329089D01*
X-13362369Y32456617D01*
X-13304614Y32647009D01*
X-13285114Y32845000D01*
X-12814887Y32845000D01*
X-12795387Y32647009D01*
X-12737631Y32456614D01*
X-12669467Y32329089D01*
X-12669466Y32329089D01*
X-12291129Y32707426D01*
X-12275245Y32648147D01*
X-12208102Y32531853D01*
X-12113147Y32436898D01*
X-11996853Y32369755D01*
X-11937576Y32353872D01*
X-12315914Y31975535D01*
X-12188386Y31907370D01*
X-11997992Y31849614D01*
X-11800000Y31830114D01*
X-11602009Y31849614D01*
X-11411617Y31907369D01*
X-11284088Y31975536D01*
X-11662425Y32353873D01*
X-11603147Y32369755D01*
X-11486853Y32436898D01*
X-11391898Y32531853D01*
X-11324755Y32648147D01*
X-11308872Y32707425D01*
X-10930536Y32329089D01*
X-10862369Y32456617D01*
X-10804614Y32647009D01*
X-10785114Y32845000D01*
X-10314887Y32845000D01*
X-10295387Y32647009D01*
X-10237631Y32456614D01*
X-10169467Y32329089D01*
X-10169466Y32329089D01*
X-9791129Y32707426D01*
X-9775245Y32648147D01*
X-9708102Y32531853D01*
X-9613147Y32436898D01*
X-9496853Y32369755D01*
X-9437576Y32353872D01*
X-9815914Y31975535D01*
X-9688386Y31907370D01*
X-9497992Y31849614D01*
X-9300000Y31830114D01*
X-9102009Y31849614D01*
X-8911617Y31907369D01*
X-8784088Y31975536D01*
X-9162425Y32353873D01*
X-9103147Y32369755D01*
X-8986853Y32436898D01*
X-8891898Y32531853D01*
X-8824755Y32648147D01*
X-8808872Y32707425D01*
X-8430536Y32329089D01*
X-8362369Y32456617D01*
X-8304614Y32647009D01*
X-8285114Y32845000D01*
X-7814887Y32845000D01*
X-7795387Y32647009D01*
X-7737631Y32456614D01*
X-7669467Y32329089D01*
X-7669466Y32329089D01*
X-7291129Y32707426D01*
X-7275245Y32648147D01*
X-7208102Y32531853D01*
X-7113147Y32436898D01*
X-6996853Y32369755D01*
X-6937576Y32353872D01*
X-7315914Y31975535D01*
X-7188386Y31907370D01*
X-6997992Y31849614D01*
X-6800000Y31830114D01*
X-6602009Y31849614D01*
X-6411617Y31907369D01*
X-6284088Y31975536D01*
X-6662425Y32353873D01*
X-6603147Y32369755D01*
X-6486853Y32436898D01*
X-6391898Y32531853D01*
X-6324755Y32648147D01*
X-6308872Y32707425D01*
X-5930536Y32329089D01*
X-5862369Y32456617D01*
X-5804614Y32647009D01*
X-5785114Y32845000D01*
X-5314887Y32845000D01*
X-5295387Y32647009D01*
X-5237631Y32456614D01*
X-5169467Y32329089D01*
X-5169466Y32329089D01*
X-4791129Y32707426D01*
X-4775245Y32648147D01*
X-4708102Y32531853D01*
X-4613147Y32436898D01*
X-4496853Y32369755D01*
X-4437576Y32353872D01*
X-4815914Y31975535D01*
X-4688386Y31907370D01*
X-4497992Y31849614D01*
X-4300000Y31830114D01*
X-4102009Y31849614D01*
X-3911617Y31907369D01*
X-3784088Y31975536D01*
X-4162425Y32353873D01*
X-4103147Y32369755D01*
X-3986853Y32436898D01*
X-3891898Y32531853D01*
X-3824755Y32648147D01*
X-3808872Y32707425D01*
X-3430535Y32329088D01*
X-3362369Y32456617D01*
X-3304614Y32647009D01*
X-3285114Y32845000D01*
X-3304614Y33042992D01*
X-3362370Y33233386D01*
X-3430535Y33360914D01*
X-3808873Y32982577D01*
X-3824755Y33041853D01*
X-3891898Y33158147D01*
X-3986853Y33253102D01*
X-4103147Y33320245D01*
X-4162426Y33336129D01*
X-3784089Y33714466D01*
X-3784089Y33714467D01*
X-3911614Y33782631D01*
X-4102009Y33840387D01*
X-4300000Y33859887D01*
X-4497992Y33840387D01*
X-4688380Y33782633D01*
X-4815913Y33714466D01*
X-4437575Y33336129D01*
X-4496853Y33320245D01*
X-4613147Y33253102D01*
X-4708102Y33158147D01*
X-4775245Y33041853D01*
X-4791129Y32982576D01*
X-5169466Y33360913D01*
X-5237633Y33233380D01*
X-5295387Y33042992D01*
X-5314887Y32845000D01*
X-5785114Y32845000D01*
X-5804614Y33042992D01*
X-5862370Y33233386D01*
X-5930535Y33360914D01*
X-6308873Y32982577D01*
X-6324755Y33041853D01*
X-6391898Y33158147D01*
X-6486853Y33253102D01*
X-6603147Y33320245D01*
X-6662426Y33336129D01*
X-6284089Y33714466D01*
X-6284089Y33714467D01*
X-6411614Y33782631D01*
X-6602009Y33840387D01*
X-6800000Y33859887D01*
X-6997992Y33840387D01*
X-7188380Y33782633D01*
X-7315913Y33714466D01*
X-6937575Y33336129D01*
X-6996853Y33320245D01*
X-7113147Y33253102D01*
X-7208102Y33158147D01*
X-7275245Y33041853D01*
X-7291129Y32982576D01*
X-7669466Y33360913D01*
X-7737633Y33233380D01*
X-7795387Y33042992D01*
X-7814887Y32845000D01*
X-8285114Y32845000D01*
X-8304614Y33042992D01*
X-8362370Y33233386D01*
X-8430535Y33360914D01*
X-8808873Y32982577D01*
X-8824755Y33041853D01*
X-8891898Y33158147D01*
X-8986853Y33253102D01*
X-9103147Y33320245D01*
X-9162426Y33336129D01*
X-8784089Y33714466D01*
X-8784089Y33714467D01*
X-8911614Y33782631D01*
X-9102009Y33840387D01*
X-9300000Y33859887D01*
X-9497992Y33840387D01*
X-9688380Y33782633D01*
X-9815913Y33714466D01*
X-9437575Y33336129D01*
X-9496853Y33320245D01*
X-9613147Y33253102D01*
X-9708102Y33158147D01*
X-9775245Y33041853D01*
X-9791129Y32982576D01*
X-10169466Y33360913D01*
X-10237633Y33233380D01*
X-10295387Y33042992D01*
X-10314887Y32845000D01*
X-10785114Y32845000D01*
X-10804614Y33042992D01*
X-10862370Y33233386D01*
X-10930535Y33360914D01*
X-11308873Y32982577D01*
X-11324755Y33041853D01*
X-11391898Y33158147D01*
X-11486853Y33253102D01*
X-11603147Y33320245D01*
X-11662426Y33336129D01*
X-11284089Y33714466D01*
X-11284089Y33714467D01*
X-11411614Y33782631D01*
X-11602009Y33840387D01*
X-11800000Y33859887D01*
X-11997992Y33840387D01*
X-12188380Y33782633D01*
X-12315913Y33714466D01*
X-11937575Y33336129D01*
X-11996853Y33320245D01*
X-12113147Y33253102D01*
X-12208102Y33158147D01*
X-12275245Y33041853D01*
X-12291129Y32982576D01*
X-12669466Y33360913D01*
X-12737633Y33233380D01*
X-12795387Y33042992D01*
X-12814887Y32845000D01*
X-13285114Y32845000D01*
X-13304614Y33042992D01*
X-13362370Y33233386D01*
X-13430535Y33360914D01*
X-13808873Y32982577D01*
X-13824755Y33041853D01*
X-13891898Y33158147D01*
X-13986853Y33253102D01*
X-14103147Y33320245D01*
X-14162426Y33336129D01*
X-13784089Y33714466D01*
X-13784089Y33714467D01*
X-13911614Y33782631D01*
X-14102009Y33840387D01*
X-14300000Y33859887D01*
X-14497992Y33840387D01*
X-14688380Y33782633D01*
X-14815913Y33714466D01*
X-14437575Y33336129D01*
X-14496853Y33320245D01*
X-14613147Y33253102D01*
X-14708102Y33158147D01*
X-14775245Y33041853D01*
X-14791129Y32982576D01*
X-15169466Y33360913D01*
X-15237633Y33233380D01*
X-15295387Y33042992D01*
X-15314887Y32845000D01*
X-15994845Y32845000D01*
X-16014000Y33525000D01*
X-14514000Y34875000D01*
X-3964000Y34775000D01*
G37*
%TD.AperFunction*%
%TD*%
%TA.AperFunction,Conductor*%
%TO.N,/BATT_B*%
G36*
X-4958165Y28543849D02*
G01*
X-4877262Y28490055D01*
X-4823104Y28409396D01*
X-4803935Y28314151D01*
X-4806629Y28277052D01*
X-4815913Y28214468D01*
X-4437574Y27836129D01*
X-4496853Y27820245D01*
X-4613147Y27753102D01*
X-4708102Y27658147D01*
X-4775245Y27541853D01*
X-4791129Y27482574D01*
X-5169468Y27860913D01*
X-5237630Y27733389D01*
X-5237632Y27733384D01*
X-5295387Y27542994D01*
X-5302199Y27473822D01*
X-5330402Y27380851D01*
X-5356896Y27348569D01*
X-5311722Y27264053D01*
X-5302199Y27216178D01*
X-5295387Y27147006D01*
X-5237635Y26956625D01*
X-5237634Y26956622D01*
X-5169467Y26829089D01*
X-4791129Y27207427D01*
X-4775245Y27148147D01*
X-4708102Y27031853D01*
X-4613147Y26936898D01*
X-4496853Y26869755D01*
X-4437575Y26853872D01*
X-4815914Y26475535D01*
X-4688379Y26407367D01*
X-4497996Y26349615D01*
X-4300000Y26330114D01*
X-4102005Y26349615D01*
X-3911622Y26407367D01*
X-3784088Y26475535D01*
X-4162426Y26853872D01*
X-4103147Y26869755D01*
X-3986853Y26936898D01*
X-3891898Y27031853D01*
X-3824755Y27148147D01*
X-3808872Y27207426D01*
X-3430535Y26829088D01*
X-3362367Y26956623D01*
X-3351778Y26991527D01*
X-3305980Y27077210D01*
X-3230879Y27138845D01*
X-3137907Y27167048D01*
X-3041220Y27157525D01*
X-2955537Y27111727D01*
X-2893902Y27036626D01*
X-2865699Y26943654D01*
X-2864500Y26919247D01*
X-2864500Y24770754D01*
X-2883454Y24675466D01*
X-2937430Y24594684D01*
X-3018212Y24540708D01*
X-3113500Y24521754D01*
X-3208788Y24540708D01*
X-3289570Y24594684D01*
X-3343546Y24675466D01*
X-3351778Y24698473D01*
X-3362367Y24733379D01*
X-3430535Y24860914D01*
X-3808872Y24482576D01*
X-3824755Y24541853D01*
X-3891898Y24658147D01*
X-3986853Y24753102D01*
X-4103147Y24820245D01*
X-4162427Y24836129D01*
X-3784089Y25214467D01*
X-3911622Y25282634D01*
X-3911625Y25282635D01*
X-4102005Y25340386D01*
X-4300000Y25359887D01*
X-4497994Y25340387D01*
X-4688384Y25282632D01*
X-4688389Y25282630D01*
X-4815913Y25214468D01*
X-4437574Y24836129D01*
X-4496853Y24820245D01*
X-4613147Y24753102D01*
X-4708102Y24658147D01*
X-4775245Y24541853D01*
X-4791129Y24482574D01*
X-5169468Y24860913D01*
X-5237630Y24733389D01*
X-5237632Y24733384D01*
X-5295387Y24542994D01*
X-5302199Y24473822D01*
X-5330402Y24380851D01*
X-5356896Y24348569D01*
X-5311722Y24264053D01*
X-5302199Y24216178D01*
X-5295387Y24147006D01*
X-5237635Y23956625D01*
X-5237634Y23956622D01*
X-5169467Y23829089D01*
X-4791129Y24207427D01*
X-4775245Y24148147D01*
X-4708102Y24031853D01*
X-4613147Y23936898D01*
X-4496853Y23869755D01*
X-4437575Y23853872D01*
X-4815914Y23475535D01*
X-4688379Y23407367D01*
X-4497996Y23349615D01*
X-4300000Y23330114D01*
X-4102005Y23349615D01*
X-3911622Y23407367D01*
X-3784088Y23475535D01*
X-4162426Y23853872D01*
X-4103147Y23869755D01*
X-3986853Y23936898D01*
X-3891898Y24031853D01*
X-3824755Y24148147D01*
X-3808872Y24207426D01*
X-3430535Y23829088D01*
X-3362367Y23956623D01*
X-3351778Y23991527D01*
X-3305980Y24077210D01*
X-3230879Y24138845D01*
X-3137907Y24167048D01*
X-3041220Y24157525D01*
X-2955537Y24111727D01*
X-2893902Y24036626D01*
X-2865699Y23943654D01*
X-2864500Y23919247D01*
X-2864500Y22973164D01*
X-2883454Y22877876D01*
X-2937430Y22797094D01*
X-3018212Y22743118D01*
X-3113500Y22724164D01*
X-3116518Y22724182D01*
X-3977148Y22734613D01*
X-4264000Y22738090D01*
X-4264024Y22738090D01*
X-14263976Y22738090D01*
X-14264000Y22738090D01*
X-15035290Y22728742D01*
X-15661982Y22721145D01*
X-15757493Y22738943D01*
X-15838923Y22791936D01*
X-15893874Y22872058D01*
X-15913982Y22967109D01*
X-15914000Y22970127D01*
X-15914000Y24345000D01*
X-15314887Y24345000D01*
X-15295386Y24147005D01*
X-15237635Y23956625D01*
X-15237634Y23956622D01*
X-15169467Y23829089D01*
X-14791129Y24207427D01*
X-14775245Y24148147D01*
X-14708102Y24031853D01*
X-14613147Y23936898D01*
X-14496853Y23869755D01*
X-14437575Y23853872D01*
X-14815914Y23475535D01*
X-14688379Y23407367D01*
X-14497996Y23349615D01*
X-14300000Y23330114D01*
X-14102005Y23349615D01*
X-13911622Y23407367D01*
X-13784088Y23475535D01*
X-14162426Y23853872D01*
X-14103147Y23869755D01*
X-13986853Y23936898D01*
X-13891898Y24031853D01*
X-13824755Y24148147D01*
X-13808872Y24207426D01*
X-13430535Y23829088D01*
X-13362367Y23956622D01*
X-13304614Y24147006D01*
X-13297801Y24216178D01*
X-13269598Y24309150D01*
X-13243105Y24341433D01*
X-13246919Y24348569D01*
X-12856896Y24348569D01*
X-12811722Y24264053D01*
X-12802199Y24216178D01*
X-12795387Y24147006D01*
X-12737635Y23956625D01*
X-12737634Y23956622D01*
X-12669467Y23829089D01*
X-12291129Y24207427D01*
X-12275245Y24148147D01*
X-12208102Y24031853D01*
X-12113147Y23936898D01*
X-11996853Y23869755D01*
X-11937575Y23853872D01*
X-12315914Y23475535D01*
X-12188379Y23407367D01*
X-11997996Y23349615D01*
X-11800000Y23330114D01*
X-11602005Y23349615D01*
X-11411622Y23407367D01*
X-11284088Y23475535D01*
X-11662426Y23853872D01*
X-11603147Y23869755D01*
X-11486853Y23936898D01*
X-11391898Y24031853D01*
X-11324755Y24148147D01*
X-11308872Y24207426D01*
X-10930535Y23829088D01*
X-10862367Y23956622D01*
X-10804614Y24147006D01*
X-10797801Y24216178D01*
X-10769598Y24309150D01*
X-10743105Y24341433D01*
X-10746919Y24348569D01*
X-10356896Y24348569D01*
X-10311722Y24264053D01*
X-10302199Y24216178D01*
X-10295387Y24147006D01*
X-10237635Y23956625D01*
X-10237634Y23956622D01*
X-10169467Y23829089D01*
X-9791129Y24207427D01*
X-9775245Y24148147D01*
X-9708102Y24031853D01*
X-9613147Y23936898D01*
X-9496853Y23869755D01*
X-9437575Y23853872D01*
X-9815914Y23475535D01*
X-9688379Y23407367D01*
X-9497996Y23349615D01*
X-9300000Y23330114D01*
X-9102005Y23349615D01*
X-8911622Y23407367D01*
X-8784088Y23475535D01*
X-9162426Y23853872D01*
X-9103147Y23869755D01*
X-8986853Y23936898D01*
X-8891898Y24031853D01*
X-8824755Y24148147D01*
X-8808872Y24207426D01*
X-8430535Y23829088D01*
X-8362367Y23956622D01*
X-8304614Y24147006D01*
X-8297801Y24216178D01*
X-8269598Y24309150D01*
X-8243105Y24341433D01*
X-8246919Y24348569D01*
X-7856896Y24348569D01*
X-7811722Y24264053D01*
X-7802199Y24216178D01*
X-7795387Y24147006D01*
X-7737635Y23956625D01*
X-7737634Y23956622D01*
X-7669467Y23829089D01*
X-7291129Y24207427D01*
X-7275245Y24148147D01*
X-7208102Y24031853D01*
X-7113147Y23936898D01*
X-6996853Y23869755D01*
X-6937575Y23853872D01*
X-7315914Y23475535D01*
X-7188379Y23407367D01*
X-6997996Y23349615D01*
X-6800000Y23330114D01*
X-6602005Y23349615D01*
X-6411622Y23407367D01*
X-6284088Y23475535D01*
X-6662426Y23853872D01*
X-6603147Y23869755D01*
X-6486853Y23936898D01*
X-6391898Y24031853D01*
X-6324755Y24148147D01*
X-6308872Y24207426D01*
X-5930535Y23829088D01*
X-5862367Y23956622D01*
X-5804614Y24147006D01*
X-5797801Y24216178D01*
X-5769598Y24309150D01*
X-5743105Y24341433D01*
X-5788278Y24425948D01*
X-5797801Y24473822D01*
X-5804615Y24542996D01*
X-5862367Y24733379D01*
X-5930535Y24860914D01*
X-6308872Y24482576D01*
X-6324755Y24541853D01*
X-6391898Y24658147D01*
X-6486853Y24753102D01*
X-6603147Y24820245D01*
X-6662427Y24836129D01*
X-6284089Y25214467D01*
X-6411622Y25282634D01*
X-6411625Y25282635D01*
X-6602005Y25340386D01*
X-6800000Y25359887D01*
X-6997994Y25340387D01*
X-7188384Y25282632D01*
X-7188389Y25282630D01*
X-7315913Y25214468D01*
X-6937574Y24836129D01*
X-6996853Y24820245D01*
X-7113147Y24753102D01*
X-7208102Y24658147D01*
X-7275245Y24541853D01*
X-7291129Y24482574D01*
X-7669468Y24860913D01*
X-7737630Y24733389D01*
X-7737632Y24733384D01*
X-7795387Y24542994D01*
X-7802199Y24473822D01*
X-7830402Y24380851D01*
X-7856896Y24348569D01*
X-8246919Y24348569D01*
X-8288278Y24425948D01*
X-8297801Y24473822D01*
X-8304615Y24542996D01*
X-8362367Y24733379D01*
X-8430535Y24860914D01*
X-8808872Y24482576D01*
X-8824755Y24541853D01*
X-8891898Y24658147D01*
X-8986853Y24753102D01*
X-9103147Y24820245D01*
X-9162427Y24836129D01*
X-8784089Y25214467D01*
X-8911622Y25282634D01*
X-8911625Y25282635D01*
X-9102005Y25340386D01*
X-9300000Y25359887D01*
X-9497994Y25340387D01*
X-9688384Y25282632D01*
X-9688389Y25282630D01*
X-9815913Y25214468D01*
X-9437574Y24836129D01*
X-9496853Y24820245D01*
X-9613147Y24753102D01*
X-9708102Y24658147D01*
X-9775245Y24541853D01*
X-9791129Y24482574D01*
X-10169468Y24860913D01*
X-10237630Y24733389D01*
X-10237632Y24733384D01*
X-10295387Y24542994D01*
X-10302199Y24473822D01*
X-10330402Y24380851D01*
X-10356896Y24348569D01*
X-10746919Y24348569D01*
X-10788278Y24425948D01*
X-10797801Y24473822D01*
X-10804615Y24542996D01*
X-10862367Y24733379D01*
X-10930535Y24860914D01*
X-11308872Y24482576D01*
X-11324755Y24541853D01*
X-11391898Y24658147D01*
X-11486853Y24753102D01*
X-11603147Y24820245D01*
X-11662427Y24836129D01*
X-11284089Y25214467D01*
X-11411622Y25282634D01*
X-11411625Y25282635D01*
X-11602005Y25340386D01*
X-11800000Y25359887D01*
X-11997994Y25340387D01*
X-12188384Y25282632D01*
X-12188389Y25282630D01*
X-12315913Y25214468D01*
X-11937574Y24836129D01*
X-11996853Y24820245D01*
X-12113147Y24753102D01*
X-12208102Y24658147D01*
X-12275245Y24541853D01*
X-12291129Y24482574D01*
X-12669468Y24860913D01*
X-12737630Y24733389D01*
X-12737632Y24733384D01*
X-12795387Y24542994D01*
X-12802199Y24473822D01*
X-12830402Y24380851D01*
X-12856896Y24348569D01*
X-13246919Y24348569D01*
X-13288278Y24425948D01*
X-13297801Y24473822D01*
X-13304615Y24542996D01*
X-13362367Y24733379D01*
X-13430535Y24860914D01*
X-13808872Y24482576D01*
X-13824755Y24541853D01*
X-13891898Y24658147D01*
X-13986853Y24753102D01*
X-14103147Y24820245D01*
X-14162427Y24836129D01*
X-13784089Y25214467D01*
X-13911622Y25282634D01*
X-13911625Y25282635D01*
X-14102005Y25340386D01*
X-14300000Y25359887D01*
X-14497994Y25340387D01*
X-14688384Y25282632D01*
X-14688389Y25282630D01*
X-14815913Y25214468D01*
X-14437574Y24836129D01*
X-14496853Y24820245D01*
X-14613147Y24753102D01*
X-14708102Y24658147D01*
X-14775245Y24541853D01*
X-14791129Y24482574D01*
X-15169468Y24860913D01*
X-15237630Y24733389D01*
X-15237632Y24733384D01*
X-15295387Y24542994D01*
X-15314887Y24345000D01*
X-15914000Y24345000D01*
X-15914000Y28289652D01*
X-15895046Y28384940D01*
X-15841070Y28465722D01*
X-15760288Y28519698D01*
X-15665566Y28538651D01*
X-15056841Y28540024D01*
X-14961512Y28521285D01*
X-14880609Y28467491D01*
X-14826451Y28386832D01*
X-14807282Y28291587D01*
X-14809976Y28254488D01*
X-14815913Y28214468D01*
X-14437574Y27836129D01*
X-14496853Y27820245D01*
X-14613147Y27753102D01*
X-14708102Y27658147D01*
X-14775245Y27541853D01*
X-14791129Y27482574D01*
X-15169468Y27860913D01*
X-15237630Y27733389D01*
X-15237632Y27733384D01*
X-15295387Y27542994D01*
X-15314887Y27345000D01*
X-15295386Y27147005D01*
X-15237635Y26956625D01*
X-15237634Y26956622D01*
X-15169467Y26829089D01*
X-14791129Y27207427D01*
X-14775245Y27148147D01*
X-14708102Y27031853D01*
X-14613147Y26936898D01*
X-14496853Y26869755D01*
X-14437575Y26853872D01*
X-14815914Y26475535D01*
X-14688379Y26407367D01*
X-14497996Y26349615D01*
X-14300000Y26330114D01*
X-14102005Y26349615D01*
X-13911622Y26407367D01*
X-13784088Y26475535D01*
X-14162426Y26853872D01*
X-14103147Y26869755D01*
X-13986853Y26936898D01*
X-13891898Y27031853D01*
X-13824755Y27148147D01*
X-13808872Y27207426D01*
X-13430535Y26829088D01*
X-13362367Y26956622D01*
X-13304614Y27147006D01*
X-13297801Y27216178D01*
X-13269598Y27309150D01*
X-13243105Y27341433D01*
X-13288278Y27425948D01*
X-13297801Y27473822D01*
X-13304615Y27542996D01*
X-13362367Y27733379D01*
X-13430535Y27860914D01*
X-13808872Y27482576D01*
X-13824755Y27541853D01*
X-13891898Y27658147D01*
X-13986853Y27753102D01*
X-14103147Y27820245D01*
X-14162427Y27836129D01*
X-13784089Y28214467D01*
X-13790531Y28257899D01*
X-13785764Y28354937D01*
X-13744225Y28442764D01*
X-13672239Y28508010D01*
X-13580763Y28540741D01*
X-13544801Y28543435D01*
X-12556004Y28545665D01*
X-12460675Y28526926D01*
X-12379772Y28473132D01*
X-12325613Y28392473D01*
X-12306445Y28297228D01*
X-12309139Y28260129D01*
X-12315913Y28214468D01*
X-11937574Y27836129D01*
X-11996853Y27820245D01*
X-12113147Y27753102D01*
X-12208102Y27658147D01*
X-12275245Y27541853D01*
X-12291129Y27482574D01*
X-12669468Y27860913D01*
X-12737630Y27733389D01*
X-12737632Y27733384D01*
X-12795387Y27542994D01*
X-12802199Y27473822D01*
X-12830402Y27380851D01*
X-12856896Y27348569D01*
X-12811722Y27264053D01*
X-12802199Y27216178D01*
X-12795387Y27147006D01*
X-12737635Y26956625D01*
X-12737634Y26956622D01*
X-12669467Y26829089D01*
X-12291129Y27207427D01*
X-12275245Y27148147D01*
X-12208102Y27031853D01*
X-12113147Y26936898D01*
X-11996853Y26869755D01*
X-11937575Y26853872D01*
X-12315914Y26475535D01*
X-12188379Y26407367D01*
X-11997996Y26349615D01*
X-11800000Y26330114D01*
X-11602005Y26349615D01*
X-11411622Y26407367D01*
X-11284088Y26475535D01*
X-11662426Y26853872D01*
X-11603147Y26869755D01*
X-11486853Y26936898D01*
X-11391898Y27031853D01*
X-11324755Y27148147D01*
X-11308872Y27207426D01*
X-10930535Y26829088D01*
X-10862367Y26956622D01*
X-10804614Y27147006D01*
X-10797801Y27216178D01*
X-10769598Y27309150D01*
X-10743105Y27341433D01*
X-10788278Y27425948D01*
X-10797801Y27473822D01*
X-10804615Y27542996D01*
X-10862367Y27733379D01*
X-10930535Y27860914D01*
X-11308872Y27482576D01*
X-11324755Y27541853D01*
X-11391898Y27658147D01*
X-11486853Y27753102D01*
X-11603147Y27820245D01*
X-11662427Y27836129D01*
X-11284089Y28214467D01*
X-11291367Y28263536D01*
X-11286600Y28360574D01*
X-11245061Y28448401D01*
X-11173074Y28513647D01*
X-11081599Y28546378D01*
X-11045634Y28549072D01*
X-10055168Y28551306D01*
X-9959839Y28532567D01*
X-9878936Y28478773D01*
X-9824778Y28398114D01*
X-9805609Y28302869D01*
X-9808303Y28265771D01*
X-9815914Y28214469D01*
X-9437574Y27836129D01*
X-9496853Y27820245D01*
X-9613147Y27753102D01*
X-9708102Y27658147D01*
X-9775245Y27541853D01*
X-9791129Y27482574D01*
X-10169468Y27860913D01*
X-10237630Y27733389D01*
X-10237632Y27733384D01*
X-10295387Y27542994D01*
X-10302199Y27473822D01*
X-10330402Y27380851D01*
X-10356896Y27348569D01*
X-10311722Y27264053D01*
X-10302199Y27216178D01*
X-10295387Y27147006D01*
X-10237635Y26956625D01*
X-10237634Y26956622D01*
X-10169467Y26829089D01*
X-9791129Y27207427D01*
X-9775245Y27148147D01*
X-9708102Y27031853D01*
X-9613147Y26936898D01*
X-9496853Y26869755D01*
X-9437575Y26853872D01*
X-9815914Y26475535D01*
X-9688379Y26407367D01*
X-9497996Y26349615D01*
X-9300000Y26330114D01*
X-9102005Y26349615D01*
X-8911622Y26407367D01*
X-8784088Y26475535D01*
X-9162426Y26853872D01*
X-9103147Y26869755D01*
X-8986853Y26936898D01*
X-8891898Y27031853D01*
X-8824755Y27148147D01*
X-8808872Y27207426D01*
X-8430535Y26829088D01*
X-8362367Y26956622D01*
X-8304614Y27147006D01*
X-8297801Y27216178D01*
X-8269598Y27309150D01*
X-8243105Y27341433D01*
X-8288278Y27425948D01*
X-8297801Y27473822D01*
X-8304615Y27542996D01*
X-8362367Y27733379D01*
X-8430535Y27860914D01*
X-8808872Y27482576D01*
X-8824755Y27541853D01*
X-8891898Y27658147D01*
X-8986853Y27753102D01*
X-9103147Y27820245D01*
X-9162427Y27836129D01*
X-8784088Y28214468D01*
X-8792203Y28269174D01*
X-8787436Y28366211D01*
X-8745897Y28454039D01*
X-8673910Y28519284D01*
X-8582434Y28552015D01*
X-8546467Y28554709D01*
X-7554330Y28556947D01*
X-7459002Y28538208D01*
X-7378099Y28484414D01*
X-7323941Y28403755D01*
X-7304772Y28308510D01*
X-7307466Y28271411D01*
X-7315913Y28214468D01*
X-6937574Y27836129D01*
X-6996853Y27820245D01*
X-7113147Y27753102D01*
X-7208102Y27658147D01*
X-7275245Y27541853D01*
X-7291129Y27482574D01*
X-7669468Y27860913D01*
X-7737630Y27733389D01*
X-7737632Y27733384D01*
X-7795387Y27542994D01*
X-7802199Y27473822D01*
X-7830402Y27380851D01*
X-7856896Y27348569D01*
X-7811722Y27264053D01*
X-7802199Y27216178D01*
X-7795387Y27147006D01*
X-7737635Y26956625D01*
X-7737634Y26956622D01*
X-7669467Y26829089D01*
X-7291129Y27207427D01*
X-7275245Y27148147D01*
X-7208102Y27031853D01*
X-7113147Y26936898D01*
X-6996853Y26869755D01*
X-6937575Y26853872D01*
X-7315914Y26475535D01*
X-7188379Y26407367D01*
X-6997996Y26349615D01*
X-6800000Y26330114D01*
X-6602005Y26349615D01*
X-6411622Y26407367D01*
X-6284088Y26475535D01*
X-6662426Y26853872D01*
X-6603147Y26869755D01*
X-6486853Y26936898D01*
X-6391898Y27031853D01*
X-6324755Y27148147D01*
X-6308872Y27207426D01*
X-5930535Y26829088D01*
X-5862367Y26956622D01*
X-5804614Y27147006D01*
X-5797801Y27216178D01*
X-5769598Y27309150D01*
X-5743105Y27341433D01*
X-5788278Y27425948D01*
X-5797801Y27473822D01*
X-5804615Y27542996D01*
X-5862367Y27733379D01*
X-5930535Y27860914D01*
X-6308872Y27482576D01*
X-6324755Y27541853D01*
X-6391898Y27658147D01*
X-6486853Y27753102D01*
X-6603147Y27820245D01*
X-6662427Y27836129D01*
X-6284089Y28214467D01*
X-6293040Y28274809D01*
X-6288273Y28371847D01*
X-6246735Y28459675D01*
X-6174748Y28524921D01*
X-6083273Y28557652D01*
X-6047301Y28560346D01*
X-5053493Y28562588D01*
X-4958165Y28543849D01*
G37*
%TD.AperFunction*%
%TA.AperFunction,Conductor*%
G36*
X-3018731Y28548225D02*
G01*
X-2937828Y28494431D01*
X-2883670Y28413771D01*
X-2864501Y28318526D01*
X-2864500Y28317964D01*
X-2864500Y27770754D01*
X-2883454Y27675466D01*
X-2937430Y27594684D01*
X-3018212Y27540708D01*
X-3113500Y27521754D01*
X-3208788Y27540708D01*
X-3289570Y27594684D01*
X-3343546Y27675466D01*
X-3351778Y27698473D01*
X-3362367Y27733379D01*
X-3430535Y27860914D01*
X-3808872Y27482576D01*
X-3824755Y27541853D01*
X-3891898Y27658147D01*
X-3986853Y27753102D01*
X-4103147Y27820245D01*
X-4162427Y27836129D01*
X-3784089Y28214467D01*
X-3793876Y28280447D01*
X-3789109Y28377485D01*
X-3747571Y28465312D01*
X-3675584Y28530558D01*
X-3584108Y28563289D01*
X-3548134Y28565983D01*
X-3114058Y28566963D01*
X-3018731Y28548225D01*
G37*
%TD.AperFunction*%
%TD*%
%TA.AperFunction,Conductor*%
%TO.N,/BATT_A*%
G36*
X-2818231Y63300147D02*
G01*
X-2737328Y63246353D01*
X-2683170Y63165694D01*
X-2664001Y63070449D01*
X-2664000Y63069887D01*
X-2664000Y57721485D01*
X-2682954Y57626197D01*
X-2736930Y57545415D01*
X-2817712Y57491439D01*
X-2913000Y57472485D01*
X-2916018Y57472503D01*
X-3528947Y57479933D01*
X-3623999Y57500041D01*
X-3704120Y57554993D01*
X-3757113Y57636422D01*
X-3762184Y57663630D01*
X-4162426Y58063872D01*
X-4103147Y58079755D01*
X-3986853Y58146898D01*
X-3891898Y58241853D01*
X-3824755Y58358147D01*
X-3808872Y58417426D01*
X-3430535Y58039088D01*
X-3362367Y58166622D01*
X-3304615Y58357005D01*
X-3285114Y58555000D01*
X-3304615Y58752996D01*
X-3362367Y58943379D01*
X-3430535Y59070914D01*
X-3808872Y58692576D01*
X-3824755Y58751853D01*
X-3891898Y58868147D01*
X-3986853Y58963102D01*
X-4103147Y59030245D01*
X-4162427Y59046129D01*
X-3784089Y59424467D01*
X-3911622Y59492634D01*
X-3911625Y59492635D01*
X-4102005Y59550386D01*
X-4300000Y59569887D01*
X-4497994Y59550387D01*
X-4688384Y59492632D01*
X-4688389Y59492630D01*
X-4815913Y59424468D01*
X-4437574Y59046129D01*
X-4496853Y59030245D01*
X-4613147Y58963102D01*
X-4708102Y58868147D01*
X-4775245Y58751853D01*
X-4791129Y58692574D01*
X-5169468Y59070913D01*
X-5237630Y58943389D01*
X-5237632Y58943384D01*
X-5295387Y58752994D01*
X-5302199Y58683822D01*
X-5330402Y58590851D01*
X-5356896Y58558569D01*
X-5311722Y58474053D01*
X-5302199Y58426178D01*
X-5295387Y58357006D01*
X-5237635Y58166625D01*
X-5237634Y58166622D01*
X-5169467Y58039089D01*
X-4791129Y58417427D01*
X-4775245Y58358147D01*
X-4708102Y58241853D01*
X-4613147Y58146898D01*
X-4496853Y58079755D01*
X-4437575Y58063872D01*
X-4843325Y57658124D01*
X-4875488Y57590119D01*
X-4947476Y57524873D01*
X-5038951Y57492143D01*
X-5075487Y57489448D01*
X-6024514Y57489448D01*
X-6119802Y57508402D01*
X-6200584Y57562378D01*
X-6254560Y57643160D01*
X-6257750Y57659197D01*
X-6662426Y58063872D01*
X-6603147Y58079755D01*
X-6486853Y58146898D01*
X-6391898Y58241853D01*
X-6324755Y58358147D01*
X-6308872Y58417426D01*
X-5930535Y58039088D01*
X-5862367Y58166622D01*
X-5804614Y58357006D01*
X-5797801Y58426178D01*
X-5769598Y58519150D01*
X-5743105Y58551433D01*
X-5788278Y58635948D01*
X-5797801Y58683822D01*
X-5804615Y58752996D01*
X-5862367Y58943379D01*
X-5930535Y59070914D01*
X-6308872Y58692576D01*
X-6324755Y58751853D01*
X-6391898Y58868147D01*
X-6486853Y58963102D01*
X-6603147Y59030245D01*
X-6662427Y59046129D01*
X-6284089Y59424467D01*
X-6411622Y59492634D01*
X-6411625Y59492635D01*
X-6602005Y59550386D01*
X-6800000Y59569887D01*
X-6997994Y59550387D01*
X-7188384Y59492632D01*
X-7188389Y59492630D01*
X-7315913Y59424468D01*
X-6937574Y59046129D01*
X-6996853Y59030245D01*
X-7113147Y58963102D01*
X-7208102Y58868147D01*
X-7275245Y58751853D01*
X-7291129Y58692574D01*
X-7669468Y59070913D01*
X-7737630Y58943389D01*
X-7737632Y58943384D01*
X-7795387Y58752994D01*
X-7802199Y58683822D01*
X-7830402Y58590851D01*
X-7856896Y58558569D01*
X-7811722Y58474053D01*
X-7802199Y58426178D01*
X-7795387Y58357006D01*
X-7737635Y58166625D01*
X-7737634Y58166622D01*
X-7669467Y58039089D01*
X-7291129Y58417427D01*
X-7275245Y58358147D01*
X-7208102Y58241853D01*
X-7113147Y58146898D01*
X-6996853Y58079755D01*
X-6937575Y58063872D01*
X-7343325Y57658124D01*
X-7375488Y57590119D01*
X-7447476Y57524873D01*
X-7538951Y57492143D01*
X-7575487Y57489448D01*
X-8524514Y57489448D01*
X-8619802Y57508402D01*
X-8700584Y57562378D01*
X-8754560Y57643160D01*
X-8757750Y57659197D01*
X-9162426Y58063872D01*
X-9103147Y58079755D01*
X-8986853Y58146898D01*
X-8891898Y58241853D01*
X-8824755Y58358147D01*
X-8808872Y58417426D01*
X-8430535Y58039088D01*
X-8362367Y58166622D01*
X-8304614Y58357006D01*
X-8297801Y58426178D01*
X-8269598Y58519150D01*
X-8243105Y58551433D01*
X-8288278Y58635948D01*
X-8297801Y58683822D01*
X-8304615Y58752996D01*
X-8362367Y58943379D01*
X-8430535Y59070914D01*
X-8808872Y58692576D01*
X-8824755Y58751853D01*
X-8891898Y58868147D01*
X-8986853Y58963102D01*
X-9103147Y59030245D01*
X-9162427Y59046129D01*
X-8784089Y59424467D01*
X-8911622Y59492634D01*
X-8911625Y59492635D01*
X-9102005Y59550386D01*
X-9300000Y59569887D01*
X-9497994Y59550387D01*
X-9688384Y59492632D01*
X-9688389Y59492630D01*
X-9815913Y59424468D01*
X-9437574Y59046129D01*
X-9496853Y59030245D01*
X-9613147Y58963102D01*
X-9708102Y58868147D01*
X-9775245Y58751853D01*
X-9791129Y58692574D01*
X-10169468Y59070913D01*
X-10237630Y58943389D01*
X-10237632Y58943384D01*
X-10295387Y58752994D01*
X-10302199Y58683822D01*
X-10330402Y58590851D01*
X-10356896Y58558569D01*
X-10311722Y58474053D01*
X-10302199Y58426178D01*
X-10295387Y58357006D01*
X-10237635Y58166625D01*
X-10237634Y58166622D01*
X-10169467Y58039089D01*
X-9791129Y58417427D01*
X-9775245Y58358147D01*
X-9708102Y58241853D01*
X-9613147Y58146898D01*
X-9496853Y58079755D01*
X-9437575Y58063872D01*
X-9843325Y57658124D01*
X-9875488Y57590119D01*
X-9947476Y57524873D01*
X-10038951Y57492143D01*
X-10075487Y57489448D01*
X-11024514Y57489448D01*
X-11119802Y57508402D01*
X-11200584Y57562378D01*
X-11254560Y57643160D01*
X-11257750Y57659197D01*
X-11662426Y58063872D01*
X-11603147Y58079755D01*
X-11486853Y58146898D01*
X-11391898Y58241853D01*
X-11324755Y58358147D01*
X-11308872Y58417426D01*
X-10930535Y58039088D01*
X-10862367Y58166622D01*
X-10804614Y58357006D01*
X-10797801Y58426178D01*
X-10769598Y58519150D01*
X-10743105Y58551433D01*
X-10788278Y58635948D01*
X-10797801Y58683822D01*
X-10804615Y58752996D01*
X-10862367Y58943379D01*
X-10930535Y59070914D01*
X-11308872Y58692576D01*
X-11324755Y58751853D01*
X-11391898Y58868147D01*
X-11486853Y58963102D01*
X-11603147Y59030245D01*
X-11662427Y59046129D01*
X-11284089Y59424467D01*
X-11411622Y59492634D01*
X-11411625Y59492635D01*
X-11602005Y59550386D01*
X-11800000Y59569887D01*
X-11997994Y59550387D01*
X-12188384Y59492632D01*
X-12188389Y59492630D01*
X-12315913Y59424468D01*
X-11937574Y59046129D01*
X-11996853Y59030245D01*
X-12113147Y58963102D01*
X-12208102Y58868147D01*
X-12275245Y58751853D01*
X-12291129Y58692574D01*
X-12669468Y59070913D01*
X-12737630Y58943389D01*
X-12737632Y58943384D01*
X-12795387Y58752994D01*
X-12802199Y58683822D01*
X-12830402Y58590851D01*
X-12856896Y58558569D01*
X-12811722Y58474053D01*
X-12802199Y58426178D01*
X-12795387Y58357006D01*
X-12737635Y58166625D01*
X-12737634Y58166622D01*
X-12669467Y58039089D01*
X-12291129Y58417427D01*
X-12275245Y58358147D01*
X-12208102Y58241853D01*
X-12113147Y58146898D01*
X-11996853Y58079755D01*
X-11937575Y58063872D01*
X-12343325Y57658124D01*
X-12375488Y57590119D01*
X-12447476Y57524873D01*
X-12538951Y57492143D01*
X-12575487Y57489448D01*
X-13524514Y57489448D01*
X-13619802Y57508402D01*
X-13700584Y57562378D01*
X-13754560Y57643160D01*
X-13757750Y57659197D01*
X-14162426Y58063872D01*
X-14103147Y58079755D01*
X-13986853Y58146898D01*
X-13891898Y58241853D01*
X-13824755Y58358147D01*
X-13808872Y58417426D01*
X-13430535Y58039088D01*
X-13362367Y58166622D01*
X-13304614Y58357006D01*
X-13297801Y58426178D01*
X-13269598Y58519150D01*
X-13243105Y58551433D01*
X-13288278Y58635948D01*
X-13297801Y58683822D01*
X-13304615Y58752996D01*
X-13362367Y58943379D01*
X-13430535Y59070914D01*
X-13808872Y58692576D01*
X-13824755Y58751853D01*
X-13891898Y58868147D01*
X-13986853Y58963102D01*
X-14103147Y59030245D01*
X-14162427Y59046129D01*
X-13784089Y59424467D01*
X-13911622Y59492634D01*
X-13911625Y59492635D01*
X-14102005Y59550386D01*
X-14300000Y59569887D01*
X-14497994Y59550387D01*
X-14688384Y59492632D01*
X-14688389Y59492630D01*
X-14815913Y59424468D01*
X-14437574Y59046129D01*
X-14496853Y59030245D01*
X-14613147Y58963102D01*
X-14708102Y58868147D01*
X-14775245Y58751853D01*
X-14791129Y58692574D01*
X-15169468Y59070913D01*
X-15237630Y58943389D01*
X-15237632Y58943384D01*
X-15295387Y58752994D01*
X-15314887Y58555000D01*
X-15295386Y58357005D01*
X-15237635Y58166625D01*
X-15237634Y58166622D01*
X-15169467Y58039089D01*
X-14791129Y58417427D01*
X-14775245Y58358147D01*
X-14708102Y58241853D01*
X-14613147Y58146898D01*
X-14496853Y58079755D01*
X-14437575Y58063872D01*
X-14832580Y57668869D01*
X-14832585Y57668751D01*
X-14874124Y57580924D01*
X-14946111Y57515679D01*
X-15037587Y57482948D01*
X-15071105Y57480271D01*
X-15711982Y57472503D01*
X-15807493Y57490301D01*
X-15888923Y57543294D01*
X-15943874Y57623416D01*
X-15963982Y57718467D01*
X-15964000Y57721485D01*
X-15964000Y61555000D01*
X-15314887Y61555000D01*
X-15295386Y61357005D01*
X-15237635Y61166625D01*
X-15237634Y61166622D01*
X-15169467Y61039089D01*
X-14791129Y61417427D01*
X-14775245Y61358147D01*
X-14708102Y61241853D01*
X-14613147Y61146898D01*
X-14496853Y61079755D01*
X-14437575Y61063872D01*
X-14815914Y60685535D01*
X-14688379Y60617367D01*
X-14497996Y60559615D01*
X-14300000Y60540114D01*
X-14102005Y60559615D01*
X-13911622Y60617367D01*
X-13784088Y60685535D01*
X-14162426Y61063872D01*
X-14103147Y61079755D01*
X-13986853Y61146898D01*
X-13891898Y61241853D01*
X-13824755Y61358147D01*
X-13808872Y61417426D01*
X-13430535Y61039088D01*
X-13362367Y61166622D01*
X-13304614Y61357006D01*
X-13297801Y61426178D01*
X-13269598Y61519150D01*
X-13243105Y61551433D01*
X-13246919Y61558569D01*
X-12856896Y61558569D01*
X-12811722Y61474053D01*
X-12802199Y61426178D01*
X-12795387Y61357006D01*
X-12737635Y61166625D01*
X-12737634Y61166622D01*
X-12669467Y61039089D01*
X-12291129Y61417427D01*
X-12275245Y61358147D01*
X-12208102Y61241853D01*
X-12113147Y61146898D01*
X-11996853Y61079755D01*
X-11937575Y61063872D01*
X-12315914Y60685535D01*
X-12188379Y60617367D01*
X-11997996Y60559615D01*
X-11800000Y60540114D01*
X-11602005Y60559615D01*
X-11411622Y60617367D01*
X-11284088Y60685535D01*
X-11662426Y61063872D01*
X-11603147Y61079755D01*
X-11486853Y61146898D01*
X-11391898Y61241853D01*
X-11324755Y61358147D01*
X-11308872Y61417426D01*
X-10930535Y61039088D01*
X-10862367Y61166622D01*
X-10804614Y61357006D01*
X-10797801Y61426178D01*
X-10769598Y61519150D01*
X-10743105Y61551433D01*
X-10746919Y61558569D01*
X-10356896Y61558569D01*
X-10311722Y61474053D01*
X-10302199Y61426178D01*
X-10295387Y61357006D01*
X-10237635Y61166625D01*
X-10237634Y61166622D01*
X-10169467Y61039089D01*
X-9791129Y61417427D01*
X-9775245Y61358147D01*
X-9708102Y61241853D01*
X-9613147Y61146898D01*
X-9496853Y61079755D01*
X-9437575Y61063872D01*
X-9815914Y60685535D01*
X-9688379Y60617367D01*
X-9497996Y60559615D01*
X-9300000Y60540114D01*
X-9102005Y60559615D01*
X-8911622Y60617367D01*
X-8784088Y60685535D01*
X-9162426Y61063872D01*
X-9103147Y61079755D01*
X-8986853Y61146898D01*
X-8891898Y61241853D01*
X-8824755Y61358147D01*
X-8808872Y61417426D01*
X-8430535Y61039088D01*
X-8362367Y61166622D01*
X-8304614Y61357006D01*
X-8297801Y61426178D01*
X-8269598Y61519150D01*
X-8243105Y61551433D01*
X-8246919Y61558569D01*
X-7856896Y61558569D01*
X-7811722Y61474053D01*
X-7802199Y61426178D01*
X-7795387Y61357006D01*
X-7737635Y61166625D01*
X-7737634Y61166622D01*
X-7669467Y61039089D01*
X-7291129Y61417427D01*
X-7275245Y61358147D01*
X-7208102Y61241853D01*
X-7113147Y61146898D01*
X-6996853Y61079755D01*
X-6937575Y61063872D01*
X-7315914Y60685535D01*
X-7188379Y60617367D01*
X-6997996Y60559615D01*
X-6800000Y60540114D01*
X-6602005Y60559615D01*
X-6411622Y60617367D01*
X-6284088Y60685535D01*
X-6662426Y61063872D01*
X-6603147Y61079755D01*
X-6486853Y61146898D01*
X-6391898Y61241853D01*
X-6324755Y61358147D01*
X-6308872Y61417426D01*
X-5930535Y61039088D01*
X-5862367Y61166622D01*
X-5804614Y61357006D01*
X-5797801Y61426178D01*
X-5769598Y61519150D01*
X-5743105Y61551433D01*
X-5746919Y61558569D01*
X-5356896Y61558569D01*
X-5311722Y61474053D01*
X-5302199Y61426178D01*
X-5295387Y61357006D01*
X-5237635Y61166625D01*
X-5237634Y61166622D01*
X-5169467Y61039089D01*
X-4791129Y61417427D01*
X-4775245Y61358147D01*
X-4708102Y61241853D01*
X-4613147Y61146898D01*
X-4496853Y61079755D01*
X-4437575Y61063872D01*
X-4815914Y60685535D01*
X-4688379Y60617367D01*
X-4497996Y60559615D01*
X-4300000Y60540114D01*
X-4102005Y60559615D01*
X-3911622Y60617367D01*
X-3784088Y60685535D01*
X-4162426Y61063872D01*
X-4103147Y61079755D01*
X-3986853Y61146898D01*
X-3891898Y61241853D01*
X-3824755Y61358147D01*
X-3808872Y61417426D01*
X-3430535Y61039088D01*
X-3362367Y61166622D01*
X-3304615Y61357005D01*
X-3285114Y61555000D01*
X-3304615Y61752996D01*
X-3362367Y61943379D01*
X-3430535Y62070914D01*
X-3808872Y61692576D01*
X-3824755Y61751853D01*
X-3891898Y61868147D01*
X-3986853Y61963102D01*
X-4103147Y62030245D01*
X-4162427Y62046129D01*
X-3784089Y62424467D01*
X-3911622Y62492634D01*
X-3911625Y62492635D01*
X-4102005Y62550386D01*
X-4300000Y62569887D01*
X-4497994Y62550387D01*
X-4688384Y62492632D01*
X-4688389Y62492630D01*
X-4815913Y62424468D01*
X-4437574Y62046129D01*
X-4496853Y62030245D01*
X-4613147Y61963102D01*
X-4708102Y61868147D01*
X-4775245Y61751853D01*
X-4791129Y61692574D01*
X-5169468Y62070913D01*
X-5237630Y61943389D01*
X-5237632Y61943384D01*
X-5295387Y61752994D01*
X-5302199Y61683822D01*
X-5330402Y61590851D01*
X-5356896Y61558569D01*
X-5746919Y61558569D01*
X-5788278Y61635948D01*
X-5797801Y61683822D01*
X-5804615Y61752996D01*
X-5862367Y61943379D01*
X-5930535Y62070914D01*
X-6308872Y61692576D01*
X-6324755Y61751853D01*
X-6391898Y61868147D01*
X-6486853Y61963102D01*
X-6603147Y62030245D01*
X-6662427Y62046129D01*
X-6284089Y62424467D01*
X-6411622Y62492634D01*
X-6411625Y62492635D01*
X-6602005Y62550386D01*
X-6800000Y62569887D01*
X-6997994Y62550387D01*
X-7188384Y62492632D01*
X-7188389Y62492630D01*
X-7315913Y62424468D01*
X-6937574Y62046129D01*
X-6996853Y62030245D01*
X-7113147Y61963102D01*
X-7208102Y61868147D01*
X-7275245Y61751853D01*
X-7291129Y61692574D01*
X-7669468Y62070913D01*
X-7737630Y61943389D01*
X-7737632Y61943384D01*
X-7795387Y61752994D01*
X-7802199Y61683822D01*
X-7830402Y61590851D01*
X-7856896Y61558569D01*
X-8246919Y61558569D01*
X-8288278Y61635948D01*
X-8297801Y61683822D01*
X-8304615Y61752996D01*
X-8362367Y61943379D01*
X-8430535Y62070914D01*
X-8808872Y61692576D01*
X-8824755Y61751853D01*
X-8891898Y61868147D01*
X-8986853Y61963102D01*
X-9103147Y62030245D01*
X-9162427Y62046129D01*
X-8784089Y62424467D01*
X-8911622Y62492634D01*
X-8911625Y62492635D01*
X-9102005Y62550386D01*
X-9300000Y62569887D01*
X-9497994Y62550387D01*
X-9688384Y62492632D01*
X-9688389Y62492630D01*
X-9815913Y62424468D01*
X-9437574Y62046129D01*
X-9496853Y62030245D01*
X-9613147Y61963102D01*
X-9708102Y61868147D01*
X-9775245Y61751853D01*
X-9791129Y61692574D01*
X-10169468Y62070913D01*
X-10237630Y61943389D01*
X-10237632Y61943384D01*
X-10295387Y61752994D01*
X-10302199Y61683822D01*
X-10330402Y61590851D01*
X-10356896Y61558569D01*
X-10746919Y61558569D01*
X-10788278Y61635948D01*
X-10797801Y61683822D01*
X-10804615Y61752996D01*
X-10862367Y61943379D01*
X-10930535Y62070914D01*
X-11308872Y61692576D01*
X-11324755Y61751853D01*
X-11391898Y61868147D01*
X-11486853Y61963102D01*
X-11603147Y62030245D01*
X-11662427Y62046129D01*
X-11284089Y62424467D01*
X-11411622Y62492634D01*
X-11411625Y62492635D01*
X-11602005Y62550386D01*
X-11800000Y62569887D01*
X-11997994Y62550387D01*
X-12188384Y62492632D01*
X-12188389Y62492630D01*
X-12315913Y62424468D01*
X-11937574Y62046129D01*
X-11996853Y62030245D01*
X-12113147Y61963102D01*
X-12208102Y61868147D01*
X-12275245Y61751853D01*
X-12291129Y61692574D01*
X-12669468Y62070913D01*
X-12737630Y61943389D01*
X-12737632Y61943384D01*
X-12795387Y61752994D01*
X-12802199Y61683822D01*
X-12830402Y61590851D01*
X-12856896Y61558569D01*
X-13246919Y61558569D01*
X-13288278Y61635948D01*
X-13297801Y61683822D01*
X-13304615Y61752996D01*
X-13362367Y61943379D01*
X-13430535Y62070914D01*
X-13808872Y61692576D01*
X-13824755Y61751853D01*
X-13891898Y61868147D01*
X-13986853Y61963102D01*
X-14103147Y62030245D01*
X-14162427Y62046129D01*
X-13784089Y62424467D01*
X-13911622Y62492634D01*
X-13911625Y62492635D01*
X-14102005Y62550386D01*
X-14300000Y62569887D01*
X-14497994Y62550387D01*
X-14688384Y62492632D01*
X-14688389Y62492630D01*
X-14815913Y62424468D01*
X-14437574Y62046129D01*
X-14496853Y62030245D01*
X-14613147Y61963102D01*
X-14708102Y61868147D01*
X-14775245Y61751853D01*
X-14791129Y61692574D01*
X-15169468Y62070913D01*
X-15237630Y61943389D01*
X-15237632Y61943384D01*
X-15295387Y61752994D01*
X-15314887Y61555000D01*
X-15964000Y61555000D01*
X-15964000Y63041010D01*
X-15945046Y63136298D01*
X-15891070Y63217080D01*
X-15810288Y63271056D01*
X-15715566Y63290009D01*
X-2913558Y63318886D01*
X-2818231Y63300147D01*
G37*
%TD.AperFunction*%
%TD*%
M02*
