M48
; DRILL file {KiCad 7.0.8-7.0.8~ubuntu23.04.1} date Tue Nov  7 19:11:24 2023
; FORMAT={3:3/ absolute / metric / suppress leading zeros}
; #@! TF.CreationDate,2023-11-07T19:11:24+00:00
; #@! TF.GenerationSoftware,Kicad,Pcbnew,7.0.8-7.0.8~ubuntu23.04.1
; #@! TF.FileFunction,Plated,1,2,PTH
FMAT,2
METRIC,TZ
; #@! TA.AperFunction,Plated,PTH,ViaDrill
T1C0.400
; #@! TA.AperFunction,Plated,PTH,ComponentDrill
T2C0.750
; #@! TA.AperFunction,Plated,PTH,ComponentDrill
T3C1.000
; #@! TA.AperFunction,Plated,PTH,ComponentDrill
T4C1.020
; #@! TA.AperFunction,Plated,PTH,ComponentDrill
T5C3.000
%
G90
G05
T1
X-19814Y68155
X-18450Y64625
X-4914Y11805
T2
X-12300Y48485
X-12300Y46485
X-12300Y44485
X-12300Y42485
X-12300Y40485
X-12300Y38485
X-10300Y48485
X-10300Y46485
X-10300Y44485
X-10300Y42485
X-10300Y40485
X-10300Y38485
X-8300Y48485
X-8300Y46485
X-8300Y44485
X-8300Y42485
X-8300Y40485
X-8300Y38485
X-6300Y48485
X-6300Y46485
X-6300Y44485
X-6300Y42485
X-6300Y40485
X-6300Y38485
X-4300Y48485
X-4300Y46485
X-4300Y44485
X-4300Y42485
X-4300Y40485
X-4300Y38485
T3
X-22360Y60725
X-22360Y58185
X-22360Y55645
X-22360Y53105
X-22360Y50565
X-22360Y48025
X-22360Y45485
X-22360Y42945
X-22360Y40405
X-22360Y37865
X-22360Y35325
X-22360Y32785
X-22360Y30245
X-22360Y27705
X-22360Y25165
X-19820Y60725
X-19820Y58185
X-19820Y55645
X-19820Y53105
X-19820Y50565
X-19820Y48025
X-19820Y45485
X-19820Y42945
X-19820Y40405
X-19820Y37865
X-19820Y35325
X-19820Y32785
X-19820Y30245
X-19820Y27705
X-19820Y25165
T4
X-14300Y61555
X-14300Y58555
X-14300Y56055
X-14300Y53055
X-14300Y32845
X-14300Y29845
X-14300Y27345
X-14300Y24345
X-11800Y61555
X-11800Y58555
X-11800Y56055
X-11800Y53055
X-11800Y32845
X-11800Y29845
X-11800Y27345
X-11800Y24345
X-9300Y61555
X-9300Y58555
X-9300Y56055
X-9300Y53055
X-9300Y32845
X-9300Y29845
X-9300Y27345
X-9300Y24345
X-6800Y61555
X-6800Y58555
X-6800Y56055
X-6800Y53055
X-6800Y32845
X-6800Y29845
X-6800Y27345
X-6800Y24345
X-4300Y61555
X-4300Y58555
X-4300Y56055
X-4300Y53055
X-4300Y32845
X-4300Y29845
X-4300Y27345
X-4300Y24345
T5
X-19820Y73368
X-19820Y12408
T0
M30
