%TF.GenerationSoftware,KiCad,Pcbnew,7.0.8-7.0.8~ubuntu23.04.1*%
%TF.CreationDate,2023-11-07T17:31:57+00:00*%
%TF.ProjectId,BATDATSOCKET01,42415444-4154-4534-9f43-4b455430312e,rev?*%
%TF.SameCoordinates,Original*%
%TF.FileFunction,Soldermask,Bot*%
%TF.FilePolarity,Negative*%
%FSLAX46Y46*%
G04 Gerber Fmt 4.6, Leading zero omitted, Abs format (unit mm)*
G04 Created by KiCad (PCBNEW 7.0.8-7.0.8~ubuntu23.04.1) date 2023-11-07 17:31:57*
%MOMM*%
%LPD*%
G01*
G04 APERTURE LIST*
%ADD10C,3.000000*%
%ADD11C,3.200000*%
%ADD12C,1.300000*%
%ADD13C,1.620000*%
%ADD14C,6.000000*%
%ADD15R,1.700000X1.700000*%
%ADD16O,1.700000X1.700000*%
G04 APERTURE END LIST*
D10*
%TO.C,H2*%
X-9660000Y83527500D03*
%TD*%
D11*
%TO.C,J1*%
X-9300000Y18845000D03*
X-9300000Y67055000D03*
D12*
X-4300000Y38485000D03*
X-4300000Y40485000D03*
X-4300000Y42485000D03*
X-4300000Y44485000D03*
X-4300000Y46485000D03*
X-4300000Y48485000D03*
X-6300000Y38485000D03*
X-6300000Y40485000D03*
X-6300000Y42485000D03*
X-6300000Y44485000D03*
X-6300000Y46485000D03*
X-6300000Y48485000D03*
X-8300000Y38485000D03*
X-8300000Y40485000D03*
X-8300000Y42485000D03*
X-8300000Y44485000D03*
X-8300000Y46485000D03*
X-8300000Y48485000D03*
X-10300000Y38485000D03*
X-10300000Y40485000D03*
X-10300000Y42485000D03*
X-10300000Y44485000D03*
X-10300000Y46485000D03*
X-10300000Y48485000D03*
X-12300000Y38485000D03*
X-12300000Y40485000D03*
X-12300000Y42485000D03*
X-12300000Y44485000D03*
X-12300000Y46485000D03*
X-12300000Y48485000D03*
D13*
X-14300000Y24345000D03*
X-11800000Y24345000D03*
X-9300000Y24345000D03*
X-6800000Y24345000D03*
X-4300000Y24345000D03*
X-14300000Y27345000D03*
X-11800000Y27345000D03*
X-9300000Y27345000D03*
X-6800000Y27345000D03*
X-4300000Y27345000D03*
X-14300000Y29845000D03*
X-11800000Y29845000D03*
X-9300000Y29845000D03*
X-6800000Y29845000D03*
X-4300000Y29845000D03*
X-14300000Y32845000D03*
X-11800000Y32845000D03*
X-9300000Y32845000D03*
X-6800000Y32845000D03*
X-4300000Y32845000D03*
X-14300000Y53055000D03*
X-11800000Y53055000D03*
X-9300000Y53055000D03*
X-6800000Y53055000D03*
X-4300000Y53055000D03*
X-14300000Y56055000D03*
X-11800000Y56055000D03*
X-9300000Y56055000D03*
X-6800000Y56055000D03*
X-4300000Y56055000D03*
X-14300000Y58555000D03*
X-11800000Y58555000D03*
X-9300000Y58555000D03*
X-6800000Y58555000D03*
X-4300000Y58555000D03*
X-14300000Y61555000D03*
X-11800000Y61555000D03*
X-9300000Y61555000D03*
X-6800000Y61555000D03*
X-4300000Y61555000D03*
%TD*%
D14*
%TO.C,H3*%
X-19820000Y73367500D03*
%TD*%
D10*
%TO.C,H1*%
X-9660000Y2247500D03*
%TD*%
D14*
%TO.C,H4*%
X-19820000Y12407500D03*
%TD*%
D15*
%TO.C,J2*%
X-19820000Y60725000D03*
D16*
X-22360000Y60725000D03*
X-19820000Y58185000D03*
X-22360000Y58185000D03*
X-19820000Y55645000D03*
X-22360000Y55645000D03*
X-19820000Y53105000D03*
X-22360000Y53105000D03*
X-19820000Y50565000D03*
X-22360000Y50565000D03*
X-19820000Y48025000D03*
X-22360000Y48025000D03*
X-19820000Y45485000D03*
X-22360000Y45485000D03*
X-19820000Y42945000D03*
X-22360000Y42945000D03*
X-19820000Y40405000D03*
X-22360000Y40405000D03*
X-19820000Y37865000D03*
X-22360000Y37865000D03*
X-19820000Y35325000D03*
X-22360000Y35325000D03*
X-19820000Y32785000D03*
X-22360000Y32785000D03*
X-19820000Y30245000D03*
X-22360000Y30245000D03*
X-19820000Y27705000D03*
X-22360000Y27705000D03*
X-19820000Y25165000D03*
X-22360000Y25165000D03*
%TD*%
M02*
