%TF.GenerationSoftware,KiCad,Pcbnew,7.0.8-7.0.8~ubuntu23.04.1*%
%TF.CreationDate,2023-11-07T19:11:24+00:00*%
%TF.ProjectId,BATDATSOCKET01,42415444-4154-4534-9f43-4b455430312e,rev?*%
%TF.SameCoordinates,Original*%
%TF.FileFunction,Copper,L2,Bot*%
%TF.FilePolarity,Positive*%
%FSLAX46Y46*%
G04 Gerber Fmt 4.6, Leading zero omitted, Abs format (unit mm)*
G04 Created by KiCad (PCBNEW 7.0.8-7.0.8~ubuntu23.04.1) date 2023-11-07 19:11:24*
%MOMM*%
%LPD*%
G01*
G04 APERTURE LIST*
%TA.AperFunction,ComponentPad*%
%ADD10C,1.300000*%
%TD*%
%TA.AperFunction,ComponentPad*%
%ADD11C,1.620000*%
%TD*%
%TA.AperFunction,ComponentPad*%
%ADD12C,6.000000*%
%TD*%
%TA.AperFunction,ComponentPad*%
%ADD13R,1.700000X1.700000*%
%TD*%
%TA.AperFunction,ComponentPad*%
%ADD14O,1.700000X1.700000*%
%TD*%
%TA.AperFunction,ViaPad*%
%ADD15C,0.800000*%
%TD*%
%TA.AperFunction,Conductor*%
%ADD16C,0.400000*%
%TD*%
%TA.AperFunction,Conductor*%
%ADD17C,0.500000*%
%TD*%
%TA.AperFunction,Conductor*%
%ADD18C,0.300000*%
%TD*%
G04 APERTURE END LIST*
D10*
%TO.P,J1,A1*%
%TO.N,unconnected-(J1-PadA1)*%
X-4300000Y38485000D03*
%TO.P,J1,A2*%
%TO.N,GND*%
X-4300000Y40485000D03*
%TO.P,J1,A3*%
%TO.N,/3v3*%
X-4300000Y42485000D03*
%TO.P,J1,A4*%
%TO.N,/5v*%
X-4300000Y44485000D03*
%TO.P,J1,A5*%
%TO.N,GND*%
X-4300000Y46485000D03*
%TO.P,J1,A6*%
%TO.N,unconnected-(J1-PadA6)*%
X-4300000Y48485000D03*
%TO.P,J1,B1*%
%TO.N,unconnected-(J1-PadB1)*%
X-6300000Y38485000D03*
%TO.P,J1,B2*%
%TO.N,GND*%
X-6300000Y40485000D03*
%TO.P,J1,B3*%
%TO.N,/3v3*%
X-6300000Y42485000D03*
%TO.P,J1,B4*%
%TO.N,/5v*%
X-6300000Y44485000D03*
%TO.P,J1,B5*%
%TO.N,GND*%
X-6300000Y46485000D03*
%TO.P,J1,B6*%
%TO.N,unconnected-(J1-PadB6)*%
X-6300000Y48485000D03*
%TO.P,J1,C1*%
%TO.N,/SCL*%
X-8300000Y38485000D03*
%TO.P,J1,C2*%
%TO.N,/SDA*%
X-8300000Y40485000D03*
%TO.P,J1,C3*%
%TO.N,unconnected-(J1-PadC3)*%
X-8300000Y42485000D03*
%TO.P,J1,C4*%
%TO.N,unconnected-(J1-PadC4)*%
X-8300000Y44485000D03*
%TO.P,J1,C5*%
%TO.N,unconnected-(J1-PadC5)*%
X-8300000Y46485000D03*
%TO.P,J1,C6*%
%TO.N,unconnected-(J1-PadC6)*%
X-8300000Y48485000D03*
%TO.P,J1,D1*%
%TO.N,/SCLK*%
X-10300000Y38485000D03*
%TO.P,J1,D2*%
%TO.N,/MISO*%
X-10300000Y40485000D03*
%TO.P,J1,D3*%
%TO.N,/MOSI*%
X-10300000Y42485000D03*
%TO.P,J1,D4*%
%TO.N,/A0*%
X-10300000Y44485000D03*
%TO.P,J1,D5*%
%TO.N,/A1*%
X-10300000Y46485000D03*
%TO.P,J1,D6*%
%TO.N,/connection_detector*%
X-10300000Y48485000D03*
%TO.P,J1,E1*%
%TO.N,/C0*%
X-12300000Y38485000D03*
%TO.P,J1,E2*%
%TO.N,/C1*%
X-12300000Y40485000D03*
%TO.P,J1,E3*%
%TO.N,/TX*%
X-12300000Y42485000D03*
%TO.P,J1,E4*%
%TO.N,/RX*%
X-12300000Y44485000D03*
%TO.P,J1,E5*%
%TO.N,/B0*%
X-12300000Y46485000D03*
%TO.P,J1,E6*%
%TO.N,/B1*%
X-12300000Y48485000D03*
D11*
%TO.P,J1,P1*%
%TO.N,/BATT_B*%
X-14300000Y24345000D03*
X-11800000Y24345000D03*
X-9300000Y24345000D03*
X-6800000Y24345000D03*
X-4300000Y24345000D03*
X-14300000Y27345000D03*
X-11800000Y27345000D03*
X-9300000Y27345000D03*
X-6800000Y27345000D03*
X-4300000Y27345000D03*
%TO.P,J1,P2*%
%TO.N,GND*%
X-14300000Y29845000D03*
X-11800000Y29845000D03*
X-9300000Y29845000D03*
X-6800000Y29845000D03*
X-4300000Y29845000D03*
X-14300000Y32845000D03*
X-11800000Y32845000D03*
X-9300000Y32845000D03*
X-6800000Y32845000D03*
X-4300000Y32845000D03*
%TO.P,J1,P3*%
X-14300000Y53055000D03*
X-11800000Y53055000D03*
X-9300000Y53055000D03*
X-6800000Y53055000D03*
X-4300000Y53055000D03*
X-14300000Y56055000D03*
X-11800000Y56055000D03*
X-9300000Y56055000D03*
X-6800000Y56055000D03*
X-4300000Y56055000D03*
%TO.P,J1,P4*%
%TO.N,/BATT_A*%
X-14300000Y58555000D03*
X-11800000Y58555000D03*
X-9300000Y58555000D03*
X-6800000Y58555000D03*
X-4300000Y58555000D03*
X-14300000Y61555000D03*
X-11800000Y61555000D03*
X-9300000Y61555000D03*
X-6800000Y61555000D03*
X-4300000Y61555000D03*
%TD*%
D12*
%TO.P,H3,1,1*%
%TO.N,GND*%
X-19820000Y73367500D03*
%TD*%
%TO.P,H4,1,1*%
%TO.N,GND*%
X-19820000Y12407500D03*
%TD*%
D13*
%TO.P,J2,1*%
%TO.N,GND*%
X-19820000Y60725000D03*
D14*
%TO.P,J2,2*%
X-22360000Y60725000D03*
%TO.P,J2,3*%
%TO.N,/5v*%
X-19820000Y58185000D03*
%TO.P,J2,4*%
X-22360000Y58185000D03*
%TO.P,J2,5*%
%TO.N,/3v3*%
X-19820000Y55645000D03*
%TO.P,J2,6*%
X-22360000Y55645000D03*
%TO.P,J2,7*%
%TO.N,/connection_detector*%
X-19820000Y53105000D03*
%TO.P,J2,8*%
%TO.N,GND*%
X-22360000Y53105000D03*
%TO.P,J2,9*%
%TO.N,unconnected-(J2-Pad9)*%
X-19820000Y50565000D03*
%TO.P,J2,10*%
%TO.N,/A0*%
X-22360000Y50565000D03*
%TO.P,J2,11*%
%TO.N,/RX*%
X-19820000Y48025000D03*
%TO.P,J2,12*%
%TO.N,/A1*%
X-22360000Y48025000D03*
%TO.P,J2,13*%
%TO.N,/TX*%
X-19820000Y45485000D03*
%TO.P,J2,14*%
%TO.N,/B1*%
X-22360000Y45485000D03*
%TO.P,J2,15*%
%TO.N,/MOSI*%
X-19820000Y42945000D03*
%TO.P,J2,16*%
%TO.N,/B0*%
X-22360000Y42945000D03*
%TO.P,J2,17*%
%TO.N,/MISO*%
X-19820000Y40405000D03*
%TO.P,J2,18*%
%TO.N,/C1*%
X-22360000Y40405000D03*
%TO.P,J2,19*%
%TO.N,/SCLK*%
X-19820000Y37865000D03*
%TO.P,J2,20*%
%TO.N,/C0*%
X-22360000Y37865000D03*
%TO.P,J2,21*%
%TO.N,GND*%
X-19820000Y35325000D03*
%TO.P,J2,22*%
X-22360000Y35325000D03*
%TO.P,J2,23*%
%TO.N,/SCL*%
X-19820000Y32785000D03*
%TO.P,J2,24*%
X-22360000Y32785000D03*
%TO.P,J2,25*%
%TO.N,/I2C_PWR*%
X-19820000Y30245000D03*
%TO.P,J2,26*%
X-22360000Y30245000D03*
%TO.P,J2,27*%
%TO.N,/SDA*%
X-19820000Y27705000D03*
%TO.P,J2,28*%
X-22360000Y27705000D03*
%TO.P,J2,29*%
%TO.N,GND*%
X-19820000Y25165000D03*
%TO.P,J2,30*%
X-22360000Y25165000D03*
%TD*%
D15*
%TO.N,/5v*%
X-18450000Y64625000D03*
X-4914000Y11805000D03*
%TO.N,/connection_detector*%
X-19814000Y68155000D03*
%TD*%
D16*
%TO.N,GND*%
X-6314000Y40635000D02*
X-3004000Y40635000D01*
X-6314000Y46635000D02*
X-3104000Y46635000D01*
D17*
%TO.N,/5v*%
X-14714000Y50625000D02*
X-17714000Y53625000D01*
X-6314000Y44635000D02*
X-3254000Y44635000D01*
X-17714000Y53625000D02*
X-17714000Y58160000D01*
X-2414000Y45475000D02*
X-2414000Y49825000D01*
X-2114000Y44355000D02*
X-2114000Y13255000D01*
X-17714000Y63889000D02*
X-17714000Y58160000D01*
X-21670000Y58160000D02*
X-19130000Y58160000D01*
X-18450000Y64625000D02*
X-17714000Y63889000D01*
X-2114000Y13255000D02*
X-3514000Y11855000D01*
X-2414000Y49825000D02*
X-3214000Y50625000D01*
X-4864000Y11855000D02*
X-4914000Y11805000D01*
X-3254000Y44635000D02*
X-2824000Y45065000D01*
X-3214000Y50625000D02*
X-14714000Y50625000D01*
X-3514000Y11855000D02*
X-4864000Y11855000D01*
X-2824000Y45065000D02*
X-2414000Y45475000D01*
X-2824000Y45065000D02*
X-2114000Y44355000D01*
X-17714000Y58160000D02*
X-19130000Y58160000D01*
D18*
%TO.N,/SCL*%
X-9289000Y36650000D02*
X-14289000Y36650000D01*
X-8314000Y38635000D02*
X-8314000Y37625000D01*
X-14289000Y36650000D02*
X-18179000Y32760000D01*
X-18179000Y32760000D02*
X-19130000Y32760000D01*
X-8314000Y37625000D02*
X-9289000Y36650000D01*
%TO.N,/SDA*%
X-16014000Y33425000D02*
X-14364000Y35075000D01*
D17*
X-19845000Y27680000D02*
X-19820000Y27705000D01*
D18*
X-19820000Y27705000D02*
X-16014000Y31511000D01*
X-9664000Y35075000D02*
X-7300000Y37439000D01*
X-14364000Y35075000D02*
X-9664000Y35075000D01*
D17*
X-21670000Y27680000D02*
X-19845000Y27680000D01*
D18*
X-7300000Y37439000D02*
X-7300000Y39621000D01*
X-16014000Y31511000D02*
X-16014000Y33425000D01*
X-7300000Y39621000D02*
X-8314000Y40635000D01*
%TO.N,/A1*%
X-18006893Y49275000D02*
X-21110000Y49275000D01*
X-14212154Y45480261D02*
X-18006893Y49275000D01*
X-21110000Y49275000D02*
X-22360000Y48025000D01*
X-10314000Y46635000D02*
X-11468739Y45480261D01*
X-11468739Y45480261D02*
X-14212154Y45480261D01*
%TO.N,/connection_detector*%
X-22614000Y68155000D02*
X-19814000Y68155000D01*
X-15914000Y49555000D02*
X-11370000Y49555000D01*
X-19464000Y53105000D02*
X-15914000Y49555000D01*
X-19820000Y53105000D02*
X-19464000Y53105000D01*
X-23814000Y54855000D02*
X-23814000Y66955000D01*
X-23314000Y54355000D02*
X-23814000Y54855000D01*
X-21070000Y54355000D02*
X-23314000Y54355000D01*
X-23814000Y66955000D02*
X-22614000Y68155000D01*
X-11370000Y49555000D02*
X-10300000Y48485000D01*
X-19820000Y53105000D02*
X-21070000Y54355000D01*
%TO.N,/C1*%
X-16237238Y36644656D02*
X-20344656Y36644656D01*
X-12314000Y40567894D02*
X-16237238Y36644656D01*
X-21125000Y39170000D02*
X-22360000Y40405000D01*
X-20344656Y36644656D02*
X-21125000Y37425000D01*
X-21125000Y37425000D02*
X-21125000Y39170000D01*
X-12314000Y40635000D02*
X-12314000Y40567894D01*
%TO.N,/TX*%
X-13974000Y42635000D02*
X-16799000Y45460000D01*
X-12314000Y42635000D02*
X-13974000Y42635000D01*
X-16799000Y45460000D02*
X-19130000Y45460000D01*
%TO.N,/RX*%
X-13914000Y44475000D02*
X-17439000Y48000000D01*
X-12314000Y44635000D02*
X-12474000Y44475000D01*
X-12474000Y44475000D02*
X-13914000Y44475000D01*
X-17439000Y48000000D02*
X-19130000Y48000000D01*
%TD*%
%TA.AperFunction,Conductor*%
%TO.N,GND*%
G36*
X-2564500Y29083444D02*
G01*
X-2584185Y29016405D01*
X-2636989Y28970650D01*
X-2706147Y28960706D01*
X-2751529Y28976658D01*
X-2785437Y28996672D01*
X-2921235Y29044234D01*
X-3016550Y29062970D01*
X-3016559Y29062971D01*
X-3115204Y29072463D01*
X-3244473Y29072171D01*
X-3284032Y29083691D01*
X-2564500Y29524694D01*
X-2564500Y29083444D01*
G37*
%TD.AperFunction*%
%TA.AperFunction,Conductor*%
G36*
X-1437870Y85800129D02*
G01*
X-1370852Y85780375D01*
X-1325152Y85727523D01*
X-1314000Y85676129D01*
X-1314000Y129500D01*
X-1333685Y62461D01*
X-1386489Y16706D01*
X-1438000Y5500D01*
X-19110998Y5500D01*
X-24789887Y23211D01*
X-24856864Y43104D01*
X-24902454Y96051D01*
X-24913500Y147210D01*
X-24913500Y2116313D01*
X-11410500Y2116313D01*
X-11390206Y1981677D01*
X-11371396Y1856885D01*
X-11371395Y1856883D01*
X-11371394Y1856877D01*
X-11294062Y1606174D01*
X-11180233Y1369804D01*
X-11180232Y1369803D01*
X-11180230Y1369800D01*
X-11180228Y1369796D01*
X-11032433Y1153021D01*
X-10853986Y960699D01*
X-10853982Y960696D01*
X-10853981Y960695D01*
X-10648857Y797114D01*
X-10421643Y665932D01*
X-10177416Y570080D01*
X-9921630Y511698D01*
X-9921624Y511698D01*
X-9921621Y511697D01*
X-9725500Y497000D01*
X-9725494Y497000D01*
X-9594500Y497000D01*
X-9398380Y511697D01*
X-9398378Y511698D01*
X-9398370Y511698D01*
X-9142584Y570080D01*
X-8898357Y665932D01*
X-8671143Y797114D01*
X-8466019Y960695D01*
X-8287567Y1153021D01*
X-8139772Y1369796D01*
X-8025937Y1606177D01*
X-7948604Y1856885D01*
X-7909500Y2116318D01*
X-7909500Y2378682D01*
X-7948604Y2638115D01*
X-8025937Y2888823D01*
X-8037879Y2913620D01*
X-8139768Y3125197D01*
X-8139769Y3125198D01*
X-8139770Y3125199D01*
X-8139772Y3125204D01*
X-8287567Y3341979D01*
X-8297559Y3352747D01*
X-8466015Y3534302D01*
X-8505467Y3565764D01*
X-8671143Y3697886D01*
X-8898357Y3829068D01*
X-9142584Y3924920D01*
X-9142589Y3924922D01*
X-9142598Y3924924D01*
X-9360182Y3974586D01*
X-9398370Y3983302D01*
X-9398371Y3983303D01*
X-9398375Y3983303D01*
X-9398380Y3983304D01*
X-9594500Y3998000D01*
X-9594506Y3998000D01*
X-9725494Y3998000D01*
X-9725500Y3998000D01*
X-9921621Y3983304D01*
X-9921626Y3983303D01*
X-10177403Y3924924D01*
X-10177422Y3924918D01*
X-10421644Y3829068D01*
X-10648857Y3697886D01*
X-10853986Y3534302D01*
X-11032433Y3341980D01*
X-11180232Y3125198D01*
X-11180233Y3125197D01*
X-11294062Y2888827D01*
X-11371394Y2638124D01*
X-11371395Y2638119D01*
X-11371396Y2638115D01*
X-11386147Y2540253D01*
X-11410500Y2378688D01*
X-11410500Y2116313D01*
X-24913500Y2116313D01*
X-24913500Y18777237D01*
X-11154213Y18777237D01*
X-11124587Y18507987D01*
X-11124585Y18507976D01*
X-11056074Y18245918D01*
X-11056072Y18245912D01*
X-10950130Y17996610D01*
X-10878002Y17878425D01*
X-10809021Y17765395D01*
X-10809014Y17765385D01*
X-10635747Y17557181D01*
X-10635741Y17557176D01*
X-10434002Y17376418D01*
X-10208090Y17226956D01*
X-9962824Y17111980D01*
X-9962817Y17111978D01*
X-9962815Y17111977D01*
X-9703443Y17033943D01*
X-9703436Y17033942D01*
X-9703431Y17033940D01*
X-9435439Y16994500D01*
X-9435434Y16994500D01*
X-9232364Y16994500D01*
X-9180867Y16998270D01*
X-9029844Y17009323D01*
X-8917242Y17034407D01*
X-8765454Y17068218D01*
X-8765452Y17068219D01*
X-8765447Y17068220D01*
X-8512442Y17164986D01*
X-8276223Y17297559D01*
X-8061823Y17463112D01*
X-7873814Y17658119D01*
X-7716201Y17878421D01*
X-7642213Y18022331D01*
X-7592351Y18119310D01*
X-7592349Y18119316D01*
X-7592344Y18119325D01*
X-7504882Y18375695D01*
X-7455681Y18642067D01*
X-7445788Y18912765D01*
X-7475414Y19182018D01*
X-7543928Y19444088D01*
X-7649870Y19693390D01*
X-7790982Y19924610D01*
X-7880253Y20031881D01*
X-7964254Y20132820D01*
X-7964260Y20132825D01*
X-8165998Y20313582D01*
X-8391908Y20463043D01*
X-8391910Y20463044D01*
X-8637176Y20578020D01*
X-8637181Y20578022D01*
X-8637186Y20578024D01*
X-8896558Y20656058D01*
X-8896572Y20656061D01*
X-9012209Y20673079D01*
X-9164561Y20695500D01*
X-9367631Y20695500D01*
X-9367636Y20695500D01*
X-9570156Y20680677D01*
X-9570169Y20680675D01*
X-9834547Y20621783D01*
X-9834554Y20621780D01*
X-10087561Y20525013D01*
X-10323774Y20392443D01*
X-10538178Y20226888D01*
X-10726178Y20031891D01*
X-10726184Y20031884D01*
X-10883798Y19811581D01*
X-10883801Y19811576D01*
X-11007650Y19570691D01*
X-11007657Y19570673D01*
X-11095116Y19314315D01*
X-11095119Y19314301D01*
X-11144319Y19047932D01*
X-11144320Y19047925D01*
X-11154213Y18777237D01*
X-24913500Y18777237D01*
X-24913500Y25415001D01*
X-23484513Y25415001D01*
X-23484512Y25415000D01*
X-22793686Y25415000D01*
X-22819493Y25374844D01*
X-22860000Y25236889D01*
X-22860000Y25093111D01*
X-22819493Y24955156D01*
X-22793686Y24915000D01*
X-23484512Y24915000D01*
X-23436938Y24747795D01*
X-23436933Y24747782D01*
X-23341939Y24557009D01*
X-23213500Y24386929D01*
X-23056000Y24243349D01*
X-23055998Y24243347D01*
X-22874799Y24131154D01*
X-22874793Y24131151D01*
X-22676059Y24054162D01*
X-22610000Y24041814D01*
X-22610000Y24729499D01*
X-22502315Y24680320D01*
X-22395763Y24665000D01*
X-22324237Y24665000D01*
X-22217685Y24680320D01*
X-22110000Y24729499D01*
X-22110000Y24041815D01*
X-22043942Y24054162D01*
X-21845208Y24131151D01*
X-21845202Y24131154D01*
X-21664003Y24243347D01*
X-21664001Y24243349D01*
X-21506501Y24386929D01*
X-21378062Y24557009D01*
X-21283068Y24747782D01*
X-21283063Y24747795D01*
X-21235488Y24915000D01*
X-21926314Y24915000D01*
X-21900507Y24955156D01*
X-21860000Y25093111D01*
X-21860000Y25236889D01*
X-21900507Y25374844D01*
X-21926314Y25415000D01*
X-21235488Y25415000D01*
X-21235488Y25415001D01*
X-20944513Y25415001D01*
X-20944512Y25415000D01*
X-20253686Y25415000D01*
X-20279493Y25374844D01*
X-20320000Y25236889D01*
X-20320000Y25093111D01*
X-20279493Y24955156D01*
X-20253686Y24915000D01*
X-20944512Y24915000D01*
X-20896938Y24747795D01*
X-20896933Y24747782D01*
X-20801939Y24557009D01*
X-20673500Y24386929D01*
X-20516000Y24243349D01*
X-20515998Y24243347D01*
X-20334799Y24131154D01*
X-20334793Y24131151D01*
X-20136059Y24054162D01*
X-20070000Y24041814D01*
X-20070000Y24729499D01*
X-19962315Y24680320D01*
X-19855763Y24665000D01*
X-19784237Y24665000D01*
X-19677685Y24680320D01*
X-19570000Y24729499D01*
X-19570000Y24041815D01*
X-19503942Y24054162D01*
X-19305208Y24131151D01*
X-19305202Y24131154D01*
X-19124003Y24243347D01*
X-19124001Y24243349D01*
X-18966501Y24386929D01*
X-18838062Y24557009D01*
X-18743068Y24747782D01*
X-18743063Y24747795D01*
X-18695488Y24915000D01*
X-19386314Y24915000D01*
X-19360507Y24955156D01*
X-19320000Y25093111D01*
X-19320000Y25236889D01*
X-19360507Y25374844D01*
X-19386314Y25415000D01*
X-18695488Y25415000D01*
X-18695488Y25415001D01*
X-18743063Y25582206D01*
X-18743068Y25582219D01*
X-18838062Y25772992D01*
X-18966501Y25943072D01*
X-19124001Y26086652D01*
X-19124003Y26086654D01*
X-19305202Y26198847D01*
X-19305211Y26198851D01*
X-19503937Y26275837D01*
X-19503942Y26275838D01*
X-19570000Y26288187D01*
X-19570000Y25600502D01*
X-19677685Y25649680D01*
X-19784237Y25665000D01*
X-19855763Y25665000D01*
X-19962315Y25649680D01*
X-20070000Y25600502D01*
X-20070000Y26288187D01*
X-20136059Y26275838D01*
X-20136064Y26275837D01*
X-20334790Y26198851D01*
X-20334799Y26198847D01*
X-20515998Y26086654D01*
X-20516000Y26086652D01*
X-20673500Y25943072D01*
X-20801939Y25772992D01*
X-20896933Y25582219D01*
X-20896938Y25582206D01*
X-20944513Y25415001D01*
X-21235488Y25415001D01*
X-21283063Y25582206D01*
X-21283068Y25582219D01*
X-21378062Y25772992D01*
X-21506501Y25943072D01*
X-21664001Y26086652D01*
X-21664003Y26086654D01*
X-21845202Y26198847D01*
X-21845211Y26198851D01*
X-22043937Y26275837D01*
X-22043942Y26275838D01*
X-22110000Y26288187D01*
X-22110000Y25600502D01*
X-22217685Y25649680D01*
X-22324237Y25665000D01*
X-22395763Y25665000D01*
X-22502315Y25649680D01*
X-22610000Y25600502D01*
X-22610000Y26288187D01*
X-22676059Y26275838D01*
X-22676064Y26275837D01*
X-22874790Y26198851D01*
X-22874799Y26198847D01*
X-23055998Y26086654D01*
X-23056000Y26086652D01*
X-23213500Y25943072D01*
X-23341939Y25772992D01*
X-23436933Y25582219D01*
X-23436938Y25582206D01*
X-23484513Y25415001D01*
X-24913500Y25415001D01*
X-24913500Y30245000D01*
X-23415583Y30245000D01*
X-23395301Y30039068D01*
X-23395300Y30039066D01*
X-23335232Y29841046D01*
X-23237685Y29658550D01*
X-23203031Y29616323D01*
X-23106411Y29498590D01*
X-23037831Y29442309D01*
X-22946450Y29367315D01*
X-22763954Y29269768D01*
X-22565934Y29209700D01*
X-22565935Y29209700D01*
X-22547598Y29207894D01*
X-22360000Y29189417D01*
X-22154066Y29209700D01*
X-21956046Y29269768D01*
X-21773550Y29367315D01*
X-21613590Y29498590D01*
X-21482315Y29658550D01*
X-21384768Y29841046D01*
X-21324700Y30039066D01*
X-21304417Y30245000D01*
X-20875583Y30245000D01*
X-20855301Y30039068D01*
X-20855300Y30039066D01*
X-20795232Y29841046D01*
X-20697685Y29658550D01*
X-20663031Y29616323D01*
X-20566411Y29498590D01*
X-20497831Y29442309D01*
X-20406450Y29367315D01*
X-20223954Y29269768D01*
X-20025934Y29209700D01*
X-20025935Y29209700D01*
X-20007598Y29207894D01*
X-19820000Y29189417D01*
X-19614066Y29209700D01*
X-19416046Y29269768D01*
X-19233550Y29367315D01*
X-19073590Y29498590D01*
X-18942315Y29658550D01*
X-18844768Y29841046D01*
X-18784700Y30039066D01*
X-18764417Y30245000D01*
X-18784700Y30450934D01*
X-18844768Y30648954D01*
X-18942315Y30831450D01*
X-19043709Y30955000D01*
X-19073590Y30991411D01*
X-19233548Y31122683D01*
X-19233547Y31122683D01*
X-19233550Y31122685D01*
X-19416046Y31220232D01*
X-19614066Y31280300D01*
X-19614068Y31280301D01*
X-19614066Y31280301D01*
X-19820000Y31300583D01*
X-20025933Y31280301D01*
X-20223957Y31220231D01*
X-20334102Y31161357D01*
X-20406450Y31122685D01*
X-20406452Y31122684D01*
X-20406453Y31122683D01*
X-20566411Y30991411D01*
X-20697683Y30831453D01*
X-20795231Y30648957D01*
X-20855301Y30450933D01*
X-20875583Y30245000D01*
X-21304417Y30245000D01*
X-21324700Y30450934D01*
X-21384768Y30648954D01*
X-21482315Y30831450D01*
X-21583709Y30955000D01*
X-21613590Y30991411D01*
X-21773548Y31122683D01*
X-21773547Y31122683D01*
X-21773550Y31122685D01*
X-21956046Y31220232D01*
X-22154066Y31280300D01*
X-22154068Y31280301D01*
X-22154066Y31280301D01*
X-22360000Y31300583D01*
X-22565933Y31280301D01*
X-22763957Y31220231D01*
X-22874102Y31161357D01*
X-22946450Y31122685D01*
X-22946452Y31122684D01*
X-22946453Y31122683D01*
X-23106411Y30991411D01*
X-23237683Y30831453D01*
X-23335231Y30648957D01*
X-23395301Y30450933D01*
X-23415583Y30245000D01*
X-24913500Y30245000D01*
X-24913500Y32785000D01*
X-23415583Y32785000D01*
X-23395301Y32579068D01*
X-23373617Y32507587D01*
X-23335232Y32381046D01*
X-23237685Y32198550D01*
X-23237683Y32198548D01*
X-23106411Y32038590D01*
X-23009791Y31959298D01*
X-22946450Y31907315D01*
X-22763954Y31809768D01*
X-22565934Y31749700D01*
X-22565935Y31749700D01*
X-22547471Y31747882D01*
X-22360000Y31729417D01*
X-22154066Y31749700D01*
X-21956046Y31809768D01*
X-21773550Y31907315D01*
X-21613590Y32038590D01*
X-21482315Y32198550D01*
X-21384768Y32381046D01*
X-21324700Y32579066D01*
X-21304417Y32785000D01*
X-21324700Y32990934D01*
X-21384768Y33188954D01*
X-21482315Y33371450D01*
X-21562334Y33468954D01*
X-21613590Y33531411D01*
X-21760903Y33652306D01*
X-21773550Y33662685D01*
X-21956046Y33760232D01*
X-22154066Y33820300D01*
X-22154068Y33820301D01*
X-22154066Y33820301D01*
X-22360000Y33840583D01*
X-22565933Y33820301D01*
X-22763957Y33760231D01*
X-22862348Y33707639D01*
X-22946450Y33662685D01*
X-22946452Y33662684D01*
X-22946453Y33662683D01*
X-23106411Y33531411D01*
X-23237683Y33371453D01*
X-23237685Y33371450D01*
X-23267251Y33316137D01*
X-23335231Y33188957D01*
X-23395301Y32990933D01*
X-23415583Y32785000D01*
X-24913500Y32785000D01*
X-24913500Y35575001D01*
X-23484513Y35575001D01*
X-23484512Y35575000D01*
X-22793686Y35575000D01*
X-22819493Y35534844D01*
X-22860000Y35396889D01*
X-22860000Y35253111D01*
X-22819493Y35115156D01*
X-22793686Y35075000D01*
X-23484512Y35075000D01*
X-23436938Y34907795D01*
X-23436933Y34907782D01*
X-23341939Y34717009D01*
X-23213500Y34546929D01*
X-23056000Y34403349D01*
X-23055998Y34403347D01*
X-22874799Y34291154D01*
X-22874793Y34291151D01*
X-22676059Y34214162D01*
X-22610000Y34201814D01*
X-22610000Y34889499D01*
X-22502315Y34840320D01*
X-22395763Y34825000D01*
X-22324237Y34825000D01*
X-22217685Y34840320D01*
X-22110000Y34889499D01*
X-22110000Y34201815D01*
X-22043942Y34214162D01*
X-21845208Y34291151D01*
X-21845202Y34291154D01*
X-21664003Y34403347D01*
X-21664001Y34403349D01*
X-21506501Y34546929D01*
X-21378062Y34717009D01*
X-21283068Y34907782D01*
X-21283063Y34907795D01*
X-21235488Y35075000D01*
X-21926314Y35075000D01*
X-21900507Y35115156D01*
X-21860000Y35253111D01*
X-21860000Y35396889D01*
X-21900507Y35534844D01*
X-21926314Y35575000D01*
X-21235488Y35575000D01*
X-21235488Y35575001D01*
X-21283063Y35742206D01*
X-21283068Y35742219D01*
X-21378062Y35932992D01*
X-21506501Y36103072D01*
X-21664001Y36246652D01*
X-21664003Y36246654D01*
X-21845202Y36358847D01*
X-21845211Y36358851D01*
X-22043937Y36435837D01*
X-22043942Y36435838D01*
X-22110000Y36448187D01*
X-22110000Y35760502D01*
X-22217685Y35809680D01*
X-22324237Y35825000D01*
X-22395763Y35825000D01*
X-22502315Y35809680D01*
X-22610000Y35760502D01*
X-22610000Y36448187D01*
X-22676059Y36435838D01*
X-22676064Y36435837D01*
X-22874790Y36358851D01*
X-22874799Y36358847D01*
X-23055998Y36246654D01*
X-23056000Y36246652D01*
X-23213500Y36103072D01*
X-23341939Y35932992D01*
X-23436933Y35742219D01*
X-23436938Y35742206D01*
X-23484513Y35575001D01*
X-24913500Y35575001D01*
X-24913500Y37865000D01*
X-23415583Y37865000D01*
X-23395301Y37659068D01*
X-23371633Y37581046D01*
X-23337625Y37468934D01*
X-23335231Y37461044D01*
X-23330075Y37451398D01*
X-23237685Y37278550D01*
X-23236325Y37276893D01*
X-23106411Y37118590D01*
X-23044333Y37067645D01*
X-22946450Y36987315D01*
X-22763954Y36889768D01*
X-22565934Y36829700D01*
X-22565935Y36829700D01*
X-22547471Y36827882D01*
X-22360000Y36809417D01*
X-22154066Y36829700D01*
X-21956046Y36889768D01*
X-21773550Y36987315D01*
X-21613590Y37118590D01*
X-21566059Y37176508D01*
X-21508317Y37215841D01*
X-21438472Y37217712D01*
X-21386225Y37189073D01*
X-21367726Y37172043D01*
X-20627294Y36431612D01*
X-20611170Y36411757D01*
X-20606093Y36403987D01*
X-20580148Y36383794D01*
X-20574396Y36378714D01*
X-20571963Y36376281D01*
X-20571962Y36376280D01*
X-20569293Y36373611D01*
X-20535808Y36312288D01*
X-20540792Y36242596D01*
X-20573435Y36194294D01*
X-20673499Y36103072D01*
X-20801939Y35932992D01*
X-20896933Y35742219D01*
X-20896938Y35742206D01*
X-20944513Y35575001D01*
X-20944512Y35575000D01*
X-20253686Y35575000D01*
X-20279493Y35534844D01*
X-20320000Y35396889D01*
X-20320000Y35253111D01*
X-20279493Y35115156D01*
X-20253686Y35075000D01*
X-20944512Y35075000D01*
X-20896938Y34907795D01*
X-20896933Y34907782D01*
X-20801939Y34717009D01*
X-20673500Y34546929D01*
X-20516000Y34403349D01*
X-20515998Y34403347D01*
X-20334799Y34291154D01*
X-20334793Y34291151D01*
X-20136059Y34214162D01*
X-20070000Y34201814D01*
X-20070000Y34889499D01*
X-19962315Y34840320D01*
X-19855763Y34825000D01*
X-19784237Y34825000D01*
X-19677685Y34840320D01*
X-19570000Y34889499D01*
X-19570000Y34201815D01*
X-19503942Y34214162D01*
X-19305208Y34291151D01*
X-19305202Y34291154D01*
X-19124003Y34403347D01*
X-19124001Y34403349D01*
X-18966501Y34546929D01*
X-18838062Y34717009D01*
X-18743068Y34907782D01*
X-18743063Y34907795D01*
X-18695488Y35075000D01*
X-19386314Y35075000D01*
X-19360507Y35115156D01*
X-19320000Y35253111D01*
X-19320000Y35396889D01*
X-19360507Y35534844D01*
X-19386314Y35575000D01*
X-18695488Y35575000D01*
X-18695488Y35575001D01*
X-18743063Y35742206D01*
X-18743068Y35742219D01*
X-18838062Y35932992D01*
X-18960730Y36095429D01*
X-18985422Y36160790D01*
X-18970857Y36229125D01*
X-18921660Y36278737D01*
X-18861776Y36294156D01*
X-16286449Y36294156D01*
X-16261004Y36291518D01*
X-16251923Y36289613D01*
X-16236233Y36291569D01*
X-16219299Y36293679D01*
X-16211623Y36294156D01*
X-16208203Y36294156D01*
X-16208198Y36294156D01*
X-16203392Y36294958D01*
X-16186699Y36297743D01*
X-16159280Y36301162D01*
X-16135845Y36304083D01*
X-16135836Y36304088D01*
X-16128787Y36306186D01*
X-16121861Y36308564D01*
X-16121857Y36308564D01*
X-16076794Y36332952D01*
X-16030754Y36355458D01*
X-16030751Y36355462D01*
X-16024785Y36359721D01*
X-16018984Y36364237D01*
X-16018980Y36364238D01*
X-15984281Y36401932D01*
X-13901217Y38484997D01*
X-13105565Y38484997D01*
X-13085370Y38305751D01*
X-13085369Y38305746D01*
X-13025789Y38135477D01*
X-12985233Y38070933D01*
X-12929816Y37982738D01*
X-12802262Y37855184D01*
X-12713828Y37799617D01*
X-12672577Y37773697D01*
X-12649522Y37759211D01*
X-12479255Y37699632D01*
X-12479250Y37699631D01*
X-12300004Y37679435D01*
X-12300000Y37679435D01*
X-12299996Y37679435D01*
X-12120751Y37699631D01*
X-12120748Y37699632D01*
X-12120745Y37699632D01*
X-11950478Y37759211D01*
X-11797738Y37855184D01*
X-11670184Y37982738D01*
X-11574211Y38135478D01*
X-11514632Y38305745D01*
X-11514407Y38307741D01*
X-11494435Y38484997D01*
X-11105565Y38484997D01*
X-11085370Y38305751D01*
X-11085369Y38305746D01*
X-11025789Y38135477D01*
X-10985233Y38070933D01*
X-10929816Y37982738D01*
X-10802262Y37855184D01*
X-10713828Y37799617D01*
X-10672577Y37773697D01*
X-10649522Y37759211D01*
X-10479255Y37699632D01*
X-10479250Y37699631D01*
X-10300004Y37679435D01*
X-10300000Y37679435D01*
X-10299996Y37679435D01*
X-10120751Y37699631D01*
X-10120748Y37699632D01*
X-10120745Y37699632D01*
X-9950478Y37759211D01*
X-9797738Y37855184D01*
X-9670184Y37982738D01*
X-9574211Y38135478D01*
X-9514632Y38305745D01*
X-9514407Y38307741D01*
X-9494435Y38484997D01*
X-9494435Y38485004D01*
X-9514631Y38664250D01*
X-9514632Y38664255D01*
X-9574212Y38834524D01*
X-9670185Y38987263D01*
X-9797738Y39114816D01*
X-9950477Y39210789D01*
X-10120746Y39270369D01*
X-10120751Y39270370D01*
X-10299996Y39290565D01*
X-10300004Y39290565D01*
X-10479250Y39270370D01*
X-10479255Y39270369D01*
X-10649524Y39210789D01*
X-10802263Y39114816D01*
X-10929816Y38987263D01*
X-11025789Y38834524D01*
X-11085369Y38664255D01*
X-11085370Y38664250D01*
X-11105565Y38485004D01*
X-11105565Y38484997D01*
X-11494435Y38484997D01*
X-11494435Y38485004D01*
X-11514631Y38664250D01*
X-11514632Y38664255D01*
X-11574212Y38834524D01*
X-11670185Y38987263D01*
X-11797738Y39114816D01*
X-11950477Y39210789D01*
X-12120746Y39270369D01*
X-12120751Y39270370D01*
X-12299996Y39290565D01*
X-12300004Y39290565D01*
X-12479250Y39270370D01*
X-12479255Y39270369D01*
X-12649524Y39210789D01*
X-12802263Y39114816D01*
X-12929816Y38987263D01*
X-13025789Y38834524D01*
X-13085369Y38664255D01*
X-13085370Y38664250D01*
X-13105565Y38485004D01*
X-13105565Y38484997D01*
X-13901217Y38484997D01*
X-12687931Y39698283D01*
X-12626610Y39731766D01*
X-12559300Y39727642D01*
X-12479255Y39699632D01*
X-12479251Y39699632D01*
X-12479249Y39699631D01*
X-12479252Y39699631D01*
X-12300004Y39679435D01*
X-12300000Y39679435D01*
X-12299996Y39679435D01*
X-12120751Y39699631D01*
X-12120748Y39699632D01*
X-12120745Y39699632D01*
X-11950478Y39759211D01*
X-11797738Y39855184D01*
X-11670184Y39982738D01*
X-11574211Y40135478D01*
X-11514632Y40305745D01*
X-11514631Y40305751D01*
X-11494435Y40484997D01*
X-11105565Y40484997D01*
X-11085370Y40305751D01*
X-11085369Y40305746D01*
X-11025789Y40135477D01*
X-10929816Y39982738D01*
X-10802262Y39855184D01*
X-10649522Y39759211D01*
X-10559300Y39727641D01*
X-10479255Y39699632D01*
X-10479250Y39699631D01*
X-10300004Y39679435D01*
X-10300000Y39679435D01*
X-10299996Y39679435D01*
X-10120751Y39699631D01*
X-10120748Y39699632D01*
X-10120745Y39699632D01*
X-9950478Y39759211D01*
X-9797738Y39855184D01*
X-9670184Y39982738D01*
X-9574211Y40135478D01*
X-9514632Y40305745D01*
X-9514631Y40305751D01*
X-9494435Y40484997D01*
X-9494435Y40485004D01*
X-9514631Y40664250D01*
X-9514632Y40664255D01*
X-9550013Y40765369D01*
X-9574211Y40834522D01*
X-9580535Y40844586D01*
X-9670185Y40987263D01*
X-9797738Y41114816D01*
X-9950477Y41210789D01*
X-10120746Y41270369D01*
X-10120751Y41270370D01*
X-10299996Y41290565D01*
X-10300004Y41290565D01*
X-10479250Y41270370D01*
X-10479255Y41270369D01*
X-10649524Y41210789D01*
X-10802263Y41114816D01*
X-10929816Y40987263D01*
X-11025789Y40834524D01*
X-11085369Y40664255D01*
X-11085370Y40664250D01*
X-11105565Y40485004D01*
X-11105565Y40484997D01*
X-11494435Y40484997D01*
X-11494435Y40485004D01*
X-11514631Y40664250D01*
X-11514632Y40664255D01*
X-11550013Y40765369D01*
X-11574211Y40834522D01*
X-11580535Y40844586D01*
X-11670185Y40987263D01*
X-11797738Y41114816D01*
X-11950477Y41210789D01*
X-12120746Y41270369D01*
X-12120751Y41270370D01*
X-12299996Y41290565D01*
X-12300004Y41290565D01*
X-12479250Y41270370D01*
X-12479255Y41270369D01*
X-12649524Y41210789D01*
X-12802263Y41114816D01*
X-12929816Y40987263D01*
X-13025789Y40834524D01*
X-13085369Y40664255D01*
X-13085370Y40664250D01*
X-13105565Y40485004D01*
X-13105565Y40484997D01*
X-13090684Y40352919D01*
X-13102739Y40284097D01*
X-13126223Y40251355D01*
X-16346101Y37031475D01*
X-16407424Y36997990D01*
X-16433782Y36995156D01*
X-18912714Y36995156D01*
X-18979753Y37014841D01*
X-19025508Y37067645D01*
X-19035452Y37136803D01*
X-19008567Y37197821D01*
X-18949438Y37269871D01*
X-18942315Y37278550D01*
X-18844768Y37461046D01*
X-18784700Y37659066D01*
X-18764417Y37865000D01*
X-18784700Y38070934D01*
X-18844768Y38268954D01*
X-18942315Y38451450D01*
X-18994298Y38514791D01*
X-19073590Y38611411D01*
X-19233548Y38742683D01*
X-19233547Y38742683D01*
X-19233550Y38742685D01*
X-19416046Y38840232D01*
X-19614066Y38900300D01*
X-19614068Y38900301D01*
X-19614066Y38900301D01*
X-19820000Y38920583D01*
X-20025933Y38900301D01*
X-20223957Y38840231D01*
X-20334102Y38781357D01*
X-20406450Y38742685D01*
X-20406452Y38742684D01*
X-20406453Y38742683D01*
X-20571120Y38607545D01*
X-20572778Y38609565D01*
X-20624142Y38581517D01*
X-20693834Y38586501D01*
X-20749767Y38628373D01*
X-20774184Y38693837D01*
X-20774500Y38702683D01*
X-20774500Y39120789D01*
X-20771861Y39146236D01*
X-20769957Y39155315D01*
X-20772987Y39179623D01*
X-20774023Y39187939D01*
X-20774500Y39195615D01*
X-20774500Y39199040D01*
X-20778088Y39220542D01*
X-20778879Y39226881D01*
X-20784427Y39271393D01*
X-20784429Y39271397D01*
X-20786498Y39278347D01*
X-20786530Y39278441D01*
X-20786554Y39278522D01*
X-20788908Y39285378D01*
X-20788908Y39285381D01*
X-20813298Y39330450D01*
X-20835802Y39376483D01*
X-20835803Y39376484D01*
X-20835803Y39376485D01*
X-20840074Y39382466D01*
X-20844583Y39388259D01*
X-20882288Y39422970D01*
X-21349809Y39890490D01*
X-21383294Y39951813D01*
X-21380790Y40014163D01*
X-21324700Y40199066D01*
X-21304417Y40405000D01*
X-20875583Y40405000D01*
X-20855301Y40199068D01*
X-20831224Y40119698D01*
X-20795232Y40001046D01*
X-20697685Y39818550D01*
X-20697683Y39818548D01*
X-20566411Y39658590D01*
X-20502711Y39606314D01*
X-20406450Y39527315D01*
X-20223954Y39429768D01*
X-20025934Y39369700D01*
X-20025935Y39369700D01*
X-20007471Y39367882D01*
X-19820000Y39349417D01*
X-19614066Y39369700D01*
X-19416046Y39429768D01*
X-19233550Y39527315D01*
X-19073590Y39658590D01*
X-18942315Y39818550D01*
X-18844768Y40001046D01*
X-18784700Y40199066D01*
X-18764417Y40405000D01*
X-18784700Y40610934D01*
X-18844768Y40808954D01*
X-18942315Y40991450D01*
X-19043558Y41114816D01*
X-19073590Y41151411D01*
X-19233548Y41282683D01*
X-19233547Y41282683D01*
X-19233550Y41282685D01*
X-19416046Y41380232D01*
X-19614066Y41440300D01*
X-19614068Y41440301D01*
X-19614066Y41440301D01*
X-19820000Y41460583D01*
X-20025933Y41440301D01*
X-20223957Y41380231D01*
X-20334102Y41321357D01*
X-20406450Y41282685D01*
X-20406452Y41282684D01*
X-20406453Y41282683D01*
X-20566411Y41151411D01*
X-20697683Y40991453D01*
X-20697685Y40991450D01*
X-20736357Y40919102D01*
X-20795231Y40808957D01*
X-20855301Y40610933D01*
X-20875583Y40405000D01*
X-21304417Y40405000D01*
X-21324700Y40610934D01*
X-21384768Y40808954D01*
X-21482315Y40991450D01*
X-21583558Y41114816D01*
X-21613590Y41151411D01*
X-21773548Y41282683D01*
X-21773547Y41282683D01*
X-21773550Y41282685D01*
X-21956046Y41380232D01*
X-22154066Y41440300D01*
X-22154068Y41440301D01*
X-22154066Y41440301D01*
X-22360000Y41460583D01*
X-22565933Y41440301D01*
X-22763957Y41380231D01*
X-22874102Y41321357D01*
X-22946450Y41282685D01*
X-22946452Y41282684D01*
X-22946453Y41282683D01*
X-23106411Y41151411D01*
X-23237683Y40991453D01*
X-23237685Y40991450D01*
X-23276357Y40919102D01*
X-23335231Y40808957D01*
X-23395301Y40610933D01*
X-23415583Y40405000D01*
X-23395301Y40199068D01*
X-23371224Y40119698D01*
X-23335232Y40001046D01*
X-23237685Y39818550D01*
X-23237683Y39818548D01*
X-23106411Y39658590D01*
X-23042711Y39606314D01*
X-22946450Y39527315D01*
X-22763954Y39429768D01*
X-22565934Y39369700D01*
X-22565935Y39369700D01*
X-22547471Y39367882D01*
X-22360000Y39349417D01*
X-22154066Y39369700D01*
X-21969164Y39425790D01*
X-21899299Y39426412D01*
X-21845490Y39394809D01*
X-21511819Y39061138D01*
X-21478334Y38999815D01*
X-21475500Y38973457D01*
X-21475500Y38760259D01*
X-21495185Y38693220D01*
X-21547989Y38647465D01*
X-21617147Y38637521D01*
X-21678164Y38664405D01*
X-21773548Y38742683D01*
X-21773547Y38742683D01*
X-21773550Y38742685D01*
X-21956046Y38840232D01*
X-22154066Y38900300D01*
X-22154068Y38900301D01*
X-22154066Y38900301D01*
X-22360000Y38920583D01*
X-22565933Y38900301D01*
X-22763957Y38840231D01*
X-22874102Y38781357D01*
X-22946450Y38742685D01*
X-22946452Y38742684D01*
X-22946453Y38742683D01*
X-23106411Y38611411D01*
X-23237683Y38451453D01*
X-23237685Y38451450D01*
X-23276357Y38379102D01*
X-23335231Y38268957D01*
X-23395301Y38070933D01*
X-23415583Y37865000D01*
X-24913500Y37865000D01*
X-24913500Y42945000D01*
X-23415583Y42945000D01*
X-23395301Y42739068D01*
X-23395300Y42739066D01*
X-23335232Y42541046D01*
X-23237685Y42358550D01*
X-23237683Y42358548D01*
X-23106411Y42198590D01*
X-23029506Y42135477D01*
X-22946450Y42067315D01*
X-22763954Y41969768D01*
X-22565934Y41909700D01*
X-22565935Y41909700D01*
X-22547471Y41907882D01*
X-22360000Y41889417D01*
X-22154066Y41909700D01*
X-21956046Y41969768D01*
X-21773550Y42067315D01*
X-21613590Y42198590D01*
X-21482315Y42358550D01*
X-21384768Y42541046D01*
X-21324700Y42739066D01*
X-21304417Y42945000D01*
X-20875583Y42945000D01*
X-20855301Y42739068D01*
X-20855300Y42739066D01*
X-20795232Y42541046D01*
X-20697685Y42358550D01*
X-20697683Y42358548D01*
X-20566411Y42198590D01*
X-20489506Y42135477D01*
X-20406450Y42067315D01*
X-20223954Y41969768D01*
X-20025934Y41909700D01*
X-20025935Y41909700D01*
X-20007471Y41907882D01*
X-19820000Y41889417D01*
X-19614066Y41909700D01*
X-19416046Y41969768D01*
X-19233550Y42067315D01*
X-19073590Y42198590D01*
X-18942315Y42358550D01*
X-18844768Y42541046D01*
X-18784700Y42739066D01*
X-18764417Y42945000D01*
X-18784700Y43150934D01*
X-18844768Y43348954D01*
X-18942315Y43531450D01*
X-19063762Y43679435D01*
X-19073590Y43691411D01*
X-19233548Y43822683D01*
X-19233547Y43822683D01*
X-19233550Y43822685D01*
X-19416046Y43920232D01*
X-19614066Y43980300D01*
X-19614068Y43980301D01*
X-19614066Y43980301D01*
X-19820000Y44000583D01*
X-20025933Y43980301D01*
X-20223957Y43920231D01*
X-20334102Y43861357D01*
X-20406450Y43822685D01*
X-20406452Y43822684D01*
X-20406453Y43822683D01*
X-20566411Y43691411D01*
X-20697683Y43531453D01*
X-20795231Y43348957D01*
X-20855301Y43150933D01*
X-20875583Y42945000D01*
X-21304417Y42945000D01*
X-21324700Y43150934D01*
X-21384768Y43348954D01*
X-21482315Y43531450D01*
X-21603762Y43679435D01*
X-21613590Y43691411D01*
X-21773548Y43822683D01*
X-21773547Y43822683D01*
X-21773550Y43822685D01*
X-21956046Y43920232D01*
X-22154066Y43980300D01*
X-22154068Y43980301D01*
X-22154066Y43980301D01*
X-22360000Y44000583D01*
X-22565933Y43980301D01*
X-22763957Y43920231D01*
X-22874102Y43861357D01*
X-22946450Y43822685D01*
X-22946452Y43822684D01*
X-22946453Y43822683D01*
X-23106411Y43691411D01*
X-23237683Y43531453D01*
X-23335231Y43348957D01*
X-23395301Y43150933D01*
X-23415583Y42945000D01*
X-24913500Y42945000D01*
X-24913500Y45485000D01*
X-23415583Y45485000D01*
X-23395301Y45279068D01*
X-23375645Y45214272D01*
X-23335232Y45081046D01*
X-23237685Y44898550D01*
X-23237683Y44898548D01*
X-23106411Y44738590D01*
X-23073028Y44711194D01*
X-22946450Y44607315D01*
X-22763954Y44509768D01*
X-22565934Y44449700D01*
X-22565935Y44449700D01*
X-22547471Y44447882D01*
X-22360000Y44429417D01*
X-22154066Y44449700D01*
X-21956046Y44509768D01*
X-21773550Y44607315D01*
X-21613590Y44738590D01*
X-21482315Y44898550D01*
X-21384768Y45081046D01*
X-21324700Y45279066D01*
X-21304417Y45485000D01*
X-20875583Y45485000D01*
X-20855301Y45279068D01*
X-20835645Y45214272D01*
X-20795232Y45081046D01*
X-20697685Y44898550D01*
X-20697683Y44898548D01*
X-20566411Y44738590D01*
X-20533028Y44711194D01*
X-20406450Y44607315D01*
X-20223954Y44509768D01*
X-20025934Y44449700D01*
X-20025935Y44449700D01*
X-20007471Y44447882D01*
X-19820000Y44429417D01*
X-19614066Y44449700D01*
X-19416046Y44509768D01*
X-19233550Y44607315D01*
X-19073590Y44738590D01*
X-18942315Y44898550D01*
X-18864594Y45043954D01*
X-18815631Y45093798D01*
X-18755236Y45109500D01*
X-16995544Y45109500D01*
X-16928505Y45089815D01*
X-16907863Y45073181D01*
X-14256638Y42421956D01*
X-14240514Y42402101D01*
X-14235437Y42394331D01*
X-14209492Y42374138D01*
X-14203740Y42369058D01*
X-14201307Y42366625D01*
X-14183566Y42353959D01*
X-14143126Y42322483D01*
X-14143124Y42322483D01*
X-14136752Y42319034D01*
X-14136695Y42319006D01*
X-14136622Y42318967D01*
X-14130071Y42315765D01*
X-14130066Y42315761D01*
X-14080967Y42301144D01*
X-14032488Y42284500D01*
X-14032480Y42284500D01*
X-14025295Y42283301D01*
X-14025262Y42283296D01*
X-14025208Y42283287D01*
X-14017954Y42282383D01*
X-13966769Y42284500D01*
X-13165917Y42284500D01*
X-13098878Y42264815D01*
X-13053123Y42212011D01*
X-13048875Y42201454D01*
X-13025790Y42135479D01*
X-12929816Y41982738D01*
X-12802262Y41855184D01*
X-12649522Y41759211D01*
X-12479255Y41699632D01*
X-12479250Y41699631D01*
X-12300004Y41679435D01*
X-12300000Y41679435D01*
X-12299996Y41679435D01*
X-12120751Y41699631D01*
X-12120748Y41699632D01*
X-12120745Y41699632D01*
X-11950478Y41759211D01*
X-11797738Y41855184D01*
X-11670184Y41982738D01*
X-11574211Y42135478D01*
X-11514632Y42305745D01*
X-11513138Y42319006D01*
X-11494435Y42484997D01*
X-11105565Y42484997D01*
X-11085370Y42305751D01*
X-11085369Y42305746D01*
X-11025789Y42135477D01*
X-10929816Y41982738D01*
X-10802262Y41855184D01*
X-10649522Y41759211D01*
X-10479255Y41699632D01*
X-10479250Y41699631D01*
X-10300004Y41679435D01*
X-10300000Y41679435D01*
X-10299996Y41679435D01*
X-10120751Y41699631D01*
X-10120748Y41699632D01*
X-10120745Y41699632D01*
X-9950478Y41759211D01*
X-9797738Y41855184D01*
X-9670184Y41982738D01*
X-9574211Y42135478D01*
X-9514632Y42305745D01*
X-9513138Y42319006D01*
X-9494435Y42484997D01*
X-9105565Y42484997D01*
X-9085370Y42305751D01*
X-9085369Y42305746D01*
X-9025789Y42135477D01*
X-8929816Y41982738D01*
X-8802262Y41855184D01*
X-8649522Y41759211D01*
X-8479255Y41699632D01*
X-8479250Y41699631D01*
X-8300004Y41679435D01*
X-8300000Y41679435D01*
X-8299996Y41679435D01*
X-8120751Y41699631D01*
X-8120748Y41699632D01*
X-8120745Y41699632D01*
X-7950478Y41759211D01*
X-7797738Y41855184D01*
X-7670184Y41982738D01*
X-7574211Y42135478D01*
X-7514632Y42305745D01*
X-7513138Y42319006D01*
X-7494435Y42484997D01*
X-7105565Y42484997D01*
X-7085370Y42305751D01*
X-7085369Y42305746D01*
X-7025789Y42135477D01*
X-6929816Y41982738D01*
X-6802262Y41855184D01*
X-6649522Y41759211D01*
X-6479255Y41699632D01*
X-6479250Y41699631D01*
X-6380128Y41688464D01*
X-6331328Y41682965D01*
X-6300493Y41670009D01*
X-6277895Y41681573D01*
X-6268682Y41682964D01*
X-6205260Y41690110D01*
X-6120750Y41699631D01*
X-6120747Y41699632D01*
X-6120745Y41699632D01*
X-5950478Y41759211D01*
X-5797738Y41855184D01*
X-5670184Y41982738D01*
X-5574211Y42135478D01*
X-5514632Y42305745D01*
X-5513138Y42319006D01*
X-5494435Y42484997D01*
X-5105565Y42484997D01*
X-5085370Y42305751D01*
X-5085369Y42305746D01*
X-5025789Y42135477D01*
X-4929816Y41982738D01*
X-4802262Y41855184D01*
X-4649522Y41759211D01*
X-4479255Y41699632D01*
X-4479250Y41699631D01*
X-4380128Y41688464D01*
X-4331328Y41682965D01*
X-4300493Y41670009D01*
X-4277895Y41681573D01*
X-4268682Y41682964D01*
X-4205260Y41690110D01*
X-4120750Y41699631D01*
X-4120747Y41699632D01*
X-4120745Y41699632D01*
X-3950478Y41759211D01*
X-3797738Y41855184D01*
X-3670184Y41982738D01*
X-3574211Y42135478D01*
X-3514632Y42305745D01*
X-3513138Y42319006D01*
X-3494435Y42484997D01*
X-3494435Y42485004D01*
X-3514631Y42664250D01*
X-3514632Y42664255D01*
X-3574212Y42834524D01*
X-3670185Y42987263D01*
X-3797738Y43114816D01*
X-3950477Y43210789D01*
X-4120746Y43270369D01*
X-4120751Y43270370D01*
X-4299996Y43290565D01*
X-4300004Y43290565D01*
X-4479250Y43270370D01*
X-4479255Y43270369D01*
X-4649524Y43210789D01*
X-4802263Y43114816D01*
X-4929816Y42987263D01*
X-5025789Y42834524D01*
X-5085369Y42664255D01*
X-5085370Y42664250D01*
X-5105565Y42485004D01*
X-5105565Y42484997D01*
X-5494435Y42484997D01*
X-5494435Y42485004D01*
X-5514631Y42664250D01*
X-5514632Y42664255D01*
X-5574212Y42834524D01*
X-5670185Y42987263D01*
X-5797738Y43114816D01*
X-5950477Y43210789D01*
X-6120746Y43270369D01*
X-6120751Y43270370D01*
X-6299996Y43290565D01*
X-6300004Y43290565D01*
X-6479250Y43270370D01*
X-6479255Y43270369D01*
X-6649524Y43210789D01*
X-6802263Y43114816D01*
X-6929816Y42987263D01*
X-7025789Y42834524D01*
X-7085369Y42664255D01*
X-7085370Y42664250D01*
X-7105565Y42485004D01*
X-7105565Y42484997D01*
X-7494435Y42484997D01*
X-7494435Y42485004D01*
X-7514631Y42664250D01*
X-7514632Y42664255D01*
X-7574212Y42834524D01*
X-7670185Y42987263D01*
X-7797738Y43114816D01*
X-7950477Y43210789D01*
X-8120746Y43270369D01*
X-8120751Y43270370D01*
X-8299996Y43290565D01*
X-8300004Y43290565D01*
X-8479250Y43270370D01*
X-8479255Y43270369D01*
X-8649524Y43210789D01*
X-8802263Y43114816D01*
X-8929816Y42987263D01*
X-9025789Y42834524D01*
X-9085369Y42664255D01*
X-9085370Y42664250D01*
X-9105565Y42485004D01*
X-9105565Y42484997D01*
X-9494435Y42484997D01*
X-9494435Y42485004D01*
X-9514631Y42664250D01*
X-9514632Y42664255D01*
X-9574212Y42834524D01*
X-9670185Y42987263D01*
X-9797738Y43114816D01*
X-9950477Y43210789D01*
X-10120746Y43270369D01*
X-10120751Y43270370D01*
X-10299996Y43290565D01*
X-10300004Y43290565D01*
X-10479250Y43270370D01*
X-10479255Y43270369D01*
X-10649524Y43210789D01*
X-10802263Y43114816D01*
X-10929816Y42987263D01*
X-11025789Y42834524D01*
X-11085369Y42664255D01*
X-11085370Y42664250D01*
X-11105565Y42485004D01*
X-11105565Y42484997D01*
X-11494435Y42484997D01*
X-11494435Y42485004D01*
X-11514631Y42664250D01*
X-11514632Y42664255D01*
X-11574212Y42834524D01*
X-11670185Y42987263D01*
X-11797738Y43114816D01*
X-11950477Y43210789D01*
X-12120746Y43270369D01*
X-12120751Y43270370D01*
X-12299996Y43290565D01*
X-12300004Y43290565D01*
X-12479250Y43270370D01*
X-12479255Y43270369D01*
X-12649524Y43210789D01*
X-12802261Y43114817D01*
X-12895260Y43021818D01*
X-12956584Y42988334D01*
X-12982941Y42985500D01*
X-13777456Y42985500D01*
X-13844495Y43005185D01*
X-13865137Y43021819D01*
X-16516363Y45673045D01*
X-16532489Y45692902D01*
X-16537563Y45700669D01*
X-16563513Y45720867D01*
X-16569259Y45725941D01*
X-16571693Y45728375D01*
X-16571694Y45728376D01*
X-16571695Y45728377D01*
X-16578152Y45732987D01*
X-16589439Y45741045D01*
X-16629874Y45772517D01*
X-16629878Y45772519D01*
X-16636352Y45776023D01*
X-16642931Y45779240D01*
X-16692046Y45793862D01*
X-16740514Y45810502D01*
X-16747731Y45811706D01*
X-16755047Y45812618D01*
X-16804275Y45810581D01*
X-16806231Y45810500D01*
X-18729417Y45810500D01*
X-18796456Y45830185D01*
X-18842211Y45882989D01*
X-18843979Y45887049D01*
X-18844767Y45888949D01*
X-18844768Y45888954D01*
X-18942315Y46071450D01*
X-19007302Y46150637D01*
X-19073590Y46231411D01*
X-19211279Y46344408D01*
X-19233550Y46362685D01*
X-19416046Y46460232D01*
X-19614066Y46520300D01*
X-19614068Y46520301D01*
X-19614066Y46520301D01*
X-19820000Y46540583D01*
X-20025933Y46520301D01*
X-20223957Y46460231D01*
X-20311888Y46413230D01*
X-20406450Y46362685D01*
X-20406452Y46362684D01*
X-20406453Y46362683D01*
X-20566411Y46231411D01*
X-20697683Y46071453D01*
X-20795231Y45888957D01*
X-20795232Y45888955D01*
X-20795232Y45888954D01*
X-20797041Y45882989D01*
X-20855301Y45690933D01*
X-20875583Y45485000D01*
X-21304417Y45485000D01*
X-21324700Y45690934D01*
X-21384768Y45888954D01*
X-21482315Y46071450D01*
X-21547302Y46150637D01*
X-21613590Y46231411D01*
X-21751279Y46344408D01*
X-21773550Y46362685D01*
X-21956046Y46460232D01*
X-22154066Y46520300D01*
X-22154068Y46520301D01*
X-22154066Y46520301D01*
X-22360000Y46540583D01*
X-22565933Y46520301D01*
X-22763957Y46460231D01*
X-22851888Y46413230D01*
X-22946450Y46362685D01*
X-22946452Y46362684D01*
X-22946453Y46362683D01*
X-23106411Y46231411D01*
X-23237683Y46071453D01*
X-23335231Y45888957D01*
X-23335232Y45888955D01*
X-23335232Y45888954D01*
X-23337041Y45882989D01*
X-23395301Y45690933D01*
X-23415583Y45485000D01*
X-24913500Y45485000D01*
X-24913500Y48025000D01*
X-23415583Y48025000D01*
X-23395301Y47819068D01*
X-23365266Y47720056D01*
X-23335232Y47621046D01*
X-23237685Y47438550D01*
X-23237683Y47438548D01*
X-23106411Y47278590D01*
X-23023794Y47210789D01*
X-22946450Y47147315D01*
X-22763954Y47049768D01*
X-22565934Y46989700D01*
X-22565935Y46989700D01*
X-22547471Y46987882D01*
X-22360000Y46969417D01*
X-22154066Y46989700D01*
X-21956046Y47049768D01*
X-21773550Y47147315D01*
X-21613590Y47278590D01*
X-21482315Y47438550D01*
X-21384768Y47621046D01*
X-21324700Y47819066D01*
X-21304417Y48025000D01*
X-21324700Y48230934D01*
X-21380790Y48415837D01*
X-21381412Y48485702D01*
X-21349811Y48539509D01*
X-21001137Y48888181D01*
X-20939814Y48921666D01*
X-20913456Y48924500D01*
X-20702948Y48924500D01*
X-20635909Y48904815D01*
X-20590154Y48852011D01*
X-20580210Y48782853D01*
X-20607095Y48721835D01*
X-20697683Y48611454D01*
X-20795231Y48428957D01*
X-20855301Y48230933D01*
X-20875583Y48025000D01*
X-20855301Y47819068D01*
X-20825266Y47720056D01*
X-20795232Y47621046D01*
X-20697685Y47438550D01*
X-20697683Y47438548D01*
X-20566411Y47278590D01*
X-20483794Y47210789D01*
X-20406450Y47147315D01*
X-20223954Y47049768D01*
X-20025934Y46989700D01*
X-20025935Y46989700D01*
X-20007471Y46987882D01*
X-19820000Y46969417D01*
X-19614066Y46989700D01*
X-19416046Y47049768D01*
X-19233550Y47147315D01*
X-19073590Y47278590D01*
X-18942315Y47438550D01*
X-18864594Y47583954D01*
X-18815631Y47633798D01*
X-18755236Y47649500D01*
X-17635544Y47649500D01*
X-17568505Y47629815D01*
X-17547863Y47613181D01*
X-14196640Y44261959D01*
X-14180516Y44242104D01*
X-14175437Y44234331D01*
X-14149491Y44214137D01*
X-14143728Y44209047D01*
X-14141306Y44206625D01*
X-14141305Y44206624D01*
X-14136761Y44203380D01*
X-14131540Y44199652D01*
X-14123571Y44193963D01*
X-14083125Y44162482D01*
X-14076705Y44159008D01*
X-14076656Y44158984D01*
X-14076610Y44158959D01*
X-14070068Y44155761D01*
X-14070067Y44155761D01*
X-14070066Y44155760D01*
X-14055922Y44151549D01*
X-14020955Y44141138D01*
X-13972494Y44124502D01*
X-13972488Y44124500D01*
X-13972482Y44124500D01*
X-13965232Y44123290D01*
X-13957954Y44122383D01*
X-13906758Y44124500D01*
X-13087423Y44124500D01*
X-13020384Y44104815D01*
X-12982431Y44066474D01*
X-12929816Y43982738D01*
X-12802262Y43855184D01*
X-12649522Y43759211D01*
X-12479255Y43699632D01*
X-12479250Y43699631D01*
X-12300004Y43679435D01*
X-12300000Y43679435D01*
X-12299996Y43679435D01*
X-12120751Y43699631D01*
X-12120748Y43699632D01*
X-12120745Y43699632D01*
X-11950478Y43759211D01*
X-11797738Y43855184D01*
X-11670184Y43982738D01*
X-11574211Y44135478D01*
X-11514632Y44305745D01*
X-11514631Y44305751D01*
X-11494435Y44484997D01*
X-11105565Y44484997D01*
X-11085370Y44305751D01*
X-11085369Y44305746D01*
X-11025789Y44135477D01*
X-10982430Y44066472D01*
X-10929816Y43982738D01*
X-10802262Y43855184D01*
X-10649522Y43759211D01*
X-10479255Y43699632D01*
X-10479250Y43699631D01*
X-10300004Y43679435D01*
X-10300000Y43679435D01*
X-10299996Y43679435D01*
X-10120751Y43699631D01*
X-10120748Y43699632D01*
X-10120745Y43699632D01*
X-9950478Y43759211D01*
X-9797738Y43855184D01*
X-9670184Y43982738D01*
X-9574211Y44135478D01*
X-9514632Y44305745D01*
X-9514631Y44305751D01*
X-9494435Y44484997D01*
X-9105565Y44484997D01*
X-9085370Y44305751D01*
X-9085369Y44305746D01*
X-9025789Y44135477D01*
X-8982430Y44066472D01*
X-8929816Y43982738D01*
X-8802262Y43855184D01*
X-8649522Y43759211D01*
X-8479255Y43699632D01*
X-8479250Y43699631D01*
X-8300004Y43679435D01*
X-8300000Y43679435D01*
X-8299996Y43679435D01*
X-8120751Y43699631D01*
X-8120748Y43699632D01*
X-8120745Y43699632D01*
X-7950478Y43759211D01*
X-7797738Y43855184D01*
X-7670184Y43982738D01*
X-7574211Y44135478D01*
X-7514632Y44305745D01*
X-7514631Y44305751D01*
X-7494435Y44484997D01*
X-7494435Y44485004D01*
X-7514631Y44664250D01*
X-7514632Y44664255D01*
X-7574212Y44834524D01*
X-7614441Y44898548D01*
X-7670184Y44987262D01*
X-7797738Y45114816D01*
X-7835523Y45138558D01*
X-7950477Y45210789D01*
X-8120746Y45270369D01*
X-8120751Y45270370D01*
X-8299996Y45290565D01*
X-8300004Y45290565D01*
X-8479250Y45270370D01*
X-8479255Y45270369D01*
X-8649524Y45210789D01*
X-8802263Y45114816D01*
X-8929816Y44987263D01*
X-9025789Y44834524D01*
X-9085369Y44664255D01*
X-9085370Y44664250D01*
X-9105565Y44485004D01*
X-9105565Y44484997D01*
X-9494435Y44484997D01*
X-9494435Y44485004D01*
X-9514631Y44664250D01*
X-9514632Y44664255D01*
X-9574212Y44834524D01*
X-9614441Y44898548D01*
X-9670184Y44987262D01*
X-9797738Y45114816D01*
X-9835523Y45138558D01*
X-9950477Y45210789D01*
X-10120746Y45270369D01*
X-10120751Y45270370D01*
X-10299996Y45290565D01*
X-10300004Y45290565D01*
X-10479250Y45270370D01*
X-10479255Y45270369D01*
X-10649524Y45210789D01*
X-10802263Y45114816D01*
X-10929816Y44987263D01*
X-11025789Y44834524D01*
X-11085369Y44664255D01*
X-11085370Y44664250D01*
X-11105565Y44485004D01*
X-11105565Y44484997D01*
X-11494435Y44484997D01*
X-11494435Y44485004D01*
X-11514631Y44664250D01*
X-11514632Y44664255D01*
X-11532561Y44715492D01*
X-11574211Y44834522D01*
X-11640356Y44939790D01*
X-11659355Y45007025D01*
X-11638988Y45073861D01*
X-11585720Y45119075D01*
X-11535361Y45129761D01*
X-11517950Y45129761D01*
X-11492505Y45127123D01*
X-11483424Y45125218D01*
X-11467734Y45127174D01*
X-11450800Y45129284D01*
X-11443124Y45129761D01*
X-11439704Y45129761D01*
X-11439699Y45129761D01*
X-11436131Y45130357D01*
X-11418200Y45133348D01*
X-11390781Y45136767D01*
X-11367346Y45139688D01*
X-11367337Y45139693D01*
X-11360288Y45141791D01*
X-11353362Y45144169D01*
X-11353358Y45144169D01*
X-11308295Y45168557D01*
X-11262255Y45191063D01*
X-11262252Y45191067D01*
X-11256286Y45195326D01*
X-11250485Y45199842D01*
X-11250481Y45199843D01*
X-11215782Y45237537D01*
X-10737643Y45715677D01*
X-10676322Y45749160D01*
X-10609010Y45745036D01*
X-10597604Y45741044D01*
X-10479263Y45699634D01*
X-10479257Y45699633D01*
X-10479255Y45699632D01*
X-10479254Y45699632D01*
X-10479250Y45699631D01*
X-10300004Y45679435D01*
X-10300000Y45679435D01*
X-10299996Y45679435D01*
X-10120751Y45699631D01*
X-10120748Y45699632D01*
X-10120745Y45699632D01*
X-9950478Y45759211D01*
X-9797738Y45855184D01*
X-9670184Y45982738D01*
X-9574211Y46135478D01*
X-9514632Y46305745D01*
X-9511642Y46332281D01*
X-9494435Y46484997D01*
X-9105565Y46484997D01*
X-9085370Y46305751D01*
X-9085369Y46305746D01*
X-9025789Y46135477D01*
X-8985558Y46071450D01*
X-8929816Y45982738D01*
X-8802262Y45855184D01*
X-8763393Y45830761D01*
X-8670699Y45772517D01*
X-8649522Y45759211D01*
X-8525103Y45715675D01*
X-8479255Y45699632D01*
X-8479250Y45699631D01*
X-8300004Y45679435D01*
X-8300000Y45679435D01*
X-8299996Y45679435D01*
X-8120751Y45699631D01*
X-8120748Y45699632D01*
X-8120745Y45699632D01*
X-7950478Y45759211D01*
X-7797738Y45855184D01*
X-7670184Y45982738D01*
X-7574211Y46135478D01*
X-7514632Y46305745D01*
X-7513964Y46311666D01*
X-7504951Y46391670D01*
X-7497965Y46453675D01*
X-7485009Y46484510D01*
X-7485440Y46485352D01*
X-7264549Y46485352D01*
X-7252605Y46461185D01*
X-7251342Y46451944D01*
X-7236256Y46298770D01*
X-7181932Y46119689D01*
X-7125131Y46013424D01*
X-6678339Y46460215D01*
X-6678886Y46453605D01*
X-6648163Y46332281D01*
X-6579711Y46227508D01*
X-6480948Y46150637D01*
X-6362576Y46110000D01*
X-6321447Y46110000D01*
X-6771578Y45659870D01*
X-6665312Y45603069D01*
X-6486231Y45548745D01*
X-6333057Y45533659D01*
X-6300352Y45520453D01*
X-6276184Y45532396D01*
X-6266944Y45533659D01*
X-6113770Y45548745D01*
X-5934689Y45603069D01*
X-5828423Y45659870D01*
X-5828423Y45659871D01*
X-6278552Y46110000D01*
X-6268927Y46110000D01*
X-6176554Y46125414D01*
X-6066486Y46184981D01*
X-5981722Y46277059D01*
X-5931449Y46391670D01*
X-5925455Y46464008D01*
X-5474871Y46013423D01*
X-5474870Y46013423D01*
X-5418065Y46119698D01*
X-5415737Y46125316D01*
X-5414129Y46124650D01*
X-5380367Y46176172D01*
X-5316556Y46204631D01*
X-5247488Y46194073D01*
X-5195093Y46147851D01*
X-5184716Y46125129D01*
X-5184263Y46125316D01*
X-5181936Y46119698D01*
X-5125131Y46013424D01*
X-4678339Y46460215D01*
X-4678886Y46453605D01*
X-4648163Y46332281D01*
X-4579711Y46227508D01*
X-4480948Y46150637D01*
X-4362576Y46110000D01*
X-4321447Y46110000D01*
X-4771578Y45659870D01*
X-4665312Y45603069D01*
X-4486231Y45548745D01*
X-4333057Y45533659D01*
X-4300352Y45520453D01*
X-4276184Y45532396D01*
X-4266944Y45533659D01*
X-4113770Y45548745D01*
X-3934689Y45603069D01*
X-3828423Y45659870D01*
X-3828423Y45659871D01*
X-4278552Y46110000D01*
X-4268927Y46110000D01*
X-4176554Y46125414D01*
X-4066486Y46184981D01*
X-3981722Y46277059D01*
X-3931449Y46391670D01*
X-3925455Y46464008D01*
X-3474871Y46013423D01*
X-3474870Y46013423D01*
X-3418069Y46119689D01*
X-3363745Y46298770D01*
X-3345404Y46485000D01*
X-3363745Y46671231D01*
X-3418069Y46850312D01*
X-3474870Y46956578D01*
X-3921662Y46509787D01*
X-3921114Y46516395D01*
X-3951837Y46637719D01*
X-4020289Y46742492D01*
X-4119052Y46819363D01*
X-4237424Y46860000D01*
X-4278552Y46860000D01*
X-3828424Y47310131D01*
X-3934689Y47366932D01*
X-4113770Y47421256D01*
X-4266944Y47436342D01*
X-4299650Y47449549D01*
X-4323816Y47437605D01*
X-4333057Y47436342D01*
X-4486231Y47421256D01*
X-4665308Y47366933D01*
X-4771578Y47310131D01*
X-4321447Y46860000D01*
X-4331073Y46860000D01*
X-4423446Y46844586D01*
X-4533514Y46785019D01*
X-4618278Y46692941D01*
X-4668551Y46578330D01*
X-4674546Y46505993D01*
X-5125131Y46956578D01*
X-5181936Y46850303D01*
X-5184264Y46844680D01*
X-5185873Y46845347D01*
X-5219640Y46793823D01*
X-5283453Y46765369D01*
X-5352520Y46775932D01*
X-5404912Y46822158D01*
X-5415285Y46844872D01*
X-5415737Y46844684D01*
X-5418065Y46850303D01*
X-5474870Y46956578D01*
X-5921662Y46509787D01*
X-5921114Y46516395D01*
X-5951837Y46637719D01*
X-6020289Y46742492D01*
X-6119052Y46819363D01*
X-6237424Y46860000D01*
X-6278552Y46860000D01*
X-5828424Y47310131D01*
X-5934689Y47366932D01*
X-6113770Y47421256D01*
X-6266944Y47436342D01*
X-6299650Y47449549D01*
X-6323816Y47437605D01*
X-6333057Y47436342D01*
X-6486231Y47421256D01*
X-6665308Y47366933D01*
X-6771578Y47310131D01*
X-6321447Y46860000D01*
X-6331073Y46860000D01*
X-6423446Y46844586D01*
X-6533514Y46785019D01*
X-6618278Y46692941D01*
X-6668551Y46578330D01*
X-6674546Y46505993D01*
X-7125131Y46956578D01*
X-7181933Y46850308D01*
X-7236256Y46671231D01*
X-7251342Y46518057D01*
X-7264549Y46485352D01*
X-7485440Y46485352D01*
X-7496573Y46507107D01*
X-7497965Y46516328D01*
X-7497973Y46516395D01*
X-7514632Y46664255D01*
X-7574211Y46834522D01*
X-7580535Y46844586D01*
X-7650904Y46956578D01*
X-7670184Y46987262D01*
X-7797738Y47114816D01*
X-7950477Y47210789D01*
X-8120746Y47270369D01*
X-8120751Y47270370D01*
X-8299996Y47290565D01*
X-8300004Y47290565D01*
X-8479250Y47270370D01*
X-8479255Y47270369D01*
X-8649524Y47210789D01*
X-8802263Y47114816D01*
X-8929816Y46987263D01*
X-9025789Y46834524D01*
X-9085369Y46664255D01*
X-9085370Y46664250D01*
X-9105565Y46485004D01*
X-9105565Y46484997D01*
X-9494435Y46484997D01*
X-9494435Y46485004D01*
X-9514631Y46664250D01*
X-9514632Y46664255D01*
X-9550013Y46765369D01*
X-9574211Y46834522D01*
X-9580535Y46844586D01*
X-9650904Y46956578D01*
X-9670184Y46987262D01*
X-9797738Y47114816D01*
X-9950477Y47210789D01*
X-10120746Y47270369D01*
X-10120751Y47270370D01*
X-10299996Y47290565D01*
X-10300004Y47290565D01*
X-10479250Y47270370D01*
X-10479255Y47270369D01*
X-10649524Y47210789D01*
X-10802263Y47114816D01*
X-10929816Y46987263D01*
X-11025789Y46834524D01*
X-11085369Y46664255D01*
X-11085370Y46664250D01*
X-11105565Y46485004D01*
X-11105565Y46484998D01*
X-11097479Y46413230D01*
X-11109534Y46344408D01*
X-11133018Y46311666D01*
X-11332697Y46111987D01*
X-11394020Y46078502D01*
X-11463712Y46083486D01*
X-11519645Y46125358D01*
X-11544062Y46190822D01*
X-11537419Y46240624D01*
X-11514633Y46305741D01*
X-11514631Y46305751D01*
X-11494435Y46484997D01*
X-11494435Y46485004D01*
X-11514631Y46664250D01*
X-11514632Y46664255D01*
X-11550013Y46765369D01*
X-11574211Y46834522D01*
X-11580535Y46844586D01*
X-11650904Y46956578D01*
X-11670184Y46987262D01*
X-11797738Y47114816D01*
X-11950477Y47210789D01*
X-12120746Y47270369D01*
X-12120751Y47270370D01*
X-12299996Y47290565D01*
X-12300004Y47290565D01*
X-12479250Y47270370D01*
X-12479255Y47270369D01*
X-12649524Y47210789D01*
X-12802263Y47114816D01*
X-12929816Y46987263D01*
X-13025789Y46834524D01*
X-13085369Y46664255D01*
X-13085370Y46664250D01*
X-13105565Y46485004D01*
X-13105565Y46484997D01*
X-13085370Y46305751D01*
X-13085369Y46305746D01*
X-13025789Y46135477D01*
X-12953690Y46020733D01*
X-12934690Y45953496D01*
X-12955058Y45886661D01*
X-13008326Y45841447D01*
X-13058684Y45830761D01*
X-14015610Y45830761D01*
X-14082649Y45850446D01*
X-14103291Y45867080D01*
X-17724256Y49488045D01*
X-17740382Y49507902D01*
X-17745456Y49515669D01*
X-17771406Y49535867D01*
X-17777152Y49540941D01*
X-17779586Y49543375D01*
X-17779587Y49543376D01*
X-17779588Y49543377D01*
X-17786045Y49547987D01*
X-17797332Y49556045D01*
X-17837767Y49587517D01*
X-17837771Y49587519D01*
X-17844245Y49591023D01*
X-17850824Y49594240D01*
X-17899939Y49608862D01*
X-17948407Y49625502D01*
X-17955624Y49626706D01*
X-17962940Y49627618D01*
X-18012168Y49625581D01*
X-18014124Y49625500D01*
X-18969879Y49625500D01*
X-19036918Y49645185D01*
X-19082673Y49697989D01*
X-19092617Y49767147D01*
X-19065732Y49828165D01*
X-19030560Y49871023D01*
X-18942315Y49978550D01*
X-18844768Y50161046D01*
X-18784700Y50359066D01*
X-18764417Y50565000D01*
X-18784700Y50770934D01*
X-18844768Y50968954D01*
X-18942315Y51151450D01*
X-18994298Y51214791D01*
X-19073590Y51311411D01*
X-19233548Y51442683D01*
X-19233547Y51442683D01*
X-19233550Y51442685D01*
X-19416046Y51540232D01*
X-19614066Y51600300D01*
X-19614068Y51600301D01*
X-19614066Y51600301D01*
X-19820000Y51620583D01*
X-20025933Y51600301D01*
X-20223957Y51540231D01*
X-20334102Y51481357D01*
X-20406450Y51442685D01*
X-20406452Y51442684D01*
X-20406453Y51442683D01*
X-20566411Y51311411D01*
X-20697683Y51151453D01*
X-20697685Y51151450D01*
X-20736357Y51079102D01*
X-20795231Y50968957D01*
X-20855301Y50770933D01*
X-20875583Y50565000D01*
X-20855301Y50359068D01*
X-20825266Y50260056D01*
X-20795232Y50161046D01*
X-20724162Y50028084D01*
X-20697683Y49978547D01*
X-20574268Y49828165D01*
X-20546955Y49763855D01*
X-20558746Y49694987D01*
X-20605898Y49643427D01*
X-20670121Y49625500D01*
X-21060789Y49625500D01*
X-21086235Y49628139D01*
X-21095315Y49630043D01*
X-21095316Y49630043D01*
X-21095318Y49630043D01*
X-21127939Y49625977D01*
X-21135615Y49625500D01*
X-21139040Y49625500D01*
X-21160543Y49621913D01*
X-21211392Y49615574D01*
X-21218430Y49613479D01*
X-21225378Y49611094D01*
X-21270445Y49586705D01*
X-21316488Y49564197D01*
X-21322434Y49559952D01*
X-21328258Y49555419D01*
X-21362958Y49517725D01*
X-21845492Y49035192D01*
X-21906815Y49001707D01*
X-21969167Y49004212D01*
X-22154066Y49060300D01*
X-22154068Y49060301D01*
X-22154066Y49060301D01*
X-22360000Y49080583D01*
X-22565933Y49060301D01*
X-22741308Y49007102D01*
X-22759091Y49001707D01*
X-22763957Y49000231D01*
X-22874102Y48941357D01*
X-22946450Y48902685D01*
X-22946452Y48902684D01*
X-22946453Y48902683D01*
X-23106411Y48771411D01*
X-23237683Y48611453D01*
X-23335231Y48428957D01*
X-23395301Y48230933D01*
X-23415583Y48025000D01*
X-24913500Y48025000D01*
X-24913500Y50565000D01*
X-23415583Y50565000D01*
X-23395301Y50359068D01*
X-23365266Y50260056D01*
X-23335232Y50161046D01*
X-23237685Y49978550D01*
X-23221876Y49959287D01*
X-23106411Y49818590D01*
X-23039715Y49763855D01*
X-22946450Y49687315D01*
X-22763954Y49589768D01*
X-22565934Y49529700D01*
X-22565935Y49529700D01*
X-22547471Y49527882D01*
X-22360000Y49509417D01*
X-22154066Y49529700D01*
X-21956046Y49589768D01*
X-21773550Y49687315D01*
X-21613590Y49818590D01*
X-21482315Y49978550D01*
X-21384768Y50161046D01*
X-21324700Y50359066D01*
X-21304417Y50565000D01*
X-21324700Y50770934D01*
X-21384768Y50968954D01*
X-21482315Y51151450D01*
X-21534298Y51214791D01*
X-21613590Y51311411D01*
X-21773548Y51442683D01*
X-21773547Y51442683D01*
X-21773550Y51442685D01*
X-21956046Y51540232D01*
X-22154066Y51600300D01*
X-22154068Y51600301D01*
X-22154066Y51600301D01*
X-22360000Y51620583D01*
X-22565933Y51600301D01*
X-22763957Y51540231D01*
X-22874102Y51481357D01*
X-22946450Y51442685D01*
X-22946452Y51442684D01*
X-22946453Y51442683D01*
X-23106411Y51311411D01*
X-23237683Y51151453D01*
X-23237685Y51151450D01*
X-23276357Y51079102D01*
X-23335231Y50968957D01*
X-23395301Y50770933D01*
X-23415583Y50565000D01*
X-24913500Y50565000D01*
X-24913500Y54869683D01*
X-24169043Y54869683D01*
X-24164977Y54837063D01*
X-24164500Y54829386D01*
X-24164500Y54825962D01*
X-24160913Y54804459D01*
X-24154573Y54753607D01*
X-24152480Y54746574D01*
X-24150092Y54739619D01*
X-24125705Y54694556D01*
X-24103199Y54648517D01*
X-24098943Y54642556D01*
X-24094420Y54636745D01*
X-24094418Y54636742D01*
X-24071730Y54615857D01*
X-24056724Y54602043D01*
X-23596640Y54141959D01*
X-23580516Y54122104D01*
X-23575437Y54114331D01*
X-23549491Y54094137D01*
X-23543728Y54089047D01*
X-23541306Y54086625D01*
X-23541305Y54086624D01*
X-23523571Y54073963D01*
X-23483125Y54042482D01*
X-23476705Y54039008D01*
X-23476656Y54038984D01*
X-23476610Y54038959D01*
X-23470068Y54035761D01*
X-23470067Y54035761D01*
X-23470066Y54035760D01*
X-23455922Y54031549D01*
X-23420955Y54021138D01*
X-23372494Y54004502D01*
X-23372488Y54004500D01*
X-23372482Y54004500D01*
X-23365245Y54003292D01*
X-23357958Y54002385D01*
X-23357954Y54002383D01*
X-23357951Y54002384D01*
X-23356512Y54002204D01*
X-23353748Y54001004D01*
X-23351360Y54000444D01*
X-23347384Y53999234D01*
X-23347651Y53998358D01*
X-23292420Y53974381D01*
X-23253545Y53916325D01*
X-23252229Y53846468D01*
X-23272889Y53804428D01*
X-23341939Y53712992D01*
X-23436933Y53522219D01*
X-23436938Y53522206D01*
X-23484513Y53355001D01*
X-23484512Y53355000D01*
X-22793686Y53355000D01*
X-22819493Y53314844D01*
X-22860000Y53176889D01*
X-22860000Y53033111D01*
X-22819493Y52895156D01*
X-22793686Y52855000D01*
X-23484512Y52855000D01*
X-23436938Y52687795D01*
X-23436933Y52687782D01*
X-23341939Y52497009D01*
X-23213500Y52326929D01*
X-23056000Y52183349D01*
X-23055998Y52183347D01*
X-22874799Y52071154D01*
X-22874793Y52071151D01*
X-22676059Y51994162D01*
X-22610000Y51981814D01*
X-22610000Y52669499D01*
X-22502315Y52620320D01*
X-22395763Y52605000D01*
X-22324237Y52605000D01*
X-22217685Y52620320D01*
X-22110000Y52669499D01*
X-22110000Y51981815D01*
X-22043942Y51994162D01*
X-21845208Y52071151D01*
X-21845202Y52071154D01*
X-21664003Y52183347D01*
X-21664001Y52183349D01*
X-21506501Y52326929D01*
X-21378062Y52497009D01*
X-21283068Y52687782D01*
X-21283063Y52687795D01*
X-21235488Y52855000D01*
X-21926314Y52855000D01*
X-21900507Y52895156D01*
X-21860000Y53033111D01*
X-21860000Y53176889D01*
X-21900507Y53314844D01*
X-21926314Y53355000D01*
X-21235488Y53355000D01*
X-21235488Y53355001D01*
X-21283063Y53522206D01*
X-21283068Y53522219D01*
X-21378062Y53712992D01*
X-21448127Y53805773D01*
X-21472819Y53871134D01*
X-21458254Y53939469D01*
X-21409057Y53989081D01*
X-21349173Y54004500D01*
X-21266544Y54004500D01*
X-21199505Y53984815D01*
X-21178863Y53968181D01*
X-20830192Y53619510D01*
X-20796707Y53558187D01*
X-20799212Y53495834D01*
X-20855301Y53310933D01*
X-20875583Y53105000D01*
X-20855301Y52899068D01*
X-20837674Y52840960D01*
X-20795232Y52701046D01*
X-20697685Y52518550D01*
X-20697683Y52518548D01*
X-20566411Y52358590D01*
X-20527831Y52326929D01*
X-20406450Y52227315D01*
X-20223954Y52129768D01*
X-20025934Y52069700D01*
X-20025935Y52069700D01*
X-20007471Y52067882D01*
X-19820000Y52049417D01*
X-19614066Y52069700D01*
X-19416046Y52129768D01*
X-19233550Y52227315D01*
X-19233544Y52227321D01*
X-19228480Y52230702D01*
X-19227080Y52228606D01*
X-19172961Y52251634D01*
X-19104086Y52239890D01*
X-19070841Y52216159D01*
X-16196638Y49341956D01*
X-16180514Y49322101D01*
X-16175437Y49314331D01*
X-16149492Y49294138D01*
X-16143740Y49289058D01*
X-16141307Y49286625D01*
X-16123562Y49273956D01*
X-16083126Y49242483D01*
X-16083124Y49242483D01*
X-16076690Y49239001D01*
X-16076656Y49238984D01*
X-16076610Y49238959D01*
X-16070068Y49235761D01*
X-16070067Y49235761D01*
X-16070066Y49235760D01*
X-16055922Y49231549D01*
X-16020955Y49221138D01*
X-15972491Y49204501D01*
X-15972488Y49204500D01*
X-15972485Y49204500D01*
X-15965375Y49203313D01*
X-15965269Y49203300D01*
X-15965145Y49203280D01*
X-15957954Y49202383D01*
X-15906769Y49204500D01*
X-13011940Y49204500D01*
X-12944901Y49184815D01*
X-12899146Y49132011D01*
X-12889202Y49062853D01*
X-12918227Y48999297D01*
X-12924259Y48992819D01*
X-12929816Y48987263D01*
X-13025789Y48834524D01*
X-13085369Y48664255D01*
X-13085370Y48664250D01*
X-13105565Y48485004D01*
X-13105565Y48484997D01*
X-13085370Y48305751D01*
X-13085369Y48305746D01*
X-13025789Y48135477D01*
X-12956371Y48025000D01*
X-12929816Y47982738D01*
X-12802262Y47855184D01*
X-12649522Y47759211D01*
X-12479255Y47699632D01*
X-12479250Y47699631D01*
X-12300004Y47679435D01*
X-12300000Y47679435D01*
X-12299996Y47679435D01*
X-12120751Y47699631D01*
X-12120748Y47699632D01*
X-12120745Y47699632D01*
X-11950478Y47759211D01*
X-11797738Y47855184D01*
X-11670184Y47982738D01*
X-11574211Y48135478D01*
X-11514632Y48305745D01*
X-11509589Y48350500D01*
X-11494435Y48484997D01*
X-11494435Y48485004D01*
X-11514631Y48664250D01*
X-11514632Y48664255D01*
X-11574212Y48834524D01*
X-11670185Y48987263D01*
X-11675741Y48992819D01*
X-11709226Y49054142D01*
X-11704242Y49123834D01*
X-11662370Y49179767D01*
X-11596906Y49204184D01*
X-11588060Y49204500D01*
X-11566544Y49204500D01*
X-11499505Y49184815D01*
X-11478863Y49168181D01*
X-11111838Y48801156D01*
X-11078353Y48739833D01*
X-11082475Y48672528D01*
X-11085366Y48664265D01*
X-11085370Y48664250D01*
X-11105565Y48485004D01*
X-11105565Y48484997D01*
X-11085370Y48305751D01*
X-11085369Y48305746D01*
X-11025789Y48135477D01*
X-10956371Y48025000D01*
X-10929816Y47982738D01*
X-10802262Y47855184D01*
X-10649522Y47759211D01*
X-10479255Y47699632D01*
X-10479250Y47699631D01*
X-10300004Y47679435D01*
X-10300000Y47679435D01*
X-10299996Y47679435D01*
X-10120751Y47699631D01*
X-10120748Y47699632D01*
X-10120745Y47699632D01*
X-9950478Y47759211D01*
X-9797738Y47855184D01*
X-9670184Y47982738D01*
X-9574211Y48135478D01*
X-9514632Y48305745D01*
X-9509589Y48350500D01*
X-9494435Y48484997D01*
X-9105565Y48484997D01*
X-9085370Y48305751D01*
X-9085369Y48305746D01*
X-9025789Y48135477D01*
X-8956371Y48025000D01*
X-8929816Y47982738D01*
X-8802262Y47855184D01*
X-8649522Y47759211D01*
X-8479255Y47699632D01*
X-8479250Y47699631D01*
X-8300004Y47679435D01*
X-8300000Y47679435D01*
X-8299996Y47679435D01*
X-8120751Y47699631D01*
X-8120748Y47699632D01*
X-8120745Y47699632D01*
X-7950478Y47759211D01*
X-7797738Y47855184D01*
X-7670184Y47982738D01*
X-7574211Y48135478D01*
X-7514632Y48305745D01*
X-7509589Y48350500D01*
X-7494435Y48484997D01*
X-7105565Y48484997D01*
X-7085370Y48305751D01*
X-7085369Y48305746D01*
X-7025789Y48135477D01*
X-6956371Y48025000D01*
X-6929816Y47982738D01*
X-6802262Y47855184D01*
X-6649522Y47759211D01*
X-6479255Y47699632D01*
X-6479250Y47699631D01*
X-6380128Y47688464D01*
X-6331328Y47682965D01*
X-6300493Y47670009D01*
X-6277895Y47681573D01*
X-6268682Y47682964D01*
X-6205260Y47690110D01*
X-6120750Y47699631D01*
X-6120747Y47699632D01*
X-6120745Y47699632D01*
X-5950478Y47759211D01*
X-5797738Y47855184D01*
X-5670184Y47982738D01*
X-5574211Y48135478D01*
X-5514632Y48305745D01*
X-5509589Y48350500D01*
X-5494435Y48484997D01*
X-5105565Y48484997D01*
X-5085370Y48305751D01*
X-5085369Y48305746D01*
X-5025789Y48135477D01*
X-4956371Y48025000D01*
X-4929816Y47982738D01*
X-4802262Y47855184D01*
X-4649522Y47759211D01*
X-4479255Y47699632D01*
X-4479250Y47699631D01*
X-4380128Y47688464D01*
X-4331328Y47682965D01*
X-4300493Y47670009D01*
X-4277895Y47681573D01*
X-4268682Y47682964D01*
X-4205260Y47690110D01*
X-4120750Y47699631D01*
X-4120747Y47699632D01*
X-4120745Y47699632D01*
X-3950478Y47759211D01*
X-3797738Y47855184D01*
X-3670184Y47982738D01*
X-3574211Y48135478D01*
X-3514632Y48305745D01*
X-3509589Y48350500D01*
X-3494435Y48484997D01*
X-3494435Y48485004D01*
X-3514631Y48664250D01*
X-3514632Y48664255D01*
X-3574212Y48834524D01*
X-3670185Y48987263D01*
X-3797738Y49114816D01*
X-3950477Y49210789D01*
X-4120746Y49270369D01*
X-4120751Y49270370D01*
X-4299996Y49290565D01*
X-4300004Y49290565D01*
X-4479250Y49270370D01*
X-4479255Y49270369D01*
X-4649524Y49210789D01*
X-4802263Y49114816D01*
X-4929816Y48987263D01*
X-5025789Y48834524D01*
X-5085369Y48664255D01*
X-5085370Y48664250D01*
X-5105565Y48485004D01*
X-5105565Y48484997D01*
X-5494435Y48484997D01*
X-5494435Y48485004D01*
X-5514631Y48664250D01*
X-5514632Y48664255D01*
X-5574212Y48834524D01*
X-5670185Y48987263D01*
X-5797738Y49114816D01*
X-5950477Y49210789D01*
X-6120746Y49270369D01*
X-6120751Y49270370D01*
X-6299996Y49290565D01*
X-6300004Y49290565D01*
X-6479250Y49270370D01*
X-6479255Y49270369D01*
X-6649524Y49210789D01*
X-6802263Y49114816D01*
X-6929816Y48987263D01*
X-7025789Y48834524D01*
X-7085369Y48664255D01*
X-7085370Y48664250D01*
X-7105565Y48485004D01*
X-7105565Y48484997D01*
X-7494435Y48484997D01*
X-7494435Y48485004D01*
X-7514631Y48664250D01*
X-7514632Y48664255D01*
X-7574212Y48834524D01*
X-7670185Y48987263D01*
X-7797738Y49114816D01*
X-7950477Y49210789D01*
X-8120746Y49270369D01*
X-8120751Y49270370D01*
X-8299996Y49290565D01*
X-8300004Y49290565D01*
X-8479250Y49270370D01*
X-8479255Y49270369D01*
X-8649524Y49210789D01*
X-8802263Y49114816D01*
X-8929816Y48987263D01*
X-9025789Y48834524D01*
X-9085369Y48664255D01*
X-9085370Y48664250D01*
X-9105565Y48485004D01*
X-9105565Y48484997D01*
X-9494435Y48484997D01*
X-9494435Y48485004D01*
X-9514631Y48664250D01*
X-9514632Y48664255D01*
X-9574212Y48834524D01*
X-9670185Y48987263D01*
X-9797738Y49114816D01*
X-9950477Y49210789D01*
X-10120746Y49270369D01*
X-10120751Y49270370D01*
X-10299996Y49290565D01*
X-10300004Y49290565D01*
X-10479250Y49270370D01*
X-10479265Y49270366D01*
X-10487528Y49267475D01*
X-10557307Y49263917D01*
X-10616156Y49296838D01*
X-11087363Y49768045D01*
X-11103489Y49787902D01*
X-11108563Y49795669D01*
X-11134513Y49815867D01*
X-11140259Y49820941D01*
X-11142693Y49823375D01*
X-11142694Y49823376D01*
X-11142695Y49823377D01*
X-11149402Y49828165D01*
X-11160439Y49836045D01*
X-11200874Y49867517D01*
X-11200878Y49867519D01*
X-11207352Y49871023D01*
X-11213931Y49874240D01*
X-11263046Y49888862D01*
X-11311514Y49905502D01*
X-11318731Y49906706D01*
X-11326047Y49907618D01*
X-11375275Y49905581D01*
X-11377231Y49905500D01*
X-15717456Y49905500D01*
X-15784495Y49925185D01*
X-15805137Y49941819D01*
X-18741230Y52877912D01*
X-18774715Y52939235D01*
X-18776952Y52977743D01*
X-18764417Y53105000D01*
X-18784700Y53310934D01*
X-18844768Y53508954D01*
X-18942315Y53691450D01*
X-19035033Y53804428D01*
X-19073590Y53851411D01*
X-19215877Y53968181D01*
X-19233550Y53982685D01*
X-19416046Y54080232D01*
X-19614066Y54140300D01*
X-19614068Y54140301D01*
X-19614066Y54140301D01*
X-19820000Y54160583D01*
X-20025933Y54140301D01*
X-20210834Y54084212D01*
X-20280701Y54083589D01*
X-20334510Y54115192D01*
X-20787363Y54568045D01*
X-20803489Y54587902D01*
X-20808563Y54595669D01*
X-20834513Y54615867D01*
X-20840259Y54620941D01*
X-20842693Y54623375D01*
X-20842694Y54623376D01*
X-20842695Y54623377D01*
X-20849152Y54627987D01*
X-20860439Y54636045D01*
X-20900874Y54667517D01*
X-20900878Y54667519D01*
X-20907352Y54671023D01*
X-20913931Y54674240D01*
X-20963046Y54688862D01*
X-21011514Y54705502D01*
X-21018731Y54706706D01*
X-21026047Y54707618D01*
X-21075275Y54705581D01*
X-21077231Y54705500D01*
X-21509879Y54705500D01*
X-21576918Y54725185D01*
X-21622673Y54777989D01*
X-21632617Y54847147D01*
X-21605732Y54908165D01*
X-21575503Y54945000D01*
X-21482315Y55058550D01*
X-21384768Y55241046D01*
X-21324700Y55439066D01*
X-21304417Y55645000D01*
X-20875583Y55645000D01*
X-20855301Y55439068D01*
X-20855300Y55439066D01*
X-20795232Y55241046D01*
X-20697685Y55058550D01*
X-20696505Y55057112D01*
X-20566411Y54898590D01*
X-20491439Y54837063D01*
X-20406450Y54767315D01*
X-20223954Y54669768D01*
X-20025934Y54609700D01*
X-20025935Y54609700D01*
X-20007471Y54607882D01*
X-19820000Y54589417D01*
X-19614066Y54609700D01*
X-19416046Y54669768D01*
X-19233550Y54767315D01*
X-19073590Y54898590D01*
X-18942315Y55058550D01*
X-18844768Y55241046D01*
X-18784700Y55439066D01*
X-18764417Y55645000D01*
X-18784700Y55850934D01*
X-18844768Y56048954D01*
X-18942315Y56231450D01*
X-19000433Y56302268D01*
X-19073590Y56391411D01*
X-19233548Y56522683D01*
X-19233547Y56522683D01*
X-19233550Y56522685D01*
X-19416046Y56620232D01*
X-19614066Y56680300D01*
X-19614068Y56680301D01*
X-19614066Y56680301D01*
X-19820000Y56700583D01*
X-20025933Y56680301D01*
X-20223957Y56620231D01*
X-20327285Y56565000D01*
X-20406450Y56522685D01*
X-20406452Y56522684D01*
X-20406453Y56522683D01*
X-20566411Y56391411D01*
X-20697683Y56231453D01*
X-20697685Y56231450D01*
X-20725257Y56179866D01*
X-20795231Y56048957D01*
X-20855301Y55850933D01*
X-20875583Y55645000D01*
X-21304417Y55645000D01*
X-21324700Y55850934D01*
X-21384768Y56048954D01*
X-21482315Y56231450D01*
X-21540433Y56302268D01*
X-21613590Y56391411D01*
X-21773548Y56522683D01*
X-21773547Y56522683D01*
X-21773550Y56522685D01*
X-21956046Y56620232D01*
X-22154066Y56680300D01*
X-22154068Y56680301D01*
X-22154066Y56680301D01*
X-22360000Y56700583D01*
X-22565933Y56680301D01*
X-22763957Y56620231D01*
X-22867285Y56565000D01*
X-22946450Y56522685D01*
X-22946452Y56522684D01*
X-22946453Y56522683D01*
X-23106411Y56391411D01*
X-23241549Y56226742D01*
X-23242955Y56227896D01*
X-23290016Y56188569D01*
X-23359342Y56179866D01*
X-23422368Y56210024D01*
X-23459084Y56269469D01*
X-23463500Y56302268D01*
X-23463500Y57527733D01*
X-23443815Y57594772D01*
X-23391011Y57640527D01*
X-23321853Y57650471D01*
X-23258297Y57621446D01*
X-23241958Y57602923D01*
X-23241549Y57603258D01*
X-23106411Y57438590D01*
X-23016491Y57364796D01*
X-22946450Y57307315D01*
X-22763954Y57209768D01*
X-22565934Y57149700D01*
X-22565935Y57149700D01*
X-22547471Y57147882D01*
X-22360000Y57129417D01*
X-22154066Y57149700D01*
X-21956046Y57209768D01*
X-21773550Y57307315D01*
X-21613590Y57438590D01*
X-21482315Y57598550D01*
X-21458046Y57643955D01*
X-21409083Y57693798D01*
X-21348688Y57709500D01*
X-20831312Y57709500D01*
X-20764273Y57689815D01*
X-20721955Y57643955D01*
X-20697685Y57598550D01*
X-20697683Y57598548D01*
X-20566411Y57438590D01*
X-20476491Y57364796D01*
X-20406450Y57307315D01*
X-20223954Y57209768D01*
X-20025934Y57149700D01*
X-20025935Y57149700D01*
X-20007471Y57147882D01*
X-19820000Y57129417D01*
X-19614066Y57149700D01*
X-19416046Y57209768D01*
X-19233550Y57307315D01*
X-19073590Y57438590D01*
X-18942315Y57598550D01*
X-18918046Y57643955D01*
X-18869083Y57693798D01*
X-18808688Y57709500D01*
X-18288500Y57709500D01*
X-18221461Y57689815D01*
X-18175706Y57637011D01*
X-18164500Y57585500D01*
X-18164500Y53653783D01*
X-18164890Y53646845D01*
X-18165453Y53641843D01*
X-18169271Y53607966D01*
X-18158212Y53549521D01*
X-18149348Y53490710D01*
X-18146838Y53482573D01*
X-18144022Y53474525D01*
X-18116223Y53421928D01*
X-18090424Y53368356D01*
X-18085638Y53361335D01*
X-18080569Y53354468D01*
X-18080566Y53354462D01*
X-18080562Y53354458D01*
X-18038505Y53312401D01*
X-17998053Y53268804D01*
X-17990790Y53263012D01*
X-17991311Y53262359D01*
X-17979070Y53252966D01*
X-15052910Y50326807D01*
X-15048274Y50321620D01*
X-15023879Y50291030D01*
X-15023879Y50291029D01*
X-14974729Y50257520D01*
X-14926882Y50222207D01*
X-14919346Y50218224D01*
X-14911681Y50214533D01*
X-14911673Y50214528D01*
X-14854956Y50197034D01*
X-14854823Y50196993D01*
X-14798703Y50177355D01*
X-14798701Y50177355D01*
X-14798699Y50177354D01*
X-14798698Y50177354D01*
X-14790302Y50175766D01*
X-14781905Y50174500D01*
X-14781902Y50174500D01*
X-14722441Y50174500D01*
X-14662991Y50172275D01*
X-14662991Y50172276D01*
X-14662990Y50172275D01*
X-14662990Y50172276D01*
X-14653758Y50173315D01*
X-14653665Y50172487D01*
X-14638361Y50174500D01*
X-3451966Y50174500D01*
X-3384927Y50154815D01*
X-3364285Y50138181D01*
X-2900819Y49674716D01*
X-2867334Y49613393D01*
X-2864500Y49587035D01*
X-2864500Y45712966D01*
X-2884185Y45645927D01*
X-2900819Y45625285D01*
X-3096800Y45429304D01*
X-3118481Y45412017D01*
X-3121174Y45410325D01*
X-3121176Y45410324D01*
X-3152952Y45373400D01*
X-3156105Y45370001D01*
X-3288567Y45237537D01*
X-3366300Y45159803D01*
X-3404284Y45121819D01*
X-3465607Y45088334D01*
X-3491966Y45085500D01*
X-3717588Y45085500D01*
X-3784627Y45105185D01*
X-3794903Y45112555D01*
X-3797737Y45114815D01*
X-3797738Y45114816D01*
X-3883266Y45168557D01*
X-3950477Y45210789D01*
X-4120746Y45270369D01*
X-4120751Y45270370D01*
X-4268673Y45287036D01*
X-4299509Y45299993D01*
X-4322106Y45288428D01*
X-4331327Y45287036D01*
X-4479251Y45270370D01*
X-4479255Y45270369D01*
X-4649524Y45210789D01*
X-4802264Y45114815D01*
X-4805097Y45112555D01*
X-4807276Y45111666D01*
X-4808158Y45111111D01*
X-4808256Y45111266D01*
X-4869783Y45086145D01*
X-4882412Y45085500D01*
X-5717588Y45085500D01*
X-5784627Y45105185D01*
X-5794903Y45112555D01*
X-5797737Y45114815D01*
X-5797738Y45114816D01*
X-5883266Y45168557D01*
X-5950477Y45210789D01*
X-6120746Y45270369D01*
X-6120751Y45270370D01*
X-6268673Y45287036D01*
X-6299509Y45299993D01*
X-6322106Y45288428D01*
X-6331327Y45287036D01*
X-6479251Y45270370D01*
X-6479255Y45270369D01*
X-6649524Y45210789D01*
X-6802263Y45114816D01*
X-6929816Y44987263D01*
X-7025789Y44834524D01*
X-7085369Y44664255D01*
X-7085370Y44664250D01*
X-7105565Y44485004D01*
X-7105565Y44484997D01*
X-7085370Y44305751D01*
X-7085369Y44305746D01*
X-7025789Y44135477D01*
X-6982430Y44066472D01*
X-6929816Y43982738D01*
X-6802262Y43855184D01*
X-6649522Y43759211D01*
X-6479255Y43699632D01*
X-6479250Y43699631D01*
X-6300004Y43679435D01*
X-6300000Y43679435D01*
X-6299996Y43679435D01*
X-6120751Y43699631D01*
X-6120748Y43699632D01*
X-6120745Y43699632D01*
X-5950478Y43759211D01*
X-5797738Y43855184D01*
X-5670184Y43982738D01*
X-5579870Y44126473D01*
X-5527535Y44172763D01*
X-5474876Y44184500D01*
X-5125124Y44184500D01*
X-5058085Y44164815D01*
X-5020131Y44126473D01*
X-4929816Y43982738D01*
X-4802262Y43855184D01*
X-4649522Y43759211D01*
X-4479255Y43699632D01*
X-4479250Y43699631D01*
X-4300004Y43679435D01*
X-4300000Y43679435D01*
X-4299996Y43679435D01*
X-4120751Y43699631D01*
X-4120748Y43699632D01*
X-4120745Y43699632D01*
X-3950478Y43759211D01*
X-3797738Y43855184D01*
X-3670184Y43982738D01*
X-3579870Y44126473D01*
X-3527535Y44172763D01*
X-3474876Y44184500D01*
X-3282783Y44184500D01*
X-3275845Y44184111D01*
X-3243950Y44180517D01*
X-3236966Y44179730D01*
X-3236966Y44179731D01*
X-3236965Y44179730D01*
X-3178521Y44190789D01*
X-3119713Y44199652D01*
X-3119710Y44199654D01*
X-3111553Y44202170D01*
X-3103531Y44204977D01*
X-3103528Y44204977D01*
X-3050928Y44232778D01*
X-2997358Y44258575D01*
X-2997358Y44258576D01*
X-2997356Y44258576D01*
X-2990314Y44263378D01*
X-2983469Y44268431D01*
X-2983462Y44268434D01*
X-2941402Y44310496D01*
X-2907163Y44342264D01*
X-2844636Y44373429D01*
X-2775179Y44365842D01*
X-2735146Y44339043D01*
X-2600819Y44204716D01*
X-2567334Y44143393D01*
X-2564500Y44117035D01*
X-2564500Y33510936D01*
X-3964000Y34775000D01*
X-9416195Y34826680D01*
X-9411043Y34832276D01*
X-7086957Y37156364D01*
X-7067106Y37172484D01*
X-7059331Y37177563D01*
X-7039136Y37203512D01*
X-7034058Y37209263D01*
X-7031625Y37211694D01*
X-7018962Y37229431D01*
X-6987483Y37269874D01*
X-6987481Y37269881D01*
X-6983983Y37276345D01*
X-6980765Y37282928D01*
X-6980760Y37282934D01*
X-6966139Y37332046D01*
X-6949500Y37380512D01*
X-6949500Y37380521D01*
X-6948294Y37387744D01*
X-6947383Y37395048D01*
X-6949500Y37446232D01*
X-6949500Y37723339D01*
X-6929815Y37790378D01*
X-6877011Y37836133D01*
X-6807853Y37846077D01*
X-6759528Y37828333D01*
X-6738645Y37815211D01*
X-6649525Y37759212D01*
X-6479255Y37699632D01*
X-6479250Y37699631D01*
X-6300004Y37679435D01*
X-6300000Y37679435D01*
X-6299996Y37679435D01*
X-6120751Y37699631D01*
X-6120748Y37699632D01*
X-6120745Y37699632D01*
X-5950478Y37759211D01*
X-5797738Y37855184D01*
X-5670184Y37982738D01*
X-5574211Y38135478D01*
X-5514632Y38305745D01*
X-5514407Y38307741D01*
X-5494435Y38484997D01*
X-5105565Y38484997D01*
X-5085370Y38305751D01*
X-5085369Y38305746D01*
X-5025789Y38135477D01*
X-4985233Y38070933D01*
X-4929816Y37982738D01*
X-4802262Y37855184D01*
X-4713828Y37799617D01*
X-4672577Y37773697D01*
X-4649522Y37759211D01*
X-4479255Y37699632D01*
X-4479250Y37699631D01*
X-4300004Y37679435D01*
X-4300000Y37679435D01*
X-4299996Y37679435D01*
X-4120751Y37699631D01*
X-4120748Y37699632D01*
X-4120745Y37699632D01*
X-3950478Y37759211D01*
X-3797738Y37855184D01*
X-3670184Y37982738D01*
X-3574211Y38135478D01*
X-3514632Y38305745D01*
X-3514407Y38307741D01*
X-3494435Y38484997D01*
X-3494435Y38485004D01*
X-3514631Y38664250D01*
X-3514632Y38664255D01*
X-3574212Y38834524D01*
X-3670185Y38987263D01*
X-3797738Y39114816D01*
X-3950477Y39210789D01*
X-4120746Y39270369D01*
X-4120751Y39270370D01*
X-4268673Y39287036D01*
X-4299509Y39299993D01*
X-4322106Y39288428D01*
X-4331327Y39287036D01*
X-4479251Y39270370D01*
X-4479255Y39270369D01*
X-4649524Y39210789D01*
X-4802263Y39114816D01*
X-4929816Y38987263D01*
X-5025789Y38834524D01*
X-5085369Y38664255D01*
X-5085370Y38664250D01*
X-5105565Y38485004D01*
X-5105565Y38484997D01*
X-5494435Y38484997D01*
X-5494435Y38485004D01*
X-5514631Y38664250D01*
X-5514632Y38664255D01*
X-5574212Y38834524D01*
X-5670185Y38987263D01*
X-5797738Y39114816D01*
X-5950477Y39210789D01*
X-6120746Y39270369D01*
X-6120751Y39270370D01*
X-6268673Y39287036D01*
X-6299509Y39299993D01*
X-6322106Y39288428D01*
X-6331327Y39287036D01*
X-6479251Y39270370D01*
X-6479255Y39270369D01*
X-6649524Y39210789D01*
X-6759528Y39141668D01*
X-6826765Y39122668D01*
X-6893600Y39143036D01*
X-6938814Y39196304D01*
X-6949500Y39246662D01*
X-6949500Y39548090D01*
X-6929815Y39615129D01*
X-6877011Y39660884D01*
X-6807853Y39670828D01*
X-6767046Y39657448D01*
X-6665312Y39603069D01*
X-6486231Y39548745D01*
X-6333057Y39533659D01*
X-6300352Y39520453D01*
X-6276184Y39532396D01*
X-6266944Y39533659D01*
X-6113770Y39548745D01*
X-5934689Y39603069D01*
X-5828423Y39659870D01*
X-6278553Y40110000D01*
X-6268927Y40110000D01*
X-6176554Y40125414D01*
X-6066486Y40184981D01*
X-5981722Y40277059D01*
X-5931449Y40391670D01*
X-5925455Y40464008D01*
X-5474871Y40013423D01*
X-5474870Y40013423D01*
X-5418065Y40119698D01*
X-5415737Y40125316D01*
X-5414129Y40124650D01*
X-5380367Y40176172D01*
X-5316556Y40204631D01*
X-5247488Y40194073D01*
X-5195093Y40147851D01*
X-5184716Y40125129D01*
X-5184263Y40125316D01*
X-5181936Y40119698D01*
X-5125131Y40013424D01*
X-4678339Y40460215D01*
X-4678886Y40453605D01*
X-4648163Y40332281D01*
X-4579711Y40227508D01*
X-4480948Y40150637D01*
X-4362576Y40110000D01*
X-4321447Y40110000D01*
X-4771578Y39659870D01*
X-4665312Y39603069D01*
X-4486231Y39548745D01*
X-4333057Y39533659D01*
X-4300352Y39520453D01*
X-4276184Y39532396D01*
X-4266944Y39533659D01*
X-4113770Y39548745D01*
X-3934689Y39603069D01*
X-3828423Y39659870D01*
X-3828423Y39659871D01*
X-4278552Y40110000D01*
X-4268927Y40110000D01*
X-4176554Y40125414D01*
X-4066486Y40184981D01*
X-3981722Y40277059D01*
X-3931449Y40391670D01*
X-3925455Y40464008D01*
X-3474871Y40013423D01*
X-3474870Y40013423D01*
X-3418069Y40119689D01*
X-3363745Y40298770D01*
X-3345404Y40485000D01*
X-3363745Y40671231D01*
X-3418069Y40850312D01*
X-3474870Y40956578D01*
X-3921662Y40509787D01*
X-3921114Y40516395D01*
X-3951837Y40637719D01*
X-4020289Y40742492D01*
X-4119052Y40819363D01*
X-4237424Y40860000D01*
X-4278552Y40860000D01*
X-3828424Y41310131D01*
X-3934689Y41366932D01*
X-4113770Y41421256D01*
X-4266944Y41436342D01*
X-4299650Y41449549D01*
X-4323816Y41437605D01*
X-4333057Y41436342D01*
X-4486231Y41421256D01*
X-4665308Y41366933D01*
X-4771578Y41310131D01*
X-4321447Y40860000D01*
X-4331073Y40860000D01*
X-4423446Y40844586D01*
X-4533514Y40785019D01*
X-4618278Y40692941D01*
X-4668551Y40578330D01*
X-4674546Y40505993D01*
X-5125131Y40956578D01*
X-5181936Y40850303D01*
X-5184264Y40844680D01*
X-5185873Y40845347D01*
X-5219640Y40793823D01*
X-5283453Y40765369D01*
X-5352520Y40775932D01*
X-5404912Y40822158D01*
X-5415285Y40844872D01*
X-5415737Y40844684D01*
X-5418065Y40850303D01*
X-5474870Y40956578D01*
X-5921662Y40509787D01*
X-5921114Y40516395D01*
X-5951837Y40637719D01*
X-6020289Y40742492D01*
X-6119052Y40819363D01*
X-6237424Y40860000D01*
X-6278552Y40860000D01*
X-5828424Y41310131D01*
X-5934689Y41366932D01*
X-6113770Y41421256D01*
X-6266944Y41436342D01*
X-6299650Y41449549D01*
X-6323816Y41437605D01*
X-6333057Y41436342D01*
X-6486231Y41421256D01*
X-6665308Y41366933D01*
X-6771578Y41310131D01*
X-6321447Y40860000D01*
X-6331073Y40860000D01*
X-6423446Y40844586D01*
X-6533514Y40785019D01*
X-6618278Y40692941D01*
X-6668551Y40578330D01*
X-6674546Y40505993D01*
X-7125131Y40956578D01*
X-7181933Y40850308D01*
X-7236256Y40671231D01*
X-7251342Y40518057D01*
X-7277503Y40453269D01*
X-7334538Y40412911D01*
X-7404338Y40409794D01*
X-7464742Y40444909D01*
X-7496573Y40507107D01*
X-7497965Y40516328D01*
X-7497973Y40516395D01*
X-7514632Y40664255D01*
X-7574211Y40834522D01*
X-7580535Y40844586D01*
X-7670185Y40987263D01*
X-7797738Y41114816D01*
X-7950477Y41210789D01*
X-8120746Y41270369D01*
X-8120751Y41270370D01*
X-8299996Y41290565D01*
X-8300004Y41290565D01*
X-8479250Y41270370D01*
X-8479255Y41270369D01*
X-8649524Y41210789D01*
X-8802263Y41114816D01*
X-8929816Y40987263D01*
X-9025789Y40834524D01*
X-9085369Y40664255D01*
X-9085370Y40664250D01*
X-9105565Y40485004D01*
X-9105565Y40484997D01*
X-9085370Y40305751D01*
X-9085369Y40305746D01*
X-9025789Y40135477D01*
X-8929816Y39982738D01*
X-8802262Y39855184D01*
X-8649522Y39759211D01*
X-8559300Y39727641D01*
X-8479255Y39699632D01*
X-8479250Y39699631D01*
X-8300004Y39679435D01*
X-8300000Y39679435D01*
X-8299996Y39679435D01*
X-8120751Y39699631D01*
X-8120748Y39699632D01*
X-8120745Y39699632D01*
X-8120744Y39699633D01*
X-8120741Y39699633D01*
X-8091716Y39709791D01*
X-8011733Y39737778D01*
X-7941957Y39741340D01*
X-7883099Y39708417D01*
X-7686819Y39512137D01*
X-7653334Y39450814D01*
X-7650500Y39424456D01*
X-7650500Y39246662D01*
X-7670185Y39179623D01*
X-7722989Y39133868D01*
X-7792147Y39123924D01*
X-7840472Y39141668D01*
X-7950477Y39210789D01*
X-8120746Y39270369D01*
X-8120751Y39270370D01*
X-8299996Y39290565D01*
X-8300004Y39290565D01*
X-8479250Y39270370D01*
X-8479255Y39270369D01*
X-8649524Y39210789D01*
X-8802263Y39114816D01*
X-8929816Y38987263D01*
X-9025789Y38834524D01*
X-9085369Y38664255D01*
X-9085370Y38664250D01*
X-9105565Y38485004D01*
X-9105565Y38484997D01*
X-9085370Y38305751D01*
X-9085369Y38305746D01*
X-9025789Y38135477D01*
X-8929816Y37982738D01*
X-8802263Y37855185D01*
X-8802260Y37855183D01*
X-8797117Y37851951D01*
X-8750825Y37799617D01*
X-8740176Y37730564D01*
X-8768551Y37666715D01*
X-8775407Y37659276D01*
X-9397863Y37036819D01*
X-9459186Y37003334D01*
X-9485544Y37000500D01*
X-14239789Y37000500D01*
X-14265235Y37003139D01*
X-14266165Y37003334D01*
X-14274315Y37005043D01*
X-14274316Y37005043D01*
X-14274318Y37005043D01*
X-14306939Y37000977D01*
X-14314615Y37000500D01*
X-14318040Y37000500D01*
X-14339543Y36996913D01*
X-14390392Y36990574D01*
X-14397434Y36988478D01*
X-14404380Y36986093D01*
X-14449450Y36961703D01*
X-14495487Y36939197D01*
X-14501462Y36934931D01*
X-14507254Y36930423D01*
X-14541969Y36892713D01*
X-18287863Y33146819D01*
X-18349186Y33113334D01*
X-18375544Y33110500D01*
X-18729417Y33110500D01*
X-18796456Y33130185D01*
X-18842211Y33182989D01*
X-18843979Y33187049D01*
X-18844767Y33188949D01*
X-18844768Y33188954D01*
X-18942315Y33371450D01*
X-19022334Y33468954D01*
X-19073590Y33531411D01*
X-19220903Y33652306D01*
X-19233550Y33662685D01*
X-19416046Y33760232D01*
X-19614066Y33820300D01*
X-19614068Y33820301D01*
X-19614066Y33820301D01*
X-19820000Y33840583D01*
X-20025933Y33820301D01*
X-20223957Y33760231D01*
X-20322348Y33707639D01*
X-20406450Y33662685D01*
X-20406452Y33662684D01*
X-20406453Y33662683D01*
X-20566411Y33531411D01*
X-20697683Y33371453D01*
X-20697685Y33371450D01*
X-20727251Y33316137D01*
X-20795231Y33188957D01*
X-20855301Y32990933D01*
X-20875583Y32785000D01*
X-20855301Y32579068D01*
X-20833617Y32507587D01*
X-20795232Y32381046D01*
X-20697685Y32198550D01*
X-20697683Y32198548D01*
X-20566411Y32038590D01*
X-20469791Y31959298D01*
X-20406450Y31907315D01*
X-20223954Y31809768D01*
X-20025934Y31749700D01*
X-20025935Y31749700D01*
X-20007471Y31747882D01*
X-19820000Y31729417D01*
X-19614066Y31749700D01*
X-19416046Y31809768D01*
X-19233550Y31907315D01*
X-19073590Y32038590D01*
X-18942315Y32198550D01*
X-18864594Y32343954D01*
X-18815631Y32393798D01*
X-18755236Y32409500D01*
X-18228211Y32409500D01*
X-18202766Y32406862D01*
X-18193685Y32404957D01*
X-18177995Y32406913D01*
X-18161061Y32409023D01*
X-18153385Y32409500D01*
X-18149965Y32409500D01*
X-18149960Y32409500D01*
X-18146392Y32410096D01*
X-18128461Y32413087D01*
X-18101042Y32416506D01*
X-18077607Y32419427D01*
X-18077598Y32419432D01*
X-18070549Y32421530D01*
X-18063623Y32423908D01*
X-18063619Y32423908D01*
X-18018556Y32448296D01*
X-17972516Y32470802D01*
X-17972513Y32470806D01*
X-17966547Y32475065D01*
X-17960746Y32479581D01*
X-17960742Y32479582D01*
X-17926043Y32517276D01*
X-14180138Y36263181D01*
X-14118815Y36296666D01*
X-14092457Y36299500D01*
X-9338211Y36299500D01*
X-9312766Y36296862D01*
X-9303685Y36294957D01*
X-9287995Y36296913D01*
X-9271061Y36299023D01*
X-9263385Y36299500D01*
X-9259965Y36299500D01*
X-9259960Y36299500D01*
X-9251926Y36300841D01*
X-9182562Y36292462D01*
X-9128738Y36247912D01*
X-9107544Y36181335D01*
X-9125708Y36113868D01*
X-9143831Y36090852D01*
X-9772863Y35461819D01*
X-9834186Y35428334D01*
X-9860544Y35425500D01*
X-14314794Y35425500D01*
X-14340239Y35428139D01*
X-14349315Y35430042D01*
X-14349318Y35430042D01*
X-14381932Y35425977D01*
X-14389608Y35425500D01*
X-14393040Y35425500D01*
X-14407381Y35423108D01*
X-14414552Y35421911D01*
X-14431379Y35419814D01*
X-14465393Y35415573D01*
X-14465394Y35415573D01*
X-14465399Y35415572D01*
X-14472425Y35413481D01*
X-14479377Y35411094D01*
X-14524445Y35386705D01*
X-14570488Y35364197D01*
X-14576434Y35359952D01*
X-14582258Y35355419D01*
X-14616958Y35317725D01*
X-16227045Y33707639D01*
X-16246894Y33691518D01*
X-16254669Y33686438D01*
X-16274857Y33660502D01*
X-16279933Y33654752D01*
X-16282366Y33652319D01*
X-16282377Y33652306D01*
X-16295046Y33634562D01*
X-16326517Y33594128D01*
X-16330025Y33587647D01*
X-16333240Y33581068D01*
X-16347862Y33531955D01*
X-16364502Y33483484D01*
X-16365706Y33476267D01*
X-16366618Y33468954D01*
X-16364500Y33417770D01*
X-16364500Y31707545D01*
X-16384185Y31640506D01*
X-16400819Y31619864D01*
X-19305492Y28715192D01*
X-19366815Y28681707D01*
X-19429167Y28684212D01*
X-19614066Y28740300D01*
X-19614068Y28740301D01*
X-19614066Y28740301D01*
X-19820000Y28760583D01*
X-20025933Y28740301D01*
X-20187853Y28691183D01*
X-20219981Y28681437D01*
X-20223957Y28680231D01*
X-20334102Y28621357D01*
X-20406450Y28582685D01*
X-20406452Y28582684D01*
X-20406453Y28582683D01*
X-20566411Y28451411D01*
X-20697685Y28291451D01*
X-20697690Y28291445D01*
X-20748680Y28196047D01*
X-20797642Y28146202D01*
X-20858038Y28130500D01*
X-21321962Y28130500D01*
X-21389001Y28150185D01*
X-21431320Y28196047D01*
X-21482311Y28291445D01*
X-21482316Y28291451D01*
X-21482318Y28291453D01*
X-21561771Y28388268D01*
X-21613590Y28451411D01*
X-21734029Y28550251D01*
X-21773550Y28582685D01*
X-21956046Y28680232D01*
X-22154066Y28740300D01*
X-22154068Y28740301D01*
X-22154066Y28740301D01*
X-22360000Y28760583D01*
X-22565933Y28740301D01*
X-22727853Y28691183D01*
X-22759981Y28681437D01*
X-22763957Y28680231D01*
X-22874102Y28621357D01*
X-22946450Y28582685D01*
X-22946452Y28582684D01*
X-22946453Y28582683D01*
X-23106411Y28451411D01*
X-23237683Y28291453D01*
X-23237685Y28291450D01*
X-23238646Y28289652D01*
X-23335231Y28108957D01*
X-23395301Y27910933D01*
X-23415583Y27705000D01*
X-23395301Y27499068D01*
X-23395300Y27499066D01*
X-23335232Y27301046D01*
X-23237685Y27118550D01*
X-23237683Y27118548D01*
X-23106411Y26958590D01*
X-23009791Y26879298D01*
X-22946450Y26827315D01*
X-22763954Y26729768D01*
X-22565934Y26669700D01*
X-22565935Y26669700D01*
X-22547471Y26667882D01*
X-22360000Y26649417D01*
X-22154066Y26669700D01*
X-21956046Y26729768D01*
X-21773550Y26827315D01*
X-21613590Y26958590D01*
X-21482315Y27118550D01*
X-21458046Y27163955D01*
X-21409083Y27213798D01*
X-21348688Y27229500D01*
X-20831312Y27229500D01*
X-20764273Y27209815D01*
X-20721955Y27163955D01*
X-20697685Y27118550D01*
X-20697683Y27118548D01*
X-20566411Y26958590D01*
X-20469791Y26879298D01*
X-20406450Y26827315D01*
X-20223954Y26729768D01*
X-20025934Y26669700D01*
X-20025935Y26669700D01*
X-20007471Y26667882D01*
X-19820000Y26649417D01*
X-19614066Y26669700D01*
X-19416046Y26729768D01*
X-19233550Y26827315D01*
X-19073590Y26958590D01*
X-18942315Y27118550D01*
X-18844768Y27301046D01*
X-18784700Y27499066D01*
X-18764417Y27705000D01*
X-18784700Y27910934D01*
X-18840790Y28095837D01*
X-18841412Y28165702D01*
X-18809811Y28219509D01*
X-15945242Y31084080D01*
X-15914000Y29975000D01*
X-15464845Y29044606D01*
X-15666710Y29044150D01*
X-15764748Y29034326D01*
X-15764754Y29034325D01*
X-15859462Y29015375D01*
X-15859461Y29015375D01*
X-15911333Y29002104D01*
X-15911338Y29002102D01*
X-16041121Y28940011D01*
X-16041131Y28940005D01*
X-16121913Y28886029D01*
X-16165229Y28853603D01*
X-16165236Y28853596D01*
X-16261375Y28746566D01*
X-16261380Y28746560D01*
X-16305919Y28679901D01*
X-16315356Y28665778D01*
X-16322403Y28653900D01*
X-16342963Y28619250D01*
X-16342964Y28619249D01*
X-16390834Y28483557D01*
X-16390834Y28483556D01*
X-16409788Y28388269D01*
X-16409788Y28388268D01*
X-16417587Y28309076D01*
X-16419322Y28291453D01*
X-16419500Y28289650D01*
X-16419500Y22968620D01*
X-16419473Y22964098D01*
X-16419473Y22964086D01*
X-16408537Y22862485D01*
X-16388431Y22767440D01*
X-16388431Y22767441D01*
X-16374414Y22715177D01*
X-16374413Y22715174D01*
X-16310750Y22586146D01*
X-16310748Y22586144D01*
X-16255802Y22506029D01*
X-16223161Y22463509D01*
X-16222843Y22463096D01*
X-16114647Y22368254D01*
X-16033217Y22315261D01*
X-15986351Y22288217D01*
X-15850096Y22241997D01*
X-15754585Y22224199D01*
X-15754571Y22224198D01*
X-15754566Y22224197D01*
X-15726615Y22221787D01*
X-15655855Y22215682D01*
X-14260937Y22232590D01*
X-4267063Y22232590D01*
X-3121095Y22218700D01*
X-3120946Y22218700D01*
X-3116515Y22218673D01*
X-3116505Y22218674D01*
X-3116501Y22218674D01*
X-3080860Y22222078D01*
X-3014882Y22228377D01*
X-2919594Y22247331D01*
X-2919587Y22247333D01*
X-2919581Y22247334D01*
X-2867173Y22260711D01*
X-2867174Y22260711D01*
X-2867165Y22260713D01*
X-2742014Y22320589D01*
X-2673046Y22331764D01*
X-2608982Y22303878D01*
X-2570165Y22245783D01*
X-2564500Y22208731D01*
X-2564500Y13492966D01*
X-2584185Y13425927D01*
X-2600819Y13405285D01*
X-3664284Y12341819D01*
X-3725607Y12308334D01*
X-3751965Y12305500D01*
X-4537743Y12305500D01*
X-4604782Y12325185D01*
X-4610100Y12328925D01*
X-4611164Y12329539D01*
X-4757235Y12390043D01*
X-4757240Y12390045D01*
X-4913999Y12410682D01*
X-4914001Y12410682D01*
X-5070761Y12390045D01*
X-5070763Y12390044D01*
X-5216840Y12329537D01*
X-5342282Y12233282D01*
X-5438537Y12107840D01*
X-5499044Y11961763D01*
X-5499045Y11961761D01*
X-5519682Y11805002D01*
X-5519682Y11804999D01*
X-5499045Y11648240D01*
X-5499044Y11648238D01*
X-5438536Y11502159D01*
X-5342282Y11376718D01*
X-5216841Y11280464D01*
X-5070762Y11219956D01*
X-4992381Y11209637D01*
X-4914001Y11199318D01*
X-4914000Y11199318D01*
X-4913999Y11199318D01*
X-4861746Y11206198D01*
X-4757238Y11219956D01*
X-4611159Y11280464D01*
X-4485718Y11376718D01*
X-4485717Y11376721D01*
X-4482907Y11378876D01*
X-4417737Y11404070D01*
X-4407420Y11404500D01*
X-3542783Y11404500D01*
X-3535845Y11404111D01*
X-3503950Y11400517D01*
X-3496966Y11399730D01*
X-3496966Y11399731D01*
X-3496965Y11399730D01*
X-3438521Y11410789D01*
X-3379713Y11419652D01*
X-3379710Y11419654D01*
X-3371553Y11422170D01*
X-3363531Y11424977D01*
X-3363528Y11424977D01*
X-3310928Y11452778D01*
X-3257358Y11478575D01*
X-3257358Y11478576D01*
X-3257356Y11478576D01*
X-3250305Y11483384D01*
X-3243462Y11488434D01*
X-3201401Y11530496D01*
X-3157806Y11570945D01*
X-3157804Y11570950D01*
X-3152013Y11578210D01*
X-3151357Y11577687D01*
X-3141968Y11589930D01*
X-1815795Y12916104D01*
X-1810627Y12920723D01*
X-1780030Y12945121D01*
X-1746520Y12994272D01*
X-1711207Y13042118D01*
X-1711206Y13042121D01*
X-1707213Y13049676D01*
X-1703530Y13057324D01*
X-1703530Y13057325D01*
X-1703528Y13057327D01*
X-1685993Y13114178D01*
X-1666354Y13170301D01*
X-1664768Y13178689D01*
X-1663500Y13187096D01*
X-1663500Y13246574D01*
X-1661276Y13306008D01*
X-1662316Y13315239D01*
X-1661487Y13315333D01*
X-1663500Y13330634D01*
X-1663500Y44326219D01*
X-1663111Y44333156D01*
X-1658730Y44372035D01*
X-1669790Y44430489D01*
X-1678652Y44489287D01*
X-1678653Y44489289D01*
X-1678653Y44489291D01*
X-1681169Y44497448D01*
X-1683975Y44505469D01*
X-1686248Y44509770D01*
X-1711778Y44558074D01*
X-1737575Y44611642D01*
X-1737578Y44611645D01*
X-1737578Y44611646D01*
X-1742358Y44618658D01*
X-1747433Y44625535D01*
X-1747434Y44625537D01*
X-1789484Y44667587D01*
X-1829945Y44711194D01*
X-1837208Y44716986D01*
X-1836688Y44717639D01*
X-1848933Y44727036D01*
X-2097070Y44975173D01*
X-2130555Y45036496D01*
X-2125571Y45106188D01*
X-2086699Y45159803D01*
X-2080030Y45165121D01*
X-2046520Y45214272D01*
X-2011207Y45262118D01*
X-2011206Y45262121D01*
X-2007213Y45269676D01*
X-2003530Y45277324D01*
X-2003530Y45277325D01*
X-2003528Y45277327D01*
X-1985993Y45334178D01*
X-1966354Y45390301D01*
X-1964772Y45398664D01*
X-1963500Y45407101D01*
X-1963500Y45466559D01*
X-1961275Y45526010D01*
X-1962315Y45535242D01*
X-1961487Y45535336D01*
X-1963500Y45550639D01*
X-1963500Y49796219D01*
X-1963111Y49803156D01*
X-1958730Y49842035D01*
X-1969790Y49900492D01*
X-1978652Y49959287D01*
X-1978653Y49959289D01*
X-1978653Y49959291D01*
X-1981171Y49967455D01*
X-1983976Y49975468D01*
X-1983976Y49975472D01*
X-2011784Y50028085D01*
X-2037575Y50081642D01*
X-2042380Y50088690D01*
X-2047433Y50095535D01*
X-2047434Y50095538D01*
X-2089496Y50137600D01*
X-2129945Y50181194D01*
X-2129946Y50181195D01*
X-2129947Y50181196D01*
X-2137210Y50186988D01*
X-2136690Y50187641D01*
X-2148930Y50197034D01*
X-2875092Y50923195D01*
X-2879729Y50928383D01*
X-2904122Y50958971D01*
X-2953272Y50992481D01*
X-3001118Y51027793D01*
X-3008703Y51031802D01*
X-3016323Y51035471D01*
X-3040839Y51043033D01*
X-3073178Y51053008D01*
X-3093846Y51060240D01*
X-3129305Y51072648D01*
X-3137674Y51074232D01*
X-3146096Y51075500D01*
X-3146098Y51075500D01*
X-3205574Y51075500D01*
X-3265010Y51077725D01*
X-3274244Y51076684D01*
X-3274338Y51077514D01*
X-3289636Y51075500D01*
X-14476035Y51075500D01*
X-14543074Y51095185D01*
X-14563716Y51111819D01*
X-17227181Y53775284D01*
X-17260666Y53836607D01*
X-17263500Y53862965D01*
X-17263500Y57719978D01*
X-16469500Y57719978D01*
X-16469473Y57715456D01*
X-16469473Y57715444D01*
X-16458537Y57613843D01*
X-16438431Y57518798D01*
X-16438431Y57518799D01*
X-16424414Y57466535D01*
X-16424413Y57466532D01*
X-16360750Y57337504D01*
X-16360748Y57337502D01*
X-16305802Y57257387D01*
X-16273699Y57215568D01*
X-16272843Y57214454D01*
X-16164647Y57119612D01*
X-16083217Y57066619D01*
X-16083212Y57066617D01*
X-16083212Y57066616D01*
X-16063072Y57054994D01*
X-16036351Y57039575D01*
X-15900096Y56993355D01*
X-15804585Y56975557D01*
X-15804571Y56975556D01*
X-15804566Y56975555D01*
X-15776615Y56973145D01*
X-15705855Y56967040D01*
X-15554012Y56968881D01*
X-16011503Y56688483D01*
X-16161503Y52838483D01*
X-14611503Y51438483D01*
X-4061503Y51338483D01*
X-2561503Y52688483D01*
X-2661503Y56238483D01*
X-3013757Y56968151D01*
X-2920595Y56967021D01*
X-2920446Y56967021D01*
X-2916015Y56966994D01*
X-2916005Y56966995D01*
X-2916001Y56966995D01*
X-2880360Y56970399D01*
X-2814382Y56976698D01*
X-2719094Y56995652D01*
X-2719087Y56995654D01*
X-2719081Y56995655D01*
X-2666673Y57009032D01*
X-2666674Y57009032D01*
X-2666665Y57009034D01*
X-2536874Y57071129D01*
X-2464310Y57119614D01*
X-2456087Y57125108D01*
X-2433432Y57142068D01*
X-2412767Y57157538D01*
X-2316620Y57264577D01*
X-2262644Y57345359D01*
X-2235034Y57391894D01*
X-2187167Y57527579D01*
X-2168213Y57622867D01*
X-2158500Y57721485D01*
X-2158501Y63070449D01*
X-2168438Y63170186D01*
X-2187607Y63265431D01*
X-2201107Y63317831D01*
X-2263496Y63447481D01*
X-2317654Y63528140D01*
X-2317663Y63528152D01*
X-2317662Y63528152D01*
X-2350181Y63571389D01*
X-2439253Y63651035D01*
X-2457436Y63667294D01*
X-2538339Y63721088D01*
X-2538344Y63721091D01*
X-2538343Y63721091D01*
X-2584939Y63748595D01*
X-2720717Y63796151D01*
X-2720738Y63796157D01*
X-2816033Y63814890D01*
X-2816053Y63814893D01*
X-2851240Y63818279D01*
X-2914698Y63824385D01*
X-2914702Y63824385D01*
X-2914712Y63824386D01*
X-15716710Y63795508D01*
X-15814748Y63785684D01*
X-15814754Y63785683D01*
X-15909462Y63766733D01*
X-15909461Y63766733D01*
X-15961333Y63753462D01*
X-15961338Y63753460D01*
X-16091121Y63691369D01*
X-16091131Y63691363D01*
X-16171913Y63637387D01*
X-16215229Y63604961D01*
X-16215236Y63604954D01*
X-16311375Y63497924D01*
X-16311380Y63497918D01*
X-16345080Y63447481D01*
X-16365356Y63417136D01*
X-16377042Y63397441D01*
X-16392963Y63370608D01*
X-16392964Y63370607D01*
X-16440834Y63234915D01*
X-16440834Y63234914D01*
X-16459788Y63139627D01*
X-16459788Y63139626D01*
X-16469500Y63041008D01*
X-16469500Y57719978D01*
X-17263500Y57719978D01*
X-17263500Y58095267D01*
X-17260391Y58122861D01*
X-17259685Y58125955D01*
X-17260067Y58131043D01*
X-17263328Y58174561D01*
X-17263500Y58179179D01*
X-17263500Y63860218D01*
X-17263111Y63867157D01*
X-17258730Y63906035D01*
X-17269789Y63964480D01*
X-17278652Y64023287D01*
X-17278653Y64023289D01*
X-17281164Y64031429D01*
X-17283976Y64039467D01*
X-17283977Y64039472D01*
X-17311774Y64092064D01*
X-17337575Y64145642D01*
X-17337578Y64145645D01*
X-17337579Y64145648D01*
X-17342358Y64152658D01*
X-17347432Y64159531D01*
X-17347435Y64159538D01*
X-17389484Y64201587D01*
X-17429945Y64245194D01*
X-17437208Y64250986D01*
X-17436688Y64251639D01*
X-17448933Y64261036D01*
X-17819319Y64631422D01*
X-17852804Y64692745D01*
X-17854575Y64702903D01*
X-17864956Y64781762D01*
X-17925464Y64927841D01*
X-18021718Y65053282D01*
X-18147159Y65149536D01*
X-18293238Y65210044D01*
X-18293240Y65210045D01*
X-18449999Y65230682D01*
X-18450001Y65230682D01*
X-18606761Y65210045D01*
X-18606763Y65210044D01*
X-18752840Y65149537D01*
X-18878282Y65053282D01*
X-18974537Y64927840D01*
X-19035044Y64781763D01*
X-19035045Y64781761D01*
X-19055682Y64625002D01*
X-19055682Y64624999D01*
X-19035045Y64468240D01*
X-19035044Y64468238D01*
X-18974536Y64322159D01*
X-18878282Y64196718D01*
X-18752841Y64100464D01*
X-18606762Y64039956D01*
X-18527918Y64029577D01*
X-18464023Y64001311D01*
X-18456423Y63994319D01*
X-18325804Y63863700D01*
X-18200819Y63738716D01*
X-18167334Y63677393D01*
X-18164500Y63651035D01*
X-18164500Y58734500D01*
X-18184185Y58667461D01*
X-18236989Y58621706D01*
X-18288500Y58610500D01*
X-18781962Y58610500D01*
X-18849001Y58630185D01*
X-18891320Y58676047D01*
X-18942311Y58771445D01*
X-18942316Y58771451D01*
X-19073590Y58931411D01*
X-19233548Y59062683D01*
X-19233547Y59062683D01*
X-19233550Y59062685D01*
X-19416046Y59160232D01*
X-19614066Y59220300D01*
X-19614068Y59220301D01*
X-19614066Y59220301D01*
X-19820000Y59240583D01*
X-20025933Y59220301D01*
X-20223957Y59160231D01*
X-20334102Y59101357D01*
X-20406450Y59062685D01*
X-20406452Y59062684D01*
X-20406453Y59062683D01*
X-20566411Y58931411D01*
X-20697685Y58771451D01*
X-20697690Y58771445D01*
X-20748680Y58676047D01*
X-20797642Y58626202D01*
X-20858038Y58610500D01*
X-21321962Y58610500D01*
X-21389001Y58630185D01*
X-21431320Y58676047D01*
X-21482311Y58771445D01*
X-21482316Y58771451D01*
X-21613590Y58931411D01*
X-21773548Y59062683D01*
X-21773547Y59062683D01*
X-21773550Y59062685D01*
X-21956046Y59160232D01*
X-22154066Y59220300D01*
X-22154068Y59220301D01*
X-22154066Y59220301D01*
X-22360000Y59240583D01*
X-22565933Y59220301D01*
X-22763957Y59160231D01*
X-22874102Y59101357D01*
X-22946450Y59062685D01*
X-22946452Y59062684D01*
X-22946453Y59062683D01*
X-23106411Y58931411D01*
X-23241549Y58766742D01*
X-23242955Y58767896D01*
X-23290016Y58728569D01*
X-23359342Y58719866D01*
X-23422368Y58750024D01*
X-23459084Y58809469D01*
X-23463500Y58842268D01*
X-23463500Y59908018D01*
X-23443815Y59975057D01*
X-23391011Y60020812D01*
X-23321853Y60030756D01*
X-23258297Y60001731D01*
X-23240545Y59982744D01*
X-23213499Y59946929D01*
X-23056000Y59803349D01*
X-23055998Y59803347D01*
X-22874799Y59691154D01*
X-22874793Y59691151D01*
X-22676059Y59614162D01*
X-22610000Y59601814D01*
X-22610000Y60289499D01*
X-22502315Y60240320D01*
X-22395763Y60225000D01*
X-22324237Y60225000D01*
X-22217685Y60240320D01*
X-22110000Y60289499D01*
X-22110000Y59601815D01*
X-22043942Y59614162D01*
X-21845208Y59691151D01*
X-21845202Y59691154D01*
X-21664003Y59803347D01*
X-21664001Y59803349D01*
X-21506501Y59946929D01*
X-21378060Y60117011D01*
X-21283067Y60307784D01*
X-21283059Y60307804D01*
X-21224739Y60512781D01*
X-21224738Y60512785D01*
X-21217471Y60591211D01*
X-21191685Y60656149D01*
X-21134885Y60696837D01*
X-21065104Y60700357D01*
X-21004497Y60665592D01*
X-20972307Y60603580D01*
X-20970000Y60579771D01*
X-20970000Y59830215D01*
X-20969998Y59830192D01*
X-20967092Y59805131D01*
X-20967091Y59805127D01*
X-20921789Y59702526D01*
X-20921786Y59702521D01*
X-20842480Y59623215D01*
X-20842475Y59623212D01*
X-20739877Y59577911D01*
X-20714794Y59575001D01*
X-20070001Y59575001D01*
X-20070000Y59575002D01*
X-20070000Y60289499D01*
X-19962315Y60240320D01*
X-19855763Y60225000D01*
X-19784237Y60225000D01*
X-19677685Y60240320D01*
X-19570000Y60289499D01*
X-19570000Y59575001D01*
X-18925214Y59575001D01*
X-18925192Y59575003D01*
X-18900131Y59577909D01*
X-18900127Y59577910D01*
X-18797526Y59623212D01*
X-18797521Y59623215D01*
X-18718215Y59702521D01*
X-18718212Y59702526D01*
X-18672911Y59805123D01*
X-18672911Y59805125D01*
X-18670001Y59830206D01*
X-18670000Y59830209D01*
X-18670000Y60475000D01*
X-19386314Y60475000D01*
X-19360507Y60515156D01*
X-19320000Y60653111D01*
X-19320000Y60796889D01*
X-19360507Y60934844D01*
X-19386314Y60975000D01*
X-18670001Y60975000D01*
X-18670001Y61619786D01*
X-18670003Y61619809D01*
X-18672909Y61644870D01*
X-18672910Y61644874D01*
X-18718212Y61747475D01*
X-18718215Y61747480D01*
X-18797521Y61826786D01*
X-18797526Y61826789D01*
X-18900124Y61872090D01*
X-18925206Y61875000D01*
X-19570000Y61875000D01*
X-19570000Y61160502D01*
X-19677685Y61209680D01*
X-19784237Y61225000D01*
X-19855763Y61225000D01*
X-19962315Y61209680D01*
X-20070000Y61160502D01*
X-20070000Y61875000D01*
X-20714786Y61875000D01*
X-20714809Y61874998D01*
X-20739870Y61872092D01*
X-20739874Y61872091D01*
X-20842475Y61826789D01*
X-20842480Y61826786D01*
X-20921786Y61747480D01*
X-20921789Y61747475D01*
X-20967090Y61644878D01*
X-20967090Y61644876D01*
X-20970000Y61619795D01*
X-20970000Y60870232D01*
X-20989685Y60803193D01*
X-21042489Y60757438D01*
X-21111647Y60747494D01*
X-21175203Y60776519D01*
X-21212977Y60835297D01*
X-21217471Y60858791D01*
X-21224738Y60937217D01*
X-21224739Y60937220D01*
X-21283059Y61142197D01*
X-21283067Y61142217D01*
X-21378060Y61332990D01*
X-21506501Y61503072D01*
X-21664001Y61646652D01*
X-21664003Y61646654D01*
X-21845202Y61758847D01*
X-21845211Y61758851D01*
X-22043937Y61835837D01*
X-22043942Y61835838D01*
X-22110000Y61848187D01*
X-22110000Y61160502D01*
X-22217685Y61209680D01*
X-22324237Y61225000D01*
X-22395763Y61225000D01*
X-22502315Y61209680D01*
X-22610000Y61160502D01*
X-22610000Y61848187D01*
X-22676059Y61835838D01*
X-22676064Y61835837D01*
X-22874790Y61758851D01*
X-22874799Y61758847D01*
X-23055998Y61646654D01*
X-23056000Y61646652D01*
X-23213500Y61503072D01*
X-23240546Y61467256D01*
X-23296656Y61425620D01*
X-23366368Y61420929D01*
X-23427549Y61454671D01*
X-23460776Y61516135D01*
X-23463500Y61541983D01*
X-23463500Y66758456D01*
X-23443815Y66825495D01*
X-23427181Y66846137D01*
X-23286081Y66987237D01*
X-11154213Y66987237D01*
X-11124587Y66717987D01*
X-11124585Y66717976D01*
X-11056074Y66455918D01*
X-11056072Y66455912D01*
X-10950130Y66206610D01*
X-10878002Y66088425D01*
X-10809021Y65975395D01*
X-10809014Y65975385D01*
X-10635747Y65767181D01*
X-10635741Y65767176D01*
X-10434002Y65586418D01*
X-10208090Y65436956D01*
X-9962824Y65321980D01*
X-9962817Y65321978D01*
X-9962815Y65321977D01*
X-9703443Y65243943D01*
X-9703436Y65243942D01*
X-9703431Y65243940D01*
X-9435439Y65204500D01*
X-9435434Y65204500D01*
X-9232364Y65204500D01*
X-9180867Y65208270D01*
X-9029844Y65219323D01*
X-8917242Y65244407D01*
X-8765454Y65278218D01*
X-8765452Y65278219D01*
X-8765447Y65278220D01*
X-8512442Y65374986D01*
X-8276223Y65507559D01*
X-8061823Y65673112D01*
X-7873814Y65868119D01*
X-7716201Y66088421D01*
X-7642213Y66232331D01*
X-7592351Y66329310D01*
X-7592349Y66329316D01*
X-7592344Y66329325D01*
X-7504882Y66585695D01*
X-7455681Y66852067D01*
X-7445788Y67122765D01*
X-7475414Y67392018D01*
X-7543928Y67654088D01*
X-7649870Y67903390D01*
X-7790982Y68134610D01*
X-7880253Y68241881D01*
X-7964254Y68342820D01*
X-7964260Y68342825D01*
X-8165998Y68523582D01*
X-8391908Y68673043D01*
X-8405761Y68679537D01*
X-8637176Y68788020D01*
X-8637181Y68788022D01*
X-8637186Y68788024D01*
X-8896558Y68866058D01*
X-8896572Y68866061D01*
X-9012209Y68883079D01*
X-9164561Y68905500D01*
X-9367631Y68905500D01*
X-9367636Y68905500D01*
X-9570156Y68890677D01*
X-9570169Y68890675D01*
X-9834547Y68831783D01*
X-9834554Y68831780D01*
X-10087561Y68735013D01*
X-10323774Y68602443D01*
X-10538178Y68436888D01*
X-10726178Y68241891D01*
X-10726184Y68241884D01*
X-10883798Y68021581D01*
X-10883801Y68021576D01*
X-11007650Y67780691D01*
X-11007657Y67780673D01*
X-11095116Y67524315D01*
X-11095119Y67524301D01*
X-11144319Y67257932D01*
X-11144320Y67257925D01*
X-11154213Y66987237D01*
X-23286081Y66987237D01*
X-22505137Y67768181D01*
X-22443814Y67801666D01*
X-22417456Y67804500D01*
X-20363116Y67804500D01*
X-20296077Y67784815D01*
X-20264743Y67755990D01*
X-20242282Y67726718D01*
X-20116841Y67630464D01*
X-19970762Y67569956D01*
X-19892381Y67559637D01*
X-19814001Y67549318D01*
X-19814000Y67549318D01*
X-19813999Y67549318D01*
X-19761746Y67556198D01*
X-19657238Y67569956D01*
X-19511159Y67630464D01*
X-19385718Y67726718D01*
X-19289464Y67852159D01*
X-19228956Y67998238D01*
X-19208318Y68155000D01*
X-19228956Y68311762D01*
X-19289464Y68457841D01*
X-19385718Y68583282D01*
X-19511159Y68679536D01*
X-19645095Y68735014D01*
X-19657238Y68740044D01*
X-19657240Y68740045D01*
X-19813999Y68760682D01*
X-19814001Y68760682D01*
X-19970761Y68740045D01*
X-19970763Y68740044D01*
X-20116840Y68679537D01*
X-20116841Y68679536D01*
X-20242282Y68583282D01*
X-20264742Y68554012D01*
X-20321168Y68512811D01*
X-20363116Y68505500D01*
X-22564794Y68505500D01*
X-22590239Y68508139D01*
X-22599315Y68510042D01*
X-22599318Y68510042D01*
X-22631932Y68505977D01*
X-22639608Y68505500D01*
X-22643040Y68505500D01*
X-22657381Y68503108D01*
X-22664552Y68501911D01*
X-22681379Y68499814D01*
X-22715393Y68495573D01*
X-22715394Y68495573D01*
X-22715399Y68495572D01*
X-22722425Y68493481D01*
X-22729377Y68491094D01*
X-22774445Y68466705D01*
X-22820488Y68444197D01*
X-22826434Y68439952D01*
X-22832258Y68435419D01*
X-22866958Y68397725D01*
X-24027045Y67237639D01*
X-24046894Y67221518D01*
X-24054669Y67216438D01*
X-24074857Y67190502D01*
X-24079933Y67184752D01*
X-24082366Y67182319D01*
X-24082377Y67182306D01*
X-24095046Y67164562D01*
X-24126517Y67124128D01*
X-24130025Y67117647D01*
X-24133240Y67111068D01*
X-24147862Y67061955D01*
X-24164502Y67013484D01*
X-24165706Y67006267D01*
X-24166618Y66998954D01*
X-24164500Y66947770D01*
X-24164500Y54904212D01*
X-24167139Y54878768D01*
X-24169043Y54869689D01*
X-24169043Y54869683D01*
X-24913500Y54869683D01*
X-24913500Y83396313D01*
X-11410500Y83396313D01*
X-11390206Y83261677D01*
X-11371396Y83136885D01*
X-11371395Y83136883D01*
X-11371394Y83136877D01*
X-11294062Y82886174D01*
X-11180233Y82649804D01*
X-11180232Y82649803D01*
X-11180230Y82649800D01*
X-11180228Y82649796D01*
X-11032433Y82433021D01*
X-10853986Y82240699D01*
X-10853982Y82240696D01*
X-10853981Y82240695D01*
X-10648857Y82077114D01*
X-10421643Y81945932D01*
X-10177416Y81850080D01*
X-9921630Y81791698D01*
X-9921624Y81791698D01*
X-9921621Y81791697D01*
X-9725500Y81777000D01*
X-9725494Y81777000D01*
X-9594500Y81777000D01*
X-9398380Y81791697D01*
X-9398378Y81791698D01*
X-9398370Y81791698D01*
X-9142584Y81850080D01*
X-8898357Y81945932D01*
X-8671143Y82077114D01*
X-8466019Y82240695D01*
X-8287567Y82433021D01*
X-8139772Y82649796D01*
X-8025937Y82886177D01*
X-7948604Y83136885D01*
X-7909500Y83396318D01*
X-7909500Y83658682D01*
X-7948604Y83918115D01*
X-8025937Y84168823D01*
X-8037879Y84193620D01*
X-8139768Y84405197D01*
X-8139769Y84405198D01*
X-8139770Y84405199D01*
X-8139772Y84405204D01*
X-8287567Y84621979D01*
X-8297559Y84632747D01*
X-8466015Y84814302D01*
X-8505467Y84845764D01*
X-8671143Y84977886D01*
X-8898357Y85109068D01*
X-9142584Y85204920D01*
X-9142589Y85204922D01*
X-9142598Y85204924D01*
X-9360182Y85254586D01*
X-9398370Y85263302D01*
X-9398371Y85263303D01*
X-9398375Y85263303D01*
X-9398380Y85263304D01*
X-9594500Y85278000D01*
X-9594506Y85278000D01*
X-9725494Y85278000D01*
X-9725500Y85278000D01*
X-9921621Y85263304D01*
X-9921626Y85263303D01*
X-10177403Y85204924D01*
X-10177422Y85204918D01*
X-10421644Y85109068D01*
X-10648857Y84977886D01*
X-10853986Y84814302D01*
X-11032433Y84621980D01*
X-11180232Y84405198D01*
X-11180233Y84405197D01*
X-11294062Y84168827D01*
X-11371394Y83918124D01*
X-11371395Y83918119D01*
X-11371396Y83918115D01*
X-11386147Y83820253D01*
X-11410500Y83658688D01*
X-11410500Y83396313D01*
X-24913500Y83396313D01*
X-24913500Y85700354D01*
X-24893815Y85767393D01*
X-24841011Y85813148D01*
X-24789377Y85824353D01*
X-1437870Y85800129D01*
G37*
%TD.AperFunction*%
%TD*%
%TA.AperFunction,Conductor*%
%TO.N,GND*%
G36*
X-6123132Y56993661D02*
G01*
X-6024514Y56983948D01*
X-6024512Y56983948D01*
X-5066181Y56983948D01*
X-5047582Y56984633D01*
X-5001765Y56988013D01*
X-4966631Y56995451D01*
X-4896968Y56990078D01*
X-4853268Y56961821D01*
X-4441366Y56549919D01*
X-4445161Y56549373D01*
X-4578562Y56488451D01*
X-4689395Y56392413D01*
X-4768682Y56269040D01*
X-4791134Y56192580D01*
X-5169467Y56570913D01*
X-5237632Y56443382D01*
X-5295387Y56252992D01*
X-5314887Y56055000D01*
X-5295387Y55857009D01*
X-5237632Y55666619D01*
X-5169467Y55539089D01*
X-4791134Y55917422D01*
X-4768682Y55840960D01*
X-4689395Y55717587D01*
X-4578562Y55621549D01*
X-4445161Y55560627D01*
X-4441366Y55560082D01*
X-4815913Y55185535D01*
X-4688380Y55117368D01*
X-4497992Y55059614D01*
X-4300000Y55040114D01*
X-4102009Y55059614D01*
X-3911614Y55117370D01*
X-3784089Y55185534D01*
X-3784089Y55185535D01*
X-4158634Y55560082D01*
X-4154839Y55560627D01*
X-4021438Y55621549D01*
X-3910605Y55717587D01*
X-3831318Y55840960D01*
X-3808867Y55917421D01*
X-3430535Y55539089D01*
X-3430534Y55539089D01*
X-3362370Y55666614D01*
X-3304614Y55857009D01*
X-3285114Y56055000D01*
X-3304614Y56252992D01*
X-3362368Y56443380D01*
X-3430535Y56570913D01*
X-3808867Y56192581D01*
X-3831318Y56269040D01*
X-3910605Y56392413D01*
X-4021438Y56488451D01*
X-4154839Y56549373D01*
X-4158635Y56549919D01*
X-3755083Y56953473D01*
X-3693760Y56986958D01*
X-3641733Y56987105D01*
X-3633569Y56985378D01*
X-3559154Y56977137D01*
X-3535084Y56974471D01*
X-3535083Y56974471D01*
X-3535074Y56974470D01*
X-3013757Y56968151D01*
X-2661503Y56238483D01*
X-2561503Y52688483D01*
X-4061503Y51338483D01*
X-14611503Y51438483D01*
X-16161503Y52838483D01*
X-16153067Y53055000D01*
X-15314887Y53055000D01*
X-15295387Y52857009D01*
X-15237632Y52666619D01*
X-15169467Y52539089D01*
X-14791134Y52917422D01*
X-14768682Y52840960D01*
X-14689395Y52717587D01*
X-14578562Y52621549D01*
X-14445161Y52560627D01*
X-14441366Y52560082D01*
X-14815913Y52185535D01*
X-14688380Y52117368D01*
X-14497992Y52059614D01*
X-14300000Y52040114D01*
X-14102009Y52059614D01*
X-13911614Y52117370D01*
X-13784089Y52185534D01*
X-13784089Y52185535D01*
X-14158634Y52560082D01*
X-14154839Y52560627D01*
X-14021438Y52621549D01*
X-13910605Y52717587D01*
X-13831318Y52840960D01*
X-13808867Y52917421D01*
X-13430535Y52539089D01*
X-13430534Y52539089D01*
X-13362370Y52666614D01*
X-13304614Y52857009D01*
X-13285114Y53055000D01*
X-12814887Y53055000D01*
X-12795387Y52857009D01*
X-12737632Y52666619D01*
X-12669467Y52539089D01*
X-12291134Y52917422D01*
X-12268682Y52840960D01*
X-12189395Y52717587D01*
X-12078562Y52621549D01*
X-11945161Y52560627D01*
X-11941366Y52560082D01*
X-12315913Y52185535D01*
X-12188380Y52117368D01*
X-11997992Y52059614D01*
X-11800000Y52040114D01*
X-11602009Y52059614D01*
X-11411614Y52117370D01*
X-11284089Y52185534D01*
X-11284089Y52185535D01*
X-11658634Y52560082D01*
X-11654839Y52560627D01*
X-11521438Y52621549D01*
X-11410605Y52717587D01*
X-11331318Y52840960D01*
X-11308867Y52917420D01*
X-10930535Y52539089D01*
X-10930534Y52539089D01*
X-10862370Y52666614D01*
X-10804614Y52857009D01*
X-10785114Y53055000D01*
X-10314887Y53055000D01*
X-10295387Y52857009D01*
X-10237632Y52666619D01*
X-10169467Y52539089D01*
X-9791134Y52917422D01*
X-9768682Y52840960D01*
X-9689395Y52717587D01*
X-9578562Y52621549D01*
X-9445161Y52560627D01*
X-9441366Y52560082D01*
X-9815913Y52185535D01*
X-9688380Y52117368D01*
X-9497992Y52059614D01*
X-9300000Y52040114D01*
X-9102009Y52059614D01*
X-8911614Y52117370D01*
X-8784089Y52185534D01*
X-8784089Y52185535D01*
X-9158634Y52560082D01*
X-9154839Y52560627D01*
X-9021438Y52621549D01*
X-8910605Y52717587D01*
X-8831318Y52840960D01*
X-8808867Y52917421D01*
X-8430535Y52539089D01*
X-8430534Y52539089D01*
X-8362370Y52666614D01*
X-8304614Y52857009D01*
X-8285114Y53055000D01*
X-7814887Y53055000D01*
X-7795387Y52857009D01*
X-7737632Y52666619D01*
X-7669467Y52539089D01*
X-7291134Y52917422D01*
X-7268682Y52840960D01*
X-7189395Y52717587D01*
X-7078562Y52621549D01*
X-6945161Y52560627D01*
X-6941366Y52560082D01*
X-7315913Y52185535D01*
X-7188380Y52117368D01*
X-6997992Y52059614D01*
X-6800000Y52040114D01*
X-6602009Y52059614D01*
X-6411614Y52117370D01*
X-6284089Y52185534D01*
X-6284089Y52185535D01*
X-6658634Y52560082D01*
X-6654839Y52560627D01*
X-6521438Y52621549D01*
X-6410605Y52717587D01*
X-6331318Y52840960D01*
X-6308867Y52917420D01*
X-5930535Y52539089D01*
X-5930534Y52539089D01*
X-5862370Y52666614D01*
X-5804614Y52857009D01*
X-5785114Y53055000D01*
X-5314887Y53055000D01*
X-5295387Y52857009D01*
X-5237632Y52666619D01*
X-5169467Y52539089D01*
X-4791134Y52917422D01*
X-4768682Y52840960D01*
X-4689395Y52717587D01*
X-4578562Y52621549D01*
X-4445161Y52560627D01*
X-4441366Y52560082D01*
X-4815913Y52185535D01*
X-4688380Y52117368D01*
X-4497992Y52059614D01*
X-4300000Y52040114D01*
X-4102009Y52059614D01*
X-3911614Y52117370D01*
X-3784089Y52185534D01*
X-3784089Y52185535D01*
X-4158634Y52560082D01*
X-4154839Y52560627D01*
X-4021438Y52621549D01*
X-3910605Y52717587D01*
X-3831318Y52840960D01*
X-3808867Y52917421D01*
X-3430535Y52539089D01*
X-3430534Y52539089D01*
X-3362370Y52666614D01*
X-3304614Y52857009D01*
X-3285114Y53055000D01*
X-3304614Y53252992D01*
X-3362368Y53443380D01*
X-3430535Y53570913D01*
X-3808867Y53192581D01*
X-3831318Y53269040D01*
X-3910605Y53392413D01*
X-4021438Y53488451D01*
X-4154839Y53549373D01*
X-4158636Y53549919D01*
X-3784089Y53924467D01*
X-3911619Y53992632D01*
X-4102009Y54050387D01*
X-4300000Y54069887D01*
X-4497992Y54050387D01*
X-4688382Y53992632D01*
X-4815914Y53924467D01*
X-4441366Y53549919D01*
X-4445161Y53549373D01*
X-4578562Y53488451D01*
X-4689395Y53392413D01*
X-4768682Y53269040D01*
X-4791134Y53192580D01*
X-5169467Y53570913D01*
X-5237632Y53443382D01*
X-5295387Y53252992D01*
X-5314887Y53055000D01*
X-5785114Y53055000D01*
X-5804614Y53252992D01*
X-5862368Y53443380D01*
X-5930535Y53570913D01*
X-6308868Y53192581D01*
X-6331318Y53269040D01*
X-6410605Y53392413D01*
X-6521438Y53488451D01*
X-6654839Y53549373D01*
X-6658636Y53549919D01*
X-6284089Y53924467D01*
X-6411619Y53992632D01*
X-6602009Y54050387D01*
X-6800000Y54069887D01*
X-6997992Y54050387D01*
X-7188382Y53992632D01*
X-7315913Y53924467D01*
X-6941365Y53549919D01*
X-6945161Y53549373D01*
X-7078562Y53488451D01*
X-7189395Y53392413D01*
X-7268682Y53269040D01*
X-7291134Y53192580D01*
X-7669467Y53570913D01*
X-7737632Y53443382D01*
X-7795387Y53252992D01*
X-7814887Y53055000D01*
X-8285114Y53055000D01*
X-8304614Y53252992D01*
X-8362368Y53443380D01*
X-8430535Y53570913D01*
X-8808867Y53192581D01*
X-8831318Y53269040D01*
X-8910605Y53392413D01*
X-9021438Y53488451D01*
X-9154839Y53549373D01*
X-9158636Y53549919D01*
X-8784089Y53924467D01*
X-8911619Y53992632D01*
X-9102009Y54050387D01*
X-9300000Y54069887D01*
X-9497992Y54050387D01*
X-9688382Y53992632D01*
X-9815914Y53924467D01*
X-9441366Y53549919D01*
X-9445161Y53549373D01*
X-9578562Y53488451D01*
X-9689395Y53392413D01*
X-9768682Y53269040D01*
X-9791134Y53192580D01*
X-10169467Y53570913D01*
X-10237632Y53443382D01*
X-10295387Y53252992D01*
X-10314887Y53055000D01*
X-10785114Y53055000D01*
X-10804614Y53252992D01*
X-10862368Y53443380D01*
X-10930535Y53570913D01*
X-11308868Y53192581D01*
X-11331318Y53269040D01*
X-11410605Y53392413D01*
X-11521438Y53488451D01*
X-11654839Y53549373D01*
X-11658636Y53549919D01*
X-11284089Y53924467D01*
X-11411619Y53992632D01*
X-11602009Y54050387D01*
X-11800000Y54069887D01*
X-11997992Y54050387D01*
X-12188382Y53992632D01*
X-12315914Y53924467D01*
X-11941366Y53549919D01*
X-11945161Y53549373D01*
X-12078562Y53488451D01*
X-12189395Y53392413D01*
X-12268682Y53269040D01*
X-12291134Y53192580D01*
X-12669467Y53570913D01*
X-12737632Y53443382D01*
X-12795387Y53252992D01*
X-12814887Y53055000D01*
X-13285114Y53055000D01*
X-13304614Y53252992D01*
X-13362368Y53443380D01*
X-13430535Y53570913D01*
X-13808867Y53192581D01*
X-13831318Y53269040D01*
X-13910605Y53392413D01*
X-14021438Y53488451D01*
X-14154839Y53549373D01*
X-14158636Y53549919D01*
X-13784089Y53924467D01*
X-13911619Y53992632D01*
X-14102009Y54050387D01*
X-14300000Y54069887D01*
X-14497992Y54050387D01*
X-14688382Y53992632D01*
X-14815913Y53924467D01*
X-14441365Y53549919D01*
X-14445161Y53549373D01*
X-14578562Y53488451D01*
X-14689395Y53392413D01*
X-14768682Y53269040D01*
X-14791134Y53192580D01*
X-15169467Y53570913D01*
X-15237632Y53443382D01*
X-15295387Y53252992D01*
X-15314887Y53055000D01*
X-16153067Y53055000D01*
X-16011503Y56688483D01*
X-15554014Y56968881D01*
X-15056438Y56974912D01*
X-15039374Y56975696D01*
X-15033788Y56976143D01*
X-14997342Y56979052D01*
X-14997339Y56979053D01*
X-14997336Y56979053D01*
X-14958934Y56987305D01*
X-14889256Y56982145D01*
X-14845201Y56953754D01*
X-14441366Y56549919D01*
X-14445161Y56549373D01*
X-14578562Y56488451D01*
X-14689395Y56392413D01*
X-14768682Y56269040D01*
X-14791134Y56192580D01*
X-15169467Y56570913D01*
X-15237632Y56443382D01*
X-15295387Y56252992D01*
X-15314887Y56055000D01*
X-15295387Y55857009D01*
X-15237632Y55666619D01*
X-15169467Y55539089D01*
X-14791134Y55917422D01*
X-14768682Y55840960D01*
X-14689395Y55717587D01*
X-14578562Y55621549D01*
X-14445161Y55560627D01*
X-14441366Y55560082D01*
X-14815913Y55185535D01*
X-14688380Y55117368D01*
X-14497992Y55059614D01*
X-14300000Y55040114D01*
X-14102009Y55059614D01*
X-13911614Y55117370D01*
X-13784089Y55185534D01*
X-13784089Y55185535D01*
X-14158634Y55560082D01*
X-14154839Y55560627D01*
X-14021438Y55621549D01*
X-13910605Y55717587D01*
X-13831318Y55840960D01*
X-13808867Y55917421D01*
X-13430535Y55539089D01*
X-13430534Y55539089D01*
X-13362370Y55666614D01*
X-13304614Y55857009D01*
X-13285114Y56055000D01*
X-13304614Y56252992D01*
X-13362368Y56443380D01*
X-13430535Y56570913D01*
X-13808867Y56192581D01*
X-13831318Y56269040D01*
X-13910605Y56392413D01*
X-14021438Y56488451D01*
X-14154839Y56549373D01*
X-14158635Y56549919D01*
X-13746537Y56962019D01*
X-13685214Y56995504D01*
X-13634665Y56995955D01*
X-13623132Y56993661D01*
X-13524514Y56983948D01*
X-13524512Y56983948D01*
X-12566181Y56983948D01*
X-12547582Y56984633D01*
X-12501765Y56988013D01*
X-12466631Y56995451D01*
X-12396968Y56990078D01*
X-12353268Y56961821D01*
X-11941366Y56549919D01*
X-11945161Y56549373D01*
X-12078562Y56488451D01*
X-12189395Y56392413D01*
X-12268682Y56269040D01*
X-12291134Y56192580D01*
X-12669467Y56570913D01*
X-12737632Y56443382D01*
X-12795387Y56252992D01*
X-12814887Y56055000D01*
X-12795387Y55857009D01*
X-12737632Y55666619D01*
X-12669467Y55539089D01*
X-12291134Y55917422D01*
X-12268682Y55840960D01*
X-12189395Y55717587D01*
X-12078562Y55621549D01*
X-11945161Y55560627D01*
X-11941366Y55560082D01*
X-12315913Y55185535D01*
X-12188380Y55117368D01*
X-11997992Y55059614D01*
X-11800000Y55040114D01*
X-11602009Y55059614D01*
X-11411614Y55117370D01*
X-11284089Y55185534D01*
X-11284089Y55185535D01*
X-11658634Y55560082D01*
X-11654839Y55560627D01*
X-11521438Y55621549D01*
X-11410605Y55717587D01*
X-11331318Y55840960D01*
X-11308867Y55917420D01*
X-10930535Y55539089D01*
X-10930534Y55539089D01*
X-10862370Y55666614D01*
X-10804614Y55857009D01*
X-10785114Y56055000D01*
X-10804614Y56252992D01*
X-10862368Y56443380D01*
X-10930535Y56570913D01*
X-11308868Y56192581D01*
X-11331318Y56269040D01*
X-11410605Y56392413D01*
X-11521438Y56488451D01*
X-11654839Y56549373D01*
X-11658635Y56549919D01*
X-11246537Y56962019D01*
X-11185214Y56995504D01*
X-11134665Y56995955D01*
X-11123132Y56993661D01*
X-11024514Y56983948D01*
X-11024512Y56983948D01*
X-10066181Y56983948D01*
X-10047582Y56984633D01*
X-10001765Y56988013D01*
X-9966631Y56995451D01*
X-9896968Y56990078D01*
X-9853268Y56961821D01*
X-9441366Y56549919D01*
X-9445161Y56549373D01*
X-9578562Y56488451D01*
X-9689395Y56392413D01*
X-9768682Y56269040D01*
X-9791134Y56192580D01*
X-10169467Y56570913D01*
X-10237632Y56443382D01*
X-10295387Y56252992D01*
X-10314887Y56055000D01*
X-10295387Y55857009D01*
X-10237632Y55666619D01*
X-10169467Y55539089D01*
X-9791134Y55917422D01*
X-9768682Y55840960D01*
X-9689395Y55717587D01*
X-9578562Y55621549D01*
X-9445161Y55560627D01*
X-9441366Y55560082D01*
X-9815913Y55185535D01*
X-9688380Y55117368D01*
X-9497992Y55059614D01*
X-9300000Y55040114D01*
X-9102009Y55059614D01*
X-8911614Y55117370D01*
X-8784089Y55185534D01*
X-8784089Y55185535D01*
X-9158634Y55560082D01*
X-9154839Y55560627D01*
X-9021438Y55621549D01*
X-8910605Y55717587D01*
X-8831318Y55840960D01*
X-8808867Y55917421D01*
X-8430535Y55539089D01*
X-8430534Y55539089D01*
X-8362370Y55666614D01*
X-8304614Y55857009D01*
X-8285114Y56055000D01*
X-8304614Y56252992D01*
X-8362368Y56443380D01*
X-8430535Y56570913D01*
X-8808867Y56192581D01*
X-8831318Y56269040D01*
X-8910605Y56392413D01*
X-9021438Y56488451D01*
X-9154839Y56549373D01*
X-9158635Y56549919D01*
X-8746537Y56962019D01*
X-8685214Y56995504D01*
X-8634665Y56995955D01*
X-8623132Y56993661D01*
X-8524514Y56983948D01*
X-8524512Y56983948D01*
X-7566181Y56983948D01*
X-7547582Y56984633D01*
X-7501765Y56988013D01*
X-7466631Y56995451D01*
X-7396968Y56990078D01*
X-7353268Y56961821D01*
X-6941366Y56549919D01*
X-6945161Y56549373D01*
X-7078562Y56488451D01*
X-7189395Y56392413D01*
X-7268682Y56269040D01*
X-7291134Y56192580D01*
X-7669467Y56570913D01*
X-7737632Y56443382D01*
X-7795387Y56252992D01*
X-7814887Y56055000D01*
X-7795387Y55857009D01*
X-7737632Y55666619D01*
X-7669467Y55539089D01*
X-7291134Y55917422D01*
X-7268682Y55840960D01*
X-7189395Y55717587D01*
X-7078562Y55621549D01*
X-6945161Y55560627D01*
X-6941366Y55560082D01*
X-7315913Y55185535D01*
X-7188380Y55117368D01*
X-6997992Y55059614D01*
X-6800000Y55040114D01*
X-6602009Y55059614D01*
X-6411614Y55117370D01*
X-6284089Y55185534D01*
X-6284089Y55185535D01*
X-6658634Y55560082D01*
X-6654839Y55560627D01*
X-6521438Y55621549D01*
X-6410605Y55717587D01*
X-6331318Y55840960D01*
X-6308867Y55917420D01*
X-5930535Y55539089D01*
X-5930534Y55539089D01*
X-5862370Y55666614D01*
X-5804614Y55857009D01*
X-5785114Y56055000D01*
X-5804614Y56252992D01*
X-5862368Y56443380D01*
X-5930535Y56570913D01*
X-6308868Y56192581D01*
X-6331318Y56269040D01*
X-6410605Y56392413D01*
X-6521438Y56488451D01*
X-6654839Y56549373D01*
X-6658635Y56549919D01*
X-6246537Y56962019D01*
X-6185214Y56995504D01*
X-6134665Y56995955D01*
X-6123132Y56993661D01*
G37*
%TD.AperFunction*%
%TD*%
%TA.AperFunction,Conductor*%
%TO.N,GND*%
G36*
X-3964000Y34775000D02*
G01*
X-2564500Y33510936D01*
X-2564500Y29524694D01*
X-3303044Y29072039D01*
X-3365433Y29071897D01*
X-3432517Y29091430D01*
X-3478391Y29144131D01*
X-3488490Y29213267D01*
X-3461565Y29274564D01*
X-3456154Y29281159D01*
X-3362368Y29456621D01*
X-3304614Y29647009D01*
X-3285114Y29845000D01*
X-3304614Y30042992D01*
X-3362368Y30233380D01*
X-3430535Y30360913D01*
X-3808867Y29982581D01*
X-3831318Y30059040D01*
X-3910605Y30182413D01*
X-4021438Y30278451D01*
X-4154839Y30339373D01*
X-4158636Y30339919D01*
X-3784089Y30714467D01*
X-3911619Y30782632D01*
X-4102009Y30840387D01*
X-4300000Y30859887D01*
X-4497992Y30840387D01*
X-4688382Y30782632D01*
X-4815914Y30714467D01*
X-4441366Y30339919D01*
X-4445161Y30339373D01*
X-4578562Y30278451D01*
X-4689395Y30182413D01*
X-4768682Y30059040D01*
X-4791134Y29982581D01*
X-5169466Y30360913D01*
X-5169467Y30360913D01*
X-5237632Y30233382D01*
X-5295387Y30042992D01*
X-5314887Y29845000D01*
X-5295387Y29647009D01*
X-5237633Y29456621D01*
X-5143846Y29281155D01*
X-5134984Y29270358D01*
X-5107669Y29206049D01*
X-5119459Y29137181D01*
X-5166610Y29085620D01*
X-5230555Y29067691D01*
X-5870070Y29066248D01*
X-5937154Y29085782D01*
X-5983028Y29138482D01*
X-5993127Y29207618D01*
X-5966199Y29268917D01*
X-5956156Y29281155D01*
X-5862368Y29456621D01*
X-5804614Y29647009D01*
X-5785114Y29845000D01*
X-5804614Y30042992D01*
X-5862368Y30233380D01*
X-5930535Y30360913D01*
X-6308867Y29982581D01*
X-6331318Y30059040D01*
X-6410605Y30182413D01*
X-6521438Y30278451D01*
X-6654839Y30339373D01*
X-6658636Y30339919D01*
X-6284089Y30714467D01*
X-6411619Y30782632D01*
X-6602009Y30840387D01*
X-6800000Y30859887D01*
X-6997992Y30840387D01*
X-7188382Y30782632D01*
X-7315913Y30714467D01*
X-6941365Y30339919D01*
X-6945161Y30339373D01*
X-7078562Y30278451D01*
X-7189395Y30182413D01*
X-7268682Y30059040D01*
X-7291134Y29982581D01*
X-7669466Y30360913D01*
X-7669467Y30360913D01*
X-7737632Y30233382D01*
X-7795387Y30042992D01*
X-7814887Y29845000D01*
X-7795387Y29647009D01*
X-7737633Y29456621D01*
X-7643846Y29281156D01*
X-7630363Y29264727D01*
X-7603050Y29200417D01*
X-7614841Y29131549D01*
X-7661993Y29079989D01*
X-7725936Y29062062D01*
X-8374706Y29060598D01*
X-8441790Y29080132D01*
X-8487664Y29132832D01*
X-8497763Y29201968D01*
X-8470838Y29263264D01*
X-8456155Y29281156D01*
X-8362368Y29456621D01*
X-8304614Y29647009D01*
X-8285114Y29845000D01*
X-8304614Y30042992D01*
X-8362368Y30233380D01*
X-8430535Y30360913D01*
X-8808867Y29982581D01*
X-8831318Y30059040D01*
X-8910605Y30182413D01*
X-9021438Y30278451D01*
X-9154839Y30339373D01*
X-9158636Y30339919D01*
X-8784089Y30714467D01*
X-8911619Y30782632D01*
X-9102009Y30840387D01*
X-9300000Y30859887D01*
X-9497992Y30840387D01*
X-9688382Y30782632D01*
X-9815914Y30714467D01*
X-9441366Y30339919D01*
X-9445161Y30339373D01*
X-9578562Y30278451D01*
X-9689395Y30182413D01*
X-9768682Y30059040D01*
X-9791134Y29982581D01*
X-10169466Y30360913D01*
X-10169467Y30360913D01*
X-10237632Y30233382D01*
X-10295387Y30042992D01*
X-10314887Y29845000D01*
X-10295387Y29647009D01*
X-10237633Y29456621D01*
X-10143846Y29281156D01*
X-10125743Y29259097D01*
X-10098431Y29194786D01*
X-10110223Y29125919D01*
X-10157376Y29074359D01*
X-10221317Y29056433D01*
X-10879343Y29054949D01*
X-10946427Y29074483D01*
X-10992301Y29127183D01*
X-11002400Y29196319D01*
X-10975474Y29257617D01*
X-10956154Y29281158D01*
X-10862368Y29456621D01*
X-10804614Y29647009D01*
X-10785114Y29845000D01*
X-10804614Y30042992D01*
X-10862368Y30233380D01*
X-10930535Y30360913D01*
X-11308867Y29982581D01*
X-11331318Y30059040D01*
X-11410605Y30182413D01*
X-11521438Y30278451D01*
X-11654839Y30339373D01*
X-11658636Y30339919D01*
X-11284089Y30714467D01*
X-11411619Y30782632D01*
X-11602009Y30840387D01*
X-11800000Y30859887D01*
X-11997992Y30840387D01*
X-12188382Y30782632D01*
X-12315914Y30714467D01*
X-11941366Y30339919D01*
X-11945161Y30339373D01*
X-12078562Y30278451D01*
X-12189395Y30182413D01*
X-12268682Y30059040D01*
X-12291134Y29982581D01*
X-12669466Y30360913D01*
X-12669467Y30360913D01*
X-12737632Y30233382D01*
X-12795387Y30042992D01*
X-12814887Y29845000D01*
X-12795387Y29647009D01*
X-12737633Y29456621D01*
X-12643846Y29281155D01*
X-12621125Y29253471D01*
X-12593811Y29189161D01*
X-12605601Y29120294D01*
X-12652753Y29068733D01*
X-12716697Y29050805D01*
X-13383979Y29049300D01*
X-13451063Y29068834D01*
X-13496937Y29121534D01*
X-13507036Y29190670D01*
X-13480110Y29251967D01*
X-13456155Y29281155D01*
X-13362368Y29456621D01*
X-13304614Y29647009D01*
X-13285114Y29845000D01*
X-13304614Y30042992D01*
X-13362368Y30233380D01*
X-13430535Y30360913D01*
X-13808867Y29982581D01*
X-13831318Y30059040D01*
X-13910605Y30182413D01*
X-14021438Y30278451D01*
X-14154839Y30339373D01*
X-14158636Y30339919D01*
X-13784089Y30714467D01*
X-13911619Y30782632D01*
X-14102009Y30840387D01*
X-14300000Y30859887D01*
X-14497992Y30840387D01*
X-14688382Y30782632D01*
X-14815913Y30714467D01*
X-14441365Y30339919D01*
X-14445161Y30339373D01*
X-14578562Y30278451D01*
X-14689395Y30182413D01*
X-14768682Y30059040D01*
X-14791134Y29982581D01*
X-15169466Y30360913D01*
X-15169467Y30360913D01*
X-15237632Y30233382D01*
X-15295387Y30042992D01*
X-15314887Y29845000D01*
X-15295387Y29647009D01*
X-15237633Y29456621D01*
X-15143846Y29281156D01*
X-15116505Y29247841D01*
X-15089192Y29183531D01*
X-15100983Y29114663D01*
X-15148135Y29063103D01*
X-15212078Y29045176D01*
X-15464845Y29044606D01*
X-15914000Y29975000D01*
X-15945242Y31084078D01*
X-15800957Y31228364D01*
X-15781106Y31244484D01*
X-15773331Y31249563D01*
X-15753136Y31275512D01*
X-15748058Y31281263D01*
X-15745625Y31283694D01*
X-15732962Y31301431D01*
X-15701483Y31341874D01*
X-15701481Y31341881D01*
X-15697983Y31348345D01*
X-15694765Y31354928D01*
X-15694760Y31354934D01*
X-15680139Y31404046D01*
X-15663500Y31452512D01*
X-15663500Y31452521D01*
X-15662294Y31459742D01*
X-15661383Y31467049D01*
X-15663500Y31518242D01*
X-15663500Y32845000D01*
X-15314887Y32845000D01*
X-15295387Y32647009D01*
X-15237632Y32456619D01*
X-15169467Y32329089D01*
X-14791134Y32707422D01*
X-14768682Y32630960D01*
X-14689395Y32507587D01*
X-14578562Y32411549D01*
X-14445161Y32350627D01*
X-14441366Y32350082D01*
X-14815913Y31975535D01*
X-14688380Y31907368D01*
X-14497992Y31849614D01*
X-14300000Y31830114D01*
X-14102009Y31849614D01*
X-13911614Y31907370D01*
X-13784089Y31975534D01*
X-13784089Y31975535D01*
X-14158634Y32350082D01*
X-14154839Y32350627D01*
X-14021438Y32411549D01*
X-13910605Y32507587D01*
X-13831318Y32630960D01*
X-13808867Y32707421D01*
X-13430535Y32329089D01*
X-13430534Y32329089D01*
X-13362370Y32456614D01*
X-13304614Y32647009D01*
X-13285114Y32845000D01*
X-12814887Y32845000D01*
X-12795387Y32647009D01*
X-12737632Y32456619D01*
X-12669467Y32329089D01*
X-12291134Y32707422D01*
X-12268682Y32630960D01*
X-12189395Y32507587D01*
X-12078562Y32411549D01*
X-11945161Y32350627D01*
X-11941366Y32350082D01*
X-12315913Y31975535D01*
X-12188380Y31907368D01*
X-11997992Y31849614D01*
X-11800000Y31830114D01*
X-11602009Y31849614D01*
X-11411614Y31907370D01*
X-11284089Y31975534D01*
X-11284089Y31975535D01*
X-11658634Y32350082D01*
X-11654839Y32350627D01*
X-11521438Y32411549D01*
X-11410605Y32507587D01*
X-11331318Y32630960D01*
X-11308867Y32707420D01*
X-10930535Y32329089D01*
X-10930534Y32329089D01*
X-10862370Y32456614D01*
X-10804614Y32647009D01*
X-10785114Y32845000D01*
X-10314887Y32845000D01*
X-10295387Y32647009D01*
X-10237632Y32456619D01*
X-10169467Y32329089D01*
X-9791134Y32707422D01*
X-9768682Y32630960D01*
X-9689395Y32507587D01*
X-9578562Y32411549D01*
X-9445161Y32350627D01*
X-9441366Y32350082D01*
X-9815913Y31975535D01*
X-9688380Y31907368D01*
X-9497992Y31849614D01*
X-9300000Y31830114D01*
X-9102009Y31849614D01*
X-8911614Y31907370D01*
X-8784089Y31975534D01*
X-8784089Y31975535D01*
X-9158634Y32350082D01*
X-9154839Y32350627D01*
X-9021438Y32411549D01*
X-8910605Y32507587D01*
X-8831318Y32630960D01*
X-8808867Y32707421D01*
X-8430535Y32329089D01*
X-8430534Y32329089D01*
X-8362370Y32456614D01*
X-8304614Y32647009D01*
X-8285114Y32845000D01*
X-7814887Y32845000D01*
X-7795387Y32647009D01*
X-7737632Y32456619D01*
X-7669467Y32329089D01*
X-7291134Y32707422D01*
X-7268682Y32630960D01*
X-7189395Y32507587D01*
X-7078562Y32411549D01*
X-6945161Y32350627D01*
X-6941366Y32350082D01*
X-7315913Y31975535D01*
X-7188380Y31907368D01*
X-6997992Y31849614D01*
X-6800000Y31830114D01*
X-6602009Y31849614D01*
X-6411614Y31907370D01*
X-6284089Y31975534D01*
X-6284089Y31975535D01*
X-6658634Y32350082D01*
X-6654839Y32350627D01*
X-6521438Y32411549D01*
X-6410605Y32507587D01*
X-6331318Y32630960D01*
X-6308867Y32707420D01*
X-5930535Y32329089D01*
X-5930534Y32329089D01*
X-5862370Y32456614D01*
X-5804614Y32647009D01*
X-5785114Y32845000D01*
X-5314887Y32845000D01*
X-5295387Y32647009D01*
X-5237632Y32456619D01*
X-5169467Y32329089D01*
X-4791134Y32707422D01*
X-4768682Y32630960D01*
X-4689395Y32507587D01*
X-4578562Y32411549D01*
X-4445161Y32350627D01*
X-4441366Y32350082D01*
X-4815913Y31975535D01*
X-4688380Y31907368D01*
X-4497992Y31849614D01*
X-4300000Y31830114D01*
X-4102009Y31849614D01*
X-3911614Y31907370D01*
X-3784089Y31975534D01*
X-3784089Y31975535D01*
X-4158634Y32350082D01*
X-4154839Y32350627D01*
X-4021438Y32411549D01*
X-3910605Y32507587D01*
X-3831318Y32630960D01*
X-3808867Y32707421D01*
X-3430535Y32329089D01*
X-3430534Y32329089D01*
X-3362370Y32456614D01*
X-3304614Y32647009D01*
X-3285114Y32845000D01*
X-3304614Y33042992D01*
X-3362368Y33233380D01*
X-3430535Y33360913D01*
X-3808867Y32982581D01*
X-3831318Y33059040D01*
X-3910605Y33182413D01*
X-4021438Y33278451D01*
X-4154839Y33339373D01*
X-4158636Y33339919D01*
X-3784089Y33714467D01*
X-3911619Y33782632D01*
X-4102009Y33840387D01*
X-4300000Y33859887D01*
X-4497992Y33840387D01*
X-4688382Y33782632D01*
X-4815914Y33714467D01*
X-4441366Y33339919D01*
X-4445161Y33339373D01*
X-4578562Y33278451D01*
X-4689395Y33182413D01*
X-4768682Y33059040D01*
X-4791134Y32982580D01*
X-5169467Y33360913D01*
X-5237632Y33233382D01*
X-5295387Y33042992D01*
X-5314887Y32845000D01*
X-5785114Y32845000D01*
X-5804614Y33042992D01*
X-5862368Y33233380D01*
X-5930535Y33360913D01*
X-6308868Y32982581D01*
X-6331318Y33059040D01*
X-6410605Y33182413D01*
X-6521438Y33278451D01*
X-6654839Y33339373D01*
X-6658636Y33339919D01*
X-6284089Y33714467D01*
X-6411619Y33782632D01*
X-6602009Y33840387D01*
X-6800000Y33859887D01*
X-6997992Y33840387D01*
X-7188382Y33782632D01*
X-7315913Y33714467D01*
X-6941365Y33339919D01*
X-6945161Y33339373D01*
X-7078562Y33278451D01*
X-7189395Y33182413D01*
X-7268682Y33059040D01*
X-7291134Y32982580D01*
X-7669467Y33360913D01*
X-7737632Y33233382D01*
X-7795387Y33042992D01*
X-7814887Y32845000D01*
X-8285114Y32845000D01*
X-8304614Y33042992D01*
X-8362368Y33233380D01*
X-8430535Y33360913D01*
X-8808867Y32982581D01*
X-8831318Y33059040D01*
X-8910605Y33182413D01*
X-9021438Y33278451D01*
X-9154839Y33339373D01*
X-9158636Y33339919D01*
X-8784089Y33714467D01*
X-8911619Y33782632D01*
X-9102009Y33840387D01*
X-9300000Y33859887D01*
X-9497992Y33840387D01*
X-9688382Y33782632D01*
X-9815914Y33714467D01*
X-9441366Y33339919D01*
X-9445161Y33339373D01*
X-9578562Y33278451D01*
X-9689395Y33182413D01*
X-9768682Y33059040D01*
X-9791134Y32982580D01*
X-10169467Y33360913D01*
X-10237632Y33233382D01*
X-10295387Y33042992D01*
X-10314887Y32845000D01*
X-10785114Y32845000D01*
X-10804614Y33042992D01*
X-10862368Y33233380D01*
X-10930535Y33360913D01*
X-11308868Y32982581D01*
X-11331318Y33059040D01*
X-11410605Y33182413D01*
X-11521438Y33278451D01*
X-11654839Y33339373D01*
X-11658636Y33339919D01*
X-11284089Y33714467D01*
X-11411619Y33782632D01*
X-11602009Y33840387D01*
X-11800000Y33859887D01*
X-11997992Y33840387D01*
X-12188382Y33782632D01*
X-12315914Y33714467D01*
X-11941366Y33339919D01*
X-11945161Y33339373D01*
X-12078562Y33278451D01*
X-12189395Y33182413D01*
X-12268682Y33059040D01*
X-12291134Y32982580D01*
X-12669467Y33360913D01*
X-12737632Y33233382D01*
X-12795387Y33042992D01*
X-12814887Y32845000D01*
X-13285114Y32845000D01*
X-13304614Y33042992D01*
X-13362368Y33233380D01*
X-13430535Y33360913D01*
X-13808867Y32982581D01*
X-13831318Y33059040D01*
X-13910605Y33182413D01*
X-14021438Y33278451D01*
X-14154839Y33339373D01*
X-14158636Y33339919D01*
X-13784089Y33714467D01*
X-13911619Y33782632D01*
X-14102009Y33840387D01*
X-14300000Y33859887D01*
X-14497992Y33840387D01*
X-14688382Y33782632D01*
X-14815913Y33714467D01*
X-14441365Y33339919D01*
X-14445161Y33339373D01*
X-14578562Y33278451D01*
X-14689395Y33182413D01*
X-14768682Y33059040D01*
X-14791134Y32982580D01*
X-15169467Y33360913D01*
X-15237632Y33233382D01*
X-15295387Y33042992D01*
X-15314887Y32845000D01*
X-15663500Y32845000D01*
X-15663500Y33228456D01*
X-15643815Y33295495D01*
X-15627181Y33316137D01*
X-14255137Y34688181D01*
X-14193814Y34721666D01*
X-14167456Y34724500D01*
X-9713211Y34724500D01*
X-9687766Y34721862D01*
X-9678685Y34719957D01*
X-9662995Y34721913D01*
X-9646061Y34724023D01*
X-9638385Y34724500D01*
X-9634965Y34724500D01*
X-9634960Y34724500D01*
X-9631392Y34725096D01*
X-9613461Y34728087D01*
X-9586042Y34731506D01*
X-9562607Y34734427D01*
X-9562598Y34734432D01*
X-9555549Y34736530D01*
X-9548623Y34738908D01*
X-9548619Y34738908D01*
X-9503556Y34763296D01*
X-9457516Y34785802D01*
X-9457513Y34785806D01*
X-9451547Y34790065D01*
X-9445746Y34794581D01*
X-9445742Y34794582D01*
X-9416195Y34826680D01*
X-3964000Y34775000D01*
G37*
%TD.AperFunction*%
%TD*%
%TA.AperFunction,Conductor*%
%TO.N,/BATT_B*%
G36*
X-4958165Y28543849D02*
G01*
X-4877262Y28490055D01*
X-4823104Y28409396D01*
X-4803935Y28314151D01*
X-4806629Y28277052D01*
X-4815913Y28214468D01*
X-4441364Y27839919D01*
X-4445161Y27839373D01*
X-4578562Y27778451D01*
X-4689395Y27682413D01*
X-4768682Y27559040D01*
X-4791134Y27482579D01*
X-5169468Y27860913D01*
X-5237630Y27733389D01*
X-5237632Y27733384D01*
X-5295387Y27542994D01*
X-5302199Y27473822D01*
X-5330402Y27380851D01*
X-5356896Y27348569D01*
X-5311722Y27264053D01*
X-5302199Y27216178D01*
X-5295387Y27147006D01*
X-5237635Y26956625D01*
X-5237634Y26956622D01*
X-5169467Y26829089D01*
X-4791134Y27207422D01*
X-4768682Y27130960D01*
X-4689395Y27007587D01*
X-4578562Y26911549D01*
X-4445161Y26850627D01*
X-4441366Y26850082D01*
X-4815913Y26475534D01*
X-4688379Y26407367D01*
X-4497996Y26349615D01*
X-4300000Y26330114D01*
X-4102005Y26349615D01*
X-3911622Y26407367D01*
X-3784089Y26475535D01*
X-4158635Y26850082D01*
X-4154839Y26850627D01*
X-4021438Y26911549D01*
X-3910605Y27007587D01*
X-3831318Y27130960D01*
X-3808867Y27207421D01*
X-3430535Y26829089D01*
X-3362367Y26956623D01*
X-3351778Y26991527D01*
X-3305980Y27077210D01*
X-3230879Y27138845D01*
X-3137907Y27167048D01*
X-3041220Y27157525D01*
X-2955537Y27111727D01*
X-2893902Y27036626D01*
X-2865699Y26943654D01*
X-2864500Y26919247D01*
X-2864500Y24770754D01*
X-2883454Y24675466D01*
X-2937430Y24594684D01*
X-3018212Y24540708D01*
X-3113500Y24521754D01*
X-3208788Y24540708D01*
X-3289570Y24594684D01*
X-3343546Y24675466D01*
X-3351778Y24698473D01*
X-3362367Y24733379D01*
X-3430535Y24860913D01*
X-3808867Y24482581D01*
X-3831318Y24559040D01*
X-3910605Y24682413D01*
X-4021438Y24778451D01*
X-4154839Y24839373D01*
X-4158637Y24839919D01*
X-3784089Y25214467D01*
X-3911622Y25282634D01*
X-3911625Y25282635D01*
X-4102005Y25340386D01*
X-4300000Y25359887D01*
X-4497994Y25340387D01*
X-4688384Y25282632D01*
X-4688389Y25282630D01*
X-4815913Y25214468D01*
X-4441364Y24839919D01*
X-4445161Y24839373D01*
X-4578562Y24778451D01*
X-4689395Y24682413D01*
X-4768682Y24559040D01*
X-4791134Y24482579D01*
X-5169468Y24860913D01*
X-5237630Y24733389D01*
X-5237632Y24733384D01*
X-5295387Y24542994D01*
X-5302199Y24473822D01*
X-5330402Y24380851D01*
X-5356896Y24348569D01*
X-5311722Y24264053D01*
X-5302199Y24216178D01*
X-5295387Y24147006D01*
X-5237635Y23956625D01*
X-5237634Y23956622D01*
X-5169467Y23829089D01*
X-4791134Y24207422D01*
X-4768682Y24130960D01*
X-4689395Y24007587D01*
X-4578562Y23911549D01*
X-4445161Y23850627D01*
X-4441366Y23850082D01*
X-4815913Y23475534D01*
X-4688379Y23407367D01*
X-4497996Y23349615D01*
X-4300000Y23330114D01*
X-4102005Y23349615D01*
X-3911622Y23407367D01*
X-3784089Y23475535D01*
X-4158635Y23850082D01*
X-4154839Y23850627D01*
X-4021438Y23911549D01*
X-3910605Y24007587D01*
X-3831318Y24130960D01*
X-3808867Y24207421D01*
X-3430535Y23829089D01*
X-3362367Y23956623D01*
X-3351778Y23991527D01*
X-3305980Y24077210D01*
X-3230879Y24138845D01*
X-3137907Y24167048D01*
X-3041220Y24157525D01*
X-2955537Y24111727D01*
X-2893902Y24036626D01*
X-2865699Y23943654D01*
X-2864500Y23919247D01*
X-2864500Y22973164D01*
X-2883454Y22877876D01*
X-2937430Y22797094D01*
X-3018212Y22743118D01*
X-3113500Y22724164D01*
X-3116518Y22724182D01*
X-4264000Y22738090D01*
X-14264000Y22738090D01*
X-15661982Y22721145D01*
X-15757493Y22738943D01*
X-15838923Y22791936D01*
X-15893874Y22872058D01*
X-15913982Y22967109D01*
X-15914000Y22970127D01*
X-15914000Y24345000D01*
X-15314887Y24345000D01*
X-15295386Y24147005D01*
X-15237635Y23956625D01*
X-15237634Y23956622D01*
X-15169467Y23829089D01*
X-14791134Y24207422D01*
X-14768682Y24130960D01*
X-14689395Y24007587D01*
X-14578562Y23911549D01*
X-14445161Y23850627D01*
X-14441366Y23850082D01*
X-14815913Y23475534D01*
X-14688379Y23407367D01*
X-14497996Y23349615D01*
X-14300000Y23330114D01*
X-14102005Y23349615D01*
X-13911622Y23407367D01*
X-13784089Y23475535D01*
X-14158635Y23850082D01*
X-14154839Y23850627D01*
X-14021438Y23911549D01*
X-13910605Y24007587D01*
X-13831318Y24130960D01*
X-13808867Y24207421D01*
X-13430535Y23829089D01*
X-13362367Y23956622D01*
X-13304614Y24147006D01*
X-13297801Y24216178D01*
X-13269598Y24309150D01*
X-13243105Y24341433D01*
X-13246919Y24348569D01*
X-12856896Y24348569D01*
X-12811722Y24264053D01*
X-12802199Y24216178D01*
X-12795387Y24147006D01*
X-12737635Y23956625D01*
X-12737634Y23956622D01*
X-12669467Y23829089D01*
X-12291134Y24207422D01*
X-12268682Y24130960D01*
X-12189395Y24007587D01*
X-12078562Y23911549D01*
X-11945161Y23850627D01*
X-11941366Y23850082D01*
X-12315913Y23475534D01*
X-12188379Y23407367D01*
X-11997996Y23349615D01*
X-11800000Y23330114D01*
X-11602005Y23349615D01*
X-11411622Y23407367D01*
X-11284088Y23475535D01*
X-11658635Y23850082D01*
X-11654839Y23850627D01*
X-11521438Y23911549D01*
X-11410605Y24007587D01*
X-11331318Y24130960D01*
X-11308867Y24207421D01*
X-10930535Y23829089D01*
X-10862367Y23956622D01*
X-10804614Y24147006D01*
X-10797801Y24216178D01*
X-10769598Y24309150D01*
X-10743105Y24341433D01*
X-10746919Y24348569D01*
X-10356896Y24348569D01*
X-10311722Y24264053D01*
X-10302199Y24216178D01*
X-10295387Y24147006D01*
X-10237635Y23956625D01*
X-10237634Y23956622D01*
X-10169467Y23829089D01*
X-9791134Y24207422D01*
X-9768682Y24130960D01*
X-9689395Y24007587D01*
X-9578562Y23911549D01*
X-9445161Y23850627D01*
X-9441366Y23850082D01*
X-9815913Y23475534D01*
X-9688379Y23407367D01*
X-9497996Y23349615D01*
X-9300000Y23330114D01*
X-9102005Y23349615D01*
X-8911622Y23407367D01*
X-8784088Y23475535D01*
X-9158635Y23850082D01*
X-9154839Y23850627D01*
X-9021438Y23911549D01*
X-8910605Y24007587D01*
X-8831318Y24130960D01*
X-8808867Y24207421D01*
X-8430535Y23829089D01*
X-8362367Y23956622D01*
X-8304614Y24147006D01*
X-8297801Y24216178D01*
X-8269598Y24309150D01*
X-8243105Y24341433D01*
X-8246919Y24348569D01*
X-7856896Y24348569D01*
X-7811722Y24264053D01*
X-7802199Y24216178D01*
X-7795387Y24147006D01*
X-7737635Y23956625D01*
X-7737634Y23956622D01*
X-7669467Y23829089D01*
X-7291134Y24207422D01*
X-7268682Y24130960D01*
X-7189395Y24007587D01*
X-7078562Y23911549D01*
X-6945161Y23850627D01*
X-6941366Y23850082D01*
X-7315913Y23475534D01*
X-7188379Y23407367D01*
X-6997996Y23349615D01*
X-6800000Y23330114D01*
X-6602005Y23349615D01*
X-6411622Y23407367D01*
X-6284089Y23475535D01*
X-6658635Y23850082D01*
X-6654839Y23850627D01*
X-6521438Y23911549D01*
X-6410605Y24007587D01*
X-6331318Y24130960D01*
X-6308867Y24207421D01*
X-5930535Y23829089D01*
X-5862367Y23956622D01*
X-5804614Y24147006D01*
X-5797801Y24216178D01*
X-5769598Y24309150D01*
X-5743105Y24341433D01*
X-5788278Y24425948D01*
X-5797801Y24473822D01*
X-5804615Y24542996D01*
X-5862367Y24733379D01*
X-5930535Y24860913D01*
X-6308867Y24482581D01*
X-6331318Y24559040D01*
X-6410605Y24682413D01*
X-6521438Y24778451D01*
X-6654839Y24839373D01*
X-6658637Y24839919D01*
X-6284089Y25214467D01*
X-6411622Y25282634D01*
X-6411625Y25282635D01*
X-6602005Y25340386D01*
X-6800000Y25359887D01*
X-6997994Y25340387D01*
X-7188384Y25282632D01*
X-7188389Y25282630D01*
X-7315913Y25214468D01*
X-6941364Y24839919D01*
X-6945161Y24839373D01*
X-7078562Y24778451D01*
X-7189395Y24682413D01*
X-7268682Y24559040D01*
X-7291134Y24482579D01*
X-7669468Y24860913D01*
X-7737630Y24733389D01*
X-7737632Y24733384D01*
X-7795387Y24542994D01*
X-7802199Y24473822D01*
X-7830402Y24380851D01*
X-7856896Y24348569D01*
X-8246919Y24348569D01*
X-8288278Y24425948D01*
X-8297801Y24473822D01*
X-8304615Y24542996D01*
X-8362367Y24733379D01*
X-8430535Y24860913D01*
X-8808867Y24482581D01*
X-8831318Y24559040D01*
X-8910605Y24682413D01*
X-9021438Y24778451D01*
X-9154839Y24839373D01*
X-9158637Y24839919D01*
X-8784089Y25214467D01*
X-8911622Y25282634D01*
X-8911625Y25282635D01*
X-9102005Y25340386D01*
X-9300000Y25359887D01*
X-9497994Y25340387D01*
X-9688384Y25282632D01*
X-9688389Y25282630D01*
X-9815913Y25214468D01*
X-9441364Y24839919D01*
X-9445161Y24839373D01*
X-9578562Y24778451D01*
X-9689395Y24682413D01*
X-9768682Y24559040D01*
X-9791134Y24482579D01*
X-10169468Y24860913D01*
X-10237630Y24733389D01*
X-10237632Y24733384D01*
X-10295387Y24542994D01*
X-10302199Y24473822D01*
X-10330402Y24380851D01*
X-10356896Y24348569D01*
X-10746919Y24348569D01*
X-10788278Y24425948D01*
X-10797801Y24473822D01*
X-10804615Y24542996D01*
X-10862367Y24733379D01*
X-10930535Y24860913D01*
X-11308867Y24482581D01*
X-11331318Y24559040D01*
X-11410605Y24682413D01*
X-11521438Y24778451D01*
X-11654839Y24839373D01*
X-11658637Y24839919D01*
X-11284089Y25214467D01*
X-11411622Y25282634D01*
X-11411625Y25282635D01*
X-11602005Y25340386D01*
X-11800000Y25359887D01*
X-11997994Y25340387D01*
X-12188384Y25282632D01*
X-12188389Y25282630D01*
X-12315913Y25214468D01*
X-11941364Y24839919D01*
X-11945161Y24839373D01*
X-12078562Y24778451D01*
X-12189395Y24682413D01*
X-12268682Y24559040D01*
X-12291134Y24482579D01*
X-12669468Y24860913D01*
X-12737630Y24733389D01*
X-12737632Y24733384D01*
X-12795387Y24542994D01*
X-12802199Y24473822D01*
X-12830402Y24380851D01*
X-12856896Y24348569D01*
X-13246919Y24348569D01*
X-13288278Y24425948D01*
X-13297801Y24473822D01*
X-13304615Y24542996D01*
X-13362367Y24733379D01*
X-13430535Y24860913D01*
X-13808867Y24482581D01*
X-13831318Y24559040D01*
X-13910605Y24682413D01*
X-14021438Y24778451D01*
X-14154839Y24839373D01*
X-14158637Y24839919D01*
X-13784089Y25214467D01*
X-13911622Y25282634D01*
X-13911625Y25282635D01*
X-14102005Y25340386D01*
X-14300000Y25359887D01*
X-14497994Y25340387D01*
X-14688384Y25282632D01*
X-14688389Y25282630D01*
X-14815913Y25214468D01*
X-14441364Y24839919D01*
X-14445161Y24839373D01*
X-14578562Y24778451D01*
X-14689395Y24682413D01*
X-14768682Y24559040D01*
X-14791134Y24482579D01*
X-15169468Y24860913D01*
X-15237630Y24733389D01*
X-15237632Y24733384D01*
X-15295387Y24542994D01*
X-15314887Y24345000D01*
X-15914000Y24345000D01*
X-15914000Y28289652D01*
X-15895046Y28384940D01*
X-15841070Y28465722D01*
X-15760288Y28519698D01*
X-15665566Y28538651D01*
X-15056841Y28540024D01*
X-14961512Y28521285D01*
X-14880609Y28467491D01*
X-14826451Y28386832D01*
X-14807282Y28291587D01*
X-14809976Y28254488D01*
X-14815913Y28214468D01*
X-14441364Y27839919D01*
X-14445161Y27839373D01*
X-14578562Y27778451D01*
X-14689395Y27682413D01*
X-14768682Y27559040D01*
X-14791134Y27482579D01*
X-15169468Y27860913D01*
X-15237630Y27733389D01*
X-15237632Y27733384D01*
X-15295387Y27542994D01*
X-15314887Y27345000D01*
X-15295386Y27147005D01*
X-15237635Y26956625D01*
X-15237634Y26956622D01*
X-15169467Y26829089D01*
X-14791134Y27207422D01*
X-14768682Y27130960D01*
X-14689395Y27007587D01*
X-14578562Y26911549D01*
X-14445161Y26850627D01*
X-14441366Y26850082D01*
X-14815913Y26475534D01*
X-14688379Y26407367D01*
X-14497996Y26349615D01*
X-14300000Y26330114D01*
X-14102005Y26349615D01*
X-13911622Y26407367D01*
X-13784089Y26475535D01*
X-14158635Y26850082D01*
X-14154839Y26850627D01*
X-14021438Y26911549D01*
X-13910605Y27007587D01*
X-13831318Y27130960D01*
X-13808867Y27207421D01*
X-13430535Y26829089D01*
X-13362367Y26956622D01*
X-13304614Y27147006D01*
X-13297801Y27216178D01*
X-13269598Y27309150D01*
X-13243105Y27341433D01*
X-13288278Y27425948D01*
X-13297801Y27473822D01*
X-13304615Y27542996D01*
X-13362367Y27733379D01*
X-13430535Y27860913D01*
X-13808867Y27482581D01*
X-13831318Y27559040D01*
X-13910605Y27682413D01*
X-14021438Y27778451D01*
X-14154839Y27839373D01*
X-14158637Y27839919D01*
X-13784089Y28214467D01*
X-13790531Y28257899D01*
X-13785764Y28354937D01*
X-13744225Y28442764D01*
X-13672239Y28508010D01*
X-13580763Y28540741D01*
X-13544801Y28543435D01*
X-12556004Y28545665D01*
X-12460675Y28526926D01*
X-12379772Y28473132D01*
X-12325613Y28392473D01*
X-12306445Y28297228D01*
X-12309139Y28260129D01*
X-12315913Y28214468D01*
X-11941364Y27839919D01*
X-11945161Y27839373D01*
X-12078562Y27778451D01*
X-12189395Y27682413D01*
X-12268682Y27559040D01*
X-12291134Y27482579D01*
X-12669468Y27860913D01*
X-12737630Y27733389D01*
X-12737632Y27733384D01*
X-12795387Y27542994D01*
X-12802199Y27473822D01*
X-12830402Y27380851D01*
X-12856896Y27348569D01*
X-12811722Y27264053D01*
X-12802199Y27216178D01*
X-12795387Y27147006D01*
X-12737635Y26956625D01*
X-12737634Y26956622D01*
X-12669467Y26829089D01*
X-12291134Y27207422D01*
X-12268682Y27130960D01*
X-12189395Y27007587D01*
X-12078562Y26911549D01*
X-11945161Y26850627D01*
X-11941366Y26850082D01*
X-12315913Y26475534D01*
X-12188379Y26407367D01*
X-11997996Y26349615D01*
X-11800000Y26330114D01*
X-11602005Y26349615D01*
X-11411622Y26407367D01*
X-11284088Y26475535D01*
X-11658635Y26850082D01*
X-11654839Y26850627D01*
X-11521438Y26911549D01*
X-11410605Y27007587D01*
X-11331318Y27130960D01*
X-11308867Y27207421D01*
X-10930535Y26829089D01*
X-10862367Y26956622D01*
X-10804614Y27147006D01*
X-10797801Y27216178D01*
X-10769598Y27309150D01*
X-10743105Y27341433D01*
X-10788278Y27425948D01*
X-10797801Y27473822D01*
X-10804615Y27542996D01*
X-10862367Y27733379D01*
X-10930535Y27860913D01*
X-11308867Y27482581D01*
X-11331318Y27559040D01*
X-11410605Y27682413D01*
X-11521438Y27778451D01*
X-11654839Y27839373D01*
X-11658637Y27839919D01*
X-11284089Y28214467D01*
X-11291367Y28263536D01*
X-11286600Y28360574D01*
X-11245061Y28448401D01*
X-11173074Y28513647D01*
X-11081599Y28546378D01*
X-11045634Y28549072D01*
X-10055168Y28551306D01*
X-9959839Y28532567D01*
X-9878936Y28478773D01*
X-9824778Y28398114D01*
X-9805609Y28302869D01*
X-9808303Y28265771D01*
X-9815914Y28214469D01*
X-9441364Y27839919D01*
X-9445161Y27839373D01*
X-9578562Y27778451D01*
X-9689395Y27682413D01*
X-9768682Y27559040D01*
X-9791134Y27482579D01*
X-10169468Y27860913D01*
X-10237630Y27733389D01*
X-10237632Y27733384D01*
X-10295387Y27542994D01*
X-10302199Y27473822D01*
X-10330402Y27380851D01*
X-10356896Y27348569D01*
X-10311722Y27264053D01*
X-10302199Y27216178D01*
X-10295387Y27147006D01*
X-10237635Y26956625D01*
X-10237634Y26956622D01*
X-10169467Y26829089D01*
X-9791134Y27207422D01*
X-9768682Y27130960D01*
X-9689395Y27007587D01*
X-9578562Y26911549D01*
X-9445161Y26850627D01*
X-9441366Y26850082D01*
X-9815913Y26475534D01*
X-9688379Y26407367D01*
X-9497996Y26349615D01*
X-9300000Y26330114D01*
X-9102005Y26349615D01*
X-8911622Y26407367D01*
X-8784088Y26475535D01*
X-9158635Y26850082D01*
X-9154839Y26850627D01*
X-9021438Y26911549D01*
X-8910605Y27007587D01*
X-8831318Y27130960D01*
X-8808867Y27207421D01*
X-8430535Y26829089D01*
X-8362367Y26956622D01*
X-8304614Y27147006D01*
X-8297801Y27216178D01*
X-8269598Y27309150D01*
X-8243105Y27341433D01*
X-8288278Y27425948D01*
X-8297801Y27473822D01*
X-8304615Y27542996D01*
X-8362367Y27733379D01*
X-8430535Y27860913D01*
X-8808867Y27482581D01*
X-8831318Y27559040D01*
X-8910605Y27682413D01*
X-9021438Y27778451D01*
X-9154839Y27839373D01*
X-9158637Y27839919D01*
X-8784088Y28214468D01*
X-8792203Y28269174D01*
X-8787436Y28366211D01*
X-8745897Y28454039D01*
X-8673910Y28519284D01*
X-8582434Y28552015D01*
X-8546467Y28554709D01*
X-7554330Y28556947D01*
X-7459002Y28538208D01*
X-7378099Y28484414D01*
X-7323941Y28403755D01*
X-7304772Y28308510D01*
X-7307466Y28271411D01*
X-7315913Y28214468D01*
X-6941364Y27839919D01*
X-6945161Y27839373D01*
X-7078562Y27778451D01*
X-7189395Y27682413D01*
X-7268682Y27559040D01*
X-7291134Y27482579D01*
X-7669468Y27860913D01*
X-7737630Y27733389D01*
X-7737632Y27733384D01*
X-7795387Y27542994D01*
X-7802199Y27473822D01*
X-7830402Y27380851D01*
X-7856896Y27348569D01*
X-7811722Y27264053D01*
X-7802199Y27216178D01*
X-7795387Y27147006D01*
X-7737635Y26956625D01*
X-7737634Y26956622D01*
X-7669467Y26829089D01*
X-7291134Y27207422D01*
X-7268682Y27130960D01*
X-7189395Y27007587D01*
X-7078562Y26911549D01*
X-6945161Y26850627D01*
X-6941366Y26850082D01*
X-7315913Y26475534D01*
X-7188379Y26407367D01*
X-6997996Y26349615D01*
X-6800000Y26330114D01*
X-6602005Y26349615D01*
X-6411622Y26407367D01*
X-6284089Y26475535D01*
X-6658635Y26850082D01*
X-6654839Y26850627D01*
X-6521438Y26911549D01*
X-6410605Y27007587D01*
X-6331318Y27130960D01*
X-6308867Y27207421D01*
X-5930535Y26829089D01*
X-5862367Y26956622D01*
X-5804614Y27147006D01*
X-5797801Y27216178D01*
X-5769598Y27309150D01*
X-5743105Y27341433D01*
X-5788278Y27425948D01*
X-5797801Y27473822D01*
X-5804615Y27542996D01*
X-5862367Y27733379D01*
X-5930535Y27860913D01*
X-6308867Y27482581D01*
X-6331318Y27559040D01*
X-6410605Y27682413D01*
X-6521438Y27778451D01*
X-6654839Y27839373D01*
X-6658637Y27839919D01*
X-6284089Y28214467D01*
X-6293040Y28274809D01*
X-6288273Y28371847D01*
X-6246735Y28459675D01*
X-6174748Y28524921D01*
X-6083273Y28557652D01*
X-6047301Y28560346D01*
X-5053493Y28562588D01*
X-4958165Y28543849D01*
G37*
%TD.AperFunction*%
%TA.AperFunction,Conductor*%
G36*
X-3018731Y28548225D02*
G01*
X-2937828Y28494431D01*
X-2883670Y28413771D01*
X-2864501Y28318526D01*
X-2864500Y28317964D01*
X-2864500Y27770754D01*
X-2883454Y27675466D01*
X-2937430Y27594684D01*
X-3018212Y27540708D01*
X-3113500Y27521754D01*
X-3208788Y27540708D01*
X-3289570Y27594684D01*
X-3343546Y27675466D01*
X-3351778Y27698473D01*
X-3362367Y27733379D01*
X-3430535Y27860913D01*
X-3808867Y27482581D01*
X-3831318Y27559040D01*
X-3910605Y27682413D01*
X-4021438Y27778451D01*
X-4154839Y27839373D01*
X-4158637Y27839919D01*
X-3784089Y28214467D01*
X-3793876Y28280447D01*
X-3789109Y28377485D01*
X-3747571Y28465312D01*
X-3675584Y28530558D01*
X-3584108Y28563289D01*
X-3548134Y28565983D01*
X-3114058Y28566963D01*
X-3018731Y28548225D01*
G37*
%TD.AperFunction*%
%TD*%
%TA.AperFunction,Conductor*%
%TO.N,/BATT_A*%
G36*
X-2818231Y63300147D02*
G01*
X-2737328Y63246353D01*
X-2683170Y63165694D01*
X-2664001Y63070449D01*
X-2664000Y63069887D01*
X-2664000Y57721485D01*
X-2682954Y57626197D01*
X-2736930Y57545415D01*
X-2817712Y57491439D01*
X-2913000Y57472485D01*
X-2916018Y57472503D01*
X-3528947Y57479933D01*
X-3623999Y57500041D01*
X-3704120Y57554993D01*
X-3757113Y57636422D01*
X-3762183Y57663629D01*
X-4158635Y58060082D01*
X-4154839Y58060627D01*
X-4021438Y58121549D01*
X-3910605Y58217587D01*
X-3831318Y58340960D01*
X-3808867Y58417421D01*
X-3430535Y58039089D01*
X-3362367Y58166622D01*
X-3304615Y58357005D01*
X-3285114Y58555000D01*
X-3304615Y58752996D01*
X-3362367Y58943379D01*
X-3430535Y59070913D01*
X-3808867Y58692581D01*
X-3831318Y58769040D01*
X-3910605Y58892413D01*
X-4021438Y58988451D01*
X-4154839Y59049373D01*
X-4158637Y59049919D01*
X-3784089Y59424467D01*
X-3911622Y59492634D01*
X-3911625Y59492635D01*
X-4102005Y59550386D01*
X-4300000Y59569887D01*
X-4497994Y59550387D01*
X-4688384Y59492632D01*
X-4688389Y59492630D01*
X-4815913Y59424468D01*
X-4441364Y59049919D01*
X-4445161Y59049373D01*
X-4578562Y58988451D01*
X-4689395Y58892413D01*
X-4768682Y58769040D01*
X-4791134Y58692579D01*
X-5169468Y59070913D01*
X-5237630Y58943389D01*
X-5237632Y58943384D01*
X-5295387Y58752994D01*
X-5302199Y58683822D01*
X-5330402Y58590851D01*
X-5356896Y58558569D01*
X-5311722Y58474053D01*
X-5302199Y58426178D01*
X-5295387Y58357006D01*
X-5237635Y58166625D01*
X-5237634Y58166622D01*
X-5169467Y58039089D01*
X-4791134Y58417422D01*
X-4768682Y58340960D01*
X-4689395Y58217587D01*
X-4578562Y58121549D01*
X-4445161Y58060627D01*
X-4441366Y58060082D01*
X-4843327Y57658120D01*
X-4875488Y57590119D01*
X-4947475Y57524874D01*
X-5038950Y57492143D01*
X-5075487Y57489448D01*
X-6024514Y57489448D01*
X-6119802Y57508402D01*
X-6200584Y57562378D01*
X-6254560Y57643160D01*
X-6257750Y57659196D01*
X-6658635Y58060082D01*
X-6654839Y58060627D01*
X-6521438Y58121549D01*
X-6410605Y58217587D01*
X-6331318Y58340960D01*
X-6308867Y58417421D01*
X-5930535Y58039089D01*
X-5862367Y58166622D01*
X-5804614Y58357006D01*
X-5797801Y58426178D01*
X-5769598Y58519150D01*
X-5743105Y58551433D01*
X-5788278Y58635948D01*
X-5797801Y58683822D01*
X-5804615Y58752996D01*
X-5862367Y58943379D01*
X-5930535Y59070913D01*
X-6308867Y58692581D01*
X-6331318Y58769040D01*
X-6410605Y58892413D01*
X-6521438Y58988451D01*
X-6654839Y59049373D01*
X-6658637Y59049919D01*
X-6284089Y59424467D01*
X-6411622Y59492634D01*
X-6411625Y59492635D01*
X-6602005Y59550386D01*
X-6800000Y59569887D01*
X-6997994Y59550387D01*
X-7188384Y59492632D01*
X-7188389Y59492630D01*
X-7315913Y59424468D01*
X-6941364Y59049919D01*
X-6945161Y59049373D01*
X-7078562Y58988451D01*
X-7189395Y58892413D01*
X-7268682Y58769040D01*
X-7291134Y58692579D01*
X-7669468Y59070913D01*
X-7737630Y58943389D01*
X-7737632Y58943384D01*
X-7795387Y58752994D01*
X-7802199Y58683822D01*
X-7830402Y58590851D01*
X-7856896Y58558569D01*
X-7811722Y58474053D01*
X-7802199Y58426178D01*
X-7795387Y58357006D01*
X-7737635Y58166625D01*
X-7737634Y58166622D01*
X-7669467Y58039089D01*
X-7291134Y58417422D01*
X-7268682Y58340960D01*
X-7189395Y58217587D01*
X-7078562Y58121549D01*
X-6945161Y58060627D01*
X-6941366Y58060082D01*
X-7343327Y57658120D01*
X-7375488Y57590119D01*
X-7447475Y57524874D01*
X-7538950Y57492143D01*
X-7575487Y57489448D01*
X-8524514Y57489448D01*
X-8619802Y57508402D01*
X-8700584Y57562378D01*
X-8754560Y57643160D01*
X-8757750Y57659196D01*
X-9158635Y58060082D01*
X-9154839Y58060627D01*
X-9021438Y58121549D01*
X-8910605Y58217587D01*
X-8831318Y58340960D01*
X-8808867Y58417421D01*
X-8430535Y58039089D01*
X-8362367Y58166622D01*
X-8304614Y58357006D01*
X-8297801Y58426178D01*
X-8269598Y58519150D01*
X-8243105Y58551433D01*
X-8288278Y58635948D01*
X-8297801Y58683822D01*
X-8304615Y58752996D01*
X-8362367Y58943379D01*
X-8430535Y59070913D01*
X-8808867Y58692581D01*
X-8831318Y58769040D01*
X-8910605Y58892413D01*
X-9021438Y58988451D01*
X-9154839Y59049373D01*
X-9158637Y59049919D01*
X-8784089Y59424467D01*
X-8911622Y59492634D01*
X-8911625Y59492635D01*
X-9102005Y59550386D01*
X-9300000Y59569887D01*
X-9497994Y59550387D01*
X-9688384Y59492632D01*
X-9688389Y59492630D01*
X-9815913Y59424468D01*
X-9441364Y59049919D01*
X-9445161Y59049373D01*
X-9578562Y58988451D01*
X-9689395Y58892413D01*
X-9768682Y58769040D01*
X-9791134Y58692579D01*
X-10169468Y59070913D01*
X-10237630Y58943389D01*
X-10237632Y58943384D01*
X-10295387Y58752994D01*
X-10302199Y58683822D01*
X-10330402Y58590851D01*
X-10356896Y58558569D01*
X-10311722Y58474053D01*
X-10302199Y58426178D01*
X-10295387Y58357006D01*
X-10237635Y58166625D01*
X-10237634Y58166622D01*
X-10169467Y58039089D01*
X-9791134Y58417422D01*
X-9768682Y58340960D01*
X-9689395Y58217587D01*
X-9578562Y58121549D01*
X-9445161Y58060627D01*
X-9441366Y58060082D01*
X-9843327Y57658120D01*
X-9875488Y57590119D01*
X-9947475Y57524874D01*
X-10038950Y57492143D01*
X-10075487Y57489448D01*
X-11024514Y57489448D01*
X-11119802Y57508402D01*
X-11200584Y57562378D01*
X-11254560Y57643160D01*
X-11257750Y57659196D01*
X-11658635Y58060082D01*
X-11654839Y58060627D01*
X-11521438Y58121549D01*
X-11410605Y58217587D01*
X-11331318Y58340960D01*
X-11308867Y58417421D01*
X-10930535Y58039089D01*
X-10862367Y58166622D01*
X-10804614Y58357006D01*
X-10797801Y58426178D01*
X-10769598Y58519150D01*
X-10743105Y58551433D01*
X-10788278Y58635948D01*
X-10797801Y58683822D01*
X-10804615Y58752996D01*
X-10862367Y58943379D01*
X-10930535Y59070913D01*
X-11308867Y58692581D01*
X-11331318Y58769040D01*
X-11410605Y58892413D01*
X-11521438Y58988451D01*
X-11654839Y59049373D01*
X-11658637Y59049919D01*
X-11284089Y59424467D01*
X-11411622Y59492634D01*
X-11411625Y59492635D01*
X-11602005Y59550386D01*
X-11800000Y59569887D01*
X-11997994Y59550387D01*
X-12188384Y59492632D01*
X-12188389Y59492630D01*
X-12315913Y59424468D01*
X-11941364Y59049919D01*
X-11945161Y59049373D01*
X-12078562Y58988451D01*
X-12189395Y58892413D01*
X-12268682Y58769040D01*
X-12291134Y58692579D01*
X-12669468Y59070913D01*
X-12737630Y58943389D01*
X-12737632Y58943384D01*
X-12795387Y58752994D01*
X-12802199Y58683822D01*
X-12830402Y58590851D01*
X-12856896Y58558569D01*
X-12811722Y58474053D01*
X-12802199Y58426178D01*
X-12795387Y58357006D01*
X-12737635Y58166625D01*
X-12737634Y58166622D01*
X-12669467Y58039089D01*
X-12291134Y58417422D01*
X-12268682Y58340960D01*
X-12189395Y58217587D01*
X-12078562Y58121549D01*
X-11945161Y58060627D01*
X-11941366Y58060082D01*
X-12343327Y57658120D01*
X-12375488Y57590119D01*
X-12447475Y57524874D01*
X-12538950Y57492143D01*
X-12575487Y57489448D01*
X-13524514Y57489448D01*
X-13619802Y57508402D01*
X-13700584Y57562378D01*
X-13754560Y57643160D01*
X-13757750Y57659196D01*
X-14158635Y58060082D01*
X-14154839Y58060627D01*
X-14021438Y58121549D01*
X-13910605Y58217587D01*
X-13831318Y58340960D01*
X-13808867Y58417421D01*
X-13430535Y58039089D01*
X-13362367Y58166622D01*
X-13304614Y58357006D01*
X-13297801Y58426178D01*
X-13269598Y58519150D01*
X-13243105Y58551433D01*
X-13288278Y58635948D01*
X-13297801Y58683822D01*
X-13304615Y58752996D01*
X-13362367Y58943379D01*
X-13430535Y59070913D01*
X-13808867Y58692581D01*
X-13831318Y58769040D01*
X-13910605Y58892413D01*
X-14021438Y58988451D01*
X-14154839Y59049373D01*
X-14158637Y59049919D01*
X-13784089Y59424467D01*
X-13911622Y59492634D01*
X-13911625Y59492635D01*
X-14102005Y59550386D01*
X-14300000Y59569887D01*
X-14497994Y59550387D01*
X-14688384Y59492632D01*
X-14688389Y59492630D01*
X-14815913Y59424468D01*
X-14441364Y59049919D01*
X-14445161Y59049373D01*
X-14578562Y58988451D01*
X-14689395Y58892413D01*
X-14768682Y58769040D01*
X-14791134Y58692579D01*
X-15169468Y59070913D01*
X-15237630Y58943389D01*
X-15237632Y58943384D01*
X-15295387Y58752994D01*
X-15314887Y58555000D01*
X-15295386Y58357005D01*
X-15237635Y58166625D01*
X-15237634Y58166622D01*
X-15169467Y58039089D01*
X-14791134Y58417422D01*
X-14768682Y58340960D01*
X-14689395Y58217587D01*
X-14578562Y58121549D01*
X-14445161Y58060627D01*
X-14441366Y58060082D01*
X-14832580Y57668867D01*
X-14832585Y57668752D01*
X-14874124Y57580925D01*
X-14946111Y57515679D01*
X-15037586Y57482948D01*
X-15071105Y57480271D01*
X-15711982Y57472503D01*
X-15807493Y57490301D01*
X-15888923Y57543294D01*
X-15943874Y57623416D01*
X-15963982Y57718467D01*
X-15964000Y57721485D01*
X-15964000Y61555000D01*
X-15314887Y61555000D01*
X-15295386Y61357005D01*
X-15237635Y61166625D01*
X-15237634Y61166622D01*
X-15169467Y61039089D01*
X-14791134Y61417422D01*
X-14768682Y61340960D01*
X-14689395Y61217587D01*
X-14578562Y61121549D01*
X-14445161Y61060627D01*
X-14441366Y61060082D01*
X-14815913Y60685534D01*
X-14688379Y60617367D01*
X-14497996Y60559615D01*
X-14300000Y60540114D01*
X-14102005Y60559615D01*
X-13911622Y60617367D01*
X-13784089Y60685535D01*
X-14158635Y61060082D01*
X-14154839Y61060627D01*
X-14021438Y61121549D01*
X-13910605Y61217587D01*
X-13831318Y61340960D01*
X-13808867Y61417421D01*
X-13430535Y61039089D01*
X-13362367Y61166622D01*
X-13304614Y61357006D01*
X-13297801Y61426178D01*
X-13269598Y61519150D01*
X-13243105Y61551433D01*
X-13246919Y61558569D01*
X-12856896Y61558569D01*
X-12811722Y61474053D01*
X-12802199Y61426178D01*
X-12795387Y61357006D01*
X-12737635Y61166625D01*
X-12737634Y61166622D01*
X-12669467Y61039089D01*
X-12291134Y61417422D01*
X-12268682Y61340960D01*
X-12189395Y61217587D01*
X-12078562Y61121549D01*
X-11945161Y61060627D01*
X-11941366Y61060082D01*
X-12315913Y60685534D01*
X-12188379Y60617367D01*
X-11997996Y60559615D01*
X-11800000Y60540114D01*
X-11602005Y60559615D01*
X-11411622Y60617367D01*
X-11284088Y60685535D01*
X-11658635Y61060082D01*
X-11654839Y61060627D01*
X-11521438Y61121549D01*
X-11410605Y61217587D01*
X-11331318Y61340960D01*
X-11308867Y61417421D01*
X-10930535Y61039089D01*
X-10862367Y61166622D01*
X-10804614Y61357006D01*
X-10797801Y61426178D01*
X-10769598Y61519150D01*
X-10743105Y61551433D01*
X-10746919Y61558569D01*
X-10356896Y61558569D01*
X-10311722Y61474053D01*
X-10302199Y61426178D01*
X-10295387Y61357006D01*
X-10237635Y61166625D01*
X-10237634Y61166622D01*
X-10169467Y61039089D01*
X-9791134Y61417422D01*
X-9768682Y61340960D01*
X-9689395Y61217587D01*
X-9578562Y61121549D01*
X-9445161Y61060627D01*
X-9441366Y61060082D01*
X-9815913Y60685534D01*
X-9688379Y60617367D01*
X-9497996Y60559615D01*
X-9300000Y60540114D01*
X-9102005Y60559615D01*
X-8911622Y60617367D01*
X-8784088Y60685535D01*
X-9158635Y61060082D01*
X-9154839Y61060627D01*
X-9021438Y61121549D01*
X-8910605Y61217587D01*
X-8831318Y61340960D01*
X-8808867Y61417421D01*
X-8430535Y61039089D01*
X-8362367Y61166622D01*
X-8304614Y61357006D01*
X-8297801Y61426178D01*
X-8269598Y61519150D01*
X-8243105Y61551433D01*
X-8246919Y61558569D01*
X-7856896Y61558569D01*
X-7811722Y61474053D01*
X-7802199Y61426178D01*
X-7795387Y61357006D01*
X-7737635Y61166625D01*
X-7737634Y61166622D01*
X-7669467Y61039089D01*
X-7291134Y61417422D01*
X-7268682Y61340960D01*
X-7189395Y61217587D01*
X-7078562Y61121549D01*
X-6945161Y61060627D01*
X-6941366Y61060082D01*
X-7315913Y60685534D01*
X-7188379Y60617367D01*
X-6997996Y60559615D01*
X-6800000Y60540114D01*
X-6602005Y60559615D01*
X-6411622Y60617367D01*
X-6284089Y60685535D01*
X-6658635Y61060082D01*
X-6654839Y61060627D01*
X-6521438Y61121549D01*
X-6410605Y61217587D01*
X-6331318Y61340960D01*
X-6308867Y61417421D01*
X-5930535Y61039089D01*
X-5862367Y61166622D01*
X-5804614Y61357006D01*
X-5797801Y61426178D01*
X-5769598Y61519150D01*
X-5743105Y61551433D01*
X-5746919Y61558569D01*
X-5356896Y61558569D01*
X-5311722Y61474053D01*
X-5302199Y61426178D01*
X-5295387Y61357006D01*
X-5237635Y61166625D01*
X-5237634Y61166622D01*
X-5169467Y61039089D01*
X-4791134Y61417422D01*
X-4768682Y61340960D01*
X-4689395Y61217587D01*
X-4578562Y61121549D01*
X-4445161Y61060627D01*
X-4441366Y61060082D01*
X-4815913Y60685534D01*
X-4688379Y60617367D01*
X-4497996Y60559615D01*
X-4300000Y60540114D01*
X-4102005Y60559615D01*
X-3911622Y60617367D01*
X-3784089Y60685535D01*
X-4158635Y61060082D01*
X-4154839Y61060627D01*
X-4021438Y61121549D01*
X-3910605Y61217587D01*
X-3831318Y61340960D01*
X-3808867Y61417421D01*
X-3430535Y61039089D01*
X-3362367Y61166622D01*
X-3304615Y61357005D01*
X-3285114Y61555000D01*
X-3304615Y61752996D01*
X-3362367Y61943379D01*
X-3430535Y62070913D01*
X-3808867Y61692581D01*
X-3831318Y61769040D01*
X-3910605Y61892413D01*
X-4021438Y61988451D01*
X-4154839Y62049373D01*
X-4158637Y62049919D01*
X-3784089Y62424467D01*
X-3911622Y62492634D01*
X-3911625Y62492635D01*
X-4102005Y62550386D01*
X-4300000Y62569887D01*
X-4497994Y62550387D01*
X-4688384Y62492632D01*
X-4688389Y62492630D01*
X-4815913Y62424468D01*
X-4441364Y62049919D01*
X-4445161Y62049373D01*
X-4578562Y61988451D01*
X-4689395Y61892413D01*
X-4768682Y61769040D01*
X-4791134Y61692579D01*
X-5169468Y62070913D01*
X-5237630Y61943389D01*
X-5237632Y61943384D01*
X-5295387Y61752994D01*
X-5302199Y61683822D01*
X-5330402Y61590851D01*
X-5356896Y61558569D01*
X-5746919Y61558569D01*
X-5788278Y61635948D01*
X-5797801Y61683822D01*
X-5804615Y61752996D01*
X-5862367Y61943379D01*
X-5930535Y62070913D01*
X-6308867Y61692581D01*
X-6331318Y61769040D01*
X-6410605Y61892413D01*
X-6521438Y61988451D01*
X-6654839Y62049373D01*
X-6658637Y62049919D01*
X-6284089Y62424467D01*
X-6411622Y62492634D01*
X-6411625Y62492635D01*
X-6602005Y62550386D01*
X-6800000Y62569887D01*
X-6997994Y62550387D01*
X-7188384Y62492632D01*
X-7188389Y62492630D01*
X-7315913Y62424468D01*
X-6941364Y62049919D01*
X-6945161Y62049373D01*
X-7078562Y61988451D01*
X-7189395Y61892413D01*
X-7268682Y61769040D01*
X-7291134Y61692579D01*
X-7669468Y62070913D01*
X-7737630Y61943389D01*
X-7737632Y61943384D01*
X-7795387Y61752994D01*
X-7802199Y61683822D01*
X-7830402Y61590851D01*
X-7856896Y61558569D01*
X-8246919Y61558569D01*
X-8288278Y61635948D01*
X-8297801Y61683822D01*
X-8304615Y61752996D01*
X-8362367Y61943379D01*
X-8430535Y62070913D01*
X-8808867Y61692581D01*
X-8831318Y61769040D01*
X-8910605Y61892413D01*
X-9021438Y61988451D01*
X-9154839Y62049373D01*
X-9158637Y62049919D01*
X-8784089Y62424467D01*
X-8911622Y62492634D01*
X-8911625Y62492635D01*
X-9102005Y62550386D01*
X-9300000Y62569887D01*
X-9497994Y62550387D01*
X-9688384Y62492632D01*
X-9688389Y62492630D01*
X-9815913Y62424468D01*
X-9441364Y62049919D01*
X-9445161Y62049373D01*
X-9578562Y61988451D01*
X-9689395Y61892413D01*
X-9768682Y61769040D01*
X-9791134Y61692579D01*
X-10169468Y62070913D01*
X-10237630Y61943389D01*
X-10237632Y61943384D01*
X-10295387Y61752994D01*
X-10302199Y61683822D01*
X-10330402Y61590851D01*
X-10356896Y61558569D01*
X-10746919Y61558569D01*
X-10788278Y61635948D01*
X-10797801Y61683822D01*
X-10804615Y61752996D01*
X-10862367Y61943379D01*
X-10930535Y62070913D01*
X-11308867Y61692581D01*
X-11331318Y61769040D01*
X-11410605Y61892413D01*
X-11521438Y61988451D01*
X-11654839Y62049373D01*
X-11658637Y62049919D01*
X-11284089Y62424467D01*
X-11411622Y62492634D01*
X-11411625Y62492635D01*
X-11602005Y62550386D01*
X-11800000Y62569887D01*
X-11997994Y62550387D01*
X-12188384Y62492632D01*
X-12188389Y62492630D01*
X-12315913Y62424468D01*
X-11941364Y62049919D01*
X-11945161Y62049373D01*
X-12078562Y61988451D01*
X-12189395Y61892413D01*
X-12268682Y61769040D01*
X-12291134Y61692579D01*
X-12669468Y62070913D01*
X-12737630Y61943389D01*
X-12737632Y61943384D01*
X-12795387Y61752994D01*
X-12802199Y61683822D01*
X-12830402Y61590851D01*
X-12856896Y61558569D01*
X-13246919Y61558569D01*
X-13288278Y61635948D01*
X-13297801Y61683822D01*
X-13304615Y61752996D01*
X-13362367Y61943379D01*
X-13430535Y62070913D01*
X-13808867Y61692581D01*
X-13831318Y61769040D01*
X-13910605Y61892413D01*
X-14021438Y61988451D01*
X-14154839Y62049373D01*
X-14158637Y62049919D01*
X-13784089Y62424467D01*
X-13911622Y62492634D01*
X-13911625Y62492635D01*
X-14102005Y62550386D01*
X-14300000Y62569887D01*
X-14497994Y62550387D01*
X-14688384Y62492632D01*
X-14688389Y62492630D01*
X-14815913Y62424468D01*
X-14441364Y62049919D01*
X-14445161Y62049373D01*
X-14578562Y61988451D01*
X-14689395Y61892413D01*
X-14768682Y61769040D01*
X-14791134Y61692579D01*
X-15169468Y62070913D01*
X-15237630Y61943389D01*
X-15237632Y61943384D01*
X-15295387Y61752994D01*
X-15314887Y61555000D01*
X-15964000Y61555000D01*
X-15964000Y63041010D01*
X-15945046Y63136298D01*
X-15891070Y63217080D01*
X-15810288Y63271056D01*
X-15715566Y63290009D01*
X-2913558Y63318886D01*
X-2818231Y63300147D01*
G37*
%TD.AperFunction*%
%TD*%
M02*
