%TF.GenerationSoftware,KiCad,Pcbnew,7.0.8-7.0.8~ubuntu23.04.1*%
%TF.CreationDate,2023-11-07T19:11:24+00:00*%
%TF.ProjectId,BATDATSOCKET01,42415444-4154-4534-9f43-4b455430312e,rev?*%
%TF.SameCoordinates,Original*%
%TF.FileFunction,Legend,Top*%
%TF.FilePolarity,Positive*%
%FSLAX46Y46*%
G04 Gerber Fmt 4.6, Leading zero omitted, Abs format (unit mm)*
G04 Created by KiCad (PCBNEW 7.0.8-7.0.8~ubuntu23.04.1) date 2023-11-07 19:11:24*
%MOMM*%
%LPD*%
G01*
G04 APERTURE LIST*
%ADD10C,0.100000*%
%ADD11C,0.150000*%
%ADD12C,0.200000*%
%ADD13C,0.120000*%
G04 APERTURE END LIST*
D10*
X-16748991Y61679688D02*
X-16710896Y61755878D01*
X-16710896Y61755878D02*
X-16710896Y61870164D01*
X-16710896Y61870164D02*
X-16748991Y61984450D01*
X-16748991Y61984450D02*
X-16825181Y62060640D01*
X-16825181Y62060640D02*
X-16901372Y62098735D01*
X-16901372Y62098735D02*
X-17053753Y62136831D01*
X-17053753Y62136831D02*
X-17168039Y62136831D01*
X-17168039Y62136831D02*
X-17320420Y62098735D01*
X-17320420Y62098735D02*
X-17396610Y62060640D01*
X-17396610Y62060640D02*
X-17472800Y61984450D01*
X-17472800Y61984450D02*
X-17510896Y61870164D01*
X-17510896Y61870164D02*
X-17510896Y61793973D01*
X-17510896Y61793973D02*
X-17472800Y61679688D01*
X-17472800Y61679688D02*
X-17434705Y61641592D01*
X-17434705Y61641592D02*
X-17168039Y61641592D01*
X-17168039Y61641592D02*
X-17168039Y61793973D01*
X-17510896Y61298735D02*
X-16710896Y61298735D01*
X-16710896Y61298735D02*
X-17510896Y60841592D01*
X-17510896Y60841592D02*
X-16710896Y60841592D01*
X-17510896Y60460640D02*
X-16710896Y60460640D01*
X-16710896Y60460640D02*
X-16710896Y60270164D01*
X-16710896Y60270164D02*
X-16748991Y60155878D01*
X-16748991Y60155878D02*
X-16825181Y60079688D01*
X-16825181Y60079688D02*
X-16901372Y60041593D01*
X-16901372Y60041593D02*
X-17053753Y60003497D01*
X-17053753Y60003497D02*
X-17168039Y60003497D01*
X-17168039Y60003497D02*
X-17320420Y60041593D01*
X-17320420Y60041593D02*
X-17396610Y60079688D01*
X-17396610Y60079688D02*
X-17472800Y60155878D01*
X-17472800Y60155878D02*
X-17510896Y60270164D01*
X-17510896Y60270164D02*
X-17510896Y60460640D01*
X-16710896Y58670164D02*
X-16710896Y59051116D01*
X-16710896Y59051116D02*
X-17091848Y59089212D01*
X-17091848Y59089212D02*
X-17053753Y59051116D01*
X-17053753Y59051116D02*
X-17015658Y58974926D01*
X-17015658Y58974926D02*
X-17015658Y58784450D01*
X-17015658Y58784450D02*
X-17053753Y58708259D01*
X-17053753Y58708259D02*
X-17091848Y58670164D01*
X-17091848Y58670164D02*
X-17168039Y58632069D01*
X-17168039Y58632069D02*
X-17358515Y58632069D01*
X-17358515Y58632069D02*
X-17434705Y58670164D01*
X-17434705Y58670164D02*
X-17472800Y58708259D01*
X-17472800Y58708259D02*
X-17510896Y58784450D01*
X-17510896Y58784450D02*
X-17510896Y58974926D01*
X-17510896Y58974926D02*
X-17472800Y59051116D01*
X-17472800Y59051116D02*
X-17434705Y59089212D01*
X-16710896Y58403497D02*
X-17510896Y58136830D01*
X-17510896Y58136830D02*
X-16710896Y57870164D01*
X-16710896Y57070164D02*
X-16710896Y56574926D01*
X-16710896Y56574926D02*
X-17015658Y56841592D01*
X-17015658Y56841592D02*
X-17015658Y56727307D01*
X-17015658Y56727307D02*
X-17053753Y56651116D01*
X-17053753Y56651116D02*
X-17091848Y56613021D01*
X-17091848Y56613021D02*
X-17168039Y56574926D01*
X-17168039Y56574926D02*
X-17358515Y56574926D01*
X-17358515Y56574926D02*
X-17434705Y56613021D01*
X-17434705Y56613021D02*
X-17472800Y56651116D01*
X-17472800Y56651116D02*
X-17510896Y56727307D01*
X-17510896Y56727307D02*
X-17510896Y56955878D01*
X-17510896Y56955878D02*
X-17472800Y57032069D01*
X-17472800Y57032069D02*
X-17434705Y57070164D01*
X-16977562Y56308259D02*
X-17510896Y56117783D01*
X-17510896Y56117783D02*
X-16977562Y55927306D01*
X-16710896Y55698735D02*
X-16710896Y55203497D01*
X-16710896Y55203497D02*
X-17015658Y55470163D01*
X-17015658Y55470163D02*
X-17015658Y55355878D01*
X-17015658Y55355878D02*
X-17053753Y55279687D01*
X-17053753Y55279687D02*
X-17091848Y55241592D01*
X-17091848Y55241592D02*
X-17168039Y55203497D01*
X-17168039Y55203497D02*
X-17358515Y55203497D01*
X-17358515Y55203497D02*
X-17434705Y55241592D01*
X-17434705Y55241592D02*
X-17472800Y55279687D01*
X-17472800Y55279687D02*
X-17510896Y55355878D01*
X-17510896Y55355878D02*
X-17510896Y55584449D01*
X-17510896Y55584449D02*
X-17472800Y55660640D01*
X-17472800Y55660640D02*
X-17434705Y55698735D01*
X-17510896Y54251115D02*
X-16710896Y54251115D01*
X-16710896Y54251115D02*
X-16710896Y54060639D01*
X-16710896Y54060639D02*
X-16748991Y53946353D01*
X-16748991Y53946353D02*
X-16825181Y53870163D01*
X-16825181Y53870163D02*
X-16901372Y53832068D01*
X-16901372Y53832068D02*
X-17053753Y53793972D01*
X-17053753Y53793972D02*
X-17168039Y53793972D01*
X-17168039Y53793972D02*
X-17320420Y53832068D01*
X-17320420Y53832068D02*
X-17396610Y53870163D01*
X-17396610Y53870163D02*
X-17472800Y53946353D01*
X-17472800Y53946353D02*
X-17510896Y54060639D01*
X-17510896Y54060639D02*
X-17510896Y54251115D01*
X-17091848Y53451115D02*
X-17091848Y53184449D01*
X-17510896Y53070163D02*
X-17510896Y53451115D01*
X-17510896Y53451115D02*
X-16710896Y53451115D01*
X-16710896Y53451115D02*
X-16710896Y53070163D01*
X-16710896Y52841591D02*
X-16710896Y52384448D01*
X-17510896Y52613020D02*
X-16710896Y52613020D01*
X-17510896Y50974924D02*
X-16977562Y50555876D01*
X-16977562Y50974924D02*
X-17510896Y50555876D01*
X-17510896Y48574923D02*
X-17129943Y48841590D01*
X-17510896Y49032066D02*
X-16710896Y49032066D01*
X-16710896Y49032066D02*
X-16710896Y48727304D01*
X-16710896Y48727304D02*
X-16748991Y48651114D01*
X-16748991Y48651114D02*
X-16787086Y48613019D01*
X-16787086Y48613019D02*
X-16863277Y48574923D01*
X-16863277Y48574923D02*
X-16977562Y48574923D01*
X-16977562Y48574923D02*
X-17053753Y48613019D01*
X-17053753Y48613019D02*
X-17091848Y48651114D01*
X-17091848Y48651114D02*
X-17129943Y48727304D01*
X-17129943Y48727304D02*
X-17129943Y49032066D01*
X-16710896Y48308257D02*
X-17510896Y47774923D01*
X-16710896Y47774923D02*
X-17510896Y48308257D01*
X-16710896Y46365399D02*
X-16710896Y45908256D01*
X-17510896Y46136828D02*
X-16710896Y46136828D01*
X-16710896Y45717780D02*
X-17510896Y45184446D01*
X-16710896Y45184446D02*
X-17510896Y45717780D01*
X-17510896Y44270160D02*
X-16710896Y44270160D01*
X-16710896Y44270160D02*
X-17282324Y44003494D01*
X-17282324Y44003494D02*
X-16710896Y43736827D01*
X-16710896Y43736827D02*
X-17510896Y43736827D01*
X-16710896Y43203493D02*
X-16710896Y43051112D01*
X-16710896Y43051112D02*
X-16748991Y42974922D01*
X-16748991Y42974922D02*
X-16825181Y42898731D01*
X-16825181Y42898731D02*
X-16977562Y42860636D01*
X-16977562Y42860636D02*
X-17244229Y42860636D01*
X-17244229Y42860636D02*
X-17396610Y42898731D01*
X-17396610Y42898731D02*
X-17472800Y42974922D01*
X-17472800Y42974922D02*
X-17510896Y43051112D01*
X-17510896Y43051112D02*
X-17510896Y43203493D01*
X-17510896Y43203493D02*
X-17472800Y43279684D01*
X-17472800Y43279684D02*
X-17396610Y43355874D01*
X-17396610Y43355874D02*
X-17244229Y43393970D01*
X-17244229Y43393970D02*
X-16977562Y43393970D01*
X-16977562Y43393970D02*
X-16825181Y43355874D01*
X-16825181Y43355874D02*
X-16748991Y43279684D01*
X-16748991Y43279684D02*
X-16710896Y43203493D01*
X-17472800Y42555875D02*
X-17510896Y42441589D01*
X-17510896Y42441589D02*
X-17510896Y42251113D01*
X-17510896Y42251113D02*
X-17472800Y42174922D01*
X-17472800Y42174922D02*
X-17434705Y42136827D01*
X-17434705Y42136827D02*
X-17358515Y42098732D01*
X-17358515Y42098732D02*
X-17282324Y42098732D01*
X-17282324Y42098732D02*
X-17206134Y42136827D01*
X-17206134Y42136827D02*
X-17168039Y42174922D01*
X-17168039Y42174922D02*
X-17129943Y42251113D01*
X-17129943Y42251113D02*
X-17091848Y42403494D01*
X-17091848Y42403494D02*
X-17053753Y42479684D01*
X-17053753Y42479684D02*
X-17015658Y42517779D01*
X-17015658Y42517779D02*
X-16939467Y42555875D01*
X-16939467Y42555875D02*
X-16863277Y42555875D01*
X-16863277Y42555875D02*
X-16787086Y42517779D01*
X-16787086Y42517779D02*
X-16748991Y42479684D01*
X-16748991Y42479684D02*
X-16710896Y42403494D01*
X-16710896Y42403494D02*
X-16710896Y42213017D01*
X-16710896Y42213017D02*
X-16748991Y42098732D01*
X-17510896Y41146350D02*
X-16710896Y41146350D01*
X-16710896Y41146350D02*
X-17282324Y40879684D01*
X-17282324Y40879684D02*
X-16710896Y40613017D01*
X-16710896Y40613017D02*
X-17510896Y40613017D01*
X-17510896Y40232064D02*
X-16710896Y40232064D01*
X-17472800Y39889208D02*
X-17510896Y39774922D01*
X-17510896Y39774922D02*
X-17510896Y39584446D01*
X-17510896Y39584446D02*
X-17472800Y39508255D01*
X-17472800Y39508255D02*
X-17434705Y39470160D01*
X-17434705Y39470160D02*
X-17358515Y39432065D01*
X-17358515Y39432065D02*
X-17282324Y39432065D01*
X-17282324Y39432065D02*
X-17206134Y39470160D01*
X-17206134Y39470160D02*
X-17168039Y39508255D01*
X-17168039Y39508255D02*
X-17129943Y39584446D01*
X-17129943Y39584446D02*
X-17091848Y39736827D01*
X-17091848Y39736827D02*
X-17053753Y39813017D01*
X-17053753Y39813017D02*
X-17015658Y39851112D01*
X-17015658Y39851112D02*
X-16939467Y39889208D01*
X-16939467Y39889208D02*
X-16863277Y39889208D01*
X-16863277Y39889208D02*
X-16787086Y39851112D01*
X-16787086Y39851112D02*
X-16748991Y39813017D01*
X-16748991Y39813017D02*
X-16710896Y39736827D01*
X-16710896Y39736827D02*
X-16710896Y39546350D01*
X-16710896Y39546350D02*
X-16748991Y39432065D01*
X-17472800Y38517779D02*
X-17510896Y38403493D01*
X-17510896Y38403493D02*
X-17510896Y38213017D01*
X-17510896Y38213017D02*
X-17472800Y38136826D01*
X-17472800Y38136826D02*
X-17434705Y38098731D01*
X-17434705Y38098731D02*
X-17358515Y38060636D01*
X-17358515Y38060636D02*
X-17282324Y38060636D01*
X-17282324Y38060636D02*
X-17206134Y38098731D01*
X-17206134Y38098731D02*
X-17168039Y38136826D01*
X-17168039Y38136826D02*
X-17129943Y38213017D01*
X-17129943Y38213017D02*
X-17091848Y38365398D01*
X-17091848Y38365398D02*
X-17053753Y38441588D01*
X-17053753Y38441588D02*
X-17015658Y38479683D01*
X-17015658Y38479683D02*
X-16939467Y38517779D01*
X-16939467Y38517779D02*
X-16863277Y38517779D01*
X-16863277Y38517779D02*
X-16787086Y38479683D01*
X-16787086Y38479683D02*
X-16748991Y38441588D01*
X-16748991Y38441588D02*
X-16710896Y38365398D01*
X-16710896Y38365398D02*
X-16710896Y38174921D01*
X-16710896Y38174921D02*
X-16748991Y38060636D01*
X-17434705Y37260635D02*
X-17472800Y37298731D01*
X-17472800Y37298731D02*
X-17510896Y37413016D01*
X-17510896Y37413016D02*
X-17510896Y37489207D01*
X-17510896Y37489207D02*
X-17472800Y37603493D01*
X-17472800Y37603493D02*
X-17396610Y37679683D01*
X-17396610Y37679683D02*
X-17320420Y37717778D01*
X-17320420Y37717778D02*
X-17168039Y37755874D01*
X-17168039Y37755874D02*
X-17053753Y37755874D01*
X-17053753Y37755874D02*
X-16901372Y37717778D01*
X-16901372Y37717778D02*
X-16825181Y37679683D01*
X-16825181Y37679683D02*
X-16748991Y37603493D01*
X-16748991Y37603493D02*
X-16710896Y37489207D01*
X-16710896Y37489207D02*
X-16710896Y37413016D01*
X-16710896Y37413016D02*
X-16748991Y37298731D01*
X-16748991Y37298731D02*
X-16787086Y37260635D01*
X-17510896Y36536826D02*
X-17510896Y36917778D01*
X-17510896Y36917778D02*
X-16710896Y36917778D01*
X-23884991Y61779688D02*
X-23846896Y61855878D01*
X-23846896Y61855878D02*
X-23846896Y61970164D01*
X-23846896Y61970164D02*
X-23884991Y62084450D01*
X-23884991Y62084450D02*
X-23961181Y62160640D01*
X-23961181Y62160640D02*
X-24037372Y62198735D01*
X-24037372Y62198735D02*
X-24189753Y62236831D01*
X-24189753Y62236831D02*
X-24304039Y62236831D01*
X-24304039Y62236831D02*
X-24456420Y62198735D01*
X-24456420Y62198735D02*
X-24532610Y62160640D01*
X-24532610Y62160640D02*
X-24608800Y62084450D01*
X-24608800Y62084450D02*
X-24646896Y61970164D01*
X-24646896Y61970164D02*
X-24646896Y61893973D01*
X-24646896Y61893973D02*
X-24608800Y61779688D01*
X-24608800Y61779688D02*
X-24570705Y61741592D01*
X-24570705Y61741592D02*
X-24304039Y61741592D01*
X-24304039Y61741592D02*
X-24304039Y61893973D01*
X-24646896Y61398735D02*
X-23846896Y61398735D01*
X-23846896Y61398735D02*
X-24646896Y60941592D01*
X-24646896Y60941592D02*
X-23846896Y60941592D01*
X-24646896Y60560640D02*
X-23846896Y60560640D01*
X-23846896Y60560640D02*
X-23846896Y60370164D01*
X-23846896Y60370164D02*
X-23884991Y60255878D01*
X-23884991Y60255878D02*
X-23961181Y60179688D01*
X-23961181Y60179688D02*
X-24037372Y60141593D01*
X-24037372Y60141593D02*
X-24189753Y60103497D01*
X-24189753Y60103497D02*
X-24304039Y60103497D01*
X-24304039Y60103497D02*
X-24456420Y60141593D01*
X-24456420Y60141593D02*
X-24532610Y60179688D01*
X-24532610Y60179688D02*
X-24608800Y60255878D01*
X-24608800Y60255878D02*
X-24646896Y60370164D01*
X-24646896Y60370164D02*
X-24646896Y60560640D01*
X-23846896Y58770164D02*
X-23846896Y59151116D01*
X-23846896Y59151116D02*
X-24227848Y59189212D01*
X-24227848Y59189212D02*
X-24189753Y59151116D01*
X-24189753Y59151116D02*
X-24151658Y59074926D01*
X-24151658Y59074926D02*
X-24151658Y58884450D01*
X-24151658Y58884450D02*
X-24189753Y58808259D01*
X-24189753Y58808259D02*
X-24227848Y58770164D01*
X-24227848Y58770164D02*
X-24304039Y58732069D01*
X-24304039Y58732069D02*
X-24494515Y58732069D01*
X-24494515Y58732069D02*
X-24570705Y58770164D01*
X-24570705Y58770164D02*
X-24608800Y58808259D01*
X-24608800Y58808259D02*
X-24646896Y58884450D01*
X-24646896Y58884450D02*
X-24646896Y59074926D01*
X-24646896Y59074926D02*
X-24608800Y59151116D01*
X-24608800Y59151116D02*
X-24570705Y59189212D01*
X-23846896Y58503497D02*
X-24646896Y58236830D01*
X-24646896Y58236830D02*
X-23846896Y57970164D01*
X-23846896Y57170164D02*
X-23846896Y56674926D01*
X-23846896Y56674926D02*
X-24151658Y56941592D01*
X-24151658Y56941592D02*
X-24151658Y56827307D01*
X-24151658Y56827307D02*
X-24189753Y56751116D01*
X-24189753Y56751116D02*
X-24227848Y56713021D01*
X-24227848Y56713021D02*
X-24304039Y56674926D01*
X-24304039Y56674926D02*
X-24494515Y56674926D01*
X-24494515Y56674926D02*
X-24570705Y56713021D01*
X-24570705Y56713021D02*
X-24608800Y56751116D01*
X-24608800Y56751116D02*
X-24646896Y56827307D01*
X-24646896Y56827307D02*
X-24646896Y57055878D01*
X-24646896Y57055878D02*
X-24608800Y57132069D01*
X-24608800Y57132069D02*
X-24570705Y57170164D01*
X-24113562Y56408259D02*
X-24646896Y56217783D01*
X-24646896Y56217783D02*
X-24113562Y56027306D01*
X-23846896Y55798735D02*
X-23846896Y55303497D01*
X-23846896Y55303497D02*
X-24151658Y55570163D01*
X-24151658Y55570163D02*
X-24151658Y55455878D01*
X-24151658Y55455878D02*
X-24189753Y55379687D01*
X-24189753Y55379687D02*
X-24227848Y55341592D01*
X-24227848Y55341592D02*
X-24304039Y55303497D01*
X-24304039Y55303497D02*
X-24494515Y55303497D01*
X-24494515Y55303497D02*
X-24570705Y55341592D01*
X-24570705Y55341592D02*
X-24608800Y55379687D01*
X-24608800Y55379687D02*
X-24646896Y55455878D01*
X-24646896Y55455878D02*
X-24646896Y55684449D01*
X-24646896Y55684449D02*
X-24608800Y55760640D01*
X-24608800Y55760640D02*
X-24570705Y55798735D01*
X-23884991Y53932068D02*
X-23846896Y54008258D01*
X-23846896Y54008258D02*
X-23846896Y54122544D01*
X-23846896Y54122544D02*
X-23884991Y54236830D01*
X-23884991Y54236830D02*
X-23961181Y54313020D01*
X-23961181Y54313020D02*
X-24037372Y54351115D01*
X-24037372Y54351115D02*
X-24189753Y54389211D01*
X-24189753Y54389211D02*
X-24304039Y54389211D01*
X-24304039Y54389211D02*
X-24456420Y54351115D01*
X-24456420Y54351115D02*
X-24532610Y54313020D01*
X-24532610Y54313020D02*
X-24608800Y54236830D01*
X-24608800Y54236830D02*
X-24646896Y54122544D01*
X-24646896Y54122544D02*
X-24646896Y54046353D01*
X-24646896Y54046353D02*
X-24608800Y53932068D01*
X-24608800Y53932068D02*
X-24570705Y53893972D01*
X-24570705Y53893972D02*
X-24304039Y53893972D01*
X-24304039Y53893972D02*
X-24304039Y54046353D01*
X-24646896Y53551115D02*
X-23846896Y53551115D01*
X-23846896Y53551115D02*
X-24646896Y53093972D01*
X-24646896Y53093972D02*
X-23846896Y53093972D01*
X-24646896Y52713020D02*
X-23846896Y52713020D01*
X-23846896Y52713020D02*
X-23846896Y52522544D01*
X-23846896Y52522544D02*
X-23884991Y52408258D01*
X-23884991Y52408258D02*
X-23961181Y52332068D01*
X-23961181Y52332068D02*
X-24037372Y52293973D01*
X-24037372Y52293973D02*
X-24189753Y52255877D01*
X-24189753Y52255877D02*
X-24304039Y52255877D01*
X-24304039Y52255877D02*
X-24456420Y52293973D01*
X-24456420Y52293973D02*
X-24532610Y52332068D01*
X-24532610Y52332068D02*
X-24608800Y52408258D01*
X-24608800Y52408258D02*
X-24646896Y52522544D01*
X-24646896Y52522544D02*
X-24646896Y52713020D01*
X-24418324Y51341592D02*
X-24418324Y50960639D01*
X-24646896Y51417782D02*
X-23846896Y51151115D01*
X-23846896Y51151115D02*
X-24646896Y50884449D01*
X-23846896Y50465401D02*
X-23846896Y50389211D01*
X-23846896Y50389211D02*
X-23884991Y50313020D01*
X-23884991Y50313020D02*
X-23923086Y50274925D01*
X-23923086Y50274925D02*
X-23999277Y50236830D01*
X-23999277Y50236830D02*
X-24151658Y50198735D01*
X-24151658Y50198735D02*
X-24342134Y50198735D01*
X-24342134Y50198735D02*
X-24494515Y50236830D01*
X-24494515Y50236830D02*
X-24570705Y50274925D01*
X-24570705Y50274925D02*
X-24608800Y50313020D01*
X-24608800Y50313020D02*
X-24646896Y50389211D01*
X-24646896Y50389211D02*
X-24646896Y50465401D01*
X-24646896Y50465401D02*
X-24608800Y50541592D01*
X-24608800Y50541592D02*
X-24570705Y50579687D01*
X-24570705Y50579687D02*
X-24494515Y50617782D01*
X-24494515Y50617782D02*
X-24342134Y50655878D01*
X-24342134Y50655878D02*
X-24151658Y50655878D01*
X-24151658Y50655878D02*
X-23999277Y50617782D01*
X-23999277Y50617782D02*
X-23923086Y50579687D01*
X-23923086Y50579687D02*
X-23884991Y50541592D01*
X-23884991Y50541592D02*
X-23846896Y50465401D01*
X-24418324Y48674925D02*
X-24418324Y48293972D01*
X-24646896Y48751115D02*
X-23846896Y48484448D01*
X-23846896Y48484448D02*
X-24646896Y48217782D01*
X-24646896Y47532068D02*
X-24646896Y47989211D01*
X-24646896Y47760639D02*
X-23846896Y47760639D01*
X-23846896Y47760639D02*
X-23961181Y47836830D01*
X-23961181Y47836830D02*
X-24037372Y47913020D01*
X-24037372Y47913020D02*
X-24075467Y47989211D01*
X-24227848Y45703496D02*
X-24265943Y45589210D01*
X-24265943Y45589210D02*
X-24304039Y45551115D01*
X-24304039Y45551115D02*
X-24380229Y45513019D01*
X-24380229Y45513019D02*
X-24494515Y45513019D01*
X-24494515Y45513019D02*
X-24570705Y45551115D01*
X-24570705Y45551115D02*
X-24608800Y45589210D01*
X-24608800Y45589210D02*
X-24646896Y45665400D01*
X-24646896Y45665400D02*
X-24646896Y45970162D01*
X-24646896Y45970162D02*
X-23846896Y45970162D01*
X-23846896Y45970162D02*
X-23846896Y45703496D01*
X-23846896Y45703496D02*
X-23884991Y45627305D01*
X-23884991Y45627305D02*
X-23923086Y45589210D01*
X-23923086Y45589210D02*
X-23999277Y45551115D01*
X-23999277Y45551115D02*
X-24075467Y45551115D01*
X-24075467Y45551115D02*
X-24151658Y45589210D01*
X-24151658Y45589210D02*
X-24189753Y45627305D01*
X-24189753Y45627305D02*
X-24227848Y45703496D01*
X-24227848Y45703496D02*
X-24227848Y45970162D01*
X-24646896Y44751115D02*
X-24646896Y45208258D01*
X-24646896Y44979686D02*
X-23846896Y44979686D01*
X-23846896Y44979686D02*
X-23961181Y45055877D01*
X-23961181Y45055877D02*
X-24037372Y45132067D01*
X-24037372Y45132067D02*
X-24075467Y45208258D01*
X-24227848Y42922543D02*
X-24265943Y42808257D01*
X-24265943Y42808257D02*
X-24304039Y42770162D01*
X-24304039Y42770162D02*
X-24380229Y42732066D01*
X-24380229Y42732066D02*
X-24494515Y42732066D01*
X-24494515Y42732066D02*
X-24570705Y42770162D01*
X-24570705Y42770162D02*
X-24608800Y42808257D01*
X-24608800Y42808257D02*
X-24646896Y42884447D01*
X-24646896Y42884447D02*
X-24646896Y43189209D01*
X-24646896Y43189209D02*
X-23846896Y43189209D01*
X-23846896Y43189209D02*
X-23846896Y42922543D01*
X-23846896Y42922543D02*
X-23884991Y42846352D01*
X-23884991Y42846352D02*
X-23923086Y42808257D01*
X-23923086Y42808257D02*
X-23999277Y42770162D01*
X-23999277Y42770162D02*
X-24075467Y42770162D01*
X-24075467Y42770162D02*
X-24151658Y42808257D01*
X-24151658Y42808257D02*
X-24189753Y42846352D01*
X-24189753Y42846352D02*
X-24227848Y42922543D01*
X-24227848Y42922543D02*
X-24227848Y43189209D01*
X-23846896Y42236828D02*
X-23846896Y42160638D01*
X-23846896Y42160638D02*
X-23884991Y42084447D01*
X-23884991Y42084447D02*
X-23923086Y42046352D01*
X-23923086Y42046352D02*
X-23999277Y42008257D01*
X-23999277Y42008257D02*
X-24151658Y41970162D01*
X-24151658Y41970162D02*
X-24342134Y41970162D01*
X-24342134Y41970162D02*
X-24494515Y42008257D01*
X-24494515Y42008257D02*
X-24570705Y42046352D01*
X-24570705Y42046352D02*
X-24608800Y42084447D01*
X-24608800Y42084447D02*
X-24646896Y42160638D01*
X-24646896Y42160638D02*
X-24646896Y42236828D01*
X-24646896Y42236828D02*
X-24608800Y42313019D01*
X-24608800Y42313019D02*
X-24570705Y42351114D01*
X-24570705Y42351114D02*
X-24494515Y42389209D01*
X-24494515Y42389209D02*
X-24342134Y42427305D01*
X-24342134Y42427305D02*
X-24151658Y42427305D01*
X-24151658Y42427305D02*
X-23999277Y42389209D01*
X-23999277Y42389209D02*
X-23923086Y42351114D01*
X-23923086Y42351114D02*
X-23884991Y42313019D01*
X-23884991Y42313019D02*
X-23846896Y42236828D01*
X-24570705Y40560637D02*
X-24608800Y40598733D01*
X-24608800Y40598733D02*
X-24646896Y40713018D01*
X-24646896Y40713018D02*
X-24646896Y40789209D01*
X-24646896Y40789209D02*
X-24608800Y40903495D01*
X-24608800Y40903495D02*
X-24532610Y40979685D01*
X-24532610Y40979685D02*
X-24456420Y41017780D01*
X-24456420Y41017780D02*
X-24304039Y41055876D01*
X-24304039Y41055876D02*
X-24189753Y41055876D01*
X-24189753Y41055876D02*
X-24037372Y41017780D01*
X-24037372Y41017780D02*
X-23961181Y40979685D01*
X-23961181Y40979685D02*
X-23884991Y40903495D01*
X-23884991Y40903495D02*
X-23846896Y40789209D01*
X-23846896Y40789209D02*
X-23846896Y40713018D01*
X-23846896Y40713018D02*
X-23884991Y40598733D01*
X-23884991Y40598733D02*
X-23923086Y40560637D01*
X-24646896Y39798733D02*
X-24646896Y40255876D01*
X-24646896Y40027304D02*
X-23846896Y40027304D01*
X-23846896Y40027304D02*
X-23961181Y40103495D01*
X-23961181Y40103495D02*
X-24037372Y40179685D01*
X-24037372Y40179685D02*
X-24075467Y40255876D01*
X-24570705Y37779684D02*
X-24608800Y37817780D01*
X-24608800Y37817780D02*
X-24646896Y37932065D01*
X-24646896Y37932065D02*
X-24646896Y38008256D01*
X-24646896Y38008256D02*
X-24608800Y38122542D01*
X-24608800Y38122542D02*
X-24532610Y38198732D01*
X-24532610Y38198732D02*
X-24456420Y38236827D01*
X-24456420Y38236827D02*
X-24304039Y38274923D01*
X-24304039Y38274923D02*
X-24189753Y38274923D01*
X-24189753Y38274923D02*
X-24037372Y38236827D01*
X-24037372Y38236827D02*
X-23961181Y38198732D01*
X-23961181Y38198732D02*
X-23884991Y38122542D01*
X-23884991Y38122542D02*
X-23846896Y38008256D01*
X-23846896Y38008256D02*
X-23846896Y37932065D01*
X-23846896Y37932065D02*
X-23884991Y37817780D01*
X-23884991Y37817780D02*
X-23923086Y37779684D01*
X-23846896Y37284446D02*
X-23846896Y37208256D01*
X-23846896Y37208256D02*
X-23884991Y37132065D01*
X-23884991Y37132065D02*
X-23923086Y37093970D01*
X-23923086Y37093970D02*
X-23999277Y37055875D01*
X-23999277Y37055875D02*
X-24151658Y37017780D01*
X-24151658Y37017780D02*
X-24342134Y37017780D01*
X-24342134Y37017780D02*
X-24494515Y37055875D01*
X-24494515Y37055875D02*
X-24570705Y37093970D01*
X-24570705Y37093970D02*
X-24608800Y37132065D01*
X-24608800Y37132065D02*
X-24646896Y37208256D01*
X-24646896Y37208256D02*
X-24646896Y37284446D01*
X-24646896Y37284446D02*
X-24608800Y37360637D01*
X-24608800Y37360637D02*
X-24570705Y37398732D01*
X-24570705Y37398732D02*
X-24494515Y37436827D01*
X-24494515Y37436827D02*
X-24342134Y37474923D01*
X-24342134Y37474923D02*
X-24151658Y37474923D01*
X-24151658Y37474923D02*
X-23999277Y37436827D01*
X-23999277Y37436827D02*
X-23923086Y37398732D01*
X-23923086Y37398732D02*
X-23884991Y37360637D01*
X-23884991Y37360637D02*
X-23846896Y37284446D01*
X-23884991Y35646351D02*
X-23846896Y35722541D01*
X-23846896Y35722541D02*
X-23846896Y35836827D01*
X-23846896Y35836827D02*
X-23884991Y35951113D01*
X-23884991Y35951113D02*
X-23961181Y36027303D01*
X-23961181Y36027303D02*
X-24037372Y36065398D01*
X-24037372Y36065398D02*
X-24189753Y36103494D01*
X-24189753Y36103494D02*
X-24304039Y36103494D01*
X-24304039Y36103494D02*
X-24456420Y36065398D01*
X-24456420Y36065398D02*
X-24532610Y36027303D01*
X-24532610Y36027303D02*
X-24608800Y35951113D01*
X-24608800Y35951113D02*
X-24646896Y35836827D01*
X-24646896Y35836827D02*
X-24646896Y35760636D01*
X-24646896Y35760636D02*
X-24608800Y35646351D01*
X-24608800Y35646351D02*
X-24570705Y35608255D01*
X-24570705Y35608255D02*
X-24304039Y35608255D01*
X-24304039Y35608255D02*
X-24304039Y35760636D01*
X-24646896Y35265398D02*
X-23846896Y35265398D01*
X-23846896Y35265398D02*
X-24646896Y34808255D01*
X-24646896Y34808255D02*
X-23846896Y34808255D01*
X-24646896Y34427303D02*
X-23846896Y34427303D01*
X-23846896Y34427303D02*
X-23846896Y34236827D01*
X-23846896Y34236827D02*
X-23884991Y34122541D01*
X-23884991Y34122541D02*
X-23961181Y34046351D01*
X-23961181Y34046351D02*
X-24037372Y34008256D01*
X-24037372Y34008256D02*
X-24189753Y33970160D01*
X-24189753Y33970160D02*
X-24304039Y33970160D01*
X-24304039Y33970160D02*
X-24456420Y34008256D01*
X-24456420Y34008256D02*
X-24532610Y34046351D01*
X-24532610Y34046351D02*
X-24608800Y34122541D01*
X-24608800Y34122541D02*
X-24646896Y34236827D01*
X-24646896Y34236827D02*
X-24646896Y34427303D01*
X-24608800Y33055875D02*
X-24646896Y32941589D01*
X-24646896Y32941589D02*
X-24646896Y32751113D01*
X-24646896Y32751113D02*
X-24608800Y32674922D01*
X-24608800Y32674922D02*
X-24570705Y32636827D01*
X-24570705Y32636827D02*
X-24494515Y32598732D01*
X-24494515Y32598732D02*
X-24418324Y32598732D01*
X-24418324Y32598732D02*
X-24342134Y32636827D01*
X-24342134Y32636827D02*
X-24304039Y32674922D01*
X-24304039Y32674922D02*
X-24265943Y32751113D01*
X-24265943Y32751113D02*
X-24227848Y32903494D01*
X-24227848Y32903494D02*
X-24189753Y32979684D01*
X-24189753Y32979684D02*
X-24151658Y33017779D01*
X-24151658Y33017779D02*
X-24075467Y33055875D01*
X-24075467Y33055875D02*
X-23999277Y33055875D01*
X-23999277Y33055875D02*
X-23923086Y33017779D01*
X-23923086Y33017779D02*
X-23884991Y32979684D01*
X-23884991Y32979684D02*
X-23846896Y32903494D01*
X-23846896Y32903494D02*
X-23846896Y32713017D01*
X-23846896Y32713017D02*
X-23884991Y32598732D01*
X-24570705Y31798731D02*
X-24608800Y31836827D01*
X-24608800Y31836827D02*
X-24646896Y31951112D01*
X-24646896Y31951112D02*
X-24646896Y32027303D01*
X-24646896Y32027303D02*
X-24608800Y32141589D01*
X-24608800Y32141589D02*
X-24532610Y32217779D01*
X-24532610Y32217779D02*
X-24456420Y32255874D01*
X-24456420Y32255874D02*
X-24304039Y32293970D01*
X-24304039Y32293970D02*
X-24189753Y32293970D01*
X-24189753Y32293970D02*
X-24037372Y32255874D01*
X-24037372Y32255874D02*
X-23961181Y32217779D01*
X-23961181Y32217779D02*
X-23884991Y32141589D01*
X-23884991Y32141589D02*
X-23846896Y32027303D01*
X-23846896Y32027303D02*
X-23846896Y31951112D01*
X-23846896Y31951112D02*
X-23884991Y31836827D01*
X-23884991Y31836827D02*
X-23923086Y31798731D01*
X-24646896Y31074922D02*
X-24646896Y31455874D01*
X-24646896Y31455874D02*
X-23846896Y31455874D01*
X-24646896Y30198731D02*
X-23846896Y30198731D01*
X-23846896Y30198731D02*
X-23846896Y29893969D01*
X-23846896Y29893969D02*
X-23884991Y29817779D01*
X-23884991Y29817779D02*
X-23923086Y29779684D01*
X-23923086Y29779684D02*
X-23999277Y29741588D01*
X-23999277Y29741588D02*
X-24113562Y29741588D01*
X-24113562Y29741588D02*
X-24189753Y29779684D01*
X-24189753Y29779684D02*
X-24227848Y29817779D01*
X-24227848Y29817779D02*
X-24265943Y29893969D01*
X-24265943Y29893969D02*
X-24265943Y30198731D01*
X-24608800Y28217779D02*
X-24646896Y28103493D01*
X-24646896Y28103493D02*
X-24646896Y27913017D01*
X-24646896Y27913017D02*
X-24608800Y27836826D01*
X-24608800Y27836826D02*
X-24570705Y27798731D01*
X-24570705Y27798731D02*
X-24494515Y27760636D01*
X-24494515Y27760636D02*
X-24418324Y27760636D01*
X-24418324Y27760636D02*
X-24342134Y27798731D01*
X-24342134Y27798731D02*
X-24304039Y27836826D01*
X-24304039Y27836826D02*
X-24265943Y27913017D01*
X-24265943Y27913017D02*
X-24227848Y28065398D01*
X-24227848Y28065398D02*
X-24189753Y28141588D01*
X-24189753Y28141588D02*
X-24151658Y28179683D01*
X-24151658Y28179683D02*
X-24075467Y28217779D01*
X-24075467Y28217779D02*
X-23999277Y28217779D01*
X-23999277Y28217779D02*
X-23923086Y28179683D01*
X-23923086Y28179683D02*
X-23884991Y28141588D01*
X-23884991Y28141588D02*
X-23846896Y28065398D01*
X-23846896Y28065398D02*
X-23846896Y27874921D01*
X-23846896Y27874921D02*
X-23884991Y27760636D01*
X-24646896Y27417778D02*
X-23846896Y27417778D01*
X-23846896Y27417778D02*
X-23846896Y27227302D01*
X-23846896Y27227302D02*
X-23884991Y27113016D01*
X-23884991Y27113016D02*
X-23961181Y27036826D01*
X-23961181Y27036826D02*
X-24037372Y26998731D01*
X-24037372Y26998731D02*
X-24189753Y26960635D01*
X-24189753Y26960635D02*
X-24304039Y26960635D01*
X-24304039Y26960635D02*
X-24456420Y26998731D01*
X-24456420Y26998731D02*
X-24532610Y27036826D01*
X-24532610Y27036826D02*
X-24608800Y27113016D01*
X-24608800Y27113016D02*
X-24646896Y27227302D01*
X-24646896Y27227302D02*
X-24646896Y27417778D01*
X-24418324Y26655874D02*
X-24418324Y26274921D01*
X-24646896Y26732064D02*
X-23846896Y26465397D01*
X-23846896Y26465397D02*
X-24646896Y26198731D01*
X-23884991Y24903493D02*
X-23846896Y24979683D01*
X-23846896Y24979683D02*
X-23846896Y25093969D01*
X-23846896Y25093969D02*
X-23884991Y25208255D01*
X-23884991Y25208255D02*
X-23961181Y25284445D01*
X-23961181Y25284445D02*
X-24037372Y25322540D01*
X-24037372Y25322540D02*
X-24189753Y25360636D01*
X-24189753Y25360636D02*
X-24304039Y25360636D01*
X-24304039Y25360636D02*
X-24456420Y25322540D01*
X-24456420Y25322540D02*
X-24532610Y25284445D01*
X-24532610Y25284445D02*
X-24608800Y25208255D01*
X-24608800Y25208255D02*
X-24646896Y25093969D01*
X-24646896Y25093969D02*
X-24646896Y25017778D01*
X-24646896Y25017778D02*
X-24608800Y24903493D01*
X-24608800Y24903493D02*
X-24570705Y24865397D01*
X-24570705Y24865397D02*
X-24304039Y24865397D01*
X-24304039Y24865397D02*
X-24304039Y25017778D01*
X-24646896Y24522540D02*
X-23846896Y24522540D01*
X-23846896Y24522540D02*
X-24646896Y24065397D01*
X-24646896Y24065397D02*
X-23846896Y24065397D01*
X-24646896Y23684445D02*
X-23846896Y23684445D01*
X-23846896Y23684445D02*
X-23846896Y23493969D01*
X-23846896Y23493969D02*
X-23884991Y23379683D01*
X-23884991Y23379683D02*
X-23961181Y23303493D01*
X-23961181Y23303493D02*
X-24037372Y23265398D01*
X-24037372Y23265398D02*
X-24189753Y23227302D01*
X-24189753Y23227302D02*
X-24304039Y23227302D01*
X-24304039Y23227302D02*
X-24456420Y23265398D01*
X-24456420Y23265398D02*
X-24532610Y23303493D01*
X-24532610Y23303493D02*
X-24608800Y23379683D01*
X-24608800Y23379683D02*
X-24646896Y23493969D01*
X-24646896Y23493969D02*
X-24646896Y23684445D01*
D11*
X-15801031Y9446372D02*
X-14872459Y9446372D01*
X-14872459Y9446372D02*
X-15372459Y8874943D01*
X-15372459Y8874943D02*
X-15158174Y8874943D01*
X-15158174Y8874943D02*
X-15015316Y8803515D01*
X-15015316Y8803515D02*
X-14943888Y8732086D01*
X-14943888Y8732086D02*
X-14872459Y8589229D01*
X-14872459Y8589229D02*
X-14872459Y8232086D01*
X-14872459Y8232086D02*
X-14943888Y8089229D01*
X-14943888Y8089229D02*
X-15015316Y8017800D01*
X-15015316Y8017800D02*
X-15158174Y7946372D01*
X-15158174Y7946372D02*
X-15586745Y7946372D01*
X-15586745Y7946372D02*
X-15729602Y8017800D01*
X-15729602Y8017800D02*
X-15801031Y8089229D01*
X-14443888Y9446372D02*
X-13943888Y7946372D01*
X-13943888Y7946372D02*
X-13443888Y9446372D01*
X-13086746Y9446372D02*
X-12158174Y9446372D01*
X-12158174Y9446372D02*
X-12658174Y8874943D01*
X-12658174Y8874943D02*
X-12443889Y8874943D01*
X-12443889Y8874943D02*
X-12301031Y8803515D01*
X-12301031Y8803515D02*
X-12229603Y8732086D01*
X-12229603Y8732086D02*
X-12158174Y8589229D01*
X-12158174Y8589229D02*
X-12158174Y8232086D01*
X-12158174Y8232086D02*
X-12229603Y8089229D01*
X-12229603Y8089229D02*
X-12301031Y8017800D01*
X-12301031Y8017800D02*
X-12443889Y7946372D01*
X-12443889Y7946372D02*
X-12872460Y7946372D01*
X-12872460Y7946372D02*
X-13015317Y8017800D01*
X-13015317Y8017800D02*
X-13086746Y8089229D01*
D12*
X-22025280Y80157781D02*
X-21810994Y80062543D01*
X-21810994Y80062543D02*
X-21739565Y79967305D01*
X-21739565Y79967305D02*
X-21668137Y79776829D01*
X-21668137Y79776829D02*
X-21668137Y79491115D01*
X-21668137Y79491115D02*
X-21739565Y79300639D01*
X-21739565Y79300639D02*
X-21810994Y79205400D01*
X-21810994Y79205400D02*
X-21953851Y79110162D01*
X-21953851Y79110162D02*
X-22525280Y79110162D01*
X-22525280Y79110162D02*
X-22525280Y81110162D01*
X-22525280Y81110162D02*
X-22025280Y81110162D01*
X-22025280Y81110162D02*
X-21882422Y81014924D01*
X-21882422Y81014924D02*
X-21810994Y80919686D01*
X-21810994Y80919686D02*
X-21739565Y80729210D01*
X-21739565Y80729210D02*
X-21739565Y80538734D01*
X-21739565Y80538734D02*
X-21810994Y80348258D01*
X-21810994Y80348258D02*
X-21882422Y80253020D01*
X-21882422Y80253020D02*
X-22025280Y80157781D01*
X-22025280Y80157781D02*
X-22525280Y80157781D01*
X-21096708Y79681591D02*
X-20382422Y79681591D01*
X-21239565Y79110162D02*
X-20739565Y81110162D01*
X-20739565Y81110162D02*
X-20239565Y79110162D01*
X-19953851Y81110162D02*
X-19096708Y81110162D01*
X-19525280Y79110162D02*
X-19525280Y81110162D01*
X-18596709Y79110162D02*
X-18596709Y81110162D01*
X-18596709Y81110162D02*
X-18239566Y81110162D01*
X-18239566Y81110162D02*
X-18025280Y81014924D01*
X-18025280Y81014924D02*
X-17882423Y80824448D01*
X-17882423Y80824448D02*
X-17810994Y80633972D01*
X-17810994Y80633972D02*
X-17739566Y80253020D01*
X-17739566Y80253020D02*
X-17739566Y79967305D01*
X-17739566Y79967305D02*
X-17810994Y79586353D01*
X-17810994Y79586353D02*
X-17882423Y79395877D01*
X-17882423Y79395877D02*
X-18025280Y79205400D01*
X-18025280Y79205400D02*
X-18239566Y79110162D01*
X-18239566Y79110162D02*
X-18596709Y79110162D01*
X-17168137Y79681591D02*
X-16453851Y79681591D01*
X-17310994Y79110162D02*
X-16810994Y81110162D01*
X-16810994Y81110162D02*
X-16310994Y79110162D01*
X-16025280Y81110162D02*
X-15168137Y81110162D01*
X-15596709Y79110162D02*
X-15596709Y81110162D01*
X-14739566Y79205400D02*
X-14525280Y79110162D01*
X-14525280Y79110162D02*
X-14168138Y79110162D01*
X-14168138Y79110162D02*
X-14025280Y79205400D01*
X-14025280Y79205400D02*
X-13953852Y79300639D01*
X-13953852Y79300639D02*
X-13882423Y79491115D01*
X-13882423Y79491115D02*
X-13882423Y79681591D01*
X-13882423Y79681591D02*
X-13953852Y79872067D01*
X-13953852Y79872067D02*
X-14025280Y79967305D01*
X-14025280Y79967305D02*
X-14168138Y80062543D01*
X-14168138Y80062543D02*
X-14453852Y80157781D01*
X-14453852Y80157781D02*
X-14596709Y80253020D01*
X-14596709Y80253020D02*
X-14668138Y80348258D01*
X-14668138Y80348258D02*
X-14739566Y80538734D01*
X-14739566Y80538734D02*
X-14739566Y80729210D01*
X-14739566Y80729210D02*
X-14668138Y80919686D01*
X-14668138Y80919686D02*
X-14596709Y81014924D01*
X-14596709Y81014924D02*
X-14453852Y81110162D01*
X-14453852Y81110162D02*
X-14096709Y81110162D01*
X-14096709Y81110162D02*
X-13882423Y81014924D01*
X-12953852Y81110162D02*
X-12668138Y81110162D01*
X-12668138Y81110162D02*
X-12525281Y81014924D01*
X-12525281Y81014924D02*
X-12382424Y80824448D01*
X-12382424Y80824448D02*
X-12310995Y80443496D01*
X-12310995Y80443496D02*
X-12310995Y79776829D01*
X-12310995Y79776829D02*
X-12382424Y79395877D01*
X-12382424Y79395877D02*
X-12525281Y79205400D01*
X-12525281Y79205400D02*
X-12668138Y79110162D01*
X-12668138Y79110162D02*
X-12953852Y79110162D01*
X-12953852Y79110162D02*
X-13096709Y79205400D01*
X-13096709Y79205400D02*
X-13239567Y79395877D01*
X-13239567Y79395877D02*
X-13310995Y79776829D01*
X-13310995Y79776829D02*
X-13310995Y80443496D01*
X-13310995Y80443496D02*
X-13239567Y80824448D01*
X-13239567Y80824448D02*
X-13096709Y81014924D01*
X-13096709Y81014924D02*
X-12953852Y81110162D01*
X-10810995Y79300639D02*
X-10882423Y79205400D01*
X-10882423Y79205400D02*
X-11096709Y79110162D01*
X-11096709Y79110162D02*
X-11239566Y79110162D01*
X-11239566Y79110162D02*
X-11453852Y79205400D01*
X-11453852Y79205400D02*
X-11596709Y79395877D01*
X-11596709Y79395877D02*
X-11668138Y79586353D01*
X-11668138Y79586353D02*
X-11739566Y79967305D01*
X-11739566Y79967305D02*
X-11739566Y80253020D01*
X-11739566Y80253020D02*
X-11668138Y80633972D01*
X-11668138Y80633972D02*
X-11596709Y80824448D01*
X-11596709Y80824448D02*
X-11453852Y81014924D01*
X-11453852Y81014924D02*
X-11239566Y81110162D01*
X-11239566Y81110162D02*
X-11096709Y81110162D01*
X-11096709Y81110162D02*
X-10882423Y81014924D01*
X-10882423Y81014924D02*
X-10810995Y80919686D01*
X-10168138Y79110162D02*
X-10168138Y81110162D01*
X-9310995Y79110162D02*
X-9953852Y80253020D01*
X-9310995Y81110162D02*
X-10168138Y79967305D01*
X-8668138Y80157781D02*
X-8168138Y80157781D01*
X-7953852Y79110162D02*
X-8668138Y79110162D01*
X-8668138Y79110162D02*
X-8668138Y81110162D01*
X-8668138Y81110162D02*
X-7953852Y81110162D01*
X-7525280Y81110162D02*
X-6668137Y81110162D01*
X-7096709Y79110162D02*
X-7096709Y81110162D01*
X-5882423Y81110162D02*
X-5739566Y81110162D01*
X-5739566Y81110162D02*
X-5596709Y81014924D01*
X-5596709Y81014924D02*
X-5525280Y80919686D01*
X-5525280Y80919686D02*
X-5453852Y80729210D01*
X-5453852Y80729210D02*
X-5382423Y80348258D01*
X-5382423Y80348258D02*
X-5382423Y79872067D01*
X-5382423Y79872067D02*
X-5453852Y79491115D01*
X-5453852Y79491115D02*
X-5525280Y79300639D01*
X-5525280Y79300639D02*
X-5596709Y79205400D01*
X-5596709Y79205400D02*
X-5739566Y79110162D01*
X-5739566Y79110162D02*
X-5882423Y79110162D01*
X-5882423Y79110162D02*
X-6025280Y79205400D01*
X-6025280Y79205400D02*
X-6096709Y79300639D01*
X-6096709Y79300639D02*
X-6168138Y79491115D01*
X-6168138Y79491115D02*
X-6239566Y79872067D01*
X-6239566Y79872067D02*
X-6239566Y80348258D01*
X-6239566Y80348258D02*
X-6168138Y80729210D01*
X-6168138Y80729210D02*
X-6096709Y80919686D01*
X-6096709Y80919686D02*
X-6025280Y81014924D01*
X-6025280Y81014924D02*
X-5882423Y81110162D01*
X-3953852Y79110162D02*
X-4810995Y79110162D01*
X-4382424Y79110162D02*
X-4382424Y81110162D01*
X-4382424Y81110162D02*
X-4525281Y80824448D01*
X-4525281Y80824448D02*
X-4668138Y80633972D01*
X-4668138Y80633972D02*
X-4810995Y80538734D01*
X-3382424Y79681591D02*
X-2668138Y79681591D01*
X-3525281Y79110162D02*
X-3025281Y81110162D01*
X-3025281Y81110162D02*
X-2525281Y79110162D01*
D11*
X-13743888Y12446372D02*
X-14458174Y12446372D01*
X-14458174Y12446372D02*
X-14529602Y11732086D01*
X-14529602Y11732086D02*
X-14458174Y11803515D01*
X-14458174Y11803515D02*
X-14315316Y11874943D01*
X-14315316Y11874943D02*
X-13958174Y11874943D01*
X-13958174Y11874943D02*
X-13815316Y11803515D01*
X-13815316Y11803515D02*
X-13743888Y11732086D01*
X-13743888Y11732086D02*
X-13672459Y11589229D01*
X-13672459Y11589229D02*
X-13672459Y11232086D01*
X-13672459Y11232086D02*
X-13743888Y11089229D01*
X-13743888Y11089229D02*
X-13815316Y11017800D01*
X-13815316Y11017800D02*
X-13958174Y10946372D01*
X-13958174Y10946372D02*
X-14315316Y10946372D01*
X-14315316Y10946372D02*
X-14458174Y11017800D01*
X-14458174Y11017800D02*
X-14529602Y11089229D01*
X-13243888Y12446372D02*
X-12743888Y10946372D01*
X-12743888Y10946372D02*
X-12243888Y12446372D01*
D10*
X-13910116Y73082581D02*
X-13910116Y74082581D01*
X-13910116Y74082581D02*
X-13672021Y74082581D01*
X-13672021Y74082581D02*
X-13529164Y74034962D01*
X-13529164Y74034962D02*
X-13433926Y73939724D01*
X-13433926Y73939724D02*
X-13386307Y73844486D01*
X-13386307Y73844486D02*
X-13338688Y73654010D01*
X-13338688Y73654010D02*
X-13338688Y73511153D01*
X-13338688Y73511153D02*
X-13386307Y73320677D01*
X-13386307Y73320677D02*
X-13433926Y73225439D01*
X-13433926Y73225439D02*
X-13529164Y73130200D01*
X-13529164Y73130200D02*
X-13672021Y73082581D01*
X-13672021Y73082581D02*
X-13910116Y73082581D01*
X-12910116Y73606391D02*
X-12576783Y73606391D01*
X-12433926Y73082581D02*
X-12910116Y73082581D01*
X-12910116Y73082581D02*
X-12910116Y74082581D01*
X-12910116Y74082581D02*
X-12433926Y74082581D01*
X-12148211Y74082581D02*
X-11576783Y74082581D01*
X-11862497Y73082581D02*
X-11862497Y74082581D01*
X-6910115Y74034962D02*
X-7005353Y74082581D01*
X-7005353Y74082581D02*
X-7148210Y74082581D01*
X-7148210Y74082581D02*
X-7291067Y74034962D01*
X-7291067Y74034962D02*
X-7386305Y73939724D01*
X-7386305Y73939724D02*
X-7433924Y73844486D01*
X-7433924Y73844486D02*
X-7481543Y73654010D01*
X-7481543Y73654010D02*
X-7481543Y73511153D01*
X-7481543Y73511153D02*
X-7433924Y73320677D01*
X-7433924Y73320677D02*
X-7386305Y73225439D01*
X-7386305Y73225439D02*
X-7291067Y73130200D01*
X-7291067Y73130200D02*
X-7148210Y73082581D01*
X-7148210Y73082581D02*
X-7052972Y73082581D01*
X-7052972Y73082581D02*
X-6910115Y73130200D01*
X-6910115Y73130200D02*
X-6862496Y73177820D01*
X-6862496Y73177820D02*
X-6862496Y73511153D01*
X-6862496Y73511153D02*
X-7052972Y73511153D01*
X-6433924Y73082581D02*
X-6433924Y74082581D01*
X-6433924Y74082581D02*
X-5862496Y73082581D01*
X-5862496Y73082581D02*
X-5862496Y74082581D01*
X-5386305Y73082581D02*
X-5386305Y74082581D01*
X-5386305Y74082581D02*
X-5148210Y74082581D01*
X-5148210Y74082581D02*
X-5005353Y74034962D01*
X-5005353Y74034962D02*
X-4910115Y73939724D01*
X-4910115Y73939724D02*
X-4862496Y73844486D01*
X-4862496Y73844486D02*
X-4814877Y73654010D01*
X-4814877Y73654010D02*
X-4814877Y73511153D01*
X-4814877Y73511153D02*
X-4862496Y73320677D01*
X-4862496Y73320677D02*
X-4910115Y73225439D01*
X-4910115Y73225439D02*
X-5005353Y73130200D01*
X-5005353Y73130200D02*
X-5148210Y73082581D01*
X-5148210Y73082581D02*
X-5386305Y73082581D01*
D12*
X-15225280Y76848972D02*
X-15225280Y78348972D01*
X-15225280Y78348972D02*
X-14725280Y77277543D01*
X-14725280Y77277543D02*
X-14225280Y78348972D01*
X-14225280Y78348972D02*
X-14225280Y76848972D01*
X-12796708Y76848972D02*
X-13510994Y76848972D01*
X-13510994Y76848972D02*
X-13510994Y78348972D01*
X-12368136Y77277543D02*
X-11653850Y77277543D01*
X-12510993Y76848972D02*
X-12010993Y78348972D01*
X-12010993Y78348972D02*
X-11510993Y76848972D01*
X-10510994Y77634686D02*
X-10296708Y77563258D01*
X-10296708Y77563258D02*
X-10225279Y77491829D01*
X-10225279Y77491829D02*
X-10153851Y77348972D01*
X-10153851Y77348972D02*
X-10153851Y77134686D01*
X-10153851Y77134686D02*
X-10225279Y76991829D01*
X-10225279Y76991829D02*
X-10296708Y76920400D01*
X-10296708Y76920400D02*
X-10439565Y76848972D01*
X-10439565Y76848972D02*
X-11010994Y76848972D01*
X-11010994Y76848972D02*
X-11010994Y78348972D01*
X-11010994Y78348972D02*
X-10510994Y78348972D01*
X-10510994Y78348972D02*
X-10368136Y78277543D01*
X-10368136Y78277543D02*
X-10296708Y78206115D01*
X-10296708Y78206115D02*
X-10225279Y78063258D01*
X-10225279Y78063258D02*
X-10225279Y77920400D01*
X-10225279Y77920400D02*
X-10296708Y77777543D01*
X-10296708Y77777543D02*
X-10368136Y77706115D01*
X-10368136Y77706115D02*
X-10510994Y77634686D01*
X-10510994Y77634686D02*
X-11010994Y77634686D01*
X-9439565Y76920400D02*
X-9439565Y76848972D01*
X-9439565Y76848972D02*
X-9510994Y76706115D01*
X-9510994Y76706115D02*
X-9582422Y76634686D01*
X-7725279Y78206115D02*
X-7653851Y78277543D01*
X-7653851Y78277543D02*
X-7510993Y78348972D01*
X-7510993Y78348972D02*
X-7153851Y78348972D01*
X-7153851Y78348972D02*
X-7010993Y78277543D01*
X-7010993Y78277543D02*
X-6939565Y78206115D01*
X-6939565Y78206115D02*
X-6868136Y78063258D01*
X-6868136Y78063258D02*
X-6868136Y77920400D01*
X-6868136Y77920400D02*
X-6939565Y77706115D01*
X-6939565Y77706115D02*
X-7796708Y76848972D01*
X-7796708Y76848972D02*
X-6868136Y76848972D01*
X-5939565Y78348972D02*
X-5796708Y78348972D01*
X-5796708Y78348972D02*
X-5653851Y78277543D01*
X-5653851Y78277543D02*
X-5582422Y78206115D01*
X-5582422Y78206115D02*
X-5510994Y78063258D01*
X-5510994Y78063258D02*
X-5439565Y77777543D01*
X-5439565Y77777543D02*
X-5439565Y77420400D01*
X-5439565Y77420400D02*
X-5510994Y77134686D01*
X-5510994Y77134686D02*
X-5582422Y76991829D01*
X-5582422Y76991829D02*
X-5653851Y76920400D01*
X-5653851Y76920400D02*
X-5796708Y76848972D01*
X-5796708Y76848972D02*
X-5939565Y76848972D01*
X-5939565Y76848972D02*
X-6082422Y76920400D01*
X-6082422Y76920400D02*
X-6153851Y76991829D01*
X-6153851Y76991829D02*
X-6225280Y77134686D01*
X-6225280Y77134686D02*
X-6296708Y77420400D01*
X-6296708Y77420400D02*
X-6296708Y77777543D01*
X-6296708Y77777543D02*
X-6225280Y78063258D01*
X-6225280Y78063258D02*
X-6153851Y78206115D01*
X-6153851Y78206115D02*
X-6082422Y78277543D01*
X-6082422Y78277543D02*
X-5939565Y78348972D01*
X-4868137Y78206115D02*
X-4796709Y78277543D01*
X-4796709Y78277543D02*
X-4653851Y78348972D01*
X-4653851Y78348972D02*
X-4296709Y78348972D01*
X-4296709Y78348972D02*
X-4153851Y78277543D01*
X-4153851Y78277543D02*
X-4082423Y78206115D01*
X-4082423Y78206115D02*
X-4010994Y78063258D01*
X-4010994Y78063258D02*
X-4010994Y77920400D01*
X-4010994Y77920400D02*
X-4082423Y77706115D01*
X-4082423Y77706115D02*
X-4939566Y76848972D01*
X-4939566Y76848972D02*
X-4010994Y76848972D01*
X-3510995Y78348972D02*
X-2582423Y78348972D01*
X-2582423Y78348972D02*
X-3082423Y77777543D01*
X-3082423Y77777543D02*
X-2868138Y77777543D01*
X-2868138Y77777543D02*
X-2725280Y77706115D01*
X-2725280Y77706115D02*
X-2653852Y77634686D01*
X-2653852Y77634686D02*
X-2582423Y77491829D01*
X-2582423Y77491829D02*
X-2582423Y77134686D01*
X-2582423Y77134686D02*
X-2653852Y76991829D01*
X-2653852Y76991829D02*
X-2725280Y76920400D01*
X-2725280Y76920400D02*
X-2868138Y76848972D01*
X-2868138Y76848972D02*
X-3296709Y76848972D01*
X-3296709Y76848972D02*
X-3439566Y76920400D01*
X-3439566Y76920400D02*
X-3510995Y76991829D01*
D10*
X-16698991Y35749688D02*
X-16660896Y35825878D01*
X-16660896Y35825878D02*
X-16660896Y35940164D01*
X-16660896Y35940164D02*
X-16698991Y36054450D01*
X-16698991Y36054450D02*
X-16775181Y36130640D01*
X-16775181Y36130640D02*
X-16851372Y36168735D01*
X-16851372Y36168735D02*
X-17003753Y36206831D01*
X-17003753Y36206831D02*
X-17118039Y36206831D01*
X-17118039Y36206831D02*
X-17270420Y36168735D01*
X-17270420Y36168735D02*
X-17346610Y36130640D01*
X-17346610Y36130640D02*
X-17422800Y36054450D01*
X-17422800Y36054450D02*
X-17460896Y35940164D01*
X-17460896Y35940164D02*
X-17460896Y35863973D01*
X-17460896Y35863973D02*
X-17422800Y35749688D01*
X-17422800Y35749688D02*
X-17384705Y35711592D01*
X-17384705Y35711592D02*
X-17118039Y35711592D01*
X-17118039Y35711592D02*
X-17118039Y35863973D01*
X-17460896Y35368735D02*
X-16660896Y35368735D01*
X-16660896Y35368735D02*
X-17460896Y34911592D01*
X-17460896Y34911592D02*
X-16660896Y34911592D01*
X-17460896Y34530640D02*
X-16660896Y34530640D01*
X-16660896Y34530640D02*
X-16660896Y34340164D01*
X-16660896Y34340164D02*
X-16698991Y34225878D01*
X-16698991Y34225878D02*
X-16775181Y34149688D01*
X-16775181Y34149688D02*
X-16851372Y34111593D01*
X-16851372Y34111593D02*
X-17003753Y34073497D01*
X-17003753Y34073497D02*
X-17118039Y34073497D01*
X-17118039Y34073497D02*
X-17270420Y34111593D01*
X-17270420Y34111593D02*
X-17346610Y34149688D01*
X-17346610Y34149688D02*
X-17422800Y34225878D01*
X-17422800Y34225878D02*
X-17460896Y34340164D01*
X-17460896Y34340164D02*
X-17460896Y34530640D01*
X-17422800Y33159212D02*
X-17460896Y33044926D01*
X-17460896Y33044926D02*
X-17460896Y32854450D01*
X-17460896Y32854450D02*
X-17422800Y32778259D01*
X-17422800Y32778259D02*
X-17384705Y32740164D01*
X-17384705Y32740164D02*
X-17308515Y32702069D01*
X-17308515Y32702069D02*
X-17232324Y32702069D01*
X-17232324Y32702069D02*
X-17156134Y32740164D01*
X-17156134Y32740164D02*
X-17118039Y32778259D01*
X-17118039Y32778259D02*
X-17079943Y32854450D01*
X-17079943Y32854450D02*
X-17041848Y33006831D01*
X-17041848Y33006831D02*
X-17003753Y33083021D01*
X-17003753Y33083021D02*
X-16965658Y33121116D01*
X-16965658Y33121116D02*
X-16889467Y33159212D01*
X-16889467Y33159212D02*
X-16813277Y33159212D01*
X-16813277Y33159212D02*
X-16737086Y33121116D01*
X-16737086Y33121116D02*
X-16698991Y33083021D01*
X-16698991Y33083021D02*
X-16660896Y33006831D01*
X-16660896Y33006831D02*
X-16660896Y32816354D01*
X-16660896Y32816354D02*
X-16698991Y32702069D01*
X-17384705Y31902068D02*
X-17422800Y31940164D01*
X-17422800Y31940164D02*
X-17460896Y32054449D01*
X-17460896Y32054449D02*
X-17460896Y32130640D01*
X-17460896Y32130640D02*
X-17422800Y32244926D01*
X-17422800Y32244926D02*
X-17346610Y32321116D01*
X-17346610Y32321116D02*
X-17270420Y32359211D01*
X-17270420Y32359211D02*
X-17118039Y32397307D01*
X-17118039Y32397307D02*
X-17003753Y32397307D01*
X-17003753Y32397307D02*
X-16851372Y32359211D01*
X-16851372Y32359211D02*
X-16775181Y32321116D01*
X-16775181Y32321116D02*
X-16698991Y32244926D01*
X-16698991Y32244926D02*
X-16660896Y32130640D01*
X-16660896Y32130640D02*
X-16660896Y32054449D01*
X-16660896Y32054449D02*
X-16698991Y31940164D01*
X-16698991Y31940164D02*
X-16737086Y31902068D01*
X-17460896Y31178259D02*
X-17460896Y31559211D01*
X-17460896Y31559211D02*
X-16660896Y31559211D01*
X-17460896Y30302068D02*
X-16660896Y30302068D01*
X-16660896Y30302068D02*
X-16660896Y29997306D01*
X-16660896Y29997306D02*
X-16698991Y29921116D01*
X-16698991Y29921116D02*
X-16737086Y29883021D01*
X-16737086Y29883021D02*
X-16813277Y29844925D01*
X-16813277Y29844925D02*
X-16927562Y29844925D01*
X-16927562Y29844925D02*
X-17003753Y29883021D01*
X-17003753Y29883021D02*
X-17041848Y29921116D01*
X-17041848Y29921116D02*
X-17079943Y29997306D01*
X-17079943Y29997306D02*
X-17079943Y30302068D01*
X-17422800Y28321116D02*
X-17460896Y28206830D01*
X-17460896Y28206830D02*
X-17460896Y28016354D01*
X-17460896Y28016354D02*
X-17422800Y27940163D01*
X-17422800Y27940163D02*
X-17384705Y27902068D01*
X-17384705Y27902068D02*
X-17308515Y27863973D01*
X-17308515Y27863973D02*
X-17232324Y27863973D01*
X-17232324Y27863973D02*
X-17156134Y27902068D01*
X-17156134Y27902068D02*
X-17118039Y27940163D01*
X-17118039Y27940163D02*
X-17079943Y28016354D01*
X-17079943Y28016354D02*
X-17041848Y28168735D01*
X-17041848Y28168735D02*
X-17003753Y28244925D01*
X-17003753Y28244925D02*
X-16965658Y28283020D01*
X-16965658Y28283020D02*
X-16889467Y28321116D01*
X-16889467Y28321116D02*
X-16813277Y28321116D01*
X-16813277Y28321116D02*
X-16737086Y28283020D01*
X-16737086Y28283020D02*
X-16698991Y28244925D01*
X-16698991Y28244925D02*
X-16660896Y28168735D01*
X-16660896Y28168735D02*
X-16660896Y27978258D01*
X-16660896Y27978258D02*
X-16698991Y27863973D01*
X-17460896Y27521115D02*
X-16660896Y27521115D01*
X-16660896Y27521115D02*
X-16660896Y27330639D01*
X-16660896Y27330639D02*
X-16698991Y27216353D01*
X-16698991Y27216353D02*
X-16775181Y27140163D01*
X-16775181Y27140163D02*
X-16851372Y27102068D01*
X-16851372Y27102068D02*
X-17003753Y27063972D01*
X-17003753Y27063972D02*
X-17118039Y27063972D01*
X-17118039Y27063972D02*
X-17270420Y27102068D01*
X-17270420Y27102068D02*
X-17346610Y27140163D01*
X-17346610Y27140163D02*
X-17422800Y27216353D01*
X-17422800Y27216353D02*
X-17460896Y27330639D01*
X-17460896Y27330639D02*
X-17460896Y27521115D01*
X-17232324Y26759211D02*
X-17232324Y26378258D01*
X-17460896Y26835401D02*
X-16660896Y26568734D01*
X-16660896Y26568734D02*
X-17460896Y26302068D01*
X-16698991Y25006830D02*
X-16660896Y25083020D01*
X-16660896Y25083020D02*
X-16660896Y25197306D01*
X-16660896Y25197306D02*
X-16698991Y25311592D01*
X-16698991Y25311592D02*
X-16775181Y25387782D01*
X-16775181Y25387782D02*
X-16851372Y25425877D01*
X-16851372Y25425877D02*
X-17003753Y25463973D01*
X-17003753Y25463973D02*
X-17118039Y25463973D01*
X-17118039Y25463973D02*
X-17270420Y25425877D01*
X-17270420Y25425877D02*
X-17346610Y25387782D01*
X-17346610Y25387782D02*
X-17422800Y25311592D01*
X-17422800Y25311592D02*
X-17460896Y25197306D01*
X-17460896Y25197306D02*
X-17460896Y25121115D01*
X-17460896Y25121115D02*
X-17422800Y25006830D01*
X-17422800Y25006830D02*
X-17384705Y24968734D01*
X-17384705Y24968734D02*
X-17118039Y24968734D01*
X-17118039Y24968734D02*
X-17118039Y25121115D01*
X-17460896Y24625877D02*
X-16660896Y24625877D01*
X-16660896Y24625877D02*
X-17460896Y24168734D01*
X-17460896Y24168734D02*
X-16660896Y24168734D01*
X-17460896Y23787782D02*
X-16660896Y23787782D01*
X-16660896Y23787782D02*
X-16660896Y23597306D01*
X-16660896Y23597306D02*
X-16698991Y23483020D01*
X-16698991Y23483020D02*
X-16775181Y23406830D01*
X-16775181Y23406830D02*
X-16851372Y23368735D01*
X-16851372Y23368735D02*
X-17003753Y23330639D01*
X-17003753Y23330639D02*
X-17118039Y23330639D01*
X-17118039Y23330639D02*
X-17270420Y23368735D01*
X-17270420Y23368735D02*
X-17346610Y23406830D01*
X-17346610Y23406830D02*
X-17422800Y23483020D01*
X-17422800Y23483020D02*
X-17460896Y23597306D01*
X-17460896Y23597306D02*
X-17460896Y23787782D01*
X-22948211Y66658105D02*
X-22514878Y66658105D01*
X-22514878Y66658105D02*
X-22748211Y66353343D01*
X-22748211Y66353343D02*
X-22648211Y66353343D01*
X-22648211Y66353343D02*
X-22581545Y66315248D01*
X-22581545Y66315248D02*
X-22548211Y66277153D01*
X-22548211Y66277153D02*
X-22514878Y66200962D01*
X-22514878Y66200962D02*
X-22514878Y66010486D01*
X-22514878Y66010486D02*
X-22548211Y65934296D01*
X-22548211Y65934296D02*
X-22581545Y65896200D01*
X-22581545Y65896200D02*
X-22648211Y65858105D01*
X-22648211Y65858105D02*
X-22848211Y65858105D01*
X-22848211Y65858105D02*
X-22914878Y65896200D01*
X-22914878Y65896200D02*
X-22948211Y65934296D01*
X-22281544Y66391439D02*
X-22114878Y65858105D01*
X-22114878Y65858105D02*
X-21948211Y66391439D01*
X-21748211Y66658105D02*
X-21314878Y66658105D01*
X-21314878Y66658105D02*
X-21548211Y66353343D01*
X-21548211Y66353343D02*
X-21448211Y66353343D01*
X-21448211Y66353343D02*
X-21381545Y66315248D01*
X-21381545Y66315248D02*
X-21348211Y66277153D01*
X-21348211Y66277153D02*
X-21314878Y66200962D01*
X-21314878Y66200962D02*
X-21314878Y66010486D01*
X-21314878Y66010486D02*
X-21348211Y65934296D01*
X-21348211Y65934296D02*
X-21381545Y65896200D01*
X-21381545Y65896200D02*
X-21448211Y65858105D01*
X-21448211Y65858105D02*
X-21648211Y65858105D01*
X-21648211Y65858105D02*
X-21714878Y65896200D01*
X-21714878Y65896200D02*
X-21748211Y65934296D01*
X-20481545Y65858105D02*
X-20481545Y66658105D01*
X-20481545Y66658105D02*
X-20214878Y66658105D01*
X-20214878Y66658105D02*
X-20148211Y66620010D01*
X-20148211Y66620010D02*
X-20114878Y66581915D01*
X-20114878Y66581915D02*
X-20081545Y66505724D01*
X-20081545Y66505724D02*
X-20081545Y66391439D01*
X-20081545Y66391439D02*
X-20114878Y66315248D01*
X-20114878Y66315248D02*
X-20148211Y66277153D01*
X-20148211Y66277153D02*
X-20214878Y66239058D01*
X-20214878Y66239058D02*
X-20481545Y66239058D01*
X-18914878Y66658105D02*
X-19248212Y66658105D01*
X-19248212Y66658105D02*
X-19281545Y66277153D01*
X-19281545Y66277153D02*
X-19248212Y66315248D01*
X-19248212Y66315248D02*
X-19181545Y66353343D01*
X-19181545Y66353343D02*
X-19014878Y66353343D01*
X-19014878Y66353343D02*
X-18948212Y66315248D01*
X-18948212Y66315248D02*
X-18914878Y66277153D01*
X-18914878Y66277153D02*
X-18881545Y66200962D01*
X-18881545Y66200962D02*
X-18881545Y66010486D01*
X-18881545Y66010486D02*
X-18914878Y65934296D01*
X-18914878Y65934296D02*
X-18948212Y65896200D01*
X-18948212Y65896200D02*
X-19014878Y65858105D01*
X-19014878Y65858105D02*
X-19181545Y65858105D01*
X-19181545Y65858105D02*
X-19248212Y65896200D01*
X-19248212Y65896200D02*
X-19281545Y65934296D01*
X-18648211Y66391439D02*
X-18481545Y65858105D01*
X-18481545Y65858105D02*
X-18314878Y66391439D01*
D11*
X-10297334Y75900181D02*
X-10297334Y75185896D01*
X-10297334Y75185896D02*
X-10344953Y75043039D01*
X-10344953Y75043039D02*
X-10440191Y74947800D01*
X-10440191Y74947800D02*
X-10583048Y74900181D01*
X-10583048Y74900181D02*
X-10678286Y74900181D01*
X-9821143Y74900181D02*
X-9821143Y75900181D01*
X-9821143Y75900181D02*
X-9440191Y75900181D01*
X-9440191Y75900181D02*
X-9344953Y75852562D01*
X-9344953Y75852562D02*
X-9297334Y75804943D01*
X-9297334Y75804943D02*
X-9249715Y75709705D01*
X-9249715Y75709705D02*
X-9249715Y75566848D01*
X-9249715Y75566848D02*
X-9297334Y75471610D01*
X-9297334Y75471610D02*
X-9344953Y75423991D01*
X-9344953Y75423991D02*
X-9440191Y75376372D01*
X-9440191Y75376372D02*
X-9821143Y75376372D01*
X-8868762Y75804943D02*
X-8821143Y75852562D01*
X-8821143Y75852562D02*
X-8725905Y75900181D01*
X-8725905Y75900181D02*
X-8487810Y75900181D01*
X-8487810Y75900181D02*
X-8392572Y75852562D01*
X-8392572Y75852562D02*
X-8344953Y75804943D01*
X-8344953Y75804943D02*
X-8297334Y75709705D01*
X-8297334Y75709705D02*
X-8297334Y75614467D01*
X-8297334Y75614467D02*
X-8344953Y75471610D01*
X-8344953Y75471610D02*
X-8916381Y74900181D01*
X-8916381Y74900181D02*
X-8297334Y74900181D01*
X-6580667Y12900181D02*
X-6914000Y13376372D01*
X-7152095Y12900181D02*
X-7152095Y13900181D01*
X-7152095Y13900181D02*
X-6771143Y13900181D01*
X-6771143Y13900181D02*
X-6675905Y13852562D01*
X-6675905Y13852562D02*
X-6628286Y13804943D01*
X-6628286Y13804943D02*
X-6580667Y13709705D01*
X-6580667Y13709705D02*
X-6580667Y13566848D01*
X-6580667Y13566848D02*
X-6628286Y13471610D01*
X-6628286Y13471610D02*
X-6675905Y13423991D01*
X-6675905Y13423991D02*
X-6771143Y13376372D01*
X-6771143Y13376372D02*
X-7152095Y13376372D01*
X-5628286Y12900181D02*
X-6199714Y12900181D01*
X-5914000Y12900181D02*
X-5914000Y13900181D01*
X-5914000Y13900181D02*
X-6009238Y13757324D01*
X-6009238Y13757324D02*
X-6104476Y13662086D01*
X-6104476Y13662086D02*
X-6199714Y13614467D01*
X-6680667Y6600181D02*
X-7014000Y7076372D01*
X-7252095Y6600181D02*
X-7252095Y7600181D01*
X-7252095Y7600181D02*
X-6871143Y7600181D01*
X-6871143Y7600181D02*
X-6775905Y7552562D01*
X-6775905Y7552562D02*
X-6728286Y7504943D01*
X-6728286Y7504943D02*
X-6680667Y7409705D01*
X-6680667Y7409705D02*
X-6680667Y7266848D01*
X-6680667Y7266848D02*
X-6728286Y7171610D01*
X-6728286Y7171610D02*
X-6775905Y7123991D01*
X-6775905Y7123991D02*
X-6871143Y7076372D01*
X-6871143Y7076372D02*
X-7252095Y7076372D01*
X-6299714Y7504943D02*
X-6252095Y7552562D01*
X-6252095Y7552562D02*
X-6156857Y7600181D01*
X-6156857Y7600181D02*
X-5918762Y7600181D01*
X-5918762Y7600181D02*
X-5823524Y7552562D01*
X-5823524Y7552562D02*
X-5775905Y7504943D01*
X-5775905Y7504943D02*
X-5728286Y7409705D01*
X-5728286Y7409705D02*
X-5728286Y7314467D01*
X-5728286Y7314467D02*
X-5775905Y7171610D01*
X-5775905Y7171610D02*
X-6347333Y6600181D01*
X-6347333Y6600181D02*
X-5728286Y6600181D01*
X-10652095Y12955181D02*
X-10652095Y13955181D01*
X-10652095Y13955181D02*
X-10414000Y13955181D01*
X-10414000Y13955181D02*
X-10271143Y13907562D01*
X-10271143Y13907562D02*
X-10175905Y13812324D01*
X-10175905Y13812324D02*
X-10128286Y13717086D01*
X-10128286Y13717086D02*
X-10080667Y13526610D01*
X-10080667Y13526610D02*
X-10080667Y13383753D01*
X-10080667Y13383753D02*
X-10128286Y13193277D01*
X-10128286Y13193277D02*
X-10175905Y13098039D01*
X-10175905Y13098039D02*
X-10271143Y13002800D01*
X-10271143Y13002800D02*
X-10414000Y12955181D01*
X-10414000Y12955181D02*
X-10652095Y12955181D01*
X-9128286Y12955181D02*
X-9699714Y12955181D01*
X-9414000Y12955181D02*
X-9414000Y13955181D01*
X-9414000Y13955181D02*
X-9509238Y13812324D01*
X-9509238Y13812324D02*
X-9604476Y13717086D01*
X-9604476Y13717086D02*
X-9699714Y13669467D01*
X-10652095Y6500181D02*
X-10652095Y7500181D01*
X-10652095Y7500181D02*
X-10414000Y7500181D01*
X-10414000Y7500181D02*
X-10271143Y7452562D01*
X-10271143Y7452562D02*
X-10175905Y7357324D01*
X-10175905Y7357324D02*
X-10128286Y7262086D01*
X-10128286Y7262086D02*
X-10080667Y7071610D01*
X-10080667Y7071610D02*
X-10080667Y6928753D01*
X-10080667Y6928753D02*
X-10128286Y6738277D01*
X-10128286Y6738277D02*
X-10175905Y6643039D01*
X-10175905Y6643039D02*
X-10271143Y6547800D01*
X-10271143Y6547800D02*
X-10414000Y6500181D01*
X-10414000Y6500181D02*
X-10652095Y6500181D01*
X-9699714Y7404943D02*
X-9652095Y7452562D01*
X-9652095Y7452562D02*
X-9556857Y7500181D01*
X-9556857Y7500181D02*
X-9318762Y7500181D01*
X-9318762Y7500181D02*
X-9223524Y7452562D01*
X-9223524Y7452562D02*
X-9175905Y7404943D01*
X-9175905Y7404943D02*
X-9128286Y7309705D01*
X-9128286Y7309705D02*
X-9128286Y7214467D01*
X-9128286Y7214467D02*
X-9175905Y7071610D01*
X-9175905Y7071610D02*
X-9747333Y6500181D01*
X-9747333Y6500181D02*
X-9128286Y6500181D01*
D13*
%TO.C,JP2*%
X-10864000Y73255000D02*
X-10864000Y73855000D01*
X-10164000Y74555000D02*
X-8764000Y74555000D01*
X-8764000Y72555000D02*
X-10164000Y72555000D01*
X-8064000Y73855000D02*
X-8064000Y73255000D01*
X-10164000Y74555000D02*
G75*
G03*
X-10864000Y73855000I-1J-699999D01*
G01*
X-10864000Y73255000D02*
G75*
G03*
X-10164000Y72555000I699999J-1D01*
G01*
X-8064000Y73855000D02*
G75*
G03*
X-8764000Y74555000I-700000J0D01*
G01*
X-8764000Y72555000D02*
G75*
G03*
X-8064000Y73255000I0J700000D01*
G01*
D12*
%TO.C,J1*%
X-15700000Y15345000D02*
X-1700000Y15345000D01*
X-1700000Y15345000D02*
X-1700000Y70555000D01*
X-1700000Y70555000D02*
X-15700000Y70555000D01*
X-15700000Y70555000D02*
X-15700000Y15345000D01*
D10*
X-15700000Y15345000D02*
X9800000Y15345000D01*
X9800000Y15345000D02*
X9800000Y70555000D01*
X9800000Y70555000D02*
X-15700000Y70555000D01*
X-15700000Y70555000D02*
X-15700000Y15345000D01*
D13*
%TO.C,R1*%
X-6199436Y11070000D02*
X-6653564Y11070000D01*
X-6199436Y12540000D02*
X-6653564Y12540000D01*
%TO.C,R2*%
X-6199436Y8020000D02*
X-6653564Y8020000D01*
X-6199436Y9490000D02*
X-6653564Y9490000D01*
%TO.C,JP1*%
X-22550000Y64350000D02*
X-22550000Y64950000D01*
X-22000000Y63150000D02*
X-21400000Y63150000D01*
X-21900000Y65650000D02*
X-19100000Y65650000D01*
X-21700000Y63450000D02*
X-22000000Y63150000D01*
X-21700000Y63450000D02*
X-21400000Y63150000D01*
X-19100000Y63650000D02*
X-21900000Y63650000D01*
X-18450000Y64950000D02*
X-18450000Y64350000D01*
X-21850000Y65650000D02*
G75*
G03*
X-22550000Y64950000I-1J-699999D01*
G01*
X-22550000Y64350000D02*
G75*
G03*
X-21850000Y63650000I699999J-1D01*
G01*
X-18450000Y64950000D02*
G75*
G03*
X-19150000Y65650000I-700000J0D01*
G01*
X-19150000Y63650000D02*
G75*
G03*
X-18450000Y64350000I0J700000D01*
G01*
%TO.C,D1*%
X-11599000Y12720000D02*
X-11599000Y10800000D01*
X-11599000Y10800000D02*
X-8914000Y10800000D01*
X-8914000Y12720000D02*
X-11599000Y12720000D01*
%TO.C,D2*%
X-11599000Y9680000D02*
X-11599000Y7760000D01*
X-11599000Y7760000D02*
X-8914000Y7760000D01*
X-8914000Y9680000D02*
X-11599000Y9680000D01*
%TD*%
M02*
