%TF.GenerationSoftware,KiCad,Pcbnew,7.0.8-7.0.8~ubuntu23.04.1*%
%TF.CreationDate,2023-11-07T19:11:24+00:00*%
%TF.ProjectId,BATDATSOCKET01,42415444-4154-4534-9f43-4b455430312e,rev?*%
%TF.SameCoordinates,Original*%
%TF.FileFunction,Copper,L1,Top*%
%TF.FilePolarity,Positive*%
%FSLAX46Y46*%
G04 Gerber Fmt 4.6, Leading zero omitted, Abs format (unit mm)*
G04 Created by KiCad (PCBNEW 7.0.8-7.0.8~ubuntu23.04.1) date 2023-11-07 19:11:24*
%MOMM*%
%LPD*%
G01*
G04 APERTURE LIST*
G04 Aperture macros list*
%AMRoundRect*
0 Rectangle with rounded corners*
0 $1 Rounding radius*
0 $2 $3 $4 $5 $6 $7 $8 $9 X,Y pos of 4 corners*
0 Add a 4 corners polygon primitive as box body*
4,1,4,$2,$3,$4,$5,$6,$7,$8,$9,$2,$3,0*
0 Add four circle primitives for the rounded corners*
1,1,$1+$1,$2,$3*
1,1,$1+$1,$4,$5*
1,1,$1+$1,$6,$7*
1,1,$1+$1,$8,$9*
0 Add four rect primitives between the rounded corners*
20,1,$1+$1,$2,$3,$4,$5,0*
20,1,$1+$1,$4,$5,$6,$7,0*
20,1,$1+$1,$6,$7,$8,$9,0*
20,1,$1+$1,$8,$9,$2,$3,0*%
%AMFreePoly0*
4,1,19,0.500000,-0.750000,0.000000,-0.750000,0.000000,-0.744911,-0.071157,-0.744911,-0.207708,-0.704816,-0.327430,-0.627875,-0.420627,-0.520320,-0.479746,-0.390866,-0.500000,-0.250000,-0.500000,0.250000,-0.479746,0.390866,-0.420627,0.520320,-0.327430,0.627875,-0.207708,0.704816,-0.071157,0.744911,0.000000,0.744911,0.000000,0.750000,0.500000,0.750000,0.500000,-0.750000,0.500000,-0.750000,
$1*%
%AMFreePoly1*
4,1,19,0.000000,0.744911,0.071157,0.744911,0.207708,0.704816,0.327430,0.627875,0.420627,0.520320,0.479746,0.390866,0.500000,0.250000,0.500000,-0.250000,0.479746,-0.390866,0.420627,-0.520320,0.327430,-0.627875,0.207708,-0.704816,0.071157,-0.744911,0.000000,-0.744911,0.000000,-0.750000,-0.500000,-0.750000,-0.500000,0.750000,0.000000,0.750000,0.000000,0.744911,0.000000,0.744911,
$1*%
%AMFreePoly2*
4,1,19,0.550000,-0.750000,0.000000,-0.750000,0.000000,-0.744911,-0.071157,-0.744911,-0.207708,-0.704816,-0.327430,-0.627875,-0.420627,-0.520320,-0.479746,-0.390866,-0.500000,-0.250000,-0.500000,0.250000,-0.479746,0.390866,-0.420627,0.520320,-0.327430,0.627875,-0.207708,0.704816,-0.071157,0.744911,0.000000,0.744911,0.000000,0.750000,0.550000,0.750000,0.550000,-0.750000,0.550000,-0.750000,
$1*%
%AMFreePoly3*
4,1,19,0.000000,0.744911,0.071157,0.744911,0.207708,0.704816,0.327430,0.627875,0.420627,0.520320,0.479746,0.390866,0.500000,0.250000,0.500000,-0.250000,0.479746,-0.390866,0.420627,-0.520320,0.327430,-0.627875,0.207708,-0.704816,0.071157,-0.744911,0.000000,-0.744911,0.000000,-0.750000,-0.550000,-0.750000,-0.550000,0.750000,0.000000,0.750000,0.000000,0.744911,0.000000,0.744911,
$1*%
G04 Aperture macros list end*
%TA.AperFunction,SMDPad,CuDef*%
%ADD10FreePoly0,0.000000*%
%TD*%
%TA.AperFunction,SMDPad,CuDef*%
%ADD11FreePoly1,0.000000*%
%TD*%
%TA.AperFunction,ComponentPad*%
%ADD12C,1.300000*%
%TD*%
%TA.AperFunction,ComponentPad*%
%ADD13C,1.620000*%
%TD*%
%TA.AperFunction,SMDPad,CuDef*%
%ADD14RoundRect,0.250000X0.262500X0.450000X-0.262500X0.450000X-0.262500X-0.450000X0.262500X-0.450000X0*%
%TD*%
%TA.AperFunction,ComponentPad*%
%ADD15C,6.000000*%
%TD*%
%TA.AperFunction,SMDPad,CuDef*%
%ADD16FreePoly2,0.000000*%
%TD*%
%TA.AperFunction,SMDPad,CuDef*%
%ADD17R,1.000000X1.500000*%
%TD*%
%TA.AperFunction,SMDPad,CuDef*%
%ADD18FreePoly3,0.000000*%
%TD*%
%TA.AperFunction,SMDPad,CuDef*%
%ADD19RoundRect,0.243750X-0.243750X-0.456250X0.243750X-0.456250X0.243750X0.456250X-0.243750X0.456250X0*%
%TD*%
%TA.AperFunction,ComponentPad*%
%ADD20R,1.700000X1.700000*%
%TD*%
%TA.AperFunction,ComponentPad*%
%ADD21O,1.700000X1.700000*%
%TD*%
%TA.AperFunction,ViaPad*%
%ADD22C,0.800000*%
%TD*%
%TA.AperFunction,Conductor*%
%ADD23C,0.400000*%
%TD*%
%TA.AperFunction,Conductor*%
%ADD24C,0.500000*%
%TD*%
%TA.AperFunction,Conductor*%
%ADD25C,0.250000*%
%TD*%
%TA.AperFunction,Conductor*%
%ADD26C,0.300000*%
%TD*%
G04 APERTURE END LIST*
%TA.AperFunction,EtchedComponent*%
%TO.C,JP1*%
G36*
X-20900000Y64350000D02*
G01*
X-21400000Y64350000D01*
X-21400000Y64950000D01*
X-20900000Y64950000D01*
X-20900000Y64350000D01*
G37*
%TD.AperFunction*%
%TD*%
D10*
%TO.P,JP2,1,A*%
%TO.N,/connection_detector*%
X-10114000Y73555000D03*
D11*
%TO.P,JP2,2,B*%
%TO.N,GND*%
X-8814000Y73555000D03*
%TD*%
D12*
%TO.P,J1,A1*%
%TO.N,unconnected-(J1-PadA1)*%
X-4300000Y38485000D03*
%TO.P,J1,A2*%
%TO.N,GND*%
X-4300000Y40485000D03*
%TO.P,J1,A3*%
%TO.N,/3v3*%
X-4300000Y42485000D03*
%TO.P,J1,A4*%
%TO.N,/5v*%
X-4300000Y44485000D03*
%TO.P,J1,A5*%
%TO.N,GND*%
X-4300000Y46485000D03*
%TO.P,J1,A6*%
%TO.N,unconnected-(J1-PadA6)*%
X-4300000Y48485000D03*
%TO.P,J1,B1*%
%TO.N,unconnected-(J1-PadB1)*%
X-6300000Y38485000D03*
%TO.P,J1,B2*%
%TO.N,GND*%
X-6300000Y40485000D03*
%TO.P,J1,B3*%
%TO.N,/3v3*%
X-6300000Y42485000D03*
%TO.P,J1,B4*%
%TO.N,/5v*%
X-6300000Y44485000D03*
%TO.P,J1,B5*%
%TO.N,GND*%
X-6300000Y46485000D03*
%TO.P,J1,B6*%
%TO.N,unconnected-(J1-PadB6)*%
X-6300000Y48485000D03*
%TO.P,J1,C1*%
%TO.N,/SCL*%
X-8300000Y38485000D03*
%TO.P,J1,C2*%
%TO.N,/SDA*%
X-8300000Y40485000D03*
%TO.P,J1,C3*%
%TO.N,unconnected-(J1-PadC3)*%
X-8300000Y42485000D03*
%TO.P,J1,C4*%
%TO.N,unconnected-(J1-PadC4)*%
X-8300000Y44485000D03*
%TO.P,J1,C5*%
%TO.N,unconnected-(J1-PadC5)*%
X-8300000Y46485000D03*
%TO.P,J1,C6*%
%TO.N,unconnected-(J1-PadC6)*%
X-8300000Y48485000D03*
%TO.P,J1,D1*%
%TO.N,/SCLK*%
X-10300000Y38485000D03*
%TO.P,J1,D2*%
%TO.N,/MISO*%
X-10300000Y40485000D03*
%TO.P,J1,D3*%
%TO.N,/MOSI*%
X-10300000Y42485000D03*
%TO.P,J1,D4*%
%TO.N,/A0*%
X-10300000Y44485000D03*
%TO.P,J1,D5*%
%TO.N,/A1*%
X-10300000Y46485000D03*
%TO.P,J1,D6*%
%TO.N,/connection_detector*%
X-10300000Y48485000D03*
%TO.P,J1,E1*%
%TO.N,/C0*%
X-12300000Y38485000D03*
%TO.P,J1,E2*%
%TO.N,/C1*%
X-12300000Y40485000D03*
%TO.P,J1,E3*%
%TO.N,/TX*%
X-12300000Y42485000D03*
%TO.P,J1,E4*%
%TO.N,/RX*%
X-12300000Y44485000D03*
%TO.P,J1,E5*%
%TO.N,/B0*%
X-12300000Y46485000D03*
%TO.P,J1,E6*%
%TO.N,/B1*%
X-12300000Y48485000D03*
D13*
%TO.P,J1,P1*%
%TO.N,/BATT_B*%
X-14300000Y24345000D03*
X-11800000Y24345000D03*
X-9300000Y24345000D03*
X-6800000Y24345000D03*
X-4300000Y24345000D03*
X-14300000Y27345000D03*
X-11800000Y27345000D03*
X-9300000Y27345000D03*
X-6800000Y27345000D03*
X-4300000Y27345000D03*
%TO.P,J1,P2*%
%TO.N,GND*%
X-14300000Y29845000D03*
X-11800000Y29845000D03*
X-9300000Y29845000D03*
X-6800000Y29845000D03*
X-4300000Y29845000D03*
X-14300000Y32845000D03*
X-11800000Y32845000D03*
X-9300000Y32845000D03*
X-6800000Y32845000D03*
X-4300000Y32845000D03*
%TO.P,J1,P3*%
X-14300000Y53055000D03*
X-11800000Y53055000D03*
X-9300000Y53055000D03*
X-6800000Y53055000D03*
X-4300000Y53055000D03*
X-14300000Y56055000D03*
X-11800000Y56055000D03*
X-9300000Y56055000D03*
X-6800000Y56055000D03*
X-4300000Y56055000D03*
%TO.P,J1,P4*%
%TO.N,/BATT_A*%
X-14300000Y58555000D03*
X-11800000Y58555000D03*
X-9300000Y58555000D03*
X-6800000Y58555000D03*
X-4300000Y58555000D03*
X-14300000Y61555000D03*
X-11800000Y61555000D03*
X-9300000Y61555000D03*
X-6800000Y61555000D03*
X-4300000Y61555000D03*
%TD*%
D14*
%TO.P,R1,1*%
%TO.N,/5v*%
X-5514000Y11805000D03*
%TO.P,R1,2*%
%TO.N,Net-(D1-A)*%
X-7339000Y11805000D03*
%TD*%
%TO.P,R2,1*%
%TO.N,/3v3*%
X-5514000Y8755000D03*
%TO.P,R2,2*%
%TO.N,Net-(D2-A)*%
X-7339000Y8755000D03*
%TD*%
D15*
%TO.P,H3,1,1*%
%TO.N,GND*%
X-19820000Y73367500D03*
%TD*%
D16*
%TO.P,JP1,1,A*%
%TO.N,/3v3*%
X-21800000Y64650000D03*
D17*
%TO.P,JP1,2,C*%
%TO.N,/I2C_PWR*%
X-20500000Y64650000D03*
D18*
%TO.P,JP1,3,B*%
%TO.N,/5v*%
X-19200000Y64650000D03*
%TD*%
D15*
%TO.P,H4,1,1*%
%TO.N,GND*%
X-19820000Y12407500D03*
%TD*%
D19*
%TO.P,D1,1,K*%
%TO.N,GND*%
X-10851500Y11760000D03*
%TO.P,D1,2,A*%
%TO.N,Net-(D1-A)*%
X-8976500Y11760000D03*
%TD*%
%TO.P,D2,1,K*%
%TO.N,GND*%
X-10851500Y8720000D03*
%TO.P,D2,2,A*%
%TO.N,Net-(D2-A)*%
X-8976500Y8720000D03*
%TD*%
D20*
%TO.P,J2,1*%
%TO.N,GND*%
X-19820000Y60725000D03*
D21*
%TO.P,J2,2*%
X-22360000Y60725000D03*
%TO.P,J2,3*%
%TO.N,/5v*%
X-19820000Y58185000D03*
%TO.P,J2,4*%
X-22360000Y58185000D03*
%TO.P,J2,5*%
%TO.N,/3v3*%
X-19820000Y55645000D03*
%TO.P,J2,6*%
X-22360000Y55645000D03*
%TO.P,J2,7*%
%TO.N,/connection_detector*%
X-19820000Y53105000D03*
%TO.P,J2,8*%
%TO.N,GND*%
X-22360000Y53105000D03*
%TO.P,J2,9*%
%TO.N,unconnected-(J2-Pad9)*%
X-19820000Y50565000D03*
%TO.P,J2,10*%
%TO.N,/A0*%
X-22360000Y50565000D03*
%TO.P,J2,11*%
%TO.N,/RX*%
X-19820000Y48025000D03*
%TO.P,J2,12*%
%TO.N,/A1*%
X-22360000Y48025000D03*
%TO.P,J2,13*%
%TO.N,/TX*%
X-19820000Y45485000D03*
%TO.P,J2,14*%
%TO.N,/B1*%
X-22360000Y45485000D03*
%TO.P,J2,15*%
%TO.N,/MOSI*%
X-19820000Y42945000D03*
%TO.P,J2,16*%
%TO.N,/B0*%
X-22360000Y42945000D03*
%TO.P,J2,17*%
%TO.N,/MISO*%
X-19820000Y40405000D03*
%TO.P,J2,18*%
%TO.N,/C1*%
X-22360000Y40405000D03*
%TO.P,J2,19*%
%TO.N,/SCLK*%
X-19820000Y37865000D03*
%TO.P,J2,20*%
%TO.N,/C0*%
X-22360000Y37865000D03*
%TO.P,J2,21*%
%TO.N,GND*%
X-19820000Y35325000D03*
%TO.P,J2,22*%
X-22360000Y35325000D03*
%TO.P,J2,23*%
%TO.N,/SCL*%
X-19820000Y32785000D03*
%TO.P,J2,24*%
X-22360000Y32785000D03*
%TO.P,J2,25*%
%TO.N,/I2C_PWR*%
X-19820000Y30245000D03*
%TO.P,J2,26*%
X-22360000Y30245000D03*
%TO.P,J2,27*%
%TO.N,/SDA*%
X-19820000Y27705000D03*
%TO.P,J2,28*%
X-22360000Y27705000D03*
%TO.P,J2,29*%
%TO.N,GND*%
X-19820000Y25165000D03*
%TO.P,J2,30*%
X-22360000Y25165000D03*
%TD*%
D22*
%TO.N,/5v*%
X-18450000Y64625000D03*
X-4914000Y11805000D03*
%TO.N,/connection_detector*%
X-19814000Y68155000D03*
%TD*%
D23*
%TO.N,GND*%
X-6314000Y46635000D02*
X-3314000Y46635000D01*
X-6314000Y40635000D02*
X-2924000Y40635000D01*
D24*
%TO.N,/3v3*%
X-4014000Y8755000D02*
X-5514000Y8755000D01*
X-3584000Y42485000D02*
X-4300000Y42485000D01*
D23*
X-17564000Y65139000D02*
X-17564000Y55620000D01*
D24*
X-16414000Y54689000D02*
X-16414000Y52575000D01*
X-17589000Y55645000D02*
X-17564000Y55620000D01*
X-21695000Y55645000D02*
X-17589000Y55645000D01*
X-17345000Y55620000D02*
X-16414000Y54689000D01*
X-2464000Y43605000D02*
X-2964000Y43105000D01*
D23*
X-21814000Y65686000D02*
X-21250000Y66250000D01*
D24*
X-16414000Y52575000D02*
X-15014000Y51175000D01*
X-4300000Y42485000D02*
X-6164000Y42485000D01*
D23*
X-21814000Y64375000D02*
X-21814000Y65686000D01*
X-21250000Y66250000D02*
X-18675000Y66250000D01*
X-18675000Y66250000D02*
X-17564000Y65139000D01*
D24*
X-3714000Y51175000D02*
X-2464000Y49925000D01*
X-2964000Y43105000D02*
X-3584000Y42485000D01*
X-15014000Y51175000D02*
X-3714000Y51175000D01*
X-2464000Y49925000D02*
X-2464000Y43605000D01*
X-17564000Y55620000D02*
X-17345000Y55620000D01*
X-2114000Y10655000D02*
X-4014000Y8755000D01*
X-6164000Y42485000D02*
X-6314000Y42635000D01*
X-2114000Y42255000D02*
X-2114000Y10655000D01*
X-2964000Y43105000D02*
X-2114000Y42255000D01*
D25*
%TO.N,/5v*%
X-5514000Y11805000D02*
X-4914000Y11805000D01*
D24*
X-6314000Y44635000D02*
X-4314000Y44635000D01*
X-18450000Y64625000D02*
X-19175000Y64625000D01*
D25*
%TO.N,/SCL*%
X-19820000Y32785000D02*
X-22360000Y32785000D01*
D26*
%TO.N,/SCLK*%
X-11882724Y39480261D02*
X-18204739Y39480261D01*
X-10314000Y38635000D02*
X-11134261Y39455261D01*
X-11857724Y39455261D02*
X-11882724Y39480261D01*
X-18204739Y39480261D02*
X-19820000Y37865000D01*
X-11134261Y39455261D02*
X-11857724Y39455261D01*
%TO.N,/MISO*%
X-14159000Y40380000D02*
X-19130000Y40380000D01*
X-13064000Y41475000D02*
X-14159000Y40380000D01*
X-11154000Y41475000D02*
X-13064000Y41475000D01*
X-10314000Y40635000D02*
X-11154000Y41475000D01*
%TO.N,/MOSI*%
X-19284739Y43480261D02*
X-19820000Y42945000D01*
X-11159261Y43480261D02*
X-19284739Y43480261D01*
X-10314000Y42635000D02*
X-11159261Y43480261D01*
%TO.N,/A0*%
X-20950000Y49275000D02*
X-22240000Y50565000D01*
X-22240000Y50565000D02*
X-22360000Y50565000D01*
X-9314000Y46058463D02*
X-9300000Y46072463D01*
X-9991463Y49725000D02*
X-13214000Y49725000D01*
X-13214000Y49725000D02*
X-13664000Y49275000D01*
X-9314000Y45635000D02*
X-9314000Y46058463D01*
X-10314000Y44635000D02*
X-9314000Y45635000D01*
X-9300000Y49033537D02*
X-9991463Y49725000D01*
X-13664000Y49275000D02*
X-20950000Y49275000D01*
X-9300000Y46072463D02*
X-9300000Y49033537D01*
%TO.N,/connection_detector*%
X-11614000Y73555000D02*
X-10114000Y73555000D01*
X-19814000Y68155000D02*
X-17014000Y68155000D01*
X-17014000Y68155000D02*
X-11614000Y73555000D01*
%TO.N,/C0*%
X-18199344Y36639656D02*
X-21134656Y36639656D01*
X-21134656Y36639656D02*
X-22360000Y37865000D01*
X-12314000Y38635000D02*
X-16204000Y38635000D01*
X-16204000Y38635000D02*
X-18199344Y36639656D01*
%TO.N,/B0*%
X-12314000Y46255500D02*
X-14344500Y44225000D01*
X-14344500Y44225000D02*
X-21080000Y44225000D01*
X-21080000Y44225000D02*
X-22360000Y42945000D01*
%TO.N,/B1*%
X-18114000Y46775000D02*
X-21070000Y46775000D01*
X-12489000Y48460000D02*
X-16429000Y48460000D01*
X-21070000Y46775000D02*
X-22360000Y45485000D01*
X-12314000Y48635000D02*
X-12489000Y48460000D01*
X-16429000Y48460000D02*
X-18114000Y46775000D01*
D24*
%TO.N,/I2C_PWR*%
X-20964000Y62925000D02*
X-22664000Y62925000D01*
X-19845000Y30220000D02*
X-19820000Y30245000D01*
X-20514000Y64375000D02*
X-20514000Y63375000D01*
X-24025000Y30950000D02*
X-23295000Y30220000D01*
X-20514000Y63375000D02*
X-20964000Y62925000D01*
X-23295000Y30220000D02*
X-19845000Y30220000D01*
X-22664000Y62925000D02*
X-24025000Y61564000D01*
X-24025000Y61564000D02*
X-24025000Y30950000D01*
D25*
%TO.N,Net-(D1-A)*%
X-8976500Y11760000D02*
X-7384000Y11760000D01*
X-7384000Y11760000D02*
X-7339000Y11805000D01*
%TO.N,Net-(D2-A)*%
X-8976500Y8720000D02*
X-7374000Y8720000D01*
X-7374000Y8720000D02*
X-7339000Y8755000D01*
%TD*%
%TA.AperFunction,Conductor*%
%TO.N,GND*%
G36*
X-2564500Y29083444D02*
G01*
X-2584185Y29016405D01*
X-2636989Y28970650D01*
X-2706147Y28960706D01*
X-2751529Y28976658D01*
X-2785437Y28996672D01*
X-2921235Y29044234D01*
X-3016550Y29062970D01*
X-3016559Y29062971D01*
X-3115204Y29072463D01*
X-3244473Y29072171D01*
X-3284032Y29083691D01*
X-2564500Y29524694D01*
X-2564500Y29083444D01*
G37*
%TD.AperFunction*%
%TA.AperFunction,Conductor*%
G36*
X-14839041Y51644002D02*
G01*
X-14843073Y51645185D01*
X-14863715Y51661819D01*
X-14909889Y51707993D01*
X-14839041Y51644002D01*
G37*
%TD.AperFunction*%
%TA.AperFunction,Conductor*%
G36*
X-18016572Y64092155D02*
G01*
X-17973382Y64037233D01*
X-17964500Y63991148D01*
X-17964500Y56219500D01*
X-17984185Y56152461D01*
X-18036989Y56106706D01*
X-18088500Y56095500D01*
X-18795325Y56095500D01*
X-18862364Y56115185D01*
X-18904683Y56161047D01*
X-18942312Y56231445D01*
X-18942316Y56231451D01*
X-18942318Y56231453D01*
X-18973164Y56269040D01*
X-19073590Y56391411D01*
X-19233548Y56522683D01*
X-19233547Y56522683D01*
X-19233550Y56522685D01*
X-19416046Y56620232D01*
X-19614066Y56680300D01*
X-19614068Y56680301D01*
X-19614066Y56680301D01*
X-19820000Y56700583D01*
X-20025933Y56680301D01*
X-20223957Y56620231D01*
X-20327285Y56565000D01*
X-20406450Y56522685D01*
X-20406452Y56522684D01*
X-20406453Y56522683D01*
X-20566411Y56391411D01*
X-20697685Y56231451D01*
X-20697689Y56231445D01*
X-20735317Y56161047D01*
X-20784279Y56111203D01*
X-20844675Y56095500D01*
X-21335325Y56095500D01*
X-21402364Y56115185D01*
X-21444683Y56161047D01*
X-21482312Y56231445D01*
X-21482316Y56231451D01*
X-21482318Y56231453D01*
X-21513164Y56269040D01*
X-21613590Y56391411D01*
X-21773548Y56522683D01*
X-21773547Y56522683D01*
X-21773550Y56522685D01*
X-21956046Y56620232D01*
X-22154066Y56680300D01*
X-22154068Y56680301D01*
X-22154066Y56680301D01*
X-22360000Y56700583D01*
X-22565933Y56680301D01*
X-22763957Y56620231D01*
X-22867285Y56565000D01*
X-22946450Y56522685D01*
X-22946452Y56522684D01*
X-22946453Y56522683D01*
X-23106411Y56391411D01*
X-23237683Y56231453D01*
X-23237685Y56231450D01*
X-23244072Y56219500D01*
X-23335235Y56048951D01*
X-23335940Y56047246D01*
X-23336549Y56046491D01*
X-23338104Y56043581D01*
X-23338656Y56043876D01*
X-23379782Y55992844D01*
X-23446076Y55970780D01*
X-23513775Y55988060D01*
X-23561385Y56039199D01*
X-23574500Y56094701D01*
X-23574500Y57735300D01*
X-23554815Y57802339D01*
X-23502011Y57848094D01*
X-23432853Y57858038D01*
X-23369297Y57829013D01*
X-23338451Y57786234D01*
X-23338104Y57786419D01*
X-23336728Y57783845D01*
X-23335938Y57782749D01*
X-23335235Y57781052D01*
X-23335233Y57781047D01*
X-23335232Y57781046D01*
X-23237685Y57598550D01*
X-23237683Y57598548D01*
X-23106411Y57438590D01*
X-23016491Y57364796D01*
X-22946450Y57307315D01*
X-22763954Y57209768D01*
X-22565934Y57149700D01*
X-22565935Y57149700D01*
X-22547471Y57147882D01*
X-22360000Y57129417D01*
X-22154066Y57149700D01*
X-21956046Y57209768D01*
X-21773550Y57307315D01*
X-21613590Y57438590D01*
X-21482315Y57598550D01*
X-21384768Y57781046D01*
X-21324700Y57979066D01*
X-21304417Y58185000D01*
X-20875583Y58185000D01*
X-20855301Y57979068D01*
X-20855300Y57979066D01*
X-20795232Y57781046D01*
X-20697685Y57598550D01*
X-20697683Y57598548D01*
X-20566411Y57438590D01*
X-20476491Y57364796D01*
X-20406450Y57307315D01*
X-20223954Y57209768D01*
X-20025934Y57149700D01*
X-20025935Y57149700D01*
X-20007471Y57147882D01*
X-19820000Y57129417D01*
X-19614066Y57149700D01*
X-19416046Y57209768D01*
X-19233550Y57307315D01*
X-19073590Y57438590D01*
X-18942315Y57598550D01*
X-18844768Y57781046D01*
X-18784700Y57979066D01*
X-18764417Y58185000D01*
X-18784700Y58390934D01*
X-18844768Y58588954D01*
X-18942315Y58771450D01*
X-18994298Y58834791D01*
X-19073590Y58931411D01*
X-19233548Y59062683D01*
X-19233547Y59062683D01*
X-19233550Y59062685D01*
X-19416046Y59160232D01*
X-19614066Y59220300D01*
X-19614068Y59220301D01*
X-19614066Y59220301D01*
X-19820000Y59240583D01*
X-20025933Y59220301D01*
X-20223957Y59160231D01*
X-20334102Y59101357D01*
X-20406450Y59062685D01*
X-20406452Y59062684D01*
X-20406453Y59062683D01*
X-20566411Y58931411D01*
X-20697683Y58771453D01*
X-20795231Y58588957D01*
X-20855301Y58390933D01*
X-20875583Y58185000D01*
X-21304417Y58185000D01*
X-21324700Y58390934D01*
X-21384768Y58588954D01*
X-21482315Y58771450D01*
X-21534298Y58834791D01*
X-21613590Y58931411D01*
X-21773548Y59062683D01*
X-21773547Y59062683D01*
X-21773550Y59062685D01*
X-21956046Y59160232D01*
X-22154066Y59220300D01*
X-22154068Y59220301D01*
X-22154066Y59220301D01*
X-22360000Y59240583D01*
X-22565933Y59220301D01*
X-22763957Y59160231D01*
X-22874102Y59101357D01*
X-22946450Y59062685D01*
X-22946452Y59062684D01*
X-22946453Y59062683D01*
X-23106411Y58931411D01*
X-23237683Y58771453D01*
X-23335235Y58588951D01*
X-23335940Y58587246D01*
X-23336549Y58586491D01*
X-23338104Y58583581D01*
X-23338656Y58583876D01*
X-23379782Y58532844D01*
X-23446076Y58510780D01*
X-23513775Y58528060D01*
X-23561385Y58579199D01*
X-23574500Y58634701D01*
X-23574500Y60056839D01*
X-23554815Y60123878D01*
X-23502011Y60169633D01*
X-23432853Y60179577D01*
X-23369297Y60150552D01*
X-23346388Y60120995D01*
X-23344956Y60121881D01*
X-23341942Y60117013D01*
X-23213500Y59946929D01*
X-23056000Y59803349D01*
X-23055998Y59803347D01*
X-22874799Y59691154D01*
X-22874793Y59691151D01*
X-22676059Y59614162D01*
X-22610000Y59601814D01*
X-22610000Y60289499D01*
X-22502315Y60240320D01*
X-22395763Y60225000D01*
X-22324237Y60225000D01*
X-22217685Y60240320D01*
X-22110000Y60289499D01*
X-22110000Y59601815D01*
X-22043942Y59614162D01*
X-21845208Y59691151D01*
X-21845202Y59691154D01*
X-21664003Y59803347D01*
X-21664001Y59803349D01*
X-21506501Y59946929D01*
X-21378060Y60117011D01*
X-21283067Y60307784D01*
X-21283059Y60307804D01*
X-21224739Y60512781D01*
X-21224738Y60512785D01*
X-21217471Y60591211D01*
X-21191685Y60656149D01*
X-21134885Y60696837D01*
X-21065104Y60700357D01*
X-21004497Y60665592D01*
X-20972307Y60603580D01*
X-20970000Y60579771D01*
X-20970000Y59830215D01*
X-20969998Y59830192D01*
X-20967092Y59805131D01*
X-20967091Y59805127D01*
X-20921789Y59702526D01*
X-20921786Y59702521D01*
X-20842480Y59623215D01*
X-20842475Y59623212D01*
X-20739877Y59577911D01*
X-20714794Y59575001D01*
X-20070001Y59575001D01*
X-20070000Y59575002D01*
X-20070000Y60289499D01*
X-19962315Y60240320D01*
X-19855763Y60225000D01*
X-19784237Y60225000D01*
X-19677685Y60240320D01*
X-19570000Y60289499D01*
X-19570000Y59575001D01*
X-18925214Y59575001D01*
X-18925192Y59575003D01*
X-18900131Y59577909D01*
X-18900127Y59577910D01*
X-18797526Y59623212D01*
X-18797521Y59623215D01*
X-18718215Y59702521D01*
X-18718212Y59702526D01*
X-18672911Y59805123D01*
X-18672911Y59805125D01*
X-18670001Y59830206D01*
X-18670000Y59830209D01*
X-18670000Y60475000D01*
X-19386314Y60475000D01*
X-19360507Y60515156D01*
X-19320000Y60653111D01*
X-19320000Y60796889D01*
X-19360507Y60934844D01*
X-19386314Y60975000D01*
X-18670001Y60975000D01*
X-18670001Y61619786D01*
X-18670003Y61619809D01*
X-18672909Y61644870D01*
X-18672910Y61644874D01*
X-18718212Y61747475D01*
X-18718215Y61747480D01*
X-18797521Y61826786D01*
X-18797526Y61826789D01*
X-18900124Y61872090D01*
X-18925206Y61875000D01*
X-19570000Y61875000D01*
X-19570000Y61160502D01*
X-19677685Y61209680D01*
X-19784237Y61225000D01*
X-19855763Y61225000D01*
X-19962315Y61209680D01*
X-20070000Y61160502D01*
X-20070000Y61875000D01*
X-20714786Y61875000D01*
X-20714809Y61874998D01*
X-20739870Y61872092D01*
X-20739874Y61872091D01*
X-20842475Y61826789D01*
X-20842480Y61826786D01*
X-20921786Y61747480D01*
X-20921789Y61747475D01*
X-20967090Y61644878D01*
X-20967090Y61644876D01*
X-20970000Y61619795D01*
X-20970000Y60870232D01*
X-20989685Y60803193D01*
X-21042489Y60757438D01*
X-21111647Y60747494D01*
X-21175203Y60776519D01*
X-21212977Y60835297D01*
X-21217471Y60858791D01*
X-21224738Y60937217D01*
X-21224739Y60937220D01*
X-21283059Y61142197D01*
X-21283067Y61142217D01*
X-21378060Y61332990D01*
X-21506501Y61503072D01*
X-21664001Y61646652D01*
X-21664003Y61646654D01*
X-21845202Y61758847D01*
X-21845211Y61758851D01*
X-22043937Y61835837D01*
X-22043942Y61835838D01*
X-22110000Y61848187D01*
X-22110000Y61160502D01*
X-22217685Y61209680D01*
X-22324237Y61225000D01*
X-22395763Y61225000D01*
X-22502315Y61209680D01*
X-22610000Y61160502D01*
X-22610000Y61848187D01*
X-22676059Y61835838D01*
X-22676064Y61835837D01*
X-22846182Y61769934D01*
X-22915805Y61764073D01*
X-22977545Y61796783D01*
X-23011800Y61857679D01*
X-23007693Y61927428D01*
X-22978658Y61973240D01*
X-22513716Y62438181D01*
X-22452393Y62471666D01*
X-22426035Y62474500D01*
X-20992783Y62474500D01*
X-20985845Y62474111D01*
X-20953950Y62470517D01*
X-20946966Y62469730D01*
X-20946966Y62469731D01*
X-20946965Y62469730D01*
X-20888521Y62480789D01*
X-20829713Y62489652D01*
X-20829710Y62489654D01*
X-20821553Y62492170D01*
X-20813531Y62494977D01*
X-20813528Y62494977D01*
X-20760928Y62522778D01*
X-20707358Y62548575D01*
X-20707358Y62548576D01*
X-20707356Y62548576D01*
X-20700305Y62553384D01*
X-20693462Y62558434D01*
X-20651401Y62600496D01*
X-20607806Y62640945D01*
X-20607804Y62640950D01*
X-20602013Y62648210D01*
X-20601357Y62647687D01*
X-20591968Y62659930D01*
X-20215795Y63036104D01*
X-20210627Y63040723D01*
X-20180030Y63065121D01*
X-20146520Y63114272D01*
X-20111207Y63162118D01*
X-20111206Y63162121D01*
X-20107213Y63169676D01*
X-20103530Y63177324D01*
X-20103530Y63177325D01*
X-20103528Y63177327D01*
X-20085993Y63234178D01*
X-20066354Y63290301D01*
X-20064768Y63298689D01*
X-20063500Y63307096D01*
X-20063500Y63366574D01*
X-20061276Y63426008D01*
X-20062316Y63435239D01*
X-20061487Y63435333D01*
X-20063500Y63450634D01*
X-20063500Y63581177D01*
X-20043815Y63648216D01*
X-19991011Y63693971D01*
X-19963695Y63702794D01*
X-19921769Y63711133D01*
X-19921769Y63711134D01*
X-19909789Y63713516D01*
X-19909535Y63712238D01*
X-19852991Y63718320D01*
X-19829101Y63711306D01*
X-19750005Y63695573D01*
X-19750001Y63695572D01*
X-19750000Y63695572D01*
X-19128112Y63695572D01*
X-19128111Y63695572D01*
X-19070517Y63703853D01*
X-18932562Y63744360D01*
X-18879634Y63768531D01*
X-18758680Y63846263D01*
X-18714705Y63884368D01*
X-18626354Y63986333D01*
X-18567578Y64024106D01*
X-18516459Y64028068D01*
X-18450000Y64019318D01*
X-18293238Y64039956D01*
X-18147159Y64100464D01*
X-18147159Y64100465D01*
X-18139651Y64103574D01*
X-18138746Y64101388D01*
X-18082599Y64115008D01*
X-18016572Y64092155D01*
G37*
%TD.AperFunction*%
%TA.AperFunction,Conductor*%
G36*
X-1437870Y85800129D02*
G01*
X-1370852Y85780375D01*
X-1325152Y85727523D01*
X-1314000Y85676129D01*
X-1314000Y129500D01*
X-1333685Y62461D01*
X-1386489Y16706D01*
X-1438000Y5500D01*
X-19110998Y5500D01*
X-24789887Y23211D01*
X-24856864Y43104D01*
X-24902454Y96051D01*
X-24913500Y147210D01*
X-24913500Y2116313D01*
X-11410500Y2116313D01*
X-11390206Y1981677D01*
X-11371396Y1856885D01*
X-11371395Y1856883D01*
X-11371394Y1856877D01*
X-11294062Y1606174D01*
X-11180233Y1369804D01*
X-11180232Y1369803D01*
X-11180230Y1369800D01*
X-11180228Y1369796D01*
X-11032433Y1153021D01*
X-10853986Y960699D01*
X-10853982Y960696D01*
X-10853981Y960695D01*
X-10648857Y797114D01*
X-10421643Y665932D01*
X-10177416Y570080D01*
X-9921630Y511698D01*
X-9921624Y511698D01*
X-9921621Y511697D01*
X-9725500Y497000D01*
X-9725494Y497000D01*
X-9594500Y497000D01*
X-9398380Y511697D01*
X-9398378Y511698D01*
X-9398370Y511698D01*
X-9142584Y570080D01*
X-8898357Y665932D01*
X-8671143Y797114D01*
X-8466019Y960695D01*
X-8287567Y1153021D01*
X-8139772Y1369796D01*
X-8025937Y1606177D01*
X-7948604Y1856885D01*
X-7909500Y2116318D01*
X-7909500Y2378682D01*
X-7948604Y2638115D01*
X-8025937Y2888823D01*
X-8037879Y2913620D01*
X-8139768Y3125197D01*
X-8139769Y3125198D01*
X-8139770Y3125199D01*
X-8139772Y3125204D01*
X-8287567Y3341979D01*
X-8297559Y3352747D01*
X-8466015Y3534302D01*
X-8505467Y3565764D01*
X-8671143Y3697886D01*
X-8898357Y3829068D01*
X-9142584Y3924920D01*
X-9142589Y3924922D01*
X-9142598Y3924924D01*
X-9360182Y3974586D01*
X-9398370Y3983302D01*
X-9398371Y3983303D01*
X-9398375Y3983303D01*
X-9398380Y3983304D01*
X-9594500Y3998000D01*
X-9594506Y3998000D01*
X-9725494Y3998000D01*
X-9725500Y3998000D01*
X-9921621Y3983304D01*
X-9921626Y3983303D01*
X-10177403Y3924924D01*
X-10177422Y3924918D01*
X-10421644Y3829068D01*
X-10648857Y3697886D01*
X-10853986Y3534302D01*
X-11032433Y3341980D01*
X-11180232Y3125198D01*
X-11180233Y3125197D01*
X-11294062Y2888827D01*
X-11371394Y2638124D01*
X-11371395Y2638119D01*
X-11371396Y2638115D01*
X-11386147Y2540253D01*
X-11410500Y2378688D01*
X-11410500Y2116313D01*
X-24913500Y2116313D01*
X-24913500Y8470000D01*
X-11639000Y8470000D01*
X-11639000Y8221182D01*
X-11628507Y8133802D01*
X-11628507Y8133801D01*
X-11573670Y7994745D01*
X-11483355Y7875646D01*
X-11364256Y7785331D01*
X-11225199Y7730494D01*
X-11137818Y7720000D01*
X-11101500Y7720000D01*
X-11101500Y8470000D01*
X-10601500Y8470000D01*
X-10601500Y7720000D01*
X-10565182Y7720000D01*
X-10477802Y7730494D01*
X-10477801Y7730494D01*
X-10338745Y7785331D01*
X-10219646Y7875646D01*
X-10129331Y7994745D01*
X-10074494Y8133801D01*
X-10074494Y8133802D01*
X-10065315Y8210232D01*
X-9664500Y8210232D01*
X-9661687Y8180231D01*
X-9661685Y8180219D01*
X-9617456Y8053822D01*
X-9617455Y8053820D01*
X-9537931Y7946070D01*
X-9430181Y7866546D01*
X-9430179Y7866545D01*
X-9303782Y7822316D01*
X-9303778Y7822316D01*
X-9303774Y7822314D01*
X-9288769Y7820907D01*
X-9273768Y7819500D01*
X-9273764Y7819500D01*
X-8679232Y7819500D01*
X-8665899Y7820751D01*
X-8649226Y7822314D01*
X-8649222Y7822316D01*
X-8649219Y7822316D01*
X-8557244Y7854500D01*
X-8522821Y7866545D01*
X-8415070Y7946070D01*
X-8335545Y8053821D01*
X-8291314Y8180226D01*
X-8290171Y8192419D01*
X-8264318Y8257326D01*
X-8207475Y8297954D01*
X-8137690Y8301401D01*
X-8077120Y8266572D01*
X-8049672Y8221801D01*
X-8004294Y8092120D01*
X-8004293Y8092118D01*
X-7923650Y7982850D01*
X-7814382Y7902207D01*
X-7771655Y7887256D01*
X-7686201Y7857354D01*
X-7655770Y7854500D01*
X-7655766Y7854500D01*
X-7022230Y7854500D01*
X-6991801Y7857354D01*
X-6991799Y7857354D01*
X-6927710Y7879781D01*
X-6863618Y7902207D01*
X-6754350Y7982850D01*
X-6673707Y8092118D01*
X-6642875Y8180231D01*
X-6628854Y8220299D01*
X-6628854Y8220301D01*
X-6626000Y8250731D01*
X-6626000Y9259270D01*
X-6628854Y9289700D01*
X-6628854Y9289702D01*
X-6673707Y9417881D01*
X-6673708Y9417883D01*
X-6729833Y9493930D01*
X-6754350Y9527150D01*
X-6863618Y9607793D01*
X-6863620Y9607794D01*
X-6991800Y9652647D01*
X-7022230Y9655500D01*
X-7022234Y9655500D01*
X-7655766Y9655500D01*
X-7655770Y9655500D01*
X-7686200Y9652647D01*
X-7686202Y9652647D01*
X-7814381Y9607794D01*
X-7814383Y9607793D01*
X-7923650Y9527150D01*
X-8004293Y9417883D01*
X-8004294Y9417881D01*
X-8049147Y9289702D01*
X-8049540Y9285503D01*
X-8050698Y9282599D01*
X-8050756Y9282330D01*
X-8050801Y9282340D01*
X-8075402Y9220596D01*
X-8132249Y9179974D01*
X-8202034Y9176534D01*
X-8262600Y9211370D01*
X-8290039Y9256132D01*
X-8335545Y9386179D01*
X-8335546Y9386181D01*
X-8415070Y9493931D01*
X-8522820Y9573455D01*
X-8522822Y9573456D01*
X-8649219Y9617685D01*
X-8649231Y9617687D01*
X-8679232Y9620500D01*
X-8679236Y9620500D01*
X-9273764Y9620500D01*
X-9273768Y9620500D01*
X-9303770Y9617687D01*
X-9303782Y9617685D01*
X-9430179Y9573456D01*
X-9430181Y9573455D01*
X-9537931Y9493931D01*
X-9617455Y9386181D01*
X-9617456Y9386179D01*
X-9661685Y9259782D01*
X-9661687Y9259770D01*
X-9664500Y9229769D01*
X-9664500Y8210232D01*
X-10065315Y8210232D01*
X-10064000Y8221182D01*
X-10064000Y8470000D01*
X-10601500Y8470000D01*
X-11101500Y8470000D01*
X-11639000Y8470000D01*
X-24913500Y8470000D01*
X-24913500Y8970000D01*
X-11639000Y8970000D01*
X-11101500Y8970000D01*
X-11101500Y9720000D01*
X-10601500Y9720000D01*
X-10601500Y8970000D01*
X-10064000Y8970000D01*
X-10064000Y9218819D01*
X-10074494Y9306199D01*
X-10074494Y9306200D01*
X-10129331Y9445256D01*
X-10219646Y9564355D01*
X-10338745Y9654670D01*
X-10477802Y9709507D01*
X-10565182Y9720000D01*
X-10601500Y9720000D01*
X-11101500Y9720000D01*
X-11137818Y9720000D01*
X-11225199Y9709507D01*
X-11225200Y9709507D01*
X-11364256Y9654670D01*
X-11483355Y9564355D01*
X-11573670Y9445256D01*
X-11628507Y9306200D01*
X-11628507Y9306199D01*
X-11639000Y9218819D01*
X-11639000Y8970000D01*
X-24913500Y8970000D01*
X-24913500Y11510000D01*
X-11639000Y11510000D01*
X-11639000Y11261182D01*
X-11628507Y11173802D01*
X-11628507Y11173801D01*
X-11573670Y11034745D01*
X-11483355Y10915646D01*
X-11364256Y10825331D01*
X-11225199Y10770494D01*
X-11137818Y10760000D01*
X-11101500Y10760000D01*
X-11101500Y11510000D01*
X-10601500Y11510000D01*
X-10601500Y10760000D01*
X-10565182Y10760000D01*
X-10477802Y10770494D01*
X-10477801Y10770494D01*
X-10338745Y10825331D01*
X-10219646Y10915646D01*
X-10129331Y11034745D01*
X-10074494Y11173801D01*
X-10074494Y11173802D01*
X-10065315Y11250232D01*
X-9664500Y11250232D01*
X-9661687Y11220231D01*
X-9661685Y11220219D01*
X-9617456Y11093822D01*
X-9617455Y11093820D01*
X-9537931Y10986070D01*
X-9430181Y10906546D01*
X-9430179Y10906545D01*
X-9303782Y10862316D01*
X-9303778Y10862316D01*
X-9303774Y10862314D01*
X-9288769Y10860907D01*
X-9273768Y10859500D01*
X-9273764Y10859500D01*
X-8679232Y10859500D01*
X-8665899Y10860751D01*
X-8649226Y10862314D01*
X-8649222Y10862316D01*
X-8649219Y10862316D01*
X-8578155Y10887184D01*
X-8522821Y10906545D01*
X-8415070Y10986070D01*
X-8335545Y11093821D01*
X-8291314Y11220226D01*
X-8289431Y11240309D01*
X-8263575Y11305215D01*
X-8206731Y11345841D01*
X-8136946Y11349286D01*
X-8076377Y11314455D01*
X-8048932Y11269687D01*
X-8007167Y11150332D01*
X-8004293Y11142118D01*
X-7923650Y11032850D01*
X-7814382Y10952207D01*
X-7771655Y10937256D01*
X-7686201Y10907354D01*
X-7655770Y10904500D01*
X-7655766Y10904500D01*
X-7022230Y10904500D01*
X-6991801Y10907354D01*
X-6991799Y10907354D01*
X-6927710Y10929781D01*
X-6863618Y10952207D01*
X-6754350Y11032850D01*
X-6673707Y11142118D01*
X-6646374Y11220231D01*
X-6628854Y11270299D01*
X-6628854Y11270301D01*
X-6626000Y11300731D01*
X-6227000Y11300731D01*
X-6224147Y11270301D01*
X-6224147Y11270299D01*
X-6181811Y11149314D01*
X-6179293Y11142118D01*
X-6098650Y11032850D01*
X-5989382Y10952207D01*
X-5946655Y10937256D01*
X-5861201Y10907354D01*
X-5830770Y10904500D01*
X-5830766Y10904500D01*
X-5197230Y10904500D01*
X-5166801Y10907354D01*
X-5166799Y10907354D01*
X-5102710Y10929781D01*
X-5038618Y10952207D01*
X-4929350Y11032850D01*
X-4848707Y11142118D01*
X-4848706Y11142121D01*
X-4844366Y11150332D01*
X-4842438Y11149314D01*
X-4809052Y11195873D01*
X-4764811Y11217928D01*
X-4757253Y11219955D01*
X-4757238Y11219956D01*
X-4611159Y11280464D01*
X-4485718Y11376718D01*
X-4389464Y11502159D01*
X-4328956Y11648238D01*
X-4308318Y11805000D01*
X-4328956Y11961762D01*
X-4389464Y12107841D01*
X-4485718Y12233282D01*
X-4611159Y12329536D01*
X-4611161Y12329537D01*
X-4757242Y12390046D01*
X-4764819Y12392076D01*
X-4824477Y12428444D01*
X-4843385Y12460188D01*
X-4844366Y12459669D01*
X-4848707Y12467883D01*
X-4882952Y12514282D01*
X-4929350Y12577150D01*
X-5038618Y12657793D01*
X-5038620Y12657794D01*
X-5166800Y12702647D01*
X-5197230Y12705500D01*
X-5197234Y12705500D01*
X-5830766Y12705500D01*
X-5830770Y12705500D01*
X-5861200Y12702647D01*
X-5861202Y12702647D01*
X-5989381Y12657794D01*
X-5989383Y12657793D01*
X-6098650Y12577150D01*
X-6179293Y12467883D01*
X-6179294Y12467881D01*
X-6224147Y12339702D01*
X-6224147Y12339700D01*
X-6227000Y12309270D01*
X-6227000Y11300731D01*
X-6626000Y11300731D01*
X-6626000Y12309270D01*
X-6628854Y12339700D01*
X-6628854Y12339702D01*
X-6673707Y12467881D01*
X-6673708Y12467883D01*
X-6686530Y12485256D01*
X-6754350Y12577150D01*
X-6863618Y12657793D01*
X-6863620Y12657794D01*
X-6991800Y12702647D01*
X-7022230Y12705500D01*
X-7022234Y12705500D01*
X-7655766Y12705500D01*
X-7655770Y12705500D01*
X-7686200Y12702647D01*
X-7686202Y12702647D01*
X-7814381Y12657794D01*
X-7814383Y12657793D01*
X-7923650Y12577150D01*
X-8004293Y12467883D01*
X-8004294Y12467881D01*
X-8049147Y12339702D01*
X-8049147Y12339700D01*
X-8050279Y12327622D01*
X-8076137Y12262714D01*
X-8132982Y12222089D01*
X-8202767Y12218646D01*
X-8263335Y12253478D01*
X-8290778Y12298245D01*
X-8335545Y12426179D01*
X-8335546Y12426181D01*
X-8415070Y12533931D01*
X-8522820Y12613455D01*
X-8522822Y12613456D01*
X-8649219Y12657685D01*
X-8649231Y12657687D01*
X-8679232Y12660500D01*
X-8679236Y12660500D01*
X-9273764Y12660500D01*
X-9273768Y12660500D01*
X-9303770Y12657687D01*
X-9303782Y12657685D01*
X-9430179Y12613456D01*
X-9430181Y12613455D01*
X-9537931Y12533931D01*
X-9617455Y12426181D01*
X-9617456Y12426179D01*
X-9661685Y12299782D01*
X-9661687Y12299770D01*
X-9664500Y12269769D01*
X-9664500Y11250232D01*
X-10065315Y11250232D01*
X-10064000Y11261182D01*
X-10064000Y11510000D01*
X-10601500Y11510000D01*
X-11101500Y11510000D01*
X-11639000Y11510000D01*
X-24913500Y11510000D01*
X-24913500Y12010000D01*
X-11639000Y12010000D01*
X-11101500Y12010000D01*
X-11101500Y12760000D01*
X-10601500Y12760000D01*
X-10601500Y12010000D01*
X-10064000Y12010000D01*
X-10064000Y12258819D01*
X-10074494Y12346199D01*
X-10074494Y12346200D01*
X-10129331Y12485256D01*
X-10219646Y12604355D01*
X-10338745Y12694670D01*
X-10477802Y12749507D01*
X-10565182Y12760000D01*
X-10601500Y12760000D01*
X-11101500Y12760000D01*
X-11137818Y12760000D01*
X-11225199Y12749507D01*
X-11225200Y12749507D01*
X-11364256Y12694670D01*
X-11483355Y12604355D01*
X-11573670Y12485256D01*
X-11628507Y12346200D01*
X-11628507Y12346199D01*
X-11639000Y12258819D01*
X-11639000Y12010000D01*
X-24913500Y12010000D01*
X-24913500Y18777237D01*
X-11154213Y18777237D01*
X-11124587Y18507987D01*
X-11124585Y18507976D01*
X-11056074Y18245918D01*
X-11056072Y18245912D01*
X-10950130Y17996610D01*
X-10878002Y17878425D01*
X-10809021Y17765395D01*
X-10809014Y17765385D01*
X-10635747Y17557181D01*
X-10635741Y17557176D01*
X-10434002Y17376418D01*
X-10208090Y17226956D01*
X-9962824Y17111980D01*
X-9962817Y17111978D01*
X-9962815Y17111977D01*
X-9703443Y17033943D01*
X-9703436Y17033942D01*
X-9703431Y17033940D01*
X-9435439Y16994500D01*
X-9435434Y16994500D01*
X-9232364Y16994500D01*
X-9180867Y16998270D01*
X-9029844Y17009323D01*
X-8917242Y17034407D01*
X-8765454Y17068218D01*
X-8765452Y17068219D01*
X-8765447Y17068220D01*
X-8512442Y17164986D01*
X-8276223Y17297559D01*
X-8061823Y17463112D01*
X-7873814Y17658119D01*
X-7716201Y17878421D01*
X-7642213Y18022331D01*
X-7592351Y18119310D01*
X-7592349Y18119316D01*
X-7592344Y18119325D01*
X-7504882Y18375695D01*
X-7455681Y18642067D01*
X-7445788Y18912765D01*
X-7475414Y19182018D01*
X-7543928Y19444088D01*
X-7649870Y19693390D01*
X-7790982Y19924610D01*
X-7880253Y20031881D01*
X-7964254Y20132820D01*
X-7964260Y20132825D01*
X-8165998Y20313582D01*
X-8391908Y20463043D01*
X-8391910Y20463044D01*
X-8637176Y20578020D01*
X-8637181Y20578022D01*
X-8637186Y20578024D01*
X-8896558Y20656058D01*
X-8896572Y20656061D01*
X-9012209Y20673079D01*
X-9164561Y20695500D01*
X-9367631Y20695500D01*
X-9367636Y20695500D01*
X-9570156Y20680677D01*
X-9570169Y20680675D01*
X-9834547Y20621783D01*
X-9834554Y20621780D01*
X-10087561Y20525013D01*
X-10323774Y20392443D01*
X-10538178Y20226888D01*
X-10726178Y20031891D01*
X-10726184Y20031884D01*
X-10883798Y19811581D01*
X-10883801Y19811576D01*
X-11007650Y19570691D01*
X-11007657Y19570673D01*
X-11095116Y19314315D01*
X-11095119Y19314301D01*
X-11144319Y19047932D01*
X-11144320Y19047925D01*
X-11154213Y18777237D01*
X-24913500Y18777237D01*
X-24913500Y25415001D01*
X-23484513Y25415001D01*
X-23484512Y25415000D01*
X-22793686Y25415000D01*
X-22819493Y25374844D01*
X-22860000Y25236889D01*
X-22860000Y25093111D01*
X-22819493Y24955156D01*
X-22793686Y24915000D01*
X-23484512Y24915000D01*
X-23436938Y24747795D01*
X-23436933Y24747782D01*
X-23341939Y24557009D01*
X-23213500Y24386929D01*
X-23056000Y24243349D01*
X-23055998Y24243347D01*
X-22874799Y24131154D01*
X-22874793Y24131151D01*
X-22676059Y24054162D01*
X-22610000Y24041814D01*
X-22610000Y24729499D01*
X-22502315Y24680320D01*
X-22395763Y24665000D01*
X-22324237Y24665000D01*
X-22217685Y24680320D01*
X-22110000Y24729499D01*
X-22110000Y24041815D01*
X-22043942Y24054162D01*
X-21845208Y24131151D01*
X-21845202Y24131154D01*
X-21664003Y24243347D01*
X-21664001Y24243349D01*
X-21506501Y24386929D01*
X-21378062Y24557009D01*
X-21283068Y24747782D01*
X-21283063Y24747795D01*
X-21235488Y24915000D01*
X-21926314Y24915000D01*
X-21900507Y24955156D01*
X-21860000Y25093111D01*
X-21860000Y25236889D01*
X-21900507Y25374844D01*
X-21926314Y25415000D01*
X-21235488Y25415000D01*
X-21235488Y25415001D01*
X-20944513Y25415001D01*
X-20944512Y25415000D01*
X-20253686Y25415000D01*
X-20279493Y25374844D01*
X-20320000Y25236889D01*
X-20320000Y25093111D01*
X-20279493Y24955156D01*
X-20253686Y24915000D01*
X-20944512Y24915000D01*
X-20896938Y24747795D01*
X-20896933Y24747782D01*
X-20801939Y24557009D01*
X-20673500Y24386929D01*
X-20516000Y24243349D01*
X-20515998Y24243347D01*
X-20334799Y24131154D01*
X-20334793Y24131151D01*
X-20136059Y24054162D01*
X-20070000Y24041814D01*
X-20070000Y24729499D01*
X-19962315Y24680320D01*
X-19855763Y24665000D01*
X-19784237Y24665000D01*
X-19677685Y24680320D01*
X-19570000Y24729499D01*
X-19570000Y24041815D01*
X-19503942Y24054162D01*
X-19305208Y24131151D01*
X-19305202Y24131154D01*
X-19124003Y24243347D01*
X-19124001Y24243349D01*
X-18966501Y24386929D01*
X-18838062Y24557009D01*
X-18743068Y24747782D01*
X-18743063Y24747795D01*
X-18695488Y24915000D01*
X-19386314Y24915000D01*
X-19360507Y24955156D01*
X-19320000Y25093111D01*
X-19320000Y25236889D01*
X-19360507Y25374844D01*
X-19386314Y25415000D01*
X-18695488Y25415000D01*
X-18695488Y25415001D01*
X-18743063Y25582206D01*
X-18743068Y25582219D01*
X-18838062Y25772992D01*
X-18966501Y25943072D01*
X-19124001Y26086652D01*
X-19124003Y26086654D01*
X-19305202Y26198847D01*
X-19305211Y26198851D01*
X-19503937Y26275837D01*
X-19503942Y26275838D01*
X-19570000Y26288187D01*
X-19570000Y25600502D01*
X-19677685Y25649680D01*
X-19784237Y25665000D01*
X-19855763Y25665000D01*
X-19962315Y25649680D01*
X-20070000Y25600502D01*
X-20070000Y26288187D01*
X-20136059Y26275838D01*
X-20136064Y26275837D01*
X-20334790Y26198851D01*
X-20334799Y26198847D01*
X-20515998Y26086654D01*
X-20516000Y26086652D01*
X-20673500Y25943072D01*
X-20801939Y25772992D01*
X-20896933Y25582219D01*
X-20896938Y25582206D01*
X-20944513Y25415001D01*
X-21235488Y25415001D01*
X-21283063Y25582206D01*
X-21283068Y25582219D01*
X-21378062Y25772992D01*
X-21506501Y25943072D01*
X-21664001Y26086652D01*
X-21664003Y26086654D01*
X-21845202Y26198847D01*
X-21845211Y26198851D01*
X-22043937Y26275837D01*
X-22043942Y26275838D01*
X-22110000Y26288187D01*
X-22110000Y25600502D01*
X-22217685Y25649680D01*
X-22324237Y25665000D01*
X-22395763Y25665000D01*
X-22502315Y25649680D01*
X-22610000Y25600502D01*
X-22610000Y26288187D01*
X-22676059Y26275838D01*
X-22676064Y26275837D01*
X-22874790Y26198851D01*
X-22874799Y26198847D01*
X-23055998Y26086654D01*
X-23056000Y26086652D01*
X-23213500Y25943072D01*
X-23341939Y25772992D01*
X-23436933Y25582219D01*
X-23436938Y25582206D01*
X-23484513Y25415001D01*
X-24913500Y25415001D01*
X-24913500Y27705000D01*
X-23415583Y27705000D01*
X-23395301Y27499068D01*
X-23395300Y27499066D01*
X-23335232Y27301046D01*
X-23237685Y27118550D01*
X-23237683Y27118548D01*
X-23106411Y26958590D01*
X-23009791Y26879298D01*
X-22946450Y26827315D01*
X-22763954Y26729768D01*
X-22565934Y26669700D01*
X-22565935Y26669700D01*
X-22547471Y26667882D01*
X-22360000Y26649417D01*
X-22154066Y26669700D01*
X-21956046Y26729768D01*
X-21773550Y26827315D01*
X-21613590Y26958590D01*
X-21482315Y27118550D01*
X-21384768Y27301046D01*
X-21324700Y27499066D01*
X-21304417Y27705000D01*
X-20875583Y27705000D01*
X-20855301Y27499068D01*
X-20855300Y27499066D01*
X-20795232Y27301046D01*
X-20697685Y27118550D01*
X-20697683Y27118548D01*
X-20566411Y26958590D01*
X-20469791Y26879298D01*
X-20406450Y26827315D01*
X-20223954Y26729768D01*
X-20025934Y26669700D01*
X-20025935Y26669700D01*
X-20007471Y26667882D01*
X-19820000Y26649417D01*
X-19614066Y26669700D01*
X-19416046Y26729768D01*
X-19233550Y26827315D01*
X-19073590Y26958590D01*
X-18942315Y27118550D01*
X-18844768Y27301046D01*
X-18784700Y27499066D01*
X-18764417Y27705000D01*
X-18784700Y27910934D01*
X-18844768Y28108954D01*
X-18942315Y28291450D01*
X-19021772Y28388269D01*
X-19073590Y28451411D01*
X-19194029Y28550251D01*
X-19233550Y28582685D01*
X-19416046Y28680232D01*
X-19614066Y28740300D01*
X-19614068Y28740301D01*
X-19614066Y28740301D01*
X-19820000Y28760583D01*
X-20025933Y28740301D01*
X-20187853Y28691183D01*
X-20219981Y28681437D01*
X-20223957Y28680231D01*
X-20334102Y28621357D01*
X-20406450Y28582685D01*
X-20406452Y28582684D01*
X-20406453Y28582683D01*
X-20566411Y28451411D01*
X-20697683Y28291453D01*
X-20795231Y28108957D01*
X-20855301Y27910933D01*
X-20875583Y27705000D01*
X-21304417Y27705000D01*
X-21324700Y27910934D01*
X-21384768Y28108954D01*
X-21482315Y28291450D01*
X-21561772Y28388269D01*
X-21613590Y28451411D01*
X-21734029Y28550251D01*
X-21773550Y28582685D01*
X-21956046Y28680232D01*
X-22154066Y28740300D01*
X-22154068Y28740301D01*
X-22154066Y28740301D01*
X-22360000Y28760583D01*
X-22565933Y28740301D01*
X-22727853Y28691183D01*
X-22759981Y28681437D01*
X-22763957Y28680231D01*
X-22874102Y28621357D01*
X-22946450Y28582685D01*
X-22946452Y28582684D01*
X-22946453Y28582683D01*
X-23106411Y28451411D01*
X-23237683Y28291453D01*
X-23335231Y28108957D01*
X-23395301Y27910933D01*
X-23415583Y27705000D01*
X-24913500Y27705000D01*
X-24913500Y30932966D01*
X-24480271Y30932966D01*
X-24469212Y30874521D01*
X-24460348Y30815710D01*
X-24457838Y30807573D01*
X-24455022Y30799525D01*
X-24427223Y30746928D01*
X-24401424Y30693356D01*
X-24396638Y30686335D01*
X-24391569Y30679468D01*
X-24391566Y30679462D01*
X-24391562Y30679458D01*
X-24349505Y30637401D01*
X-24309053Y30593804D01*
X-24301790Y30588012D01*
X-24302311Y30587359D01*
X-24290070Y30577966D01*
X-23633910Y29921807D01*
X-23629274Y29916620D01*
X-23604879Y29886030D01*
X-23604879Y29886029D01*
X-23555729Y29852520D01*
X-23507882Y29817207D01*
X-23500346Y29813224D01*
X-23492681Y29809533D01*
X-23492673Y29809528D01*
X-23435823Y29791993D01*
X-23379703Y29772355D01*
X-23379701Y29772355D01*
X-23379699Y29772354D01*
X-23379698Y29772354D01*
X-23371321Y29770770D01*
X-23362906Y29769502D01*
X-23362902Y29769500D01*
X-23362898Y29769500D01*
X-23353712Y29768115D01*
X-23354259Y29764493D01*
X-23304273Y29749815D01*
X-23261955Y29703955D01*
X-23237685Y29658550D01*
X-23203031Y29616323D01*
X-23106411Y29498590D01*
X-23037831Y29442309D01*
X-22946450Y29367315D01*
X-22763954Y29269768D01*
X-22565934Y29209700D01*
X-22565935Y29209700D01*
X-22547598Y29207894D01*
X-22360000Y29189417D01*
X-22154066Y29209700D01*
X-21956046Y29269768D01*
X-21773550Y29367315D01*
X-21613590Y29498590D01*
X-21482315Y29658550D01*
X-21458046Y29703955D01*
X-21409083Y29753798D01*
X-21348688Y29769500D01*
X-20831312Y29769500D01*
X-20764273Y29749815D01*
X-20721955Y29703955D01*
X-20697685Y29658550D01*
X-20663031Y29616323D01*
X-20566411Y29498590D01*
X-20497831Y29442309D01*
X-20406450Y29367315D01*
X-20223954Y29269768D01*
X-20025934Y29209700D01*
X-20025935Y29209700D01*
X-20007598Y29207894D01*
X-19820000Y29189417D01*
X-19614066Y29209700D01*
X-19416046Y29269768D01*
X-19233550Y29367315D01*
X-19073590Y29498590D01*
X-18942315Y29658550D01*
X-18844768Y29841046D01*
X-18784700Y30039066D01*
X-18764417Y30245000D01*
X-18784700Y30450934D01*
X-18844768Y30648954D01*
X-18942315Y30831450D01*
X-19014837Y30919819D01*
X-19073590Y30991411D01*
X-19191323Y31088031D01*
X-19233550Y31122685D01*
X-19416046Y31220232D01*
X-19614066Y31280300D01*
X-19614068Y31280301D01*
X-19614066Y31280301D01*
X-19820000Y31300583D01*
X-20025933Y31280301D01*
X-20223957Y31220231D01*
X-20284319Y31187966D01*
X-20406450Y31122685D01*
X-20406452Y31122684D01*
X-20406453Y31122683D01*
X-20566411Y30991411D01*
X-20697685Y30831451D01*
X-20697690Y30831445D01*
X-20748680Y30736047D01*
X-20797642Y30686202D01*
X-20858038Y30670500D01*
X-21321962Y30670500D01*
X-21389001Y30690185D01*
X-21431320Y30736047D01*
X-21482311Y30831445D01*
X-21482316Y30831451D01*
X-21482318Y30831453D01*
X-21554837Y30919819D01*
X-21613590Y30991411D01*
X-21731323Y31088031D01*
X-21773550Y31122685D01*
X-21956046Y31220232D01*
X-22154066Y31280300D01*
X-22154068Y31280301D01*
X-22154066Y31280301D01*
X-22360000Y31300583D01*
X-22565933Y31280301D01*
X-22763957Y31220231D01*
X-22824319Y31187966D01*
X-22946450Y31122685D01*
X-22946452Y31122684D01*
X-22946453Y31122683D01*
X-23106411Y30991411D01*
X-23165163Y30919819D01*
X-23222909Y30880484D01*
X-23292754Y30878613D01*
X-23348698Y30910802D01*
X-23538181Y31100285D01*
X-23571666Y31161608D01*
X-23574500Y31187966D01*
X-23574500Y32335300D01*
X-23554815Y32402339D01*
X-23502011Y32448094D01*
X-23432853Y32458038D01*
X-23369297Y32429013D01*
X-23338451Y32386234D01*
X-23338104Y32386419D01*
X-23336728Y32383845D01*
X-23335938Y32382749D01*
X-23335235Y32381052D01*
X-23335233Y32381047D01*
X-23335232Y32381046D01*
X-23237685Y32198550D01*
X-23237683Y32198548D01*
X-23106411Y32038590D01*
X-23009791Y31959298D01*
X-22946450Y31907315D01*
X-22763954Y31809768D01*
X-22565934Y31749700D01*
X-22565935Y31749700D01*
X-22547471Y31747882D01*
X-22360000Y31729417D01*
X-22154066Y31749700D01*
X-21956046Y31809768D01*
X-21773550Y31907315D01*
X-21613590Y32038590D01*
X-21482315Y32198550D01*
X-21384768Y32381046D01*
X-21384766Y32381055D01*
X-21383979Y32382951D01*
X-21383299Y32383797D01*
X-21381896Y32386419D01*
X-21381399Y32386154D01*
X-21340138Y32437355D01*
X-21273844Y32459421D01*
X-21269417Y32459500D01*
X-20910583Y32459500D01*
X-20843544Y32439815D01*
X-20797789Y32387011D01*
X-20796021Y32382951D01*
X-20795234Y32381052D01*
X-20795232Y32381046D01*
X-20697685Y32198550D01*
X-20697683Y32198548D01*
X-20566411Y32038590D01*
X-20469791Y31959298D01*
X-20406450Y31907315D01*
X-20223954Y31809768D01*
X-20025934Y31749700D01*
X-20025935Y31749700D01*
X-20007471Y31747882D01*
X-19820000Y31729417D01*
X-19614066Y31749700D01*
X-19416046Y31809768D01*
X-19233550Y31907315D01*
X-19073590Y32038590D01*
X-18942315Y32198550D01*
X-18844768Y32381046D01*
X-18784700Y32579066D01*
X-18764417Y32785000D01*
X-18784700Y32990934D01*
X-18844768Y33188954D01*
X-18942315Y33371450D01*
X-18995334Y33436054D01*
X-19073590Y33531411D01*
X-19233548Y33662683D01*
X-19233547Y33662683D01*
X-19233550Y33662685D01*
X-19416046Y33760232D01*
X-19614066Y33820300D01*
X-19614068Y33820301D01*
X-19614066Y33820301D01*
X-19820000Y33840583D01*
X-20025933Y33820301D01*
X-20223957Y33760231D01*
X-20334102Y33701357D01*
X-20406450Y33662685D01*
X-20406452Y33662684D01*
X-20406453Y33662683D01*
X-20566411Y33531411D01*
X-20648125Y33431840D01*
X-20697685Y33371450D01*
X-20739225Y33293737D01*
X-20795232Y33188955D01*
X-20796021Y33187049D01*
X-20796702Y33186204D01*
X-20798104Y33183581D01*
X-20798602Y33183847D01*
X-20839862Y33132645D01*
X-20906156Y33110579D01*
X-20910583Y33110500D01*
X-21269417Y33110500D01*
X-21336456Y33130185D01*
X-21382211Y33182989D01*
X-21383979Y33187049D01*
X-21384767Y33188951D01*
X-21384768Y33188954D01*
X-21482315Y33371450D01*
X-21535334Y33436054D01*
X-21613590Y33531411D01*
X-21773548Y33662683D01*
X-21773547Y33662683D01*
X-21773550Y33662685D01*
X-21956046Y33760232D01*
X-22154066Y33820300D01*
X-22154068Y33820301D01*
X-22154066Y33820301D01*
X-22360000Y33840583D01*
X-22565933Y33820301D01*
X-22763957Y33760231D01*
X-22874102Y33701357D01*
X-22946450Y33662685D01*
X-22946452Y33662684D01*
X-22946453Y33662683D01*
X-23106411Y33531411D01*
X-23237683Y33371453D01*
X-23335235Y33188951D01*
X-23335940Y33187246D01*
X-23336549Y33186491D01*
X-23338104Y33183581D01*
X-23338656Y33183876D01*
X-23379782Y33132844D01*
X-23446076Y33110780D01*
X-23513775Y33128060D01*
X-23561385Y33179199D01*
X-23574500Y33234701D01*
X-23574500Y34656839D01*
X-23554815Y34723878D01*
X-23502011Y34769633D01*
X-23432853Y34779577D01*
X-23369297Y34750552D01*
X-23346388Y34720995D01*
X-23344956Y34721881D01*
X-23341942Y34717013D01*
X-23213500Y34546929D01*
X-23056000Y34403349D01*
X-23055998Y34403347D01*
X-22874799Y34291154D01*
X-22874793Y34291151D01*
X-22676059Y34214162D01*
X-22610000Y34201814D01*
X-22610000Y34889499D01*
X-22502315Y34840320D01*
X-22395763Y34825000D01*
X-22324237Y34825000D01*
X-22217685Y34840320D01*
X-22110000Y34889499D01*
X-22110000Y34201815D01*
X-22043942Y34214162D01*
X-21845208Y34291151D01*
X-21845202Y34291154D01*
X-21664003Y34403347D01*
X-21664001Y34403349D01*
X-21506501Y34546929D01*
X-21378062Y34717009D01*
X-21283068Y34907782D01*
X-21283063Y34907795D01*
X-21235488Y35075000D01*
X-21926314Y35075000D01*
X-21900507Y35115156D01*
X-21860000Y35253111D01*
X-21860000Y35396889D01*
X-21900507Y35534844D01*
X-21926314Y35575000D01*
X-21235488Y35575000D01*
X-21235488Y35575001D01*
X-21283063Y35742206D01*
X-21283068Y35742219D01*
X-21378062Y35932992D01*
X-21506501Y36103072D01*
X-21664001Y36246652D01*
X-21664003Y36246654D01*
X-21845202Y36358847D01*
X-21845211Y36358851D01*
X-22043937Y36435837D01*
X-22043942Y36435838D01*
X-22110000Y36448187D01*
X-22110000Y35760502D01*
X-22217685Y35809680D01*
X-22324237Y35825000D01*
X-22395763Y35825000D01*
X-22502315Y35809680D01*
X-22610000Y35760502D01*
X-22610000Y36448187D01*
X-22676059Y36435838D01*
X-22676064Y36435837D01*
X-22874790Y36358851D01*
X-22874799Y36358847D01*
X-23055998Y36246654D01*
X-23056000Y36246652D01*
X-23213500Y36103072D01*
X-23341942Y35932988D01*
X-23344956Y35928119D01*
X-23347212Y35929516D01*
X-23387178Y35886549D01*
X-23454870Y35869239D01*
X-23521174Y35891274D01*
X-23565040Y35945658D01*
X-23574500Y35993162D01*
X-23574500Y37415300D01*
X-23554815Y37482339D01*
X-23502011Y37528094D01*
X-23432853Y37538038D01*
X-23369297Y37509013D01*
X-23338451Y37466234D01*
X-23338104Y37466419D01*
X-23336728Y37463845D01*
X-23335938Y37462749D01*
X-23335235Y37461052D01*
X-23335233Y37461047D01*
X-23335232Y37461046D01*
X-23237685Y37278550D01*
X-23237683Y37278548D01*
X-23106411Y37118590D01*
X-23009791Y37039298D01*
X-22946450Y36987315D01*
X-22763954Y36889768D01*
X-22565934Y36829700D01*
X-22565935Y36829700D01*
X-22547471Y36827882D01*
X-22360000Y36809417D01*
X-22154066Y36829700D01*
X-21969164Y36885790D01*
X-21899301Y36886412D01*
X-21845491Y36854809D01*
X-21417294Y36426612D01*
X-21401170Y36406757D01*
X-21396093Y36398987D01*
X-21370148Y36378794D01*
X-21364396Y36373714D01*
X-21361963Y36371281D01*
X-21344218Y36358612D01*
X-21303782Y36327139D01*
X-21303780Y36327139D01*
X-21297346Y36323657D01*
X-21297312Y36323640D01*
X-21297266Y36323615D01*
X-21290724Y36320417D01*
X-21290723Y36320417D01*
X-21290722Y36320416D01*
X-21276578Y36316205D01*
X-21241611Y36305794D01*
X-21193147Y36289157D01*
X-21193144Y36289156D01*
X-21193141Y36289156D01*
X-21186031Y36287969D01*
X-21185925Y36287956D01*
X-21185801Y36287936D01*
X-21178610Y36287039D01*
X-21127425Y36289156D01*
X-20782000Y36289156D01*
X-20714961Y36269471D01*
X-20669206Y36216667D01*
X-20659262Y36147509D01*
X-20683046Y36090429D01*
X-20801939Y35932992D01*
X-20896933Y35742219D01*
X-20896938Y35742206D01*
X-20944513Y35575001D01*
X-20944512Y35575000D01*
X-20253686Y35575000D01*
X-20279493Y35534844D01*
X-20320000Y35396889D01*
X-20320000Y35253111D01*
X-20279493Y35115156D01*
X-20253686Y35075000D01*
X-20944512Y35075000D01*
X-20896938Y34907795D01*
X-20896933Y34907782D01*
X-20801939Y34717009D01*
X-20673500Y34546929D01*
X-20516000Y34403349D01*
X-20515998Y34403347D01*
X-20334799Y34291154D01*
X-20334793Y34291151D01*
X-20136059Y34214162D01*
X-20070000Y34201814D01*
X-20070000Y34889499D01*
X-19962315Y34840320D01*
X-19855763Y34825000D01*
X-19784237Y34825000D01*
X-19677685Y34840320D01*
X-19570000Y34889499D01*
X-19570000Y34201815D01*
X-19503942Y34214162D01*
X-19305208Y34291151D01*
X-19305202Y34291154D01*
X-19124003Y34403347D01*
X-19124001Y34403349D01*
X-18966501Y34546929D01*
X-18838062Y34717009D01*
X-18743068Y34907782D01*
X-18743063Y34907795D01*
X-18695488Y35075000D01*
X-19386314Y35075000D01*
X-19360507Y35115156D01*
X-19320000Y35253111D01*
X-19320000Y35396889D01*
X-19360507Y35534844D01*
X-19386314Y35575000D01*
X-18695488Y35575000D01*
X-18695488Y35575001D01*
X-18743063Y35742206D01*
X-18743068Y35742219D01*
X-18838062Y35932992D01*
X-18956954Y36090429D01*
X-18981646Y36155790D01*
X-18967081Y36224125D01*
X-18917884Y36273737D01*
X-18858000Y36289156D01*
X-18248555Y36289156D01*
X-18223110Y36286518D01*
X-18214029Y36284613D01*
X-18198339Y36286569D01*
X-18181405Y36288679D01*
X-18173729Y36289156D01*
X-18170309Y36289156D01*
X-18170304Y36289156D01*
X-18166736Y36289752D01*
X-18148805Y36292743D01*
X-18121386Y36296162D01*
X-18097951Y36299083D01*
X-18097942Y36299088D01*
X-18090893Y36301186D01*
X-18083967Y36303564D01*
X-18083963Y36303564D01*
X-18038900Y36327952D01*
X-17992860Y36350458D01*
X-17992857Y36350462D01*
X-17986891Y36354721D01*
X-17981090Y36359237D01*
X-17981086Y36359238D01*
X-17946387Y36396932D01*
X-16095137Y38248181D01*
X-16033814Y38281666D01*
X-16007456Y38284500D01*
X-13165917Y38284500D01*
X-13098878Y38264815D01*
X-13053123Y38212011D01*
X-13048875Y38201454D01*
X-13025790Y38135479D01*
X-12985233Y38070934D01*
X-12929816Y37982738D01*
X-12802262Y37855184D01*
X-12649522Y37759211D01*
X-12479255Y37699632D01*
X-12479250Y37699631D01*
X-12300004Y37679435D01*
X-12300000Y37679435D01*
X-12299996Y37679435D01*
X-12120751Y37699631D01*
X-12120748Y37699632D01*
X-12120745Y37699632D01*
X-11950478Y37759211D01*
X-11797738Y37855184D01*
X-11670184Y37982738D01*
X-11574211Y38135478D01*
X-11514632Y38305745D01*
X-11513623Y38314701D01*
X-11494435Y38484997D01*
X-11494435Y38485004D01*
X-11514631Y38664250D01*
X-11514632Y38664255D01*
X-11574212Y38834524D01*
X-11624646Y38914789D01*
X-11643646Y38982026D01*
X-11623278Y39048861D01*
X-11570010Y39094075D01*
X-11519652Y39104761D01*
X-11330805Y39104761D01*
X-11263766Y39085076D01*
X-11243124Y39068442D01*
X-11076585Y38901903D01*
X-11043100Y38840580D01*
X-11047224Y38773268D01*
X-11085368Y38664258D01*
X-11085370Y38664250D01*
X-11105565Y38485004D01*
X-11105565Y38484997D01*
X-11085370Y38305751D01*
X-11085369Y38305746D01*
X-11025789Y38135477D01*
X-10985233Y38070933D01*
X-10929816Y37982738D01*
X-10802262Y37855184D01*
X-10649522Y37759211D01*
X-10479255Y37699632D01*
X-10479250Y37699631D01*
X-10300004Y37679435D01*
X-10300000Y37679435D01*
X-10299996Y37679435D01*
X-10120751Y37699631D01*
X-10120748Y37699632D01*
X-10120745Y37699632D01*
X-9950478Y37759211D01*
X-9797738Y37855184D01*
X-9670184Y37982738D01*
X-9574211Y38135478D01*
X-9514632Y38305745D01*
X-9513623Y38314701D01*
X-9494435Y38484997D01*
X-9105565Y38484997D01*
X-9085370Y38305751D01*
X-9085369Y38305746D01*
X-9025789Y38135477D01*
X-8985233Y38070933D01*
X-8929816Y37982738D01*
X-8802262Y37855184D01*
X-8649522Y37759211D01*
X-8479255Y37699632D01*
X-8479250Y37699631D01*
X-8300004Y37679435D01*
X-8300000Y37679435D01*
X-8299996Y37679435D01*
X-8120751Y37699631D01*
X-8120748Y37699632D01*
X-8120745Y37699632D01*
X-7950478Y37759211D01*
X-7797738Y37855184D01*
X-7670184Y37982738D01*
X-7574211Y38135478D01*
X-7514632Y38305745D01*
X-7513623Y38314701D01*
X-7494435Y38484997D01*
X-7105565Y38484997D01*
X-7085370Y38305751D01*
X-7085369Y38305746D01*
X-7025789Y38135477D01*
X-6985233Y38070933D01*
X-6929816Y37982738D01*
X-6802262Y37855184D01*
X-6649522Y37759211D01*
X-6479255Y37699632D01*
X-6479250Y37699631D01*
X-6300004Y37679435D01*
X-6300000Y37679435D01*
X-6299996Y37679435D01*
X-6120751Y37699631D01*
X-6120748Y37699632D01*
X-6120745Y37699632D01*
X-5950478Y37759211D01*
X-5797738Y37855184D01*
X-5670184Y37982738D01*
X-5574211Y38135478D01*
X-5514632Y38305745D01*
X-5513623Y38314701D01*
X-5494435Y38484997D01*
X-5105565Y38484997D01*
X-5085370Y38305751D01*
X-5085369Y38305746D01*
X-5025789Y38135477D01*
X-4985233Y38070933D01*
X-4929816Y37982738D01*
X-4802262Y37855184D01*
X-4649522Y37759211D01*
X-4479255Y37699632D01*
X-4479250Y37699631D01*
X-4300004Y37679435D01*
X-4300000Y37679435D01*
X-4299996Y37679435D01*
X-4120751Y37699631D01*
X-4120748Y37699632D01*
X-4120745Y37699632D01*
X-3950478Y37759211D01*
X-3797738Y37855184D01*
X-3670184Y37982738D01*
X-3574211Y38135478D01*
X-3514632Y38305745D01*
X-3513623Y38314701D01*
X-3494435Y38484997D01*
X-3494435Y38485004D01*
X-3514631Y38664250D01*
X-3514632Y38664255D01*
X-3574212Y38834524D01*
X-3630559Y38924199D01*
X-3670184Y38987262D01*
X-3797738Y39114816D01*
X-3950477Y39210789D01*
X-4120746Y39270369D01*
X-4120751Y39270370D01*
X-4268673Y39287036D01*
X-4299509Y39299993D01*
X-4322106Y39288428D01*
X-4331327Y39287036D01*
X-4479251Y39270370D01*
X-4479255Y39270369D01*
X-4649524Y39210789D01*
X-4802263Y39114816D01*
X-4929816Y38987263D01*
X-5025789Y38834524D01*
X-5085369Y38664255D01*
X-5085370Y38664250D01*
X-5105565Y38485004D01*
X-5105565Y38484997D01*
X-5494435Y38484997D01*
X-5494435Y38485004D01*
X-5514631Y38664250D01*
X-5514632Y38664255D01*
X-5574212Y38834524D01*
X-5630559Y38924199D01*
X-5670184Y38987262D01*
X-5797738Y39114816D01*
X-5950477Y39210789D01*
X-6120746Y39270369D01*
X-6120751Y39270370D01*
X-6268673Y39287036D01*
X-6299509Y39299993D01*
X-6322106Y39288428D01*
X-6331327Y39287036D01*
X-6479251Y39270370D01*
X-6479255Y39270369D01*
X-6649524Y39210789D01*
X-6802263Y39114816D01*
X-6929816Y38987263D01*
X-7025789Y38834524D01*
X-7085369Y38664255D01*
X-7085370Y38664250D01*
X-7105565Y38485004D01*
X-7105565Y38484997D01*
X-7494435Y38484997D01*
X-7494435Y38485004D01*
X-7514631Y38664250D01*
X-7514632Y38664255D01*
X-7574212Y38834524D01*
X-7630559Y38924199D01*
X-7670184Y38987262D01*
X-7797738Y39114816D01*
X-7950477Y39210789D01*
X-8120746Y39270369D01*
X-8120751Y39270370D01*
X-8299996Y39290565D01*
X-8300004Y39290565D01*
X-8479250Y39270370D01*
X-8479255Y39270369D01*
X-8649524Y39210789D01*
X-8802263Y39114816D01*
X-8929816Y38987263D01*
X-9025789Y38834524D01*
X-9085369Y38664255D01*
X-9085370Y38664250D01*
X-9105565Y38485004D01*
X-9105565Y38484997D01*
X-9494435Y38484997D01*
X-9494435Y38485004D01*
X-9514631Y38664250D01*
X-9514632Y38664255D01*
X-9574212Y38834524D01*
X-9630559Y38924199D01*
X-9670184Y38987262D01*
X-9797738Y39114816D01*
X-9950477Y39210789D01*
X-10120746Y39270369D01*
X-10120751Y39270370D01*
X-10299996Y39290565D01*
X-10300003Y39290565D01*
X-10396937Y39279644D01*
X-10465759Y39291699D01*
X-10498501Y39315183D01*
X-10716087Y39532769D01*
X-10749572Y39594092D01*
X-10744588Y39663784D01*
X-10702716Y39719717D01*
X-10637252Y39744134D01*
X-10587451Y39737491D01*
X-10479263Y39699634D01*
X-10479257Y39699633D01*
X-10479255Y39699632D01*
X-10479254Y39699632D01*
X-10479250Y39699631D01*
X-10300004Y39679435D01*
X-10300000Y39679435D01*
X-10299996Y39679435D01*
X-10120751Y39699631D01*
X-10120748Y39699632D01*
X-10120745Y39699632D01*
X-9950478Y39759211D01*
X-9797738Y39855184D01*
X-9670184Y39982738D01*
X-9574211Y40135478D01*
X-9514632Y40305745D01*
X-9511642Y40332281D01*
X-9494435Y40484997D01*
X-9105565Y40484997D01*
X-9085370Y40305751D01*
X-9085369Y40305746D01*
X-9025789Y40135477D01*
X-8937981Y39995733D01*
X-8929816Y39982738D01*
X-8802262Y39855184D01*
X-8740463Y39816353D01*
X-8651859Y39760679D01*
X-8649522Y39759211D01*
X-8479261Y39699634D01*
X-8479255Y39699632D01*
X-8479250Y39699631D01*
X-8300004Y39679435D01*
X-8300000Y39679435D01*
X-8299996Y39679435D01*
X-8120751Y39699631D01*
X-8120748Y39699632D01*
X-8120745Y39699632D01*
X-7950478Y39759211D01*
X-7797738Y39855184D01*
X-7670184Y39982738D01*
X-7574211Y40135478D01*
X-7514632Y40305745D01*
X-7497965Y40453675D01*
X-7485009Y40484510D01*
X-7485440Y40485352D01*
X-7264549Y40485352D01*
X-7252605Y40461185D01*
X-7251342Y40451944D01*
X-7236256Y40298770D01*
X-7181932Y40119689D01*
X-7125131Y40013424D01*
X-6678339Y40460215D01*
X-6678886Y40453605D01*
X-6648163Y40332281D01*
X-6579711Y40227508D01*
X-6480948Y40150637D01*
X-6362576Y40110000D01*
X-6321447Y40110000D01*
X-6771578Y39659870D01*
X-6665312Y39603069D01*
X-6486231Y39548745D01*
X-6333057Y39533659D01*
X-6300352Y39520453D01*
X-6276184Y39532396D01*
X-6266944Y39533659D01*
X-6113770Y39548745D01*
X-5934689Y39603069D01*
X-5828423Y39659870D01*
X-5828423Y39659871D01*
X-6278552Y40110000D01*
X-6268927Y40110000D01*
X-6176554Y40125414D01*
X-6066486Y40184981D01*
X-5981722Y40277059D01*
X-5931449Y40391670D01*
X-5925455Y40464008D01*
X-5474871Y40013423D01*
X-5474870Y40013423D01*
X-5418065Y40119698D01*
X-5415737Y40125316D01*
X-5414129Y40124650D01*
X-5380367Y40176172D01*
X-5316556Y40204631D01*
X-5247488Y40194073D01*
X-5195093Y40147851D01*
X-5184716Y40125129D01*
X-5184263Y40125316D01*
X-5181936Y40119698D01*
X-5125131Y40013424D01*
X-4678339Y40460215D01*
X-4678886Y40453605D01*
X-4648163Y40332281D01*
X-4579711Y40227508D01*
X-4480948Y40150637D01*
X-4362576Y40110000D01*
X-4321447Y40110000D01*
X-4771578Y39659870D01*
X-4665312Y39603069D01*
X-4486231Y39548745D01*
X-4333057Y39533659D01*
X-4300352Y39520453D01*
X-4276184Y39532396D01*
X-4266944Y39533659D01*
X-4113770Y39548745D01*
X-3934689Y39603069D01*
X-3828423Y39659870D01*
X-3828423Y39659871D01*
X-4278552Y40110000D01*
X-4268927Y40110000D01*
X-4176554Y40125414D01*
X-4066486Y40184981D01*
X-3981722Y40277059D01*
X-3931449Y40391670D01*
X-3925455Y40464008D01*
X-3474871Y40013423D01*
X-3474870Y40013423D01*
X-3418069Y40119689D01*
X-3363745Y40298770D01*
X-3345404Y40485000D01*
X-3363745Y40671231D01*
X-3418069Y40850312D01*
X-3474870Y40956578D01*
X-3921662Y40509787D01*
X-3921114Y40516395D01*
X-3951837Y40637719D01*
X-4020289Y40742492D01*
X-4119052Y40819363D01*
X-4237424Y40860000D01*
X-4278552Y40860000D01*
X-3828424Y41310131D01*
X-3934689Y41366932D01*
X-4113770Y41421256D01*
X-4266944Y41436342D01*
X-4299650Y41449549D01*
X-4323816Y41437605D01*
X-4333057Y41436342D01*
X-4486231Y41421256D01*
X-4665308Y41366933D01*
X-4771578Y41310131D01*
X-4321447Y40860000D01*
X-4331073Y40860000D01*
X-4423446Y40844586D01*
X-4533514Y40785019D01*
X-4618278Y40692941D01*
X-4668551Y40578330D01*
X-4674546Y40505993D01*
X-5125131Y40956578D01*
X-5181936Y40850303D01*
X-5184264Y40844680D01*
X-5185873Y40845347D01*
X-5219640Y40793823D01*
X-5283453Y40765369D01*
X-5352520Y40775932D01*
X-5404912Y40822158D01*
X-5415285Y40844872D01*
X-5415737Y40844684D01*
X-5418065Y40850303D01*
X-5474870Y40956578D01*
X-5921662Y40509787D01*
X-5921114Y40516395D01*
X-5951837Y40637719D01*
X-6020289Y40742492D01*
X-6119052Y40819363D01*
X-6237424Y40860000D01*
X-6278552Y40860000D01*
X-5828424Y41310131D01*
X-5934689Y41366932D01*
X-6113770Y41421256D01*
X-6266944Y41436342D01*
X-6299650Y41449549D01*
X-6323816Y41437605D01*
X-6333057Y41436342D01*
X-6486231Y41421256D01*
X-6665308Y41366933D01*
X-6771578Y41310131D01*
X-6321447Y40860000D01*
X-6331073Y40860000D01*
X-6423446Y40844586D01*
X-6533514Y40785019D01*
X-6618278Y40692941D01*
X-6668551Y40578330D01*
X-6674546Y40505993D01*
X-7125131Y40956578D01*
X-7181933Y40850308D01*
X-7236256Y40671231D01*
X-7251342Y40518057D01*
X-7264549Y40485352D01*
X-7485440Y40485352D01*
X-7496573Y40507107D01*
X-7497965Y40516328D01*
X-7497973Y40516395D01*
X-7511642Y40637719D01*
X-7514631Y40664250D01*
X-7514632Y40664255D01*
X-7542008Y40742492D01*
X-7574211Y40834522D01*
X-7580535Y40844586D01*
X-7670185Y40987263D01*
X-7797738Y41114816D01*
X-7950477Y41210789D01*
X-8120746Y41270369D01*
X-8120751Y41270370D01*
X-8299996Y41290565D01*
X-8300004Y41290565D01*
X-8479250Y41270370D01*
X-8479255Y41270369D01*
X-8649524Y41210789D01*
X-8802263Y41114816D01*
X-8929816Y40987263D01*
X-9025789Y40834524D01*
X-9085369Y40664255D01*
X-9085370Y40664250D01*
X-9105565Y40485004D01*
X-9105565Y40484997D01*
X-9494435Y40484997D01*
X-9494435Y40485004D01*
X-9514631Y40664250D01*
X-9514632Y40664255D01*
X-9542008Y40742492D01*
X-9574211Y40834522D01*
X-9580535Y40844586D01*
X-9670185Y40987263D01*
X-9797738Y41114816D01*
X-9950477Y41210789D01*
X-10120746Y41270369D01*
X-10120751Y41270370D01*
X-10299996Y41290565D01*
X-10300003Y41290565D01*
X-10396937Y41279644D01*
X-10465759Y41291699D01*
X-10498501Y41315183D01*
X-10716087Y41532769D01*
X-10749572Y41594092D01*
X-10744588Y41663784D01*
X-10702716Y41719717D01*
X-10637252Y41744134D01*
X-10587451Y41737491D01*
X-10479263Y41699634D01*
X-10479257Y41699633D01*
X-10479255Y41699632D01*
X-10479254Y41699632D01*
X-10479250Y41699631D01*
X-10300004Y41679435D01*
X-10300000Y41679435D01*
X-10299996Y41679435D01*
X-10120751Y41699631D01*
X-10120748Y41699632D01*
X-10120745Y41699632D01*
X-9950478Y41759211D01*
X-9797738Y41855184D01*
X-9670184Y41982738D01*
X-9574211Y42135478D01*
X-9514632Y42305745D01*
X-9511844Y42330489D01*
X-9494435Y42484997D01*
X-9105565Y42484997D01*
X-9085370Y42305751D01*
X-9085369Y42305746D01*
X-9025789Y42135477D01*
X-8958227Y42027954D01*
X-8929816Y41982738D01*
X-8802262Y41855184D01*
X-8735889Y41813479D01*
X-8650702Y41759952D01*
X-8649522Y41759211D01*
X-8530962Y41717725D01*
X-8479255Y41699632D01*
X-8479250Y41699631D01*
X-8300004Y41679435D01*
X-8300000Y41679435D01*
X-8299996Y41679435D01*
X-8120751Y41699631D01*
X-8120748Y41699632D01*
X-8120745Y41699632D01*
X-7950478Y41759211D01*
X-7797738Y41855184D01*
X-7670184Y41982738D01*
X-7574211Y42135478D01*
X-7514632Y42305745D01*
X-7511844Y42330489D01*
X-7494435Y42484997D01*
X-7494435Y42485004D01*
X-7514631Y42664250D01*
X-7514632Y42664255D01*
X-7574212Y42834524D01*
X-7670185Y42987263D01*
X-7797738Y43114816D01*
X-7950477Y43210789D01*
X-8120746Y43270369D01*
X-8120751Y43270370D01*
X-8299996Y43290565D01*
X-8300004Y43290565D01*
X-8479250Y43270370D01*
X-8479255Y43270369D01*
X-8649524Y43210789D01*
X-8802263Y43114816D01*
X-8929816Y42987263D01*
X-9025789Y42834524D01*
X-9085369Y42664255D01*
X-9085370Y42664250D01*
X-9105565Y42485004D01*
X-9105565Y42484997D01*
X-9494435Y42484997D01*
X-9494435Y42485004D01*
X-9514631Y42664250D01*
X-9514632Y42664255D01*
X-9574212Y42834524D01*
X-9670185Y42987263D01*
X-9797738Y43114816D01*
X-9950477Y43210789D01*
X-10120746Y43270369D01*
X-10120751Y43270370D01*
X-10299996Y43290565D01*
X-10300003Y43290565D01*
X-10396937Y43279644D01*
X-10465759Y43291699D01*
X-10498501Y43315183D01*
X-10716087Y43532769D01*
X-10749572Y43594092D01*
X-10744588Y43663784D01*
X-10702716Y43719717D01*
X-10637252Y43744134D01*
X-10587451Y43737491D01*
X-10479263Y43699634D01*
X-10479257Y43699633D01*
X-10479255Y43699632D01*
X-10479254Y43699632D01*
X-10479250Y43699631D01*
X-10300004Y43679435D01*
X-10300000Y43679435D01*
X-10299996Y43679435D01*
X-10120751Y43699631D01*
X-10120748Y43699632D01*
X-10120745Y43699632D01*
X-9950478Y43759211D01*
X-9797738Y43855184D01*
X-9670184Y43982738D01*
X-9574211Y44135478D01*
X-9514632Y44305745D01*
X-9514631Y44305751D01*
X-9494435Y44484997D01*
X-9105565Y44484997D01*
X-9085370Y44305751D01*
X-9085369Y44305746D01*
X-9025789Y44135477D01*
X-8941029Y44000583D01*
X-8929816Y43982738D01*
X-8802262Y43855184D01*
X-8750793Y43822844D01*
X-8652857Y43761306D01*
X-8649522Y43759211D01*
X-8487165Y43702400D01*
X-8479255Y43699632D01*
X-8479250Y43699631D01*
X-8300004Y43679435D01*
X-8300000Y43679435D01*
X-8299996Y43679435D01*
X-8120751Y43699631D01*
X-8120748Y43699632D01*
X-8120745Y43699632D01*
X-7950478Y43759211D01*
X-7797738Y43855184D01*
X-7670184Y43982738D01*
X-7574211Y44135478D01*
X-7514632Y44305745D01*
X-7514631Y44305751D01*
X-7494435Y44484997D01*
X-7105565Y44484997D01*
X-7085370Y44305751D01*
X-7085369Y44305746D01*
X-7025789Y44135477D01*
X-6941029Y44000583D01*
X-6929816Y43982738D01*
X-6802262Y43855184D01*
X-6750793Y43822844D01*
X-6652857Y43761306D01*
X-6649522Y43759211D01*
X-6487165Y43702400D01*
X-6479255Y43699632D01*
X-6479250Y43699631D01*
X-6300004Y43679435D01*
X-6300000Y43679435D01*
X-6299996Y43679435D01*
X-6120751Y43699631D01*
X-6120748Y43699632D01*
X-6120745Y43699632D01*
X-5950478Y43759211D01*
X-5797738Y43855184D01*
X-5670184Y43982738D01*
X-5579870Y44126473D01*
X-5527535Y44172763D01*
X-5474876Y44184500D01*
X-5125124Y44184500D01*
X-5058085Y44164815D01*
X-5020131Y44126473D01*
X-4929816Y43982738D01*
X-4802262Y43855184D01*
X-4750793Y43822844D01*
X-4652857Y43761306D01*
X-4649522Y43759211D01*
X-4487165Y43702400D01*
X-4479255Y43699632D01*
X-4479250Y43699631D01*
X-4300004Y43679435D01*
X-4300000Y43679435D01*
X-4299996Y43679435D01*
X-4120751Y43699631D01*
X-4120748Y43699632D01*
X-4120745Y43699632D01*
X-3950478Y43759211D01*
X-3797738Y43855184D01*
X-3670184Y43982738D01*
X-3574211Y44135478D01*
X-3514632Y44305745D01*
X-3514631Y44305751D01*
X-3494435Y44484997D01*
X-3494435Y44485004D01*
X-3514631Y44664250D01*
X-3514632Y44664255D01*
X-3527541Y44701147D01*
X-3574211Y44834522D01*
X-3591416Y44861903D01*
X-3614441Y44898548D01*
X-3670184Y44987262D01*
X-3797738Y45114816D01*
X-3820332Y45129013D01*
X-3950477Y45210789D01*
X-4120746Y45270369D01*
X-4120751Y45270370D01*
X-4268673Y45287036D01*
X-4299509Y45299993D01*
X-4322106Y45288428D01*
X-4331327Y45287036D01*
X-4479251Y45270370D01*
X-4479255Y45270369D01*
X-4649524Y45210789D01*
X-4802264Y45114815D01*
X-4805097Y45112555D01*
X-4807276Y45111666D01*
X-4808158Y45111111D01*
X-4808256Y45111266D01*
X-4869783Y45086145D01*
X-4882412Y45085500D01*
X-5717588Y45085500D01*
X-5784627Y45105185D01*
X-5794903Y45112555D01*
X-5797737Y45114815D01*
X-5797738Y45114816D01*
X-5866525Y45158038D01*
X-5950477Y45210789D01*
X-6120746Y45270369D01*
X-6120751Y45270370D01*
X-6268673Y45287036D01*
X-6299509Y45299993D01*
X-6322106Y45288428D01*
X-6331327Y45287036D01*
X-6479251Y45270370D01*
X-6479255Y45270369D01*
X-6649524Y45210789D01*
X-6802263Y45114816D01*
X-6929816Y44987263D01*
X-7025789Y44834524D01*
X-7085369Y44664255D01*
X-7085370Y44664250D01*
X-7105565Y44485004D01*
X-7105565Y44484997D01*
X-7494435Y44484997D01*
X-7494435Y44485004D01*
X-7514631Y44664250D01*
X-7514632Y44664255D01*
X-7527541Y44701147D01*
X-7574211Y44834522D01*
X-7591416Y44861903D01*
X-7614441Y44898548D01*
X-7670184Y44987262D01*
X-7797738Y45114816D01*
X-7820332Y45129013D01*
X-7950477Y45210789D01*
X-8120746Y45270369D01*
X-8120751Y45270370D01*
X-8299996Y45290565D01*
X-8300004Y45290565D01*
X-8479250Y45270370D01*
X-8479255Y45270369D01*
X-8649524Y45210789D01*
X-8802263Y45114816D01*
X-8929816Y44987263D01*
X-9025789Y44834524D01*
X-9085369Y44664255D01*
X-9085370Y44664250D01*
X-9105565Y44485004D01*
X-9105565Y44484997D01*
X-9494435Y44484997D01*
X-9494435Y44485004D01*
X-9514631Y44664250D01*
X-9514634Y44664263D01*
X-9560035Y44794009D01*
X-9563598Y44863787D01*
X-9530677Y44922643D01*
X-9100954Y45352366D01*
X-9081098Y45368489D01*
X-9073331Y45373563D01*
X-9053127Y45399523D01*
X-9048059Y45405261D01*
X-9045624Y45407694D01*
X-9041838Y45412998D01*
X-9032952Y45425442D01*
X-9001487Y45465869D01*
X-9001488Y45465869D01*
X-9001483Y45465874D01*
X-9001481Y45465881D01*
X-8998018Y45472282D01*
X-8997979Y45472360D01*
X-8997942Y45472430D01*
X-8994767Y45478926D01*
X-8994760Y45478934D01*
X-8980140Y45528044D01*
X-8963500Y45576512D01*
X-8963500Y45576516D01*
X-8962308Y45583659D01*
X-8962299Y45583729D01*
X-8962286Y45583807D01*
X-8961383Y45591050D01*
X-8963500Y45642243D01*
X-8963500Y45732136D01*
X-8943815Y45799175D01*
X-8891011Y45844930D01*
X-8821853Y45854874D01*
X-8773529Y45837130D01*
X-8766708Y45832844D01*
X-8649525Y45759212D01*
X-8479255Y45699632D01*
X-8479250Y45699631D01*
X-8300004Y45679435D01*
X-8300000Y45679435D01*
X-8299996Y45679435D01*
X-8120751Y45699631D01*
X-8120748Y45699632D01*
X-8120745Y45699632D01*
X-7950478Y45759211D01*
X-7797738Y45855184D01*
X-7670184Y45982738D01*
X-7574211Y46135478D01*
X-7514632Y46305745D01*
X-7497965Y46453675D01*
X-7485009Y46484510D01*
X-7485440Y46485352D01*
X-7264549Y46485352D01*
X-7252605Y46461185D01*
X-7251342Y46451944D01*
X-7236256Y46298770D01*
X-7181932Y46119689D01*
X-7125131Y46013424D01*
X-6678339Y46460215D01*
X-6678886Y46453605D01*
X-6648163Y46332281D01*
X-6579711Y46227508D01*
X-6480948Y46150637D01*
X-6362576Y46110000D01*
X-6321447Y46110000D01*
X-6771578Y45659870D01*
X-6665312Y45603069D01*
X-6486231Y45548745D01*
X-6333057Y45533659D01*
X-6300352Y45520453D01*
X-6276184Y45532396D01*
X-6266944Y45533659D01*
X-6113770Y45548745D01*
X-5934689Y45603069D01*
X-5828423Y45659870D01*
X-5828423Y45659871D01*
X-6278552Y46110000D01*
X-6268927Y46110000D01*
X-6176554Y46125414D01*
X-6066486Y46184981D01*
X-5981722Y46277059D01*
X-5931449Y46391670D01*
X-5925455Y46464008D01*
X-5474871Y46013423D01*
X-5474870Y46013423D01*
X-5418065Y46119698D01*
X-5415737Y46125316D01*
X-5414129Y46124650D01*
X-5380367Y46176172D01*
X-5316556Y46204631D01*
X-5247488Y46194073D01*
X-5195093Y46147851D01*
X-5184716Y46125129D01*
X-5184263Y46125316D01*
X-5181936Y46119698D01*
X-5125131Y46013424D01*
X-4678339Y46460215D01*
X-4678886Y46453605D01*
X-4648163Y46332281D01*
X-4579711Y46227508D01*
X-4480948Y46150637D01*
X-4362576Y46110000D01*
X-4321447Y46110000D01*
X-4771578Y45659870D01*
X-4665312Y45603069D01*
X-4486231Y45548745D01*
X-4333057Y45533659D01*
X-4300352Y45520453D01*
X-4276184Y45532396D01*
X-4266944Y45533659D01*
X-4113770Y45548745D01*
X-3934689Y45603069D01*
X-3828423Y45659870D01*
X-3828423Y45659871D01*
X-4278552Y46110000D01*
X-4268927Y46110000D01*
X-4176554Y46125414D01*
X-4066486Y46184981D01*
X-3981722Y46277059D01*
X-3931449Y46391670D01*
X-3925455Y46464008D01*
X-3474871Y46013423D01*
X-3474870Y46013423D01*
X-3418069Y46119689D01*
X-3363745Y46298770D01*
X-3345404Y46485000D01*
X-3363745Y46671231D01*
X-3418069Y46850312D01*
X-3474870Y46956578D01*
X-3921662Y46509787D01*
X-3921114Y46516395D01*
X-3951837Y46637719D01*
X-4020289Y46742492D01*
X-4119052Y46819363D01*
X-4237424Y46860000D01*
X-4278552Y46860000D01*
X-3828424Y47310131D01*
X-3934689Y47366932D01*
X-4113770Y47421256D01*
X-4266944Y47436342D01*
X-4299650Y47449549D01*
X-4323816Y47437605D01*
X-4333057Y47436342D01*
X-4486231Y47421256D01*
X-4665308Y47366933D01*
X-4771578Y47310131D01*
X-4321447Y46860000D01*
X-4331073Y46860000D01*
X-4423446Y46844586D01*
X-4533514Y46785019D01*
X-4618278Y46692941D01*
X-4668551Y46578330D01*
X-4674546Y46505993D01*
X-5125131Y46956578D01*
X-5181936Y46850303D01*
X-5184264Y46844680D01*
X-5185873Y46845347D01*
X-5219640Y46793823D01*
X-5283453Y46765369D01*
X-5352520Y46775932D01*
X-5404912Y46822158D01*
X-5415285Y46844872D01*
X-5415737Y46844684D01*
X-5418065Y46850303D01*
X-5474870Y46956578D01*
X-5921662Y46509787D01*
X-5921114Y46516395D01*
X-5951837Y46637719D01*
X-6020289Y46742492D01*
X-6119052Y46819363D01*
X-6237424Y46860000D01*
X-6278552Y46860000D01*
X-5828424Y47310131D01*
X-5934689Y47366932D01*
X-6113770Y47421256D01*
X-6266944Y47436342D01*
X-6299650Y47449549D01*
X-6323816Y47437605D01*
X-6333057Y47436342D01*
X-6486231Y47421256D01*
X-6665308Y47366933D01*
X-6771578Y47310131D01*
X-6321447Y46860000D01*
X-6331073Y46860000D01*
X-6423446Y46844586D01*
X-6533514Y46785019D01*
X-6618278Y46692941D01*
X-6668551Y46578330D01*
X-6674546Y46505993D01*
X-7125131Y46956578D01*
X-7181933Y46850308D01*
X-7236256Y46671231D01*
X-7251342Y46518057D01*
X-7264549Y46485352D01*
X-7485440Y46485352D01*
X-7496573Y46507107D01*
X-7497965Y46516328D01*
X-7497973Y46516395D01*
X-7514632Y46664255D01*
X-7574211Y46834522D01*
X-7580535Y46844586D01*
X-7650904Y46956578D01*
X-7670184Y46987262D01*
X-7797738Y47114816D01*
X-7814741Y47125500D01*
X-7950477Y47210789D01*
X-8120746Y47270369D01*
X-8120751Y47270370D01*
X-8299996Y47290565D01*
X-8300004Y47290565D01*
X-8479250Y47270370D01*
X-8479255Y47270369D01*
X-8649524Y47210789D01*
X-8759528Y47141668D01*
X-8826765Y47122668D01*
X-8893600Y47143036D01*
X-8938814Y47196304D01*
X-8949500Y47246662D01*
X-8949500Y47723339D01*
X-8929815Y47790378D01*
X-8877011Y47836133D01*
X-8807853Y47846077D01*
X-8759528Y47828333D01*
X-8738645Y47815211D01*
X-8649525Y47759212D01*
X-8479255Y47699632D01*
X-8479250Y47699631D01*
X-8300004Y47679435D01*
X-8300000Y47679435D01*
X-8299996Y47679435D01*
X-8120751Y47699631D01*
X-8120748Y47699632D01*
X-8120745Y47699632D01*
X-7950478Y47759211D01*
X-7797738Y47855184D01*
X-7670184Y47982738D01*
X-7574211Y48135478D01*
X-7514632Y48305745D01*
X-7514631Y48305751D01*
X-7494435Y48484997D01*
X-7105565Y48484997D01*
X-7085370Y48305751D01*
X-7085369Y48305746D01*
X-7025789Y48135477D01*
X-6956371Y48025000D01*
X-6929816Y47982738D01*
X-6802262Y47855184D01*
X-6649522Y47759211D01*
X-6479255Y47699632D01*
X-6479250Y47699631D01*
X-6380128Y47688464D01*
X-6331328Y47682965D01*
X-6300493Y47670009D01*
X-6277895Y47681573D01*
X-6268682Y47682964D01*
X-6205260Y47690110D01*
X-6120750Y47699631D01*
X-6120747Y47699632D01*
X-6120745Y47699632D01*
X-5950478Y47759211D01*
X-5797738Y47855184D01*
X-5670184Y47982738D01*
X-5574211Y48135478D01*
X-5514632Y48305745D01*
X-5514631Y48305751D01*
X-5494435Y48484997D01*
X-5105565Y48484997D01*
X-5085370Y48305751D01*
X-5085369Y48305746D01*
X-5025789Y48135477D01*
X-4956371Y48025000D01*
X-4929816Y47982738D01*
X-4802262Y47855184D01*
X-4649522Y47759211D01*
X-4479255Y47699632D01*
X-4479250Y47699631D01*
X-4380128Y47688464D01*
X-4331328Y47682965D01*
X-4300493Y47670009D01*
X-4277895Y47681573D01*
X-4268682Y47682964D01*
X-4205260Y47690110D01*
X-4120750Y47699631D01*
X-4120747Y47699632D01*
X-4120745Y47699632D01*
X-3950478Y47759211D01*
X-3797738Y47855184D01*
X-3670184Y47982738D01*
X-3574211Y48135478D01*
X-3514632Y48305745D01*
X-3514631Y48305751D01*
X-3494435Y48484997D01*
X-3494435Y48485004D01*
X-3514631Y48664250D01*
X-3514632Y48664255D01*
X-3541283Y48740418D01*
X-3574211Y48834522D01*
X-3670184Y48987262D01*
X-3797738Y49114816D01*
X-3840361Y49141598D01*
X-3950477Y49210789D01*
X-4120746Y49270369D01*
X-4120751Y49270370D01*
X-4299996Y49290565D01*
X-4300004Y49290565D01*
X-4479250Y49270370D01*
X-4479255Y49270369D01*
X-4649524Y49210789D01*
X-4802263Y49114816D01*
X-4929816Y48987263D01*
X-5025789Y48834524D01*
X-5085369Y48664255D01*
X-5085370Y48664250D01*
X-5105565Y48485004D01*
X-5105565Y48484997D01*
X-5494435Y48484997D01*
X-5494435Y48485004D01*
X-5514631Y48664250D01*
X-5514632Y48664255D01*
X-5541283Y48740418D01*
X-5574211Y48834522D01*
X-5670184Y48987262D01*
X-5797738Y49114816D01*
X-5840361Y49141598D01*
X-5950477Y49210789D01*
X-6120746Y49270369D01*
X-6120751Y49270370D01*
X-6299996Y49290565D01*
X-6300004Y49290565D01*
X-6479250Y49270370D01*
X-6479255Y49270369D01*
X-6649524Y49210789D01*
X-6802263Y49114816D01*
X-6929816Y48987263D01*
X-7025789Y48834524D01*
X-7085369Y48664255D01*
X-7085370Y48664250D01*
X-7105565Y48485004D01*
X-7105565Y48484997D01*
X-7494435Y48484997D01*
X-7494435Y48485004D01*
X-7514631Y48664250D01*
X-7514632Y48664255D01*
X-7541283Y48740418D01*
X-7574211Y48834522D01*
X-7670184Y48987262D01*
X-7797738Y49114816D01*
X-7840361Y49141598D01*
X-7950477Y49210789D01*
X-8120746Y49270369D01*
X-8120751Y49270370D01*
X-8299996Y49290565D01*
X-8300004Y49290565D01*
X-8479250Y49270370D01*
X-8479255Y49270369D01*
X-8649524Y49210789D01*
X-8797073Y49118077D01*
X-8864310Y49099077D01*
X-8931145Y49119445D01*
X-8972100Y49164055D01*
X-8988297Y49193984D01*
X-9010801Y49240019D01*
X-9015081Y49246013D01*
X-9019581Y49251794D01*
X-9057276Y49286496D01*
X-9708826Y49938045D01*
X-9724952Y49957902D01*
X-9730026Y49965669D01*
X-9755976Y49985867D01*
X-9761722Y49990941D01*
X-9764156Y49993375D01*
X-9764157Y49993376D01*
X-9764158Y49993377D01*
X-9770615Y49997987D01*
X-9781902Y50006045D01*
X-9822337Y50037517D01*
X-9822341Y50037519D01*
X-9828815Y50041023D01*
X-9835394Y50044240D01*
X-9884509Y50058862D01*
X-9932977Y50075502D01*
X-9940194Y50076706D01*
X-9947510Y50077618D01*
X-9996738Y50075581D01*
X-9998694Y50075500D01*
X-13164794Y50075500D01*
X-13190239Y50078139D01*
X-13199315Y50080042D01*
X-13199318Y50080042D01*
X-13231932Y50075977D01*
X-13239608Y50075500D01*
X-13243040Y50075500D01*
X-13257381Y50073108D01*
X-13264552Y50071911D01*
X-13281379Y50069814D01*
X-13315393Y50065573D01*
X-13315394Y50065573D01*
X-13315399Y50065572D01*
X-13322425Y50063481D01*
X-13329377Y50061094D01*
X-13329381Y50061093D01*
X-13329381Y50061092D01*
X-13360521Y50044240D01*
X-13374445Y50036705D01*
X-13420488Y50014197D01*
X-13426434Y50009952D01*
X-13432258Y50005419D01*
X-13466958Y49967725D01*
X-13772863Y49661819D01*
X-13834186Y49628334D01*
X-13860544Y49625500D01*
X-18969879Y49625500D01*
X-19036918Y49645185D01*
X-19082673Y49697989D01*
X-19092617Y49767147D01*
X-19065732Y49828165D01*
X-19004181Y49903166D01*
X-18942315Y49978550D01*
X-18844768Y50161046D01*
X-18784700Y50359066D01*
X-18764417Y50565000D01*
X-18784700Y50770934D01*
X-18844768Y50968954D01*
X-18942315Y51151450D01*
X-18994298Y51214791D01*
X-19073590Y51311411D01*
X-19233548Y51442683D01*
X-19233547Y51442683D01*
X-19233550Y51442685D01*
X-19416046Y51540232D01*
X-19614066Y51600300D01*
X-19614068Y51600301D01*
X-19614066Y51600301D01*
X-19820000Y51620583D01*
X-20025933Y51600301D01*
X-20223957Y51540231D01*
X-20282439Y51508971D01*
X-20406450Y51442685D01*
X-20406452Y51442684D01*
X-20406453Y51442683D01*
X-20566411Y51311411D01*
X-20697683Y51151453D01*
X-20795231Y50968957D01*
X-20855301Y50770933D01*
X-20875583Y50565000D01*
X-20855301Y50359068D01*
X-20836483Y50297034D01*
X-20795232Y50161046D01*
X-20701591Y49985857D01*
X-20697683Y49978547D01*
X-20574268Y49828165D01*
X-20546955Y49763855D01*
X-20558746Y49694987D01*
X-20605898Y49643427D01*
X-20670121Y49625500D01*
X-20753456Y49625500D01*
X-20820495Y49645185D01*
X-20841137Y49661819D01*
X-21321880Y50142562D01*
X-21355365Y50203885D01*
X-21352859Y50266239D01*
X-21324701Y50359064D01*
X-21324700Y50359066D01*
X-21324700Y50359068D01*
X-21304417Y50565000D01*
X-21324700Y50770934D01*
X-21384768Y50968954D01*
X-21482315Y51151450D01*
X-21534298Y51214791D01*
X-21613590Y51311411D01*
X-21773548Y51442683D01*
X-21773547Y51442683D01*
X-21773550Y51442685D01*
X-21956046Y51540232D01*
X-22154066Y51600300D01*
X-22154068Y51600301D01*
X-22154066Y51600301D01*
X-22360000Y51620583D01*
X-22565933Y51600301D01*
X-22763957Y51540231D01*
X-22822439Y51508971D01*
X-22946450Y51442685D01*
X-22946452Y51442684D01*
X-22946453Y51442683D01*
X-23106411Y51311411D01*
X-23237683Y51151453D01*
X-23335235Y50968951D01*
X-23335940Y50967246D01*
X-23336549Y50966491D01*
X-23338104Y50963581D01*
X-23338656Y50963876D01*
X-23379782Y50912844D01*
X-23446076Y50890780D01*
X-23513775Y50908060D01*
X-23561385Y50959199D01*
X-23574500Y51014701D01*
X-23574500Y52436839D01*
X-23554815Y52503878D01*
X-23502011Y52549633D01*
X-23432853Y52559577D01*
X-23369297Y52530552D01*
X-23346388Y52500995D01*
X-23344956Y52501881D01*
X-23341942Y52497013D01*
X-23213500Y52326929D01*
X-23056000Y52183349D01*
X-23055998Y52183347D01*
X-22874799Y52071154D01*
X-22874793Y52071151D01*
X-22676059Y51994162D01*
X-22610000Y51981814D01*
X-22610000Y52669499D01*
X-22502315Y52620320D01*
X-22395763Y52605000D01*
X-22324237Y52605000D01*
X-22217685Y52620320D01*
X-22110000Y52669499D01*
X-22110000Y51981815D01*
X-22043942Y51994162D01*
X-21845208Y52071151D01*
X-21845202Y52071154D01*
X-21664003Y52183347D01*
X-21664001Y52183349D01*
X-21506501Y52326929D01*
X-21378062Y52497009D01*
X-21283068Y52687782D01*
X-21283063Y52687795D01*
X-21235488Y52855000D01*
X-21926314Y52855000D01*
X-21900507Y52895156D01*
X-21860000Y53033111D01*
X-21860000Y53105000D01*
X-20875583Y53105000D01*
X-20855301Y52899068D01*
X-20837674Y52840960D01*
X-20795232Y52701046D01*
X-20697685Y52518550D01*
X-20697683Y52518548D01*
X-20566411Y52358590D01*
X-20500450Y52304458D01*
X-20406450Y52227315D01*
X-20223954Y52129768D01*
X-20025934Y52069700D01*
X-20025935Y52069700D01*
X-20007471Y52067882D01*
X-19820000Y52049417D01*
X-19614066Y52069700D01*
X-19416046Y52129768D01*
X-19233550Y52227315D01*
X-19073590Y52358590D01*
X-18942315Y52518550D01*
X-18844768Y52701046D01*
X-18784700Y52899066D01*
X-18764417Y53105000D01*
X-18784700Y53310934D01*
X-18844768Y53508954D01*
X-18942315Y53691450D01*
X-19009374Y53773162D01*
X-19073590Y53851411D01*
X-19233548Y53982683D01*
X-19233547Y53982683D01*
X-19233550Y53982685D01*
X-19416046Y54080232D01*
X-19614066Y54140300D01*
X-19614068Y54140301D01*
X-19614066Y54140301D01*
X-19820000Y54160583D01*
X-20025933Y54140301D01*
X-20223957Y54080231D01*
X-20324191Y54026654D01*
X-20406450Y53982685D01*
X-20406452Y53982684D01*
X-20406453Y53982683D01*
X-20566411Y53851411D01*
X-20697683Y53691453D01*
X-20795231Y53508957D01*
X-20855301Y53310933D01*
X-20875583Y53105000D01*
X-21860000Y53105000D01*
X-21860000Y53176889D01*
X-21900507Y53314844D01*
X-21926314Y53355000D01*
X-21235488Y53355000D01*
X-21235488Y53355001D01*
X-21283063Y53522206D01*
X-21283068Y53522219D01*
X-21378062Y53712992D01*
X-21506501Y53883072D01*
X-21664001Y54026652D01*
X-21664003Y54026654D01*
X-21845202Y54138847D01*
X-21845211Y54138851D01*
X-22043937Y54215837D01*
X-22043942Y54215838D01*
X-22110000Y54228187D01*
X-22110000Y53540502D01*
X-22217685Y53589680D01*
X-22324237Y53605000D01*
X-22395763Y53605000D01*
X-22502315Y53589680D01*
X-22610000Y53540502D01*
X-22610000Y54228187D01*
X-22676059Y54215838D01*
X-22676064Y54215837D01*
X-22874790Y54138851D01*
X-22874799Y54138847D01*
X-23055998Y54026654D01*
X-23056000Y54026652D01*
X-23213500Y53883072D01*
X-23341942Y53712988D01*
X-23344956Y53708119D01*
X-23347212Y53709516D01*
X-23387178Y53666549D01*
X-23454870Y53649239D01*
X-23521174Y53671274D01*
X-23565040Y53725658D01*
X-23574500Y53773162D01*
X-23574500Y55195300D01*
X-23554815Y55262339D01*
X-23502011Y55308094D01*
X-23432853Y55318038D01*
X-23369297Y55289013D01*
X-23338451Y55246234D01*
X-23338104Y55246419D01*
X-23336728Y55243845D01*
X-23335938Y55242749D01*
X-23335235Y55241052D01*
X-23335233Y55241047D01*
X-23335232Y55241046D01*
X-23237685Y55058550D01*
X-23226724Y55045194D01*
X-23106411Y54898590D01*
X-23009791Y54819298D01*
X-22946450Y54767315D01*
X-22763954Y54669768D01*
X-22565934Y54609700D01*
X-22565935Y54609700D01*
X-22547471Y54607882D01*
X-22360000Y54589417D01*
X-22154066Y54609700D01*
X-21956046Y54669768D01*
X-21773550Y54767315D01*
X-21613590Y54898590D01*
X-21482315Y55058550D01*
X-21473752Y55074571D01*
X-21444683Y55128953D01*
X-21395721Y55178797D01*
X-21335325Y55194500D01*
X-20844675Y55194500D01*
X-20777636Y55174815D01*
X-20735317Y55128953D01*
X-20697689Y55058556D01*
X-20697685Y55058550D01*
X-20566411Y54898590D01*
X-20469791Y54819298D01*
X-20406450Y54767315D01*
X-20223954Y54669768D01*
X-20025934Y54609700D01*
X-20025935Y54609700D01*
X-20007471Y54607882D01*
X-19820000Y54589417D01*
X-19614066Y54609700D01*
X-19416046Y54669768D01*
X-19233550Y54767315D01*
X-19073590Y54898590D01*
X-18942315Y55058550D01*
X-18933752Y55074571D01*
X-18904683Y55128953D01*
X-18855721Y55178797D01*
X-18795325Y55194500D01*
X-17733057Y55194500D01*
X-17692101Y55187541D01*
X-17648700Y55172354D01*
X-17648698Y55172354D01*
X-17640306Y55170767D01*
X-17631905Y55169500D01*
X-17631902Y55169500D01*
X-17582965Y55169500D01*
X-17515926Y55149815D01*
X-17495284Y55133181D01*
X-16900819Y54538716D01*
X-16867334Y54477393D01*
X-16864500Y54451035D01*
X-16864500Y52603783D01*
X-16864890Y52596845D01*
X-16866276Y52584546D01*
X-16869271Y52557966D01*
X-16858212Y52499521D01*
X-16849348Y52440710D01*
X-16846838Y52432573D01*
X-16844022Y52424525D01*
X-16816223Y52371928D01*
X-16790424Y52318356D01*
X-16785638Y52311335D01*
X-16780569Y52304468D01*
X-16780566Y52304462D01*
X-16780562Y52304458D01*
X-16738505Y52262401D01*
X-16698053Y52218804D01*
X-16690790Y52213012D01*
X-16691311Y52212359D01*
X-16679070Y52202966D01*
X-15352910Y50876807D01*
X-15348274Y50871620D01*
X-15323879Y50841030D01*
X-15323879Y50841029D01*
X-15274729Y50807520D01*
X-15226882Y50772207D01*
X-15219346Y50768224D01*
X-15211681Y50764533D01*
X-15211673Y50764528D01*
X-15154823Y50746993D01*
X-15098703Y50727355D01*
X-15098701Y50727355D01*
X-15098699Y50727354D01*
X-15098698Y50727354D01*
X-15090321Y50725770D01*
X-15081904Y50724501D01*
X-15081902Y50724500D01*
X-15022426Y50724500D01*
X-14962991Y50722276D01*
X-14962991Y50722277D01*
X-14962990Y50722276D01*
X-14962990Y50722277D01*
X-14953756Y50723316D01*
X-14953663Y50722487D01*
X-14938364Y50724500D01*
X-3951966Y50724500D01*
X-3884927Y50704815D01*
X-3864285Y50688181D01*
X-2950819Y49774716D01*
X-2917334Y49713393D01*
X-2914500Y49687035D01*
X-2914500Y43842965D01*
X-2934185Y43775926D01*
X-2950819Y43755284D01*
X-3236799Y43469304D01*
X-3258478Y43452018D01*
X-3261174Y43450324D01*
X-3261175Y43450323D01*
X-3292963Y43413387D01*
X-3296116Y43409988D01*
X-3606832Y43099272D01*
X-3668155Y43065787D01*
X-3737846Y43070771D01*
X-3782194Y43099272D01*
X-3797738Y43114816D01*
X-3950477Y43210789D01*
X-4120746Y43270369D01*
X-4120751Y43270370D01*
X-4299996Y43290565D01*
X-4300004Y43290565D01*
X-4479250Y43270370D01*
X-4479255Y43270369D01*
X-4649524Y43210789D01*
X-4802263Y43114816D01*
X-4929817Y42987262D01*
X-4933865Y42982185D01*
X-4991054Y42942046D01*
X-5030810Y42935500D01*
X-5569190Y42935500D01*
X-5636229Y42955185D01*
X-5666135Y42982185D01*
X-5670184Y42987262D01*
X-5797738Y43114816D01*
X-5950477Y43210789D01*
X-6120746Y43270369D01*
X-6120751Y43270370D01*
X-6299996Y43290565D01*
X-6300004Y43290565D01*
X-6479250Y43270370D01*
X-6479255Y43270369D01*
X-6649524Y43210789D01*
X-6802263Y43114816D01*
X-6929816Y42987263D01*
X-7025789Y42834524D01*
X-7085369Y42664255D01*
X-7085370Y42664250D01*
X-7105565Y42485004D01*
X-7105565Y42484997D01*
X-7085370Y42305751D01*
X-7085369Y42305746D01*
X-7025789Y42135477D01*
X-6958227Y42027954D01*
X-6929816Y41982738D01*
X-6802262Y41855184D01*
X-6735889Y41813479D01*
X-6650702Y41759952D01*
X-6649522Y41759211D01*
X-6530962Y41717725D01*
X-6479255Y41699632D01*
X-6479250Y41699631D01*
X-6380128Y41688464D01*
X-6331328Y41682965D01*
X-6300493Y41670009D01*
X-6277895Y41681573D01*
X-6268682Y41682964D01*
X-6205260Y41690110D01*
X-6120750Y41699631D01*
X-6120747Y41699632D01*
X-6120745Y41699632D01*
X-5950478Y41759211D01*
X-5797738Y41855184D01*
X-5670184Y41982738D01*
X-5670182Y41982743D01*
X-5666135Y41987815D01*
X-5608946Y42027954D01*
X-5569190Y42034500D01*
X-5030810Y42034500D01*
X-4963771Y42014815D01*
X-4933865Y41987815D01*
X-4929817Y41982739D01*
X-4929816Y41982738D01*
X-4802262Y41855184D01*
X-4735889Y41813479D01*
X-4650702Y41759952D01*
X-4649522Y41759211D01*
X-4530962Y41717725D01*
X-4479255Y41699632D01*
X-4479250Y41699631D01*
X-4380128Y41688464D01*
X-4331328Y41682965D01*
X-4300493Y41670009D01*
X-4277895Y41681573D01*
X-4268682Y41682964D01*
X-4205260Y41690110D01*
X-4120750Y41699631D01*
X-4120747Y41699632D01*
X-4120745Y41699632D01*
X-3950478Y41759211D01*
X-3797738Y41855184D01*
X-3670184Y41982738D01*
X-3670177Y41982750D01*
X-3670028Y41982935D01*
X-3669891Y41983032D01*
X-3665260Y41987662D01*
X-3664450Y41986852D01*
X-3612845Y42023082D01*
X-3576163Y42027020D01*
X-3576251Y42029382D01*
X-3566969Y42029730D01*
X-3566968Y42029731D01*
X-3566965Y42029730D01*
X-3508521Y42040789D01*
X-3449713Y42049652D01*
X-3449710Y42049654D01*
X-3441553Y42052170D01*
X-3433531Y42054977D01*
X-3433528Y42054977D01*
X-3380928Y42082778D01*
X-3327358Y42108575D01*
X-3327358Y42108576D01*
X-3327356Y42108576D01*
X-3320305Y42113384D01*
X-3313462Y42118434D01*
X-3271400Y42160497D01*
X-3227806Y42200945D01*
X-3227804Y42200950D01*
X-3222013Y42208210D01*
X-3221357Y42207687D01*
X-3211971Y42219927D01*
X-3051679Y42380219D01*
X-2990358Y42413701D01*
X-2920666Y42408717D01*
X-2876319Y42380216D01*
X-2600819Y42104716D01*
X-2567334Y42043393D01*
X-2564500Y42017035D01*
X-2564500Y33510936D01*
X-3964000Y34775000D01*
X-14514000Y34875000D01*
X-16014000Y33525000D01*
X-15914000Y29975000D01*
X-15464845Y29044606D01*
X-15666710Y29044150D01*
X-15764748Y29034326D01*
X-15764754Y29034325D01*
X-15859462Y29015375D01*
X-15859461Y29015375D01*
X-15911333Y29002104D01*
X-15911338Y29002102D01*
X-16041121Y28940011D01*
X-16041131Y28940005D01*
X-16121913Y28886029D01*
X-16165229Y28853603D01*
X-16165236Y28853596D01*
X-16261375Y28746566D01*
X-16261380Y28746560D01*
X-16305919Y28679901D01*
X-16315356Y28665778D01*
X-16327042Y28646083D01*
X-16342963Y28619250D01*
X-16342964Y28619249D01*
X-16390834Y28483557D01*
X-16390834Y28483556D01*
X-16409788Y28388269D01*
X-16409788Y28388268D01*
X-16417587Y28309076D01*
X-16419322Y28291453D01*
X-16419500Y28289650D01*
X-16419500Y22968620D01*
X-16419473Y22964098D01*
X-16419473Y22964086D01*
X-16408537Y22862485D01*
X-16388431Y22767440D01*
X-16388431Y22767441D01*
X-16374414Y22715177D01*
X-16374413Y22715174D01*
X-16310750Y22586146D01*
X-16310748Y22586144D01*
X-16255802Y22506029D01*
X-16223161Y22463509D01*
X-16222843Y22463096D01*
X-16114647Y22368254D01*
X-16033217Y22315261D01*
X-15986351Y22288217D01*
X-15850096Y22241997D01*
X-15754585Y22224199D01*
X-15754571Y22224198D01*
X-15754566Y22224197D01*
X-15726615Y22221787D01*
X-15655855Y22215682D01*
X-14260937Y22232590D01*
X-4267063Y22232590D01*
X-3121095Y22218700D01*
X-3120946Y22218700D01*
X-3116515Y22218673D01*
X-3116505Y22218674D01*
X-3116501Y22218674D01*
X-3080860Y22222078D01*
X-3014882Y22228377D01*
X-2919594Y22247331D01*
X-2919587Y22247333D01*
X-2919581Y22247334D01*
X-2867173Y22260711D01*
X-2867174Y22260711D01*
X-2867165Y22260713D01*
X-2742014Y22320589D01*
X-2673046Y22331764D01*
X-2608982Y22303878D01*
X-2570165Y22245783D01*
X-2564500Y22208731D01*
X-2564500Y10892965D01*
X-2584185Y10825926D01*
X-2600819Y10805284D01*
X-4164284Y9241819D01*
X-4225607Y9208334D01*
X-4251965Y9205500D01*
X-4686408Y9205500D01*
X-4753447Y9225185D01*
X-4799202Y9277989D01*
X-4803449Y9288544D01*
X-4837614Y9386179D01*
X-4848707Y9417882D01*
X-4929350Y9527150D01*
X-5038618Y9607793D01*
X-5038620Y9607794D01*
X-5166800Y9652647D01*
X-5197230Y9655500D01*
X-5197234Y9655500D01*
X-5830766Y9655500D01*
X-5830770Y9655500D01*
X-5861200Y9652647D01*
X-5861202Y9652647D01*
X-5989381Y9607794D01*
X-5989383Y9607793D01*
X-6098650Y9527150D01*
X-6179293Y9417883D01*
X-6179294Y9417881D01*
X-6224147Y9289702D01*
X-6224147Y9289700D01*
X-6227000Y9259270D01*
X-6227000Y8250731D01*
X-6224147Y8220301D01*
X-6224147Y8220299D01*
X-6179294Y8092120D01*
X-6179293Y8092118D01*
X-6098650Y7982850D01*
X-5989382Y7902207D01*
X-5946655Y7887256D01*
X-5861201Y7857354D01*
X-5830770Y7854500D01*
X-5830766Y7854500D01*
X-5197230Y7854500D01*
X-5166801Y7857354D01*
X-5166799Y7857354D01*
X-5102710Y7879781D01*
X-5038618Y7902207D01*
X-4929350Y7982850D01*
X-4848707Y8092118D01*
X-4817875Y8180231D01*
X-4803449Y8221456D01*
X-4762727Y8278231D01*
X-4697774Y8303978D01*
X-4686408Y8304500D01*
X-4042783Y8304500D01*
X-4035845Y8304111D01*
X-4003950Y8300517D01*
X-3996966Y8299730D01*
X-3996966Y8299731D01*
X-3996965Y8299730D01*
X-3938521Y8310789D01*
X-3879713Y8319652D01*
X-3879710Y8319654D01*
X-3871553Y8322170D01*
X-3863531Y8324977D01*
X-3863528Y8324977D01*
X-3810928Y8352778D01*
X-3757358Y8378575D01*
X-3757358Y8378576D01*
X-3757356Y8378576D01*
X-3750305Y8383384D01*
X-3743462Y8388434D01*
X-3701401Y8430496D01*
X-3657806Y8470945D01*
X-3657804Y8470950D01*
X-3652013Y8478210D01*
X-3651357Y8477687D01*
X-3641968Y8489930D01*
X-1815795Y10316104D01*
X-1810627Y10320723D01*
X-1780030Y10345121D01*
X-1746520Y10394272D01*
X-1711207Y10442118D01*
X-1711206Y10442121D01*
X-1707213Y10449676D01*
X-1703530Y10457324D01*
X-1703530Y10457325D01*
X-1703528Y10457327D01*
X-1685993Y10514178D01*
X-1666354Y10570301D01*
X-1664772Y10578664D01*
X-1663500Y10587101D01*
X-1663500Y10646559D01*
X-1661275Y10706010D01*
X-1662315Y10715242D01*
X-1661487Y10715336D01*
X-1663500Y10730639D01*
X-1663500Y42226219D01*
X-1663111Y42233156D01*
X-1658730Y42272035D01*
X-1669790Y42330489D01*
X-1678652Y42389287D01*
X-1678653Y42389289D01*
X-1678653Y42389291D01*
X-1681169Y42397448D01*
X-1683975Y42405469D01*
X-1688326Y42413701D01*
X-1711778Y42458074D01*
X-1737575Y42511642D01*
X-1737578Y42511645D01*
X-1737578Y42511646D01*
X-1742358Y42518658D01*
X-1747433Y42525535D01*
X-1747434Y42525537D01*
X-1789484Y42567587D01*
X-1829945Y42611194D01*
X-1837208Y42616986D01*
X-1836688Y42617639D01*
X-1848933Y42627036D01*
X-2239216Y43017319D01*
X-2272701Y43078642D01*
X-2267717Y43148334D01*
X-2239217Y43192681D01*
X-2221109Y43210789D01*
X-2165791Y43266108D01*
X-2160622Y43270727D01*
X-2130030Y43295121D01*
X-2096520Y43344272D01*
X-2061207Y43392118D01*
X-2061206Y43392121D01*
X-2057213Y43399676D01*
X-2053530Y43407324D01*
X-2053530Y43407325D01*
X-2053528Y43407327D01*
X-2035993Y43464178D01*
X-2016354Y43520301D01*
X-2014772Y43528664D01*
X-2013500Y43537101D01*
X-2013500Y43596559D01*
X-2011275Y43656010D01*
X-2012315Y43665242D01*
X-2011487Y43665336D01*
X-2013500Y43680639D01*
X-2013500Y49896218D01*
X-2013111Y49903157D01*
X-2008730Y49942035D01*
X-2019789Y50000480D01*
X-2028652Y50059287D01*
X-2028653Y50059289D01*
X-2031167Y50067439D01*
X-2033979Y50075477D01*
X-2055027Y50115300D01*
X-2061778Y50128073D01*
X-2087575Y50181642D01*
X-2087577Y50181644D01*
X-2092376Y50188684D01*
X-2097433Y50195535D01*
X-2097434Y50195538D01*
X-2139496Y50237600D01*
X-2179945Y50281194D01*
X-2179946Y50281195D01*
X-2179947Y50281196D01*
X-2187210Y50286988D01*
X-2186690Y50287641D01*
X-2198930Y50297034D01*
X-3375092Y51473195D01*
X-3379729Y51478383D01*
X-3404122Y51508971D01*
X-3453272Y51542481D01*
X-3501118Y51577793D01*
X-3508703Y51581802D01*
X-3516323Y51585471D01*
X-3540839Y51593033D01*
X-3573178Y51603008D01*
X-3593846Y51610240D01*
X-3629305Y51622648D01*
X-3637674Y51624232D01*
X-3646096Y51625500D01*
X-3646098Y51625500D01*
X-3705574Y51625500D01*
X-3741117Y51626831D01*
X-2561503Y52688483D01*
X-2661503Y56238483D01*
X-3013757Y56968151D01*
X-2920595Y56967021D01*
X-2920446Y56967021D01*
X-2916015Y56966994D01*
X-2916005Y56966995D01*
X-2916001Y56966995D01*
X-2880360Y56970399D01*
X-2814382Y56976698D01*
X-2719094Y56995652D01*
X-2719087Y56995654D01*
X-2719081Y56995655D01*
X-2666673Y57009032D01*
X-2666674Y57009032D01*
X-2666665Y57009034D01*
X-2536874Y57071129D01*
X-2464310Y57119614D01*
X-2456087Y57125108D01*
X-2433432Y57142068D01*
X-2412767Y57157538D01*
X-2316620Y57264577D01*
X-2262644Y57345359D01*
X-2235034Y57391894D01*
X-2187167Y57527579D01*
X-2168213Y57622867D01*
X-2158500Y57721485D01*
X-2158501Y63070449D01*
X-2168438Y63170186D01*
X-2187607Y63265431D01*
X-2201107Y63317831D01*
X-2263496Y63447481D01*
X-2317654Y63528140D01*
X-2317663Y63528152D01*
X-2317662Y63528152D01*
X-2350181Y63571389D01*
X-2423993Y63637390D01*
X-2457436Y63667294D01*
X-2538339Y63721088D01*
X-2538344Y63721091D01*
X-2538343Y63721091D01*
X-2584939Y63748595D01*
X-2720717Y63796151D01*
X-2720738Y63796157D01*
X-2816033Y63814890D01*
X-2816053Y63814893D01*
X-2851240Y63818279D01*
X-2914698Y63824385D01*
X-2914702Y63824385D01*
X-2914712Y63824386D01*
X-15716710Y63795508D01*
X-15814748Y63785684D01*
X-15814754Y63785683D01*
X-15909462Y63766733D01*
X-15909461Y63766733D01*
X-15961333Y63753462D01*
X-15961338Y63753460D01*
X-16091121Y63691369D01*
X-16091131Y63691363D01*
X-16171913Y63637387D01*
X-16215229Y63604961D01*
X-16215236Y63604954D01*
X-16311375Y63497924D01*
X-16311380Y63497918D01*
X-16353197Y63435333D01*
X-16365356Y63417136D01*
X-16377042Y63397441D01*
X-16392963Y63370608D01*
X-16392964Y63370607D01*
X-16440834Y63234915D01*
X-16440834Y63234914D01*
X-16459788Y63139627D01*
X-16459788Y63139626D01*
X-16469500Y63041008D01*
X-16469500Y57719978D01*
X-16469473Y57715456D01*
X-16469473Y57715444D01*
X-16458537Y57613843D01*
X-16438431Y57518798D01*
X-16438431Y57518799D01*
X-16424414Y57466535D01*
X-16424413Y57466532D01*
X-16360750Y57337504D01*
X-16360748Y57337502D01*
X-16305802Y57257387D01*
X-16273699Y57215568D01*
X-16272843Y57214454D01*
X-16164647Y57119612D01*
X-16083217Y57066619D01*
X-16083212Y57066617D01*
X-16083212Y57066616D01*
X-16063072Y57054994D01*
X-16036351Y57039575D01*
X-15900096Y56993355D01*
X-15804585Y56975557D01*
X-15804571Y56975556D01*
X-15804566Y56975555D01*
X-15776615Y56973145D01*
X-15705855Y56967040D01*
X-15554012Y56968881D01*
X-16011503Y56688483D01*
X-16077686Y54989790D01*
X-16089496Y55001600D01*
X-16129945Y55045194D01*
X-16129946Y55045195D01*
X-16129947Y55045196D01*
X-16137210Y55050988D01*
X-16136690Y55051641D01*
X-16148930Y55061034D01*
X-17006092Y55918195D01*
X-17010729Y55923383D01*
X-17035122Y55953971D01*
X-17084273Y55987482D01*
X-17113136Y56008785D01*
X-17155386Y56064433D01*
X-17163500Y56108553D01*
X-17163500Y65172841D01*
X-17163501Y65172871D01*
X-17163501Y65202432D01*
X-17163501Y65202433D01*
X-17170347Y65223499D01*
X-17174889Y65242420D01*
X-17178354Y65264304D01*
X-17178355Y65264306D01*
X-17188414Y65284048D01*
X-17195860Y65302026D01*
X-17202703Y65323087D01*
X-17202704Y65323088D01*
X-17202704Y65323090D01*
X-17215731Y65341019D01*
X-17225896Y65357608D01*
X-17235950Y65377342D01*
X-17325658Y65467050D01*
X-18415713Y66557107D01*
X-18415744Y66557136D01*
X-18436658Y66578050D01*
X-18436659Y66578051D01*
X-18456400Y66588110D01*
X-18472986Y66598274D01*
X-18490910Y66611296D01*
X-18490909Y66611296D01*
X-18511982Y66618143D01*
X-18529955Y66625588D01*
X-18549693Y66635645D01*
X-18549696Y66635646D01*
X-18571582Y66639113D01*
X-18590493Y66643654D01*
X-18611561Y66650499D01*
X-18611566Y66650500D01*
X-18611567Y66650500D01*
X-18643481Y66650500D01*
X-21281519Y66650500D01*
X-21284052Y66650500D01*
X-21284076Y66650499D01*
X-21313436Y66650499D01*
X-21334501Y66643654D01*
X-21353418Y66639113D01*
X-21375300Y66635648D01*
X-21375305Y66635646D01*
X-21395050Y66625586D01*
X-21413014Y66618145D01*
X-21434093Y66611295D01*
X-21452016Y66598273D01*
X-21468601Y66588110D01*
X-21488341Y66578052D01*
X-21510907Y66555485D01*
X-21510909Y66555483D01*
X-22119484Y65946909D01*
X-22119487Y65946906D01*
X-22142051Y65924341D01*
X-22142052Y65924340D01*
X-22152109Y65904603D01*
X-22162269Y65888023D01*
X-22175294Y65870095D01*
X-22175297Y65870090D01*
X-22182146Y65849012D01*
X-22189587Y65831048D01*
X-22199646Y65811305D01*
X-22203113Y65789418D01*
X-22207653Y65770509D01*
X-22214500Y65749433D01*
X-22214500Y65533606D01*
X-22234185Y65466567D01*
X-22257295Y65439895D01*
X-22285293Y65415634D01*
X-22285295Y65415632D01*
X-22379449Y65306971D01*
X-22379451Y65306969D01*
X-22379451Y65306968D01*
X-22379454Y65306965D01*
X-22410901Y65258033D01*
X-22410907Y65258022D01*
X-22470634Y65127241D01*
X-22487028Y65071407D01*
X-22507489Y64929093D01*
X-22507489Y64870907D01*
X-22505690Y64858395D01*
X-22504428Y64840749D01*
X-22504428Y64459252D01*
X-22505690Y64441607D01*
X-22507489Y64429096D01*
X-22507489Y64370908D01*
X-22487028Y64228594D01*
X-22470634Y64172760D01*
X-22410907Y64041979D01*
X-22410901Y64041968D01*
X-22379454Y63993036D01*
X-22379453Y63993035D01*
X-22379449Y63993029D01*
X-22285295Y63884368D01*
X-22241320Y63846263D01*
X-22120366Y63768531D01*
X-22067438Y63744360D01*
X-22067431Y63744358D01*
X-22067429Y63744357D01*
X-21962392Y63713516D01*
X-21929483Y63703853D01*
X-21871889Y63695572D01*
X-21871888Y63695572D01*
X-21249999Y63695572D01*
X-21249998Y63695573D01*
X-21230252Y63699500D01*
X-21159790Y63713515D01*
X-21159536Y63712238D01*
X-21102991Y63718320D01*
X-21077540Y63710847D01*
X-21066941Y63706456D01*
X-21068237Y63703329D01*
X-21024264Y63680325D01*
X-20989692Y63619607D01*
X-20993435Y63549838D01*
X-21022688Y63503415D01*
X-21114286Y63411818D01*
X-21175606Y63378334D01*
X-21201965Y63375500D01*
X-22635217Y63375500D01*
X-22642156Y63375890D01*
X-22656431Y63377498D01*
X-22681036Y63380271D01*
X-22739489Y63369211D01*
X-22798289Y63360348D01*
X-22806444Y63357833D01*
X-22814470Y63355025D01*
X-22814471Y63355024D01*
X-22814473Y63355024D01*
X-22814476Y63355022D01*
X-22867074Y63327223D01*
X-22920642Y63301425D01*
X-22927692Y63296620D01*
X-22934539Y63291565D01*
X-22955563Y63270542D01*
X-22976587Y63249517D01*
X-22992323Y63234916D01*
X-23020197Y63209053D01*
X-23025987Y63201792D01*
X-23026638Y63202312D01*
X-23036033Y63190072D01*
X-24323196Y61902908D01*
X-24328383Y61898273D01*
X-24358967Y61873883D01*
X-24358971Y61873879D01*
X-24392481Y61824729D01*
X-24427794Y61776882D01*
X-24431784Y61769333D01*
X-24435472Y61761674D01*
X-24453008Y61704823D01*
X-24472647Y61648699D01*
X-24474229Y61640341D01*
X-24475500Y61631900D01*
X-24475500Y61572427D01*
X-24477725Y61512991D01*
X-24476684Y61503757D01*
X-24477515Y61503664D01*
X-24475500Y61488365D01*
X-24475500Y30978783D01*
X-24475890Y30971845D01*
X-24477276Y30959546D01*
X-24480271Y30932966D01*
X-24913500Y30932966D01*
X-24913500Y66987237D01*
X-11154213Y66987237D01*
X-11124587Y66717987D01*
X-11124585Y66717976D01*
X-11056074Y66455918D01*
X-11056072Y66455912D01*
X-10950130Y66206610D01*
X-10878002Y66088425D01*
X-10809021Y65975395D01*
X-10809014Y65975385D01*
X-10635747Y65767181D01*
X-10635741Y65767176D01*
X-10530760Y65673113D01*
X-10434002Y65586418D01*
X-10208090Y65436956D01*
X-9962824Y65321980D01*
X-9962817Y65321978D01*
X-9962815Y65321977D01*
X-9703443Y65243943D01*
X-9703436Y65243942D01*
X-9703431Y65243940D01*
X-9435439Y65204500D01*
X-9435434Y65204500D01*
X-9232364Y65204500D01*
X-9180867Y65208270D01*
X-9029844Y65219323D01*
X-8917242Y65244407D01*
X-8765454Y65278218D01*
X-8765452Y65278219D01*
X-8765447Y65278220D01*
X-8512442Y65374986D01*
X-8276223Y65507559D01*
X-8061823Y65673112D01*
X-7873814Y65868119D01*
X-7716201Y66088421D01*
X-7642213Y66232331D01*
X-7592351Y66329310D01*
X-7592349Y66329316D01*
X-7592344Y66329325D01*
X-7504882Y66585695D01*
X-7455681Y66852067D01*
X-7445788Y67122765D01*
X-7475414Y67392018D01*
X-7543928Y67654088D01*
X-7649870Y67903390D01*
X-7790982Y68134610D01*
X-7880253Y68241881D01*
X-7964254Y68342820D01*
X-7964260Y68342825D01*
X-8165998Y68523582D01*
X-8391908Y68673043D01*
X-8405761Y68679537D01*
X-8637176Y68788020D01*
X-8637181Y68788022D01*
X-8637186Y68788024D01*
X-8896558Y68866058D01*
X-8896572Y68866061D01*
X-9012209Y68883079D01*
X-9164561Y68905500D01*
X-9367631Y68905500D01*
X-9367636Y68905500D01*
X-9570156Y68890677D01*
X-9570169Y68890675D01*
X-9834547Y68831783D01*
X-9834554Y68831780D01*
X-10087561Y68735013D01*
X-10323774Y68602443D01*
X-10538178Y68436888D01*
X-10726178Y68241891D01*
X-10726184Y68241884D01*
X-10883798Y68021581D01*
X-10883801Y68021576D01*
X-11007650Y67780691D01*
X-11007657Y67780673D01*
X-11095116Y67524315D01*
X-11095119Y67524301D01*
X-11144319Y67257932D01*
X-11144320Y67257925D01*
X-11154213Y66987237D01*
X-24913500Y66987237D01*
X-24913500Y68154999D01*
X-20419682Y68154999D01*
X-20399045Y67998240D01*
X-20399044Y67998238D01*
X-20338536Y67852159D01*
X-20242282Y67726718D01*
X-20116841Y67630464D01*
X-19970762Y67569956D01*
X-19892381Y67559637D01*
X-19814001Y67549318D01*
X-19814000Y67549318D01*
X-19813999Y67549318D01*
X-19761746Y67556198D01*
X-19657238Y67569956D01*
X-19511159Y67630464D01*
X-19385718Y67726718D01*
X-19363259Y67755989D01*
X-19306832Y67797189D01*
X-19264884Y67804500D01*
X-17063211Y67804500D01*
X-17037766Y67801862D01*
X-17028685Y67799957D01*
X-17012995Y67801913D01*
X-16996061Y67804023D01*
X-16988385Y67804500D01*
X-16984965Y67804500D01*
X-16984960Y67804500D01*
X-16981392Y67805096D01*
X-16963461Y67808087D01*
X-16936042Y67811506D01*
X-16912607Y67814427D01*
X-16912598Y67814432D01*
X-16905549Y67816530D01*
X-16898623Y67818908D01*
X-16898619Y67818908D01*
X-16853556Y67843296D01*
X-16807516Y67865802D01*
X-16807513Y67865806D01*
X-16801547Y67870065D01*
X-16795746Y67874581D01*
X-16795742Y67874582D01*
X-16761043Y67912276D01*
X-11505137Y73168181D01*
X-11443814Y73201666D01*
X-11417456Y73204500D01*
X-10914673Y73204500D01*
X-10847634Y73184815D01*
X-10801879Y73132011D01*
X-10795696Y73115436D01*
X-10784633Y73077759D01*
X-10724907Y72946979D01*
X-10724901Y72946968D01*
X-10693454Y72898036D01*
X-10693453Y72898035D01*
X-10693449Y72898029D01*
X-10599295Y72789368D01*
X-10555320Y72751263D01*
X-10434366Y72673531D01*
X-10381438Y72649360D01*
X-10381431Y72649358D01*
X-10381429Y72649357D01*
X-10268277Y72616133D01*
X-10243483Y72608853D01*
X-10185889Y72600572D01*
X-10185888Y72600572D01*
X-9613999Y72600572D01*
X-9613998Y72600573D01*
X-9594176Y72604516D01*
X-9535771Y72616132D01*
X-9535771Y72616133D01*
X-9535769Y72616133D01*
X-9469448Y72660448D01*
X-9425133Y72726769D01*
X-9425133Y72726771D01*
X-9425132Y72726771D01*
X-9409573Y72804996D01*
X-9409572Y72804999D01*
X-9409572Y73245748D01*
X-9408310Y73263394D01*
X-9408029Y73265353D01*
X-9406511Y73275907D01*
X-9406511Y73334093D01*
X-9408310Y73346607D01*
X-9409572Y73364252D01*
X-9409572Y73745749D01*
X-9408310Y73763395D01*
X-9406511Y73775907D01*
X-9406511Y73834093D01*
X-9408310Y73846607D01*
X-9409572Y73864252D01*
X-9409572Y74305001D01*
X-9409573Y74305005D01*
X-9425132Y74383230D01*
X-9425133Y74383231D01*
X-9469448Y74449553D01*
X-9535770Y74493868D01*
X-9535771Y74493869D01*
X-9613996Y74509428D01*
X-9614000Y74509428D01*
X-10185889Y74509428D01*
X-10243479Y74501148D01*
X-10243493Y74501145D01*
X-10381429Y74460644D01*
X-10381431Y74460643D01*
X-10434361Y74436472D01*
X-10434367Y74436469D01*
X-10555322Y74358736D01*
X-10599294Y74320633D01*
X-10599295Y74320632D01*
X-10693449Y74211971D01*
X-10693451Y74211969D01*
X-10693451Y74211968D01*
X-10693454Y74211965D01*
X-10724901Y74163033D01*
X-10724907Y74163022D01*
X-10784633Y74032242D01*
X-10795696Y73994564D01*
X-10833471Y73935786D01*
X-10897028Y73906762D01*
X-10914673Y73905500D01*
X-11564794Y73905500D01*
X-11590239Y73908139D01*
X-11599315Y73910042D01*
X-11599318Y73910042D01*
X-11631932Y73905977D01*
X-11639608Y73905500D01*
X-11643040Y73905500D01*
X-11657381Y73903108D01*
X-11664552Y73901911D01*
X-11681379Y73899814D01*
X-11715393Y73895573D01*
X-11715394Y73895573D01*
X-11715399Y73895572D01*
X-11722425Y73893481D01*
X-11729377Y73891094D01*
X-11774445Y73866705D01*
X-11820488Y73844197D01*
X-11826434Y73839952D01*
X-11832258Y73835419D01*
X-11866958Y73797725D01*
X-17122863Y68541819D01*
X-17184186Y68508334D01*
X-17210544Y68505500D01*
X-19264884Y68505500D01*
X-19331923Y68525185D01*
X-19363258Y68554011D01*
X-19385718Y68583282D01*
X-19511159Y68679536D01*
X-19645095Y68735014D01*
X-19657238Y68740044D01*
X-19657240Y68740045D01*
X-19813999Y68760682D01*
X-19814001Y68760682D01*
X-19970761Y68740045D01*
X-19970763Y68740044D01*
X-20116840Y68679537D01*
X-20242282Y68583282D01*
X-20338537Y68457840D01*
X-20399044Y68311763D01*
X-20399045Y68311761D01*
X-20419682Y68155002D01*
X-20419682Y68154999D01*
X-24913500Y68154999D01*
X-24913500Y83396313D01*
X-11410500Y83396313D01*
X-11390206Y83261677D01*
X-11371396Y83136885D01*
X-11371395Y83136883D01*
X-11371394Y83136877D01*
X-11294062Y82886174D01*
X-11180233Y82649804D01*
X-11180232Y82649803D01*
X-11180230Y82649800D01*
X-11180228Y82649796D01*
X-11032433Y82433021D01*
X-10853986Y82240699D01*
X-10853982Y82240696D01*
X-10853981Y82240695D01*
X-10648857Y82077114D01*
X-10421643Y81945932D01*
X-10177416Y81850080D01*
X-9921630Y81791698D01*
X-9921624Y81791698D01*
X-9921621Y81791697D01*
X-9725500Y81777000D01*
X-9725494Y81777000D01*
X-9594500Y81777000D01*
X-9398380Y81791697D01*
X-9398378Y81791698D01*
X-9398370Y81791698D01*
X-9142584Y81850080D01*
X-8898357Y81945932D01*
X-8671143Y82077114D01*
X-8466019Y82240695D01*
X-8287567Y82433021D01*
X-8139772Y82649796D01*
X-8025937Y82886177D01*
X-7948604Y83136885D01*
X-7909500Y83396318D01*
X-7909500Y83658682D01*
X-7948604Y83918115D01*
X-8025937Y84168823D01*
X-8037879Y84193620D01*
X-8139768Y84405197D01*
X-8139769Y84405198D01*
X-8139770Y84405199D01*
X-8139772Y84405204D01*
X-8287567Y84621979D01*
X-8297559Y84632747D01*
X-8466015Y84814302D01*
X-8505467Y84845764D01*
X-8671143Y84977886D01*
X-8898357Y85109068D01*
X-9142584Y85204920D01*
X-9142589Y85204922D01*
X-9142598Y85204924D01*
X-9360182Y85254586D01*
X-9398370Y85263302D01*
X-9398371Y85263303D01*
X-9398375Y85263303D01*
X-9398380Y85263304D01*
X-9594500Y85278000D01*
X-9594506Y85278000D01*
X-9725494Y85278000D01*
X-9725500Y85278000D01*
X-9921621Y85263304D01*
X-9921626Y85263303D01*
X-10177403Y85204924D01*
X-10177422Y85204918D01*
X-10421644Y85109068D01*
X-10648857Y84977886D01*
X-10853986Y84814302D01*
X-11032433Y84621980D01*
X-11180232Y84405198D01*
X-11180233Y84405197D01*
X-11294062Y84168827D01*
X-11371394Y83918124D01*
X-11371395Y83918119D01*
X-11371396Y83918115D01*
X-11386147Y83820253D01*
X-11410500Y83658688D01*
X-11410500Y83396313D01*
X-24913500Y83396313D01*
X-24913500Y85700354D01*
X-24893815Y85767393D01*
X-24841011Y85813148D01*
X-24789377Y85824353D01*
X-1437870Y85800129D01*
G37*
%TD.AperFunction*%
%TD*%
%TA.AperFunction,Conductor*%
%TO.N,GND*%
G36*
X-6123132Y56993661D02*
G01*
X-6024514Y56983948D01*
X-6024512Y56983948D01*
X-5066181Y56983948D01*
X-5047582Y56984633D01*
X-5001765Y56988013D01*
X-4966631Y56995451D01*
X-4896968Y56990078D01*
X-4853268Y56961821D01*
X-4441366Y56549919D01*
X-4445161Y56549373D01*
X-4578562Y56488451D01*
X-4689395Y56392413D01*
X-4768682Y56269040D01*
X-4791134Y56192580D01*
X-5169467Y56570913D01*
X-5237632Y56443382D01*
X-5295387Y56252992D01*
X-5314887Y56055000D01*
X-5295387Y55857009D01*
X-5237632Y55666619D01*
X-5169467Y55539089D01*
X-4791134Y55917422D01*
X-4768682Y55840960D01*
X-4689395Y55717587D01*
X-4578562Y55621549D01*
X-4445161Y55560627D01*
X-4441366Y55560082D01*
X-4815913Y55185535D01*
X-4688380Y55117368D01*
X-4497992Y55059614D01*
X-4300000Y55040114D01*
X-4102009Y55059614D01*
X-3911614Y55117370D01*
X-3784089Y55185534D01*
X-3784089Y55185535D01*
X-4158634Y55560082D01*
X-4154839Y55560627D01*
X-4021438Y55621549D01*
X-3910605Y55717587D01*
X-3831318Y55840960D01*
X-3808867Y55917421D01*
X-3430535Y55539089D01*
X-3430534Y55539089D01*
X-3362370Y55666614D01*
X-3304614Y55857009D01*
X-3285114Y56055000D01*
X-3304614Y56252992D01*
X-3362368Y56443380D01*
X-3430535Y56570913D01*
X-3808867Y56192581D01*
X-3831318Y56269040D01*
X-3910605Y56392413D01*
X-4021438Y56488451D01*
X-4154839Y56549373D01*
X-4158635Y56549919D01*
X-3755083Y56953473D01*
X-3693760Y56986958D01*
X-3641733Y56987105D01*
X-3633569Y56985378D01*
X-3559154Y56977137D01*
X-3535084Y56974471D01*
X-3535083Y56974471D01*
X-3535074Y56974470D01*
X-3013757Y56968151D01*
X-2661503Y56238483D01*
X-2561503Y52688483D01*
X-3741117Y51626831D01*
X-3765010Y51627725D01*
X-3774244Y51626684D01*
X-3774338Y51627514D01*
X-3789636Y51625500D01*
X-14776034Y51625500D01*
X-14839041Y51644002D01*
X-14909889Y51707993D01*
X-15927181Y52725285D01*
X-15960666Y52786608D01*
X-15963500Y52812966D01*
X-15963500Y53055000D01*
X-15314887Y53055000D01*
X-15295387Y52857009D01*
X-15237632Y52666619D01*
X-15169467Y52539089D01*
X-14791134Y52917422D01*
X-14768682Y52840960D01*
X-14689395Y52717587D01*
X-14578562Y52621549D01*
X-14445161Y52560627D01*
X-14441366Y52560082D01*
X-14815913Y52185535D01*
X-14688380Y52117368D01*
X-14497992Y52059614D01*
X-14300000Y52040114D01*
X-14102009Y52059614D01*
X-13911614Y52117370D01*
X-13784089Y52185534D01*
X-13784089Y52185535D01*
X-14158634Y52560082D01*
X-14154839Y52560627D01*
X-14021438Y52621549D01*
X-13910605Y52717587D01*
X-13831318Y52840960D01*
X-13808867Y52917421D01*
X-13430535Y52539089D01*
X-13430534Y52539089D01*
X-13362370Y52666614D01*
X-13304614Y52857009D01*
X-13285114Y53055000D01*
X-12814887Y53055000D01*
X-12795387Y52857009D01*
X-12737632Y52666619D01*
X-12669467Y52539089D01*
X-12291134Y52917422D01*
X-12268682Y52840960D01*
X-12189395Y52717587D01*
X-12078562Y52621549D01*
X-11945161Y52560627D01*
X-11941366Y52560082D01*
X-12315913Y52185535D01*
X-12188380Y52117368D01*
X-11997992Y52059614D01*
X-11800000Y52040114D01*
X-11602009Y52059614D01*
X-11411614Y52117370D01*
X-11284089Y52185534D01*
X-11284089Y52185535D01*
X-11658634Y52560082D01*
X-11654839Y52560627D01*
X-11521438Y52621549D01*
X-11410605Y52717587D01*
X-11331318Y52840960D01*
X-11308867Y52917420D01*
X-10930535Y52539089D01*
X-10930534Y52539089D01*
X-10862370Y52666614D01*
X-10804614Y52857009D01*
X-10785114Y53055000D01*
X-10314887Y53055000D01*
X-10295387Y52857009D01*
X-10237632Y52666619D01*
X-10169467Y52539089D01*
X-9791134Y52917422D01*
X-9768682Y52840960D01*
X-9689395Y52717587D01*
X-9578562Y52621549D01*
X-9445161Y52560627D01*
X-9441366Y52560082D01*
X-9815913Y52185535D01*
X-9688380Y52117368D01*
X-9497992Y52059614D01*
X-9300000Y52040114D01*
X-9102009Y52059614D01*
X-8911614Y52117370D01*
X-8784089Y52185534D01*
X-8784089Y52185535D01*
X-9158634Y52560082D01*
X-9154839Y52560627D01*
X-9021438Y52621549D01*
X-8910605Y52717587D01*
X-8831318Y52840960D01*
X-8808867Y52917421D01*
X-8430535Y52539089D01*
X-8430534Y52539089D01*
X-8362370Y52666614D01*
X-8304614Y52857009D01*
X-8285114Y53055000D01*
X-7814887Y53055000D01*
X-7795387Y52857009D01*
X-7737632Y52666619D01*
X-7669467Y52539089D01*
X-7291134Y52917422D01*
X-7268682Y52840960D01*
X-7189395Y52717587D01*
X-7078562Y52621549D01*
X-6945161Y52560627D01*
X-6941366Y52560082D01*
X-7315913Y52185535D01*
X-7188380Y52117368D01*
X-6997992Y52059614D01*
X-6800000Y52040114D01*
X-6602009Y52059614D01*
X-6411614Y52117370D01*
X-6284089Y52185534D01*
X-6284089Y52185535D01*
X-6658634Y52560082D01*
X-6654839Y52560627D01*
X-6521438Y52621549D01*
X-6410605Y52717587D01*
X-6331318Y52840960D01*
X-6308867Y52917420D01*
X-5930535Y52539089D01*
X-5930534Y52539089D01*
X-5862370Y52666614D01*
X-5804614Y52857009D01*
X-5785114Y53055000D01*
X-5314887Y53055000D01*
X-5295387Y52857009D01*
X-5237632Y52666619D01*
X-5169467Y52539089D01*
X-4791134Y52917422D01*
X-4768682Y52840960D01*
X-4689395Y52717587D01*
X-4578562Y52621549D01*
X-4445161Y52560627D01*
X-4441366Y52560082D01*
X-4815913Y52185535D01*
X-4688380Y52117368D01*
X-4497992Y52059614D01*
X-4300000Y52040114D01*
X-4102009Y52059614D01*
X-3911614Y52117370D01*
X-3784089Y52185534D01*
X-3784089Y52185535D01*
X-4158634Y52560082D01*
X-4154839Y52560627D01*
X-4021438Y52621549D01*
X-3910605Y52717587D01*
X-3831318Y52840960D01*
X-3808867Y52917421D01*
X-3430535Y52539089D01*
X-3430534Y52539089D01*
X-3362370Y52666614D01*
X-3304614Y52857009D01*
X-3285114Y53055000D01*
X-3304614Y53252992D01*
X-3362368Y53443380D01*
X-3430535Y53570913D01*
X-3808867Y53192581D01*
X-3831318Y53269040D01*
X-3910605Y53392413D01*
X-4021438Y53488451D01*
X-4154839Y53549373D01*
X-4158636Y53549919D01*
X-3784089Y53924467D01*
X-3911619Y53992632D01*
X-4102009Y54050387D01*
X-4300000Y54069887D01*
X-4497992Y54050387D01*
X-4688382Y53992632D01*
X-4815914Y53924467D01*
X-4441366Y53549919D01*
X-4445161Y53549373D01*
X-4578562Y53488451D01*
X-4689395Y53392413D01*
X-4768682Y53269040D01*
X-4791134Y53192580D01*
X-5169467Y53570913D01*
X-5237632Y53443382D01*
X-5295387Y53252992D01*
X-5314887Y53055000D01*
X-5785114Y53055000D01*
X-5804614Y53252992D01*
X-5862368Y53443380D01*
X-5930535Y53570913D01*
X-6308868Y53192581D01*
X-6331318Y53269040D01*
X-6410605Y53392413D01*
X-6521438Y53488451D01*
X-6654839Y53549373D01*
X-6658636Y53549919D01*
X-6284089Y53924467D01*
X-6411619Y53992632D01*
X-6602009Y54050387D01*
X-6800000Y54069887D01*
X-6997992Y54050387D01*
X-7188382Y53992632D01*
X-7315913Y53924467D01*
X-6941365Y53549919D01*
X-6945161Y53549373D01*
X-7078562Y53488451D01*
X-7189395Y53392413D01*
X-7268682Y53269040D01*
X-7291134Y53192580D01*
X-7669467Y53570913D01*
X-7737632Y53443382D01*
X-7795387Y53252992D01*
X-7814887Y53055000D01*
X-8285114Y53055000D01*
X-8304614Y53252992D01*
X-8362368Y53443380D01*
X-8430535Y53570913D01*
X-8808867Y53192581D01*
X-8831318Y53269040D01*
X-8910605Y53392413D01*
X-9021438Y53488451D01*
X-9154839Y53549373D01*
X-9158636Y53549919D01*
X-8784089Y53924467D01*
X-8911619Y53992632D01*
X-9102009Y54050387D01*
X-9300000Y54069887D01*
X-9497992Y54050387D01*
X-9688382Y53992632D01*
X-9815914Y53924467D01*
X-9441366Y53549919D01*
X-9445161Y53549373D01*
X-9578562Y53488451D01*
X-9689395Y53392413D01*
X-9768682Y53269040D01*
X-9791134Y53192580D01*
X-10169467Y53570913D01*
X-10237632Y53443382D01*
X-10295387Y53252992D01*
X-10314887Y53055000D01*
X-10785114Y53055000D01*
X-10804614Y53252992D01*
X-10862368Y53443380D01*
X-10930535Y53570913D01*
X-11308868Y53192581D01*
X-11331318Y53269040D01*
X-11410605Y53392413D01*
X-11521438Y53488451D01*
X-11654839Y53549373D01*
X-11658636Y53549919D01*
X-11284089Y53924467D01*
X-11411619Y53992632D01*
X-11602009Y54050387D01*
X-11800000Y54069887D01*
X-11997992Y54050387D01*
X-12188382Y53992632D01*
X-12315914Y53924467D01*
X-11941366Y53549919D01*
X-11945161Y53549373D01*
X-12078562Y53488451D01*
X-12189395Y53392413D01*
X-12268682Y53269040D01*
X-12291134Y53192580D01*
X-12669467Y53570913D01*
X-12737632Y53443382D01*
X-12795387Y53252992D01*
X-12814887Y53055000D01*
X-13285114Y53055000D01*
X-13304614Y53252992D01*
X-13362368Y53443380D01*
X-13430535Y53570913D01*
X-13808867Y53192581D01*
X-13831318Y53269040D01*
X-13910605Y53392413D01*
X-14021438Y53488451D01*
X-14154839Y53549373D01*
X-14158636Y53549919D01*
X-13784089Y53924467D01*
X-13911619Y53992632D01*
X-14102009Y54050387D01*
X-14300000Y54069887D01*
X-14497992Y54050387D01*
X-14688382Y53992632D01*
X-14815913Y53924467D01*
X-14441365Y53549919D01*
X-14445161Y53549373D01*
X-14578562Y53488451D01*
X-14689395Y53392413D01*
X-14768682Y53269040D01*
X-14791134Y53192580D01*
X-15169467Y53570913D01*
X-15237632Y53443382D01*
X-15295387Y53252992D01*
X-15314887Y53055000D01*
X-15963500Y53055000D01*
X-15963500Y54660219D01*
X-15963111Y54667156D01*
X-15958730Y54706035D01*
X-15969790Y54764489D01*
X-15978652Y54823287D01*
X-15978653Y54823289D01*
X-15978653Y54823291D01*
X-15981166Y54831437D01*
X-15983975Y54839465D01*
X-15983976Y54839471D01*
X-16011781Y54892079D01*
X-16037575Y54945642D01*
X-16037578Y54945645D01*
X-16037578Y54945646D01*
X-16042375Y54952683D01*
X-16047433Y54959535D01*
X-16047434Y54959538D01*
X-16077686Y54989790D01*
X-16011503Y56688483D01*
X-15554014Y56968881D01*
X-15056438Y56974912D01*
X-15039374Y56975696D01*
X-15033788Y56976143D01*
X-14997342Y56979052D01*
X-14997339Y56979053D01*
X-14997336Y56979053D01*
X-14958934Y56987305D01*
X-14889256Y56982145D01*
X-14845201Y56953754D01*
X-14441366Y56549919D01*
X-14445161Y56549373D01*
X-14578562Y56488451D01*
X-14689395Y56392413D01*
X-14768682Y56269040D01*
X-14791134Y56192580D01*
X-15169467Y56570913D01*
X-15237632Y56443382D01*
X-15295387Y56252992D01*
X-15314887Y56055000D01*
X-15295387Y55857009D01*
X-15237632Y55666619D01*
X-15169467Y55539089D01*
X-14791134Y55917422D01*
X-14768682Y55840960D01*
X-14689395Y55717587D01*
X-14578562Y55621549D01*
X-14445161Y55560627D01*
X-14441366Y55560082D01*
X-14815913Y55185535D01*
X-14688380Y55117368D01*
X-14497992Y55059614D01*
X-14300000Y55040114D01*
X-14102009Y55059614D01*
X-13911614Y55117370D01*
X-13784089Y55185534D01*
X-13784089Y55185535D01*
X-14158634Y55560082D01*
X-14154839Y55560627D01*
X-14021438Y55621549D01*
X-13910605Y55717587D01*
X-13831318Y55840960D01*
X-13808867Y55917421D01*
X-13430535Y55539089D01*
X-13430534Y55539089D01*
X-13362370Y55666614D01*
X-13304614Y55857009D01*
X-13285114Y56055000D01*
X-13304614Y56252992D01*
X-13362368Y56443380D01*
X-13430535Y56570913D01*
X-13808867Y56192581D01*
X-13831318Y56269040D01*
X-13910605Y56392413D01*
X-14021438Y56488451D01*
X-14154839Y56549373D01*
X-14158635Y56549919D01*
X-13746537Y56962019D01*
X-13685214Y56995504D01*
X-13634665Y56995955D01*
X-13623132Y56993661D01*
X-13524514Y56983948D01*
X-13524512Y56983948D01*
X-12566181Y56983948D01*
X-12547582Y56984633D01*
X-12501765Y56988013D01*
X-12466631Y56995451D01*
X-12396968Y56990078D01*
X-12353268Y56961821D01*
X-11941366Y56549919D01*
X-11945161Y56549373D01*
X-12078562Y56488451D01*
X-12189395Y56392413D01*
X-12268682Y56269040D01*
X-12291134Y56192580D01*
X-12669467Y56570913D01*
X-12737632Y56443382D01*
X-12795387Y56252992D01*
X-12814887Y56055000D01*
X-12795387Y55857009D01*
X-12737632Y55666619D01*
X-12669467Y55539089D01*
X-12291134Y55917422D01*
X-12268682Y55840960D01*
X-12189395Y55717587D01*
X-12078562Y55621549D01*
X-11945161Y55560627D01*
X-11941366Y55560082D01*
X-12315913Y55185535D01*
X-12188380Y55117368D01*
X-11997992Y55059614D01*
X-11800000Y55040114D01*
X-11602009Y55059614D01*
X-11411614Y55117370D01*
X-11284089Y55185534D01*
X-11284089Y55185535D01*
X-11658634Y55560082D01*
X-11654839Y55560627D01*
X-11521438Y55621549D01*
X-11410605Y55717587D01*
X-11331318Y55840960D01*
X-11308867Y55917420D01*
X-10930535Y55539089D01*
X-10930534Y55539089D01*
X-10862370Y55666614D01*
X-10804614Y55857009D01*
X-10785114Y56055000D01*
X-10804614Y56252992D01*
X-10862368Y56443380D01*
X-10930535Y56570913D01*
X-11308868Y56192581D01*
X-11331318Y56269040D01*
X-11410605Y56392413D01*
X-11521438Y56488451D01*
X-11654839Y56549373D01*
X-11658635Y56549919D01*
X-11246537Y56962019D01*
X-11185214Y56995504D01*
X-11134665Y56995955D01*
X-11123132Y56993661D01*
X-11024514Y56983948D01*
X-11024512Y56983948D01*
X-10066181Y56983948D01*
X-10047582Y56984633D01*
X-10001765Y56988013D01*
X-9966631Y56995451D01*
X-9896968Y56990078D01*
X-9853268Y56961821D01*
X-9441366Y56549919D01*
X-9445161Y56549373D01*
X-9578562Y56488451D01*
X-9689395Y56392413D01*
X-9768682Y56269040D01*
X-9791134Y56192580D01*
X-10169467Y56570913D01*
X-10237632Y56443382D01*
X-10295387Y56252992D01*
X-10314887Y56055000D01*
X-10295387Y55857009D01*
X-10237632Y55666619D01*
X-10169467Y55539089D01*
X-9791134Y55917422D01*
X-9768682Y55840960D01*
X-9689395Y55717587D01*
X-9578562Y55621549D01*
X-9445161Y55560627D01*
X-9441366Y55560082D01*
X-9815913Y55185535D01*
X-9688380Y55117368D01*
X-9497992Y55059614D01*
X-9300000Y55040114D01*
X-9102009Y55059614D01*
X-8911614Y55117370D01*
X-8784089Y55185534D01*
X-8784089Y55185535D01*
X-9158634Y55560082D01*
X-9154839Y55560627D01*
X-9021438Y55621549D01*
X-8910605Y55717587D01*
X-8831318Y55840960D01*
X-8808867Y55917421D01*
X-8430535Y55539089D01*
X-8430534Y55539089D01*
X-8362370Y55666614D01*
X-8304614Y55857009D01*
X-8285114Y56055000D01*
X-8304614Y56252992D01*
X-8362368Y56443380D01*
X-8430535Y56570913D01*
X-8808867Y56192581D01*
X-8831318Y56269040D01*
X-8910605Y56392413D01*
X-9021438Y56488451D01*
X-9154839Y56549373D01*
X-9158635Y56549919D01*
X-8746537Y56962019D01*
X-8685214Y56995504D01*
X-8634665Y56995955D01*
X-8623132Y56993661D01*
X-8524514Y56983948D01*
X-8524512Y56983948D01*
X-7566181Y56983948D01*
X-7547582Y56984633D01*
X-7501765Y56988013D01*
X-7466631Y56995451D01*
X-7396968Y56990078D01*
X-7353268Y56961821D01*
X-6941366Y56549919D01*
X-6945161Y56549373D01*
X-7078562Y56488451D01*
X-7189395Y56392413D01*
X-7268682Y56269040D01*
X-7291134Y56192580D01*
X-7669467Y56570913D01*
X-7737632Y56443382D01*
X-7795387Y56252992D01*
X-7814887Y56055000D01*
X-7795387Y55857009D01*
X-7737632Y55666619D01*
X-7669467Y55539089D01*
X-7291134Y55917422D01*
X-7268682Y55840960D01*
X-7189395Y55717587D01*
X-7078562Y55621549D01*
X-6945161Y55560627D01*
X-6941366Y55560082D01*
X-7315913Y55185535D01*
X-7188380Y55117368D01*
X-6997992Y55059614D01*
X-6800000Y55040114D01*
X-6602009Y55059614D01*
X-6411614Y55117370D01*
X-6284089Y55185534D01*
X-6284089Y55185535D01*
X-6658634Y55560082D01*
X-6654839Y55560627D01*
X-6521438Y55621549D01*
X-6410605Y55717587D01*
X-6331318Y55840960D01*
X-6308867Y55917420D01*
X-5930535Y55539089D01*
X-5930534Y55539089D01*
X-5862370Y55666614D01*
X-5804614Y55857009D01*
X-5785114Y56055000D01*
X-5804614Y56252992D01*
X-5862368Y56443380D01*
X-5930535Y56570913D01*
X-6308868Y56192581D01*
X-6331318Y56269040D01*
X-6410605Y56392413D01*
X-6521438Y56488451D01*
X-6654839Y56549373D01*
X-6658635Y56549919D01*
X-6246537Y56962019D01*
X-6185214Y56995504D01*
X-6134665Y56995955D01*
X-6123132Y56993661D01*
G37*
%TD.AperFunction*%
%TD*%
%TA.AperFunction,Conductor*%
%TO.N,GND*%
G36*
X-3964000Y34775000D02*
G01*
X-2564500Y33510936D01*
X-2564500Y29524694D01*
X-3303044Y29072039D01*
X-3365433Y29071897D01*
X-3432517Y29091430D01*
X-3478391Y29144131D01*
X-3488490Y29213267D01*
X-3461565Y29274564D01*
X-3456154Y29281159D01*
X-3362368Y29456621D01*
X-3304614Y29647009D01*
X-3285114Y29845000D01*
X-3304614Y30042992D01*
X-3362368Y30233380D01*
X-3430535Y30360913D01*
X-3808867Y29982581D01*
X-3831318Y30059040D01*
X-3910605Y30182413D01*
X-4021438Y30278451D01*
X-4154839Y30339373D01*
X-4158636Y30339919D01*
X-3784089Y30714467D01*
X-3911619Y30782632D01*
X-4102009Y30840387D01*
X-4300000Y30859887D01*
X-4497992Y30840387D01*
X-4688382Y30782632D01*
X-4815914Y30714467D01*
X-4441366Y30339919D01*
X-4445161Y30339373D01*
X-4578562Y30278451D01*
X-4689395Y30182413D01*
X-4768682Y30059040D01*
X-4791134Y29982581D01*
X-5169466Y30360913D01*
X-5169467Y30360913D01*
X-5237632Y30233382D01*
X-5295387Y30042992D01*
X-5314887Y29845000D01*
X-5295387Y29647009D01*
X-5237633Y29456621D01*
X-5143846Y29281155D01*
X-5134984Y29270358D01*
X-5107669Y29206049D01*
X-5119459Y29137181D01*
X-5166610Y29085620D01*
X-5230555Y29067691D01*
X-5870070Y29066248D01*
X-5937154Y29085782D01*
X-5983028Y29138482D01*
X-5993127Y29207618D01*
X-5966199Y29268917D01*
X-5956156Y29281155D01*
X-5862368Y29456621D01*
X-5804614Y29647009D01*
X-5785114Y29845000D01*
X-5804614Y30042992D01*
X-5862368Y30233380D01*
X-5930535Y30360913D01*
X-6308867Y29982581D01*
X-6331318Y30059040D01*
X-6410605Y30182413D01*
X-6521438Y30278451D01*
X-6654839Y30339373D01*
X-6658636Y30339919D01*
X-6284089Y30714467D01*
X-6411619Y30782632D01*
X-6602009Y30840387D01*
X-6800000Y30859887D01*
X-6997992Y30840387D01*
X-7188382Y30782632D01*
X-7315913Y30714467D01*
X-6941365Y30339919D01*
X-6945161Y30339373D01*
X-7078562Y30278451D01*
X-7189395Y30182413D01*
X-7268682Y30059040D01*
X-7291134Y29982581D01*
X-7669466Y30360913D01*
X-7669467Y30360913D01*
X-7737632Y30233382D01*
X-7795387Y30042992D01*
X-7814887Y29845000D01*
X-7795387Y29647009D01*
X-7737633Y29456621D01*
X-7643846Y29281156D01*
X-7630363Y29264727D01*
X-7603050Y29200417D01*
X-7614841Y29131549D01*
X-7661993Y29079989D01*
X-7725936Y29062062D01*
X-8374706Y29060598D01*
X-8441790Y29080132D01*
X-8487664Y29132832D01*
X-8497763Y29201968D01*
X-8470838Y29263264D01*
X-8456155Y29281156D01*
X-8362368Y29456621D01*
X-8304614Y29647009D01*
X-8285114Y29845000D01*
X-8304614Y30042992D01*
X-8362368Y30233380D01*
X-8430535Y30360913D01*
X-8808867Y29982581D01*
X-8831318Y30059040D01*
X-8910605Y30182413D01*
X-9021438Y30278451D01*
X-9154839Y30339373D01*
X-9158636Y30339919D01*
X-8784089Y30714467D01*
X-8911619Y30782632D01*
X-9102009Y30840387D01*
X-9300000Y30859887D01*
X-9497992Y30840387D01*
X-9688382Y30782632D01*
X-9815914Y30714467D01*
X-9441366Y30339919D01*
X-9445161Y30339373D01*
X-9578562Y30278451D01*
X-9689395Y30182413D01*
X-9768682Y30059040D01*
X-9791134Y29982581D01*
X-10169466Y30360913D01*
X-10169467Y30360913D01*
X-10237632Y30233382D01*
X-10295387Y30042992D01*
X-10314887Y29845000D01*
X-10295387Y29647009D01*
X-10237633Y29456621D01*
X-10143846Y29281156D01*
X-10125743Y29259097D01*
X-10098431Y29194786D01*
X-10110223Y29125919D01*
X-10157376Y29074359D01*
X-10221317Y29056433D01*
X-10879343Y29054949D01*
X-10946427Y29074483D01*
X-10992301Y29127183D01*
X-11002400Y29196319D01*
X-10975474Y29257617D01*
X-10956154Y29281158D01*
X-10862368Y29456621D01*
X-10804614Y29647009D01*
X-10785114Y29845000D01*
X-10804614Y30042992D01*
X-10862368Y30233380D01*
X-10930535Y30360913D01*
X-11308867Y29982581D01*
X-11331318Y30059040D01*
X-11410605Y30182413D01*
X-11521438Y30278451D01*
X-11654839Y30339373D01*
X-11658636Y30339919D01*
X-11284089Y30714467D01*
X-11411619Y30782632D01*
X-11602009Y30840387D01*
X-11800000Y30859887D01*
X-11997992Y30840387D01*
X-12188382Y30782632D01*
X-12315914Y30714467D01*
X-11941366Y30339919D01*
X-11945161Y30339373D01*
X-12078562Y30278451D01*
X-12189395Y30182413D01*
X-12268682Y30059040D01*
X-12291134Y29982581D01*
X-12669466Y30360913D01*
X-12669467Y30360913D01*
X-12737632Y30233382D01*
X-12795387Y30042992D01*
X-12814887Y29845000D01*
X-12795387Y29647009D01*
X-12737633Y29456621D01*
X-12643846Y29281155D01*
X-12621125Y29253471D01*
X-12593811Y29189161D01*
X-12605601Y29120294D01*
X-12652753Y29068733D01*
X-12716697Y29050805D01*
X-13383979Y29049300D01*
X-13451063Y29068834D01*
X-13496937Y29121534D01*
X-13507036Y29190670D01*
X-13480110Y29251967D01*
X-13456155Y29281155D01*
X-13362368Y29456621D01*
X-13304614Y29647009D01*
X-13285114Y29845000D01*
X-13304614Y30042992D01*
X-13362368Y30233380D01*
X-13430535Y30360913D01*
X-13808867Y29982581D01*
X-13831318Y30059040D01*
X-13910605Y30182413D01*
X-14021438Y30278451D01*
X-14154839Y30339373D01*
X-14158636Y30339919D01*
X-13784089Y30714467D01*
X-13911619Y30782632D01*
X-14102009Y30840387D01*
X-14300000Y30859887D01*
X-14497992Y30840387D01*
X-14688382Y30782632D01*
X-14815913Y30714467D01*
X-14441365Y30339919D01*
X-14445161Y30339373D01*
X-14578562Y30278451D01*
X-14689395Y30182413D01*
X-14768682Y30059040D01*
X-14791134Y29982581D01*
X-15169466Y30360913D01*
X-15169467Y30360913D01*
X-15237632Y30233382D01*
X-15295387Y30042992D01*
X-15314887Y29845000D01*
X-15295387Y29647009D01*
X-15237633Y29456621D01*
X-15143846Y29281156D01*
X-15116505Y29247841D01*
X-15089192Y29183531D01*
X-15100983Y29114663D01*
X-15148135Y29063103D01*
X-15212078Y29045176D01*
X-15464845Y29044606D01*
X-15914000Y29975000D01*
X-15994845Y32845000D01*
X-15314887Y32845000D01*
X-15295387Y32647009D01*
X-15237632Y32456619D01*
X-15169467Y32329089D01*
X-14791134Y32707422D01*
X-14768682Y32630960D01*
X-14689395Y32507587D01*
X-14578562Y32411549D01*
X-14445161Y32350627D01*
X-14441366Y32350082D01*
X-14815913Y31975535D01*
X-14688380Y31907368D01*
X-14497992Y31849614D01*
X-14300000Y31830114D01*
X-14102009Y31849614D01*
X-13911614Y31907370D01*
X-13784089Y31975534D01*
X-13784089Y31975535D01*
X-14158634Y32350082D01*
X-14154839Y32350627D01*
X-14021438Y32411549D01*
X-13910605Y32507587D01*
X-13831318Y32630960D01*
X-13808867Y32707421D01*
X-13430535Y32329089D01*
X-13430534Y32329089D01*
X-13362370Y32456614D01*
X-13304614Y32647009D01*
X-13285114Y32845000D01*
X-12814887Y32845000D01*
X-12795387Y32647009D01*
X-12737632Y32456619D01*
X-12669467Y32329089D01*
X-12291134Y32707422D01*
X-12268682Y32630960D01*
X-12189395Y32507587D01*
X-12078562Y32411549D01*
X-11945161Y32350627D01*
X-11941366Y32350082D01*
X-12315913Y31975535D01*
X-12188380Y31907368D01*
X-11997992Y31849614D01*
X-11800000Y31830114D01*
X-11602009Y31849614D01*
X-11411614Y31907370D01*
X-11284089Y31975534D01*
X-11284089Y31975535D01*
X-11658634Y32350082D01*
X-11654839Y32350627D01*
X-11521438Y32411549D01*
X-11410605Y32507587D01*
X-11331318Y32630960D01*
X-11308867Y32707420D01*
X-10930535Y32329089D01*
X-10930534Y32329089D01*
X-10862370Y32456614D01*
X-10804614Y32647009D01*
X-10785114Y32845000D01*
X-10314887Y32845000D01*
X-10295387Y32647009D01*
X-10237632Y32456619D01*
X-10169467Y32329089D01*
X-9791134Y32707422D01*
X-9768682Y32630960D01*
X-9689395Y32507587D01*
X-9578562Y32411549D01*
X-9445161Y32350627D01*
X-9441366Y32350082D01*
X-9815913Y31975535D01*
X-9688380Y31907368D01*
X-9497992Y31849614D01*
X-9300000Y31830114D01*
X-9102009Y31849614D01*
X-8911614Y31907370D01*
X-8784089Y31975534D01*
X-8784089Y31975535D01*
X-9158634Y32350082D01*
X-9154839Y32350627D01*
X-9021438Y32411549D01*
X-8910605Y32507587D01*
X-8831318Y32630960D01*
X-8808867Y32707421D01*
X-8430535Y32329089D01*
X-8430534Y32329089D01*
X-8362370Y32456614D01*
X-8304614Y32647009D01*
X-8285114Y32845000D01*
X-7814887Y32845000D01*
X-7795387Y32647009D01*
X-7737632Y32456619D01*
X-7669467Y32329089D01*
X-7291134Y32707422D01*
X-7268682Y32630960D01*
X-7189395Y32507587D01*
X-7078562Y32411549D01*
X-6945161Y32350627D01*
X-6941366Y32350082D01*
X-7315913Y31975535D01*
X-7188380Y31907368D01*
X-6997992Y31849614D01*
X-6800000Y31830114D01*
X-6602009Y31849614D01*
X-6411614Y31907370D01*
X-6284089Y31975534D01*
X-6284089Y31975535D01*
X-6658634Y32350082D01*
X-6654839Y32350627D01*
X-6521438Y32411549D01*
X-6410605Y32507587D01*
X-6331318Y32630960D01*
X-6308867Y32707420D01*
X-5930535Y32329089D01*
X-5930534Y32329089D01*
X-5862370Y32456614D01*
X-5804614Y32647009D01*
X-5785114Y32845000D01*
X-5314887Y32845000D01*
X-5295387Y32647009D01*
X-5237632Y32456619D01*
X-5169467Y32329089D01*
X-4791134Y32707422D01*
X-4768682Y32630960D01*
X-4689395Y32507587D01*
X-4578562Y32411549D01*
X-4445161Y32350627D01*
X-4441366Y32350082D01*
X-4815913Y31975535D01*
X-4688380Y31907368D01*
X-4497992Y31849614D01*
X-4300000Y31830114D01*
X-4102009Y31849614D01*
X-3911614Y31907370D01*
X-3784089Y31975534D01*
X-3784089Y31975535D01*
X-4158634Y32350082D01*
X-4154839Y32350627D01*
X-4021438Y32411549D01*
X-3910605Y32507587D01*
X-3831318Y32630960D01*
X-3808867Y32707421D01*
X-3430535Y32329089D01*
X-3430534Y32329089D01*
X-3362370Y32456614D01*
X-3304614Y32647009D01*
X-3285114Y32845000D01*
X-3304614Y33042992D01*
X-3362368Y33233380D01*
X-3430535Y33360913D01*
X-3808867Y32982581D01*
X-3831318Y33059040D01*
X-3910605Y33182413D01*
X-4021438Y33278451D01*
X-4154839Y33339373D01*
X-4158636Y33339919D01*
X-3784089Y33714467D01*
X-3911619Y33782632D01*
X-4102009Y33840387D01*
X-4300000Y33859887D01*
X-4497992Y33840387D01*
X-4688382Y33782632D01*
X-4815914Y33714467D01*
X-4441366Y33339919D01*
X-4445161Y33339373D01*
X-4578562Y33278451D01*
X-4689395Y33182413D01*
X-4768682Y33059040D01*
X-4791134Y32982580D01*
X-5169467Y33360913D01*
X-5237632Y33233382D01*
X-5295387Y33042992D01*
X-5314887Y32845000D01*
X-5785114Y32845000D01*
X-5804614Y33042992D01*
X-5862368Y33233380D01*
X-5930535Y33360913D01*
X-6308868Y32982581D01*
X-6331318Y33059040D01*
X-6410605Y33182413D01*
X-6521438Y33278451D01*
X-6654839Y33339373D01*
X-6658636Y33339919D01*
X-6284089Y33714467D01*
X-6411619Y33782632D01*
X-6602009Y33840387D01*
X-6800000Y33859887D01*
X-6997992Y33840387D01*
X-7188382Y33782632D01*
X-7315913Y33714467D01*
X-6941365Y33339919D01*
X-6945161Y33339373D01*
X-7078562Y33278451D01*
X-7189395Y33182413D01*
X-7268682Y33059040D01*
X-7291134Y32982580D01*
X-7669467Y33360913D01*
X-7737632Y33233382D01*
X-7795387Y33042992D01*
X-7814887Y32845000D01*
X-8285114Y32845000D01*
X-8304614Y33042992D01*
X-8362368Y33233380D01*
X-8430535Y33360913D01*
X-8808867Y32982581D01*
X-8831318Y33059040D01*
X-8910605Y33182413D01*
X-9021438Y33278451D01*
X-9154839Y33339373D01*
X-9158636Y33339919D01*
X-8784089Y33714467D01*
X-8911619Y33782632D01*
X-9102009Y33840387D01*
X-9300000Y33859887D01*
X-9497992Y33840387D01*
X-9688382Y33782632D01*
X-9815914Y33714467D01*
X-9441366Y33339919D01*
X-9445161Y33339373D01*
X-9578562Y33278451D01*
X-9689395Y33182413D01*
X-9768682Y33059040D01*
X-9791134Y32982580D01*
X-10169467Y33360913D01*
X-10237632Y33233382D01*
X-10295387Y33042992D01*
X-10314887Y32845000D01*
X-10785114Y32845000D01*
X-10804614Y33042992D01*
X-10862368Y33233380D01*
X-10930535Y33360913D01*
X-11308868Y32982581D01*
X-11331318Y33059040D01*
X-11410605Y33182413D01*
X-11521438Y33278451D01*
X-11654839Y33339373D01*
X-11658636Y33339919D01*
X-11284089Y33714467D01*
X-11411619Y33782632D01*
X-11602009Y33840387D01*
X-11800000Y33859887D01*
X-11997992Y33840387D01*
X-12188382Y33782632D01*
X-12315914Y33714467D01*
X-11941366Y33339919D01*
X-11945161Y33339373D01*
X-12078562Y33278451D01*
X-12189395Y33182413D01*
X-12268682Y33059040D01*
X-12291134Y32982580D01*
X-12669467Y33360913D01*
X-12737632Y33233382D01*
X-12795387Y33042992D01*
X-12814887Y32845000D01*
X-13285114Y32845000D01*
X-13304614Y33042992D01*
X-13362368Y33233380D01*
X-13430535Y33360913D01*
X-13808867Y32982581D01*
X-13831318Y33059040D01*
X-13910605Y33182413D01*
X-14021438Y33278451D01*
X-14154839Y33339373D01*
X-14158636Y33339919D01*
X-13784089Y33714467D01*
X-13911619Y33782632D01*
X-14102009Y33840387D01*
X-14300000Y33859887D01*
X-14497992Y33840387D01*
X-14688382Y33782632D01*
X-14815913Y33714467D01*
X-14441365Y33339919D01*
X-14445161Y33339373D01*
X-14578562Y33278451D01*
X-14689395Y33182413D01*
X-14768682Y33059040D01*
X-14791134Y32982580D01*
X-15169467Y33360913D01*
X-15237632Y33233382D01*
X-15295387Y33042992D01*
X-15314887Y32845000D01*
X-15994845Y32845000D01*
X-16014000Y33525000D01*
X-14514000Y34875000D01*
X-3964000Y34775000D01*
G37*
%TD.AperFunction*%
%TD*%
%TA.AperFunction,Conductor*%
%TO.N,/BATT_B*%
G36*
X-4958165Y28543849D02*
G01*
X-4877262Y28490055D01*
X-4823104Y28409396D01*
X-4803935Y28314151D01*
X-4806629Y28277052D01*
X-4815913Y28214468D01*
X-4441364Y27839919D01*
X-4445161Y27839373D01*
X-4578562Y27778451D01*
X-4689395Y27682413D01*
X-4768682Y27559040D01*
X-4791134Y27482579D01*
X-5169468Y27860913D01*
X-5237630Y27733389D01*
X-5237632Y27733384D01*
X-5295387Y27542994D01*
X-5302199Y27473822D01*
X-5330402Y27380851D01*
X-5356896Y27348569D01*
X-5311722Y27264053D01*
X-5302199Y27216178D01*
X-5295387Y27147006D01*
X-5237635Y26956625D01*
X-5237634Y26956622D01*
X-5169467Y26829089D01*
X-4791134Y27207422D01*
X-4768682Y27130960D01*
X-4689395Y27007587D01*
X-4578562Y26911549D01*
X-4445161Y26850627D01*
X-4441366Y26850082D01*
X-4815913Y26475534D01*
X-4688379Y26407367D01*
X-4497996Y26349615D01*
X-4300000Y26330114D01*
X-4102005Y26349615D01*
X-3911622Y26407367D01*
X-3784089Y26475535D01*
X-4158635Y26850082D01*
X-4154839Y26850627D01*
X-4021438Y26911549D01*
X-3910605Y27007587D01*
X-3831318Y27130960D01*
X-3808867Y27207421D01*
X-3430535Y26829089D01*
X-3362367Y26956623D01*
X-3351778Y26991527D01*
X-3305980Y27077210D01*
X-3230879Y27138845D01*
X-3137907Y27167048D01*
X-3041220Y27157525D01*
X-2955537Y27111727D01*
X-2893902Y27036626D01*
X-2865699Y26943654D01*
X-2864500Y26919247D01*
X-2864500Y24770754D01*
X-2883454Y24675466D01*
X-2937430Y24594684D01*
X-3018212Y24540708D01*
X-3113500Y24521754D01*
X-3208788Y24540708D01*
X-3289570Y24594684D01*
X-3343546Y24675466D01*
X-3351778Y24698473D01*
X-3362367Y24733379D01*
X-3430535Y24860913D01*
X-3808867Y24482581D01*
X-3831318Y24559040D01*
X-3910605Y24682413D01*
X-4021438Y24778451D01*
X-4154839Y24839373D01*
X-4158637Y24839919D01*
X-3784089Y25214467D01*
X-3911622Y25282634D01*
X-3911625Y25282635D01*
X-4102005Y25340386D01*
X-4300000Y25359887D01*
X-4497994Y25340387D01*
X-4688384Y25282632D01*
X-4688389Y25282630D01*
X-4815913Y25214468D01*
X-4441364Y24839919D01*
X-4445161Y24839373D01*
X-4578562Y24778451D01*
X-4689395Y24682413D01*
X-4768682Y24559040D01*
X-4791134Y24482579D01*
X-5169468Y24860913D01*
X-5237630Y24733389D01*
X-5237632Y24733384D01*
X-5295387Y24542994D01*
X-5302199Y24473822D01*
X-5330402Y24380851D01*
X-5356896Y24348569D01*
X-5311722Y24264053D01*
X-5302199Y24216178D01*
X-5295387Y24147006D01*
X-5237635Y23956625D01*
X-5237634Y23956622D01*
X-5169467Y23829089D01*
X-4791134Y24207422D01*
X-4768682Y24130960D01*
X-4689395Y24007587D01*
X-4578562Y23911549D01*
X-4445161Y23850627D01*
X-4441366Y23850082D01*
X-4815913Y23475534D01*
X-4688379Y23407367D01*
X-4497996Y23349615D01*
X-4300000Y23330114D01*
X-4102005Y23349615D01*
X-3911622Y23407367D01*
X-3784089Y23475535D01*
X-4158635Y23850082D01*
X-4154839Y23850627D01*
X-4021438Y23911549D01*
X-3910605Y24007587D01*
X-3831318Y24130960D01*
X-3808867Y24207421D01*
X-3430535Y23829089D01*
X-3362367Y23956623D01*
X-3351778Y23991527D01*
X-3305980Y24077210D01*
X-3230879Y24138845D01*
X-3137907Y24167048D01*
X-3041220Y24157525D01*
X-2955537Y24111727D01*
X-2893902Y24036626D01*
X-2865699Y23943654D01*
X-2864500Y23919247D01*
X-2864500Y22973164D01*
X-2883454Y22877876D01*
X-2937430Y22797094D01*
X-3018212Y22743118D01*
X-3113500Y22724164D01*
X-3116518Y22724182D01*
X-4264000Y22738090D01*
X-14264000Y22738090D01*
X-15661982Y22721145D01*
X-15757493Y22738943D01*
X-15838923Y22791936D01*
X-15893874Y22872058D01*
X-15913982Y22967109D01*
X-15914000Y22970127D01*
X-15914000Y24345000D01*
X-15314887Y24345000D01*
X-15295386Y24147005D01*
X-15237635Y23956625D01*
X-15237634Y23956622D01*
X-15169467Y23829089D01*
X-14791134Y24207422D01*
X-14768682Y24130960D01*
X-14689395Y24007587D01*
X-14578562Y23911549D01*
X-14445161Y23850627D01*
X-14441366Y23850082D01*
X-14815913Y23475534D01*
X-14688379Y23407367D01*
X-14497996Y23349615D01*
X-14300000Y23330114D01*
X-14102005Y23349615D01*
X-13911622Y23407367D01*
X-13784089Y23475535D01*
X-14158635Y23850082D01*
X-14154839Y23850627D01*
X-14021438Y23911549D01*
X-13910605Y24007587D01*
X-13831318Y24130960D01*
X-13808867Y24207421D01*
X-13430535Y23829089D01*
X-13362367Y23956622D01*
X-13304614Y24147006D01*
X-13297801Y24216178D01*
X-13269598Y24309150D01*
X-13243105Y24341433D01*
X-13246919Y24348569D01*
X-12856896Y24348569D01*
X-12811722Y24264053D01*
X-12802199Y24216178D01*
X-12795387Y24147006D01*
X-12737635Y23956625D01*
X-12737634Y23956622D01*
X-12669467Y23829089D01*
X-12291134Y24207422D01*
X-12268682Y24130960D01*
X-12189395Y24007587D01*
X-12078562Y23911549D01*
X-11945161Y23850627D01*
X-11941366Y23850082D01*
X-12315913Y23475534D01*
X-12188379Y23407367D01*
X-11997996Y23349615D01*
X-11800000Y23330114D01*
X-11602005Y23349615D01*
X-11411622Y23407367D01*
X-11284088Y23475535D01*
X-11658635Y23850082D01*
X-11654839Y23850627D01*
X-11521438Y23911549D01*
X-11410605Y24007587D01*
X-11331318Y24130960D01*
X-11308867Y24207421D01*
X-10930535Y23829089D01*
X-10862367Y23956622D01*
X-10804614Y24147006D01*
X-10797801Y24216178D01*
X-10769598Y24309150D01*
X-10743105Y24341433D01*
X-10746919Y24348569D01*
X-10356896Y24348569D01*
X-10311722Y24264053D01*
X-10302199Y24216178D01*
X-10295387Y24147006D01*
X-10237635Y23956625D01*
X-10237634Y23956622D01*
X-10169467Y23829089D01*
X-9791134Y24207422D01*
X-9768682Y24130960D01*
X-9689395Y24007587D01*
X-9578562Y23911549D01*
X-9445161Y23850627D01*
X-9441366Y23850082D01*
X-9815913Y23475534D01*
X-9688379Y23407367D01*
X-9497996Y23349615D01*
X-9300000Y23330114D01*
X-9102005Y23349615D01*
X-8911622Y23407367D01*
X-8784088Y23475535D01*
X-9158635Y23850082D01*
X-9154839Y23850627D01*
X-9021438Y23911549D01*
X-8910605Y24007587D01*
X-8831318Y24130960D01*
X-8808867Y24207421D01*
X-8430535Y23829089D01*
X-8362367Y23956622D01*
X-8304614Y24147006D01*
X-8297801Y24216178D01*
X-8269598Y24309150D01*
X-8243105Y24341433D01*
X-8246919Y24348569D01*
X-7856896Y24348569D01*
X-7811722Y24264053D01*
X-7802199Y24216178D01*
X-7795387Y24147006D01*
X-7737635Y23956625D01*
X-7737634Y23956622D01*
X-7669467Y23829089D01*
X-7291134Y24207422D01*
X-7268682Y24130960D01*
X-7189395Y24007587D01*
X-7078562Y23911549D01*
X-6945161Y23850627D01*
X-6941366Y23850082D01*
X-7315913Y23475534D01*
X-7188379Y23407367D01*
X-6997996Y23349615D01*
X-6800000Y23330114D01*
X-6602005Y23349615D01*
X-6411622Y23407367D01*
X-6284089Y23475535D01*
X-6658635Y23850082D01*
X-6654839Y23850627D01*
X-6521438Y23911549D01*
X-6410605Y24007587D01*
X-6331318Y24130960D01*
X-6308867Y24207421D01*
X-5930535Y23829089D01*
X-5862367Y23956622D01*
X-5804614Y24147006D01*
X-5797801Y24216178D01*
X-5769598Y24309150D01*
X-5743105Y24341433D01*
X-5788278Y24425948D01*
X-5797801Y24473822D01*
X-5804615Y24542996D01*
X-5862367Y24733379D01*
X-5930535Y24860913D01*
X-6308867Y24482581D01*
X-6331318Y24559040D01*
X-6410605Y24682413D01*
X-6521438Y24778451D01*
X-6654839Y24839373D01*
X-6658637Y24839919D01*
X-6284089Y25214467D01*
X-6411622Y25282634D01*
X-6411625Y25282635D01*
X-6602005Y25340386D01*
X-6800000Y25359887D01*
X-6997994Y25340387D01*
X-7188384Y25282632D01*
X-7188389Y25282630D01*
X-7315913Y25214468D01*
X-6941364Y24839919D01*
X-6945161Y24839373D01*
X-7078562Y24778451D01*
X-7189395Y24682413D01*
X-7268682Y24559040D01*
X-7291134Y24482579D01*
X-7669468Y24860913D01*
X-7737630Y24733389D01*
X-7737632Y24733384D01*
X-7795387Y24542994D01*
X-7802199Y24473822D01*
X-7830402Y24380851D01*
X-7856896Y24348569D01*
X-8246919Y24348569D01*
X-8288278Y24425948D01*
X-8297801Y24473822D01*
X-8304615Y24542996D01*
X-8362367Y24733379D01*
X-8430535Y24860913D01*
X-8808867Y24482581D01*
X-8831318Y24559040D01*
X-8910605Y24682413D01*
X-9021438Y24778451D01*
X-9154839Y24839373D01*
X-9158637Y24839919D01*
X-8784089Y25214467D01*
X-8911622Y25282634D01*
X-8911625Y25282635D01*
X-9102005Y25340386D01*
X-9300000Y25359887D01*
X-9497994Y25340387D01*
X-9688384Y25282632D01*
X-9688389Y25282630D01*
X-9815913Y25214468D01*
X-9441364Y24839919D01*
X-9445161Y24839373D01*
X-9578562Y24778451D01*
X-9689395Y24682413D01*
X-9768682Y24559040D01*
X-9791134Y24482579D01*
X-10169468Y24860913D01*
X-10237630Y24733389D01*
X-10237632Y24733384D01*
X-10295387Y24542994D01*
X-10302199Y24473822D01*
X-10330402Y24380851D01*
X-10356896Y24348569D01*
X-10746919Y24348569D01*
X-10788278Y24425948D01*
X-10797801Y24473822D01*
X-10804615Y24542996D01*
X-10862367Y24733379D01*
X-10930535Y24860913D01*
X-11308867Y24482581D01*
X-11331318Y24559040D01*
X-11410605Y24682413D01*
X-11521438Y24778451D01*
X-11654839Y24839373D01*
X-11658637Y24839919D01*
X-11284089Y25214467D01*
X-11411622Y25282634D01*
X-11411625Y25282635D01*
X-11602005Y25340386D01*
X-11800000Y25359887D01*
X-11997994Y25340387D01*
X-12188384Y25282632D01*
X-12188389Y25282630D01*
X-12315913Y25214468D01*
X-11941364Y24839919D01*
X-11945161Y24839373D01*
X-12078562Y24778451D01*
X-12189395Y24682413D01*
X-12268682Y24559040D01*
X-12291134Y24482579D01*
X-12669468Y24860913D01*
X-12737630Y24733389D01*
X-12737632Y24733384D01*
X-12795387Y24542994D01*
X-12802199Y24473822D01*
X-12830402Y24380851D01*
X-12856896Y24348569D01*
X-13246919Y24348569D01*
X-13288278Y24425948D01*
X-13297801Y24473822D01*
X-13304615Y24542996D01*
X-13362367Y24733379D01*
X-13430535Y24860913D01*
X-13808867Y24482581D01*
X-13831318Y24559040D01*
X-13910605Y24682413D01*
X-14021438Y24778451D01*
X-14154839Y24839373D01*
X-14158637Y24839919D01*
X-13784089Y25214467D01*
X-13911622Y25282634D01*
X-13911625Y25282635D01*
X-14102005Y25340386D01*
X-14300000Y25359887D01*
X-14497994Y25340387D01*
X-14688384Y25282632D01*
X-14688389Y25282630D01*
X-14815913Y25214468D01*
X-14441364Y24839919D01*
X-14445161Y24839373D01*
X-14578562Y24778451D01*
X-14689395Y24682413D01*
X-14768682Y24559040D01*
X-14791134Y24482579D01*
X-15169468Y24860913D01*
X-15237630Y24733389D01*
X-15237632Y24733384D01*
X-15295387Y24542994D01*
X-15314887Y24345000D01*
X-15914000Y24345000D01*
X-15914000Y28289652D01*
X-15895046Y28384940D01*
X-15841070Y28465722D01*
X-15760288Y28519698D01*
X-15665566Y28538651D01*
X-15056841Y28540024D01*
X-14961512Y28521285D01*
X-14880609Y28467491D01*
X-14826451Y28386832D01*
X-14807282Y28291587D01*
X-14809976Y28254488D01*
X-14815913Y28214468D01*
X-14441364Y27839919D01*
X-14445161Y27839373D01*
X-14578562Y27778451D01*
X-14689395Y27682413D01*
X-14768682Y27559040D01*
X-14791134Y27482579D01*
X-15169468Y27860913D01*
X-15237630Y27733389D01*
X-15237632Y27733384D01*
X-15295387Y27542994D01*
X-15314887Y27345000D01*
X-15295386Y27147005D01*
X-15237635Y26956625D01*
X-15237634Y26956622D01*
X-15169467Y26829089D01*
X-14791134Y27207422D01*
X-14768682Y27130960D01*
X-14689395Y27007587D01*
X-14578562Y26911549D01*
X-14445161Y26850627D01*
X-14441366Y26850082D01*
X-14815913Y26475534D01*
X-14688379Y26407367D01*
X-14497996Y26349615D01*
X-14300000Y26330114D01*
X-14102005Y26349615D01*
X-13911622Y26407367D01*
X-13784089Y26475535D01*
X-14158635Y26850082D01*
X-14154839Y26850627D01*
X-14021438Y26911549D01*
X-13910605Y27007587D01*
X-13831318Y27130960D01*
X-13808867Y27207421D01*
X-13430535Y26829089D01*
X-13362367Y26956622D01*
X-13304614Y27147006D01*
X-13297801Y27216178D01*
X-13269598Y27309150D01*
X-13243105Y27341433D01*
X-13288278Y27425948D01*
X-13297801Y27473822D01*
X-13304615Y27542996D01*
X-13362367Y27733379D01*
X-13430535Y27860913D01*
X-13808867Y27482581D01*
X-13831318Y27559040D01*
X-13910605Y27682413D01*
X-14021438Y27778451D01*
X-14154839Y27839373D01*
X-14158637Y27839919D01*
X-13784089Y28214467D01*
X-13790531Y28257899D01*
X-13785764Y28354937D01*
X-13744225Y28442764D01*
X-13672239Y28508010D01*
X-13580763Y28540741D01*
X-13544801Y28543435D01*
X-12556004Y28545665D01*
X-12460675Y28526926D01*
X-12379772Y28473132D01*
X-12325613Y28392473D01*
X-12306445Y28297228D01*
X-12309139Y28260129D01*
X-12315913Y28214468D01*
X-11941364Y27839919D01*
X-11945161Y27839373D01*
X-12078562Y27778451D01*
X-12189395Y27682413D01*
X-12268682Y27559040D01*
X-12291134Y27482579D01*
X-12669468Y27860913D01*
X-12737630Y27733389D01*
X-12737632Y27733384D01*
X-12795387Y27542994D01*
X-12802199Y27473822D01*
X-12830402Y27380851D01*
X-12856896Y27348569D01*
X-12811722Y27264053D01*
X-12802199Y27216178D01*
X-12795387Y27147006D01*
X-12737635Y26956625D01*
X-12737634Y26956622D01*
X-12669467Y26829089D01*
X-12291134Y27207422D01*
X-12268682Y27130960D01*
X-12189395Y27007587D01*
X-12078562Y26911549D01*
X-11945161Y26850627D01*
X-11941366Y26850082D01*
X-12315913Y26475534D01*
X-12188379Y26407367D01*
X-11997996Y26349615D01*
X-11800000Y26330114D01*
X-11602005Y26349615D01*
X-11411622Y26407367D01*
X-11284088Y26475535D01*
X-11658635Y26850082D01*
X-11654839Y26850627D01*
X-11521438Y26911549D01*
X-11410605Y27007587D01*
X-11331318Y27130960D01*
X-11308867Y27207421D01*
X-10930535Y26829089D01*
X-10862367Y26956622D01*
X-10804614Y27147006D01*
X-10797801Y27216178D01*
X-10769598Y27309150D01*
X-10743105Y27341433D01*
X-10788278Y27425948D01*
X-10797801Y27473822D01*
X-10804615Y27542996D01*
X-10862367Y27733379D01*
X-10930535Y27860913D01*
X-11308867Y27482581D01*
X-11331318Y27559040D01*
X-11410605Y27682413D01*
X-11521438Y27778451D01*
X-11654839Y27839373D01*
X-11658637Y27839919D01*
X-11284089Y28214467D01*
X-11291367Y28263536D01*
X-11286600Y28360574D01*
X-11245061Y28448401D01*
X-11173074Y28513647D01*
X-11081599Y28546378D01*
X-11045634Y28549072D01*
X-10055168Y28551306D01*
X-9959839Y28532567D01*
X-9878936Y28478773D01*
X-9824778Y28398114D01*
X-9805609Y28302869D01*
X-9808303Y28265771D01*
X-9815914Y28214469D01*
X-9441364Y27839919D01*
X-9445161Y27839373D01*
X-9578562Y27778451D01*
X-9689395Y27682413D01*
X-9768682Y27559040D01*
X-9791134Y27482579D01*
X-10169468Y27860913D01*
X-10237630Y27733389D01*
X-10237632Y27733384D01*
X-10295387Y27542994D01*
X-10302199Y27473822D01*
X-10330402Y27380851D01*
X-10356896Y27348569D01*
X-10311722Y27264053D01*
X-10302199Y27216178D01*
X-10295387Y27147006D01*
X-10237635Y26956625D01*
X-10237634Y26956622D01*
X-10169467Y26829089D01*
X-9791134Y27207422D01*
X-9768682Y27130960D01*
X-9689395Y27007587D01*
X-9578562Y26911549D01*
X-9445161Y26850627D01*
X-9441366Y26850082D01*
X-9815913Y26475534D01*
X-9688379Y26407367D01*
X-9497996Y26349615D01*
X-9300000Y26330114D01*
X-9102005Y26349615D01*
X-8911622Y26407367D01*
X-8784088Y26475535D01*
X-9158635Y26850082D01*
X-9154839Y26850627D01*
X-9021438Y26911549D01*
X-8910605Y27007587D01*
X-8831318Y27130960D01*
X-8808867Y27207421D01*
X-8430535Y26829089D01*
X-8362367Y26956622D01*
X-8304614Y27147006D01*
X-8297801Y27216178D01*
X-8269598Y27309150D01*
X-8243105Y27341433D01*
X-8288278Y27425948D01*
X-8297801Y27473822D01*
X-8304615Y27542996D01*
X-8362367Y27733379D01*
X-8430535Y27860913D01*
X-8808867Y27482581D01*
X-8831318Y27559040D01*
X-8910605Y27682413D01*
X-9021438Y27778451D01*
X-9154839Y27839373D01*
X-9158637Y27839919D01*
X-8784088Y28214468D01*
X-8792203Y28269174D01*
X-8787436Y28366211D01*
X-8745897Y28454039D01*
X-8673910Y28519284D01*
X-8582434Y28552015D01*
X-8546467Y28554709D01*
X-7554330Y28556947D01*
X-7459002Y28538208D01*
X-7378099Y28484414D01*
X-7323941Y28403755D01*
X-7304772Y28308510D01*
X-7307466Y28271411D01*
X-7315913Y28214468D01*
X-6941364Y27839919D01*
X-6945161Y27839373D01*
X-7078562Y27778451D01*
X-7189395Y27682413D01*
X-7268682Y27559040D01*
X-7291134Y27482579D01*
X-7669468Y27860913D01*
X-7737630Y27733389D01*
X-7737632Y27733384D01*
X-7795387Y27542994D01*
X-7802199Y27473822D01*
X-7830402Y27380851D01*
X-7856896Y27348569D01*
X-7811722Y27264053D01*
X-7802199Y27216178D01*
X-7795387Y27147006D01*
X-7737635Y26956625D01*
X-7737634Y26956622D01*
X-7669467Y26829089D01*
X-7291134Y27207422D01*
X-7268682Y27130960D01*
X-7189395Y27007587D01*
X-7078562Y26911549D01*
X-6945161Y26850627D01*
X-6941366Y26850082D01*
X-7315913Y26475534D01*
X-7188379Y26407367D01*
X-6997996Y26349615D01*
X-6800000Y26330114D01*
X-6602005Y26349615D01*
X-6411622Y26407367D01*
X-6284089Y26475535D01*
X-6658635Y26850082D01*
X-6654839Y26850627D01*
X-6521438Y26911549D01*
X-6410605Y27007587D01*
X-6331318Y27130960D01*
X-6308867Y27207421D01*
X-5930535Y26829089D01*
X-5862367Y26956622D01*
X-5804614Y27147006D01*
X-5797801Y27216178D01*
X-5769598Y27309150D01*
X-5743105Y27341433D01*
X-5788278Y27425948D01*
X-5797801Y27473822D01*
X-5804615Y27542996D01*
X-5862367Y27733379D01*
X-5930535Y27860913D01*
X-6308867Y27482581D01*
X-6331318Y27559040D01*
X-6410605Y27682413D01*
X-6521438Y27778451D01*
X-6654839Y27839373D01*
X-6658637Y27839919D01*
X-6284089Y28214467D01*
X-6293040Y28274809D01*
X-6288273Y28371847D01*
X-6246735Y28459675D01*
X-6174748Y28524921D01*
X-6083273Y28557652D01*
X-6047301Y28560346D01*
X-5053493Y28562588D01*
X-4958165Y28543849D01*
G37*
%TD.AperFunction*%
%TA.AperFunction,Conductor*%
G36*
X-3018731Y28548225D02*
G01*
X-2937828Y28494431D01*
X-2883670Y28413771D01*
X-2864501Y28318526D01*
X-2864500Y28317964D01*
X-2864500Y27770754D01*
X-2883454Y27675466D01*
X-2937430Y27594684D01*
X-3018212Y27540708D01*
X-3113500Y27521754D01*
X-3208788Y27540708D01*
X-3289570Y27594684D01*
X-3343546Y27675466D01*
X-3351778Y27698473D01*
X-3362367Y27733379D01*
X-3430535Y27860913D01*
X-3808867Y27482581D01*
X-3831318Y27559040D01*
X-3910605Y27682413D01*
X-4021438Y27778451D01*
X-4154839Y27839373D01*
X-4158637Y27839919D01*
X-3784089Y28214467D01*
X-3793876Y28280447D01*
X-3789109Y28377485D01*
X-3747571Y28465312D01*
X-3675584Y28530558D01*
X-3584108Y28563289D01*
X-3548134Y28565983D01*
X-3114058Y28566963D01*
X-3018731Y28548225D01*
G37*
%TD.AperFunction*%
%TD*%
%TA.AperFunction,Conductor*%
%TO.N,/BATT_A*%
G36*
X-2818231Y63300147D02*
G01*
X-2737328Y63246353D01*
X-2683170Y63165694D01*
X-2664001Y63070449D01*
X-2664000Y63069887D01*
X-2664000Y57721485D01*
X-2682954Y57626197D01*
X-2736930Y57545415D01*
X-2817712Y57491439D01*
X-2913000Y57472485D01*
X-2916018Y57472503D01*
X-3528947Y57479933D01*
X-3623999Y57500041D01*
X-3704120Y57554993D01*
X-3757113Y57636422D01*
X-3762183Y57663629D01*
X-4158635Y58060082D01*
X-4154839Y58060627D01*
X-4021438Y58121549D01*
X-3910605Y58217587D01*
X-3831318Y58340960D01*
X-3808867Y58417421D01*
X-3430535Y58039089D01*
X-3362367Y58166622D01*
X-3304615Y58357005D01*
X-3285114Y58555000D01*
X-3304615Y58752996D01*
X-3362367Y58943379D01*
X-3430535Y59070913D01*
X-3808867Y58692581D01*
X-3831318Y58769040D01*
X-3910605Y58892413D01*
X-4021438Y58988451D01*
X-4154839Y59049373D01*
X-4158637Y59049919D01*
X-3784089Y59424467D01*
X-3911622Y59492634D01*
X-3911625Y59492635D01*
X-4102005Y59550386D01*
X-4300000Y59569887D01*
X-4497994Y59550387D01*
X-4688384Y59492632D01*
X-4688389Y59492630D01*
X-4815913Y59424468D01*
X-4441364Y59049919D01*
X-4445161Y59049373D01*
X-4578562Y58988451D01*
X-4689395Y58892413D01*
X-4768682Y58769040D01*
X-4791134Y58692579D01*
X-5169468Y59070913D01*
X-5237630Y58943389D01*
X-5237632Y58943384D01*
X-5295387Y58752994D01*
X-5302199Y58683822D01*
X-5330402Y58590851D01*
X-5356896Y58558569D01*
X-5311722Y58474053D01*
X-5302199Y58426178D01*
X-5295387Y58357006D01*
X-5237635Y58166625D01*
X-5237634Y58166622D01*
X-5169467Y58039089D01*
X-4791134Y58417422D01*
X-4768682Y58340960D01*
X-4689395Y58217587D01*
X-4578562Y58121549D01*
X-4445161Y58060627D01*
X-4441366Y58060082D01*
X-4843327Y57658120D01*
X-4875488Y57590119D01*
X-4947475Y57524874D01*
X-5038950Y57492143D01*
X-5075487Y57489448D01*
X-6024514Y57489448D01*
X-6119802Y57508402D01*
X-6200584Y57562378D01*
X-6254560Y57643160D01*
X-6257750Y57659196D01*
X-6658635Y58060082D01*
X-6654839Y58060627D01*
X-6521438Y58121549D01*
X-6410605Y58217587D01*
X-6331318Y58340960D01*
X-6308867Y58417421D01*
X-5930535Y58039089D01*
X-5862367Y58166622D01*
X-5804614Y58357006D01*
X-5797801Y58426178D01*
X-5769598Y58519150D01*
X-5743105Y58551433D01*
X-5788278Y58635948D01*
X-5797801Y58683822D01*
X-5804615Y58752996D01*
X-5862367Y58943379D01*
X-5930535Y59070913D01*
X-6308867Y58692581D01*
X-6331318Y58769040D01*
X-6410605Y58892413D01*
X-6521438Y58988451D01*
X-6654839Y59049373D01*
X-6658637Y59049919D01*
X-6284089Y59424467D01*
X-6411622Y59492634D01*
X-6411625Y59492635D01*
X-6602005Y59550386D01*
X-6800000Y59569887D01*
X-6997994Y59550387D01*
X-7188384Y59492632D01*
X-7188389Y59492630D01*
X-7315913Y59424468D01*
X-6941364Y59049919D01*
X-6945161Y59049373D01*
X-7078562Y58988451D01*
X-7189395Y58892413D01*
X-7268682Y58769040D01*
X-7291134Y58692579D01*
X-7669468Y59070913D01*
X-7737630Y58943389D01*
X-7737632Y58943384D01*
X-7795387Y58752994D01*
X-7802199Y58683822D01*
X-7830402Y58590851D01*
X-7856896Y58558569D01*
X-7811722Y58474053D01*
X-7802199Y58426178D01*
X-7795387Y58357006D01*
X-7737635Y58166625D01*
X-7737634Y58166622D01*
X-7669467Y58039089D01*
X-7291134Y58417422D01*
X-7268682Y58340960D01*
X-7189395Y58217587D01*
X-7078562Y58121549D01*
X-6945161Y58060627D01*
X-6941366Y58060082D01*
X-7343327Y57658120D01*
X-7375488Y57590119D01*
X-7447475Y57524874D01*
X-7538950Y57492143D01*
X-7575487Y57489448D01*
X-8524514Y57489448D01*
X-8619802Y57508402D01*
X-8700584Y57562378D01*
X-8754560Y57643160D01*
X-8757750Y57659196D01*
X-9158635Y58060082D01*
X-9154839Y58060627D01*
X-9021438Y58121549D01*
X-8910605Y58217587D01*
X-8831318Y58340960D01*
X-8808867Y58417421D01*
X-8430535Y58039089D01*
X-8362367Y58166622D01*
X-8304614Y58357006D01*
X-8297801Y58426178D01*
X-8269598Y58519150D01*
X-8243105Y58551433D01*
X-8288278Y58635948D01*
X-8297801Y58683822D01*
X-8304615Y58752996D01*
X-8362367Y58943379D01*
X-8430535Y59070913D01*
X-8808867Y58692581D01*
X-8831318Y58769040D01*
X-8910605Y58892413D01*
X-9021438Y58988451D01*
X-9154839Y59049373D01*
X-9158637Y59049919D01*
X-8784089Y59424467D01*
X-8911622Y59492634D01*
X-8911625Y59492635D01*
X-9102005Y59550386D01*
X-9300000Y59569887D01*
X-9497994Y59550387D01*
X-9688384Y59492632D01*
X-9688389Y59492630D01*
X-9815913Y59424468D01*
X-9441364Y59049919D01*
X-9445161Y59049373D01*
X-9578562Y58988451D01*
X-9689395Y58892413D01*
X-9768682Y58769040D01*
X-9791134Y58692579D01*
X-10169468Y59070913D01*
X-10237630Y58943389D01*
X-10237632Y58943384D01*
X-10295387Y58752994D01*
X-10302199Y58683822D01*
X-10330402Y58590851D01*
X-10356896Y58558569D01*
X-10311722Y58474053D01*
X-10302199Y58426178D01*
X-10295387Y58357006D01*
X-10237635Y58166625D01*
X-10237634Y58166622D01*
X-10169467Y58039089D01*
X-9791134Y58417422D01*
X-9768682Y58340960D01*
X-9689395Y58217587D01*
X-9578562Y58121549D01*
X-9445161Y58060627D01*
X-9441366Y58060082D01*
X-9843327Y57658120D01*
X-9875488Y57590119D01*
X-9947475Y57524874D01*
X-10038950Y57492143D01*
X-10075487Y57489448D01*
X-11024514Y57489448D01*
X-11119802Y57508402D01*
X-11200584Y57562378D01*
X-11254560Y57643160D01*
X-11257750Y57659196D01*
X-11658635Y58060082D01*
X-11654839Y58060627D01*
X-11521438Y58121549D01*
X-11410605Y58217587D01*
X-11331318Y58340960D01*
X-11308867Y58417421D01*
X-10930535Y58039089D01*
X-10862367Y58166622D01*
X-10804614Y58357006D01*
X-10797801Y58426178D01*
X-10769598Y58519150D01*
X-10743105Y58551433D01*
X-10788278Y58635948D01*
X-10797801Y58683822D01*
X-10804615Y58752996D01*
X-10862367Y58943379D01*
X-10930535Y59070913D01*
X-11308867Y58692581D01*
X-11331318Y58769040D01*
X-11410605Y58892413D01*
X-11521438Y58988451D01*
X-11654839Y59049373D01*
X-11658637Y59049919D01*
X-11284089Y59424467D01*
X-11411622Y59492634D01*
X-11411625Y59492635D01*
X-11602005Y59550386D01*
X-11800000Y59569887D01*
X-11997994Y59550387D01*
X-12188384Y59492632D01*
X-12188389Y59492630D01*
X-12315913Y59424468D01*
X-11941364Y59049919D01*
X-11945161Y59049373D01*
X-12078562Y58988451D01*
X-12189395Y58892413D01*
X-12268682Y58769040D01*
X-12291134Y58692579D01*
X-12669468Y59070913D01*
X-12737630Y58943389D01*
X-12737632Y58943384D01*
X-12795387Y58752994D01*
X-12802199Y58683822D01*
X-12830402Y58590851D01*
X-12856896Y58558569D01*
X-12811722Y58474053D01*
X-12802199Y58426178D01*
X-12795387Y58357006D01*
X-12737635Y58166625D01*
X-12737634Y58166622D01*
X-12669467Y58039089D01*
X-12291134Y58417422D01*
X-12268682Y58340960D01*
X-12189395Y58217587D01*
X-12078562Y58121549D01*
X-11945161Y58060627D01*
X-11941366Y58060082D01*
X-12343327Y57658120D01*
X-12375488Y57590119D01*
X-12447475Y57524874D01*
X-12538950Y57492143D01*
X-12575487Y57489448D01*
X-13524514Y57489448D01*
X-13619802Y57508402D01*
X-13700584Y57562378D01*
X-13754560Y57643160D01*
X-13757750Y57659196D01*
X-14158635Y58060082D01*
X-14154839Y58060627D01*
X-14021438Y58121549D01*
X-13910605Y58217587D01*
X-13831318Y58340960D01*
X-13808867Y58417421D01*
X-13430535Y58039089D01*
X-13362367Y58166622D01*
X-13304614Y58357006D01*
X-13297801Y58426178D01*
X-13269598Y58519150D01*
X-13243105Y58551433D01*
X-13288278Y58635948D01*
X-13297801Y58683822D01*
X-13304615Y58752996D01*
X-13362367Y58943379D01*
X-13430535Y59070913D01*
X-13808867Y58692581D01*
X-13831318Y58769040D01*
X-13910605Y58892413D01*
X-14021438Y58988451D01*
X-14154839Y59049373D01*
X-14158637Y59049919D01*
X-13784089Y59424467D01*
X-13911622Y59492634D01*
X-13911625Y59492635D01*
X-14102005Y59550386D01*
X-14300000Y59569887D01*
X-14497994Y59550387D01*
X-14688384Y59492632D01*
X-14688389Y59492630D01*
X-14815913Y59424468D01*
X-14441364Y59049919D01*
X-14445161Y59049373D01*
X-14578562Y58988451D01*
X-14689395Y58892413D01*
X-14768682Y58769040D01*
X-14791134Y58692579D01*
X-15169468Y59070913D01*
X-15237630Y58943389D01*
X-15237632Y58943384D01*
X-15295387Y58752994D01*
X-15314887Y58555000D01*
X-15295386Y58357005D01*
X-15237635Y58166625D01*
X-15237634Y58166622D01*
X-15169467Y58039089D01*
X-14791134Y58417422D01*
X-14768682Y58340960D01*
X-14689395Y58217587D01*
X-14578562Y58121549D01*
X-14445161Y58060627D01*
X-14441366Y58060082D01*
X-14832580Y57668867D01*
X-14832585Y57668752D01*
X-14874124Y57580925D01*
X-14946111Y57515679D01*
X-15037586Y57482948D01*
X-15071105Y57480271D01*
X-15711982Y57472503D01*
X-15807493Y57490301D01*
X-15888923Y57543294D01*
X-15943874Y57623416D01*
X-15963982Y57718467D01*
X-15964000Y57721485D01*
X-15964000Y61555000D01*
X-15314887Y61555000D01*
X-15295386Y61357005D01*
X-15237635Y61166625D01*
X-15237634Y61166622D01*
X-15169467Y61039089D01*
X-14791134Y61417422D01*
X-14768682Y61340960D01*
X-14689395Y61217587D01*
X-14578562Y61121549D01*
X-14445161Y61060627D01*
X-14441366Y61060082D01*
X-14815913Y60685534D01*
X-14688379Y60617367D01*
X-14497996Y60559615D01*
X-14300000Y60540114D01*
X-14102005Y60559615D01*
X-13911622Y60617367D01*
X-13784089Y60685535D01*
X-14158635Y61060082D01*
X-14154839Y61060627D01*
X-14021438Y61121549D01*
X-13910605Y61217587D01*
X-13831318Y61340960D01*
X-13808867Y61417421D01*
X-13430535Y61039089D01*
X-13362367Y61166622D01*
X-13304614Y61357006D01*
X-13297801Y61426178D01*
X-13269598Y61519150D01*
X-13243105Y61551433D01*
X-13246919Y61558569D01*
X-12856896Y61558569D01*
X-12811722Y61474053D01*
X-12802199Y61426178D01*
X-12795387Y61357006D01*
X-12737635Y61166625D01*
X-12737634Y61166622D01*
X-12669467Y61039089D01*
X-12291134Y61417422D01*
X-12268682Y61340960D01*
X-12189395Y61217587D01*
X-12078562Y61121549D01*
X-11945161Y61060627D01*
X-11941366Y61060082D01*
X-12315913Y60685534D01*
X-12188379Y60617367D01*
X-11997996Y60559615D01*
X-11800000Y60540114D01*
X-11602005Y60559615D01*
X-11411622Y60617367D01*
X-11284088Y60685535D01*
X-11658635Y61060082D01*
X-11654839Y61060627D01*
X-11521438Y61121549D01*
X-11410605Y61217587D01*
X-11331318Y61340960D01*
X-11308867Y61417421D01*
X-10930535Y61039089D01*
X-10862367Y61166622D01*
X-10804614Y61357006D01*
X-10797801Y61426178D01*
X-10769598Y61519150D01*
X-10743105Y61551433D01*
X-10746919Y61558569D01*
X-10356896Y61558569D01*
X-10311722Y61474053D01*
X-10302199Y61426178D01*
X-10295387Y61357006D01*
X-10237635Y61166625D01*
X-10237634Y61166622D01*
X-10169467Y61039089D01*
X-9791134Y61417422D01*
X-9768682Y61340960D01*
X-9689395Y61217587D01*
X-9578562Y61121549D01*
X-9445161Y61060627D01*
X-9441366Y61060082D01*
X-9815913Y60685534D01*
X-9688379Y60617367D01*
X-9497996Y60559615D01*
X-9300000Y60540114D01*
X-9102005Y60559615D01*
X-8911622Y60617367D01*
X-8784088Y60685535D01*
X-9158635Y61060082D01*
X-9154839Y61060627D01*
X-9021438Y61121549D01*
X-8910605Y61217587D01*
X-8831318Y61340960D01*
X-8808867Y61417421D01*
X-8430535Y61039089D01*
X-8362367Y61166622D01*
X-8304614Y61357006D01*
X-8297801Y61426178D01*
X-8269598Y61519150D01*
X-8243105Y61551433D01*
X-8246919Y61558569D01*
X-7856896Y61558569D01*
X-7811722Y61474053D01*
X-7802199Y61426178D01*
X-7795387Y61357006D01*
X-7737635Y61166625D01*
X-7737634Y61166622D01*
X-7669467Y61039089D01*
X-7291134Y61417422D01*
X-7268682Y61340960D01*
X-7189395Y61217587D01*
X-7078562Y61121549D01*
X-6945161Y61060627D01*
X-6941366Y61060082D01*
X-7315913Y60685534D01*
X-7188379Y60617367D01*
X-6997996Y60559615D01*
X-6800000Y60540114D01*
X-6602005Y60559615D01*
X-6411622Y60617367D01*
X-6284089Y60685535D01*
X-6658635Y61060082D01*
X-6654839Y61060627D01*
X-6521438Y61121549D01*
X-6410605Y61217587D01*
X-6331318Y61340960D01*
X-6308867Y61417421D01*
X-5930535Y61039089D01*
X-5862367Y61166622D01*
X-5804614Y61357006D01*
X-5797801Y61426178D01*
X-5769598Y61519150D01*
X-5743105Y61551433D01*
X-5746919Y61558569D01*
X-5356896Y61558569D01*
X-5311722Y61474053D01*
X-5302199Y61426178D01*
X-5295387Y61357006D01*
X-5237635Y61166625D01*
X-5237634Y61166622D01*
X-5169467Y61039089D01*
X-4791134Y61417422D01*
X-4768682Y61340960D01*
X-4689395Y61217587D01*
X-4578562Y61121549D01*
X-4445161Y61060627D01*
X-4441366Y61060082D01*
X-4815913Y60685534D01*
X-4688379Y60617367D01*
X-4497996Y60559615D01*
X-4300000Y60540114D01*
X-4102005Y60559615D01*
X-3911622Y60617367D01*
X-3784089Y60685535D01*
X-4158635Y61060082D01*
X-4154839Y61060627D01*
X-4021438Y61121549D01*
X-3910605Y61217587D01*
X-3831318Y61340960D01*
X-3808867Y61417421D01*
X-3430535Y61039089D01*
X-3362367Y61166622D01*
X-3304615Y61357005D01*
X-3285114Y61555000D01*
X-3304615Y61752996D01*
X-3362367Y61943379D01*
X-3430535Y62070913D01*
X-3808867Y61692581D01*
X-3831318Y61769040D01*
X-3910605Y61892413D01*
X-4021438Y61988451D01*
X-4154839Y62049373D01*
X-4158637Y62049919D01*
X-3784089Y62424467D01*
X-3911622Y62492634D01*
X-3911625Y62492635D01*
X-4102005Y62550386D01*
X-4300000Y62569887D01*
X-4497994Y62550387D01*
X-4688384Y62492632D01*
X-4688389Y62492630D01*
X-4815913Y62424468D01*
X-4441364Y62049919D01*
X-4445161Y62049373D01*
X-4578562Y61988451D01*
X-4689395Y61892413D01*
X-4768682Y61769040D01*
X-4791134Y61692579D01*
X-5169468Y62070913D01*
X-5237630Y61943389D01*
X-5237632Y61943384D01*
X-5295387Y61752994D01*
X-5302199Y61683822D01*
X-5330402Y61590851D01*
X-5356896Y61558569D01*
X-5746919Y61558569D01*
X-5788278Y61635948D01*
X-5797801Y61683822D01*
X-5804615Y61752996D01*
X-5862367Y61943379D01*
X-5930535Y62070913D01*
X-6308867Y61692581D01*
X-6331318Y61769040D01*
X-6410605Y61892413D01*
X-6521438Y61988451D01*
X-6654839Y62049373D01*
X-6658637Y62049919D01*
X-6284089Y62424467D01*
X-6411622Y62492634D01*
X-6411625Y62492635D01*
X-6602005Y62550386D01*
X-6800000Y62569887D01*
X-6997994Y62550387D01*
X-7188384Y62492632D01*
X-7188389Y62492630D01*
X-7315913Y62424468D01*
X-6941364Y62049919D01*
X-6945161Y62049373D01*
X-7078562Y61988451D01*
X-7189395Y61892413D01*
X-7268682Y61769040D01*
X-7291134Y61692579D01*
X-7669468Y62070913D01*
X-7737630Y61943389D01*
X-7737632Y61943384D01*
X-7795387Y61752994D01*
X-7802199Y61683822D01*
X-7830402Y61590851D01*
X-7856896Y61558569D01*
X-8246919Y61558569D01*
X-8288278Y61635948D01*
X-8297801Y61683822D01*
X-8304615Y61752996D01*
X-8362367Y61943379D01*
X-8430535Y62070913D01*
X-8808867Y61692581D01*
X-8831318Y61769040D01*
X-8910605Y61892413D01*
X-9021438Y61988451D01*
X-9154839Y62049373D01*
X-9158637Y62049919D01*
X-8784089Y62424467D01*
X-8911622Y62492634D01*
X-8911625Y62492635D01*
X-9102005Y62550386D01*
X-9300000Y62569887D01*
X-9497994Y62550387D01*
X-9688384Y62492632D01*
X-9688389Y62492630D01*
X-9815913Y62424468D01*
X-9441364Y62049919D01*
X-9445161Y62049373D01*
X-9578562Y61988451D01*
X-9689395Y61892413D01*
X-9768682Y61769040D01*
X-9791134Y61692579D01*
X-10169468Y62070913D01*
X-10237630Y61943389D01*
X-10237632Y61943384D01*
X-10295387Y61752994D01*
X-10302199Y61683822D01*
X-10330402Y61590851D01*
X-10356896Y61558569D01*
X-10746919Y61558569D01*
X-10788278Y61635948D01*
X-10797801Y61683822D01*
X-10804615Y61752996D01*
X-10862367Y61943379D01*
X-10930535Y62070913D01*
X-11308867Y61692581D01*
X-11331318Y61769040D01*
X-11410605Y61892413D01*
X-11521438Y61988451D01*
X-11654839Y62049373D01*
X-11658637Y62049919D01*
X-11284089Y62424467D01*
X-11411622Y62492634D01*
X-11411625Y62492635D01*
X-11602005Y62550386D01*
X-11800000Y62569887D01*
X-11997994Y62550387D01*
X-12188384Y62492632D01*
X-12188389Y62492630D01*
X-12315913Y62424468D01*
X-11941364Y62049919D01*
X-11945161Y62049373D01*
X-12078562Y61988451D01*
X-12189395Y61892413D01*
X-12268682Y61769040D01*
X-12291134Y61692579D01*
X-12669468Y62070913D01*
X-12737630Y61943389D01*
X-12737632Y61943384D01*
X-12795387Y61752994D01*
X-12802199Y61683822D01*
X-12830402Y61590851D01*
X-12856896Y61558569D01*
X-13246919Y61558569D01*
X-13288278Y61635948D01*
X-13297801Y61683822D01*
X-13304615Y61752996D01*
X-13362367Y61943379D01*
X-13430535Y62070913D01*
X-13808867Y61692581D01*
X-13831318Y61769040D01*
X-13910605Y61892413D01*
X-14021438Y61988451D01*
X-14154839Y62049373D01*
X-14158637Y62049919D01*
X-13784089Y62424467D01*
X-13911622Y62492634D01*
X-13911625Y62492635D01*
X-14102005Y62550386D01*
X-14300000Y62569887D01*
X-14497994Y62550387D01*
X-14688384Y62492632D01*
X-14688389Y62492630D01*
X-14815913Y62424468D01*
X-14441364Y62049919D01*
X-14445161Y62049373D01*
X-14578562Y61988451D01*
X-14689395Y61892413D01*
X-14768682Y61769040D01*
X-14791134Y61692579D01*
X-15169468Y62070913D01*
X-15237630Y61943389D01*
X-15237632Y61943384D01*
X-15295387Y61752994D01*
X-15314887Y61555000D01*
X-15964000Y61555000D01*
X-15964000Y63041010D01*
X-15945046Y63136298D01*
X-15891070Y63217080D01*
X-15810288Y63271056D01*
X-15715566Y63290009D01*
X-2913558Y63318886D01*
X-2818231Y63300147D01*
G37*
%TD.AperFunction*%
%TD*%
M02*
